<svg width="149" height="135" viewBox="0 0 149 135" fill="none" xmlns="http://www.w3.org/2000/svg">
<g clip-path="url(#clip0_916_18350)">
<path d="M125.983 135H22.3957C14.3123 135 7.07293 130.803 3.03126 123.772C-1.01042 116.742 -1.01042 108.348 3.03126 101.317L54.8247 11.2269C58.8664 4.19747 66.1058 0 74.1904 0C82.275 0 89.5132 4.19747 93.5548 11.2269L145.348 101.317C149.389 108.346 149.389 116.741 145.348 123.772C141.307 130.803 134.068 135 125.984 135H125.983ZM74.1904 4.03696C67.5588 4.03696 61.6222 7.47933 58.3082 13.2454L6.51354 103.337C3.19835 109.103 3.19835 115.987 6.51354 121.753C9.82752 127.519 15.7665 130.963 22.3957 130.963H125.983C132.613 130.963 138.55 127.521 141.865 121.753C145.18 115.987 145.18 109.103 141.865 103.337L90.0714 13.2454C86.7574 7.47933 80.8196 4.03696 74.1892 4.03696H74.1904Z" fill="#204A8F"/>
<path d="M106.715 93.6225V62.5537H98.8667L85.7852 93.6225V100.191H99.6513V108.533H106.715V100.191H110.116V93.6225H106.715ZM99.6513 93.6225H92.3913L99.6513 76.3475V93.6225Z" fill="#204A8F"/>
<path d="M60.9973 97.567C60.9973 97.567 60.9973 97.5682 60.9985 97.5694C61.0106 101.212 61.9454 104.036 63.8088 106.036C65.6613 108.028 68.3275 109.03 71.7977 109.053C71.7977 109.053 71.8001 109.055 71.8013 109.057C71.8413 109.057 71.88 109.057 71.9188 109.057C75.4507 109.057 78.1532 108.05 80.0288 106.035C81.9031 104.021 82.8415 101.175 82.8415 97.4965V73.5872C82.8415 69.9089 81.9031 67.0624 80.0288 65.0487C78.1532 63.0351 75.4507 62.0271 71.9188 62.0271C68.3869 62.0271 65.6831 63.0351 63.8088 65.0487C61.9333 67.0636 60.9961 69.9089 60.9961 73.5872V97.4965C60.9961 97.5196 60.9961 97.5427 60.9961 97.5658L60.9973 97.567ZM68.1919 73.1288C68.1919 70.1071 69.4342 68.5969 71.92 68.5969C74.4058 68.5969 75.6481 70.1071 75.6481 73.1288V97.9573C75.6481 100.979 74.4058 102.489 71.92 102.489C69.4342 102.489 68.1919 100.979 68.1919 97.9573V73.1288Z" fill="#204A8F"/>
<path d="M52.9842 108.533V100.191H56.3854V93.6225H52.9842V62.5537H45.1358L42.001 70.0002L32.0542 93.6225V100.191H45.9204V108.533H52.9842ZM38.6604 93.6225L45.8586 76.4958L45.9204 76.5943V93.6225H38.6604Z" fill="#204A8F"/>
</g>
<defs>
<clipPath id="clip0_916_18350">
<rect width="148.378" height="135" fill="white" transform="translate(0.000488281)"/>
</clipPath>
</defs>
</svg>
