<svg width="9" height="9" viewBox="0 0 9 9" fill="none" xmlns="http://www.w3.org/2000/svg">
<path d="M4.36747 0.0729545L3.99119 0.460699C3.96844 0.48333 3.95036 0.510343 3.93802 0.540155C3.92568 0.569967 3.91932 0.601979 3.91932 0.634316C3.91932 0.666653 3.92568 0.698665 3.93802 0.728477C3.95036 0.758289 3.96844 0.785301 3.99119 0.807932L7.09838 3.96197H0.239754C0.176703 3.96344 0.116636 3.98952 0.0720398 4.03479C0.0274441 4.08006 0.00175052 4.14103 0.000300499 4.20504V4.78376C-0.00133754 4.81612 0.00373459 4.84846 0.0151888 4.87871C0.0266429 4.90895 0.044224 4.93641 0.0667946 4.95933C0.0893652 4.98224 0.116423 5.00008 0.146216 5.01171C0.17601 5.02334 0.207876 5.02848 0.239754 5.02682H7.08128L3.99119 8.19244C3.96844 8.21507 3.95036 8.24208 3.93802 8.27189C3.92568 8.3017 3.91932 8.33372 3.91932 8.36605C3.91932 8.39839 3.92568 8.4304 3.93802 8.46021C3.95036 8.49003 3.96844 8.51704 3.99119 8.53967L4.39028 8.92163C4.41168 8.94626 4.438 8.96599 4.46749 8.9795C4.49698 8.99301 4.52896 9 4.56132 9C4.59367 9 4.62566 8.99301 4.65515 8.9795C4.68464 8.96599 4.71096 8.94626 4.73236 8.92163L8.92279 4.6738C8.94706 4.65208 8.96649 4.62536 8.9798 4.59543C8.99312 4.56549 9 4.53303 9 4.50018C9 4.46734 8.99312 4.43487 8.9798 4.40494C8.96649 4.37501 8.94706 4.34829 8.92279 4.32657L4.70955 0.0729545C4.68726 0.0498566 4.66064 0.0315068 4.63127 0.0189796C4.60191 0.00645252 4.57037 0 4.53851 0C4.50666 0 4.47512 0.00645252 4.44575 0.0189796C4.41638 0.0315068 4.38977 0.0498566 4.36747 0.0729545Z" fill="black"/>
</svg>
