<svg width="17" height="18" viewBox="0 0 17 18" fill="none" xmlns="http://www.w3.org/2000/svg">
<path d="M8.85418 0.572803C8.71335 0.572803 8.58132 0.594633 8.4581 0.63829C8.33487 0.681948 8.22045 0.756939 8.11483 0.863266L1.14377 7.83432C0.932526 8.04556 0.826904 8.29624 0.826904 8.58635C0.826904 8.87646 0.932526 9.12749 1.14377 9.33943C1.35501 9.55068 1.60147 9.6563 1.88312 9.6563C2.16478 9.6563 2.41123 9.55068 2.62248 9.33943L7.79796 4.16395V15.9936C7.79796 16.2929 7.89936 16.5393 8.10215 16.733C8.30495 16.9266 8.55562 17.0234 8.85418 17.0234C9.15344 17.0234 9.40447 16.922 9.60727 16.7192C9.81006 16.5165 9.91111 16.2658 9.9104 15.9672V4.16395L15.0859 9.33943C15.2971 9.55068 15.5436 9.6563 15.8252 9.6563C16.1069 9.6563 16.3533 9.55068 16.5646 9.33943C16.7758 9.12819 16.8815 8.87716 16.8815 8.58635C16.8815 8.29554 16.7758 8.04486 16.5646 7.83432L9.59353 0.863266C9.48791 0.757645 9.37349 0.682652 9.25026 0.63829C9.12704 0.593929 8.99501 0.5721 8.85418 0.572803Z" fill="#CCCCCC"/>
</svg>
