<svg width="13" height="14" viewBox="0 0 13 14" fill="none" xmlns="http://www.w3.org/2000/svg">
<path d="M7.82268 7.11908L12.5628 2.34868C12.8994 2.00995 12.8994 1.47363 12.5628 1.1349C12.2262 0.796178 11.6933 0.796178 11.3568 1.1349L6.61661 5.90531L1.87647 1.1349C1.53989 0.796178 1.00698 0.796178 0.670402 1.1349C0.333824 1.47363 0.333824 2.00995 0.670402 2.34868L5.41054 7.11908L0.670402 11.8895C0.333824 12.2282 0.333824 12.7645 0.670402 13.1033C0.838691 13.2726 1.06307 13.3573 1.27343 13.3573C1.48379 13.3573 1.70818 13.2726 1.87647 13.1033L6.61661 8.34696L11.3568 13.1033C11.525 13.2726 11.7354 13.3573 11.9598 13.3573C12.1842 13.3573 12.3945 13.2726 12.5628 13.1033C12.8994 12.7645 12.8994 12.2282 12.5628 11.8895L7.82268 7.11908Z" fill="#204A8F"/>
</svg>
