<svg width="10" height="10" viewBox="0 0 10 10" fill="none" xmlns="http://www.w3.org/2000/svg">
<path d="M8.12981 0.542236H4.23966C3.7171 0.542236 3.29199 0.977505 3.29199 1.51255V5.49566C3.29199 6.0307 3.7171 6.46597 4.23966 6.46597H8.12981C8.65237 6.46597 9.07748 6.0307 9.07748 5.49566V1.51255C9.07748 0.977505 8.65237 0.542236 8.12981 0.542236ZM8.42784 5.49566C8.42784 5.66403 8.29426 5.8008 8.12981 5.8008H4.23966C4.07522 5.8008 3.94164 5.66403 3.94164 5.49566V1.51255C3.94164 1.34418 4.07522 1.2074 4.23966 1.2074H8.12981C8.29426 1.2074 8.42784 1.34418 8.42784 1.51255V5.49566Z" fill="#204A8F"/>
<path d="M5.30772 8.65603C5.30772 8.8244 5.17414 8.96117 5.0097 8.96117H1.11954C0.955103 8.96117 0.82152 8.8244 0.82152 8.65603V4.67292C0.82152 4.50455 0.955103 4.36777 1.11954 4.36777H2.92596V3.70261H1.11954C0.596986 3.70261 0.171875 4.13788 0.171875 4.67292V8.65603C0.171875 9.19107 0.596986 9.62634 1.11954 9.62634H5.0097C5.53225 9.62634 5.95737 9.19107 5.95737 8.65603V6.84012H5.30772V8.65603V8.65603Z" fill="#204A8F"/>
</svg>
