<svg width="13" height="13" viewBox="0 0 13 13" fill="none" xmlns="http://www.w3.org/2000/svg">
<path d="M13.4643 4.64286H6.03575C5.66634 4.64286 5.31206 4.7896 5.05085 5.05082C4.78964 5.31203 4.64289 5.66631 4.64289 6.03571V13.4643C4.64165 13.6475 4.67684 13.8292 4.7464 13.9988C4.81596 14.1683 4.91851 14.3224 5.0481 14.4519C5.17768 14.5815 5.33172 14.6841 5.50127 14.7536C5.67081 14.8232 5.85249 14.8584 6.03575 14.8571H13.4643C13.8337 14.8571 14.188 14.7104 14.4492 14.4492C14.7104 14.188 14.8572 13.8337 14.8572 13.4643V6.03571C14.8524 5.6678 14.7041 5.31631 14.4439 5.05613C14.1837 4.79596 13.8322 4.64767 13.4643 4.64286ZM13 13H6.50003V6.5H13V13ZM10.2143 3.71429V1.39286C10.2095 1.02494 10.0612 0.673453 9.80104 0.413277C9.54086 0.153101 9.18937 0.00480993 8.82146 0L1.39289 0C1.02348 0 0.669201 0.146747 0.40799 0.407958C0.146778 0.66917 3.13741e-05 1.02345 3.13741e-05 1.39286V8.82143C-0.00120272 9.00469 0.033982 9.18636 0.103543 9.35591C0.173103 9.52546 0.275653 9.67949 0.405239 9.80908C0.534824 9.93866 0.688862 10.0412 0.858409 10.1108C1.02796 10.1803 1.20963 10.2155 1.39289 10.2143H3.71432V6.03571C3.71676 5.42079 3.96213 4.83174 4.39695 4.39692C4.83177 3.96209 5.42082 3.71673 6.03575 3.71429H10.2143Z" fill="black"/>
</svg>
