<svg width="35" height="35" viewBox="0 0 35 35" fill="none" xmlns="http://www.w3.org/2000/svg">
<path d="M17.5203 34.9939C13.5842 34.9939 9.65024 35.0001 5.71417 34.9939C2.28598 34.9855 0.0109277 32.7066 0.00468332 29.2716C-0.00156111 24.9888 -0.00156111 20.7039 0.00468332 16.4211C0.00884627 12.9673 2.24851 10.7301 5.70168 10.7197C7.46261 10.7155 9.22354 10.7092 10.9824 10.7238C11.9857 10.7322 12.5789 11.2321 12.6267 12.0591C12.6767 12.9319 12.0793 13.5672 11.0511 13.5902C9.25684 13.6318 7.46053 13.5902 5.6663 13.6089C3.78464 13.6277 2.89793 14.5317 2.89377 16.4357C2.88544 20.7185 2.88544 25.0034 2.89377 29.2862C2.89793 31.1235 3.86582 32.0963 5.70584 32.0984C13.5759 32.1067 21.446 32.1067 29.316 32.0984C31.0936 32.0984 32.0781 31.1152 32.0823 29.3445C32.0948 25.0263 32.0927 20.7081 32.0823 16.3898C32.0781 14.5255 31.1602 13.6256 29.264 13.6089C27.503 13.5943 25.7421 13.6297 23.9833 13.5922C22.8614 13.5693 22.1745 12.834 22.3701 11.9091C22.5304 11.1488 23.0175 10.7176 23.8313 10.7197C25.9024 10.7259 27.9755 10.6738 30.0445 10.7447C32.6963 10.8342 34.9277 13.1756 34.9589 15.9482C35.0088 20.5414 35.0151 25.1388 34.9589 29.732C34.9214 32.7129 32.5506 34.9668 29.5304 34.9876C25.5256 35.0126 21.523 34.9939 17.5182 34.9939H17.5203Z" fill="#204A8F"/>
<path d="M16.0792 21.9599V20.8476C16.0792 14.6295 16.0792 8.41361 16.0792 2.1956C16.0792 1.84981 16.0542 1.49777 16.1125 1.16239C16.2415 0.408317 16.7536 0.00419872 17.4821 3.25544e-05C18.2106 -0.00413362 18.7289 0.391653 18.8642 1.14365C18.9245 1.47902 18.8996 1.83106 18.8996 2.17686C18.8996 8.39487 18.8996 14.6108 18.8996 20.8288V22.1349C19.2201 21.8891 19.4345 21.7579 19.6093 21.587C20.521 20.6913 21.4077 19.7727 22.3298 18.8894C22.948 18.2979 23.664 18.2854 24.2864 18.8415C24.9129 19.4019 25.0045 20.1935 24.4363 20.7892C22.4547 22.8577 20.4294 24.8867 18.3646 26.8718C17.813 27.4009 17.0554 27.3322 16.4871 26.7739C14.518 24.8367 12.5594 22.889 10.6299 20.9142C10.0325 20.3039 10.0783 19.3665 10.6673 18.8686C11.35 18.2895 12.0744 18.3083 12.703 18.9436C13.7417 19.9956 14.7428 21.085 15.7607 22.1578C15.8668 22.0912 15.973 22.0266 16.0792 21.9599Z" fill="#204A8F"/>
</svg>
