<svg width="17" height="16" viewBox="0 0 17 16" fill="none" xmlns="http://www.w3.org/2000/svg">
<g clip-path="url(#clip0_774_41416)">
<path d="M13.0883 1.29686C14.215 1.29686 15.1309 2.21277 15.1309 3.33941V12.6606C15.1309 13.7872 14.215 14.7031 13.0883 14.7031H3.76715C2.6405 14.7031 1.72459 13.7872 1.72459 12.6606V3.33941C1.72459 2.21277 2.6405 1.29686 3.76715 1.29686H13.0883ZM13.0883 0H3.76715C1.92236 0 0.427734 1.49625 0.427734 3.33941V12.6606C0.427734 14.5054 1.92236 16 3.76715 16H13.0883C14.9331 16 16.4277 14.5037 16.4277 12.6606V3.33941C16.4277 1.49463 14.9331 0 13.0883 0Z" fill="white"/>
<path d="M8.10353 10.3587C8.1862 10.4511 8.30454 10.5029 8.42774 10.5029C8.55095 10.5029 8.66928 10.4511 8.75196 10.3587L10.694 8.20749C10.8091 8.07942 10.8383 7.89624 10.7686 7.73737C10.6989 7.58013 10.5416 7.478 10.3698 7.478H9.45226V6.32218C9.45226 6.08064 9.25773 5.88611 9.01619 5.88611H7.83767C7.59613 5.88611 7.4016 6.08064 7.4016 6.32218V7.478H6.48408C6.31224 7.478 6.155 7.58013 6.08529 7.73737C6.01559 7.89462 6.04477 8.07942 6.15986 8.20749L8.10191 10.3587H8.10353Z" fill="white"/>
<path d="M7.83939 4.08997H9.01791C9.25783 4.08997 9.45398 4.28612 9.45398 4.52603V4.9232C9.45398 5.16474 9.25783 5.35927 9.01791 5.35927H7.83939C7.59947 5.35927 7.40332 5.16312 7.40332 4.9232V4.52603C7.40332 4.28449 7.59947 4.08997 7.83939 4.08997Z" fill="white"/>
<path d="M12.0123 11.0282H4.8439C4.5975 11.0282 4.39648 11.2276 4.39648 11.4756C4.39648 11.7236 4.59588 11.923 4.8439 11.923H12.0123C12.2587 11.923 12.4597 11.7236 12.4597 11.4756C12.4597 11.2276 12.2603 11.0282 12.0123 11.0282Z" fill="white"/>
</g>
<defs>
<clipPath id="clip0_774_41416">
<rect width="16" height="16" fill="white" transform="translate(0.427734)"/>
</clipPath>
</defs>
</svg>
