<svg width="34" height="22" viewBox="0 0 34 22" fill="none" xmlns="http://www.w3.org/2000/svg">
<g clip-path="url(#clip0_558_13663)">
<path d="M33.8268 11.0523C33.7314 10.9501 33.6276 10.8545 33.5411 10.7452C30.896 7.40052 27.7669 4.64412 23.955 2.73462C21.6585 1.58392 19.2332 0.924025 16.6514 0.975836C14.2228 1.02482 11.944 1.69461 9.78906 2.79114C5.92922 4.75575 2.7666 7.57291 0.117823 11.0043C0.0917589 11.0382 0.0726761 11.0778 0.00146484 11.195C0.874618 12.1696 1.7245 13.1903 2.64978 14.1356C4.94995 16.4855 7.53171 18.4506 10.5352 19.8024C12.9968 20.9103 15.5604 21.4712 18.2665 21.2004C20.6206 20.9649 22.8063 20.1849 24.8644 19.0328C28.2789 17.1209 31.1413 14.5534 33.5615 11.4673C33.6411 11.366 33.7384 11.2794 33.8273 11.1856V11.0519L33.8268 11.0523ZM3.24879 11.1851C3.34281 11.0603 3.37725 11.0047 3.42054 10.9576C5.44424 8.74763 7.68949 6.81646 10.3201 5.37703C12.1958 4.35021 14.1776 3.65263 16.3242 3.53111C18.5155 3.40723 20.5773 3.94184 22.5457 4.87586C25.631 6.34026 28.1928 8.50364 30.4878 11.0175C30.5157 11.0481 30.5316 11.0895 30.5562 11.1305C30.5157 11.1828 30.485 11.2285 30.4487 11.2685C28.4339 13.471 26.1984 15.397 23.5817 16.8383C21.7083 17.8698 19.7298 18.5712 17.5827 18.7035C15.5306 18.8298 13.5889 18.3658 11.7187 17.5458C9.258 16.4667 7.12725 14.8902 5.17103 13.0579C4.51943 12.4475 3.89156 11.8121 3.24926 11.1847L3.24879 11.1851Z" fill="white"/>
<path d="M16.9239 4.171C13.1423 4.17194 10.0639 7.28725 10.0625 11.1138C10.0611 14.9564 13.1483 18.0736 16.9477 18.066C20.7274 18.0585 23.797 14.938 23.7932 11.1067C23.7895 7.2816 20.7079 4.17006 16.9244 4.171H16.9239ZM12.5712 11.127C12.5684 8.6923 14.5237 6.70978 16.9281 6.70978C19.3172 6.70978 21.2762 8.68194 21.2846 11.0945C21.2929 13.532 19.3451 15.5211 16.9435 15.5272C14.5353 15.5334 12.574 13.5589 12.5717 11.1265L12.5712 11.127Z" fill="white"/>
</g>
<defs>
<clipPath id="clip0_558_13663">
<rect width="33.8254" height="20.2952" fill="white" transform="matrix(1 0 0 -1 0.00146484 21.2676)"/>
</clipPath>
</defs>
</svg>
