<svg width="21" height="18" viewBox="0 0 21 18" fill="none" xmlns="http://www.w3.org/2000/svg">
<path d="M20.5844 7.2771C17.3365 9.70622 14.1144 12.1159 10.8611 14.5482V10.3535C10.8305 10.3329 10.8198 10.3194 10.8096 10.3194C9.70601 10.3308 8.59976 10.2422 7.50425 10.4664C4.32027 11.1185 1.87309 13.6476 1.32318 16.8763C1.25015 17.3059 1.22437 17.7435 1.17497 18.1909H0.021454C0.0160838 18.1741 0.00104732 18.1498 0.00104732 18.126C0.0107136 17.0611 -0.0247295 15.993 0.0413236 14.9319C0.195447 12.4611 1.08797 10.2681 2.6711 8.37604C4.51199 6.176 6.86036 4.85176 9.68024 4.38117C10.0626 4.31742 10.4503 4.28986 10.8531 4.24394V0C14.1079 2.43398 17.33 4.84365 20.5838 7.2771H20.5844ZM18.562 7.2771C16.3887 5.65192 14.2417 4.04619 12.0544 2.41075V5.4639C10.8687 5.4223 9.7275 5.53522 8.61104 5.86263C7.48867 6.19166 6.45169 6.69683 5.50225 7.38137C4.55764 8.06267 3.75533 8.88606 3.07601 9.83643C2.3505 10.8511 1.67171 12.4249 1.62982 12.9609C1.63573 12.9582 1.64378 12.9571 1.647 12.9522C1.70769 12.8717 1.76676 12.7902 1.82905 12.7107C3.64041 10.3891 6.00973 9.1735 8.94453 9.10434C9.92243 9.08111 10.9009 9.10056 11.8793 9.1011C11.9368 9.1011 11.9942 9.10866 12.0737 9.1146V12.1305C14.246 10.5058 16.3897 8.90281 18.5625 7.27872L18.562 7.2771Z" fill="#204A8F"/>
</svg>
