<svg width="17" height="16" viewBox="0 0 17 16" fill="none" xmlns="http://www.w3.org/2000/svg">
<path d="M13.6289 1H2.62891C1.78516 1 1.12891 1.6875 1.12891 2.5V13.5C1.12891 14.3438 1.78516 15 2.62891 15H13.6289C14.4414 15 15.1289 14.3438 15.1289 13.5V2.5C15.1289 1.6875 14.4414 1 13.6289 1ZM13.4414 13.5H2.81641C2.69141 13.5 2.62891 13.4375 2.62891 13.3125V2.6875C2.62891 2.59375 2.69141 2.5 2.81641 2.5H13.4414C13.5352 2.5 13.6289 2.59375 13.6289 2.6875V13.3125C13.6289 13.4375 13.5352 13.5 13.4414 13.5ZM11.7539 4H7.50391C7.16016 4 6.97266 4.40625 7.22266 4.65625L8.72266 6.15625L4.22266 10.6562C4.06641 10.8125 4.06641 11.0625 4.22266 11.1875L4.94141 11.9062C5.06641 12.0625 5.31641 12.0625 5.47266 11.9062L9.97266 7.40625L11.4727 8.90625C11.7227 9.125 12.1289 8.96875 12.1289 8.625V4.375C12.1289 4.1875 11.9414 4 11.7539 4Z" fill="#9A9A9A"/>
</svg>
