<svg width="26" height="20" viewBox="0 0 26 20" fill="none" xmlns="http://www.w3.org/2000/svg">
<path d="M24.705 13.4842L17.8762 6.8881M24.705 6.8881L17.8762 13.4842M1.94238 13.4391V6.93208C1.94238 6.30105 2.45227 5.78876 3.08051 5.78876H7.16185C7.31247 5.78824 7.46141 5.75826 7.5997 5.70064C7.738 5.64301 7.86278 5.55893 7.96651 5.45346L11.3809 1.72887C12.0979 1.0077 13.3237 1.5189 13.3237 2.53799V17.8343C13.3237 18.8611 12.0831 19.3679 11.3707 18.6324L7.96765 14.9287C7.86362 14.8202 7.73758 14.7336 7.59738 14.6742C7.45719 14.6148 7.30583 14.584 7.15275 14.5835H3.08051C2.45227 14.5835 1.94238 14.0712 1.94238 13.4391Z" stroke="#CCCCCC" stroke-width="2" stroke-linecap="round" stroke-linejoin="round"/>
</svg>
