<svg width="18" height="19" viewBox="0 0 18 19" fill="none" xmlns="http://www.w3.org/2000/svg">
<path d="M17.0156 11.8513L13.4297 10.3396C13.2539 10.2693 12.9727 10.199 12.7969 10.199C12.375 10.199 11.8125 10.4802 11.5664 10.7966L10.4062 12.2029C8.85938 11.3591 6.89062 9.39038 6.04688 7.84351L7.45312 6.68335C7.76953 6.43726 8.05078 5.87476 8.05078 5.45288C8.05078 5.2771 7.98047 4.99585 7.91016 4.82007L6.39844 1.23413C6.15234 0.706787 5.48438 0.249756 4.92188 0.249756C4.81641 0.249756 4.64062 0.284912 4.53516 0.320068L1.23047 1.05835C0.527344 1.23413 0 1.93726 0 2.64038C0 11.2888 6.99609 18.2849 15.6094 18.2498C16.3125 18.2498 17.0156 17.7224 17.1914 17.0193L17.9297 13.7146C17.9648 13.6091 18 13.4333 18 13.363C18 12.7654 17.543 12.0974 17.0156 11.8513ZM15.5391 16.5974C7.91016 16.5623 1.72266 10.3396 1.6875 2.71069L4.85156 1.97241L6.32812 5.41772L3.9375 7.38647C5.58984 10.8669 7.38281 12.6599 10.8633 14.3123L12.832 11.9216L16.2773 13.3982L15.5391 16.5974Z" fill="#828E9B"/>
</svg>
