<svg width="63" height="62" viewBox="0 0 63 62" fill="none" xmlns="http://www.w3.org/2000/svg">
<path d="M23.9508 44.6847L45.6276 31.0593L23.9508 17.4338V44.6847ZM31.6925 61.338C27.4087 61.338 23.383 60.5427 19.6154 58.952C15.8478 57.3634 12.5704 55.2066 9.7834 52.4815C6.99638 49.7564 4.79051 46.5519 3.16578 42.868C1.53898 39.1841 0.725586 35.2478 0.725586 31.0593C0.725586 26.8707 1.53898 22.9345 3.16578 19.2506C4.79051 15.5666 6.99638 12.3621 9.7834 9.63705C12.5704 6.91196 15.8478 4.7541 19.6154 3.16346C23.383 1.57483 27.4087 0.780518 31.6925 0.780518C35.9762 0.780518 40.0019 1.57483 43.7696 3.16346C47.5372 4.7541 50.8145 6.91196 53.6016 9.63705C56.3886 12.3621 58.5945 15.5666 60.2192 19.2506C61.846 22.9345 62.6594 26.8707 62.6594 31.0593C62.6594 35.2478 61.846 39.1841 60.2192 42.868C58.5945 46.5519 56.3886 49.7564 53.6016 52.4815C50.8145 55.2066 47.5372 57.3634 43.7696 58.952C40.0019 60.5427 35.9762 61.338 31.6925 61.338ZM31.6925 55.2823C38.6084 55.2823 44.4663 52.9357 49.2662 48.2425C54.0661 43.5492 56.466 37.8215 56.466 31.0593C56.466 24.297 54.0661 18.5693 49.2662 13.8761C44.4663 9.18287 38.6084 6.83627 31.6925 6.83627C24.7765 6.83627 18.9186 9.18287 14.1188 13.8761C9.3189 18.5693 6.91897 24.297 6.91897 31.0593C6.91897 37.8215 9.3189 43.5492 14.1188 48.2425C18.9186 52.9357 24.7765 55.2823 31.6925 55.2823Z" fill="white"/>
</svg>
