<svg width="17" height="18" viewBox="0 0 17 18" fill="none" xmlns="http://www.w3.org/2000/svg">
<path d="M11.9298 10.7911H11.1758L10.9086 10.5262C11.8762 9.37259 12.408 7.89977 12.4069 6.37657C12.4069 5.1154 12.0431 3.88256 11.3615 2.83394C10.6798 1.78532 9.71097 0.968017 8.57744 0.48539C7.4439 0.00276288 6.19659 -0.123514 4.99324 0.122527C3.78988 0.368568 2.68453 0.975876 1.81696 1.86765C0.949386 2.75943 0.358563 3.89563 0.119201 5.13256C-0.120162 6.36949 0.00268788 7.65161 0.472214 8.81677C0.94174 9.98193 1.73685 10.9778 2.75701 11.6785C3.77716 12.3791 4.97654 12.7531 6.20347 12.7531C7.74002 12.7531 9.15251 12.1743 10.2405 11.2129L10.4982 11.4876V12.2626L15.2701 17.1579L16.6921 15.6962L11.9298 10.7911ZM6.20347 10.7911C3.82707 10.7911 1.90876 8.81928 1.90876 6.37657C1.90876 3.93385 3.82707 1.96202 6.20347 1.96202C8.57988 1.96202 10.4982 3.93385 10.4982 6.37657C10.4982 8.81928 8.57988 10.7911 6.20347 10.7911Z" fill="#204A8F"/>
</svg>
