<svg width="18" height="17" viewBox="0 0 18 17" fill="none" xmlns="http://www.w3.org/2000/svg">
<path d="M9.00033 14.0044L4.85033 16.56C4.667 16.6793 4.47533 16.7304 4.27533 16.7133C4.07533 16.6963 3.90033 16.6282 3.75033 16.5089C3.60033 16.3896 3.48366 16.2404 3.40033 16.0612C3.317 15.8819 3.30033 15.6819 3.35033 15.4611L4.45033 10.6311L0.775329 7.38556C0.608662 7.23222 0.504662 7.05742 0.463329 6.86116C0.421996 6.66489 0.434329 6.47339 0.500329 6.28667C0.566996 6.09926 0.666995 5.94593 0.800329 5.82667C0.933662 5.70741 1.117 5.63074 1.35033 5.59667L6.20033 5.16222L8.07533 0.613334C8.15866 0.408889 8.288 0.255556 8.46333 0.153333C8.63866 0.0511112 8.81766 0 9.00033 0C9.18366 0 9.36266 0.0511112 9.53733 0.153333C9.712 0.255556 9.84133 0.408889 9.92533 0.613334L11.8003 5.16222L16.6503 5.59667C16.8837 5.63074 17.067 5.70741 17.2003 5.82667C17.3337 5.94593 17.4337 6.09926 17.5003 6.28667C17.567 6.47407 17.5797 6.66591 17.5383 6.86218C17.497 7.05844 17.3927 7.2329 17.2253 7.38556L13.5503 10.6311L14.6503 15.4611C14.7003 15.6826 14.6837 15.8829 14.6003 16.0622C14.517 16.2414 14.4003 16.3903 14.2503 16.5089C14.1003 16.6282 13.9253 16.6963 13.7253 16.7133C13.5253 16.7304 13.3337 16.6793 13.1503 16.56L9.00033 14.0044Z" fill="#204A8F"/>
</svg>
