<svg width="23" height="20" viewBox="0 0 23 20" fill="none" xmlns="http://www.w3.org/2000/svg">
<path d="M15.8 6.04716C15.8 6.04716 17.352 7.59918 17.352 10.1859C17.352 12.7726 15.8 14.3246 15.8 14.3246M18.904 2.94313C18.904 2.94313 21.4907 5.52982 21.4907 10.1859C21.4907 14.8419 18.904 17.4286 18.904 17.4286M1.3147 13.2475V7.12324C1.3147 6.52934 1.77823 6.04718 2.34936 6.04718H6.05967C6.19659 6.04669 6.33199 6.01848 6.45772 5.96424C6.58344 5.91 6.69687 5.83087 6.79118 5.7316L9.89517 2.22611C10.547 1.54736 11.6613 2.02848 11.6613 2.98763V17.3842C11.6613 18.3505 10.5336 18.8275 9.88586 18.1353L6.79221 14.6495C6.69764 14.5474 6.58306 14.4659 6.45561 14.41C6.32815 14.3541 6.19056 14.325 6.05139 14.3246H2.34936C1.77823 14.3246 1.3147 13.8424 1.3147 13.2475Z" stroke="#CCCCCC" stroke-width="2" stroke-linecap="round" stroke-linejoin="round"/>
</svg>
