<?xml version="1.0" encoding="UTF-8"?>
<!DOCTYPE svg  PUBLIC '-//W3C//DTD SVG 1.1//EN'  'http://www.w3.org/Graphics/SVG/1.1/DTD/svg11.dtd'>
<svg version="1.1" xmlns="http://www.w3.org/2000/svg">
<defs>
<font id="TTHoves-DemiBold" horiz-adv-x="600">
<font-face font-family="s" font-weight="600" ascent="700" bbox="-50 -225 1015 950" cap-height="700" descent="-300" panose-1="2 0 5 3 3 0 0 2 0 4" underline-position="-200" underline-thickness="50" unicode-range="U+0020-0513" units-per-em="1000" x-height="510"/>
<missing-glyph/>
<glyph glyph-name="space" horiz-adv-x="250" unicode=" "/>
<glyph d="M100 205l-20 220v275h130v-275l-20 -220h-90zM80 0v140h130v-140h-130z" glyph-name="exclam" horiz-adv-x="290" unicode="!"/>
<glyph d="M245 470v230h115v-230h-115zM60 470v230h115v-230h-115z" glyph-name="quotedbl" horiz-adv-x="420" unicode='"'/>
<glyph d="M105 0l37 170h-132l25 110h130l30 140h-130l25 110h130l35 170h115l-36 -170h124l37 170h115l-36 -170h131l-25 -110h-130l-30 -140h130l-25 -110h-129l-36 -170h-115l37 170h-126l-36 -170h-115zM280 280h125l30 140h-125z" glyph-name="numbersign" horiz-adv-x="715" unicode="#"/>
<glyph d="M245 -110v107q-99 18 -154.5 78t-55.5 145h130q0 -47 42.5 -78.5t112.5 -31.5q71 0 105.5 24.5t34.5 65.5q0 70 -115 90l-120 20q-175 29 -175 190q0 76 51.5 132.5t143.5 71.5v106h125v-104q102 -15 156 -76t54 -150h-130q0 47 -37 78.5t-103 31.5q-65 0 -97.5 -24.5 t-32.5 -65.5q0 -32 21 -51.5t74 -28.5l110 -20q107 -19 156 -66.5t49 -133.5q0 -85 -56 -140t-164 -67v-103h-125z" glyph-name="dollar" horiz-adv-x="635" unicode="$"/>
<glyph d="M125 0l435 700h125l-435 -700h-125zM200 710q71 0 118 -47t47 -118t-47 -118t-118 -47t-118 47t-47 118t47 118t118 47zM200 470q30 0 50 21t20 54t-20 54t-50 21t-50 -21t-20 -54t20 -54t50 -21zM445 155q0 71 47 118t118 47t118 -47t47 -118t-47 -118t-118 -47t-118 47 t-47 118zM610 80q30 0 50 21t20 54t-20 54t-50 21t-50 -21t-20 -54t20 -54t50 -21z" glyph-name="percent" horiz-adv-x="810" unicode="%"/>
<glyph d="M130 340l40 30l-37 40q-20 22 -30.5 36t-19 38.5t-8.5 55.5q0 73 55.5 121.5t144.5 48.5q86 0 143 -50.5t57 -124.5q0 -39 -16.5 -71.5t-32.5 -47t-41 -31.5l-50 -35l125 -135q10 19 17 35q18 42 18 80h120q0 -75 -38 -145q-14 -27 -37 -55l120 -130h-150l-55 60 q-22 -19 -52 -35q-61 -35 -133 -35q-108 0 -169 52t-61 133q0 60 20.5 94t69.5 71zM265 430l30 20q27 18 41 35.5t14 44.5q0 30 -21 50t-54 20t-54 -20t-21 -50q0 -35 45 -80zM385 135l-141 152l-29 -22q-50 -37 -50 -85q0 -35 29 -60t76 -25q75 0 115 40z" glyph-name="ampersand" horiz-adv-x="645" unicode="&amp;"/>
<glyph d="M60 470v230h115v-230h-115z" glyph-name="quotesingle" horiz-adv-x="235" unicode="'"/>
<glyph d="M340 -200h-130q-55 79 -97.5 197t-42.5 268t42.5 268t97.5 197h130q-145 -211 -145 -465t145 -465z" glyph-name="parenleft" horiz-adv-x="360" unicode="("/>
<glyph d="M150 -200h-130q145 211 145 465t-145 465h130q55 -79 97.5 -197t42.5 -268t-42.5 -268t-97.5 -197z" glyph-name="parenright" horiz-adv-x="360" unicode=")"/>
<glyph d="M90 365l90 110l-140 30l30 95l135 -50l-10 150h100l-10 -150l135 50l30 -95l-140 -30l90 -110l-75 -60l-80 120l-80 -120z" glyph-name="asterisk" horiz-adv-x="490" unicode="*"/>
<glyph d="M220 50v185h-170v110h170v185h110v-185h170v-110h-170v-185h-110z" glyph-name="plus" horiz-adv-x="550" unicode="+"/>
<glyph d="M40 -90l25 230h140l-65 -230h-100z" glyph-name="comma" horiz-adv-x="255" unicode=","/>
<glyph d="M45 230v115h340v-115h-340z" glyph-name="hyphen" horiz-adv-x="430" unicode="-"/>
<glyph d="M60 0v140h140v-140h-140z" glyph-name="period" horiz-adv-x="260" unicode="."/>
<glyph d="M0 -200l275 930h125l-275 -930h-125z" glyph-name="slash" horiz-adv-x="400" unicode="/"/>
<glyph d="M335 115q68 0 114 60.5t46 174.5t-46 174.5t-114 60.5t-114 -60.5t-46 -174.5t46 -174.5t114 -60.5zM335 710q124 0 207 -96.5t83 -263.5t-83 -263.5t-207 -96.5t-207 96.5t-83 263.5t83 263.5t207 96.5z" glyph-name="zero" horiz-adv-x="670" unicode="0"/>
<glyph d="M170 0v500h-145v125h115q30 0 30 30v45h130v-700h-130z" glyph-name="one" horiz-adv-x="375" unicode="1"/>
<glyph d="M55 0v115l285 275q16 16 23.5 25.5t14.5 27.5t7 42q0 42 -28 71t-72 29q-46 0 -78 -34.5t-32 -85.5h-130q0 108 67.5 176.5t172.5 68.5q107 0 171 -63t64 -162q0 -18 -3 -34.5t-6.5 -28.5t-12 -27.5t-13.5 -23t-18 -22.5t-17.5 -19.5l-20.5 -20.5l-19 -19l-165 -160v-5 h285v-125h-475z" glyph-name="two" horiz-adv-x="570" unicode="2"/>
<glyph d="M30 210h130q0 -40 32.5 -67.5t87.5 -27.5t85 25t30 65q0 43 -31 69t-89 26h-45v115h45q55 0 82.5 25t27.5 65q0 35 -27 57.5t-78 22.5q-52 0 -81 -23t-29 -62h-130q0 89 67.5 149.5t177.5 60.5q103 0 166.5 -58.5t63.5 -146.5q0 -68 -48 -114q-23 -21 -47 -31v-5 q30 -13 52 -33q53 -47 53 -127q0 -85 -68 -145t-177 -60q-114 0 -182 62.5t-68 157.5z" glyph-name="three" horiz-adv-x="575" unicode="3"/>
<glyph d="M15 140v110l250 450h200v-440h80v-120h-80v-140h-130v140h-320zM160 260h175v285h-20l-155 -280v-5z" glyph-name="four" horiz-adv-x="565" unicode="4"/>
<glyph d="M45 200h130q5 -32 35 -58.5t85 -26.5q57 0 88.5 30.5t31.5 84.5q0 50 -32 82.5t-88 32.5q-40 0 -67.5 -14.5t-37.5 -30.5h-133l40 400h408v-125h-295l-15 -135h5q36 25 110 25q102 0 168.5 -66.5t66.5 -168.5q0 -106 -69.5 -173t-180.5 -67q-64 0 -113.5 19.5t-77.5 51.5 t-42.5 67t-16.5 72z" glyph-name="five" horiz-adv-x="585" unicode="5"/>
<glyph d="M170 230q0 -53 33.5 -86.5t86.5 -33.5t86.5 33.5t33.5 86.5t-33.5 86.5t-86.5 33.5t-86.5 -33.5t-33.5 -86.5zM85 390l200 310h150l-145 -230h10q101 0 170.5 -69.5t69.5 -170.5q0 -102 -71 -171t-179 -69t-179 69t-71 171q0 91 45 160z" glyph-name="six" horiz-adv-x="580" unicode="6"/>
<glyph d="M105 0l240 575h-320v125h470v-115l-245 -585h-145z" glyph-name="seven" horiz-adv-x="525" unicode="7"/>
<glyph d="M150 360v5q-26 13 -45 33q-45 45 -45 112q0 84 65 142t170 58t170 -58t65 -142q0 -67 -45 -112q-19 -20 -45 -33v-5q30 -16 52 -38q53 -53 53 -127q0 -86 -68.5 -145.5t-181.5 -59.5t-181.5 59.5t-68.5 145.5q0 75 52 127q23 23 53 38zM190 505q0 -39 28.5 -64.5 t76.5 -25.5t76.5 25.5t28.5 64.5t-28.5 64.5t-76.5 25.5t-76.5 -25.5t-28.5 -64.5zM175 205q0 -43 32.5 -71.5t87.5 -28.5t87.5 28.5t32.5 71.5t-32.5 71.5t-87.5 28.5t-87.5 -28.5t-32.5 -71.5z" glyph-name="eight" horiz-adv-x="590" unicode="8"/>
<glyph d="M290 350q53 0 86.5 33.5t33.5 86.5t-33.5 86.5t-86.5 33.5t-86.5 -33.5t-33.5 -86.5t33.5 -86.5t86.5 -33.5zM145 0l145 230h-10q-101 0 -170.5 69.5t-69.5 170.5q0 102 71 171t179 69t179 -69t71 -171q0 -91 -45 -160l-200 -310h-150z" glyph-name="nine" horiz-adv-x="580" unicode="9"/>
<glyph d="M60 0v140h140v-140h-140zM60 370v140h140v-140h-140z" glyph-name="colon" horiz-adv-x="260" unicode=":"/>
<glyph d="M40 -90l25 230h140l-65 -230h-100zM65 370v140h140v-140h-140z" glyph-name="semicolon" horiz-adv-x="255" unicode=";"/>
<glyph d="M55 230v120l440 175v-125l-295 -110l295 -110v-125z" glyph-name="less" horiz-adv-x="550" unicode="&lt;"/>
<glyph d="M70 335v110h410v-110h-410zM70 135v110h410v-110h-410z" glyph-name="equal" horiz-adv-x="550" unicode="="/>
<glyph d="M55 55v125l295 110l-295 110v125l440 -175v-120z" glyph-name="greater" horiz-adv-x="550" unicode="&gt;"/>
<glyph d="M190 205v40q0 66 23 104.5t77 65.5q35 18 52.5 36t17.5 49q0 39 -28.5 64.5t-76.5 25.5q-44 0 -69.5 -25.5t-25.5 -64.5h-135q0 92 64.5 151t170.5 59q105 0 170 -58t65 -142q0 -65 -26 -102.5t-79 -62.5q-75 -37 -75 -100v-40h-125zM185 0v140h135v-140h-135z" glyph-name="question" horiz-adv-x="530" unicode="?"/>
<glyph d="M460 175q43 0 71.5 31t28.5 79t-28.5 79t-71.5 31t-71.5 -31t-28.5 -79t28.5 -79t71.5 -31zM470 -5h205v-105h-205q-186 0 -303 113t-117 287t121 292t304 118q189 0 309.5 -113.5t120.5 -281.5q0 -111 -51 -168t-144 -57q-54 0 -88 27q-17 12 -27 28h-5q-15 -16 -34 -28 q-41 -27 -101 -27q-87 0 -143.5 57.5t-56.5 147.5t56.5 147.5t143.5 57.5q46 0 81 -20q16 -9 29 -20h5l10 35h85v-250q0 -26 13.5 -40.5t36.5 -14.5q80 0 80 125q0 126 -88 208t-232 82q-134 0 -224.5 -88.5t-90.5 -216.5q0 -129 86 -212t224 -83z" glyph-name="at" horiz-adv-x="945" unicode="@"/>
<glyph d="M0 0l250 700h190l250 -700h-145l-53 150h-294l-53 -150h-145zM240 270h210l-95 280h-20z" glyph-name="A" horiz-adv-x="690" unicode="A"/>
<glyph d="M75 0v700h325q90 0 145 -54t55 -141q0 -65 -35 -114q-18 -23 -35 -36v-5q22 -13 40 -36q40 -50 40 -119q0 -87 -55 -141t-145 -54h-335zM205 410h180q38 0 61.5 23.5t23.5 61.5q0 42 -23 66t-62 24h-180v-175zM205 115h190q34 0 59.5 26t25.5 64t-25.5 64t-59.5 26h-190 v-180z" glyph-name="B" horiz-adv-x="660" unicode="B"/>
<glyph d="M565 250h135q-6 -28 -17.5 -58t-37 -67.5t-58.5 -66.5t-86 -48.5t-116 -19.5q-144 0 -242 102t-98 258t98 258t242 102q59 0 109.5 -17.5t84.5 -44.5t60 -62.5t40 -67.5t21 -63h-135q-20 52 -64.5 91t-115.5 39q-92 0 -151 -64.5t-59 -170.5t59 -170.5t151 -64.5 q72 0 116.5 40t63.5 95z" glyph-name="C" horiz-adv-x="735" unicode="C"/>
<glyph d="M75 0v700h255q143 0 241.5 -100.5t98.5 -249.5t-98.5 -249.5t-241.5 -100.5h-255zM205 125h125q91 0 150.5 62t59.5 163t-59.5 163t-150.5 62h-125v-450z" glyph-name="D" horiz-adv-x="715" unicode="D"/>
<glyph d="M75 0v700h470v-120h-340v-170h320v-120h-320v-170h340v-120h-470z" glyph-name="E" unicode="E"/>
<glyph d="M75 0v700h465v-120h-335v-170h310v-120h-310v-290h-130z" glyph-name="F" horiz-adv-x="585" unicode="F"/>
<glyph d="M605 0l-10 80h-5q-19 -25 -50 -45q-68 -45 -155 -45q-144 0 -242 102t-98 258t98 258t242 102q68 0 125 -23t95 -61t61.5 -80t33.5 -86h-135q-58 125 -180 125q-92 0 -151 -64.5t-59 -170.5t59 -170.5t151 -64.5q46 0 84 17t60 41.5t34 49t12 42.5v5h-175v100h305v-370 h-100z" glyph-name="G" horiz-adv-x="765" unicode="G"/>
<glyph d="M75 0v700h130v-280h315v280h130v-700h-130v290h-315v-290h-130z" glyph-name="H" horiz-adv-x="725" unicode="H"/>
<glyph d="M75 0v700h130v-700h-130z" glyph-name="I" horiz-adv-x="280" unicode="I"/>
<glyph d="M10 0v125h155q45 0 45 50v525h130v-560q0 -140 -140 -140h-190z" glyph-name="J" horiz-adv-x="410" unicode="J"/>
<glyph d="M75 0v700h130v-315l240 315h160l-265 -345l285 -355h-160l-260 325v-325h-130z" glyph-name="K" horiz-adv-x="605" unicode="K"/>
<glyph d="M75 0v700h130v-575h330v-125h-460z" glyph-name="L" horiz-adv-x="555" unicode="L"/>
<glyph d="M75 0v700h210l165 -490h20l165 490h210v-700h-130v485h-20l-165 -485h-140l-165 485h-20v-485h-130z" glyph-name="M" horiz-adv-x="920" unicode="M"/>
<glyph d="M75 0v700h175l255 -485h20v485h130v-700h-175l-255 485h-20v-485h-130z" glyph-name="N" horiz-adv-x="730" unicode="N"/>
<glyph d="M385 115q92 0 151 64.5t59 170.5t-59 170.5t-151 64.5t-151 -64.5t-59 -170.5t59 -170.5t151 -64.5zM385 710q144 0 242 -102t98 -258t-98 -258t-242 -102t-242 102t-98 258t98 258t242 102z" glyph-name="O" horiz-adv-x="770" unicode="O"/>
<glyph d="M75 0v700h315q99 0 159.5 -64t60.5 -171t-60.5 -171t-159.5 -64h-185v-230h-130zM205 355h180q43 0 69 29t26 81t-26 81t-69 29h-180v-220z" glyph-name="P" horiz-adv-x="650" unicode="P"/>
<glyph d="M585 -50l-62 68q-63 -28 -138 -28q-144 0 -242 102t-98 258t98 258t242 102t242 -102t98 -258q0 -166 -108 -268l118 -132h-150zM432 120l-107 120h150l58 -65q62 65 62 175q0 106 -59 170.5t-151 64.5t-151 -64.5t-59 -170.5t59 -170.5t151 -64.5q28 0 47 5z" glyph-name="Q" horiz-adv-x="770" unicode="Q"/>
<glyph d="M75 0v700h320q94 0 157 -65.5t63 -169.5q0 -98 -59.5 -159.5t-145.5 -65.5l225 -240h-165l-225 240h-40v-240h-130zM205 360h185q38 0 66.5 30.5t28.5 74.5q0 48 -28 79t-67 31h-185v-215z" glyph-name="R" horiz-adv-x="665" unicode="R"/>
<glyph d="M35 220h130q0 -47 42.5 -78.5t112.5 -31.5q71 0 105.5 24.5t34.5 65.5q0 70 -115 90l-120 20q-175 29 -175 190q0 90 70 150t190 60q130 0 200 -64t70 -166h-130q0 47 -37 78.5t-103 31.5q-65 0 -97.5 -24.5t-32.5 -65.5q0 -32 21 -51.5t74 -28.5l110 -20 q107 -19 156 -66.5t49 -133.5q0 -94 -70 -152t-200 -58q-132 0 -208.5 64.5t-76.5 165.5z" glyph-name="S" horiz-adv-x="635" unicode="S"/>
<glyph d="M230 0v575h-210v125h550v-125h-210v-575h-130z" glyph-name="T" horiz-adv-x="590" unicode="T"/>
<glyph d="M70 285v415h130v-415q0 -74 46 -122t114 -48t114 48t46 122v415h130v-415q0 -135 -79 -215t-211 -80t-211 80t-79 215z" glyph-name="U" horiz-adv-x="720" unicode="U"/>
<glyph d="M245 0l-240 700h145l180 -540h20l180 540h145l-240 -700h-190z" glyph-name="V" horiz-adv-x="680" unicode="V"/>
<glyph d="M180 0l-175 700h145l120 -490h20l125 490h150l125 -490h20l120 490h145l-175 -700h-180l-120 480h-20l-120 -480h-180z" glyph-name="W" horiz-adv-x="980" unicode="W"/>
<glyph d="M-10 0l240 360l-225 340h155l150 -230h20l150 230h155l-225 -340l240 -360h-155l-165 250h-20l-165 -250h-155z" glyph-name="X" horiz-adv-x="640" unicode="X"/>
<glyph d="M245 0v240l-255 460h145l165 -300h20l165 300h145l-255 -460v-240h-130z" glyph-name="Y" horiz-adv-x="620" unicode="Y"/>
<glyph d="M35 0v115l355 460h-350v125h525v-115l-355 -460h360v-125h-535z" glyph-name="Z" horiz-adv-x="605" unicode="Z"/>
<glyph d="M80 -200v930h250v-115h-125v-700h125v-115h-250z" glyph-name="bracketleft" horiz-adv-x="365" unicode="["/>
<glyph d="M275 -200l-275 930h125l275 -930h-125z" glyph-name="backslash" horiz-adv-x="400" unicode="\"/>
<glyph d="M35 -200v115h125v700h-125v115h250v-930h-250z" glyph-name="bracketright" horiz-adv-x="365" unicode="]"/>
<glyph d="M45 415l105 285h145l105 -285h-110l-65 175h-5l-65 -175h-110z" glyph-name="asciicircum" horiz-adv-x="445" unicode="^"/>
<glyph d="M-20 -215v115h430v-115h-430z" glyph-name="underscore" horiz-adv-x="390" unicode="_"/>
<glyph d="M150 590l-120 145h130l95 -145h-105z" glyph-name="grave" horiz-adv-x="285" unicode="`"/>
<glyph d="M385 0l-10 50h-5q-13 -16 -35 -30q-48 -30 -110 -30q-84 0 -134.5 45t-50.5 110q0 78 54 124t156 46h115v10q0 43 -24.5 69t-65.5 26q-39 0 -62.5 -20t-27.5 -45h-125q9 69 64 117t151 48t155.5 -56t59.5 -139v-325h-105zM365 205v15h-105q-95 0 -95 -65q0 -30 21 -47.5 t59 -17.5q57 0 88.5 30.5t31.5 84.5z" glyph-name="a" horiz-adv-x="550" unicode="a"/>
<glyph d="M325 105q58 0 94 39.5t36 110.5t-36 110.5t-94 39.5t-94 -39.5t-36 -110.5t36 -110.5t94 -39.5zM70 0v700h125v-245h5q14 18 35 32q49 33 110 33q100 0 167.5 -73.5t67.5 -191.5t-67.5 -191.5t-167.5 -73.5q-66 0 -114 32q-21 14 -36 33h-5l-10 -55h-110z" glyph-name="b" horiz-adv-x="620" unicode="b"/>
<glyph d="M415 190h125q-7 -34 -22.5 -66t-42.5 -63.5t-72.5 -51t-102.5 -19.5q-113 0 -186.5 74.5t-73.5 190.5t73.5 190.5t186.5 74.5q57 0 102.5 -19.5t72.5 -50.5t42.5 -62t22.5 -63h-125q-30 80 -115 80q-57 0 -96 -42t-39 -108t39 -108t96 -42q88 0 115 85z" glyph-name="c" horiz-adv-x="575" unicode="c"/>
<glyph d="M295 105q58 0 94 39.5t36 110.5t-36 110.5t-94 39.5t-94 -39.5t-36 -110.5t36 -110.5t94 -39.5zM440 0l-10 55h-5q-15 -19 -36 -33q-48 -32 -114 -32q-100 0 -167.5 73.5t-67.5 191.5t67.5 191.5t167.5 73.5q60 0 110 -33q21 -14 35 -32h5v245h125v-700h-110z" glyph-name="d" horiz-adv-x="620" unicode="d"/>
<glyph d="M165 300h260q-9 51 -41.5 83t-83.5 32q-54 0 -88.5 -31.5t-46.5 -83.5zM405 150h130q-5 -19 -19.5 -42.5t-41 -52t-72.5 -47t-102 -18.5q-113 0 -186.5 74.5t-73.5 190.5t73.5 190.5t186.5 74.5q105 0 177.5 -73.5t72.5 -181.5q0 -9 -3 -36l-2 -14h-380q8 -54 45 -87 t90 -33q40 0 68 17.5t37 37.5z" glyph-name="e" horiz-adv-x="590" unicode="e"/>
<glyph d="M110 0v390h-85v120h85v75q0 57 34 91t91 34h110v-110h-75q-15 0 -25 -10t-10 -25v-55h110v-120h-110v-390h-125z" glyph-name="f" horiz-adv-x="370" unicode="f"/>
<glyph d="M55 -25h130q4 -16 13 -31t34.5 -29.5t62.5 -14.5q54 0 87 31t33 84v70h-5q-12 -14 -34 -28q-41 -27 -106 -27q-99 0 -164.5 68.5t-65.5 176.5t65.5 176.5t164.5 68.5q62 0 110 -30q22 -14 35 -30h5l10 50h110v-496q0 -101 -66.5 -162.5t-178.5 -61.5q-56 0 -101 16 t-70 39t-41.5 50t-22 47t-5.5 33zM290 410q-53 0 -89 -38t-36 -97t36 -97t89 -38t89 38t36 97t-36 97t-89 38z" glyph-name="g" horiz-adv-x="605" unicode="g"/>
<glyph d="M70 0v700h125v-240h5q12 15 34 30q46 30 106 30q87 0 143.5 -59.5t56.5 -155.5v-305h-125v295q0 49 -30.5 79.5t-79.5 30.5t-79.5 -30.5t-30.5 -79.5v-295h-125z" glyph-name="h" unicode="h"/>
<glyph d="M65 0v510h125v-510h-125zM60 590v120h135v-120h-135z" glyph-name="i" horiz-adv-x="255" unicode="i"/>
<glyph d="M-50 -200v115h80q35 0 35 35v560h125v-590q0 -54 -35.5 -87t-94.5 -33h-110zM60 590v120h135v-120h-135z" glyph-name="j" horiz-adv-x="255" unicode="j"/>
<glyph d="M70 0v700h125v-420l190 230h145l-210 -250l220 -260h-145l-200 240v-240h-125z" glyph-name="k" horiz-adv-x="525" unicode="k"/>
<glyph d="M70 0v700h125v-700h-125z" glyph-name="l" horiz-adv-x="265" unicode="l"/>
<glyph d="M65 0v510h115l10 -50h5q12 16 30 30q40 30 90 30q60 0 107 -35q21 -18 33 -35h5q13 17 36 35q49 35 114 35q79 0 134.5 -59.5t55.5 -145.5v-315h-125v305q0 48 -23 74t-62 26q-42 0 -68.5 -28.5t-26.5 -71.5v-305h-125v305q0 48 -23 74t-62 26q-42 0 -68.5 -28.5 t-26.5 -71.5v-305h-125z" glyph-name="m" horiz-adv-x="860" unicode="m"/>
<glyph d="M65 0v510h115l10 -50h5q12 15 34 30q46 30 106 30q87 0 143.5 -59.5t56.5 -155.5v-305h-125v295q0 49 -30.5 79.5t-79.5 30.5t-79.5 -30.5t-30.5 -79.5v-295h-125z" glyph-name="n" horiz-adv-x="595" unicode="n"/>
<glyph d="M300 105q57 0 96 42t39 108t-39 108t-96 42t-96 -42t-39 -108t39 -108t96 -42zM300 520q113 0 186.5 -74.5t73.5 -190.5t-73.5 -190.5t-186.5 -74.5t-186.5 74.5t-73.5 190.5t73.5 190.5t186.5 74.5z" glyph-name="o" unicode="o"/>
<glyph d="M450 255q0 71 -36 110.5t-94 39.5t-94 -39.5t-36 -110.5t36 -110.5t94 -39.5t94 39.5t36 110.5zM65 -200v710h115l10 -55h5q14 18 35 32q50 33 110 33q100 0 167.5 -73.5t67.5 -191.5t-67.5 -191.5t-167.5 -73.5q-66 0 -112 30q-20 14 -33 30h-5v-250h-125z" glyph-name="p" horiz-adv-x="615" unicode="p"/>
<glyph d="M165 255q0 -71 36 -110.5t94 -39.5t94 39.5t36 110.5t-36 110.5t-94 39.5t-94 -39.5t-36 -110.5zM425 -200v250h-5q-14 -16 -33 -30q-46 -30 -112 -30q-100 0 -167.5 73.5t-67.5 191.5t67.5 191.5t167.5 73.5q60 0 110 -33q21 -14 35 -32h5l10 55h115v-710h-125z" glyph-name="q" horiz-adv-x="615" unicode="q"/>
<glyph d="M65 0v510h105l10 -45h5q9 12 22 22q31 23 68 23h100v-120h-90q-95 0 -95 -95v-295h-125z" glyph-name="r" horiz-adv-x="385" unicode="r"/>
<glyph d="M30 155h120q0 -23 26.5 -44t73.5 -21q95 0 95 55q0 24 -15 37.5t-55 19.5l-80 13q-165 27 -165 145q0 67 57 113.5t158 46.5t158 -55t57 -110h-120q0 25 -26 45t-69 20t-66.5 -17.5t-23.5 -42.5q0 -37 70 -47l85 -13q160 -24 160 -155q0 -67 -56.5 -111t-163.5 -44 q-54 0 -95.5 14t-64 33.5t-37 44.5t-19 42.5t-4.5 30.5z" glyph-name="s" horiz-adv-x="505" unicode="s"/>
<glyph d="M105 120v270h-80v120h80v145h125v-145h115v-120h-115v-245q0 -35 35 -35h80v-110h-110q-63 0 -96.5 31.5t-33.5 88.5z" glyph-name="t" horiz-adv-x="390" unicode="t"/>
<glyph d="M65 205v305h125v-295q0 -49 30.5 -79.5t79.5 -30.5t79.5 30.5t30.5 79.5v295h125v-510h-115l-10 50h-5q-12 -15 -34 -30q-46 -30 -106 -30q-87 0 -143.5 59.5t-56.5 155.5z" glyph-name="u" unicode="u"/>
<glyph d="M175 0l-175 510h130l120 -355h20l120 355h130l-175 -510h-170z" glyph-name="v" horiz-adv-x="520" unicode="v"/>
<glyph d="M135 0l-130 510h130l85 -335h20l85 335h140l85 -335h20l85 335h130l-130 -510h-165l-85 330h-20l-85 -330h-165z" glyph-name="w" horiz-adv-x="790" unicode="w"/>
<glyph d="M-5 0l170 260l-165 250h140l105 -160h20l105 160h140l-165 -250l170 -260h-140l-110 170h-20l-110 -170h-140z" glyph-name="x" horiz-adv-x="510" unicode="x"/>
<glyph d="M60 -200v115h100q30 0 38 25l9 25l-207 545h130l130 -345h20l120 345h130l-215 -610q-19 -55 -50.5 -77.5t-99.5 -22.5h-105z" glyph-name="y" horiz-adv-x="530" unicode="y"/>
<glyph d="M30 0v110l250 285h-245v115h405v-110l-250 -285h255v-115h-415z" glyph-name="z" horiz-adv-x="475" unicode="z"/>
<glyph d="M120 -55v195q0 31 -16.5 45.5t-53.5 14.5v130q37 0 53.5 14.5t16.5 45.5v195q0 69 39 107t111 38h70v-115h-45q-50 0 -50 -50v-190q0 -60 -45 -85q-20 -12 -45 -15v-20q23 -4 45 -16q45 -29 45 -84v-190q0 -50 50 -50h45v-115h-70q-72 0 -111 38t-39 107z" glyph-name="braceleft" horiz-adv-x="375" unicode="{"/>
<glyph d="M120 -200v930h125v-930h-125z" glyph-name="bar" horiz-adv-x="365" unicode="|"/>
<glyph d="M35 -200v115h45q50 0 50 50v190q0 55 45 84q22 12 45 16v20q-26 3 -45 15q-45 25 -45 85v190q0 50 -50 50h-45v115h70q72 0 111 -38t39 -107v-195q0 -31 16.5 -45.5t53.5 -14.5v-130q-37 0 -53.5 -14.5t-16.5 -45.5v-195q0 -69 -39 -107t-111 -38h-70z" glyph-name="braceright" horiz-adv-x="375" unicode="}"/>
<glyph d="M160 180h-120q0 98 43 149t117 51q32 0 59.5 -13.5t43 -29.5t35 -29.5t37.5 -13.5q55 0 55 76h120q0 -98 -43 -149t-117 -51q-32 0 -59.5 13.5t-43 29t-35 29t-37.5 13.5q-55 0 -55 -75z" glyph-name="asciitilde" horiz-adv-x="590" unicode="~"/>
<glyph glyph-name="nbspace" horiz-adv-x="250" unicode=" "/>
<glyph d="M80 -190v275l20 220h90l20 -220v-275h-130zM80 370v140h130v-140h-130z" glyph-name="exclamdown" horiz-adv-x="290" unicode="¡"/>
<glyph d="M235 -110v107q-88 20 -141.5 90t-53.5 168q0 97 54 167.5t141 90.5v107h125v-107q57 -13 99 -51t59 -72.5t22 -64.5h-125q-11 30 -40 55t-75 25q-57 0 -96 -42t-39 -108t39 -108t96 -42q88 0 115 85h125q-7 -39 -26 -76t-59.5 -71.5t-94.5 -45.5v-107h-125z" glyph-name="cent" horiz-adv-x="575" unicode="¢"/>
<glyph d="M35 0v125h35q50 0 50 50v115h-85v100h85v110q0 95 60.5 152.5t164.5 57.5q103 0 166.5 -60t63.5 -155h-130q0 39 -28 64.5t-72 25.5q-45 0 -70 -24t-25 -66v-105h189v-100h-189v-115q0 -25 -15 -40q-7 -7 -15 -10h375v-125h-560z" glyph-name="sterling" horiz-adv-x="620" unicode="£"/>
<glyph d="M285 240q42 0 73.5 32.5t31.5 77.5q0 44 -31.5 77t-73.5 33t-73.5 -33t-31.5 -77q0 -45 31.5 -77.5t73.5 -32.5zM70 194l55 61q-25 34 -25 95t25 95l-55 61l60 54l55 -55q41 30 100 30t100 -30l55 55l60 -54l-55 -61q25 -34 25 -95t-25 -95l55 -61l-60 -54l-55 55 q-41 -30 -100 -30t-100 30l-55 -55z" glyph-name="currency" horiz-adv-x="570" unicode="¤"/>
<glyph d="M80 120v95h170v70h-170v95h94l-174 320h145l160 -300h20l160 300h145l-174 -320h94v-95h-170v-70h170v-95h-170v-120h-130v120h-170z" glyph-name="yen" horiz-adv-x="630" unicode="¥"/>
<glyph d="M120 350v380h125v-380h-125zM120 -200v380h125v-380h-125z" glyph-name="brokenbar" horiz-adv-x="365" unicode="¦"/>
<glyph d="M75 45h130q0 -46 33.5 -75.5t91.5 -29.5q57 0 86 21.5t29 53.5q0 31 -22 51t-73 31l-105 23q-98 21 -141.5 62t-43.5 113q0 49 32 95q12 17 33 35q-13 10 -23 26q-22 34 -22 79q0 75 64 127.5t176 52.5q117 0 186 -60t69 -150h-130q0 43 -33.5 71.5t-91.5 28.5 q-54 0 -82 -21.5t-28 -53.5q0 -30 20 -44.5t75 -25.5l95 -20q105 -21 147.5 -64t42.5 -116q0 -53 -30 -99q-14 -20 -30 -36q9 -8 22 -28q23 -40 23 -87q0 -76 -63.5 -125.5t-181.5 -49.5q-117 0 -186 61t-69 154zM282 222l78 -17q29 -6 52 -14l18 -6q8 7 15 18q15 26 15 52 q0 57 -85 75l-90 20q-17 4 -45 11l-15 4q-11 -7 -18 -18q-17 -23 -17 -52q0 -54 92 -73z" glyph-name="section" horiz-adv-x="650" unicode="§"/>
<glyph d="M215 600v115h115v-115h-115zM30 600v115h115v-115h-115z" glyph-name="dieresis" horiz-adv-x="360" unicode="¨"/>
<glyph d="M510 305h85q-3 -15 -12 -35.5t-27.5 -47t-53 -44.5t-77.5 -18q-79 0 -132 54t-53 136t53 136t132 54q44 0 78 -17t52.5 -42.5t27.5 -45.5t12 -35h-85q-4 11 -11 22.5t-27 24.5t-47 13q-43 0 -69 -29t-26 -81t26 -81t69 -29q39 0 59 21t26 44zM420 625 q-120 0 -197.5 -77.5t-77.5 -197.5t77.5 -197.5t197.5 -77.5t197.5 77.5t77.5 197.5t-77.5 197.5t-197.5 77.5zM420 710q157 0 261 -103t104 -257t-104 -257t-261 -103q-158 0 -261.5 103t-103.5 257t103.5 257t261.5 103z" glyph-name="copyright" horiz-adv-x="840" unicode="©"/>
<glyph d="M250 380l-10 30h-5q-35 -35 -85 -35q-56 0 -88 29.5t-32 75.5q0 44 34 72t96 28h80v10q0 23 -14.5 36.5t-40.5 13.5q-38 0 -50 -35h-90q9 48 43.5 76.5t94.5 28.5q68 0 105 -33.5t37 -91.5v-205h-75zM240 515v5h-70q-50 0 -50 -35q0 -19 13.5 -29.5t36.5 -10.5 q70 0 70 70z" glyph-name="ordfeminine" horiz-adv-x="370" unicode="ª"/>
<glyph d="M415 50l-145 205l145 205h130l-145 -205l145 -205h-130zM185 50l-145 205l145 205h130l-145 -205l145 -205h-130z" glyph-name="guillemotleft" horiz-adv-x="585" unicode="«"/>
<glyph d="M70 275v110h410v-240h-124v130h-286z" glyph-name="logicalnot" horiz-adv-x="550" unicode="¬"/>
<glyph d="M45 230v115h340v-115h-340z" glyph-name="uni00AD" horiz-adv-x="430" unicode="­"/>
<glyph d="M285 170v360h160q56 0 93 -36t37 -89q0 -50 -31.5 -79.5t-66.5 -37.5l108 -118h-100l-105 115h-10v-115h-85zM370 355h70q20 0 35 14t15 36t-15 36t-35 14h-70v-100zM420 75q120 0 197.5 77.5t77.5 197.5t-77.5 197.5t-197.5 77.5t-197.5 -77.5t-77.5 -197.5t77.5 -197.5 t197.5 -77.5zM55 350q0 154 103.5 257t261.5 103q157 0 261 -103t104 -257t-104 -257t-261 -103q-158 0 -261.5 103t-103.5 257z" glyph-name="registered" horiz-adv-x="840" unicode="®"/>
<glyph d="M30 615v95h310v-95h-310z" glyph-name="overscore" horiz-adv-x="370" unicode="¯"/>
<glyph d="M135 570q0 -26 17 -43t43 -17t43 17t17 43t-17 43t-43 17t-43 -17t-17 -43zM55 570q0 57 40.5 98.5t99.5 41.5t99.5 -41.5t40.5 -98.5t-40.5 -98.5t-99.5 -41.5t-99.5 41.5t-40.5 98.5z" glyph-name="degree" horiz-adv-x="390" unicode="°"/>
<glyph d="M220 170v175h-170v110h170v175h110v-175h170v-110h-170v-175h-110zM50 0v110h450v-110h-450z" glyph-name="plusminus" horiz-adv-x="550" unicode="±"/>
<glyph d="M45 440v65l140 135q12 12 17 18t9 15.5t4 21.5q0 40 -45 40q-23 0 -36.5 -13.5t-13.5 -36.5h-80q0 54 35.5 87t94.5 33q55 0 90 -32.5t35 -77.5q0 -32 -12.5 -54.5t-42.5 -50.5l-80 -75v-5h140v-70h-255z" glyph-name="uni00B2" horiz-adv-x="340" unicode="²"/>
<glyph d="M35 550h80q0 -18 13.5 -31.5t36.5 -13.5t36.5 10.5t13.5 29.5q0 24 -12.5 34.5t-42.5 10.5h-30v65h30q23 0 36.5 11t13.5 29q0 17 -12.5 28.5t-32.5 11.5q-19 0 -32 -12t-13 -28h-80q0 46 34.5 78t90.5 32q57 0 91 -28.5t34 -76.5q0 -30 -14.5 -47.5t-30.5 -22.5v-5 q17 -5 33.5 -25.5t16.5 -54.5q0 -46 -36 -78t-94 -32q-61 0 -95.5 31.5t-34.5 83.5z" glyph-name="uni00B3" horiz-adv-x="340" unicode="³"/>
<glyph d="M30 590l95 145h130l-120 -145h-105z" glyph-name="acute" horiz-adv-x="285" unicode="´"/>
<glyph d="M65 -200v710h125v-295q0 -49 30.5 -79.5t79.5 -30.5t79.5 30.5t30.5 79.5v295h125v-510h-115l-10 50h-5q-9 -15 -28 -30q-38 -30 -92 -30q-36 0 -68 15q-15 6 -27 15v-220h-125z" glyph-name="uni00B5" unicode="µ"/>
<glyph d="M220 -100v420q-76 0 -125.5 52.5t-49.5 137.5t49.5 137.5t125.5 52.5h305v-800h-115v695h-75v-695h-115z" glyph-name="paragraph" unicode="¶"/>
<glyph d="M55 200v140h140v-140h-140z" glyph-name="middot" horiz-adv-x="250" unicode="·"/>
<glyph d="M30 -225v75h45q40 0 40 30t-40 30h-30v40l20 45h85l-20 -45q13 -2 27.5 -8.5t31 -27t16.5 -49.5q0 -41 -30.5 -65.5t-84.5 -24.5h-60z" glyph-name="cedilla" horiz-adv-x="235" unicode="¸"/>
<glyph d="M120 440v240h-85v75h60q25 0 25 25v20h80v-360h-80z" glyph-name="uni00B9" horiz-adv-x="275" unicode="¹"/>
<glyph d="M130 540q0 -41 22 -65.5t53 -24.5t53 24.5t22 65.5t-22 65.5t-53 24.5t-53 -24.5t-22 -65.5zM45 540q0 74 46 122t114 48t114 -48t46 -122t-46 -122t-114 -48t-114 48t-46 122z" glyph-name="ordmasculine" horiz-adv-x="410" unicode="º"/>
<glyph d="M40 50l145 205l-145 205h130l145 -205l-145 -205h-130zM270 50l145 205l-145 205h130l145 -205l-145 -205h-130z" glyph-name="guillemotright" horiz-adv-x="585" unicode="»"/>
<glyph d="M70 0l435 700h90l-435 -700h-90zM125 340v240h-85v75h60q25 0 25 25v20h80v-360h-80zM360 70v65l135 225h115v-220h40v-70h-40v-70h-80v70h-170zM455 140h75v115h-10l-65 -110v-5z" glyph-name="onequarter" horiz-adv-x="690" unicode="¼"/>
<glyph d="M70 0l435 700h90l-435 -700h-90zM125 340v240h-85v75h60q25 0 25 25v20h80v-360h-80zM410 0v65l140 135q18 17 24 27.5t6 27.5q0 40 -45 40q-23 0 -36.5 -13.5t-13.5 -36.5h-80q0 54 35.5 87t94.5 33q55 0 90 -32.5t35 -77.5q0 -32 -12.5 -54.5t-42.5 -50.5l-80 -75v-5 h140v-70h-255z" glyph-name="onehalf" horiz-adv-x="715" unicode="½"/>
<glyph d="M120 0l435 700h90l-435 -700h-90zM35 450h80q0 -18 13.5 -31.5t36.5 -13.5t36.5 10.5t13.5 29.5q0 24 -12.5 34.5t-42.5 10.5h-30v65h30q23 0 36.5 11t13.5 29q0 17 -12.5 28.5t-32.5 11.5q-19 0 -32 -12t-13 -28h-80q0 46 34.5 78t90.5 32q57 0 91 -28.5t34 -76.5 q0 -30 -14.5 -47.5t-30.5 -22.5v-5q17 -5 33.5 -25.5t16.5 -54.5q0 -46 -36 -78t-94 -32q-61 0 -95.5 31.5t-34.5 83.5zM410 70v65l135 225h115v-220h40v-70h-40v-70h-80v70h-170zM505 140h75v115h-10l-65 -110v-5z" glyph-name="threequarters" horiz-adv-x="740" unicode="¾"/>
<glyph d="M370 10h135q0 -92 -64.5 -151t-170.5 -59q-105 0 -170 58t-65 142q0 65 26 102.5t79 62.5q75 37 75 100v40h125v-40q0 -66 -23.5 -104.5t-76.5 -65.5q-35 -18 -52.5 -36t-17.5 -49q0 -39 28.5 -64.5t76.5 -25.5q44 0 69.5 25.5t25.5 64.5zM210 370v140h135v-140h-135z " glyph-name="questiondown" horiz-adv-x="530" unicode="¿"/>
<glyph d="M0 0l250 700h190l250 -700h-145l-53 150h-294l-53 -150h-145zM240 270h210l-95 280h-20zM295 770l-120 145h130l95 -145h-105z" glyph-name="Agrave" horiz-adv-x="690" unicode="À"/>
<glyph d="M0 0l250 700h190l250 -700h-145l-53 150h-294l-53 -150h-145zM240 270h210l-95 280h-20zM295 770l95 145h130l-120 -145h-105z" glyph-name="Aacute" horiz-adv-x="690" unicode="Á"/>
<glyph d="M0 0l250 700h190l250 -700h-145l-53 150h-294l-53 -150h-145zM240 270h210l-95 280h-20zM170 770l120 145h110l120 -145h-115l-60 75l-60 -75h-115z" glyph-name="Acircumflex" horiz-adv-x="690" unicode="Â"/>
<glyph d="M0 0l250 700h190l250 -700h-145l-53 150h-294l-53 -150h-145zM240 270h210l-95 280h-20zM265 780h-85q0 59 30 92t80 33q27 0 58 -20t47 -20q15 0 25 11t10 29h85q0 -59 -30 -92t-80 -33q-27 0 -58 20t-47 20q-15 0 -25 -11t-10 -29z" glyph-name="Atilde" horiz-adv-x="690" unicode="Ã"/>
<glyph d="M0 0l250 700h190l250 -700h-145l-53 150h-294l-53 -150h-145zM240 270h210l-95 280h-20zM380 785v115h115v-115h-115zM195 785v115h115v-115h-115z" glyph-name="Adieresis" horiz-adv-x="690" unicode="Ä"/>
<glyph d="M0 0l250 700h190l250 -700h-145l-53 150h-294l-53 -150h-145zM240 270h210l-95 280h-20zM345 810q16 0 28 11t12 29t-12 29t-28 11t-28 -11t-12 -29t12 -29t28 -11zM345 950q44 0 72 -29t28 -71t-28 -71t-72 -29t-72 29t-28 71t28 71t72 29z" glyph-name="Aring" horiz-adv-x="690" unicode="Å"/>
<glyph d="M-25 0l305 700h615v-120h-340v-170h320v-120h-320v-170h340v-120h-470v155h-238l-67 -155h-145zM235 270h190v310h-55z" glyph-name="AE" horiz-adv-x="950" unicode="Æ"/>
<glyph d="M300 -225v75h45q40 0 40 30t-40 30h-30v40l19 44q-126 18 -207.5 116.5t-81.5 239.5q0 156 98 258t242 102q59 0 109.5 -17.5t84.5 -44.5t60 -62.5t40 -67.5t21 -63h-135q-20 52 -64.5 91t-115.5 39q-92 0 -151 -64.5t-59 -170.5t59 -170.5t151 -64.5q72 0 116.5 40 t63.5 95h135q-4 -26 -15 -55t-34 -64t-53 -63.5t-77 -49.5t-103 -26l-18 -42q13 -2 27.5 -8.5t31 -27t16.5 -49.5q0 -41 -30.5 -65.5t-84.5 -24.5h-60z" glyph-name="Ccedilla" horiz-adv-x="735" unicode="Ç"/>
<glyph d="M75 0v700h470v-120h-340v-170h320v-120h-320v-170h340v-120h-470zM260 770l-120 145h130l95 -145h-105z" glyph-name="Egrave" unicode="È"/>
<glyph d="M75 0v700h470v-120h-340v-170h320v-120h-320v-170h340v-120h-470zM260 770l95 145h130l-120 -145h-105z" glyph-name="Eacute" unicode="É"/>
<glyph d="M75 0v700h470v-120h-340v-170h320v-120h-320v-170h340v-120h-470zM135 770l120 145h110l120 -145h-115l-60 75l-60 -75h-115z" glyph-name="Ecircumflex" unicode="Ê"/>
<glyph d="M75 0v700h470v-120h-340v-170h320v-120h-320v-170h340v-120h-470zM345 785v115h115v-115h-115zM160 785v115h115v-115h-115z" glyph-name="Edieresis" unicode="Ë"/>
<glyph d="M75 0v700h130v-700h-130zM90 770l-120 145h130l95 -145h-105z" glyph-name="Igrave" horiz-adv-x="280" unicode="Ì"/>
<glyph d="M75 0v700h130v-700h-130zM90 770l95 145h130l-120 -145h-105z" glyph-name="Iacute" horiz-adv-x="280" unicode="Í"/>
<glyph d="M75 0v700h130v-700h-130zM-35 770l120 145h110l120 -145h-115l-60 75l-60 -75h-115z" glyph-name="Icircumflex" horiz-adv-x="280" unicode="Î"/>
<glyph d="M75 0v700h130v-700h-130zM175 785v115h115v-115h-115zM-10 785v115h115v-115h-115z" glyph-name="Idieresis" horiz-adv-x="280" unicode="Ï"/>
<glyph d="M100 0v295h-90v110h90v295h255q143 0 241.5 -100.5t98.5 -249.5t-98.5 -249.5t-241.5 -100.5h-255zM230 125h125q91 0 150.5 62t59.5 163t-59.5 163t-150.5 62h-125v-170h155v-110h-155v-170z" glyph-name="Eth" horiz-adv-x="740" unicode="Ð"/>
<glyph d="M75 0v700h175l255 -485h20v485h130v-700h-175l-255 485h-20v-485h-130zM285 780h-85q0 59 30 92t80 33q27 0 58 -20t47 -20q15 0 25 11t10 29h85q0 -59 -30 -92t-80 -33q-27 0 -58 20t-47 20q-15 0 -25 -11t-10 -29z" glyph-name="Ntilde" horiz-adv-x="730" unicode="Ñ"/>
<glyph d="M385 115q92 0 151 64.5t59 170.5t-59 170.5t-151 64.5t-151 -64.5t-59 -170.5t59 -170.5t151 -64.5zM385 710q144 0 242 -102t98 -258t-98 -258t-242 -102t-242 102t-98 258t98 258t242 102zM335 770l-120 145h130l95 -145h-105z" glyph-name="Ograve" horiz-adv-x="770" unicode="Ò"/>
<glyph d="M385 115q92 0 151 64.5t59 170.5t-59 170.5t-151 64.5t-151 -64.5t-59 -170.5t59 -170.5t151 -64.5zM385 710q144 0 242 -102t98 -258t-98 -258t-242 -102t-242 102t-98 258t98 258t242 102zM335 770l95 145h130l-120 -145h-105z" glyph-name="Oacute" horiz-adv-x="770" unicode="Ó"/>
<glyph d="M385 115q92 0 151 64.5t59 170.5t-59 170.5t-151 64.5t-151 -64.5t-59 -170.5t59 -170.5t151 -64.5zM385 710q144 0 242 -102t98 -258t-98 -258t-242 -102t-242 102t-98 258t98 258t242 102zM210 770l120 145h110l120 -145h-115l-60 75l-60 -75h-115z" glyph-name="Ocircumflex" horiz-adv-x="770" unicode="Ô"/>
<glyph d="M385 115q92 0 151 64.5t59 170.5t-59 170.5t-151 64.5t-151 -64.5t-59 -170.5t59 -170.5t151 -64.5zM385 710q144 0 242 -102t98 -258t-98 -258t-242 -102t-242 102t-98 258t98 258t242 102zM305 780h-85q0 59 30 92t80 33q27 0 58 -20t47 -20q15 0 25 11t10 29h85 q0 -59 -30 -92t-80 -33q-27 0 -58 20t-47 20q-15 0 -25 -11t-10 -29z" glyph-name="Otilde" horiz-adv-x="770" unicode="Õ"/>
<glyph d="M385 115q92 0 151 64.5t59 170.5t-59 170.5t-151 64.5t-151 -64.5t-59 -170.5t59 -170.5t151 -64.5zM385 710q144 0 242 -102t98 -258t-98 -258t-242 -102t-242 102t-98 258t98 258t242 102zM420 785v115h115v-115h-115zM235 785v115h115v-115h-115z" glyph-name="Odieresis" horiz-adv-x="770" unicode="Ö"/>
<glyph d="M60 165l130 130l-130 130l85 85l130 -130l130 130l85 -85l-130 -130l130 -130l-85 -85l-130 130l-130 -130z" glyph-name="multiply" horiz-adv-x="550" unicode="×"/>
<glyph d="M115 -35l54 103q-124 104 -124 282q0 156 98 258t242 102q58 0 112 -19l23 44h130l-53 -100q128 -104 128 -285q0 -156 -98 -258t-242 -102q-56 0 -116 20l-24 -45h-130zM537 520l-209 -398q24 -7 57 -7q92 0 151 64.5t59 170.5q0 104 -58 170zM230 184l208 395 q-26 6 -53 6q-92 0 -151 -64.5t-59 -170.5q0 -103 55 -166z" glyph-name="Oslash" horiz-adv-x="770" unicode="Ø"/>
<glyph d="M70 285v415h130v-415q0 -74 46 -122t114 -48t114 48t46 122v415h130v-415q0 -135 -79 -215t-211 -80t-211 80t-79 215zM305 770l-120 145h130l95 -145h-105z" glyph-name="Ugrave" horiz-adv-x="720" unicode="Ù"/>
<glyph d="M70 285v415h130v-415q0 -74 46 -122t114 -48t114 48t46 122v415h130v-415q0 -135 -79 -215t-211 -80t-211 80t-79 215zM305 770l95 145h130l-120 -145h-105z" glyph-name="Uacute" horiz-adv-x="720" unicode="Ú"/>
<glyph d="M70 285v415h130v-415q0 -74 46 -122t114 -48t114 48t46 122v415h130v-415q0 -135 -79 -215t-211 -80t-211 80t-79 215zM185 770l120 145h110l120 -145h-115l-60 75l-60 -75h-115z" glyph-name="Ucircumflex" horiz-adv-x="720" unicode="Û"/>
<glyph d="M70 285v415h130v-415q0 -74 46 -122t114 -48t114 48t46 122v415h130v-415q0 -135 -79 -215t-211 -80t-211 80t-79 215zM395 785v115h115v-115h-115zM210 785v115h115v-115h-115z" glyph-name="Udieresis" horiz-adv-x="720" unicode="Ü"/>
<glyph d="M245 0v240l-255 460h145l165 -300h20l165 300h145l-255 -460v-240h-130zM260 770l95 145h130l-120 -145h-105z" glyph-name="Yacute" horiz-adv-x="620" unicode="Ý"/>
<glyph d="M75 0v700h130v-130h240q102 0 163.5 -60.5t61.5 -159.5t-61.5 -159.5t-163.5 -60.5h-240v-130h-130zM205 255h235q45 0 72.5 26.5t27.5 68.5t-27.5 68.5t-72.5 26.5h-235v-190z" glyph-name="Thorn" horiz-adv-x="710" unicode="Þ"/>
<glyph d="M65 0v500q0 95 62 152.5t173 57.5q107 0 168.5 -56t61.5 -144q0 -69 -43 -116q-16 -18 -42 -29v-5q30 -14 52 -36q53 -53 53 -129q0 -88 -59.5 -141.5t-165.5 -53.5h-50v110h30q55 0 87.5 27.5t32.5 67.5q0 43 -32.5 71.5t-87.5 28.5h-35v110h35q44 0 72 25.5t28 64.5 t-28.5 64.5t-76.5 25.5q-49 0 -79.5 -26.5t-30.5 -68.5v-500h-125z" glyph-name="germandbls" horiz-adv-x="585" unicode="ß"/>
<glyph d="M385 0l-10 50h-5q-13 -16 -35 -30q-48 -30 -110 -30q-84 0 -134.5 45t-50.5 110q0 78 54 124t156 46h115v10q0 43 -24.5 69t-65.5 26q-39 0 -62.5 -20t-27.5 -45h-125q9 69 64 117t151 48t155.5 -56t59.5 -139v-325h-105zM365 205v15h-105q-95 0 -95 -65q0 -30 21 -47.5 t59 -17.5q57 0 88.5 30.5t31.5 84.5zM225 580l-120 145h130l95 -145h-105z" glyph-name="agrave" horiz-adv-x="550" unicode="à"/>
<glyph d="M385 0l-10 50h-5q-13 -16 -35 -30q-48 -30 -110 -30q-84 0 -134.5 45t-50.5 110q0 78 54 124t156 46h115v10q0 43 -24.5 69t-65.5 26q-39 0 -62.5 -20t-27.5 -45h-125q9 69 64 117t151 48t155.5 -56t59.5 -139v-325h-105zM365 205v15h-105q-95 0 -95 -65q0 -30 21 -47.5 t59 -17.5q57 0 88.5 30.5t31.5 84.5zM225 580l95 145h130l-120 -145h-105z" glyph-name="aacute" horiz-adv-x="550" unicode="á"/>
<glyph d="M385 0l-10 50h-5q-13 -16 -35 -30q-48 -30 -110 -30q-84 0 -134.5 45t-50.5 110q0 78 54 124t156 46h115v10q0 43 -24.5 69t-65.5 26q-39 0 -62.5 -20t-27.5 -45h-125q9 69 64 117t151 48t155.5 -56t59.5 -139v-325h-105zM365 205v15h-105q-95 0 -95 -65q0 -30 21 -47.5 t59 -17.5q57 0 88.5 30.5t31.5 84.5zM100 580l120 145h110l120 -145h-115l-60 75l-60 -75h-115z" glyph-name="acircumflex" horiz-adv-x="550" unicode="â"/>
<glyph d="M385 0l-10 50h-5q-13 -16 -35 -30q-48 -30 -110 -30q-84 0 -134.5 45t-50.5 110q0 78 54 124t156 46h115v10q0 43 -24.5 69t-65.5 26q-39 0 -62.5 -20t-27.5 -45h-125q9 69 64 117t151 48t155.5 -56t59.5 -139v-325h-105zM365 205v15h-105q-95 0 -95 -65q0 -30 21 -47.5 t59 -17.5q57 0 88.5 30.5t31.5 84.5zM195 590h-85q0 59 30 92t80 33q27 0 58 -20t47 -20q15 0 25 11t10 29h85q0 -59 -30 -92t-80 -33q-27 0 -58 20t-47 20q-15 0 -25 -11t-10 -29z" glyph-name="atilde" horiz-adv-x="550" unicode="ã"/>
<glyph d="M385 0l-10 50h-5q-13 -16 -35 -30q-48 -30 -110 -30q-84 0 -134.5 45t-50.5 110q0 78 54 124t156 46h115v10q0 43 -24.5 69t-65.5 26q-39 0 -62.5 -20t-27.5 -45h-125q9 69 64 117t151 48t155.5 -56t59.5 -139v-325h-105zM365 205v15h-105q-95 0 -95 -65q0 -30 21 -47.5 t59 -17.5q57 0 88.5 30.5t31.5 84.5zM310 595v115h115v-115h-115zM125 595v115h115v-115h-115z" glyph-name="adieresis" horiz-adv-x="550" unicode="ä"/>
<glyph d="M385 0l-10 50h-5q-13 -16 -35 -30q-48 -30 -110 -30q-84 0 -134.5 45t-50.5 110q0 78 54 124t156 46h115v10q0 43 -24.5 69t-65.5 26q-39 0 -62.5 -20t-27.5 -45h-125q9 69 64 117t151 48t155.5 -56t59.5 -139v-325h-105zM365 205v15h-105q-95 0 -95 -65q0 -30 21 -47.5 t59 -17.5q57 0 88.5 30.5t31.5 84.5zM275 620q16 0 28 11t12 29t-12 29t-28 11t-28 -11t-12 -29t12 -29t28 -11zM275 760q44 0 72 -29t28 -71t-28 -71t-72 -29t-72 29t-28 71t28 71t72 29z" glyph-name="aring" horiz-adv-x="550" unicode="å"/>
<glyph d="M370 205v10h-110q-46 0 -70.5 -18.5t-24.5 -46.5q0 -60 80 -60q59 0 92 30.5t33 84.5zM180 355h-120q9 73 62.5 119t147.5 46q123 0 175 -90q8 14 26 32t59.5 38t89.5 20q105 0 175 -73t70 -182q0 -9 -3 -36l-2 -14h-365q9 -55 41 -87.5t84 -32.5q72 0 100 55h130 q-5 -19 -19 -42.5t-39.5 -52t-70.5 -47t-101 -18.5q-69 0 -120.5 31t-69.5 59q-20 -26 -48 -45q-65 -45 -157 -45q-84 0 -134.5 45t-50.5 110q0 71 54.5 115.5t155.5 44.5h120v15q0 42 -26.5 68.5t-68.5 26.5q-43 0 -66 -19t-29 -41zM495 305h245q-9 50 -41 82.5t-79 32.5 q-50 0 -85.5 -35.5t-39.5 -79.5z" glyph-name="ae" horiz-adv-x="905" unicode="æ"/>
<glyph d="M220 -225v75h45q40 0 40 30t-40 30h-30v40l19 44q-95 14 -154.5 86t-59.5 175q0 116 73.5 190.5t186.5 74.5q57 0 102.5 -19.5t72.5 -50.5t42.5 -62t22.5 -63h-125q-30 80 -115 80q-57 0 -96 -42t-39 -108t39 -108t96 -42q88 0 115 85h125q-12 -67 -62.5 -126.5 t-138.5 -70.5l-19 -43q13 -2 27.5 -8.5t31 -27t16.5 -49.5q0 -41 -30.5 -65.5t-84.5 -24.5h-60z" glyph-name="ccedilla" horiz-adv-x="575" unicode="ç"/>
<glyph d="M165 300h260q-9 51 -41.5 83t-83.5 32q-54 0 -88.5 -31.5t-46.5 -83.5zM405 150h130q-5 -19 -19.5 -42.5t-41 -52t-72.5 -47t-102 -18.5q-113 0 -186.5 74.5t-73.5 190.5t73.5 190.5t186.5 74.5q105 0 177.5 -73.5t72.5 -181.5q0 -9 -3 -36l-2 -14h-380q8 -54 45 -87 t90 -33q40 0 68 17.5t37 37.5zM240 580l-120 145h130l95 -145h-105z" glyph-name="egrave" horiz-adv-x="590" unicode="è"/>
<glyph d="M165 300h260q-9 51 -41.5 83t-83.5 32q-54 0 -88.5 -31.5t-46.5 -83.5zM405 150h130q-5 -19 -19.5 -42.5t-41 -52t-72.5 -47t-102 -18.5q-113 0 -186.5 74.5t-73.5 190.5t73.5 190.5t186.5 74.5q105 0 177.5 -73.5t72.5 -181.5q0 -9 -3 -36l-2 -14h-380q8 -54 45 -87 t90 -33q40 0 68 17.5t37 37.5zM245 580l95 145h130l-120 -145h-105z" glyph-name="eacute" horiz-adv-x="590" unicode="é"/>
<glyph d="M165 300h260q-9 51 -41.5 83t-83.5 32q-54 0 -88.5 -31.5t-46.5 -83.5zM405 150h130q-5 -19 -19.5 -42.5t-41 -52t-72.5 -47t-102 -18.5q-113 0 -186.5 74.5t-73.5 190.5t73.5 190.5t186.5 74.5q105 0 177.5 -73.5t72.5 -181.5q0 -9 -3 -36l-2 -14h-380q8 -54 45 -87 t90 -33q40 0 68 17.5t37 37.5zM120 580l120 145h110l120 -145h-115l-60 75l-60 -75h-115z" glyph-name="ecircumflex" horiz-adv-x="590" unicode="ê"/>
<glyph d="M165 300h260q-9 51 -41.5 83t-83.5 32q-54 0 -88.5 -31.5t-46.5 -83.5zM405 150h130q-5 -19 -19.5 -42.5t-41 -52t-72.5 -47t-102 -18.5q-113 0 -186.5 74.5t-73.5 190.5t73.5 190.5t186.5 74.5q105 0 177.5 -73.5t72.5 -181.5q0 -9 -3 -36l-2 -14h-380q8 -54 45 -87 t90 -33q40 0 68 17.5t37 37.5zM330 595v115h115v-115h-115zM145 595v115h115v-115h-115z" glyph-name="edieresis" horiz-adv-x="590" unicode="ë"/>
<glyph d="M65 0v510h125v-510h-125zM75 580l-120 145h130l95 -145h-105z" glyph-name="igrave" horiz-adv-x="255" unicode="ì"/>
<glyph d="M65 0v510h125v-510h-125zM75 580l95 145h130l-120 -145h-105z" glyph-name="iacute" horiz-adv-x="255" unicode="í"/>
<glyph d="M65 0v510h125v-510h-125zM-45 580l120 145h110l120 -145h-115l-60 75l-60 -75h-115z" glyph-name="icircumflex" horiz-adv-x="255" unicode="î"/>
<glyph d="M65 0v510h125v-510h-125zM165 595v115h115v-115h-115zM-20 595v115h115v-115h-115z" glyph-name="idieresis" horiz-adv-x="255" unicode="ï"/>
<glyph d="M190 490l-45 70l100 55q-19 15 -39 27q-38 25 -66 38l90 45q29 -16 65 -43l35 -27l115 60l50 -70l-100 -50q16 -13 36 -37.5t46.5 -66.5t44.5 -103.5t18 -127.5q0 -123 -69 -196.5t-181 -73.5q-108 0 -179 68t-71 167q0 105 65 170t170 65q70 0 130 -45h5q-26 71 -95 140 zM165 225q0 -53 36.5 -89t88.5 -36t88.5 36t36.5 89t-36.5 89t-88.5 36t-88.5 -36t-36.5 -89z" glyph-name="eth" horiz-adv-x="585" unicode="ð"/>
<glyph d="M65 0v510h115l10 -50h5q12 15 34 30q46 30 106 30q87 0 143.5 -59.5t56.5 -155.5v-305h-125v295q0 49 -30.5 79.5t-79.5 30.5t-79.5 -30.5t-30.5 -79.5v-295h-125zM225 590h-85q0 59 30 92t80 33q27 0 58 -20t47 -20q15 0 25 11t10 29h85q0 -59 -30 -92t-80 -33 q-27 0 -58 20t-47 20q-15 0 -25 -11t-10 -29z" glyph-name="ntilde" horiz-adv-x="595" unicode="ñ"/>
<glyph d="M300 105q57 0 96 42t39 108t-39 108t-96 42t-96 -42t-39 -108t39 -108t96 -42zM300 520q113 0 186.5 -74.5t73.5 -190.5t-73.5 -190.5t-186.5 -74.5t-186.5 74.5t-73.5 190.5t73.5 190.5t186.5 74.5zM245 580l-120 145h130l95 -145h-105z" glyph-name="ograve" unicode="ò"/>
<glyph d="M300 105q57 0 96 42t39 108t-39 108t-96 42t-96 -42t-39 -108t39 -108t96 -42zM300 520q113 0 186.5 -74.5t73.5 -190.5t-73.5 -190.5t-186.5 -74.5t-186.5 74.5t-73.5 190.5t73.5 190.5t186.5 74.5zM250 580l95 145h130l-120 -145h-105z" glyph-name="oacute" unicode="ó"/>
<glyph d="M300 105q57 0 96 42t39 108t-39 108t-96 42t-96 -42t-39 -108t39 -108t96 -42zM300 520q113 0 186.5 -74.5t73.5 -190.5t-73.5 -190.5t-186.5 -74.5t-186.5 74.5t-73.5 190.5t73.5 190.5t186.5 74.5zM125 580l120 145h110l120 -145h-115l-60 75l-60 -75h-115z" glyph-name="ocircumflex" unicode="ô"/>
<glyph d="M300 105q57 0 96 42t39 108t-39 108t-96 42t-96 -42t-39 -108t39 -108t96 -42zM300 520q113 0 186.5 -74.5t73.5 -190.5t-73.5 -190.5t-186.5 -74.5t-186.5 74.5t-73.5 190.5t73.5 190.5t186.5 74.5zM220 590h-85q0 59 30 92t80 33q27 0 58 -20t47 -20q15 0 25 11t10 29 h85q0 -59 -30 -92t-80 -33q-27 0 -58 20t-47 20q-15 0 -25 -11t-10 -29z" glyph-name="otilde" unicode="õ"/>
<glyph d="M300 105q57 0 96 42t39 108t-39 108t-96 42t-96 -42t-39 -108t39 -108t96 -42zM300 520q113 0 186.5 -74.5t73.5 -190.5t-73.5 -190.5t-186.5 -74.5t-186.5 74.5t-73.5 190.5t73.5 190.5t186.5 74.5zM335 595v115h115v-115h-115zM150 595v115h115v-115h-115z" glyph-name="odieresis" unicode="ö"/>
<glyph d="M55 235v110h440v-110h-440zM210 115q0 30 19 47.5t46 17.5t46 -17.5t19 -47.5t-19 -47.5t-46 -17.5t-46 17.5t-19 47.5zM210 465q0 30 19 47.5t46 17.5t46 -17.5t19 -47.5t-19 -47.5t-46 -17.5t-46 17.5t-19 47.5z" glyph-name="divide" horiz-adv-x="550" unicode="÷"/>
<glyph d="M90 -35l44 81q-94 74 -94 209q0 116 73.5 190.5t186.5 74.5q48 0 84 -13l21 38h110l-46 -84q91 -75 91 -206q0 -116 -73.5 -190.5t-186.5 -74.5q-40 0 -81 11l-19 -36h-110zM193 154l136 252q-12 4 -29 4q-58 0 -99 -44t-41 -111q0 -59 33 -101zM410 352l-136 -250 q18 -2 26 -2q58 0 99 44t41 111q0 56 -30 97z" glyph-name="oslash" unicode="ø"/>
<glyph d="M65 205v305h125v-295q0 -49 30.5 -79.5t79.5 -30.5t79.5 30.5t30.5 79.5v295h125v-510h-115l-10 50h-5q-12 -15 -34 -30q-46 -30 -106 -30q-87 0 -143.5 59.5t-56.5 155.5zM250 580l-120 145h130l95 -145h-105z" glyph-name="ugrave" unicode="ù"/>
<glyph d="M65 205v305h125v-295q0 -49 30.5 -79.5t79.5 -30.5t79.5 30.5t30.5 79.5v295h125v-510h-115l-10 50h-5q-12 -15 -34 -30q-46 -30 -106 -30q-87 0 -143.5 59.5t-56.5 155.5zM250 580l95 145h130l-120 -145h-105z" glyph-name="uacute" unicode="ú"/>
<glyph d="M65 205v305h125v-295q0 -49 30.5 -79.5t79.5 -30.5t79.5 30.5t30.5 79.5v295h125v-510h-115l-10 50h-5q-12 -15 -34 -30q-46 -30 -106 -30q-87 0 -143.5 59.5t-56.5 155.5zM125 580l120 145h110l120 -145h-115l-60 75l-60 -75h-115z" glyph-name="ucircumflex" unicode="û"/>
<glyph d="M65 205v305h125v-295q0 -49 30.5 -79.5t79.5 -30.5t79.5 30.5t30.5 79.5v295h125v-510h-115l-10 50h-5q-12 -15 -34 -30q-46 -30 -106 -30q-87 0 -143.5 59.5t-56.5 155.5zM335 595v115h115v-115h-115zM150 595v115h115v-115h-115z" glyph-name="udieresis" unicode="ü"/>
<glyph d="M60 -200v115h100q30 0 38 25l9 25l-207 545h130l130 -345h20l120 345h130l-215 -610q-19 -55 -50.5 -77.5t-99.5 -22.5h-105zM220 580l95 145h130l-120 -145h-105z" glyph-name="yacute" horiz-adv-x="530" unicode="ý"/>
<glyph d="M325 105q58 0 94 39.5t36 110.5t-36 110.5t-94 39.5t-94 -39.5t-36 -110.5t36 -110.5t94 -39.5zM70 -200v900h125v-245h5q14 18 35 32q49 33 110 33q100 0 167.5 -73.5t67.5 -191.5t-67.5 -191.5t-167.5 -73.5q-66 0 -112 30q-19 14 -33 30h-5v-250h-125z" glyph-name="thorn" horiz-adv-x="620" unicode="þ"/>
<glyph d="M75 0v700h470v-120h-340v-170h320v-120h-320v-170h340v-120h-470zM260 770l-120 145h130l95 -145h-105z" glyph-name="uni0400" unicode="Ѐ"/>
<glyph d="M75 0v700h470v-120h-340v-170h320v-120h-320v-170h340v-120h-470zM345 785v115h115v-115h-115zM160 785v115h115v-115h-115z" glyph-name="uni0401" unicode="Ё"/>
<glyph d="M185 0v575h-185v125h500v-125h-185v-165q19 12 39 20q49 20 111 20q104 0 167 -61.5t63 -163.5q0 -103 -64.5 -164t-175.5 -61h-55v120h45q55 0 87.5 30.5t32.5 74.5q0 46 -31.5 75.5t-83.5 29.5q-48 0 -96 -18q-18 -6 -39 -17v-295h-130z" glyph-name="uni0402" horiz-adv-x="740" unicode="Ђ"/>
<glyph d="M75 0v700h460v-125h-330v-575h-130zM250 770l95 145h130l-120 -145h-105z" glyph-name="uni0403" horiz-adv-x="555" unicode="Ѓ"/>
<glyph d="M180 410h285v-120h-285q15 -82 70 -128.5t135 -46.5q72 0 116.5 40t63.5 95h135q-6 -28 -17.5 -58t-37 -67.5t-58.5 -66.5t-86 -48.5t-116 -19.5q-144 0 -242 102t-98 258t98 258t242 102q59 0 109.5 -17.5t84.5 -44.5t60 -62.5t40 -67.5t21 -63h-135q-20 52 -64.5 91 t-115.5 39q-80 0 -135 -46.5t-70 -128.5z" glyph-name="uni0404" horiz-adv-x="735" unicode="Є"/>
<glyph d="M35 220h130q0 -47 42.5 -78.5t112.5 -31.5q71 0 105.5 24.5t34.5 65.5q0 70 -115 90l-120 20q-175 29 -175 190q0 90 70 150t190 60q130 0 200 -64t70 -166h-130q0 47 -37 78.5t-103 31.5q-65 0 -97.5 -24.5t-32.5 -65.5q0 -32 21 -51.5t74 -28.5l110 -20 q107 -19 156 -66.5t49 -133.5q0 -94 -70 -152t-200 -58q-132 0 -208.5 64.5t-76.5 165.5z" glyph-name="uni0405" horiz-adv-x="635" unicode="Ѕ"/>
<glyph d="M75 0v700h130v-700h-130z" glyph-name="uni0406" horiz-adv-x="280" unicode="І"/>
<glyph d="M75 0v700h130v-700h-130zM175 785v115h115v-115h-115zM-10 785v115h115v-115h-115z" glyph-name="uni0407" horiz-adv-x="280" unicode="Ї"/>
<glyph d="M10 0v125h155q45 0 45 50v525h130v-560q0 -140 -140 -140h-190z" glyph-name="uni0408" horiz-adv-x="410" unicode="Ј"/>
<glyph d="M5 -5v125h30q67 0 75 90l40 490h460v-250h160q102 0 163.5 -61.5t61.5 -163.5t-61.5 -163.5t-163.5 -61.5h-290v575h-210l-30 -395q-15 -185 -190 -185h-45zM610 125h155q45 0 72.5 27.5t27.5 72.5t-27.5 72.5t-72.5 27.5h-155v-200z" glyph-name="uni0409" horiz-adv-x="1030" unicode="Љ"/>
<glyph d="M630 125h155q45 0 72.5 26.5t27.5 68.5t-27.5 68.5t-72.5 26.5h-155v-190zM75 0v700h130v-260h295v260h130v-260h160q102 0 163.5 -60.5t61.5 -159.5t-61.5 -159.5t-163.5 -60.5h-290v310h-295v-310h-130z" glyph-name="uni040A" horiz-adv-x="1050" unicode="Њ"/>
<glyph d="M185 0v575h-185v125h500v-125h-185v-165q65 40 150 40q102 0 158.5 -58.5t56.5 -166.5v-225h-130v215q0 115 -110 115q-72 0 -125 -35v-295h-130z" glyph-name="uni040B" horiz-adv-x="745" unicode="Ћ"/>
<glyph d="M75 0v700h130v-315l240 315h160l-265 -345l285 -355h-160l-260 325v-325h-130zM275 770l95 145h130l-120 -145h-105z" glyph-name="uni040C" horiz-adv-x="605" unicode="Ќ"/>
<glyph d="M75 0v700h130v-485h20l250 485h175v-700h-130v485h-20l-250 -485h-175zM310 770l-120 145h130l95 -145h-105z" glyph-name="uni040D" horiz-adv-x="725" unicode="Ѝ"/>
<glyph d="M90 0v120h100q33 0 45 30l12 27l-257 523h145l170 -350h20l160 350h145l-275 -600q-44 -100 -165 -100h-100zM155 915h95q15 -60 65 -60t65 60h95q-4 -68 -46 -106.5t-114 -38.5t-114 38.5t-46 106.5z" glyph-name="uni040E" horiz-adv-x="620" unicode="Ў"/>
<glyph d="M75 0v700h130v-575h300v575h130v-700h-215v-140h-130v140h-215z" glyph-name="uni040F" horiz-adv-x="710" unicode="Џ"/>
<glyph d="M0 0l250 700h190l250 -700h-145l-53 150h-294l-53 -150h-145zM240 270h210l-95 280h-20z" glyph-name="uni0410" horiz-adv-x="690" unicode="А"/>
<glyph d="M75 0v700h500v-120h-370v-160h200q94 0 152 -58t58 -152t-58 -152t-152 -58h-330zM205 115h195q39 0 62 25.5t23 69.5t-23 69.5t-62 25.5h-195v-190z" glyph-name="uni0411" horiz-adv-x="660" unicode="Б"/>
<glyph d="M75 0v700h325q90 0 145 -54t55 -141q0 -65 -35 -114q-18 -23 -35 -36v-5q22 -13 40 -36q40 -50 40 -119q0 -87 -55 -141t-145 -54h-335zM205 410h180q38 0 61.5 23.5t23.5 61.5q0 42 -23 66t-62 24h-180v-175zM205 115h190q34 0 59.5 26t25.5 64t-25.5 64t-59.5 26h-190 v-180z" glyph-name="uni0412" horiz-adv-x="660" unicode="В"/>
<glyph d="M75 0v700h460v-125h-330v-575h-130z" glyph-name="uni0413" horiz-adv-x="555" unicode="Г"/>
<glyph d="M0 -140v265h5q46 0 65 23t25 92l40 460h470v-575h75v-265h-130v140h-420v-140h-130zM190 125h285v450h-219l-31 -365q-4 -34 -19 -63q-8 -12 -16 -22z" glyph-name="uni0414" horiz-adv-x="700" unicode="Д"/>
<glyph d="M75 0v700h470v-120h-340v-170h320v-120h-320v-170h340v-120h-470z" glyph-name="uni0415" unicode="Е"/>
<glyph d="M-15 0l235 355l-215 345h160l190 -315v315h130v-315l190 315h160l-215 -345l235 -355h-160l-210 325v-325h-130v325l-210 -325h-160z" glyph-name="uni0416" horiz-adv-x="840" unicode="Ж"/>
<glyph d="M35 210h130q0 -42 34 -71t101 -29q68 0 104 27t36 68q0 40 -33.5 67.5t-91.5 27.5h-70v110h70q54 0 84.5 24t30.5 56q0 42 -33 71t-97 29q-58 0 -91.5 -28.5t-33.5 -71.5h-130q0 96 69 158t186 62q119 0 189.5 -59.5t70.5 -145.5q0 -70 -48 -116q-19 -17 -47 -29v-5 q30 -13 52 -33q53 -47 53 -127q0 -87 -72 -146t-198 -59q-124 0 -194.5 62t-70.5 158z" glyph-name="uni0417" horiz-adv-x="615" unicode="З"/>
<glyph d="M75 0v700h130v-485h20l250 485h175v-700h-130v485h-20l-250 -485h-175z" glyph-name="uni0418" horiz-adv-x="725" unicode="И"/>
<glyph d="M75 0v700h130v-485h20l250 485h175v-700h-130v485h-20l-250 -485h-175zM200 915h95q15 -60 65 -60t65 60h95q-4 -68 -46 -106.5t-114 -38.5t-114 38.5t-46 106.5z" glyph-name="uni0419" horiz-adv-x="725" unicode="Й"/>
<glyph d="M75 0v700h130v-315l240 315h160l-265 -345l285 -355h-160l-260 325v-325h-130z" glyph-name="uni041A" horiz-adv-x="605" unicode="К"/>
<glyph d="M5 -5v125h30q67 0 75 90l40 490h470v-700h-130v575h-220l-30 -395q-15 -185 -190 -185h-45z" glyph-name="uni041B" horiz-adv-x="695" unicode="Л"/>
<glyph d="M75 0v700h210l165 -490h20l165 490h210v-700h-130v485h-20l-165 -485h-140l-165 485h-20v-485h-130z" glyph-name="uni041C" horiz-adv-x="920" unicode="М"/>
<glyph d="M75 0v700h130v-280h315v280h130v-700h-130v290h-315v-290h-130z" glyph-name="uni041D" horiz-adv-x="725" unicode="Н"/>
<glyph d="M385 115q92 0 151 64.5t59 170.5t-59 170.5t-151 64.5t-151 -64.5t-59 -170.5t59 -170.5t151 -64.5zM385 710q144 0 242 -102t98 -258t-98 -258t-242 -102t-242 102t-98 258t98 258t242 102z" glyph-name="uni041E" horiz-adv-x="770" unicode="О"/>
<glyph d="M75 0v700h570v-700h-130v575h-310v-575h-130z" glyph-name="uni041F" horiz-adv-x="720" unicode="П"/>
<glyph d="M75 0v700h315q99 0 159.5 -64t60.5 -171t-60.5 -171t-159.5 -64h-185v-230h-130zM205 355h180q43 0 69 29t26 81t-26 81t-69 29h-180v-220z" glyph-name="uni0420" horiz-adv-x="650" unicode="Р"/>
<glyph d="M565 250h135q-6 -28 -17.5 -58t-37 -67.5t-58.5 -66.5t-86 -48.5t-116 -19.5q-144 0 -242 102t-98 258t98 258t242 102q59 0 109.5 -17.5t84.5 -44.5t60 -62.5t40 -67.5t21 -63h-135q-20 52 -64.5 91t-115.5 39q-92 0 -151 -64.5t-59 -170.5t59 -170.5t151 -64.5 q72 0 116.5 40t63.5 95z" glyph-name="uni0421" horiz-adv-x="735" unicode="С"/>
<glyph d="M230 0v575h-210v125h550v-125h-210v-575h-130z" glyph-name="uni0422" horiz-adv-x="590" unicode="Т"/>
<glyph d="M90 0v120h100q33 0 45 30l12 27l-257 523h145l170 -350h20l160 350h145l-275 -600q-44 -100 -165 -100h-100z" glyph-name="uni0423" horiz-adv-x="620" unicode="У"/>
<glyph d="M355 -20v110q-150 0 -235 75t-85 195t85 195t235 75v90h130v-90q150 0 235 -75t85 -195t-85 -195t-235 -75v-110h-130zM350 205h5v310h-5q-84 0 -134.5 -45t-50.5 -110t50.5 -110t134.5 -45zM485 205h5q84 0 134.5 45t50.5 110t-50.5 110t-134.5 45h-5v-310z" glyph-name="uni0424" horiz-adv-x="840" unicode="Ф"/>
<glyph d="M-10 0l240 360l-225 340h155l150 -230h20l150 230h155l-225 -340l240 -360h-155l-165 250h-20l-165 -250h-155z" glyph-name="uni0425" horiz-adv-x="640" unicode="Х"/>
<glyph d="M75 0v700h130v-575h295v575h130v-575h75v-265h-130v140h-500z" glyph-name="uni0426" horiz-adv-x="725" unicode="Ц"/>
<glyph d="M480 0v265q-20 -15 -48 -28q-56 -27 -127 -27q-240 0 -240 255v235h130v-225q0 -140 135 -140q62 0 111 27q24 13 39 28v310h130v-700h-130z" glyph-name="uni0427" horiz-adv-x="685" unicode="Ч"/>
<glyph d="M75 0v700h130v-575h215v575h130v-575h215v575h130v-700h-820z" glyph-name="uni0428" horiz-adv-x="970" unicode="Ш"/>
<glyph d="M75 0v700h130v-575h215v575h130v-575h215v575h130v-575h75v-265h-130v140h-765z" glyph-name="uni0429" horiz-adv-x="990" unicode="Щ"/>
<glyph d="M290 125h165q43 0 71.5 31t28.5 79t-28.5 79t-71.5 31h-165v-220zM160 0v575h-155v125h285v-230h170q98 0 161.5 -65.5t63.5 -169.5t-63.5 -169.5t-161.5 -65.5h-300z" glyph-name="uni042A" horiz-adv-x="720" unicode="Ъ"/>
<glyph d="M660 0v700h130v-700h-130zM205 125h155q43 0 71.5 31t28.5 79t-28.5 79t-71.5 31h-155v-220zM75 0v700h130v-230h160q98 0 161.5 -65.5t63.5 -169.5t-63.5 -169.5t-161.5 -65.5h-290z" glyph-name="uni042B" horiz-adv-x="865" unicode="Ы"/>
<glyph d="M205 125h175q43 0 71.5 31t28.5 79t-28.5 79t-71.5 31h-175v-220zM75 0v700h130v-230h180q98 0 161.5 -65.5t63.5 -169.5t-63.5 -169.5t-161.5 -65.5h-310z" glyph-name="uni042C" horiz-adv-x="645" unicode="Ь"/>
<glyph d="M35 250h135q16 -53 62.5 -94t117.5 -41q80 0 135 46.5t70 128.5h-285v120h285q-15 82 -70 128.5t-135 46.5q-71 0 -117.5 -40t-62.5 -90h-135q7 39 28.5 80.5t58 82t96.5 66.5t132 26q144 0 242 -102t98 -258t-98 -258t-242 -102q-77 0 -138.5 28.5t-96.5 72.5t-54 83.5 t-26 75.5z" glyph-name="uni042D" horiz-adv-x="735" unicode="Э"/>
<glyph d="M75 0v700h130v-285h84q20 133 109.5 214t211.5 81q138 0 231.5 -100.5t93.5 -259.5t-93.5 -259.5t-231.5 -100.5q-123 0 -213 83t-108 217h-84v-290h-130zM610 115q85 0 140 63t55 172t-55 172t-140 63t-140 -63t-55 -172t55 -172t140 -63z" glyph-name="uni042E" horiz-adv-x="980" unicode="Ю"/>
<glyph d="M30 0l230 240q-80 0 -145 60t-65 165q0 104 63 169.5t157 65.5h320v-700h-130v235h-40l-225 -235h-165zM280 360h180v215h-180q-43 0 -71.5 -31t-28.5 -79q0 -45 29 -75t71 -30z" glyph-name="uni042F" horiz-adv-x="665" unicode="Я"/>
<glyph d="M385 0l-10 50h-5q-13 -16 -35 -30q-48 -30 -110 -30q-84 0 -134.5 45t-50.5 110q0 78 54 124t156 46h115v10q0 43 -24.5 69t-65.5 26q-39 0 -62.5 -20t-27.5 -45h-125q9 69 64 117t151 48t155.5 -56t59.5 -139v-325h-105zM365 205v15h-105q-95 0 -95 -65q0 -30 21 -47.5 t59 -17.5q57 0 88.5 30.5t31.5 84.5z" glyph-name="uni0430" horiz-adv-x="550" unicode="а"/>
<glyph d="M45 270v25q0 253 145 335q59 31 160 45q55 8 55 65h115q0 -85 -26.5 -121t-83.5 -49q-117 -23 -156 -43q-72 -36 -79 -117h5q51 60 140 60q98 0 161.5 -65.5t63.5 -169.5q0 -105 -71 -175t-179 -70q-110 0 -180 77t-70 203zM295 360q-53 0 -89 -37t-36 -93t36 -93t89 -37 t89 37t36 93t-36 93t-89 37z" glyph-name="uni0431" horiz-adv-x="585" unicode="б"/>
<glyph d="M65 0v510h280q71 0 113 -40t42 -105q0 -46 -30 -78q-15 -15 -30 -22v-5q20 -10 35 -26q35 -39 35 -89q0 -61 -44 -103t-111 -42h-290zM190 95h135q26 0 43 17t17 43q0 23 -17 39t-43 16h-135v-115zM190 305h130q55 0 55 55t-55 55h-130v-110z" glyph-name="uni0432" horiz-adv-x="545" unicode="в"/>
<glyph d="M65 0v510h355v-120h-230v-390h-125z" glyph-name="uni0433" horiz-adv-x="440" unicode="г"/>
<glyph d="M0 -120v240h5q38 0 53 15.5t18 54.5l29 320h380v-390h70v-240h-125v120h-305v-120h-125zM170 120h190v275h-140l-20 -215q-4 -30 -17 -47q-8 -10 -13 -13z" glyph-name="uni0434" horiz-adv-x="570" unicode="д"/>
<glyph d="M165 300h260q-9 51 -41.5 83t-83.5 32q-54 0 -88.5 -31.5t-46.5 -83.5zM405 150h130q-5 -19 -19.5 -42.5t-41 -52t-72.5 -47t-102 -18.5q-113 0 -186.5 74.5t-73.5 190.5t73.5 190.5t186.5 74.5q105 0 177.5 -73.5t72.5 -181.5q0 -9 -3 -36l-2 -14h-380q8 -54 45 -87 t90 -33q40 0 68 17.5t37 37.5z" glyph-name="uni0435" horiz-adv-x="590" unicode="е"/>
<glyph d="M-5 0l165 260l-155 250h145l140 -230v230h125v-230l140 230h145l-155 -250l165 -260h-145l-150 240v-240h-125v240l-150 -240h-145z" glyph-name="uni0436" horiz-adv-x="705" unicode="ж"/>
<glyph d="M30 170h125q0 -32 26 -56t69 -24q46 0 70.5 18.5t24.5 46.5q0 55 -90 55h-55v90h55q40 0 60 17.5t20 42.5t-22.5 42.5t-62.5 17.5t-65 -21t-25 -49h-125q0 68 59 119t156 51t153.5 -46.5t56.5 -113.5q0 -49 -35 -80q-15 -12 -35 -20v-5q11 -3 21.5 -9t25.5 -18t24 -33.5 t9 -49.5q0 -67 -56.5 -111t-163.5 -44q-104 0 -162 52t-58 128z" glyph-name="uni0437" horiz-adv-x="505" unicode="з"/>
<glyph d="M65 0v510h125v-310h20l150 310h160v-510h-125v310h-20l-150 -310h-160z" glyph-name="uni0438" horiz-adv-x="585" unicode="и"/>
<glyph d="M65 0v510h125v-310h20l150 310h160v-510h-125v310h-20l-150 -310h-160zM135 725h95q15 -60 65 -60t65 60h95q-4 -68 -46 -106.5t-114 -38.5t-114 38.5t-46 106.5z" glyph-name="uni0439" horiz-adv-x="585" unicode="й"/>
<glyph d="M65 0v510h125v-230l190 230h145l-210 -250l220 -260h-145l-200 240v-240h-125z" glyph-name="uni043A" horiz-adv-x="520" unicode="к"/>
<glyph d="M5 -5v115h25q59 0 67 80l28 320h380v-510h-125v395h-140l-20 -225q-15 -175 -170 -175h-45z" glyph-name="uni043B" horiz-adv-x="570" unicode="л"/>
<glyph d="M65 0v510h190l110 -330h20l110 330h190v-510h-125v325h-20l-105 -325h-120l-105 325h-20v-325h-125z" glyph-name="uni043C" horiz-adv-x="750" unicode="м"/>
<glyph d="M65 0v510h125v-200h205v200h125v-510h-125v190h-205v-190h-125z" glyph-name="uni043D" horiz-adv-x="585" unicode="н"/>
<glyph d="M300 105q57 0 96 42t39 108t-39 108t-96 42t-96 -42t-39 -108t39 -108t96 -42zM300 520q113 0 186.5 -74.5t73.5 -190.5t-73.5 -190.5t-186.5 -74.5t-186.5 74.5t-73.5 190.5t73.5 190.5t186.5 74.5z" glyph-name="uni043E" unicode="о"/>
<glyph d="M65 0v510h455v-510h-125v390h-205v-390h-125z" glyph-name="uni043F" horiz-adv-x="585" unicode="п"/>
<glyph d="M450 255q0 71 -36 110.5t-94 39.5t-94 -39.5t-36 -110.5t36 -110.5t94 -39.5t94 39.5t36 110.5zM65 -200v710h115l10 -55h5q14 18 35 32q50 33 110 33q100 0 167.5 -73.5t67.5 -191.5t-67.5 -191.5t-167.5 -73.5q-66 0 -112 30q-20 14 -33 30h-5v-250h-125z" glyph-name="uni0440" horiz-adv-x="615" unicode="р"/>
<glyph d="M415 190h125q-7 -34 -22.5 -66t-42.5 -63.5t-72.5 -51t-102.5 -19.5q-113 0 -186.5 74.5t-73.5 190.5t73.5 190.5t186.5 74.5q57 0 102.5 -19.5t72.5 -50.5t42.5 -62t22.5 -63h-125q-30 80 -115 80q-57 0 -96 -42t-39 -108t39 -108t96 -42q88 0 115 85z" glyph-name="uni0441" horiz-adv-x="575" unicode="с"/>
<glyph d="M180 0v395h-160v115h445v-115h-160v-395h-125z" glyph-name="uni0442" horiz-adv-x="485" unicode="т"/>
<glyph d="M60 -200v115h100q30 0 38 25l9 25l-207 545h130l130 -345h20l120 345h130l-215 -610q-19 -55 -50.5 -77.5t-99.5 -22.5h-105z" glyph-name="uni0443" horiz-adv-x="530" unicode="у"/>
<glyph d="M310 115h5v280h-5q-145 0 -145 -140t145 -140zM315 -200v200q-130 0 -202.5 68.5t-72.5 186.5t72.5 186.5t202.5 68.5v190h125v-190q130 0 202.5 -68.5t72.5 -186.5t-72.5 -186.5t-202.5 -68.5v-200h-125zM440 115h5q145 0 145 140t-145 140h-5v-280z" glyph-name="uni0444" horiz-adv-x="755" unicode="ф"/>
<glyph d="M-5 0l170 260l-165 250h140l105 -160h20l105 160h140l-165 -250l170 -260h-140l-110 170h-20l-110 -170h-140z" glyph-name="uni0445" horiz-adv-x="510" unicode="х"/>
<glyph d="M65 0v510h125v-390h200v390h125v-390h70v-240h-125v120h-395z" glyph-name="uni0446" unicode="ц"/>
<glyph d="M370 0v180q-53 -40 -135 -40q-85 0 -132.5 49.5t-47.5 145.5v175h125v-160q0 -45 24 -70t66 -25q53 0 100 35v220h125v-510h-125z" glyph-name="uni0447" horiz-adv-x="560" unicode="ч"/>
<glyph d="M65 0v510h125v-390h150v390h125v-390h150v390h125v-510h-675z" glyph-name="uni0448" horiz-adv-x="805" unicode="ш"/>
<glyph d="M65 0v510h125v-390h150v390h125v-390h150v390h125v-390h70v-240h-125v120h-620z" glyph-name="uni0449" horiz-adv-x="825" unicode="щ"/>
<glyph d="M135 0v395h-125v115h250v-160h120q83 0 131.5 -48t48.5 -127t-48.5 -127t-131.5 -48h-245zM260 100h100q34 0 54.5 20.5t20.5 54.5t-20.5 54.5t-54.5 20.5h-100v-150z" glyph-name="uni044A" horiz-adv-x="590" unicode="ъ"/>
<glyph d="M545 0v510h125v-510h-125zM65 0v510h125v-160h120q83 0 131.5 -48t48.5 -127t-48.5 -127t-131.5 -48h-245zM190 100h100q34 0 54.5 20.5t20.5 54.5t-20.5 54.5t-54.5 20.5h-100v-150z" glyph-name="uni044B" horiz-adv-x="735" unicode="ы"/>
<glyph d="M65 0v510h125v-160h130q83 0 131.5 -48t48.5 -127t-48.5 -127t-131.5 -48h-255zM190 100h110q34 0 54.5 20.5t20.5 54.5t-20.5 54.5t-54.5 20.5h-110v-150z" glyph-name="uni044C" horiz-adv-x="530" unicode="ь"/>
<glyph d="M35 180h125q30 -80 115 -80q97 0 128 105h-178v100h178q-31 105 -128 105q-85 0 -115 -80h-125q3 19 12 41t28 49.5t44.5 49t66 36t89.5 14.5q113 0 186.5 -74.5t73.5 -190.5t-73.5 -190.5t-186.5 -74.5q-57 0 -102.5 18t-72.5 47.5t-42.5 60.5t-22.5 64z" glyph-name="uni044D" horiz-adv-x="575" unicode="э"/>
<glyph d="M65 0v510h125v-200h54q16 96 83 153t163 57q110 0 180 -73t70 -192t-70 -192t-180 -73q-94 0 -160.5 55.5t-84.5 149.5h-55v-195h-125zM490 105q55 0 90 40t35 110t-35 110t-90 40t-90 -40t-35 -110t35 -110t90 -40z" glyph-name="uni044E" horiz-adv-x="780" unicode="ю"/>
<glyph d="M25 0l160 175q-58 0 -104 49t-46 116q0 72 51 121t129 49h265v-510h-125v175h-30l-160 -175h-140zM235 270h120v140h-120q-33 0 -54 -20t-21 -50t21 -50t54 -20z" glyph-name="uni044F" horiz-adv-x="545" unicode="я"/>
<glyph d="M165 300h260q-9 51 -41.5 83t-83.5 32q-54 0 -88.5 -31.5t-46.5 -83.5zM405 150h130q-5 -19 -19.5 -42.5t-41 -52t-72.5 -47t-102 -18.5q-113 0 -186.5 74.5t-73.5 190.5t73.5 190.5t186.5 74.5q105 0 177.5 -73.5t72.5 -181.5q0 -9 -3 -36l-2 -14h-380q8 -54 45 -87 t90 -33q40 0 68 17.5t37 37.5zM240 580l-120 145h130l95 -145h-105z" glyph-name="uni0450" horiz-adv-x="590" unicode="ѐ"/>
<glyph d="M165 300h260q-9 51 -41.5 83t-83.5 32q-54 0 -88.5 -31.5t-46.5 -83.5zM405 150h130q-5 -19 -19.5 -42.5t-41 -52t-72.5 -47t-102 -18.5q-113 0 -186.5 74.5t-73.5 190.5t73.5 190.5t186.5 74.5q105 0 177.5 -73.5t72.5 -181.5q0 -9 -3 -36l-2 -14h-380q8 -54 45 -87 t90 -33q40 0 68 17.5t37 37.5zM330 595v115h115v-115h-115zM145 595v115h115v-115h-115z" glyph-name="uni0451" horiz-adv-x="590" unicode="ё"/>
<glyph d="M80 0v525h-80v110h80v75h125v-75h160v-110h-160v-125h5q12 15 34 30q46 30 106 30q87 0 143.5 -59.5t56.5 -155.5v-260q0 -87 -51 -136t-144 -49h-50v115h50q70 0 70 70v250q0 49 -30.5 79.5t-79.5 30.5t-79.5 -30.5t-30.5 -79.5v-235h-125z" glyph-name="uni0452" horiz-adv-x="610" unicode="ђ"/>
<glyph d="M65 0v510h355v-120h-230v-390h-125zM195 580l95 145h130l-120 -145h-105z" glyph-name="uni0453" horiz-adv-x="440" unicode="ѓ"/>
<glyph d="M172 305h178v-100h-178q31 -105 128 -105q85 0 115 80h125q-7 -33 -22.5 -64t-42.5 -60.5t-72.5 -47.5t-102.5 -18q-113 0 -186.5 74.5t-73.5 190.5t73.5 190.5t186.5 74.5q49 0 89.5 -14.5t66 -36t44.5 -49t28 -49.5t12 -41h-125q-30 80 -115 80q-97 0 -128 -105z" glyph-name="uni0454" horiz-adv-x="575" unicode="є"/>
<glyph d="M30 155h120q0 -23 26.5 -44t73.5 -21q95 0 95 55q0 24 -15 37.5t-55 19.5l-80 13q-165 27 -165 145q0 67 57 113.5t158 46.5t158 -55t57 -110h-120q0 25 -26 45t-69 20t-66.5 -17.5t-23.5 -42.5q0 -37 70 -47l85 -13q160 -24 160 -155q0 -67 -56.5 -111t-163.5 -44 q-54 0 -95.5 14t-64 33.5t-37 44.5t-19 42.5t-4.5 30.5z" glyph-name="uni0455" horiz-adv-x="505" unicode="ѕ"/>
<glyph d="M65 0v510h125v-510h-125zM60 590v120h135v-120h-135z" glyph-name="uni0456" horiz-adv-x="255" unicode="і"/>
<glyph d="M65 0v510h125v-510h-125zM165 595v115h115v-115h-115zM-20 595v115h115v-115h-115z" glyph-name="uni0457" horiz-adv-x="255" unicode="ї"/>
<glyph d="M-50 -200v115h80q35 0 35 35v560h125v-590q0 -54 -35.5 -87t-94.5 -33h-110zM60 590v120h135v-120h-135z" glyph-name="uni0458" horiz-adv-x="255" unicode="ј"/>
<glyph d="M5 -5v115h25q59 0 67 80l28 320h375v-180h115q82 0 128.5 -44.5t46.5 -120.5t-46.5 -120.5t-128.5 -44.5h-240v395h-135l-20 -225q-15 -175 -170 -175h-45zM500 100h95q33 0 51.5 17.5t18.5 47.5t-18.5 47.5t-51.5 17.5h-95v-130z" glyph-name="uni0459" horiz-adv-x="820" unicode="љ"/>
<glyph d="M65 0v510h125v-180h195v180h125v-180h115q82 0 128.5 -44.5t46.5 -120.5t-46.5 -120.5t-128.5 -44.5h-240v210h-195v-210h-125zM510 100h95q33 0 51.5 17.5t18.5 47.5t-18.5 47.5t-51.5 17.5h-95v-130z" glyph-name="uni045A" horiz-adv-x="830" unicode="њ"/>
<glyph d="M80 0v525h-80v110h80v75h125v-75h160v-110h-160v-125h5q12 15 34 30q46 30 106 30q87 0 143.5 -59.5t56.5 -155.5v-245h-125v235q0 49 -30.5 79.5t-79.5 30.5t-79.5 -30.5t-30.5 -79.5v-235h-125z" glyph-name="uni045B" horiz-adv-x="610" unicode="ћ"/>
<glyph d="M65 0v510h125v-230l190 230h145l-210 -250l220 -260h-145l-200 240v-240h-125zM230 580l95 145h130l-120 -145h-105z" glyph-name="uni045C" horiz-adv-x="520" unicode="ќ"/>
<glyph d="M65 0v510h125v-310h20l150 310h160v-510h-125v310h-20l-150 -310h-160zM245 580l-120 145h130l95 -145h-105z" glyph-name="uni045D" horiz-adv-x="585" unicode="ѝ"/>
<glyph d="M60 -200v115h100q30 0 38 25l9 25l-207 545h130l130 -345h20l120 345h130l-215 -610q-19 -55 -50.5 -77.5t-99.5 -22.5h-105zM110 725h95q15 -60 65 -60t65 60h95q-4 -68 -46 -106.5t-114 -38.5t-114 38.5t-46 106.5z" glyph-name="uni045E" horiz-adv-x="530" unicode="ў"/>
<glyph d="M65 0v510h125v-395h195v395h125v-510h-160v-120h-125v120h-160z" glyph-name="uni045F" horiz-adv-x="575" unicode="џ"/>
<glyph d="M130 0v510h-130v120h130v70h130v-70h190v-120h-190v-80h175q101 0 160.5 -58.5t59.5 -156.5t-59.5 -156.5t-160.5 -58.5h-305zM260 125h170q45 0 70 24t25 66t-25 66t-70 24h-170v-180z" glyph-name="uni0462" horiz-adv-x="690" unicode="Ѣ"/>
<glyph d="M115 0v430h-115v115h115v155h125v-155h140v-115h-140v-80h120q83 0 131.5 -48t48.5 -127t-48.5 -127t-131.5 -48h-245zM240 100h100q34 0 54.5 20.5t20.5 54.5t-20.5 54.5t-54.5 20.5h-100v-150z" glyph-name="uni0463" horiz-adv-x="570" unicode="ѣ"/>
<glyph d="M40 0v70q0 262 230 325l-200 195v110h680v-110l-200 -195q230 -63 230 -325v-70h-130v70q0 110 -46.5 165t-128.5 55v-290h-130v290q-82 0 -128.5 -55t-46.5 -165v-70h-130zM235 580l175 -170l175 170h-350z" glyph-name="uni046A" horiz-adv-x="820" unicode="Ѫ"/>
<glyph d="M150 0h-125q0 114 51 190.5t134 94.5l-145 125v100h525v-100l-145 -125q83 -18 134 -94.5t51 -190.5h-125q0 182 -115 190v-190h-125v190q-115 -8 -115 -190zM200 405l125 -110h5l125 110h-255z" glyph-name="uni046B" horiz-adv-x="655" unicode="ѫ"/>
<glyph d="M385 710q144 0 242 -102t98 -258t-98 -258t-242 -102t-242 102t-98 258t98 258t242 102zM180 400q57 15 90 15q46 0 117 -17.5t113 -17.5q46 0 90 20q-15 85 -69 135t-136 50q-79 0 -134.5 -49.5t-70.5 -135.5zM180 300q15 -85 69 -135t136 -50q79 0 136 51.5t69 133.5 q-35 -15 -90 -15q-47 0 -119 17.5t-111 17.5q-46 0 -90 -20z" glyph-name="uni0472" horiz-adv-x="770" unicode="Ѳ"/>
<glyph d="M300 520q113 0 186.5 -74.5t73.5 -190.5t-73.5 -190.5t-186.5 -74.5t-186.5 74.5t-73.5 190.5t73.5 190.5t186.5 74.5zM430 210q-14 -4 -21 -5q-25 -5 -44 -5q-25 0 -67 10t-68 10q-23 0 -41 -5q-15 -4 -19 -5q22 -105 130 -105q50 0 84.5 26.5t45.5 78.5zM170 300 q7 1 21 5q20 5 44 5q25 0 67 -10t68 -10q21 0 41 5q7 1 19 5q-22 105 -130 105q-50 0 -84.5 -26.5t-45.5 -78.5z" glyph-name="uni0473" unicode="ѳ"/>
<glyph d="M245 0l-240 700h145l180 -540h20l125 370q32 94 74.5 134.5t100.5 40.5q29 0 47 -5l18 -5v-130l-10 5q-12 5 -25 5q-26 0 -42.5 -15.5t-27.5 -49.5l-175 -510h-190z" glyph-name="uni0474" horiz-adv-x="705" unicode="Ѵ"/>
<glyph d="M180 0l-175 510h130l120 -355h20l75 221q25 74 58 109t87 35q21 0 43 -10q10 -4 17 -10v-105q-3 1 -9 5q-12 5 -21 5q-24 0 -34.5 -13t-20.5 -42l-120 -350h-170z" glyph-name="uni0475" horiz-adv-x="550" unicode="ѵ"/>
<glyph d="M75 0v700h130v-485h20l250 485h175v-575h100v-20l-80 -245h-100l25 140h-75v485h-20l-250 -485h-175zM205 920h95q15 -60 65 -60t65 60h95q-4 -68 -46 -106.5t-114 -38.5t-114 38.5t-46 106.5z" glyph-name="uni048A" horiz-adv-x="740" unicode="Ҋ"/>
<glyph d="M65 0v510h125v-310h20l150 310h160v-390h90v-25l-80 -215h-85l20 120h-70v310h-20l-150 -310h-160zM135 725h95q15 -60 65 -60t65 60h95q-4 -68 -46 -106.5t-114 -38.5t-114 38.5t-46 106.5z" glyph-name="uni048B" unicode="ҋ"/>
<glyph d="M130 0v510h-130v120h130v70h130v-70h190v-120h-190v-80h175q101 0 160.5 -58.5t59.5 -156.5t-59.5 -156.5t-160.5 -58.5h-305zM260 125h170q45 0 70 24t25 66t-25 66t-70 24h-170v-180z" glyph-name="uni048C" horiz-adv-x="690" unicode="Ҍ"/>
<glyph d="M115 0v430h-115v115h115v155h125v-155h140v-115h-140v-80h120q83 0 131.5 -48t48.5 -127t-48.5 -127t-131.5 -48h-245zM240 100h100q34 0 54.5 20.5t20.5 54.5t-20.5 54.5t-54.5 20.5h-100v-150z" glyph-name="uni048D" horiz-adv-x="570" unicode="ҍ"/>
<glyph d="M75 0v700h315q99 0 159.5 -64t60.5 -171q0 -120 -76 -186l46 -64l-80 -45l-48 67q-27 -7 -62 -7h-185v-230h-130zM205 355h163l-43 60l80 45l51 -72q24 28 24 77q0 52 -26 81t-69 29h-180v-220z" glyph-name="uni048E" horiz-adv-x="650" unicode="Ҏ"/>
<glyph d="M65 -200v710h115l10 -55h5q14 18 35 32q50 33 110 33q100 0 167.5 -73.5t67.5 -191.5q0 -124 -77 -201l52 -74l-75 -40l-47 67q-43 -17 -88 -17q-66 0 -112 30q-20 14 -33 30h-5v-250h-125zM357 110l-52 75l75 40l45 -65q25 37 25 95q0 71 -36 110.5t-94 39.5t-94 -39.5 t-36 -110.5t36 -110.5t94 -39.5q15 0 37 5z" glyph-name="uni048F" horiz-adv-x="615" unicode="ҏ"/>
<glyph d="M75 0v700h331v140h129v-265h-330v-575h-130z" glyph-name="uni0490" horiz-adv-x="555" unicode="Ґ"/>
<glyph d="M65 0v510h245v125h115v-245h-235v-390h-125z" glyph-name="uni0491" horiz-adv-x="445" unicode="ґ"/>
<glyph d="M110 0v290h-100v120h100v290h450v-120h-320v-170h190v-120h-190v-290h-130z" glyph-name="uni0492" horiz-adv-x="580" unicode="Ғ"/>
<glyph d="M85 0v185h-80v105h80v220h355v-115h-230v-105h165v-105h-165v-185h-125z" glyph-name="uni0493" horiz-adv-x="460" unicode="ғ"/>
<glyph d="M75 0v700h460v-125h-330v-200q17 10 36 17q48 18 104 18q117 0 188.5 -74t71.5 -201t-76.5 -203.5t-203.5 -76.5v130q68 0 109 41t41 109t-38.5 106.5t-106.5 38.5q-45 0 -91 -18q-16 -6 -34 -17v-245h-130z" glyph-name="uni0494" horiz-adv-x="645" unicode="Ҕ"/>
<glyph d="M65 0v510h355v-120h-230v-120q14 8 30 12q35 13 75 13q99 0 157 -63.5t58 -181.5q0 -124 -61 -187t-179 -63v115q58 4 86.5 36t28.5 99q0 59 -30 92t-80 33q-35 0 -63 -13q-11 -4 -22 -12v-150h-125z" glyph-name="uni0495" horiz-adv-x="540" unicode="ҕ"/>
<glyph d="M-15 0l235 355l-215 345h160l190 -315v315h130v-315l190 315h160l-215 -345l152 -230h78v-265h-130v140h-25l-210 325v-325h-130v325l-210 -325h-160z" glyph-name="uni0496" horiz-adv-x="850" unicode="Җ"/>
<glyph d="M-5 0l165 260l-155 250h145l140 -230v230h125v-230l140 230h145l-155 -250l89 -140h76v-240h-125v120h-20l-150 240v-240h-125v240l-150 -240h-145z" glyph-name="uni0497" horiz-adv-x="710" unicode="җ"/>
<glyph d="M240 -140v135q-97 14 -151 72.5t-54 142.5h130q0 -42 34 -71t101 -29q68 0 104 27t36 68q0 40 -33.5 67.5t-91.5 27.5h-70v110h70q54 0 84.5 24t30.5 56q0 42 -33 71t-97 29q-58 0 -91.5 -28.5t-33.5 -71.5h-130q0 96 69 158t186 62q119 0 189.5 -59.5t70.5 -145.5 q0 -70 -48 -116q-19 -17 -47 -29v-5q30 -13 52 -33q53 -47 53 -127q0 -74 -52.5 -129t-147.5 -70v-136h-130z" glyph-name="uni0498" horiz-adv-x="615" unicode="Ҙ"/>
<glyph d="M185 -120v117q-75 15 -115 62.5t-40 110.5h125q0 -32 26 -56t69 -24q46 0 70.5 18.5t24.5 46.5q0 55 -90 55h-55v90h55q40 0 60 17.5t20 42.5t-22.5 42.5t-62.5 17.5t-65 -21t-25 -49h-125q0 68 59 119t156 51t153.5 -46.5t56.5 -113.5q0 -49 -35 -80q-15 -12 -35 -20v-5 q11 -3 21.5 -9t25.5 -18t24 -33.5t9 -49.5q0 -57 -41 -98t-119 -53v-114h-125z" glyph-name="uni0499" horiz-adv-x="505" unicode="ҙ"/>
<glyph d="M75 0v700h130v-315l240 315h160l-265 -345l184 -229h81v-266h-130v140h-10l-260 325v-325h-130z" glyph-name="uni049A" horiz-adv-x="610" unicode="Қ"/>
<glyph d="M65 0v510h125v-230l190 230h145l-210 -250l118 -140h97v-240h-125v120h-15l-200 240v-240h-125z" glyph-name="uni049B" horiz-adv-x="530" unicode="қ"/>
<glyph d="M75 0v700h130v-290h35v100h80v-100h24l161 290h160l-205 -345l225 -355h-160l-171 285h-34v-100h-80v100h-35v-285h-130z" glyph-name="uni049C" horiz-adv-x="670" unicode="Ҝ"/>
<glyph d="M65 0v510h125v-205h30v80h65v-80h14l121 205h145l-155 -250l165 -260h-145l-133 220h-12v-85h-65v85h-30v-220h-125z" glyph-name="uni049D" horiz-adv-x="565" unicode="ҝ"/>
<glyph d="M95 0v530h-95v110h95v60h130v-60h65v-110h-65v-145l240 315h160l-265 -345l285 -355h-160l-260 325v-325h-130z" glyph-name="uni049E" horiz-adv-x="625" unicode="Ҟ"/>
<glyph d="M80 0v530h-80v110h80v60h125v-60h110v-110h-110v-250l190 230h145l-210 -250l220 -260h-145l-200 240v-240h-125z" glyph-name="uni049F" horiz-adv-x="535" unicode="ҟ"/>
<glyph d="M120 0v575h-120v125h250v-315l240 315h160l-265 -345l285 -355h-160l-260 325v-325h-130z" glyph-name="uni04A0" horiz-adv-x="650" unicode="Ҡ"/>
<glyph d="M105 0v400h-105v110h230v-230l190 230h145l-210 -250l220 -260h-145l-200 240v-240h-125z" glyph-name="uni04A1" horiz-adv-x="560" unicode="ҡ"/>
<glyph d="M75 0v700h130v-280h315v280h130v-575h75v-265h-130v140h-75v290h-315v-290h-130z" glyph-name="uni04A2" horiz-adv-x="745" unicode="Ң"/>
<glyph d="M65 0v510h125v-200h205v200h125v-390h70v-240h-125v120h-70v190h-205v-190h-125z" glyph-name="uni04A3" horiz-adv-x="605" unicode="ң"/>
<glyph d="M75 0v700h130v-280h295v280h440v-125h-310v-575h-130v290h-295v-290h-130z" glyph-name="uni04A4" horiz-adv-x="960" unicode="Ҥ"/>
<glyph d="M65 0v510h125v-200h195v200h335v-120h-210v-390h-125v190h-195v-190h-125z" glyph-name="uni04A5" horiz-adv-x="740" unicode="ҥ"/>
<glyph d="M75 0v700h535v-325q17 10 36 17q48 18 104 18q117 0 188.5 -74t71.5 -201t-76 -203.5t-204 -76.5v130q68 0 109 41t41 109t-38.5 106.5t-106.5 38.5q-45 0 -91 -18q-16 -6 -34 -17v-245h-130v575h-275v-575h-130z" glyph-name="uni04A6" horiz-adv-x="1050" unicode="Ҧ"/>
<glyph d="M65 0v510h425v-240q14 8 30 12q35 13 75 13q99 0 157 -63.5t58 -181.5q0 -124 -61 -187t-179 -63v115q58 4 86.5 36t28.5 99q0 59 -30 92t-80 33q-35 0 -63 -13q-11 -4 -22 -12v-150h-125v390h-175v-390h-125z" glyph-name="uni04A7" horiz-adv-x="835" unicode="ҧ"/>
<glyph d="M565 160q44 23 77 82t33 128q0 85 -31 127.5t-79 42.5t-79 -42.5t-31 -127.5q0 -70 33 -128.5t77 -81.5zM770 115v-125q-145 0 -210 35q-58 -35 -180 -35q-144 0 -239.5 100.5t-95.5 259.5q0 158 97 259t223 101v-130q-82 -4 -136 -66t-54 -164q0 -103 60 -169t145 -66 q27 0 47 5q9 1 18 5q-56 42 -88 110t-32 145q0 129 68.5 207t171.5 78t171.5 -78t68.5 -207q0 -76 -32 -144.5t-88 -110.5q14 -4 22 -5q25 -5 63 -5z" glyph-name="uni04A8" horiz-adv-x="850" unicode="Ҩ"/>
<glyph d="M440 140q21 16 38 53.5t17 76.5q0 43 -15.5 66.5t-39.5 23.5t-39.5 -23.5t-15.5 -66.5q0 -39 17 -76.5t38 -53.5zM605 100v-110q-107 0 -165 35q-58 -35 -130 -35q-120 0 -195 74t-75 191q0 114 70 185t170 80v-120q-51 -9 -83 -46.5t-32 -98.5q0 -70 38.5 -112.5 t96.5 -42.5q11 0 25 2l10 3q-75 75 -75 175q0 88 51.5 141.5t128.5 53.5t128.5 -53.5t51.5 -141.5q0 -100 -75 -175q15 -5 60 -5z" glyph-name="uni04A9" horiz-adv-x="660" unicode="ҩ"/>
<glyph d="M320 -140v137q-121 23 -198 119.5t-77 233.5q0 156 98 258t242 102q59 0 109.5 -17.5t84.5 -44.5t60 -62.5t40 -67.5t21 -63h-135q-20 52 -64.5 91t-115.5 39q-92 0 -151 -64.5t-59 -170.5t59 -170.5t151 -64.5q72 0 116.5 40t63.5 95h135q-6 -31 -21.5 -66.5 t-43.5 -75.5t-76.5 -71t-108.5 -41v-136h-130z" glyph-name="uni04AA" horiz-adv-x="735" unicode="Ҫ"/>
<glyph d="M235 -120v117q-88 20 -141.5 90t-53.5 168q0 116 73.5 190.5t186.5 74.5q57 0 102.5 -19.5t72.5 -50.5t42.5 -62t22.5 -63h-125q-30 80 -115 80q-57 0 -96 -42t-39 -108t39 -108t96 -42q88 0 115 85h125q-7 -39 -26 -76t-59.5 -71.5t-94.5 -45.5v-117h-125z" glyph-name="uni04AB" horiz-adv-x="575" unicode="ҫ"/>
<glyph d="M305 -140v140h-75v575h-210v125h550v-125h-210v-450h75v-265h-130z" glyph-name="uni04AC" horiz-adv-x="590" unicode="Ҭ"/>
<glyph d="M250 -120v120h-70v395h-160v115h445v-115h-160v-275h70v-240h-125z" glyph-name="uni04AD" horiz-adv-x="485" unicode="ҭ"/>
<glyph d="M245 0v240l-255 460h145l165 -300h20l165 300h145l-255 -460v-240h-130z" glyph-name="uni04AE" horiz-adv-x="620" unicode="Ү"/>
<glyph d="M205 -200v200h-20l-185 510h130l125 -360h20l125 360h130l-185 -510h-15v-200h-125z" glyph-name="uni04AF" horiz-adv-x="530" unicode="ү"/>
<glyph d="M245 0v235h-165v115h104l-194 350h145l165 -300h20l165 300h145l-194 -350h104v-115h-165v-235h-130z" glyph-name="uni04B0" horiz-adv-x="620" unicode="Ұ"/>
<glyph d="M205 -200v200h-135v110h75l-145 400h130l125 -360h20l125 360h130l-145 -400h75v-110h-130v-200h-125z" glyph-name="uni04B1" horiz-adv-x="530" unicode="ұ"/>
<glyph d="M-5 0l240 360l-225 340h155l150 -230h20l150 230h155l-225 -340l156 -235h74v-265h-130v140h-15l-165 250h-20l-165 -250h-155z" glyph-name="uni04B2" horiz-adv-x="645" unicode="Ҳ"/>
<glyph d="M0 0l170 260l-165 250h140l105 -160h20l105 160h140l-165 -250l91 -140h79v-240h-125v120h-15l-110 170h-20l-110 -170h-140z" glyph-name="uni04B3" horiz-adv-x="520" unicode="ҳ"/>
<glyph d="M200 0v575h-180v125h485v-125h-175v-450h295v575h130v-575h75v-265h-130v140h-500z" glyph-name="uni04B4" horiz-adv-x="850" unicode="Ҵ"/>
<glyph d="M155 0v395h-135v115h385v-115h-125v-275h200v390h125v-390h70v-240h-125v120h-395z" glyph-name="uni04B5" horiz-adv-x="690" unicode="ҵ"/>
<glyph d="M555 -140v140h-75v265q-20 -15 -48 -28q-56 -27 -127 -27q-240 0 -240 255v235h130v-225q0 -140 135 -140q62 0 111 27q24 13 39 28v310h130v-575h75v-265h-130z" glyph-name="uni04B6" horiz-adv-x="705" unicode="Ҷ"/>
<glyph d="M440 -120v120h-70v180q-53 -40 -135 -40q-85 0 -132.5 49.5t-47.5 145.5v175h125v-160q0 -45 24 -70t66 -25q53 0 100 35v220h125v-390h70v-240h-125z" glyph-name="uni04B7" horiz-adv-x="580" unicode="ҷ"/>
<glyph d="M300 125v85q-114 0 -174.5 64t-60.5 191v235h130v-225q0 -126 105 -138v113h80v-110q39 9 74 31q21 15 26 19v310h130v-700h-130v265q-18 -12 -28 -17q-47 -22 -72 -28v-95h-80z" glyph-name="uni04B8" horiz-adv-x="685" unicode="Ҹ"/>
<glyph d="M245 85v55h-10q-85 0 -132.5 49.5t-47.5 145.5v175h125v-160q0 -76 65 -93v98h65v-96q27 7 60 31v220h125v-510h-125v180q-25 -19 -60 -30v-65h-65z" glyph-name="uni04B9" horiz-adv-x="560" unicode="ҹ"/>
<glyph d="M75 0v700h130v-265q21 15 48 27q58 28 127 28q240 0 240 -255v-235h-130v225q0 140 -135 140q-61 0 -111 -28q-22 -12 -39 -27v-310h-130z" glyph-name="uni04BA" horiz-adv-x="685" unicode="Һ"/>
<glyph d="M70 0v700h125v-240h5q12 15 34 30q46 30 106 30q87 0 143.5 -59.5t56.5 -155.5v-305h-125v295q0 49 -30.5 79.5t-79.5 30.5t-79.5 -30.5t-30.5 -79.5v-295h-125z" glyph-name="uni04BB" unicode="һ"/>
<glyph d="M0 430v40h105v-15q0 -30 9.5 -40t35.5 -10h8q18 134 111.5 219.5t220.5 85.5q140 0 235 -100.5t95 -244.5v-65h-530q12 -81 65.5 -133t134.5 -52q58 0 104.5 29t70.5 76h145q-34 -108 -120 -169t-200 -61q-129 0 -222.5 86.5t-109.5 223.5h-13q-78 0 -111.5 30.5 t-33.5 99.5zM290 405h395q-8 78 -64 129t-131 51q-80 0 -134 -51t-66 -129z" glyph-name="uni04BC" horiz-adv-x="865" unicode="Ҽ"/>
<glyph d="M0 320v30h90v-15q0 -23 5.5 -29t24.5 -6h8q14 98 85 159t172 61q105 0 177.5 -73.5t72.5 -181.5q0 -9 -3 -36l-2 -14h-380q8 -54 45 -87t90 -33q40 0 68 17.5t37 37.5h130q-5 -19 -19.5 -42.5t-41 -52t-72.5 -47t-102 -18.5q-102 0 -173 62.5t-85 162.5h-27q-54 0 -77 24 t-23 81zM250 300h260q-9 51 -41.5 83t-83.5 32q-54 0 -88.5 -31.5t-46.5 -83.5z" glyph-name="uni04BD" horiz-adv-x="675" unicode="ҽ"/>
<glyph d="M426 -140v137q-106 20 -180 102t-88 201h-13q-78 0 -111.5 30.5t-33.5 99.5v40h105v-15q0 -30 9.5 -40t35.5 -10h8q18 134 111.5 219.5t220.5 85.5q140 0 235 -100.5t95 -244.5v-65h-530q12 -81 65.5 -133t134.5 -52q58 0 104.5 29t70.5 76h145q-29 -92 -95.5 -150 t-158.5 -74v-136h-130zM290 405h395q-8 78 -64 129t-131 51q-80 0 -134 -51t-66 -129z" glyph-name="uni04BE" horiz-adv-x="865" unicode="Ҿ"/>
<glyph d="M320 -120v118q-78 17 -130 75t-63 142h-27q-54 0 -77 24t-23 81v30h90v-15q0 -23 5.5 -29t24.5 -6h8q14 98 85 159t172 61q105 0 177.5 -73.5t72.5 -181.5q0 -9 -3 -36l-2 -14h-380q8 -54 45 -87t90 -33q40 0 68 17.5t37 37.5h130q-9 -39 -54 -88.5t-121 -65.5v-116h-125 zM250 300h260q-9 51 -41.5 83t-83.5 32q-54 0 -88.5 -31.5t-46.5 -83.5z" glyph-name="uni04BF" horiz-adv-x="675" unicode="ҿ"/>
<glyph d="M75 0v700h130v-700h-130z" glyph-name="uni04C0" horiz-adv-x="280" unicode="Ӏ"/>
<glyph d="M-15 0l235 355l-215 345h160l190 -315v315h130v-315l190 315h160l-215 -345l235 -355h-160l-210 325v-325h-130v325l-210 -325h-160zM260 915h95q15 -60 65 -60t65 60h95q-4 -68 -46 -106.5t-114 -38.5t-114 38.5t-46 106.5z" glyph-name="uni04C1" horiz-adv-x="840" unicode="Ӂ"/>
<glyph d="M-5 0l165 260l-155 250h145l140 -230v230h125v-230l140 230h145l-155 -250l165 -260h-145l-150 240v-240h-125v240l-150 -240h-145zM195 725h95q15 -60 65 -60t65 60h95q-4 -68 -46 -106.5t-114 -38.5t-114 38.5t-46 106.5z" glyph-name="uni04C2" horiz-adv-x="705" unicode="ӂ"/>
<glyph d="M75 0v700h130v-315l240 315h160l-225 -292q104 -10 164.5 -84.5t60.5 -188.5q0 -133 -75.5 -206.5t-214.5 -73.5v130q78 0 119 39t41 111q0 69 -38.5 109.5t-106.5 40.5q-49 0 -91 -20q-16 -7 -34 -20v-245h-130z" glyph-name="uni04C3" horiz-adv-x="640" unicode="Ӄ"/>
<glyph d="M65 0v510h125v-230l190 230h145l-180 -215q88 -18 134 -75.5t46 -169.5q0 -125 -67.5 -192.5t-182.5 -67.5v120q125 8 125 140q0 135 -120 135q-32 0 -66 -15q-14 -8 -24 -15v-155h-125z" glyph-name="uni04C4" horiz-adv-x="555" unicode="ӄ"/>
<glyph d="M5 -5v125h30q67 0 75 90l40 490h470v-575h100v-20l-80 -245h-100l25 140h-75v575h-220l-30 -395q-15 -185 -190 -185h-45z" glyph-name="uni04C5" horiz-adv-x="710" unicode="Ӆ"/>
<glyph d="M5 -5v115h25q59 0 67 80l28 320h380v-390h90v-25l-80 -215h-85l20 120h-70v395h-140l-20 -225q-15 -175 -170 -175h-45z" glyph-name="uni04C6" horiz-adv-x="585" unicode="ӆ"/>
<glyph d="M75 0v700h130v-280h315v280h130v-690q0 -119 -47.5 -169.5t-157.5 -50.5h-25v135h20q80 0 80 75v290h-315v-290h-130z" glyph-name="uni04C7" horiz-adv-x="725" unicode="Ӈ"/>
<glyph d="M65 0v510h125v-200h205v200h125v-545q0 -85 -44 -130t-121 -45h-40v120h20q33 0 46.5 15t13.5 50v215h-205v-190h-125z" glyph-name="uni04C8" horiz-adv-x="585" unicode="ӈ"/>
<glyph d="M75 0v700h130v-280h315v280h130v-575h100v-20l-80 -245h-100l25 140h-75v290h-315v-290h-130z" glyph-name="uni04C9" horiz-adv-x="740" unicode="Ӊ"/>
<glyph d="M65 0v510h125v-200h205v200h125v-390h90v-25l-80 -215h-85l20 120h-70v190h-205v-190h-125z" glyph-name="uni04CA" unicode="ӊ"/>
<glyph d="M405 -140v245h75v160q-20 -15 -48 -28q-56 -27 -127 -27q-240 0 -240 255v235h130v-225q0 -140 135 -140q62 0 111 27q24 13 39 28v310h130v-700h-75v-140h-130z" glyph-name="uni04CB" horiz-adv-x="685" unicode="Ӌ"/>
<glyph d="M300 -120v205h70v95q-53 -40 -135 -40q-85 0 -132.5 49.5t-47.5 145.5v175h125v-160q0 -45 24 -70t66 -25q53 0 100 35v220h125v-510h-70v-120h-125z" glyph-name="uni04CC" horiz-adv-x="560" unicode="ӌ"/>
<glyph d="M75 0v700h210l165 -490h20l165 490h210v-575h100v-20l-80 -245h-100l25 140h-75v485h-20l-165 -485h-140l-165 485h-20v-485h-130z" glyph-name="uni04CD" horiz-adv-x="935" unicode="Ӎ"/>
<glyph d="M65 0v510h190l110 -330h20l110 330h190v-390h90v-25l-80 -215h-85l20 120h-70v325h-20l-105 -325h-120l-105 325h-20v-325h-125z" glyph-name="uni04CE" horiz-adv-x="765" unicode="ӎ"/>
<glyph d="M70 0v700h125v-700h-125z" glyph-name="uni04CF" horiz-adv-x="265" unicode="ӏ"/>
<glyph d="M0 0l250 700h190l250 -700h-145l-53 150h-294l-53 -150h-145zM240 270h210l-95 280h-20zM185 915h95q15 -60 65 -60t65 60h95q-4 -68 -46 -106.5t-114 -38.5t-114 38.5t-46 106.5z" glyph-name="uni04D0" horiz-adv-x="690" unicode="Ӑ"/>
<glyph d="M385 0l-10 50h-5q-13 -16 -35 -30q-48 -30 -110 -30q-84 0 -134.5 45t-50.5 110q0 78 54 124t156 46h115v10q0 43 -24.5 69t-65.5 26q-39 0 -62.5 -20t-27.5 -45h-125q9 69 64 117t151 48t155.5 -56t59.5 -139v-325h-105zM365 205v15h-105q-95 0 -95 -65q0 -30 21 -47.5 t59 -17.5q57 0 88.5 30.5t31.5 84.5zM120 725h95q15 -60 65 -60t65 60h95q-4 -68 -46 -106.5t-114 -38.5t-114 38.5t-46 106.5z" glyph-name="uni04D1" horiz-adv-x="550" unicode="ӑ"/>
<glyph d="M0 0l250 700h190l250 -700h-145l-53 150h-294l-53 -150h-145zM240 270h210l-95 280h-20zM380 785v115h115v-115h-115zM195 785v115h115v-115h-115z" glyph-name="uni04D2" horiz-adv-x="690" unicode="Ӓ"/>
<glyph d="M385 0l-10 50h-5q-13 -16 -35 -30q-48 -30 -110 -30q-84 0 -134.5 45t-50.5 110q0 78 54 124t156 46h115v10q0 43 -24.5 69t-65.5 26q-39 0 -62.5 -20t-27.5 -45h-125q9 69 64 117t151 48t155.5 -56t59.5 -139v-325h-105zM365 205v15h-105q-95 0 -95 -65q0 -30 21 -47.5 t59 -17.5q57 0 88.5 30.5t31.5 84.5zM315 595v115h115v-115h-115zM130 595v115h115v-115h-115z" glyph-name="uni04D3" horiz-adv-x="550" unicode="ӓ"/>
<glyph d="M75 0v700h470v-120h-340v-170h320v-120h-320v-170h340v-120h-470zM150 915h95q15 -60 65 -60t65 60h95q-4 -68 -46 -106.5t-114 -38.5t-114 38.5t-46 106.5z" glyph-name="uni04D6" unicode="Ӗ"/>
<glyph d="M165 300h260q-9 51 -41.5 83t-83.5 32q-54 0 -88.5 -31.5t-46.5 -83.5zM405 150h130q-5 -19 -19.5 -42.5t-41 -52t-72.5 -47t-102 -18.5q-113 0 -186.5 74.5t-73.5 190.5t73.5 190.5t186.5 74.5q105 0 177.5 -73.5t72.5 -181.5q0 -9 -3 -36l-2 -14h-380q8 -54 45 -87 t90 -33q40 0 68 17.5t37 37.5zM135 725h95q15 -60 65 -60t65 60h95q-4 -68 -46 -106.5t-114 -38.5t-114 38.5t-46 106.5z" glyph-name="uni04D7" horiz-adv-x="590" unicode="ӗ"/>
<glyph d="M575 295h-395q8 -78 63.5 -129t131.5 -51q80 0 134 51t66 129zM45 335v65h530q-12 81 -65.5 133t-134.5 52q-58 0 -104.5 -29t-70.5 -76h-145q34 108 120 169t200 61q140 0 237.5 -102t97.5 -258t-97.5 -258t-237.5 -102t-235 100.5t-95 244.5z" glyph-name="uni04D8" horiz-adv-x="755" unicode="Ә"/>
<glyph d="M425 210h-260q9 -51 41.5 -83t83.5 -32q54 0 88.5 31.5t46.5 83.5zM45 295h380q-8 54 -45 87t-90 33q-38 0 -66.5 -19t-38.5 -41h-130q5 19 20.5 43.5t42.5 53.5t72.5 48.5t99.5 19.5q113 0 186.5 -74.5t73.5 -190.5t-73.5 -190.5t-186.5 -74.5q-105 0 -177.5 73.5 t-72.5 181.5q0 18 2 36z" glyph-name="uni04D9" horiz-adv-x="590" unicode="ә"/>
<glyph d="M575 295h-395q8 -78 63.5 -129t131.5 -51q80 0 134 51t66 129zM45 335v65h530q-12 81 -65.5 133t-134.5 52q-58 0 -104.5 -29t-70.5 -76h-145q34 108 120 169t200 61q140 0 237.5 -102t97.5 -258t-97.5 -258t-237.5 -102t-235 100.5t-95 244.5zM410 785v115h115v-115 h-115zM225 785v115h115v-115h-115z" glyph-name="uni04DA" horiz-adv-x="755" unicode="Ӛ"/>
<glyph d="M425 210h-260q9 -51 41.5 -83t83.5 -32q54 0 88.5 31.5t46.5 83.5zM45 295h380q-8 54 -45 87t-90 33q-38 0 -66.5 -19t-38.5 -41h-130q5 19 20.5 43.5t42.5 53.5t72.5 48.5t99.5 19.5q113 0 186.5 -74.5t73.5 -190.5t-73.5 -190.5t-186.5 -74.5q-105 0 -177.5 73.5 t-72.5 181.5q0 18 2 36zM325 595v115h115v-115h-115zM140 595v115h115v-115h-115z" glyph-name="uni04DB" horiz-adv-x="590" unicode="ӛ"/>
<glyph d="M-15 0l235 355l-215 345h160l190 -315v315h130v-315l190 315h160l-215 -345l235 -355h-160l-210 325v-325h-130v325l-210 -325h-160zM455 785v115h115v-115h-115zM270 785v115h115v-115h-115z" glyph-name="uni04DC" horiz-adv-x="840" unicode="Ӝ"/>
<glyph d="M-5 0l165 260l-155 250h145l140 -230v230h125v-230l140 230h145l-155 -250l165 -260h-145l-150 240v-240h-125v240l-150 -240h-145zM390 595v115h115v-115h-115zM205 595v115h115v-115h-115z" glyph-name="uni04DD" horiz-adv-x="705" unicode="ӝ"/>
<glyph d="M35 210h130q0 -42 34 -71t101 -29q68 0 104 27t36 68q0 40 -33.5 67.5t-91.5 27.5h-70v110h70q54 0 84.5 24t30.5 56q0 42 -33 71t-97 29q-58 0 -91.5 -28.5t-33.5 -71.5h-130q0 96 69 158t186 62q119 0 189.5 -59.5t70.5 -145.5q0 -70 -48 -116q-19 -17 -47 -29v-5 q30 -13 52 -33q53 -47 53 -127q0 -87 -72 -146t-198 -59q-124 0 -194.5 62t-70.5 158zM340 785v115h115v-115h-115zM155 785v115h115v-115h-115z" glyph-name="uni04DE" horiz-adv-x="615" unicode="Ӟ"/>
<glyph d="M30 170h125q0 -32 26 -56t69 -24q46 0 70.5 18.5t24.5 46.5q0 55 -90 55h-55v90h55q40 0 60 17.5t20 42.5t-22.5 42.5t-62.5 17.5t-65 -21t-25 -49h-125q0 68 59 119t156 51t153.5 -46.5t56.5 -113.5q0 -49 -35 -80q-15 -12 -35 -20v-5q11 -3 21.5 -9t25.5 -18t24 -33.5 t9 -49.5q0 -67 -56.5 -111t-163.5 -44q-104 0 -162 52t-58 128zM285 595v115h115v-115h-115zM100 595v115h115v-115h-115z" glyph-name="uni04DF" horiz-adv-x="505" unicode="ӟ"/>
<glyph d="M30 200h130q0 -37 35.5 -61t109.5 -24q64 0 102 28t38 77q0 100 -135 100h-145v100l205 155h-315v125h500v-105l-215 -165v-5h5q106 -6 168 -61t62 -159q0 -96 -71 -155.5t-199 -59.5q-134 0 -204.5 58t-70.5 152z" glyph-name="uni04E0" horiz-adv-x="615" unicode="Ӡ"/>
<glyph d="M20 5h125q0 -46 29 -73t81 -27q48 0 76.5 30.5t28.5 79.5q0 115 -130 115h-110v95l175 165h-250v110h420v-100l-175 -165v-5q81 -4 138 -57.5t57 -157.5q0 -102 -63 -163.5t-167 -61.5q-111 0 -173 62t-62 153z" glyph-name="uni04E1" horiz-adv-x="515" unicode="ӡ"/>
<glyph d="M75 0v700h130v-485h20l250 485h175v-700h-130v485h-20l-250 -485h-175zM205 795v95h310v-95h-310z" glyph-name="uni04E2" horiz-adv-x="725" unicode="Ӣ"/>
<glyph d="M65 0v510h125v-310h20l150 310h160v-510h-125v310h-20l-150 -310h-160zM140 605v95h310v-95h-310z" glyph-name="uni04E3" horiz-adv-x="585" unicode="ӣ"/>
<glyph d="M75 0v700h130v-485h20l250 485h175v-700h-130v485h-20l-250 -485h-175zM395 785v115h115v-115h-115zM210 785v115h115v-115h-115z" glyph-name="uni04E4" horiz-adv-x="725" unicode="Ӥ"/>
<glyph d="M65 0v510h125v-310h20l150 310h160v-510h-125v310h-20l-150 -310h-160zM330 595v115h115v-115h-115zM145 595v115h115v-115h-115z" glyph-name="uni04E5" horiz-adv-x="585" unicode="ӥ"/>
<glyph d="M385 115q92 0 151 64.5t59 170.5t-59 170.5t-151 64.5t-151 -64.5t-59 -170.5t59 -170.5t151 -64.5zM385 710q144 0 242 -102t98 -258t-98 -258t-242 -102t-242 102t-98 258t98 258t242 102zM420 785v115h115v-115h-115zM235 785v115h115v-115h-115z" glyph-name="uni04E6" horiz-adv-x="770" unicode="Ӧ"/>
<glyph d="M300 105q57 0 96 42t39 108t-39 108t-96 42t-96 -42t-39 -108t39 -108t96 -42zM300 520q113 0 186.5 -74.5t73.5 -190.5t-73.5 -190.5t-186.5 -74.5t-186.5 74.5t-73.5 190.5t73.5 190.5t186.5 74.5zM335 595v115h115v-115h-115zM150 595v115h115v-115h-115z" glyph-name="uni04E7" unicode="ӧ"/>
<glyph d="M385 710q144 0 242 -102t98 -258t-98 -258t-242 -102t-242 102t-98 258t98 258t242 102zM590 300h-410q15 -86 70.5 -135.5t134.5 -49.5t134.5 49.5t70.5 135.5zM180 400h410q-15 86 -70.5 135.5t-134.5 49.5t-134.5 -49.5t-70.5 -135.5z" glyph-name="uni04E8" horiz-adv-x="770" unicode="Ө"/>
<glyph d="M300 520q113 0 186.5 -74.5t73.5 -190.5t-73.5 -190.5t-186.5 -74.5t-186.5 74.5t-73.5 190.5t73.5 190.5t186.5 74.5zM430 210h-260q11 -48 47.5 -76.5t82.5 -28.5t82.5 28.5t47.5 76.5zM170 300h260q-11 48 -47.5 76.5t-82.5 28.5t-82.5 -28.5t-47.5 -76.5z" glyph-name="uni04E9" unicode="ө"/>
<glyph d="M385 710q144 0 242 -102t98 -258t-98 -258t-242 -102t-242 102t-98 258t98 258t242 102zM590 300h-410q15 -86 70.5 -135.5t134.5 -49.5t134.5 49.5t70.5 135.5zM180 400h410q-15 86 -70.5 135.5t-134.5 49.5t-134.5 -49.5t-70.5 -135.5zM420 785v115h115v-115h-115z M235 785v115h115v-115h-115z" glyph-name="uni04EA" horiz-adv-x="770" unicode="Ӫ"/>
<glyph d="M300 520q113 0 186.5 -74.5t73.5 -190.5t-73.5 -190.5t-186.5 -74.5t-186.5 74.5t-73.5 190.5t73.5 190.5t186.5 74.5zM430 210h-260q11 -48 47.5 -76.5t82.5 -28.5t82.5 28.5t47.5 76.5zM170 300h260q-11 48 -47.5 76.5t-82.5 28.5t-82.5 -28.5t-47.5 -76.5zM335 595 v115h115v-115h-115zM150 595v115h115v-115h-115z" glyph-name="uni04EB" unicode="ӫ"/>
<glyph d="M35 250h135q16 -53 62.5 -94t117.5 -41q80 0 135 46.5t70 128.5h-285v120h285q-15 82 -70 128.5t-135 46.5q-71 0 -117.5 -40t-62.5 -90h-135q7 39 28.5 80.5t58 82t96.5 66.5t132 26q144 0 242 -102t98 -258t-98 -258t-242 -102q-77 0 -138.5 28.5t-96.5 72.5t-54 83.5 t-26 75.5zM390 785v115h115v-115h-115zM205 785v115h115v-115h-115z" glyph-name="uni04EC" horiz-adv-x="735" unicode="Ӭ"/>
<glyph d="M35 180h125q30 -80 115 -80q97 0 128 105h-178v100h178q-31 105 -128 105q-85 0 -115 -80h-125q3 19 12 41t28 49.5t44.5 49t66 36t89.5 14.5q113 0 186.5 -74.5t73.5 -190.5t-73.5 -190.5t-186.5 -74.5q-57 0 -102.5 18t-72.5 47.5t-42.5 60.5t-22.5 64zM320 595v115 h115v-115h-115zM135 595v115h115v-115h-115z" glyph-name="uni04ED" horiz-adv-x="575" unicode="ӭ"/>
<glyph d="M90 0v120h100q33 0 45 30l12 27l-257 523h145l170 -350h20l160 350h145l-275 -600q-44 -100 -165 -100h-100zM160 795v95h310v-95h-310z" glyph-name="uni04EE" horiz-adv-x="620" unicode="Ӯ"/>
<glyph d="M60 -200v115h100q30 0 38 25l9 25l-207 545h130l130 -345h20l120 345h130l-215 -610q-19 -55 -50.5 -77.5t-99.5 -22.5h-105zM115 605v95h310v-95h-310z" glyph-name="uni04EF" horiz-adv-x="530" unicode="ӯ"/>
<glyph d="M90 0v120h100q33 0 45 30l12 27l-257 523h145l170 -350h20l160 350h145l-275 -600q-44 -100 -165 -100h-100zM350 785v115h115v-115h-115zM165 785v115h115v-115h-115z" glyph-name="uni04F0" horiz-adv-x="620" unicode="Ӱ"/>
<glyph d="M60 -200v115h100q30 0 38 25l9 25l-207 545h130l130 -345h20l120 345h130l-215 -610q-19 -55 -50.5 -77.5t-99.5 -22.5h-105zM305 595v115h115v-115h-115zM120 595v115h115v-115h-115z" glyph-name="uni04F1" horiz-adv-x="530" unicode="ӱ"/>
<glyph d="M90 0v120h100q33 0 45 30l12 27l-257 523h145l170 -350h20l160 350h145l-275 -600q-44 -100 -165 -100h-100zM180 770l100 145h115l-115 -145h-100zM355 770l100 145h115l-115 -145h-100z" glyph-name="uni04F2" horiz-adv-x="620" unicode="Ӳ"/>
<glyph d="M60 -200v115h100q30 0 38 25l9 25l-207 545h130l130 -345h20l120 345h130l-215 -610q-19 -55 -50.5 -77.5t-99.5 -22.5h-105zM135 580l100 145h115l-115 -145h-100zM310 580l100 145h115l-115 -145h-100z" glyph-name="uni04F3" horiz-adv-x="530" unicode="ӳ"/>
<glyph d="M480 0v265q-20 -15 -48 -28q-56 -27 -127 -27q-240 0 -240 255v235h130v-225q0 -140 135 -140q62 0 111 27q24 13 39 28v310h130v-700h-130zM370 785v115h115v-115h-115zM185 785v115h115v-115h-115z" glyph-name="uni04F4" horiz-adv-x="685" unicode="Ӵ"/>
<glyph d="M370 0v180q-53 -40 -135 -40q-85 0 -132.5 49.5t-47.5 145.5v175h125v-160q0 -45 24 -70t66 -25q53 0 100 35v220h125v-510h-125zM310 595v115h115v-115h-115zM125 595v115h115v-115h-115z" glyph-name="uni04F5" horiz-adv-x="560" unicode="ӵ"/>
<glyph d="M150 -140v140h-75v700h460v-125h-330v-450h75v-265h-130z" glyph-name="uni04F6" horiz-adv-x="555" unicode="Ӷ"/>
<glyph d="M135 -120v120h-70v510h355v-120h-230v-270h70v-240h-125z" glyph-name="uni04F7" horiz-adv-x="440" unicode="ӷ"/>
<glyph d="M660 0v700h130v-700h-130zM205 125h155q43 0 71.5 31t28.5 79t-28.5 79t-71.5 31h-155v-220zM75 0v700h130v-230h160q98 0 161.5 -65.5t63.5 -169.5t-63.5 -169.5t-161.5 -65.5h-290zM470 785v115h115v-115h-115zM285 785v115h115v-115h-115z" glyph-name="uni04F8" horiz-adv-x="865" unicode="Ӹ"/>
<glyph d="M545 0v510h125v-510h-125zM65 0v510h125v-160h120q83 0 131.5 -48t48.5 -127t-48.5 -127t-131.5 -48h-245zM190 100h100q34 0 54.5 20.5t20.5 54.5t-20.5 54.5t-54.5 20.5h-100v-150zM400 595v115h115v-115h-115zM215 595v115h115v-115h-115z" glyph-name="uni04F9" horiz-adv-x="735" unicode="ӹ"/>
<glyph d="M120 -215v125h20q45 0 45 50v40h-75v290h-100v120h100v290h450v-120h-320v-170h190v-120h-190v-165h75v-140q0 -111 -39.5 -155.5t-130.5 -44.5h-25z" glyph-name="uni04FA" horiz-adv-x="580" unicode="Ӻ"/>
<glyph d="M90 -195v115h20q24 0 34.5 13.5t10.5 46.5v20h-70v185h-80v105h80v220h355v-115h-230v-105h165v-105h-165v-95h70v-125q0 -86 -36.5 -123t-118.5 -37h-35z" glyph-name="uni04FB" horiz-adv-x="460" unicode="ӻ"/>
<glyph d="M-5 0l240 360l-225 340h155l150 -230h20l150 230h155l-225 -340l180 -270q50 -73 50 -146t-44.5 -113.5t-130.5 -40.5h-40v135h20q55 0 55 40q0 7 -2 16t-4.5 15.5t-8.5 16.5l-9 15t-11 16.5t-10 15.5l-125 190h-20l-165 -250h-155z" glyph-name="uni04FC" horiz-adv-x="645" unicode="Ӽ"/>
<glyph d="M0 0l170 260l-165 250h140l105 -160h20l105 160h140l-165 -250l85 -130q75 -116 75 -190q0 -70 -45 -110t-130 -40h-35v120h20q40 0 55 10t15 30q0 10 -3 21.5t-6.5 20.5t-11 22.5t-11.5 20t-12.5 19.5t-10.5 16l-65 100h-20l-110 -170h-140z" glyph-name="uni04FD" horiz-adv-x="520" unicode="ӽ"/>
<glyph d="M-5 0l203 305h-118v109h119l-189 286h155l150 -230h20l150 230h155l-189 -286h119v-109h-118l203 -305h-155l-165 250h-20l-165 -250h-155z" glyph-name="uni04FE" horiz-adv-x="650" unicode="Ӿ"/>
<glyph d="M150 355v5q-29 11 -48 29q-47 45 -47 116q0 87 71 146t194 59q121 0 190.5 -62t69.5 -158h-130q0 44 -34 72t-96 28q-67 0 -101 -29t-34 -71q0 -32 30.5 -56t84.5 -24h70v-110h-70q-58 0 -91.5 -27.5t-33.5 -67.5q0 -41 37 -68t108 -27q70 0 105 29t35 71h130 q0 -96 -71.5 -158t-198.5 -62q-129 0 -202 59t-73 146q0 81 52 127q22 21 53 33z" glyph-name="uni0510" horiz-adv-x="620" unicode="Ԑ"/>
<glyph d="M115 255v5q-22 9 -35 20q-35 28 -35 80q0 67 56.5 113.5t153.5 46.5q100 0 160 -51t60 -119h-125q0 28 -26 49t-69 21q-40 0 -62.5 -17.5t-22.5 -42.5t20 -42.5t60 -17.5h60v-90h-60q-90 0 -90 -55q0 -28 24.5 -46.5t70.5 -18.5q47 0 73.5 21.5t26.5 53.5h125 q0 -75 -58.5 -125t-166.5 -50q-107 0 -163.5 44t-56.5 111q0 28 9.5 50t23.5 34t25.5 17.5t21.5 8.5z" glyph-name="uni0511" horiz-adv-x="510" unicode="ԑ"/>
<glyph d="M5 -5v125h30q67 0 75 90l40 490h470v-690q0 -119 -47.5 -169.5t-157.5 -50.5h-25v135h20q80 0 80 75v575h-220l-30 -395q-15 -185 -190 -185h-45z" glyph-name="uni0512" horiz-adv-x="695" unicode="Ԓ"/>
<glyph d="M5 -5v115h25q59 0 67 80l28 320h380v-545q0 -85 -44 -130t-121 -45h-40v120h20q33 0 46.5 15t13.5 50v420h-140l-20 -225q-15 -175 -170 -175h-45z" glyph-name="uni0513" horiz-adv-x="570" unicode="ԓ"/>
</font>
</defs>
</svg>
