<svg width="137" height="29" viewBox="0 0 137 29" fill="none" xmlns="http://www.w3.org/2000/svg">
<path d="M49.625 27V2.5H53.3V23.5H65.2V27H49.625ZM68.5264 27V2.5H79.5514C81.6047 2.5 83.308 3.235 84.6614 4.705C86.038 6.15167 86.7264 8.04167 86.7264 10.375C86.7264 12.7083 86.038 14.61 84.6614 16.08C83.308 17.5267 81.6047 18.25 79.5514 18.25H78.6764L87.4264 27H82.7014L73.9514 18.25H72.2014V27H68.5264ZM72.2014 14.75H79.3764C80.3797 14.75 81.243 14.3417 81.9664 13.525C82.6897 12.7083 83.0514 11.6583 83.0514 10.375C83.0514 9.09167 82.6897 8.04167 81.9664 7.225C81.243 6.40833 80.3797 6 79.3764 6H72.2014V14.75ZM88.665 27L97.59 2.5H103.19L112.115 27H108.09L105.99 21.225H94.79L92.69 27H88.665ZM96.015 17.9H104.765L100.74 6.7H100.04L96.015 17.9ZM131.904 18.6H135.754C135.52 19.6267 135.124 20.63 134.564 21.61C134.027 22.59 133.315 23.5233 132.429 24.41C131.542 25.2967 130.434 26.0083 129.104 26.545C127.774 27.0817 126.315 27.35 124.729 27.35C121.439 27.35 118.662 26.1717 116.399 23.815C114.135 21.4583 113.004 18.4367 113.004 14.75C113.004 11.0633 114.135 8.04167 116.399 5.685C118.662 3.32833 121.439 2.15 124.729 2.15C127.622 2.15 130.037 2.99 131.974 4.67C133.934 6.32667 135.194 8.345 135.754 10.725H131.904C131.297 9.09167 130.352 7.84333 129.069 6.98C127.785 6.09333 126.339 5.65 124.729 5.65C122.395 5.65 120.47 6.47833 118.954 8.135C117.437 9.79167 116.679 11.9967 116.679 14.75C116.679 17.5033 117.437 19.7083 118.954 21.365C120.47 23.0217 122.395 23.85 124.729 23.85C126.595 23.85 128.135 23.3483 129.349 22.345C130.585 21.3183 131.437 20.07 131.904 18.6Z" fill="#1A1919"/>
<path d="M7.75275 6.4156C9.20963 5.4364 10.6852 4.83616 12.3165 4.55393C12.4837 4.52478 12.7027 4.24917 12.72 4.07294C12.7733 3.50318 12.72 2.92547 12.7517 2.35173C12.7949 1.52755 13.3324 1.01212 14.1106 1.00019C14.9132 0.988267 15.5026 1.53286 15.5242 2.37558C15.5516 3.41308 15.5458 4.4519 15.5286 5.48941C15.5127 6.48318 15.0055 6.92177 13.8526 6.98139C10.2947 7.16425 7.45734 9.35188 6.67198 12.5147C5.64741 16.6422 9.09291 20.8174 13.6855 21.0122C15.0905 21.0718 15.5286 21.4852 15.5314 22.7612C15.5343 23.6887 15.5444 24.6163 15.5286 25.5438C15.5127 26.4501 14.9723 26.9987 14.1351 27C13.295 27 12.7776 26.4687 12.7459 25.5464C12.7272 25.0164 12.7747 24.4838 12.7229 23.9577C12.7056 23.7749 12.5038 23.4834 12.3453 23.4569C10.6867 23.1839 9.1981 22.5585 7.77869 21.6071C7.23686 22.1265 6.73394 22.63 6.20653 23.1097C5.44422 23.8027 4.58393 23.8676 3.99166 23.3018C3.39363 22.7307 3.45992 22.0112 4.21214 21.3143C4.73379 20.8306 5.29147 20.3775 5.70072 20.025C4.96292 18.4111 4.2914 16.9443 3.53918 15.3013C3.11552 15.3013 2.42382 15.3424 1.74221 15.2867C1.30846 15.2509 0.75655 15.182 0.495723 14.9236C0.203194 14.6335 -0.010078 14.0703 0.0907941 13.7073C0.190225 13.3469 0.675852 12.9136 1.07646 12.8221C1.78112 12.6605 2.55207 12.7519 3.29132 12.6989C3.48442 12.6857 3.80721 12.5518 3.83027 12.4339C4.12856 10.8876 4.81449 9.49763 5.88518 8.11827C5.37217 7.68763 4.86204 7.28748 4.3865 6.85551C3.59538 6.13602 3.51036 5.39798 4.11703 4.82026C4.71218 4.25447 5.56815 4.32073 6.33046 5.01902C6.80455 5.45363 7.24839 5.91872 7.75275 6.41693V6.4156Z" fill="#1A1919"/>
<path d="M26.1816 20.3275C26.1124 22.278 25.389 23.9674 24.0907 25.466C23.556 26.0848 22.7462 26.2239 22.1237 25.8185C21.4853 25.4024 21.2893 24.6273 21.8254 24.0085C23.8154 21.7109 23.4725 19.2569 22.5156 16.7394C21.7259 14.6617 20.844 12.6092 20.1653 10.5011C19.2502 7.65625 19.6206 4.95715 21.7 2.57077C22.0847 2.12953 22.5574 1.8526 23.1972 1.99438C23.7549 2.11761 24.1714 2.44356 24.2304 2.97225C24.2665 3.29689 24.2146 3.72355 24.0071 3.96205C22.017 6.25039 22.3326 8.70965 23.288 11.2325C24.0835 13.3314 24.9265 15.4183 25.6499 17.5384C25.9554 18.4314 26.0101 19.396 26.1787 20.3275H26.1816Z" fill="#1A1919"/>
<path d="M29.9469 1.95068C31.179 1.97188 31.8318 2.87291 31.4845 3.69973C31.4254 3.84151 31.3404 3.98196 31.2367 4.10121C29.6616 5.90326 29.4945 7.93586 30.2179 10.0427C30.9023 12.0355 31.7583 13.978 32.4803 15.9616C33.2325 18.026 33.8363 20.15 33.0956 22.3072C32.7224 23.3977 32.0595 24.4206 31.411 25.4091C30.9369 26.1312 30.0637 26.2372 29.421 25.8132C28.735 25.3614 28.6125 24.6127 29.2062 23.8959C30.2106 22.6835 30.7568 21.3372 30.5363 19.8267C30.3749 18.7216 30.0982 17.6179 29.7293 16.5565C29.016 14.5027 28.0967 12.5059 27.4525 10.4349C26.5922 7.66688 26.8992 5.00621 28.9368 2.6821C29.2437 2.33229 29.7236 2.11101 29.9469 1.95333V1.95068Z" fill="#1A1919"/>
</svg>
