<svg width="110" height="33" viewBox="0 0 110 33" fill="none" xmlns="http://www.w3.org/2000/svg">
<path d="M51.625 29V4.5H55.3V25.5H67.2V29H51.625ZM70.5264 29V4.5H81.5514C83.6047 4.5 85.308 5.235 86.6614 6.705C88.038 8.15167 88.7264 10.0417 88.7264 12.375C88.7264 14.7083 88.038 16.61 86.6614 18.08C85.308 19.5267 83.6047 20.25 81.5514 20.25H80.6764L89.4264 29H84.7014L75.9514 20.25H74.2014V29H70.5264ZM74.2014 16.75H81.3764C82.3797 16.75 83.243 16.3417 83.9664 15.525C84.6897 14.7083 85.0514 13.6583 85.0514 12.375C85.0514 11.0917 84.6897 10.0417 83.9664 9.225C83.243 8.40833 82.3797 8 81.3764 8H74.2014V16.75ZM104.681 22.875H108.181C108.018 23.5983 107.75 24.31 107.376 25.01C107.026 25.71 106.536 26.3983 105.906 27.075C105.3 27.7517 104.495 28.3 103.491 28.72C102.488 29.14 101.368 29.35 100.131 29.35C97.5881 29.35 95.4881 28.51 93.8314 26.83C92.1981 25.15 91.3814 22.9567 91.3814 20.25C91.3814 17.5433 92.1981 15.35 93.8314 13.67C95.4881 11.99 97.5881 11.15 100.131 11.15C102.465 11.15 104.296 11.815 105.626 13.145C106.956 14.4517 107.808 15.8867 108.181 17.45H104.681C103.935 15.35 102.418 14.3 100.131 14.3C98.6148 14.3 97.3548 14.8483 96.3514 15.945C95.3714 17.0183 94.8814 18.4533 94.8814 20.25C94.8814 22.0467 95.3714 23.4933 96.3514 24.59C97.3548 25.6633 98.6148 26.2 100.131 26.2C101.391 26.2 102.406 25.8617 103.176 25.185C103.946 24.5083 104.448 23.7383 104.681 22.875Z" fill="#204A8F"/>
<g clip-path="url(#clip0_1235_4949)">
<path d="M15.2761 0H15.7021C16.1458 0.232031 16.3114 0.608437 16.2767 1.12793C16.2468 1.57717 16.2706 2.02963 16.2706 2.4808V3.14209C16.3077 3.16529 16.3442 3.18785 16.3813 3.21105C16.4446 3.11502 16.4958 3.00674 16.5724 2.92488C16.8366 2.64258 17.1013 2.36027 17.3819 2.09666C17.6247 1.86785 17.9199 1.85561 18.2096 1.97549C18.4902 2.09086 18.6326 2.33643 18.6563 2.64902C18.6794 2.94615 18.5614 3.18463 18.3611 3.39088C17.7221 4.05088 17.0867 4.71475 16.4544 5.38248C16.3795 5.46176 16.2834 5.56811 16.2803 5.66543C16.2627 6.16559 16.2724 6.66639 16.2724 7.23937C16.3966 7.12465 16.4714 7.06084 16.5402 6.99059C17.1926 6.32994 17.8402 5.66414 18.4975 5.00801C18.7939 4.71217 19.229 4.67865 19.5315 4.90488C19.8254 5.12402 19.9386 5.54619 19.7725 5.911C19.7043 6.06053 19.5875 6.19137 19.4725 6.30867C18.4725 7.33025 17.4634 8.34281 16.4702 9.37148C16.3631 9.48234 16.2803 9.67893 16.2785 9.83684C16.2639 11.3193 16.2694 12.8017 16.2706 14.2841C16.2706 14.3724 16.2834 14.4613 16.2919 14.5754C16.3527 14.5335 16.3807 14.52 16.4014 14.4987C18.3624 12.4285 20.3239 10.3589 22.2781 8.28094C22.3572 8.19715 22.3956 8.0373 22.3974 7.91162C22.4102 7.12787 22.4047 6.34348 22.4108 5.55908C22.4126 5.31287 22.4065 5.06215 22.4473 4.82174C22.5143 4.42729 22.8825 4.12307 23.2257 4.14047C23.5738 4.15787 23.9208 4.49432 23.9682 4.87523C23.9865 5.02348 23.978 5.17559 23.9786 5.32576C23.9798 5.69314 23.9786 6.06117 23.9786 6.42855C24.5239 5.94645 24.9907 5.43984 25.466 4.94227C25.8312 4.55941 26.3114 4.53943 26.6309 4.8791C26.9443 5.21232 26.9206 5.73311 26.5651 6.11531C26.1239 6.58969 25.676 7.05762 25.2329 7.52941C25.183 7.58291 25.1441 7.64736 25.0698 7.74727C25.5616 7.74727 25.9973 7.73889 26.4331 7.75178C26.5913 7.75629 26.7617 7.78207 26.9017 7.85297C27.2443 8.02635 27.4056 8.41758 27.3229 8.79527C27.2456 9.14654 26.937 9.42434 26.57 9.42627C25.6169 9.43143 24.6633 9.41144 23.7102 9.42176C23.5684 9.42305 23.3907 9.49266 23.2915 9.59707C21.4194 11.5635 19.5558 13.5403 17.6917 15.5158C17.6406 15.5699 17.6004 15.6357 17.531 15.7279C18.988 15.7279 20.3975 15.7201 21.8065 15.7343C22.0809 15.7369 22.2733 15.6608 22.4656 15.4462C23.4156 14.3872 24.3833 13.3457 25.3425 12.2964C25.5956 12.0192 25.8987 11.949 26.231 12.0721C26.5134 12.1771 26.665 12.4182 26.7045 12.7282C26.7422 13.0266 26.6315 13.2696 26.4355 13.4817C25.8184 14.15 25.2055 14.8223 24.5927 15.4939C24.5367 15.5551 24.4886 15.6254 24.4089 15.7279C24.8537 15.7279 25.2396 15.7111 25.6236 15.7337C25.8902 15.7498 26.0746 15.6544 26.2572 15.4526C26.8542 14.7946 27.4634 14.1481 28.0806 13.5107C28.3977 13.1832 28.8845 13.1936 29.1803 13.5016C29.4737 13.8071 29.4798 14.317 29.1876 14.6682C29.0738 14.8049 28.946 14.9286 28.8255 15.0588C28.6338 15.2664 28.4427 15.4739 28.2084 15.7279C28.873 15.7279 29.4621 15.753 30.0482 15.7201C30.5406 15.693 30.9179 15.8387 31.1595 16.3079V16.7591C30.9538 17.2386 30.5996 17.4307 30.1091 17.3927C29.8364 17.3721 29.5619 17.3888 29.288 17.3888C28.9192 17.3888 28.551 17.3888 28.1822 17.3888C28.1615 17.4262 28.1408 17.4636 28.1201 17.501C28.453 17.8271 28.7945 18.1436 29.114 18.4832C29.2302 18.607 29.3313 18.7739 29.3763 18.9402C29.4761 19.3089 29.3142 19.6775 29.0184 19.8503C28.7153 20.0275 28.3338 19.9792 28.0678 19.7001C27.3983 18.9969 26.7386 18.2828 26.0722 17.5764C26.0034 17.5035 25.9152 17.4036 25.8336 17.4004C25.3747 17.3837 24.9146 17.392 24.3906 17.392C24.5099 17.5248 24.5756 17.6021 24.6456 17.6743C25.2402 18.2899 25.8348 18.906 26.4313 19.519C26.6327 19.7259 26.7404 19.9702 26.7051 20.2686C26.6686 20.5805 26.5171 20.8196 26.2359 20.9273C25.9042 21.0543 25.6042 20.9795 25.3455 20.7107C24.3389 19.6659 23.3322 18.6205 22.3134 17.5886C22.2045 17.4778 22.0189 17.3978 21.8679 17.3959C20.56 17.3811 19.2515 17.3869 17.943 17.3882C17.8566 17.3882 17.7696 17.3978 17.6314 17.4062C17.7093 17.4964 17.7525 17.5499 17.7988 17.5989C19.6916 19.6041 21.5831 21.6105 23.4832 23.6079C23.5763 23.7059 23.743 23.7697 23.8769 23.7716C24.7387 23.7871 25.6011 23.7768 26.4629 23.7838C26.9997 23.7884 27.3429 24.1106 27.3417 24.5902C27.3411 25.0368 27.0094 25.3881 26.5615 25.3978C26.1233 25.4074 25.6851 25.3997 25.1629 25.3997C25.6967 25.9649 26.1647 26.4548 26.6266 26.9498C26.9948 27.3442 27.0222 27.8708 26.699 28.2086C26.3856 28.536 25.8939 28.507 25.5317 28.1299C25.1124 27.6936 24.6992 27.2495 24.2829 26.8099C24.2019 26.7242 24.1161 26.6443 23.978 26.5076C23.978 27.1174 23.9853 27.6407 23.9755 28.1634C23.9682 28.5224 23.7759 28.7732 23.4759 28.9066C23.1929 29.0323 22.9147 28.9685 22.6828 28.7512C22.4723 28.5534 22.4011 28.2949 22.4029 27.9997C22.4096 27.0548 22.4017 26.1093 22.4138 25.1644C22.4169 24.944 22.3603 24.7861 22.21 24.6288C20.3099 22.6314 18.4159 20.6269 16.5201 18.6257C16.4586 18.5606 16.3911 18.5026 16.2949 18.4123C16.2834 18.5174 16.2706 18.5773 16.2706 18.6379C16.2694 20.1629 16.2645 21.6878 16.2785 23.2128C16.2797 23.3488 16.3753 23.5125 16.4732 23.6137C17.5018 24.681 18.5425 25.7355 19.5735 26.8003C19.9137 27.1515 19.9368 27.6581 19.6496 27.9862C19.3562 28.3213 18.8505 28.3291 18.5017 27.9933C18.2619 27.7619 18.0337 27.517 17.8 27.2791C17.3113 26.7829 16.8226 26.2872 16.27 25.7271C16.27 26.2447 16.2803 26.6804 16.2657 27.1148C16.2584 27.3365 16.3217 27.4951 16.4732 27.6504C17.1086 28.2988 17.7306 28.9614 18.3617 29.6143C18.5614 29.8205 18.6813 30.059 18.6581 30.3561C18.6338 30.6687 18.4908 30.9143 18.209 31.0271C17.9071 31.1483 17.6059 31.1251 17.3575 30.8814C17.0106 30.5405 16.6741 30.1879 16.287 29.7935C16.2791 29.9604 16.27 30.0629 16.27 30.1654C16.2688 30.7345 16.2456 31.3055 16.2761 31.8727C16.3041 32.3922 16.144 32.768 15.7003 33H15.2743C14.8343 32.7622 14.6815 32.3825 14.7077 31.8656C14.7381 31.2553 14.7156 30.6417 14.7138 30.0294C14.7138 29.9649 14.6949 29.9011 14.6785 29.7947C14.345 30.1473 14.0504 30.4715 13.7412 30.7796C13.6262 30.8937 13.488 31.0052 13.3414 31.0554C12.9914 31.1753 12.6506 31.0271 12.4686 30.7171C12.2757 30.3884 12.311 29.9752 12.5843 29.6813C13.2312 28.9846 13.8891 28.2988 14.5397 27.6053C14.6085 27.5324 14.7016 27.4383 14.7046 27.3513C14.7205 26.8654 14.7125 26.3781 14.7125 25.8915C14.6846 25.8779 14.6572 25.8644 14.6292 25.8509C14.5598 25.9411 14.4959 26.0378 14.4192 26.1216C13.8489 26.748 13.2817 27.3778 12.7023 27.9946C12.4248 28.2898 12.0335 28.3259 11.7273 28.1183C11.423 27.9121 11.2837 27.4925 11.4273 27.129C11.4875 26.9762 11.5965 26.837 11.7066 26.7158C12.6494 25.6794 13.6006 24.6514 14.5391 23.6105C14.6322 23.5073 14.7059 23.3365 14.7071 23.1967C14.7192 21.7787 14.715 20.3614 14.7132 18.9434C14.7132 18.8674 14.6973 18.792 14.6852 18.683C14.6188 18.7397 14.5854 18.7629 14.5574 18.7926C12.7242 20.7404 10.8899 22.6862 9.0653 24.6424C8.97461 24.7397 8.92897 24.9247 8.92836 25.069C8.9241 26.0462 8.94357 27.0239 8.94357 28.001C8.94357 28.5927 8.50051 28.9556 7.96859 28.8189C7.5943 28.7222 7.38737 28.4142 7.38068 27.923C7.37459 27.4577 7.37946 26.9917 7.37946 26.4509C7.23887 26.5921 7.15853 26.6688 7.08185 26.75C6.62174 27.2353 6.16894 27.7277 5.70153 28.204C5.4307 28.4805 5.00894 28.5102 4.71863 28.3052C4.41616 28.0919 4.28835 27.6762 4.44111 27.3094C4.5044 27.158 4.61821 27.0233 4.72959 26.9034C5.20248 26.3948 5.68327 25.894 6.22006 25.3288C5.68753 25.3288 5.24447 25.3365 4.80201 25.3262C4.45328 25.3185 4.21045 25.1238 4.07351 24.79C3.9451 24.4793 4.02543 24.1963 4.22566 23.954C4.4119 23.7297 4.66325 23.6653 4.94017 23.6678C5.80195 23.6756 6.66435 23.6827 7.52613 23.6704C7.66003 23.6685 7.828 23.6021 7.92173 23.5035C9.79319 21.5357 11.6561 19.5596 13.5197 17.5841C13.5641 17.5371 13.5958 17.4771 13.6578 17.3882C12.2033 17.3882 10.7943 17.3817 9.38603 17.3972C9.22658 17.3991 9.03182 17.4855 8.91619 17.6021C7.91929 18.6121 6.93578 19.6356 5.95228 20.6598C5.74718 20.8731 5.52321 21.0175 5.22499 20.9808C4.91704 20.9434 4.68273 20.7784 4.58291 20.4671C4.47458 20.1294 4.53179 19.811 4.78375 19.5506C5.38567 18.9273 5.98758 18.304 6.58827 17.6795C6.66313 17.6021 6.73129 17.5177 6.8451 17.3875C6.39352 17.3875 6.0101 17.3998 5.62789 17.3824C5.41549 17.3727 5.27125 17.4507 5.1264 17.6092C4.48432 18.3111 3.83129 19.0021 3.18069 19.6956C2.93298 19.9592 2.63051 20.0127 2.31282 19.8909C2.03225 19.7832 1.88131 19.5415 1.84541 19.2302C1.81072 18.9325 1.91844 18.6895 2.11806 18.4806C2.44427 18.139 2.76379 17.791 3.14113 17.3875C2.3828 17.3875 1.71395 17.3682 1.04752 17.394C0.556987 17.4127 0.202779 17.2373 -0.00292969 16.7578V16.3066C0.238687 15.8374 0.616022 15.693 1.10838 15.7188C1.72916 15.7511 2.35298 15.7266 2.97559 15.7266C2.98898 15.6982 3.00237 15.6698 3.01636 15.6421C2.72423 15.3482 2.42723 15.0608 2.14241 14.7598C1.76324 14.3589 1.73525 13.8484 2.06024 13.5049C2.3828 13.1639 2.87212 13.1981 3.24824 13.5945C3.85867 14.239 4.46485 14.888 5.07589 15.5326C5.14527 15.606 5.22986 15.7137 5.3102 15.7162C5.80013 15.7337 6.29127 15.7246 6.84815 15.7246C6.65826 15.5145 6.52011 15.3611 6.38134 15.2084C5.83969 14.6122 5.29742 14.0173 4.75698 13.4204C4.52266 13.1613 4.47763 12.8494 4.58718 12.5252C4.69186 12.2152 4.92434 12.0508 5.23351 12.0186C5.52991 11.9883 5.7557 12.1281 5.95532 12.3492C6.91692 13.4114 7.87852 14.4736 8.85289 15.5229C8.95696 15.635 9.14381 15.7162 9.29291 15.7182C10.6927 15.733 12.0925 15.7272 13.4917 15.7266C13.5769 15.7266 13.6615 15.7182 13.7686 15.7124C13.7315 15.6544 13.7193 15.626 13.6992 15.6047C11.7992 13.5912 9.9003 11.5771 7.99354 9.57064C7.91321 9.48621 7.76349 9.43916 7.64481 9.43658C6.98569 9.42434 6.32657 9.434 5.66684 9.43143C5.33272 9.43014 4.99677 9.43594 4.66447 9.40564C4.35164 9.37728 4.09968 9.11109 4.03091 8.79592C3.9664 8.49943 4.08082 8.14816 4.35043 7.99025C4.52753 7.88713 4.74602 7.82848 4.9493 7.81623C5.38567 7.79045 5.82447 7.8085 6.26206 7.8085C6.26997 7.78078 6.27849 7.75242 6.2864 7.72471C5.75266 7.16783 5.211 6.61934 4.68759 6.05215C4.36321 5.70088 4.37416 5.18396 4.68151 4.8675C4.98216 4.55812 5.44957 4.55877 5.78187 4.88168C5.99062 5.08471 6.19024 5.29998 6.3856 5.51783C6.68869 5.85492 6.98447 6.1991 7.30582 6.56584C7.35755 6.45305 7.37276 6.435 7.37276 6.41695C7.37581 6.03023 7.3685 5.64352 7.38372 5.25744C7.39041 5.07891 7.40867 4.88748 7.47683 4.72764C7.62716 4.3725 8.00024 4.18881 8.33132 4.26937C8.67153 4.35187 8.93688 4.69219 8.93871 5.09566C8.94357 6.04055 8.92471 6.98607 8.93871 7.93096C8.94114 8.10047 9.01843 8.30994 9.12981 8.42918C10.9039 10.3331 12.6883 12.2255 14.4715 14.1191C14.5312 14.1823 14.5993 14.2364 14.7132 14.3402C14.7132 14.17 14.7132 14.0663 14.7132 13.9625C14.7132 12.598 14.7083 11.2342 14.718 9.86971C14.7199 9.64541 14.6505 9.49201 14.5056 9.33668C13.5665 8.32605 12.6323 7.31027 11.7048 6.2874C11.5758 6.14496 11.4541 5.96772 11.3987 5.78338C11.2928 5.42889 11.4602 5.04475 11.7474 4.86621C12.0505 4.67801 12.4467 4.73279 12.723 5.02863C13.3079 5.65512 13.8818 6.29256 14.4618 6.92355C14.5263 6.99381 14.5987 7.05633 14.7132 7.16654C14.7132 6.67348 14.7284 6.25582 14.7052 5.84074C14.6967 5.68863 14.6304 5.50623 14.5318 5.39859C13.9177 4.72764 13.2854 4.07537 12.664 3.41215C12.566 3.30709 12.4686 3.18785 12.412 3.05572C12.2599 2.69865 12.3804 2.27197 12.6749 2.05154C12.9652 1.83434 13.384 1.85496 13.6536 2.13018C13.992 2.47564 14.3127 2.84109 14.6407 3.19816C14.7132 2.47951 14.7363 1.80598 14.7059 1.13502C14.6827 0.618105 14.8331 0.238477 15.2731 0.00128906L15.2761 0Z" fill="#204A8F"/>
</g>
<defs>
<clipPath id="clip0_1235_4949">
<rect width="31.1606" height="33" fill="white"/>
</clipPath>
</defs>
</svg>
