<svg width="110" height="30" viewBox="0 0 110 30" fill="none" xmlns="http://www.w3.org/2000/svg">
<path d="M50.625 28V3.5H54.3V24.5H66.2V28H50.625ZM69.5264 28V3.5H80.5514C82.6047 3.5 84.308 4.235 85.6614 5.705C87.038 7.15167 87.7264 9.04167 87.7264 11.375C87.7264 13.7083 87.038 15.61 85.6614 17.08C84.308 18.5267 82.6047 19.25 80.5514 19.25H79.6764L88.4264 28H83.7014L74.9514 19.25H73.2014V28H69.5264ZM73.2014 15.75H80.3764C81.3797 15.75 82.243 15.3417 82.9664 14.525C83.6897 13.7083 84.0514 12.6583 84.0514 11.375C84.0514 10.0917 83.6897 9.04167 82.9664 8.225C82.243 7.40833 81.3797 7 80.3764 7H73.2014V15.75ZM92.115 28V3.5H95.615V12.25H95.79C96.1867 11.8533 96.6184 11.5033 97.085 11.2C98.205 10.5 99.465 10.15 100.865 10.15C102.988 10.15 104.68 10.815 105.94 12.145C107.223 13.4517 107.865 15.2367 107.865 17.5V28H104.365V17.5C104.365 16.3567 103.957 15.3767 103.14 14.56C102.347 13.72 101.355 13.3 100.165 13.3C98.8817 13.3 97.7967 13.72 96.91 14.56C96.0467 15.3767 95.615 16.3567 95.615 17.5V28H92.115Z" fill="#FF5912"/>
<g clip-path="url(#clip0_1235_4948)">
<path d="M3.10536 7.22263H0C1.57711 5.11754 3.10682 3.07518 4.66205 1C6.21218 3.06789 7.74043 5.10587 9.31535 7.20731H6.15239C6.27415 7.62964 6.31644 8.01477 6.48925 8.32696C6.85235 8.98416 7.26795 9.61365 7.69158 10.2351C8.22676 11.0207 8.751 11.8099 9.04338 12.7231C9.61137 14.4956 9.31535 16.1579 8.35727 17.7174C7.97594 18.3382 7.54429 18.9275 7.13671 19.5315C7.01422 19.7124 6.8961 19.8969 6.77579 20.0793C6.04375 21.1931 6.03792 22.3106 6.77361 23.4229C7.2891 24.2034 7.83084 24.9663 8.33394 25.7548C8.89027 26.6272 9.24171 27.5791 9.31024 28.6222C9.31827 28.7403 9.31097 28.8592 9.31097 28.9985H6.23186C6.1852 28.1874 5.80022 27.5193 5.35545 26.876C5.03026 26.4062 4.69632 25.9423 4.37988 25.4675C2.67299 22.905 2.67371 20.595 4.38352 18.0347C4.78163 17.4388 5.19431 16.8516 5.59971 16.2608C6.40685 15.0857 6.41196 13.9084 5.60846 12.7297C5.41013 12.4387 5.22202 12.1403 5.01422 11.8559C4.00875 10.478 3.10755 9.0571 3.10536 7.22117V7.22263Z" fill="#FF5912"/>
<path d="M12.4082 7.2219H9.33496C10.9113 5.11754 12.4418 3.07518 13.997 1C15.5479 3.06862 17.0754 5.1066 18.6503 7.20804H15.4866C15.6084 7.63037 15.6507 8.0155 15.8242 8.32842C16.1873 8.98562 16.6029 9.6151 17.0265 10.2366C17.5617 11.0221 18.086 11.8114 18.3783 12.7246C18.9463 14.4971 18.6496 16.1594 17.6908 17.7189C17.3094 18.3396 16.8778 18.929 16.4702 19.5329C16.3477 19.7138 16.2296 19.8984 16.11 20.0807C15.378 21.1953 15.3736 22.312 16.1093 23.4244C16.6255 24.2048 17.1665 24.9678 17.6696 25.757C18.226 26.6294 18.5774 27.5813 18.6452 28.6244C18.6532 28.7425 18.6459 28.8614 18.6459 29H15.5668C15.5202 28.1874 15.1345 27.5193 14.6897 26.8759C14.3645 26.4062 14.0305 25.9423 13.7141 25.4675C12.0079 22.905 12.0094 20.5942 13.7192 18.0347C14.1173 17.4388 14.53 16.8523 14.9354 16.2608C15.7425 15.0857 15.7462 13.9084 14.9427 12.7297C14.4702 12.0368 13.9875 11.3511 13.5304 10.6487C12.8968 9.67492 12.4972 8.61654 12.4432 7.44291C12.4403 7.38383 12.425 7.32475 12.409 7.22117L12.4082 7.2219Z" fill="#FF5912"/>
<path d="M21.775 7.22336H18.6689C20.2461 5.11754 21.7758 3.07518 23.331 1C24.8797 3.06643 26.4079 5.10441 27.9828 7.20512H24.8221C24.9431 7.62745 24.9847 8.01258 25.1567 8.32477C25.5198 8.98197 25.9354 9.61219 26.3583 10.2329C26.8935 11.0185 27.4178 11.807 27.7109 12.7209C28.2803 14.4927 27.9843 16.1558 27.0269 17.7152C26.6456 18.336 26.214 18.9253 25.8064 19.5293C25.6912 19.7007 25.5789 19.8743 25.4644 20.0457C24.7083 21.18 24.6996 22.3164 25.4601 23.4521C25.9734 24.2194 26.5049 24.9751 27.0007 25.7534C27.5563 26.6258 27.9092 27.5776 27.9777 28.6207C27.9858 28.7389 27.9785 28.8585 27.9785 28.9993H24.9001C24.852 28.1648 24.4407 27.4828 23.9843 26.8191C23.5716 26.218 23.1407 25.6279 22.7608 25.0072C21.4389 22.8445 21.4367 20.6657 22.7608 18.503C23.1407 17.8823 23.5753 17.2936 23.9836 16.6904C24.0791 16.5496 24.1695 16.4052 24.2657 16.2652C25.0729 15.0901 25.0809 13.9135 24.2774 12.7333C24.0725 12.4321 23.8757 12.1243 23.6613 11.8296C22.6646 10.4598 21.775 9.04616 21.7728 7.22336H21.775Z" fill="#FF5912"/>
</g>
<defs>
<clipPath id="clip0_1235_4948">
<rect width="28" height="28" fill="white" transform="translate(0 1)"/>
</clipPath>
</defs>
</svg>
