<svg width="121" height="26" viewBox="0 0 121 26" fill="none" xmlns="http://www.w3.org/2000/svg">
<path d="M46.625 25V0.499998H50.3V21.5H62.2V25H46.625ZM65.5264 25V0.499998H76.5514C78.6047 0.499998 80.308 1.235 81.6614 2.705C83.038 4.15167 83.7264 6.04167 83.7264 8.375C83.7264 10.7083 83.038 12.61 81.6614 14.08C80.308 15.5267 78.6047 16.25 76.5514 16.25H75.6764L84.4264 25H79.7014L70.9514 16.25H69.2014V25H65.5264ZM69.2014 12.75H76.3764C77.3797 12.75 78.243 12.3417 78.9664 11.525C79.6897 10.7083 80.0514 9.65833 80.0514 8.375C80.0514 7.09167 79.6897 6.04167 78.9664 5.225C78.243 4.40833 77.3797 4 76.3764 4H69.2014V12.75ZM88.29 25V0.499998H91.965V25H88.29ZM115.061 16.6H118.911C118.678 17.6267 118.281 18.63 117.721 19.61C117.184 20.59 116.473 21.5233 115.586 22.41C114.699 23.2967 113.591 24.0083 112.261 24.545C110.931 25.0817 109.473 25.35 107.886 25.35C104.596 25.35 101.819 24.1717 99.5559 21.815C97.2926 19.4583 96.1609 16.4367 96.1609 12.75C96.1609 9.06333 97.2926 6.04167 99.5559 3.685C101.819 1.32833 104.596 0.149999 107.886 0.149999C110.779 0.149999 113.194 0.989999 115.131 2.67C117.091 4.32667 118.351 6.345 118.911 8.725H115.061C114.454 7.09167 113.509 5.84333 112.226 4.98C110.943 4.09333 109.496 3.65 107.886 3.65C105.553 3.65 103.628 4.47833 102.111 6.135C100.594 7.79167 99.8359 9.99667 99.8359 12.75C99.8359 15.5033 100.594 17.7083 102.111 19.365C103.628 21.0217 105.553 21.85 107.886 21.85C109.753 21.85 111.293 21.3483 112.506 20.345C113.743 19.3183 114.594 18.07 115.061 16.6Z" fill="#1A1919"/>
<g clip-path="url(#clip0_1235_4946)">
<path d="M23.1165 19.4441H26C24.5355 21.3236 23.1151 23.1472 21.671 25C20.2316 23.1537 18.8125 21.334 17.35 19.4578H20.2871C20.174 19.0807 20.1347 18.7368 19.9743 18.4581C19.6371 17.8713 19.2512 17.3092 18.8578 16.7544C18.3609 16.053 17.8741 15.3483 17.6026 14.5329C17.0752 12.9503 17.35 11.4661 18.2397 10.0737C18.5938 9.5195 18.9946 8.99328 19.3731 8.45403C19.4868 8.29252 19.5965 8.12775 19.7082 7.96493C20.3879 6.97046 20.3934 5.97272 19.7102 4.97955C19.2315 4.2827 18.7285 3.60148 18.2613 2.89746C17.7448 2.11855 17.4184 1.26865 17.3548 0.33735C17.3473 0.231845 17.3541 0.125689 17.3541 0.001298H20.2133C20.2566 0.725502 20.6141 1.32206 21.0271 1.89647C21.329 2.31588 21.6391 2.73009 21.933 3.15406C23.5179 5.44194 23.5173 7.50449 21.9296 9.79042C21.5599 10.3225 21.1767 10.8468 20.8003 11.3743C20.0508 12.4235 20.046 13.4746 20.7921 14.5271C20.9763 14.7869 21.151 15.0533 21.3439 15.3073C22.2776 16.5375 23.1144 17.8062 23.1165 19.4454V19.4441Z" fill="#1A1919"/>
<path d="M14.4783 19.4447H17.332C15.8683 21.3236 14.4471 23.1472 13.003 25C11.5629 23.153 10.1445 21.3334 8.68206 19.4571H11.6198C11.5067 19.08 11.4674 18.7362 11.3063 18.4568C10.9691 17.87 10.5832 17.3079 10.1899 16.7531C9.6929 16.0517 9.2061 15.347 8.9346 14.5316C8.40718 12.949 8.68274 11.4648 9.57306 10.0724C9.92716 9.5182 10.328 8.99198 10.7064 8.45273C10.8202 8.29122 10.9299 8.12645 11.0409 7.96363C11.7207 6.9685 11.7247 5.97142 11.0416 4.97825C10.5622 4.2814 10.0599 3.60018 9.59269 2.89551C9.07611 2.1166 8.74977 1.2667 8.6868 0.335399C8.67936 0.229894 8.68613 0.123739 8.68613 -9.47929e-07H11.5453C11.5886 0.725505 11.9468 1.32206 12.3598 1.89647C12.6618 2.31589 12.9718 2.73009 13.2657 3.15406C14.85 5.44195 14.8486 7.50514 13.2609 9.79042C12.8913 10.3225 12.5081 10.8461 12.1316 11.3743C11.3821 12.4235 11.3787 13.4746 12.1249 14.5271C12.5636 15.1458 13.0118 15.7579 13.4363 16.3851C14.0247 17.2545 14.3957 18.1995 14.4458 19.2474C14.4485 19.3002 14.4627 19.3529 14.4776 19.4454L14.4783 19.4447Z" fill="#1A1919"/>
<path d="M5.77984 19.4434H8.66406C7.19961 21.3236 5.77916 23.1472 4.33502 25C2.89697 23.155 1.47787 21.3353 0.0154494 19.4597H2.95045C2.83806 19.0826 2.79947 18.7388 2.63969 18.46C2.30252 17.8732 1.9166 17.3105 1.52391 16.7563C1.02696 16.0549 0.540162 15.3509 0.267989 14.5349C-0.260785 12.953 0.0140964 11.4681 0.90306 10.0757C1.25716 9.52145 1.65797 8.99523 2.03644 8.45599C2.14341 8.30294 2.24768 8.14794 2.35397 7.99489C3.05607 6.98218 3.0642 5.96751 2.35804 4.9535C1.88139 4.26837 1.38783 3.59366 0.927433 2.89877C0.411523 2.11986 0.0838317 1.26996 0.0201892 0.338654C0.0127417 0.23315 0.0195115 0.126345 0.0195115 0.00065095H2.87801C2.92269 0.745695 3.30455 1.35462 3.72838 1.94727C4.11159 2.48391 4.51173 3.01078 4.86447 3.56501C6.09196 5.496 6.09399 7.44132 4.86447 9.37231C4.51173 9.92654 4.10821 10.4521 3.72906 10.9907C3.64037 11.1164 3.55641 11.2453 3.46704 11.3704C2.71755 12.4196 2.7101 13.4701 3.45621 14.5238C3.64646 14.7928 3.82926 15.0676 4.02831 15.3307C4.95384 16.5538 5.77984 17.8159 5.78187 19.4434H5.77984Z" fill="#1A1919"/>
</g>
<defs>
<clipPath id="clip0_1235_4946">
<rect width="26" height="25" fill="white" transform="matrix(-1 0 0 -1 26 25)"/>
</clipPath>
</defs>
</svg>
