<svg width="18" height="18" viewBox="0 0 18 18" fill="none" xmlns="http://www.w3.org/2000/svg">
<g clip-path="url(#clip0_850_12651)">
<path d="M8.99969 15.9022C6.81692 15.9022 4.63414 15.9043 2.45106 15.9015C0.68801 15.8994 -0.233729 14.8271 0.0510208 13.0756C0.312658 11.4661 0.594326 9.8598 0.896026 8.25748C1.14225 6.94838 1.8871 6.32541 3.20577 6.31674C3.60054 6.31426 3.79715 6.22819 3.92935 5.8074C4.64524 3.53474 6.63017 2.1021 9.00185 2.09312C11.3742 2.08414 13.3736 3.5109 14.0944 5.77551C14.2318 6.20744 14.4321 6.31891 14.8614 6.32015C16.1585 6.32386 16.9314 7.01712 17.1437 8.29526C17.4177 9.94619 17.6957 11.5965 17.9635 13.2484C18.2029 14.7262 17.243 15.8861 15.7412 15.8975C13.4944 15.9149 11.2472 15.9022 9 15.9022H8.99969ZM12.866 15.3074V6.9103H5.15711V15.3074H12.8657H12.866ZM4.45972 6.24615H13.6448C13.0534 3.94655 10.9911 2.48851 8.67519 2.68234C6.49734 2.86471 4.60302 4.45991 4.46002 6.24615H4.45972ZM15.1533 15.2705C16.6063 15.4702 17.5755 14.7835 17.4239 13.593C17.1881 11.7433 16.8507 9.90501 16.5074 8.0714C16.3711 7.34315 15.8858 6.99792 15.1533 6.93785V15.2705ZM2.86123 6.91308C2.03626 7.05954 1.61961 7.4379 1.47292 8.22342C1.16629 9.86723 0.858429 11.5113 0.593402 13.1623C0.343167 14.7209 1.26614 15.5656 2.86123 15.2504V6.91308ZM4.51426 15.299V6.89357H3.48127V15.299H4.51426ZM14.5301 15.3012V6.89729H13.5052V15.3012H14.5301Z" fill="#204A8F"/>
</g>
<defs>
<clipPath id="clip0_850_12651">
<rect width="18" height="18" fill="white"/>
</clipPath>
</defs>
</svg>
