<svg width="18" height="20" viewBox="0 0 18 20" fill="none" xmlns="http://www.w3.org/2000/svg">
<path d="M4.51006 14.6773C6.24946 16.4134 8.26099 16.9147 10.5997 16.2403C10.6829 16.4805 10.7675 16.7244 10.8603 16.9924C9.58193 17.4343 8.30643 17.4727 7.02519 17.1256C5.74969 16.78 4.67697 16.0893 3.79985 15.0857C3.43638 15.297 3.08869 15.4988 2.72761 15.7092C3.95433 17.1865 5.479 18.1058 7.33032 18.45C9.1802 18.7936 10.933 18.4773 12.593 17.5455C12.7298 17.7828 12.856 18.0013 12.999 18.2487C11.1463 19.3008 9.18402 19.6411 7.11175 19.2404C5.04283 18.8401 3.3503 17.7832 2.01693 16.121C1.67258 16.3204 1.33733 16.5155 1.00112 16.7086C0.628081 16.9229 0.419563 16.8596 0.239261 16.4718C-0.0692118 15.8085 -0.0515164 15.123 0.134524 14.4362C0.213436 14.1452 0.320086 13.8586 0.446823 13.5854C0.522387 13.4224 0.540082 13.2844 0.495605 13.1109C-0.271513 10.1233 0.355955 7.44823 2.34118 5.10821C3.23695 4.05276 4.36467 3.30023 5.68704 2.79168C5.78269 3.04044 5.87499 3.28106 5.96156 3.50634C2.20153 5.2961 0.598429 8.24006 1.10155 12.3373C1.12451 12.3536 1.14746 12.3699 1.1709 12.3857C1.21442 12.3478 1.26033 12.3119 1.30098 12.2711C1.56641 12.0075 1.83854 11.7501 2.09106 11.4745C2.16566 11.393 2.22736 11.2588 2.22305 11.1519C2.14127 9.03812 2.89548 7.28095 4.45936 5.87751C4.80084 5.57123 5.19635 5.32534 5.59856 5.02816C5.74299 5.29179 5.86686 5.51803 6.00269 5.76487C4.12411 6.8927 3.11452 8.54203 3.01887 10.7852C3.11786 10.7478 3.1786 10.7325 3.23121 10.7037C4.0452 10.2594 4.91466 9.99867 5.83577 9.91479C5.98499 9.90137 6.05099 9.84242 6.10694 9.70677C6.34511 9.12776 6.73537 8.67001 7.27866 8.36325C7.45992 8.26067 7.50631 8.14612 7.50536 7.94912C7.49866 5.7203 7.50105 3.49148 7.50105 1.26266C7.50105 1.17494 7.49675 1.08627 7.50679 0.999512C7.53883 0.725343 7.69235 0.590655 7.9707 0.596886C8.63116 0.611745 9.18594 0.892624 9.66993 1.3173C10.657 2.1839 11.185 3.31269 11.4399 4.57809C11.7274 6.00549 11.559 7.38928 10.9598 8.71554C10.8876 8.87564 10.8957 8.98252 11.0043 9.12057C11.3983 9.62097 11.5672 10.2072 11.5748 10.8356C11.5767 11.011 11.6422 11.0862 11.7781 11.1649C13.7203 12.2874 15.6596 13.4148 17.5998 14.5412C17.6548 14.5733 17.7113 14.603 17.7644 14.6375C18.0236 14.8077 18.0695 15.0257 17.8992 15.2908C17.4568 15.9791 16.7882 16.3348 16.0245 16.5044C14.3735 16.8716 12.8384 16.5279 11.4065 15.6608C10.613 15.1806 9.94684 14.5589 9.41693 13.7944C9.33037 13.6698 9.24237 13.6166 9.08311 13.6396C8.42886 13.7335 7.82292 13.5859 7.25475 13.2518C7.18875 13.213 7.0668 13.2 7.00463 13.2355C6.18155 13.7023 5.3647 14.1802 4.51006 14.6763V14.6773ZM10.2453 8.3412C10.7388 7.20953 10.8837 6.01747 10.6551 4.78419C10.4605 3.73449 10.0444 2.79072 9.26437 2.03915C9.00229 1.78655 8.70768 1.57996 8.33369 1.48122V7.93522C8.67325 7.96637 9.00133 7.96637 9.31459 8.033C9.62784 8.09962 9.92723 8.23287 10.2453 8.3412ZM10.0965 13.3184C10.1128 13.3654 10.1142 13.3831 10.1233 13.3946C11.4792 15.1408 13.2401 15.9849 15.4573 15.7874C16.0183 15.7375 16.5195 15.5132 16.9752 15.1269C15.0981 14.0384 13.2453 12.9637 11.3739 11.8786C11.0966 12.5079 10.6814 12.9886 10.0965 13.3184ZM8.72634 8.7769C7.60675 8.7745 6.68754 9.69335 6.68898 10.8145C6.68993 11.9356 7.60388 12.8511 8.72681 12.8568C9.83827 12.8621 10.768 11.9303 10.7623 10.8164C10.756 9.68808 9.84927 8.77929 8.72681 8.7769H8.72634ZM4.01411 14.0182C4.84627 13.5351 5.66217 13.061 6.49146 12.5793C6.06103 12.0252 5.89077 11.4045 5.86782 10.7263C4.89601 10.8317 4.0232 11.1394 3.22738 11.6609C3.17478 11.6955 3.13126 11.8028 3.14178 11.8666C3.27043 12.6392 3.56407 13.3462 4.01411 14.0182ZM3.24508 14.4635C2.93804 13.7508 2.63913 13.0577 2.32253 12.3229C2.05232 12.6651 1.78067 13.0045 1.51715 13.3501C1.48511 13.3922 1.46789 13.478 1.48846 13.5236C1.71993 14.034 1.96049 14.5412 2.20679 15.0665C2.60326 14.8364 2.94426 14.6385 3.24508 14.464V14.4635ZM0.981031 14.4625C0.816991 14.9251 0.794513 15.355 0.879642 15.831C1.11351 15.6968 1.31676 15.5803 1.53102 15.4571C1.34689 15.1245 1.17281 14.8091 0.981031 14.4621V14.4625Z" fill="#204A8F"/>
<path d="M12.6104 4.05673C12.7333 3.84248 12.8595 3.62247 12.9863 3.40247C15.895 4.93388 17.9213 8.75739 17.0878 12.5378C16.8348 12.4855 16.5818 12.4337 16.3307 12.382C16.8501 8.81442 15.608 6.05932 12.6104 4.05673Z" fill="#204A8F"/>
<path d="M15.2391 10.8012H14.4313C14.3906 9.13269 13.7703 7.71248 12.5283 6.5463C12.7048 6.34739 12.876 6.1547 13.0683 5.93805C14.481 7.25904 15.197 8.86715 15.2391 10.8012Z" fill="#204A8F"/>
<path d="M10.4352 11.2587C10.4056 11.9389 9.84697 12.4709 9.18842 12.446C8.5026 12.4201 7.96409 11.8435 8.00187 11.1758C8.04061 10.4928 8.60208 9.96841 9.25872 10.0015C9.93832 10.036 10.4634 10.5978 10.4347 11.2587H10.4352ZM9.22907 11.6221C9.44715 11.6168 9.61502 11.4437 9.6155 11.2242C9.61598 10.9951 9.43615 10.8187 9.20755 10.8245C8.98947 10.8297 8.8216 11.0028 8.82112 11.2223C8.82064 11.4514 9.00046 11.6278 9.22955 11.6221H9.22907Z" fill="#204A8F"/>
</svg>
