<svg width="27" height="16" viewBox="0 0 27 16" fill="none" xmlns="http://www.w3.org/2000/svg">
<path d="M26.9943 3.31089C26.9923 3.28504 26.9899 3.26078 26.9903 3.24288C26.9915 3.02813 26.8743 2.85951 26.6691 2.77957C26.6067 2.75531 26.5444 2.72827 26.4784 2.70003C26.406 2.66862 26.3316 2.6364 26.2536 2.60658C26.0569 2.03669 25.7861 1.58491 25.425 1.2258C24.8571 0.66028 24.1345 0.301563 23.2151 0.128568C22.9347 0.0756748 22.6264 0.105104 22.3905 0.20731C21.7666 0.477342 21.1435 0.77044 20.5409 1.0536C20.3541 1.14149 20.1673 1.22898 19.9806 1.31647C19.6963 1.4493 19.4095 1.5869 19.132 1.72052L19.0288 1.77023C18.9676 1.79966 18.9064 1.8283 18.8452 1.85733C18.6525 1.9484 18.4529 2.04265 18.259 2.14963C18.2574 2.15043 18.2562 2.15122 18.2546 2.15202C17.6107 1.87562 16.9664 1.60002 16.3222 1.32442C15.3668 0.915995 14.379 0.493648 13.4096 0.0744818C13.1765 -0.0261339 12.9617 -0.0249409 12.7146 0.0788564C11.1505 0.734648 9.55767 1.3968 8.01761 2.03748L7.51012 2.24866C6.58392 2.63362 5.65773 3.01858 4.73193 3.40355C3.80213 3.78971 2.87274 4.17626 1.94334 4.56282C1.61341 4.70002 1.53423 4.82768 1.55742 5.18361L1.56022 5.22656C1.58662 5.62425 1.61341 6.03546 1.63781 6.43952C1.6506 6.6499 1.6622 6.86027 1.6738 7.07065C1.69739 7.49658 1.72219 7.93682 1.75418 8.3707C1.76738 8.54807 1.72979 8.62125 1.69139 8.66897C1.63581 8.73857 1.56542 8.80021 1.49304 8.84316C1.36267 8.92071 1.2299 8.9919 1.08953 9.06746C0.949557 9.14262 0.805189 9.22017 0.66362 9.30408C0.486459 9.40907 0.329693 9.53315 0.177726 9.65326L0.169728 9.65962C0.0397565 9.76262 -0.00303407 9.92925 0.000165226 10.0505C0.00296461 10.1539 0.0105629 10.255 0.0177614 10.3532C0.0229602 10.4268 0.0281591 10.496 0.0313584 10.5656C0.037757 10.7055 0.0949445 10.8984 0.330093 11.0229C0.580838 11.1557 0.852379 11.3049 1.15991 11.4791C1.36467 11.5948 1.58582 11.6019 1.79897 11.4997C1.92414 11.4397 2.05052 11.382 2.18209 11.3228C2.45963 11.9738 2.84634 12.4331 3.36103 12.7246C3.9549 13.0611 4.57076 13.3748 5.10145 13.6429C5.47777 13.8326 5.87888 13.8437 6.26199 13.6747C6.35597 13.6333 6.45035 13.592 6.54433 13.5506C6.78188 13.4464 7.02743 13.3387 7.27137 13.2273C7.64569 13.4051 8.02721 13.5808 8.39633 13.7511C8.43152 13.7674 8.46711 13.7837 8.5023 13.8C8.43792 13.8473 8.37473 13.895 8.31155 13.9447C8.21237 14.0227 8.09359 14.179 8.08479 14.3631C8.0756 14.5524 8.08479 14.7361 8.10199 14.9541C8.11199 15.0829 8.18877 15.2508 8.33714 15.3355C8.60708 15.4898 8.88342 15.6417 9.15016 15.7884L9.38251 15.9161C9.48409 15.9722 9.58967 16 9.69564 16C9.79842 16 9.9016 15.9738 10.0028 15.9209C10.1092 15.8656 10.2211 15.8111 10.3291 15.7586C10.4095 15.7196 10.4899 15.6803 10.5698 15.6401C11.5344 15.1549 12.499 14.6697 13.4636 14.1845C14.405 13.7109 15.3464 13.2372 16.2878 12.764C17.1416 12.3349 17.995 11.9058 18.8488 11.4767C19.9426 10.9271 21.0368 10.3771 22.1305 9.82705C22.6008 9.59042 22.6708 9.48583 22.7072 8.96684L22.7092 8.93861C22.7328 8.60017 22.7616 8.25537 22.7888 7.92171C22.8112 7.64969 22.8344 7.36892 22.8552 7.09094C23.6998 6.67933 24.5988 6.24067 25.4974 5.79128C25.8645 5.60795 26.0801 5.29616 26.258 4.98676C26.2996 4.91438 26.322 4.84319 26.34 4.78552C26.346 4.76644 26.3544 4.74019 26.3608 4.72309C26.5212 4.66105 26.6311 4.54174 26.6635 4.3942C26.6767 4.33335 26.6839 4.23353 26.6335 4.12019C26.6759 4.05656 26.7007 3.98338 26.7063 3.90464C26.7407 3.88635 26.7779 3.86368 26.8139 3.83306C26.9155 3.74755 26.9839 3.62546 26.9963 3.50695C27.0039 3.43218 26.9983 3.36458 26.9939 3.31049L26.9943 3.31089ZM20.8148 1.62945C21.4131 1.34828 22.0317 1.05718 22.6464 0.79112C22.7636 0.740216 22.9447 0.725501 23.0967 0.754135C23.8853 0.902473 24.4988 1.20392 24.9727 1.67558C25.2506 1.95238 25.465 2.30513 25.627 2.75253L22.778 3.84379C22.532 3.06154 21.6854 2.55289 20.96 2.25144C20.6664 2.12935 20.3753 2.03231 20.117 1.95675C20.1621 1.93528 20.2073 1.9142 20.2525 1.89312C20.4401 1.80563 20.6272 1.71774 20.8144 1.62945H20.8148ZM19.1204 2.43239C19.1508 2.41807 19.1812 2.40336 19.212 2.38904C19.4499 2.43637 20.0906 2.57794 20.7228 2.84201C21.2959 3.08142 21.9646 3.46559 22.1553 3.99969L18.9168 2.52943C18.9836 2.49721 19.0516 2.465 19.1208 2.43199L19.1204 2.43239ZM4.97867 3.99054C5.90487 3.60558 6.83107 3.22061 7.75727 2.83565L8.26476 2.62447C9.80522 1.98379 11.3981 1.32124 12.9633 0.66545C13.0545 0.627272 13.0893 0.630055 13.1553 0.658291C13.7699 0.923949 14.3914 1.1908 15.0077 1.45447L21.7702 4.52424L11.6548 9.29494L2.83194 4.88296C3.54739 4.58549 4.26283 4.28801 4.97828 3.99054H4.97867ZM2.26167 8.97639C2.25567 8.98156 2.25007 8.98752 2.24407 8.99269C2.36325 8.81015 2.41204 8.59023 2.39244 8.32378C2.36085 7.89546 2.33645 7.458 2.31286 7.03486C2.30126 6.82369 2.28926 6.61212 2.27647 6.40094C2.25407 6.02791 2.22928 5.64971 2.20528 5.28144L5.83409 7.09611C5.48376 7.29177 5.03306 7.53754 4.72393 7.68389C4.68954 7.7002 4.65755 7.71929 4.62715 7.73997L2.42803 8.84793L2.43603 8.86384C2.37405 8.89327 2.31606 8.93025 2.26207 8.97599L2.26167 8.97639ZM4.17205 8.68249C4.14926 8.87935 4.14766 9.0782 4.15605 9.25556C3.97889 9.17523 3.78254 9.08615 3.56538 8.98832L4.17205 8.68249ZM4.96028 8.2852L5.00547 8.26253L5.00227 8.25657C5.46617 8.03664 6.19801 7.62424 6.52074 7.44011L7.19259 7.77616L4.79631 9.23409C4.77832 8.80737 4.83031 8.40769 4.95948 8.2856L4.96028 8.2852ZM1.52103 10.9267C1.50584 10.9338 1.49824 10.9354 1.49824 10.9358C1.49664 10.9358 1.48984 10.9334 1.47624 10.9259C1.17831 10.7572 0.913165 10.6117 0.667619 10.4809C0.66442 10.422 0.660021 10.3639 0.656022 10.3071C0.650823 10.2351 0.645624 10.1663 0.642425 10.0987C0.759599 10.0064 0.873174 9.9205 0.991148 9.85051C1.12112 9.77336 1.25349 9.70257 1.39346 9.62701C1.53383 9.55145 1.679 9.4735 1.82097 9.38919C1.91855 9.33113 2.01092 9.25835 2.09331 9.17483C1.82137 9.61667 1.90415 10.3138 1.98493 10.7131C1.82577 10.7847 1.6738 10.8531 1.52103 10.9267ZM5.39098 13.0758C4.8671 12.8113 4.25923 12.5015 3.67776 12.1718C3.25745 11.9336 2.95552 11.5506 2.72717 10.966L2.66078 10.7966C2.47202 10.0935 2.54801 9.56934 2.67678 9.46038C2.76076 9.38919 2.97191 9.41941 3.24186 9.54111C4.71073 10.2029 5.25182 10.4641 5.35459 10.5147C5.42258 10.5628 5.75251 10.8101 5.98006 11.219C6.30318 11.8 6.27879 12.4419 5.90887 13.1279C5.73491 13.1804 5.56455 13.1633 5.39098 13.0758ZM7.02463 12.6399C6.93265 12.6821 6.83947 12.7238 6.74589 12.7656C6.96944 11.9742 6.77868 11.3403 6.53993 10.9112C6.20641 10.3118 5.71291 9.98692 5.69212 9.9734L5.67692 9.96345L5.66053 9.9555C5.65093 9.95073 5.52775 9.88948 5.19863 9.73558L7.86564 8.113L9.99438 9.17762L9.8804 11.5542L7.38935 12.5989C7.26537 12.5719 7.145 12.5854 7.02423 12.6403L7.02463 12.6399ZM8.18917 12.9537L9.84721 12.2585L9.81841 12.8571C9.67405 12.9573 9.4189 13.1358 9.09497 13.3725C8.95181 13.306 8.80904 13.24 8.66587 13.1744C8.5087 13.102 8.34914 13.0285 8.18917 12.9541V12.9537ZM8.72266 14.4331C8.85143 14.3325 8.9874 14.2354 9.13097 14.1328C9.19015 14.0907 9.25094 14.0473 9.31253 14.0028L9.31493 14.0012C9.31493 14.0012 9.31573 14.0008 9.31612 14.0004L9.72723 13.7033L9.72604 13.7025C10.0808 13.4484 10.3079 13.2941 10.3107 13.2921L10.4427 13.2026L10.6206 9.48981L11.3193 9.83938C11.2885 10.3938 11.2077 11.9181 11.1957 12.7815C11.1837 13.6401 11.1261 13.6711 10.1659 14.1849L10.0992 14.2207C9.62126 14.4764 9.28373 14.7489 9.09497 15.03C8.9746 14.9632 8.85423 14.896 8.73465 14.8284C8.72465 14.6832 8.71906 14.556 8.72305 14.4331H8.72266ZM22.0709 8.89406L22.0689 8.9227C22.0625 9.01417 22.0561 9.10842 22.0473 9.14819C22.0109 9.17404 21.9146 9.22256 21.8418 9.25914C20.748 9.80915 19.6543 10.3592 18.5605 10.9088C17.7067 11.3379 16.8529 11.767 15.9991 12.1965C15.0577 12.6701 14.1163 13.1438 13.1749 13.6174C12.2103 14.1026 11.2457 14.5878 10.2811 15.073C10.2039 15.112 10.1259 15.1497 10.0484 15.1875C9.93639 15.242 9.82041 15.2981 9.70604 15.3577C9.70244 15.3597 9.69924 15.3609 9.69684 15.3621C9.69564 15.3617 9.69444 15.3609 9.69284 15.3601L9.65765 15.3406C9.75643 15.2122 9.96478 15.0153 10.4019 14.7811L10.4683 14.7453C11.4777 14.2052 11.8176 14.0235 11.8348 12.7906C11.8468 11.928 11.9292 10.389 11.9587 9.85568L22.2097 5.02096L22.2185 7.02214C22.1977 7.3045 22.1741 7.59163 22.1509 7.86961C22.1233 8.20487 22.0945 8.55205 22.0705 8.89446L22.0709 8.89406ZM25.7033 4.67019C25.555 4.9279 25.4142 5.12078 25.2102 5.22259C24.4132 5.62067 23.6158 6.01121 22.8556 6.38185L22.8528 5.7022L25.7909 4.43476C25.7613 4.49521 25.7433 4.55248 25.7293 4.59662C25.7213 4.62287 25.7101 4.65866 25.7033 4.67019ZM26.3204 3.38247C26.1776 3.45207 26.108 3.54553 26.0769 3.63501L26.0705 3.62029L22.85 5.00942L22.8476 4.49799L26.1272 3.24169C26.1588 3.25481 26.1904 3.26873 26.2232 3.28265C26.266 3.30134 26.3096 3.32003 26.3544 3.33873C26.3552 3.34708 26.3556 3.35543 26.3564 3.36338C26.3564 3.36378 26.3564 3.36458 26.3564 3.36497C26.3444 3.37054 26.3324 3.37611 26.3204 3.38168V3.38247Z" fill="#204A8F"/>
</svg>
