<svg width="16" height="16" viewBox="0 0 16 16" fill="none" xmlns="http://www.w3.org/2000/svg">
<path d="M3.30915 13.7309C3.18637 13.766 3.08898 13.7987 2.98974 13.8218C2.46587 13.9432 2.04261 13.5348 2.19446 13.0239C2.28216 12.729 2.23831 12.5051 2.04584 12.2771C1.91383 12.1207 1.83629 11.9144 1.6932 11.7722C1.55842 11.6384 1.38026 11.5 1.20209 11.4672C0.607134 11.3583 0.363427 10.8709 0.728526 10.4043C0.909461 10.1731 0.949617 9.96172 0.860073 9.69128C0.800069 9.5099 0.816686 9.30037 0.744219 9.12638C0.666215 8.93901 0.562362 8.7221 0.404044 8.61687C-0.134605 8.25781 -0.134605 7.75846 0.403583 7.39755C0.5619 7.2914 0.665753 7.07357 0.743296 6.88619C0.815301 6.71174 0.796838 6.50221 0.857765 6.3213C0.949155 6.04993 0.906691 5.84225 0.723449 5.61103C0.360196 5.15275 0.610827 4.6497 1.19609 4.53755C1.38257 4.50201 1.5635 4.34741 1.70843 4.20711C1.84413 4.07604 1.91614 3.88128 2.03938 3.73405C2.22908 3.50745 2.27708 3.28823 2.188 2.98963C2.02922 2.45704 2.45987 2.08737 3.01744 2.18844C3.22699 2.22675 3.47577 2.14183 3.68579 2.05968C3.87318 1.9863 4.05689 1.86261 4.1949 1.71631C4.34121 1.56171 4.49445 1.36649 4.53461 1.16711C4.64262 0.630371 5.14019 0.371001 5.5639 0.706983C5.83208 0.919741 6.07901 0.954816 6.38457 0.855129C6.54243 0.803901 6.72613 0.820515 6.87383 0.753596C7.05938 0.6696 7.27678 0.568529 7.38248 0.409768C7.74296 -0.13205 8.24515 -0.137126 8.60194 0.399153C8.70856 0.559298 8.91904 0.672369 9.10551 0.75175C9.29106 0.830669 9.50615 0.873589 9.70739 0.87082C9.92156 0.86759 10.1727 0.849591 10.3416 0.737904C10.8798 0.383923 11.3487 0.584682 11.465 1.22434C11.4974 1.40202 11.6414 1.57971 11.778 1.71262C11.9321 1.86261 12.1228 1.99415 12.3217 2.07399C12.5197 2.15337 12.7602 2.22306 12.9605 2.18475C13.5638 2.06891 13.9243 2.43397 13.8038 3.04271C13.766 3.23331 13.8264 3.46499 13.9053 3.65098C13.994 3.86051 14.1311 4.06219 14.2898 4.22603C14.4223 4.3631 14.6051 4.4997 14.7851 4.5334C15.4281 4.65339 15.6131 5.10567 15.2494 5.6558C15.1423 5.81825 15.1165 6.05685 15.1156 6.26038C15.1147 6.4616 15.1627 6.67667 15.2448 6.86081C15.3321 7.05649 15.4474 7.27848 15.6159 7.39155C16.1273 7.73538 16.1283 8.25135 15.6173 8.59657C15.4484 8.71056 15.3321 8.93209 15.2448 9.12777C15.1627 9.31191 15.1156 9.52698 15.117 9.7282C15.1183 9.93126 15.146 10.1689 15.254 10.33C15.6159 10.8704 15.4225 11.3495 14.7925 11.463C14.6129 11.4953 14.4283 11.6283 14.2968 11.7639C14.138 11.9273 14.0027 12.1299 13.9137 12.3399C13.8352 12.5254 13.7729 12.7567 13.8107 12.9459C13.9377 13.5781 13.5827 13.9234 12.937 13.7923C12.7584 13.7563 12.5386 13.8172 12.3642 13.8943C12.1555 13.9866 11.9515 14.1195 11.7904 14.2801C11.6474 14.4223 11.5038 14.6142 11.4678 14.8049C11.357 15.3933 10.8627 15.6333 10.3979 15.2668C10.168 15.0855 9.95156 15.0462 9.68247 15.1261C9.4983 15.1805 9.29106 15.1727 9.11843 15.2479C8.93289 15.3287 8.72149 15.4385 8.61533 15.5987C8.259 16.1359 7.75589 16.1331 7.39494 15.5931C7.28878 15.4344 7.07323 15.3273 6.88537 15.2498C6.6989 15.1727 6.48427 15.1279 6.28303 15.1316C6.06932 15.1353 5.821 15.1579 5.65114 15.2687C5.13188 15.6083 4.64723 15.4085 4.53784 14.8025C4.50599 14.6249 4.37491 14.4393 4.23875 14.3115C4.05366 14.1375 3.82241 14.0106 3.60547 13.8726C3.51132 13.8126 3.40285 13.7748 3.30961 13.7309H3.30915ZM13.0815 13.0377C13.009 12.5134 13.2458 12.0962 13.5227 11.6656C13.8043 11.2277 14.1394 10.8963 14.6383 10.7343C14.1721 10.0776 14.5271 8.44196 15.1724 7.9846C14.4602 7.36986 14.2257 6.23592 14.6005 5.2709C13.6136 4.79738 13.1244 3.99712 13.0302 2.96286C11.9502 2.86687 11.1886 2.3412 10.7145 1.38495C9.87217 1.78923 8.66287 1.54232 7.98852 0.827438C7.37879 1.52709 6.22764 1.7657 5.27912 1.40664C4.80324 2.39982 3.97934 2.85302 2.97867 2.97532C2.81019 4.01281 2.38371 4.84076 1.38811 5.29259C1.78182 6.11777 1.51273 7.41417 0.852226 7.9726C1.56812 8.80379 1.74628 9.72635 1.42134 10.7685C2.25354 11.0703 2.87389 11.9762 2.95836 13.0211C4.00058 13.1789 4.84478 13.6031 5.2985 14.6235C5.75592 14.3452 6.22995 14.4163 6.73398 14.5169C7.23801 14.6175 7.68896 14.7592 8.00421 15.1893C8.60609 14.479 9.74155 14.2437 10.7552 14.6036C11.0926 13.7161 11.952 13.13 13.0819 13.0377H13.0815Z" fill="#204A8F"/>
<path d="M7.39021 2.77927C6.72048 2.78896 5.62333 3.20063 4.65358 3.97597C4.54188 4.06551 4.38356 4.14166 4.24832 4.13981C4.16109 4.13843 4.00831 3.9852 4.006 3.89659C4.00231 3.76552 4.07108 3.59107 4.16986 3.50477C5.01545 2.76681 6.00089 2.30529 7.11235 2.15992C10.383 1.73117 13.1833 3.7166 13.8037 6.94212C14.1637 8.81495 13.6481 10.4842 12.4098 11.9316C12.257 12.1102 12.0751 12.2694 11.849 12.1166C11.5702 11.9288 11.6791 11.7105 11.8683 11.5014C12.569 10.727 12.9983 9.82243 13.1607 8.78818C13.6578 5.62081 11.1824 2.75435 7.39021 2.77927Z" fill="#204A8F"/>
<path d="M8.001 13.2622C8.3938 13.2031 8.78751 13.1473 9.17938 13.0831C9.42217 13.0434 9.66911 13.0157 9.73373 13.3268C9.79373 13.6134 9.57402 13.7006 9.34878 13.7578C6.02734 14.5992 2.52774 12.215 2.15894 8.81687C2.08279 8.11306 2.19264 7.38756 2.24018 6.6736C2.2568 6.42715 2.38234 6.20101 2.68929 6.27947C2.96623 6.35008 2.96069 6.58222 2.91268 6.8139C2.26372 9.95035 4.18061 12.7125 7.34004 13.1879C7.55559 13.2202 7.77622 13.2197 7.99408 13.234C7.99639 13.2437 7.99869 13.2529 8.001 13.2626V13.2622Z" fill="#204A8F"/>
</svg>
