<svg width="17" height="16" viewBox="0 0 17 16" fill="none" xmlns="http://www.w3.org/2000/svg">
<path d="M4.73653 10.4807V8.85907C4.38304 8.85907 4.03904 8.84996 3.69594 8.86272C3.50202 8.87001 3.43828 8.81396 3.43919 8.60711C3.44687 6.42055 3.45682 4.23399 3.43647 2.04743C3.42969 1.33164 3.94095 0.648651 4.79937 0.658219C6.92304 0.681456 9.04762 0.664142 11.1717 0.666421C12.0347 0.667332 12.5265 1.1667 12.5301 2.03968C12.5324 2.55591 12.536 3.07214 12.5279 3.58836C12.5251 3.7574 12.5807 3.81253 12.7489 3.80934C13.2064 3.79932 13.6643 3.80616 14.1466 3.80616V0.648651H16.9818C16.9881 0.726108 16.999 0.799008 16.999 0.871909C16.9999 1.87429 17.0008 2.87622 16.999 3.8786C16.9971 5.05549 16.475 5.92209 15.4222 6.42055C15.0923 6.57683 14.7022 6.63789 14.3337 6.6675C13.8247 6.70851 13.3099 6.69119 12.7982 6.67342C12.5685 6.66522 12.522 6.74769 12.5265 6.95819C12.5387 7.51953 12.5251 8.08177 12.5319 8.64356C12.5342 8.81123 12.4831 8.86955 12.3113 8.86317C11.9601 8.85042 11.608 8.85907 11.2441 8.85907V10.4797C11.3422 10.4797 11.4299 10.4797 11.5175 10.4797C12.3312 10.4797 13.1444 10.4797 13.9581 10.4802C14.4043 10.4802 14.5263 10.6014 14.5435 11.0579C14.5448 11.0948 14.5516 11.1317 14.5589 11.1919H16.607V14.6273H14.5611C14.5534 14.7239 14.5453 14.7895 14.543 14.8551C14.5317 15.2046 14.3907 15.3477 14.0386 15.3486C13.0292 15.3509 12.0198 15.3541 11.0104 15.3472C10.3341 15.3427 9.82512 14.9768 9.60498 14.3403C9.55977 14.2104 9.50372 14.1626 9.3663 14.163C8.43239 14.1676 7.49848 14.1612 6.56457 14.1699C6.49496 14.1703 6.38873 14.2482 6.36251 14.3152C6.09174 15.0064 5.6162 15.3463 4.87486 15.349C4.09916 15.3522 3.32301 15.3495 2.54732 15.3472C2.2119 15.3463 2.07268 15.1996 2.06454 14.8606C2.0555 14.4843 2.11788 14.5152 1.70472 14.5148C1.14916 14.5134 0.594063 14.5148 0.0204272 14.5148C0.0145507 14.4182 0.00686607 14.3444 0.00641403 14.271C0.00550996 13.3142 0.0136466 12.3578 8.55091e-05 11.4015C-0.00307875 11.1755 0.0814523 11.1363 0.274472 11.1395C0.786631 11.1486 1.29879 11.1363 1.81095 11.1463C1.98634 11.15 2.06951 11.1153 2.07177 10.9144C2.07494 10.6269 2.23948 10.4834 2.53873 10.4816C3.17881 10.4775 3.81935 10.4802 4.45944 10.4802C4.54758 10.4802 4.63528 10.4802 4.73744 10.4802L4.73653 10.4807ZM7.98036 8.27177V8.27359C9.21577 8.27359 10.4507 8.27359 11.6862 8.27359C11.82 8.27359 11.9497 8.29774 11.9492 8.07585C11.942 6.02598 11.947 3.97656 11.9429 1.92669C11.942 1.52938 11.6816 1.25691 11.297 1.256C9.09779 1.25145 6.89863 1.2519 4.69902 1.25555C4.31614 1.256 4.06978 1.50113 4.03362 1.88842C4.02638 1.96359 4.02684 2.04014 4.02684 2.11577C4.02684 4.07452 4.03 6.03281 4.02232 7.99156C4.02141 8.20661 4.07475 8.27906 4.29715 8.27723C5.52489 8.26721 6.75262 8.27222 7.9799 8.27222L7.98036 8.27177ZM10.1081 13.5803C10.1081 13.6796 10.1076 13.7398 10.1081 13.7999C10.1158 14.4123 10.4589 14.7626 11.0605 14.7645C11.9492 14.7672 12.838 14.7599 13.7267 14.769C13.917 14.7709 13.9671 14.7107 13.9658 14.5234C13.9581 13.4532 13.9576 12.3829 13.9676 11.3126C13.9694 11.1049 13.8993 11.0602 13.7068 11.0625C12.7729 11.0721 11.8389 11.0625 10.905 11.0707C10.7125 11.0725 10.6388 11.0206 10.6429 10.8155C10.6546 10.2692 10.6474 9.72249 10.6447 9.17573C10.6442 9.07367 10.6307 8.97161 10.6225 8.8609C8.89392 8.8609 7.19245 8.86226 5.49098 8.85862C5.33413 8.85862 5.32825 8.9461 5.3287 9.06319C5.33051 9.64777 5.32012 10.2323 5.33413 10.8165C5.3391 11.0247 5.26813 11.0716 5.07647 11.0693C4.36858 11.0602 3.66069 11.0652 2.95279 11.0666C2.85696 11.0666 2.76113 11.0757 2.65671 11.0807V14.7481C2.73491 14.754 2.80046 14.7631 2.866 14.7631C3.54406 14.764 4.22166 14.7658 4.89972 14.7626C5.47562 14.7599 5.83408 14.4073 5.83046 13.8286C5.82911 13.6304 5.88109 13.5712 6.08315 13.573C7.34072 13.583 8.59874 13.5789 9.85631 13.5794C9.92954 13.5794 10.0032 13.5794 10.1072 13.5794L10.1081 13.5803ZM12.5491 6.07792C13.2272 6.07792 13.893 6.13715 14.5448 6.0647C15.6975 5.93713 16.414 5.05868 16.4145 3.88407C16.4149 3.07259 16.4081 2.26112 16.419 1.44965C16.4217 1.25054 16.3503 1.20178 16.1713 1.21363C16.0045 1.22457 15.849 1.18447 15.8544 1.45739C15.8707 2.27616 15.8621 3.09538 15.858 3.91414C15.8576 4.05675 15.8508 4.20437 15.816 4.34152C15.6329 5.0564 15.0312 5.52843 14.2998 5.53481C13.7221 5.53982 13.144 5.53572 12.5486 5.53572V6.07746L12.5491 6.07792ZM14.5426 14.0396C15.0263 14.0396 15.4824 14.0432 15.9385 14.0327C15.976 14.0318 16.042 13.9339 16.0424 13.8806C16.0501 13.244 16.0452 12.6075 16.0506 11.971C16.0519 11.8334 16.004 11.7833 15.8675 11.7856C15.4919 11.792 15.1158 11.7951 14.7401 11.7847C14.5756 11.7801 14.5363 11.8443 14.5399 11.9974C14.5485 12.361 14.5426 12.7246 14.5426 13.0887C14.5426 13.3971 14.5426 13.7056 14.5426 14.0396ZM0.627966 11.7441C0.613048 11.7678 0.598583 11.7806 0.598583 11.7933C0.594515 12.4594 0.587734 13.126 0.595871 13.7922C0.596323 13.8391 0.707976 13.9225 0.770357 13.9247C1.12295 13.938 1.47689 13.9229 1.82993 13.9352C2.00532 13.9411 2.07087 13.8874 2.06635 13.7056C2.05595 13.2969 2.06318 12.8873 2.06318 12.4786C2.06318 12.238 2.06318 11.9974 2.06318 11.7446L0.627966 11.7441ZM15.2826 1.22775C15.1736 1.22274 15.1067 1.21773 15.0398 1.21728C14.8319 1.21545 14.7279 1.31615 14.7279 1.51936C14.7279 2.30805 14.7288 3.0972 14.727 3.88589C14.7261 4.23035 14.5747 4.38845 14.2347 4.39346C13.8736 4.39847 13.5124 4.39483 13.1512 4.39483C12.9514 4.39483 12.7516 4.39483 12.5378 4.39483C12.5378 4.55065 12.5432 4.67185 12.5364 4.79168C12.5297 4.90878 12.5735 4.95388 12.6915 4.95297C13.2335 4.94842 13.7759 4.96573 14.317 4.94523C14.9105 4.92244 15.2799 4.51192 15.2821 3.90776C15.2848 3.17192 15.283 2.43608 15.283 1.70024C15.283 1.55034 15.2826 1.40044 15.2826 1.22775Z" fill="#204A8F"/>
</svg>
