<svg width="19" height="16" viewBox="0 0 19 16" fill="none" xmlns="http://www.w3.org/2000/svg">
<g clip-path="url(#clip0_850_12504)">
<path d="M19.0001 5.69728C18.998 5.53427 18.979 5.35837 18.9426 5.1593C18.865 4.7385 18.6756 4.3656 18.3792 4.05064C18.3265 3.99475 18.2774 3.93939 18.2551 3.87732C18.2411 3.83869 18.2242 3.80341 18.2092 3.77251L18.1983 3.74984C17.8931 3.10319 17.5278 2.59585 17.082 2.199C16.7243 1.88069 16.356 1.66334 15.9565 1.53483C15.7683 1.47431 15.5646 1.41534 15.3488 1.39268C15.1385 1.37079 14.9227 1.38495 14.6889 1.43568C14.5557 1.46478 14.4191 1.4926 14.2872 1.51964C14.1083 1.55621 13.9234 1.59406 13.7415 1.63553C13.526 1.68471 13.3084 1.73802 13.0979 1.78927C12.917 1.83331 12.73 1.87915 12.5461 1.9219C12.3179 1.97495 12.1173 2.0468 11.9329 2.14183C11.6527 2.28605 11.3991 2.47971 11.18 2.71689C11.1785 2.71818 11.175 2.7205 11.175 2.72076C10.9822 2.76788 10.7884 2.81038 10.6402 2.84257C10.6379 2.84257 10.6339 2.84179 10.6281 2.84051C10.5888 2.83124 10.5495 2.82068 10.5082 2.8096C10.4822 2.80265 10.4556 2.79544 10.4287 2.78874C10.4176 2.72333 10.4056 2.65792 10.394 2.59251C10.3801 2.5155 10.3664 2.43825 10.3532 2.36099C10.3378 2.27008 10.3233 2.17917 10.3086 2.08826C10.2846 1.9389 10.2597 1.78464 10.2319 1.63218C10.1898 1.40195 10.0649 1.2173 9.85013 1.06793C9.83265 1.05583 9.81492 1.04398 9.79719 1.03188C9.78022 1.02055 9.76375 1.00947 9.74805 0.998398C9.73133 0.980371 9.70828 0.961314 9.67813 0.945605C9.64647 0.918822 9.62012 0.890493 9.60163 0.85753C9.57884 0.817098 9.54793 0.79495 9.53349 0.784649C9.51627 0.77203 9.49879 0.759668 9.48106 0.747565C9.45167 0.72722 9.42381 0.707905 9.40278 0.68859C9.11451 0.425395 8.77279 0.371829 8.41385 0.533815C8.15344 0.651506 7.95865 0.848001 7.85023 1.10244C7.78234 1.26159 7.71572 1.36409 7.62731 1.44495C7.61515 1.45603 7.60654 1.46607 7.59995 1.47406L7.41807 1.66334C7.23949 1.84902 7.05482 2.04114 6.8732 2.23171C6.79543 2.23093 6.7169 2.23093 6.6399 2.23093V2.22192H6.46258C6.43066 2.22192 6.39874 2.22192 6.36708 2.22218C6.29742 2.22269 6.23156 2.22295 6.16494 2.22141C6.01675 2.21806 5.86856 2.21394 5.72062 2.21007C5.6041 2.20698 5.48758 2.20389 5.37105 2.20106C5.38422 2.08234 5.39461 1.97469 5.40272 1.87297C5.41462 1.72154 5.28011 1.55003 5.16106 1.50908C5.11799 1.49414 5.07366 1.49157 5.03313 1.50135C5.00729 1.50753 4.98146 1.51371 4.95562 1.51964C4.88874 1.53509 4.81984 1.55131 4.75069 1.57192C4.71269 1.53483 4.66836 1.49595 4.61745 1.46247C4.43455 1.34246 4.2357 1.28838 4.06548 1.25155C3.83015 1.20082 3.57886 1.18382 3.27413 1.19798C3.08212 1.207 2.91721 1.24485 2.77054 1.31387C2.68745 1.24511 2.56814 1.1627 2.41666 1.12819C2.18539 1.07566 1.95918 1.10759 1.74412 1.22296C1.32438 1.4483 1.09589 1.81657 1.08322 2.28759C1.08272 2.30253 1.08272 2.31746 1.08246 2.3324C1.08145 2.40296 1.08018 2.44494 1.06372 2.4846C1.02876 2.56933 1.00444 2.65457 0.980883 2.73698C0.967964 2.78256 0.955552 2.82583 0.941873 2.86781C0.926421 2.91545 0.908689 2.96258 0.889944 3.01254C0.874745 3.05348 0.858787 3.09572 0.844094 3.13898C0.813444 3.2286 0.783299 3.31822 0.753155 3.40784C0.725291 3.49077 0.697426 3.57369 0.669055 3.65636C0.667535 3.66074 0.665255 3.6646 0.664242 3.66615C0.422835 3.97673 0.284526 4.26465 0.229304 4.57188C0.211825 4.66845 0.201186 4.75756 0.19688 4.84357C0.183201 5.11655 0.236903 5.37692 0.356214 5.61668C0.435754 5.77634 0.548731 5.89275 0.658163 6.00503C0.678428 6.02589 0.698693 6.04649 0.718451 6.06761C0.727824 6.07765 0.733903 6.10032 0.743276 6.13663C0.744036 6.1392 0.744542 6.14204 0.745302 6.14461C0.706545 6.21826 0.658163 6.29707 0.591541 6.36351C0.317457 6.63804 0.135831 6.96046 0.0519845 7.32178C-0.0283157 7.66661 -0.0138769 7.97153 0.0958077 8.25429C0.122912 8.32434 0.127725 8.3828 0.112526 8.46315C0.0218403 8.94318 0.133805 9.3627 0.445633 9.71036L0.449179 9.71423C0.487683 9.75724 0.511241 9.78453 0.512254 9.80539C0.513774 9.83604 0.517067 9.8654 0.520107 9.89141C0.523653 9.92283 0.5272 9.95244 0.526187 9.97562C0.519854 10.1337 0.530746 10.3678 0.698693 10.5736C0.747582 10.6334 0.791912 10.6843 0.834722 10.7292C0.869932 10.7662 0.906156 10.8025 0.942127 10.8391C0.986963 10.8847 1.02977 10.928 1.07132 10.9723C1.0703 11.032 1.0665 11.0928 1.06245 11.1564C1.06118 11.1775 1.05992 11.1986 1.05865 11.22L1.05409 11.3014C1.04649 11.4363 1.03839 11.5754 1.02901 11.7124C1.01863 11.7196 1.00773 11.7268 0.996589 11.7343C0.972271 11.7505 0.946939 11.7675 0.921102 11.7871C0.657403 11.988 0.48135 12.2352 0.397757 12.5223C0.280726 12.9248 0.360773 13.272 0.635365 13.5548C0.725037 13.647 0.814963 13.7435 0.910716 13.8496C1.06625 14.0224 1.2233 14.1991 1.37529 14.3704L1.46041 14.4662C1.49359 14.5035 1.52627 14.5411 1.5592 14.579C1.62481 14.6547 1.69295 14.7327 1.76438 14.8079C1.84595 14.8939 1.91916 14.9568 1.99464 15.0057C2.03061 15.0289 2.06608 15.049 2.10027 15.0683C2.1484 15.0956 2.194 15.1211 2.232 15.1512C2.41768 15.2985 2.63476 15.3158 2.78219 15.3158H2.78321C3.35696 15.3155 3.93071 15.3158 4.50472 15.316C4.53588 15.3451 4.56374 15.3734 4.58325 15.4015C4.64176 15.4868 4.71953 15.5298 4.81478 15.5298C4.8163 15.5298 4.81782 15.5298 4.81934 15.5298C4.92877 15.5282 5.01819 15.4692 5.0648 15.3683C5.06606 15.3657 5.06708 15.3629 5.06834 15.3603C5.07696 15.359 5.08531 15.358 5.09342 15.3575C5.1874 15.3516 5.28341 15.3477 5.38701 15.3451C5.47212 15.3431 5.55698 15.342 5.6421 15.3407C5.70416 15.34 5.76622 15.3392 5.82828 15.3379C5.83892 15.3379 5.845 15.3387 5.84728 15.3392C5.84779 15.3397 5.84829 15.3402 5.8488 15.3412C5.87109 15.3719 5.89566 15.3964 5.91517 15.4159C5.92175 15.4226 5.92859 15.4293 5.93493 15.436C6.06158 15.5717 6.18824 15.5457 6.25233 15.5182C6.32604 15.4865 6.37392 15.4322 6.39596 15.3554C6.41521 15.3554 6.43471 15.3557 6.45397 15.3559C6.49678 15.3564 6.53959 15.3567 6.58265 15.3567H6.69588C6.83951 15.3575 6.98795 15.358 7.13462 15.3564C7.16983 15.401 7.21694 15.4558 7.27571 15.5004C7.32283 15.5362 7.37729 15.5547 7.43201 15.5547C7.45481 15.5547 7.47735 15.5517 7.49964 15.545C7.57766 15.522 7.64074 15.461 7.67215 15.3776C7.67443 15.3711 7.67696 15.3644 7.67949 15.3577C7.85023 15.3624 8.00297 15.3647 8.14483 15.3647C8.23805 15.3647 8.33203 15.3629 8.42297 15.3611C8.51492 15.3593 8.6089 15.3575 8.70263 15.3575C8.78749 15.3575 8.87513 15.36 8.95999 15.3624C9.03143 15.3644 9.10539 15.3665 9.17885 15.3673C9.20494 15.3675 9.23104 15.3683 9.25738 15.3688C9.35237 15.3714 9.45066 15.374 9.55249 15.3585C9.84304 15.315 10.1032 15.1695 10.3259 14.9261C10.5024 14.733 10.6032 14.5331 10.6339 14.3147C10.6463 14.2274 10.6544 14.1399 10.6625 14.0554C10.6668 14.0111 10.6709 13.9668 10.6757 13.9225C10.7028 13.6722 10.7299 13.4221 10.7572 13.1718C10.7828 12.9362 10.8084 12.7003 10.834 12.4646C10.8522 12.2962 10.8702 12.1281 10.8882 11.9596L10.9204 11.6586C10.9298 11.5713 10.9391 11.484 10.9485 11.3964C11.0215 11.3892 11.0964 11.3812 11.1724 11.3668C11.4217 11.3194 11.6494 11.2053 11.8688 11.0184C11.884 11.0055 11.8992 10.9983 11.9055 10.9967C12.1153 10.9444 12.3291 10.8924 12.5358 10.8422C12.6959 10.8033 12.8557 10.7644 13.0158 10.725C13.0373 10.7196 13.0431 10.7209 13.0601 10.734C13.1156 10.7768 13.1908 10.828 13.2813 10.8466C13.3699 10.8646 13.4578 10.8749 13.5429 10.8847C13.5809 10.8891 13.6187 10.8935 13.6564 10.8986C13.9432 10.9372 14.1993 10.9287 14.4399 10.8726C14.7816 10.7928 15.1277 10.7075 15.4623 10.6251L15.6556 10.5775C15.8038 10.5409 15.9519 10.5038 16.1001 10.4667C16.34 10.4067 16.5883 10.3447 16.8325 10.2865C17.0906 10.2249 17.3307 10.0943 17.566 9.88755C17.6833 9.78453 17.8004 9.66504 17.9235 9.52288C18.0365 9.39232 18.1355 9.26149 18.2173 9.13401C18.4608 8.75519 18.6272 8.32125 18.7409 7.76859C18.8169 7.39981 18.8509 7.0027 18.8448 6.55434C18.8445 6.53065 18.8473 6.50876 18.8521 6.49537C18.9555 6.21595 19.0041 5.9543 19.0006 5.69548L19.0001 5.69728ZM9.88256 1.69862C9.90966 1.84696 9.93423 1.99942 9.95805 2.14698C9.97274 2.23892 9.98768 2.3306 10.0031 2.42254C10.0163 2.50108 10.0305 2.57937 10.0444 2.65766C10.0599 2.74342 10.0751 2.82918 10.0895 2.91519C10.1002 2.97906 10.1402 3.09134 10.2894 3.12611C10.3314 3.13589 10.3732 3.14697 10.4176 3.15881C10.4424 3.16551 10.468 3.1722 10.4938 3.1789C10.5693 3.26234 10.7674 3.49051 11.0063 3.8356L9.72652 2.87167L9.28955 2.56212L9.23788 2.56006C8.63727 2.53585 8.27731 2.83458 8.08074 3.08954C8.05136 3.12765 8.02476 3.16577 8.00069 3.20362L7.74156 2.96335C7.8938 2.79003 8.21196 2.43696 8.76367 1.86292C8.80496 1.82018 8.84372 1.78077 8.88121 1.74369C8.8498 1.81631 8.83207 1.89718 8.83207 1.98268C8.83207 2.2966 9.06968 2.55182 9.36175 2.55182C9.65382 2.55182 9.89142 2.29635 9.89142 1.98268C9.89142 1.66901 9.65382 1.41354 9.36175 1.41354C9.31868 1.41354 9.27663 1.4192 9.23636 1.42976C9.39797 1.30795 9.48334 1.28039 9.51576 1.27447C9.54438 1.29533 9.57326 1.3149 9.60087 1.33344C9.61709 1.34426 9.6333 1.35533 9.64926 1.36641C9.78402 1.46015 9.85824 1.56574 9.88256 1.69888V1.69862ZM3.41725 7.15876L2.81588 6.54121L5.71784 5.12917C5.72645 5.12505 5.93265 5.02796 6.04132 5.166C6.15202 5.30687 6.3073 5.50877 6.42331 5.66046L3.4175 7.1585L3.41725 7.15876ZM2.49544 6.21234C2.57422 5.74029 2.91164 5.41786 3.49983 5.25407C3.9031 5.14179 4.30308 5.14102 4.44165 5.14488L4.60478 5.27107L2.55168 6.27003L2.49544 6.21234ZM2.7442 3.0097C2.8212 3.0473 2.90986 3.0813 3.01296 3.10885C3.11302 3.13564 3.29211 3.15856 3.51883 3.15856C3.76277 3.15856 4.06142 3.13177 4.37553 3.05477L4.29903 4.13974C3.32124 4.51471 2.80828 4.08772 2.66719 3.93887L2.74445 3.0097H2.7442ZM2.27557 2.54074C2.2819 2.56031 2.31508 2.65174 2.40906 2.75964L2.30824 3.97441L1.9802 5.70681L2.19932 5.93009C2.19932 5.93009 2.19932 5.93035 2.19932 5.9306L1.23293 5.03414C1.40164 4.58398 2.02023 2.93399 2.16664 2.54873C2.20565 2.44597 2.25809 2.36846 2.31255 2.30974L2.25809 2.48486L2.27607 2.54023L2.27557 2.54074ZM7.13183 4.83173C7.16096 4.43977 7.26406 4.29349 7.30712 4.2649L7.31852 4.26259L7.9589 3.90488L8.7619 4.49488L7.09003 5.32798C7.10169 5.20643 7.11562 5.04522 7.13158 4.83147L7.13183 4.83173ZM9.18645 1.98242C9.18645 1.8673 9.26498 1.77382 9.36149 1.77382C9.458 1.77382 9.53653 1.86756 9.53653 1.98242C9.53653 2.09728 9.458 2.19102 9.36149 2.19102C9.26498 2.19102 9.18645 2.09728 9.18645 1.98242ZM7.67113 1.91598L7.85504 1.72463C7.8596 1.71974 7.86416 1.71485 7.86923 1.70866C8.02856 1.56059 8.11621 1.38418 8.17497 1.2464C8.24742 1.07643 8.37965 0.944317 8.55722 0.863968C8.78799 0.759668 8.98102 0.789284 9.16492 0.957451C9.18493 0.975736 9.2052 0.99196 9.22546 1.0069C8.97798 1.14236 8.71352 1.3986 8.5096 1.6108C7.95409 2.18921 7.63516 2.54255 7.47887 2.71998L7.17236 2.43593C7.33853 2.26158 7.50724 2.0862 7.67113 1.91598ZM6.15658 2.58272C6.19939 2.58375 6.24245 2.58401 6.28501 2.58375V2.59225H6.57986C6.65712 2.59199 6.73641 2.59225 6.81519 2.59225L7.83503 3.53764C7.83098 3.54871 7.82743 3.55901 7.82414 3.5688L7.18629 3.92496C7.16932 3.9314 7.14855 3.94119 7.1255 3.95561L5.67148 2.5701C5.68465 2.57036 5.69783 2.57087 5.711 2.57113C5.85969 2.57525 6.00813 2.57911 6.15683 2.58246L6.15658 2.58272ZM5.03415 1.87194C5.03845 1.87091 5.04251 1.86988 5.04656 1.86911C5.03795 1.97495 5.02655 2.08826 5.01185 2.21497L5.01135 2.21935C5.00046 2.31309 4.99032 2.40142 5.05669 2.47919C5.06657 2.49078 5.07696 2.50031 5.08759 2.50881L6.90182 4.23735C6.83672 4.38388 6.79518 4.57368 6.77795 4.80443C6.75262 5.14385 6.73286 5.3455 6.71944 5.46087C6.60139 5.30635 6.43522 5.09003 6.31768 4.94092C6.08793 4.64914 5.72265 4.72459 5.56357 4.80443L4.96398 5.09621L4.56932 4.79078L4.51612 4.78717C4.49383 4.78563 3.96744 4.75189 3.41421 4.90409C2.93241 5.03672 2.57853 5.26901 2.36423 5.5886L2.36347 5.58783L2.59803 4.34963C2.67757 4.40732 2.77561 4.46681 2.89314 4.51728C3.11454 4.61231 3.34075 4.64965 3.5591 4.64965C3.92615 4.64965 4.27142 4.54432 4.53588 4.43178L4.63644 4.38903L4.73853 2.94326C4.76031 2.93502 4.7821 2.92704 4.80388 2.91828L4.92674 2.86935L4.85024 1.91907C4.90876 1.90155 4.96955 1.88713 5.03364 1.8722L5.03415 1.87194ZM3.28983 1.55904C3.56341 1.54616 3.78607 1.56084 3.991 1.60488C4.12982 1.63501 4.28991 1.6775 4.42442 1.76584C4.4457 1.77974 4.46672 1.79751 4.48674 1.8158L4.55209 2.62779C3.90716 2.84952 3.27235 2.80523 3.10339 2.7599C2.80702 2.68058 2.68163 2.53971 2.63502 2.46786L2.88706 1.65793C2.88884 1.65716 2.89061 1.65613 2.89238 1.65536C3.00131 1.59818 3.13151 1.56677 3.29009 1.5593L3.28983 1.55904ZM0.941873 3.89071C0.967964 3.85723 0.989243 3.81757 1.00343 3.77611C1.03205 3.69267 1.05992 3.60923 1.08803 3.52554C1.11793 3.43643 1.14782 3.34758 1.17821 3.25873C1.19139 3.22011 1.20583 3.18199 1.22077 3.1413C1.23977 3.09005 1.25978 3.03726 1.27751 2.98266C1.29347 2.93399 1.3074 2.88532 1.32083 2.83845C1.34261 2.76248 1.36288 2.69088 1.38998 2.62521C1.43406 2.51885 1.43533 2.42279 1.43634 2.33807C1.43634 2.32493 1.43659 2.3118 1.4371 2.29841C1.44622 1.95564 1.60049 1.70866 1.90902 1.54282C2.04936 1.46736 2.18995 1.44727 2.33864 1.48101C2.40197 1.49543 2.46454 1.52865 2.53699 1.58711L2.47138 1.79751C2.34193 1.83691 2.0025 1.97881 1.83531 2.41867C1.70055 2.77303 1.16758 4.19434 0.950739 4.77275L0.620166 4.46603C0.680454 4.27855 0.785073 4.09184 0.94162 3.8902L0.941873 3.89071ZM0.39649 7.40599C0.464885 7.11163 0.614086 6.84767 0.839788 6.62156C0.957325 6.50386 1.02977 6.3733 1.08525 6.26076C1.11995 6.19019 1.11185 6.13199 1.09918 6.09568C1.09462 6.0828 1.09057 6.06606 1.08601 6.04855C1.07005 5.98494 1.04801 5.89764 0.973031 5.81858C0.952006 5.79643 0.930727 5.77454 0.909449 5.75265C0.815217 5.65582 0.726051 5.56414 0.671842 5.4552C0.583182 5.27699 0.543665 5.09157 0.549745 4.88915L1.80744 6.05576C1.50094 6.18659 1.03357 6.44721 0.81319 6.88192C0.734917 7.03618 0.694386 7.19894 0.690587 7.36813L0.35596 7.78482C0.351401 7.66635 0.364826 7.54068 0.396237 7.40625L0.39649 7.40599ZM0.460072 8.53242C0.48059 8.42323 0.480084 8.32614 0.457539 8.22854L0.77038 7.8389C0.77266 7.84559 0.77494 7.85255 0.77722 7.85924L0.789632 7.89375L1.26763 8.40958C1.0318 8.79923 1.31146 9.40674 1.43381 9.63542C1.36288 9.77835 1.28714 9.93081 1.22862 10.0506L0.852707 9.70573C0.825096 9.60117 0.760248 9.52855 0.710345 9.47267L0.706799 9.4688C0.471218 9.20612 0.390411 8.89992 0.459819 8.53242H0.460072ZM1.65191 13.228L1.51309 13.1082L1.57921 12.4716L1.71372 12.2396L1.65191 13.2282V13.228ZM1.64786 9.20715C1.64532 9.2123 1.64178 9.21951 1.63722 9.22853C1.56629 9.04877 1.5136 8.84713 1.53741 8.70008L1.75349 8.9334L1.64786 9.20741V9.20715ZM0.971258 10.3449C0.94694 10.315 0.928194 10.2829 0.913756 10.2471L1.10475 10.4222C1.14908 10.4629 1.20684 10.4848 1.26561 10.4848C1.28055 10.4848 1.29575 10.4832 1.31095 10.4804C1.38441 10.466 1.44774 10.4165 1.48042 10.348C1.56072 10.1798 1.76615 9.76702 1.88318 9.53293L1.76387 11.443L1.38466 12.0974L1.2841 11.9702C1.31222 11.946 1.37225 11.8842 1.37884 11.7912C1.38998 11.6351 1.3991 11.4768 1.40772 11.3238L1.41228 11.2427C1.41354 11.2221 1.41481 11.2015 1.41608 11.1809C1.42063 11.1085 1.42519 11.0338 1.4257 10.9576C1.42621 10.8795 1.39758 10.8013 1.34869 10.748C1.29702 10.6916 1.24357 10.6375 1.19189 10.5852C1.15744 10.5502 1.12274 10.5154 1.08905 10.4796C1.05282 10.4415 1.01432 10.3975 0.971258 10.3449ZM1.17188 13.6076C1.07309 13.4979 0.980124 13.3982 0.887158 13.3026C0.705279 13.1154 0.657656 12.9004 0.73745 12.6259C0.785073 12.4618 0.872465 12.3181 1.00267 12.1899L1.22305 12.4685L1.14072 13.2594L1.62379 13.6766L1.59821 14.085C1.45813 13.9274 1.3145 13.7659 1.17163 13.6073L1.17188 13.6076ZM10.5673 11.6212L10.5351 11.9225C10.5171 12.0907 10.4991 12.2589 10.4811 12.4268C10.4556 12.6624 10.43 12.8981 10.4044 13.134C10.3773 13.3843 10.3499 13.6346 10.3228 13.8849C10.3177 13.9308 10.3134 13.9766 10.3091 14.0224C10.301 14.1067 10.2934 14.1862 10.2825 14.2655C10.2623 14.4105 10.1934 14.5432 10.066 14.6825C9.89725 14.8669 9.71233 14.972 9.50056 15.0036C9.42887 15.0144 9.34984 15.0124 9.26625 15.0101C9.23813 15.0093 9.21001 15.0085 9.18215 15.0083C9.11198 15.0075 9.03953 15.0054 8.96987 15.0036C8.88298 15.0011 8.7928 14.9987 8.70313 14.9985C8.60662 14.9985 8.51011 15.0003 8.41613 15.0021C8.32696 15.0039 8.23476 15.0057 8.14483 15.0057C7.98524 15.0057 7.81096 15.0026 7.61186 14.9964C7.51332 14.9933 7.43606 15.0345 7.39122 15.1079C7.32663 15.0345 7.24354 14.9972 7.14399 14.9972C7.14247 14.9972 7.14095 14.9972 7.13943 14.9972C6.99226 14.9987 6.84204 14.9985 6.69664 14.998H6.5829C6.54085 14.9974 6.4988 14.9972 6.45675 14.9969C6.40482 14.9964 6.35289 14.9962 6.30096 14.9962C6.27259 14.9962 6.18571 14.9962 6.11934 15.0649C6.11199 15.0724 6.10541 15.0804 6.09983 15.0884C6.0441 15.0307 5.95545 14.9766 5.82119 14.9792C5.75989 14.9802 5.69833 14.9812 5.63703 14.982C5.5509 14.983 5.46452 14.9843 5.3784 14.9864C5.27023 14.9889 5.16967 14.9931 5.07113 14.9992C5.01692 15.0026 4.96727 15.0134 4.92167 15.0247C4.87481 15.0363 4.832 15.0654 4.79958 15.1069C4.76943 15.075 4.73828 15.0466 4.70915 15.0199L4.70104 15.0124C4.63796 14.9544 4.56273 14.956 4.52651 14.9568H4.51941C3.94034 14.9565 3.36152 14.9562 2.78245 14.9568C2.62792 14.9573 2.52635 14.9297 2.44934 14.8684C2.38956 14.821 2.32699 14.7858 2.27202 14.7546C2.24112 14.7371 2.21173 14.7206 2.18488 14.7031C2.13371 14.6699 2.08102 14.624 2.01921 14.5591C1.98907 14.5272 1.95969 14.495 1.9303 14.462L2.27379 8.96919L1.09867 7.70112C1.01863 7.46059 1.02851 7.24658 1.12882 7.04828C1.33881 6.63237 1.88496 6.40446 2.10154 6.32823L2.18564 6.40626L3.27514 7.52497L3.34353 7.45595L3.3985 7.57004L9.44889 4.55462L8.18283 3.62443C8.21576 3.54253 8.27199 3.42639 8.35989 3.3123C8.56102 3.05142 8.83359 2.91957 9.1705 2.91957H9.17353L9.51779 3.16319L11.0787 4.33881L11.0881 4.34731L11.1035 4.35452C11.137 4.37358 11.3657 4.52089 11.3006 4.93912C11.2109 5.51495 10.9199 8.29498 10.9075 8.41267L10.604 11.2792C10.5918 11.3933 10.5797 11.5077 10.5675 11.6217L10.5673 11.6212ZM11.1066 11.0142C11.0678 11.0217 11.0278 11.0271 10.9865 11.0317L11.2596 8.45079C11.2626 8.42195 11.5623 5.56208 11.6504 4.99526C11.6525 4.9829 11.6537 4.97105 11.6552 4.95895C11.7358 5.12943 11.8131 5.30944 11.8845 5.49873C12.1976 6.32977 12.3356 7.16803 12.2949 7.99033C12.2444 9.00139 11.9215 9.99416 11.3348 10.9416C11.2606 10.9751 11.1846 10.9998 11.1066 11.0145V11.0142ZM13.7023 10.5427C13.6622 10.5373 13.6222 10.5327 13.5822 10.528C13.5009 10.5185 13.4241 10.5097 13.3502 10.4945C13.3436 10.4933 13.3225 10.486 13.2737 10.4482C13.1716 10.3696 13.0566 10.3454 12.9317 10.3763C12.7721 10.4157 12.6125 10.4544 12.4529 10.4933C12.2799 10.5352 12.1018 10.5785 11.925 10.6223C12.363 9.77475 12.6062 8.89503 12.6495 7.99985C12.6918 7.12554 12.5444 6.23629 12.211 5.35683C11.811 4.30121 11.2466 3.52451 10.9374 3.14619C11.0389 3.12353 11.1479 3.09829 11.2575 3.07151C11.3244 3.05529 11.39 3.01614 11.4376 2.96464C11.6152 2.77252 11.8181 2.61414 12.0405 2.49207C12.1821 2.52272 12.5743 2.62083 13.0353 2.85261C13.5619 3.11709 14.2902 3.61593 14.7695 4.48973C15.5692 5.94812 15.459 7.97127 14.4424 10.5028C14.4148 10.5092 14.3872 10.5159 14.3596 10.5224C14.1613 10.5687 13.9462 10.5754 13.7025 10.5424L13.7023 10.5427ZM18.5195 6.37021C18.4987 6.42661 18.4886 6.49073 18.4894 6.56104C18.4949 6.98261 18.4635 7.35397 18.3931 7.69648C18.2888 8.20382 18.1383 8.59835 17.9197 8.93855C17.847 9.05161 17.7586 9.16852 17.6567 9.28621C17.5443 9.41601 17.4386 9.52417 17.3335 9.61637C17.1425 9.78428 16.952 9.88909 16.7509 9.93699C16.5047 9.99571 16.2557 10.058 16.0145 10.1183C15.8668 10.1554 15.7191 10.1922 15.5712 10.2285L15.3777 10.2762C15.2085 10.3179 15.0365 10.3601 14.8635 10.4023C15.8357 7.87109 15.9079 5.82244 15.0762 4.31023C14.5496 3.35273 13.7539 2.80986 13.1789 2.52323C12.9674 2.41764 12.7706 2.33832 12.6019 2.27935C12.6095 2.27755 12.6168 2.27549 12.6244 2.27368C12.8101 2.23042 12.9981 2.18458 13.1799 2.14028C13.3892 2.08929 13.6058 2.03624 13.8188 1.98757C13.9969 1.94688 14.1798 1.90954 14.3566 1.87323C14.4896 1.84593 14.6274 1.81786 14.7629 1.78824C14.9597 1.74523 15.1396 1.73313 15.3123 1.75116C15.4858 1.76918 15.6525 1.81502 15.8491 1.87838C16.2012 1.99143 16.5277 2.18509 16.8479 2.46992C17.257 2.83381 17.5939 3.30354 17.8781 3.90539L17.8903 3.93063C17.9024 3.95587 17.9141 3.97982 17.9217 4.00119C17.9676 4.12841 18.0461 4.21829 18.1226 4.29941C18.3706 4.56286 18.5289 4.87422 18.5935 5.22497C18.6264 5.40344 18.6431 5.55925 18.6452 5.7014C18.6479 5.91464 18.6067 6.13328 18.5193 6.36969L18.5195 6.37021Z" fill="#204A8F"/>
<path d="M3.0783 9.37842C3.13909 9.40109 3.20166 9.4119 3.26398 9.4119C3.52286 9.4119 3.7777 9.22622 3.88231 8.93547C4.01226 8.57442 3.86332 8.1858 3.54971 8.06914C3.39241 8.01068 3.22041 8.02794 3.06538 8.11833C2.92023 8.2028 2.80675 8.34264 2.7457 8.51209C2.68465 8.68155 2.68237 8.86285 2.73962 9.02277C2.80067 9.19352 2.92099 9.31996 3.0783 9.37842ZM3.07881 8.63597C3.11123 8.54609 3.16898 8.47321 3.24169 8.43097C3.28171 8.4078 3.323 8.39595 3.36252 8.39595C3.38506 8.39595 3.4071 8.39981 3.42787 8.40754C3.55554 8.45492 3.61102 8.63983 3.54921 8.81134C3.4874 8.98286 3.32756 9.08741 3.19989 9.03977C3.14264 9.0184 3.0973 8.96869 3.07273 8.89942C3.0441 8.81933 3.04613 8.72584 3.07855 8.63597H3.07881Z" fill="#204A8F"/>
<path d="M3.15763 13.5458C3.00032 13.4871 2.82832 13.5046 2.67329 13.595C2.52814 13.6794 2.41466 13.8193 2.35361 13.9887C2.22366 14.3498 2.37261 14.7384 2.68621 14.8551C2.74726 14.8777 2.81059 14.889 2.87417 14.889C2.97448 14.889 3.07581 14.861 3.17055 14.8059C3.31569 14.7214 3.42918 14.5816 3.49023 14.4121C3.55128 14.2426 3.55356 14.0613 3.49631 13.9014C3.43526 13.7307 3.31493 13.6042 3.15763 13.5458ZM3.15712 14.288C3.1247 14.3778 3.06694 14.4507 2.99424 14.493C2.93142 14.5295 2.8653 14.5378 2.80805 14.5164C2.68039 14.469 2.62491 14.2841 2.68672 14.1126C2.71914 14.0227 2.7769 13.9498 2.8496 13.9076C2.88962 13.8844 2.93091 13.8726 2.97043 13.8726C2.99297 13.8726 3.01501 13.8764 3.03578 13.8842C3.09303 13.9055 3.13838 13.9552 3.16295 14.0245C3.19157 14.1046 3.18954 14.1981 3.15712 14.288Z" fill="#204A8F"/>
<path d="M9.85482 13.7126C9.72538 13.6645 9.57821 13.6792 9.4513 13.7531C9.33249 13.8223 9.23953 13.9364 9.18988 14.0747C9.14023 14.213 9.13846 14.3611 9.18532 14.4919C9.23522 14.6318 9.33807 14.7394 9.46776 14.7878C9.51792 14.8066 9.57061 14.8156 9.62406 14.8156C9.70816 14.8156 9.79352 14.7925 9.87129 14.7474C9.99009 14.6781 10.0831 14.564 10.1327 14.4257C10.1824 14.2874 10.1841 14.1394 10.1373 14.0085C10.0874 13.8687 9.98452 13.7611 9.85482 13.7126ZM9.7996 14.3016C9.77883 14.3593 9.74058 14.4077 9.69498 14.4342C9.67396 14.4466 9.63216 14.4649 9.58961 14.4489C9.5473 14.4332 9.52704 14.3917 9.51868 14.3686C9.50069 14.3181 9.50221 14.2563 9.52298 14.1986C9.54376 14.1409 9.58201 14.0925 9.6276 14.066C9.6428 14.0572 9.66889 14.0451 9.69828 14.0451C9.70942 14.0451 9.72133 14.0469 9.73298 14.0513C9.77528 14.067 9.79555 14.1085 9.80391 14.1316C9.82189 14.1821 9.82037 14.2439 9.7996 14.3016Z" fill="#204A8F"/>
<path d="M10.383 5.54664C10.4349 5.56596 10.4884 5.57523 10.5416 5.57523C10.7599 5.57523 10.9742 5.42019 11.0621 5.17657C11.1713 4.87372 11.0441 4.54691 10.7789 4.44802C10.6469 4.39883 10.497 4.41403 10.3673 4.48922C10.2459 4.56005 10.151 4.67671 10.1 4.81809C10.0491 4.95947 10.0474 5.1109 10.0952 5.24456C10.1461 5.38723 10.2513 5.4972 10.3832 5.54638L10.383 5.54664ZM10.4329 4.94222C10.4547 4.88144 10.4952 4.83045 10.5433 4.80238C10.5596 4.79285 10.5874 4.77998 10.6191 4.77998C10.6312 4.77998 10.6439 4.78178 10.6568 4.78667C10.7371 4.81654 10.7701 4.93836 10.729 5.05244C10.6877 5.16678 10.5854 5.23786 10.5051 5.20799C10.4592 5.19099 10.4375 5.14644 10.4283 5.12146C10.4093 5.06815 10.4109 5.00274 10.4329 4.94196V4.94222Z" fill="#204A8F"/>
<path d="M3.75967 9.51209L3.72472 9.5417L3.70825 9.58471C3.57172 9.94242 3.56513 10.1786 3.68799 10.3277C3.76094 10.4163 3.86201 10.4467 3.94662 10.4467C3.96916 10.4467 3.99044 10.4446 4.00969 10.4407C4.09911 10.4222 6.2082 9.98697 6.72293 9.83297C7.31568 9.65579 7.48363 9.20408 7.49047 9.18502L7.49857 9.16262L7.5006 9.13893C7.50693 9.06579 7.65563 7.34369 7.67589 6.9252C7.68755 6.68003 7.5961 6.55719 7.51707 6.49744C7.35039 6.37126 7.1409 6.44105 7.11734 6.44954L7.1067 6.45341L4.64576 7.70964C4.58395 7.72844 4.43374 7.78715 4.34888 7.93575C4.30379 8.01455 4.26199 8.14744 4.31874 8.33183C4.38156 8.53579 4.28327 8.85101 4.23236 8.97617C4.18093 9.04647 3.96334 9.33774 3.75967 9.51157V9.51209ZM3.94054 10.0874C3.94054 10.0874 3.94206 10.0869 3.94459 10.0866C3.94231 10.0871 3.94105 10.0874 3.94054 10.0874ZM4.53101 9.17215L4.5419 9.15695L4.5495 9.1397C4.55178 9.13429 4.60675 9.00784 4.64779 8.83813C4.7058 8.59863 4.70909 8.39209 4.65742 8.22444C4.64298 8.17731 4.64222 8.14151 4.65514 8.11782C4.67388 8.08408 4.72505 8.06116 4.74835 8.05498L4.76685 8.05138L7.24248 6.78768C7.26097 6.7833 7.29491 6.78047 7.30479 6.78665C7.30479 6.78665 7.32607 6.8124 7.32126 6.90795C7.30302 7.29012 7.16952 8.84508 7.14951 9.07841C7.11683 9.14639 6.98156 9.37997 6.62262 9.4871C6.14639 9.62952 4.16624 10.0403 3.95802 10.0835C3.9527 10.0501 3.95093 9.95813 4.02363 9.75648C4.27669 9.52831 4.52012 9.18708 4.53101 9.17215Z" fill="#204A8F"/>
<path d="M7.09175 10.2708C6.88733 10.0887 6.55194 10.1101 6.06659 10.3362C4.97279 10.8458 3.92331 10.8085 3.80299 10.8023C3.76448 10.7943 3.66797 10.7768 3.54765 10.7763C3.33512 10.7753 3.15628 10.8265 3.01949 10.9285C2.90601 11.0132 2.76643 11.1775 2.74515 11.4799C2.69601 12.1816 2.67701 12.6897 2.67676 12.6946V12.7042L2.67701 12.7137C2.67929 12.7466 2.70462 13.0395 2.92703 13.2035C3.02228 13.2738 3.18946 13.3439 3.44354 13.2784C3.49876 13.2643 3.57349 13.2602 3.66544 13.3549C3.85162 13.5471 3.94307 13.9887 3.8995 14.1535C3.8572 14.314 3.92331 14.4157 3.96663 14.4621C4.05883 14.5609 4.21234 14.5895 4.35876 14.5895C4.47249 14.5895 4.58218 14.5723 4.65513 14.5576L6.53522 14.5885H6.54156C6.71811 14.5782 7.05198 14.4108 7.05198 13.8481C7.05198 13.3451 7.20701 11.2092 7.22322 10.9885C7.25109 10.8842 7.33595 10.4884 7.0915 10.271L7.09175 10.2708ZM6.87846 10.9038L6.87264 10.9231L6.87112 10.9432C6.86402 11.0395 6.6976 13.3068 6.6976 13.8481C6.6976 14.1726 6.55549 14.221 6.52205 14.2277L4.64171 14.1968H4.6217L4.60219 14.2007C4.47325 14.2282 4.32 14.2352 4.24857 14.2197C4.3124 13.9187 4.18701 13.3794 3.91825 13.1018C3.75942 12.938 3.55981 12.8764 3.3569 12.9287C3.26014 12.9537 3.18592 12.948 3.13652 12.9122C3.06433 12.86 3.03722 12.7443 3.03165 12.6964C3.03469 12.6171 3.05419 12.1422 3.09878 11.5054C3.10815 11.3714 3.15045 11.278 3.22822 11.2195C3.38021 11.1054 3.6472 11.1353 3.73763 11.1564L3.75131 11.1598L3.7655 11.1608C3.81413 11.1644 4.97101 11.2427 6.21402 10.6635C6.59146 10.4876 6.79385 10.485 6.85769 10.5414C6.92887 10.6045 6.90607 10.8087 6.87821 10.9035L6.87846 10.9038Z" fill="#204A8F"/>
<path d="M10.9271 6.45314C10.9185 5.91799 10.5604 5.84305 10.1072 5.74828C10.0086 5.72768 9.96709 5.71428 9.94987 5.70682C9.94784 5.70244 9.94581 5.69729 9.94404 5.69317C9.90098 5.59041 9.83664 5.46396 9.61296 5.26489C9.4321 5.10394 9.25908 5.10162 9.1456 5.12789C8.76487 5.21622 8.51916 5.75652 8.4804 5.84717C8.44063 5.92572 8.14248 6.5443 8.15362 7.44128C8.1597 7.93548 8.24558 8.19687 8.43176 8.28932C8.47559 8.31121 8.51966 8.31997 8.56146 8.31997C8.61567 8.31997 8.66582 8.30477 8.70635 8.2834C8.96271 8.23035 9.60106 8.12296 9.90858 8.17755C10.3174 8.25018 10.6442 8.05265 10.7833 7.64962C10.8912 7.33672 10.9335 6.82321 10.9277 6.45314H10.9271ZM10.4481 7.53038C10.3922 7.69237 10.2637 7.8747 9.96912 7.82242C9.5162 7.74207 8.64075 7.92878 8.60376 7.93676L8.57818 7.94217C8.55411 7.89092 8.51206 7.75675 8.50801 7.43638C8.49762 6.59375 8.794 6.01508 8.79704 6.00916L8.80363 5.99525C8.86746 5.84382 9.05441 5.5183 9.22489 5.4789C9.25832 5.47118 9.3062 5.47066 9.37941 5.53582C9.56053 5.69703 9.59498 5.77944 9.61777 5.83378C9.6887 6.00375 9.77989 6.04753 10.0357 6.10109C10.5191 6.20204 10.5692 6.23552 10.5728 6.4588C10.5791 6.85231 10.5267 7.30273 10.4484 7.53012L10.4481 7.53038Z" fill="#204A8F"/>
<path d="M9.94769 9.77682C9.92742 9.77785 9.90767 9.77888 9.88892 9.77888C9.84358 9.77888 9.82787 9.77656 9.82382 9.77502C9.80381 9.76163 9.75948 9.69132 9.66195 9.43328C9.44005 8.84662 9.06667 8.95813 9.05071 8.96303L9.04032 8.96663C9.03728 8.96792 8.72976 9.0851 8.32345 9.10132C7.88065 9.11909 7.71575 9.45748 7.71068 9.68926C7.6775 9.95529 7.22939 13.5648 7.2266 13.9977C7.22331 14.5604 7.43964 14.6673 7.95842 14.7059C7.99135 14.7085 8.02403 14.7095 8.0562 14.7095C8.24188 14.7095 8.41312 14.6689 8.55548 14.59C8.6867 14.5174 8.75154 14.4363 8.7632 14.4209L8.7746 14.4057L8.7827 14.3884C9.01068 13.8983 9.2721 13.5782 9.35696 13.5646C9.72123 13.5646 10.1296 13.1806 10.1752 13.1368L10.2248 13.0889L10.2301 13.0196C10.2319 12.9977 10.3955 10.8219 10.4525 10.3686C10.4796 10.1526 10.4477 9.99778 10.3548 9.8958C10.2339 9.76266 10.0617 9.77115 9.94794 9.77656L9.94769 9.77682ZM9.89956 12.6851L7.66483 13.0876C7.6813 12.9357 7.69979 12.7711 7.71929 12.5978L9.93806 12.1883C9.92312 12.3776 9.90995 12.5491 9.89956 12.6851ZM7.85254 11.4575L10.0232 11.141C10.0049 11.357 9.98569 11.5903 9.9677 11.8167L7.76261 12.2236C7.79149 11.9748 7.82189 11.716 7.85279 11.4575H7.85254ZM8.06507 9.70342C8.06684 9.63389 8.09673 9.47139 8.33712 9.46186C8.74648 9.44564 9.06388 9.34108 9.14646 9.31121C9.17686 9.31507 9.25564 9.36426 9.33062 9.56281C9.48894 9.98156 9.57811 10.1397 9.88867 10.1397C9.91425 10.1397 9.93958 10.1384 9.96415 10.1374C10.0024 10.1356 10.0723 10.1322 10.0941 10.142C10.0984 10.1502 10.1161 10.195 10.1002 10.3236C10.0885 10.4163 10.0728 10.5757 10.0551 10.7722L7.89661 11.0869C7.95715 10.5842 8.01618 10.1029 8.06329 9.72454L8.06507 9.71785L8.06456 9.70368L8.06507 9.70342ZM8.72621 13.751C8.60184 13.9488 8.50532 14.144 8.47341 14.2107C8.43845 14.2452 8.28975 14.3693 7.98426 14.3467C7.88673 14.3395 7.68383 14.3243 7.6281 14.2756C7.59568 14.2473 7.58022 14.1574 7.58124 14C7.58174 13.9238 7.59821 13.7302 7.62557 13.461L9.63991 13.0982C9.5396 13.159 9.4365 13.2043 9.35696 13.2043C9.16115 13.2043 8.96078 13.3781 8.72621 13.751Z" fill="#204A8F"/>
<path d="M5.31693 11.4013C4.75129 11.4013 4.29102 11.8693 4.29102 12.4443C4.29102 13.0194 4.75129 13.4873 5.31693 13.4873C5.88258 13.4873 6.34285 13.0194 6.34285 12.4443C6.34285 11.8693 5.88258 11.4013 5.31693 11.4013ZM5.31693 13.1268C4.94684 13.1268 4.64565 12.8206 4.64565 12.4443C4.64565 12.0681 4.94684 11.7619 5.31693 11.7619C5.68702 11.7619 5.98821 12.0681 5.98821 12.4443C5.98821 12.8206 5.68702 13.1268 5.31693 13.1268Z" fill="#204A8F"/>
</g>
<defs>
<clipPath id="clip0_850_12504">
<rect width="19" height="15.1136" fill="white" transform="translate(0 0.443176)"/>
</clipPath>
</defs>
</svg>
