<svg width="17" height="16" viewBox="0 0 17 16" fill="none" xmlns="http://www.w3.org/2000/svg">
<g clip-path="url(#clip0_850_12495)">
<path d="M16.9291 11.1592C16.9182 11.1441 16.9122 11.1112 16.9079 11.0812C16.8646 10.7799 16.6962 10.5503 16.421 10.4174C16.4096 10.4119 16.4056 10.4098 16.3962 10.3899C16.3746 10.343 16.3532 10.2962 16.3315 10.2496C16.2314 10.0315 16.1279 9.80603 16.0139 9.58792C15.8963 9.36293 15.8499 9.18385 15.876 9.05597L15.8798 9.03669L15.8803 9.01694C15.8896 8.45193 15.8156 7.96521 15.6472 7.48469C15.5423 7.18577 15.3942 6.92955 15.2051 6.71695V6.69973C15.2002 6.69973 15.1953 6.69973 15.1901 6.69973C14.9916 6.48163 14.7487 6.31058 14.4625 6.18821C14.3275 6.13059 14.1899 6.07962 14.057 6.03049C13.9983 6.00891 13.9396 5.9871 13.8812 5.96483C13.748 5.91409 13.6126 5.86381 13.4819 5.81514C13.1917 5.70723 12.8917 5.59542 12.6026 5.47535C12.3215 5.35849 12.0347 5.24554 11.7572 5.13602C11.4993 5.03432 11.233 4.92917 10.9729 4.82195C10.8052 4.75284 10.6339 4.68741 10.4683 4.62428C10.3155 4.56596 10.1578 4.50581 10.0048 4.44336C9.74161 4.33592 9.38917 4.21745 8.99926 4.25579C8.71976 4.28334 8.42911 4.36048 8.13512 4.48538C8.10478 4.49823 8.09363 4.49617 8.07355 4.48767C7.91496 4.42086 7.77019 4.36255 7.63122 4.30974C7.53508 4.27324 7.44273 4.21286 7.34481 4.14903C7.22168 4.06868 7.09453 3.98603 6.94151 3.93529C7.07624 3.32734 7.27901 2.73915 7.46035 2.24278C7.47017 2.21569 7.48021 2.1886 7.49024 2.16128C7.61806 1.81552 7.76283 1.42362 7.65063 0.983502C7.61114 0.828531 7.53508 0.604915 7.33232 0.455684C7.08695 0.275 6.79942 0.133575 6.45345 0.0233736C6.40996 0.00959841 6.37003 0.0066138 6.34103 0.00454753C6.33545 0.00408835 6.32988 0.00362918 6.32452 0.00317001C5.93706 -0.0335637 5.68255 0.196481 5.50343 0.400813C5.389 0.531447 5.29398 0.672872 5.20208 0.809705C5.1443 0.895571 5.08988 0.976614 5.03143 1.05467C4.857 1.28678 4.6781 1.50696 4.49943 1.70945C4.04015 2.22946 3.48561 2.63032 2.80416 2.93498C2.7194 2.97286 2.65158 3.02452 2.59649 3.09294C2.20211 3.58425 1.82559 4.13916 1.44504 4.78935C1.10108 5.37732 0.845675 6.04679 0.61659 6.96031C0.539188 7.26934 0.530934 7.53428 0.590492 7.79348C0.633989 7.98266 0.631312 8.1863 0.628636 8.40211L0.62819 8.4393C0.623505 8.81697 0.580454 9.20291 0.538965 9.57598L0.535842 9.60445C0.501267 9.91416 0.437248 10.2331 0.339993 10.5793C0.305865 10.7005 0.266606 10.8192 0.224893 10.9448C0.140353 11.1989 0.0531357 11.4616 0.0158843 11.7426C-0.0550494 12.2778 0.111801 12.6612 0.512197 12.882C0.745743 13.011 0.963898 13.1001 1.17893 13.1548C1.51129 13.239 1.80328 13.1757 2.04709 12.9658C2.31989 12.7312 2.51195 12.4277 2.66631 12.1839C2.99042 11.6719 3.3897 11.0772 3.89471 10.5501C3.90006 10.5446 3.90497 10.5396 3.90943 10.5352C3.91434 10.54 3.91969 10.5458 3.92571 10.5522C4.06602 10.7035 4.23332 10.7852 4.42247 10.7949C4.42939 10.7951 4.4488 10.7976 4.48292 10.8123C4.58932 10.8585 4.69528 10.9055 4.80146 10.9526C4.92191 11.0061 5.0466 11.0614 5.16995 11.1147C5.17285 11.1158 5.17486 11.117 5.1762 11.1177C5.17687 11.1195 5.17798 11.1225 5.1791 11.1266C5.21323 11.2545 5.25249 11.381 5.29063 11.5031L5.29219 11.5077C5.50343 12.1852 5.88821 12.6403 6.46884 12.8986C6.85563 13.0707 7.24666 13.2533 7.62475 13.43C7.93168 13.5735 8.24888 13.7216 8.56317 13.864C8.94082 14.0348 9.32582 14.2044 9.69834 14.3686C10.0381 14.5183 10.3892 14.6728 10.7331 14.8278C11.1607 15.0204 11.6267 15.1811 12.1357 15.0534C12.384 14.9912 12.5935 15.0165 12.8147 15.1356C12.9069 15.1852 13.0017 15.2096 13.0927 15.2096C13.2212 15.2096 13.3418 15.1609 13.436 15.0656C13.4538 15.0475 13.4654 15.041 13.4663 15.0406C13.467 15.0406 13.4833 15.041 13.5301 15.0691C13.5613 15.0877 13.5905 15.0982 13.6117 15.106C13.6171 15.1079 13.6222 15.1097 13.6273 15.1118C13.9805 15.2598 14.274 15.1912 14.5245 14.9024C14.6943 14.7068 14.823 14.4625 14.9178 14.1555C14.9227 14.1397 14.9269 14.1296 14.93 14.1232C14.9318 14.1232 14.934 14.1232 14.9367 14.1234C15.0378 14.1301 15.1366 14.0945 15.2153 14.0233C15.2439 13.9974 15.2749 13.9721 15.3075 13.9455C15.4076 13.8635 15.5198 13.7714 15.6017 13.6314C15.723 13.6787 15.8522 13.6635 15.9862 13.5859C16.1921 13.4665 16.3233 13.2771 16.3759 13.0225C16.3844 12.9814 16.394 12.967 16.3964 12.9635C16.5372 12.8956 16.6315 12.7617 16.6489 12.6054C16.6579 12.5241 16.6927 12.446 16.7326 12.3556C16.7458 12.3257 16.7591 12.2957 16.7716 12.2656C16.8354 12.1113 16.868 11.9559 16.8997 11.8057C16.9238 11.6912 16.9465 11.5828 16.9818 11.4813C17.0186 11.375 16.9989 11.254 16.9291 11.1576V11.1592ZM15.2782 7.65114C15.1462 7.50397 14.9963 7.38367 14.8283 7.29115C14.7333 7.2388 14.6369 7.19793 14.5408 7.16625C14.696 7.13962 14.8517 7.12286 15.0072 7.11643C15.1145 7.26314 15.2017 7.43234 15.2693 7.62519C15.2724 7.63369 15.2751 7.64241 15.278 7.65114H15.2782ZM7.49181 4.69774C7.52304 4.70968 7.55471 4.72185 7.58661 4.73425C7.35618 4.9232 7.01914 5.22923 6.66291 5.65351L6.5777 5.61494V4.95786C6.6493 4.81231 6.89846 4.6144 7.10546 4.48239C7.11372 4.48767 7.12175 4.49295 7.13 4.49823C7.24108 4.57055 7.35596 4.64563 7.49181 4.69728V4.69774ZM5.30045 8.14107C5.22438 8.39086 5.16349 8.64524 5.11687 8.90307L4.71759 8.79493L4.08409 9.08926L3.68302 7.92848C3.61477 7.73103 3.62681 7.50971 3.71604 7.32122L4.41422 5.84636C4.50701 5.65007 4.66851 5.50244 4.86882 5.43058L5.39346 5.24209C5.55764 5.18309 5.7372 5.1785 5.9132 5.22855C6.01558 5.2577 6.10258 5.26758 6.17641 5.2639V5.88493L6.39992 5.98595C6.36534 6.03233 6.33077 6.07939 6.29619 6.12783C5.85208 6.75231 5.51726 7.42959 5.30067 8.14084L5.30045 8.14107ZM4.79633 1.98817C4.98214 1.77764 5.16817 1.54897 5.34885 1.30814C5.41398 1.22158 5.47399 1.13204 5.53198 1.04549C5.62054 0.913708 5.70419 0.789043 5.80122 0.678153C5.98101 0.472903 6.11708 0.399206 6.28727 0.415277C6.29553 0.415965 6.30378 0.416654 6.31225 0.417343C6.32073 0.418032 6.33188 0.418721 6.33701 0.419639C6.63993 0.516295 6.88909 0.638205 7.09855 0.792486C7.17439 0.848276 7.22324 0.937126 7.26205 1.08911C7.34169 1.40135 7.23149 1.69935 7.11483 2.01503C7.10457 2.04281 7.09431 2.07036 7.08427 2.09814C6.89534 2.61609 6.68321 3.2323 6.54312 3.8756C6.49249 4.10794 6.58885 4.22204 6.68276 4.27737C6.54625 4.37977 6.39813 4.50948 6.29486 4.65114L3.19496 3.20566C3.82556 2.89205 4.35154 2.49234 4.79655 1.9884L4.79633 1.98817ZM1.789 5.00309C2.12784 4.42408 2.46265 3.92404 2.80929 3.4791L5.60493 4.78269C5.4876 4.78889 5.37205 4.81185 5.26096 4.8518L4.73632 5.04029C4.43541 5.14842 4.19272 5.37043 4.05331 5.66522L3.35512 7.14008C3.21905 7.42752 3.20054 7.76547 3.30471 8.06669L3.60339 8.93131L0.953637 7.45277C0.953191 7.3327 0.96992 7.20528 1.00539 7.06409C1.22421 6.19097 1.46579 5.55525 1.789 5.00309ZM2.32993 11.9589C2.15237 12.2396 1.9998 12.4688 1.78967 12.6492C1.64558 12.7732 1.48207 12.8065 1.27507 12.7539C1.09305 12.7078 0.905456 12.6306 0.7018 12.5181C0.451078 12.3797 0.364976 12.1646 0.413381 11.7986C0.445279 11.5573 0.522681 11.325 0.604545 11.0786C0.646034 10.954 0.688862 10.8249 0.725668 10.6941C0.829168 10.3256 0.897425 9.98442 0.934677 9.65152L0.937799 9.62305C0.980627 9.23964 1.02479 8.84292 1.0297 8.44436L1.03015 8.40762C1.03193 8.26092 1.03394 8.111 1.021 7.96016L3.75217 9.48415L3.68325 10.0694L3.58398 10.2866C3.06581 10.8332 2.65939 11.4377 2.32971 11.9586L2.32993 11.9589ZM4.63862 10.4321C4.57014 10.4025 4.50411 10.3857 4.4421 10.3827C4.35556 10.3784 4.28574 10.3428 4.21592 10.2675C4.17599 10.2243 4.13071 10.1809 4.07851 10.1488L4.15368 9.51032L4.75305 9.23184L5.05508 9.31357C5.00489 9.7344 4.99284 10.164 5.01894 10.5999C4.99931 10.5912 4.97946 10.5825 4.96005 10.5738C4.85298 10.5262 4.74591 10.4787 4.6384 10.4321H4.63862ZM9.85604 13.9893C9.48442 13.8256 9.10031 13.6564 8.72445 13.4863C8.41238 13.3451 8.09608 13.1972 7.79026 13.0544C7.41061 12.877 7.0178 12.6935 6.62766 12.52C6.15968 12.3117 5.84762 11.9396 5.67385 11.3821L5.67229 11.3773C5.63549 11.2593 5.59734 11.1372 5.56567 11.0178C5.54225 10.9294 5.49897 10.8585 5.43718 10.8045C5.35621 9.92702 5.43741 9.07595 5.68032 8.27377C5.88197 7.60729 6.19492 6.97156 6.61049 6.38451C7.19826 5.55387 7.8293 5.05429 8.03586 4.90253C8.11906 4.91516 8.20226 4.90391 8.28791 4.86741C8.5451 4.75812 8.79717 4.69063 9.03696 4.66721C9.27496 4.64379 9.52747 4.69338 9.85626 4.82746C10.0135 4.89174 10.1737 4.95281 10.3285 5.01182C10.4915 5.07403 10.6604 5.13832 10.823 5.20536C11.0858 5.31372 11.3537 5.41956 11.6131 5.52173C11.8888 5.63055 12.1741 5.74305 12.4518 5.8583C12.7476 5.98113 13.0512 6.09408 13.3447 6.20337C13.475 6.25181 13.6097 6.30186 13.7413 6.35214C13.8009 6.37487 13.8609 6.39691 13.9209 6.41918C14.0494 6.4667 14.1823 6.51583 14.3081 6.56956C14.419 6.61685 14.5209 6.67287 14.6148 6.7367C14.1076 6.80603 13.6037 6.97133 13.127 7.22043C13.1221 7.22227 13.1183 7.22388 13.1165 7.22457L13.117 7.22571C12.5205 7.5391 11.9675 7.98335 11.5054 8.5355C10.7255 9.46739 10.287 10.7271 10.3026 11.9912C10.3144 12.9651 10.5908 13.855 11.0771 14.5282C11.0153 14.5034 10.9542 14.477 10.8937 14.4496C10.5484 14.294 10.1964 14.139 9.85582 13.9891L9.85604 13.9893ZM11.0985 13.7728C10.8505 13.2544 10.7124 12.6426 10.7043 11.9862C10.6932 11.0747 10.9374 10.1669 11.3876 9.40448L12.6024 9.79271C12.425 10.0099 12.2794 10.3582 12.1625 10.8428C12.0748 11.2063 12.0244 11.5628 11.9988 11.7805L11.0987 11.6723V13.7726L11.0985 13.7728ZM12.0405 14.6526C11.9437 14.6769 11.8471 14.6868 11.751 14.6856C11.5 14.4478 11.2894 14.1571 11.1246 13.8265L12.016 14.1317L12.1667 14.6264C12.1253 14.6333 12.0831 14.642 12.0405 14.6528V14.6526ZM14.2513 14.4896C14.2513 14.6161 14.1511 14.7192 14.0282 14.7192C13.9053 14.7192 13.8051 14.6161 13.8051 14.4896V12.1019C13.8051 11.9754 13.9053 11.8723 14.0282 11.8723C14.1511 11.8723 14.2513 11.9754 14.2513 12.1019V14.4896ZM16.5075 11.7196C16.4785 11.8572 16.4513 11.9869 16.4025 12.1053C16.3913 12.1322 16.3795 12.1588 16.3679 12.1852C16.3204 12.2922 16.2666 12.4134 16.2503 12.5599C16.2492 12.5691 16.2443 12.5822 16.2262 12.5907C16.1004 12.6508 16.0188 12.7677 15.9836 12.9376C15.9548 13.0767 15.895 13.1658 15.7895 13.2269C15.7567 13.2459 15.744 13.2457 15.744 13.2457C15.744 13.2457 15.7424 13.2452 15.7391 13.2434C15.6258 13.1814 15.5307 13.192 15.471 13.2117C15.411 13.2315 15.3273 13.2797 15.27 13.3974C15.2278 13.4842 15.1491 13.5485 15.0578 13.6231C15.0242 13.6507 14.9891 13.6794 14.9535 13.7115C14.8711 13.7078 14.7505 13.7235 14.6532 13.8224V12.1019C14.6532 11.7474 14.373 11.459 14.0286 11.459C13.6842 11.459 13.4041 11.7474 13.4041 12.1019V14.4896C13.4041 14.5383 13.4094 14.5856 13.4195 14.631C13.3251 14.642 13.2368 14.6889 13.1549 14.7715C13.1094 14.8177 13.0391 14.7903 13.0012 14.7699C12.8636 14.696 12.7271 14.648 12.5874 14.6246L12.3378 13.8059L11.5005 13.5194V12.1368L12.3599 12.2399L12.3773 12.0273C12.3778 12.0218 12.423 11.4786 12.5538 10.9383C12.7489 10.1311 12.9709 9.97133 13.0679 9.94172L13.4041 10.0492V10.8738L15.3063 11.4953L15.4279 11.1014L13.8058 10.5712V9.7445L11.6227 9.04656C11.6827 8.96368 11.7454 8.88309 11.8107 8.80503C12.2348 8.29834 12.74 7.89036 13.2838 7.60178C13.3947 7.56068 14.0619 7.33614 14.6398 7.65481C15.0514 7.88187 15.3327 8.34058 15.4763 9.01832C15.4462 9.23643 15.5066 9.48713 15.6612 9.78307C15.7449 9.94309 15.8238 10.11 15.9004 10.2753L15.0342 10.0464L13.6075 8.16357L13.291 8.41772L14.802 10.4117L16.2666 10.799C16.4109 10.8731 16.489 10.9824 16.512 11.1413C16.5225 11.215 16.5405 11.3002 16.5921 11.3819C16.5555 11.4958 16.5316 11.6094 16.5084 11.7196H16.5075Z" fill="#204A8F"/>
<path d="M2.13883 10.811C1.84684 10.6374 1.4208 10.8743 1.14732 11.3617C0.873847 11.8492 0.8879 12.3476 1.17967 12.5209C1.24413 12.5593 1.31506 12.5774 1.38957 12.5774C1.65233 12.5774 1.95815 12.3499 2.17118 11.9702C2.44465 11.4827 2.4306 10.9843 2.13883 10.811ZM1.82342 11.7635C1.64341 12.0843 1.42124 12.1873 1.38042 12.163C1.3396 12.1387 1.31506 11.8891 1.49508 11.5684C1.65836 11.2773 1.85666 11.1655 1.92224 11.1655C1.92893 11.1655 1.93428 11.1666 1.93808 11.1689C1.9789 11.1932 2.00343 11.4428 1.82342 11.7635Z" fill="#204A8F"/>
<path d="M5.99803 2.6485C6.06249 2.68684 6.13342 2.70498 6.20793 2.70498C6.47069 2.70498 6.77651 2.47746 6.98954 2.09772C7.26301 1.61031 7.24896 1.11188 6.95719 0.938544C6.6652 0.764977 6.23915 1.00191 5.96568 1.48932C5.69221 1.97673 5.70626 2.47516 5.99803 2.6485ZM6.31343 1.69595C6.47672 1.40483 6.67502 1.29302 6.7406 1.29302C6.74729 1.29302 6.75264 1.29417 6.75644 1.29647C6.79726 1.3208 6.82179 1.57036 6.64178 1.8911C6.46177 2.21183 6.2396 2.31491 6.19878 2.29058C6.15796 2.26624 6.13342 2.01668 6.31343 1.69595Z" fill="#204A8F"/>
<path d="M5.85543 5.27887C5.8358 5.29402 5.36938 5.65723 4.92927 6.22844C4.33214 7.00352 4.07562 7.79169 4.18782 8.50754L4.5842 8.44165C4.35489 6.97804 6.07916 5.62256 6.09678 5.60924L5.9761 5.44417L5.85565 5.27887H5.85543Z" fill="#204A8F"/>
</g>
<defs>
<clipPath id="clip0_850_12495">
<rect width="17" height="15.2105" fill="white"/>
</clipPath>
</defs>
</svg>
