<svg width="17" height="16" viewBox="0 0 17 16" fill="none" xmlns="http://www.w3.org/2000/svg">
<g clip-path="url(#clip0_850_12486)">
<path d="M16.9291 11.5537C16.9182 11.5386 16.9122 11.5058 16.9079 11.4757C16.8646 11.1745 16.6962 10.9449 16.421 10.8119C16.4096 10.8064 16.4056 10.8044 16.3962 10.7844C16.3746 10.7376 16.3532 10.6907 16.3315 10.6441C16.2314 10.426 16.1279 10.2006 16.0139 9.98245C15.8963 9.75746 15.8499 9.57838 15.876 9.4505L15.8798 9.43122L15.8803 9.41147C15.8896 8.84646 15.8156 8.35974 15.6472 7.87922C15.5423 7.5803 15.3942 7.32408 15.2051 7.11148V7.09426C15.2002 7.09426 15.1953 7.09426 15.1901 7.09426C14.9916 6.87616 14.7487 6.70512 14.4625 6.58275C14.3275 6.52512 14.1899 6.47415 14.057 6.42502C13.9983 6.40344 13.9396 6.38163 13.8812 6.35936C13.748 6.30862 13.6126 6.25834 13.4819 6.20967C13.1917 6.10176 12.8917 5.98996 12.6026 5.86988C12.3215 5.75302 12.0347 5.64007 11.7572 5.53055C11.4993 5.42885 11.233 5.3237 10.9729 5.21648C10.8052 5.14738 10.6339 5.08194 10.4683 5.01881C10.3155 4.96049 10.1578 4.90034 10.0048 4.83789C9.74161 4.73045 9.38917 4.61198 8.99926 4.65032C8.71976 4.67787 8.42911 4.75501 8.13512 4.87991C8.10478 4.89276 8.09363 4.8907 8.07355 4.8822C7.91496 4.81539 7.77019 4.75708 7.63122 4.70427C7.53508 4.66777 7.44273 4.60739 7.34481 4.54356C7.22168 4.46321 7.09453 4.38056 6.94151 4.32982C7.07624 3.72188 7.27901 3.13368 7.46035 2.63731C7.47017 2.61022 7.48021 2.58313 7.49024 2.55581C7.61806 2.21005 7.76283 1.81815 7.65063 1.37803C7.61114 1.22306 7.53508 0.999446 7.33232 0.850215C7.08695 0.669531 6.79942 0.528106 6.45345 0.417905C6.40996 0.40413 6.37003 0.401145 6.34103 0.399079C6.33545 0.39862 6.32988 0.39816 6.32452 0.397701C5.93706 0.360968 5.68255 0.591013 5.50343 0.795344C5.389 0.925978 5.29398 1.0674 5.20208 1.20424C5.1443 1.2901 5.08988 1.37115 5.03143 1.4492C4.857 1.68132 4.6781 1.90149 4.49943 2.10398C4.04015 2.624 3.48561 3.02485 2.80416 3.32951C2.7194 3.3674 2.65158 3.41905 2.59649 3.48747C2.20211 3.97878 1.82559 4.53369 1.44504 5.18388C1.10108 5.77185 0.845675 6.44132 0.61659 7.35484C0.539188 7.66387 0.530934 7.92881 0.590492 8.18801C0.633989 8.37719 0.631312 8.58083 0.628636 8.79664L0.62819 8.83384C0.623505 9.2115 0.580454 9.59744 0.538965 9.97052L0.535842 9.99898C0.501267 10.3087 0.437248 10.6276 0.339993 10.9738C0.305865 11.095 0.266606 11.2137 0.224893 11.3393C0.140353 11.5935 0.0531357 11.8561 0.0158843 12.1371C-0.0550494 12.6723 0.111801 13.0557 0.512197 13.2766C0.745743 13.4056 0.963898 13.4947 1.17893 13.5493C1.51129 13.6336 1.80328 13.5702 2.04709 13.3604C2.31989 13.1257 2.51195 12.8222 2.66631 12.5784C2.99042 12.0664 3.3897 11.4718 3.89471 10.9446C3.90006 10.9391 3.90497 10.9341 3.90943 10.9297C3.91434 10.9345 3.91969 10.9403 3.92571 10.9467C4.06602 11.098 4.23332 11.1797 4.42247 11.1894C4.42939 11.1896 4.4488 11.1921 4.48292 11.2068C4.58932 11.253 4.69528 11.3 4.80146 11.3471C4.92191 11.4006 5.0466 11.4559 5.16995 11.5092C5.17285 11.5103 5.17486 11.5115 5.1762 11.5122C5.17687 11.514 5.17798 11.517 5.1791 11.5211C5.21323 11.649 5.25249 11.7755 5.29063 11.8977L5.29219 11.9023C5.50343 12.5798 5.88821 13.0348 6.46884 13.2931C6.85563 13.4653 7.24666 13.6478 7.62475 13.8246C7.93168 13.9681 8.24888 14.1161 8.56317 14.2585C8.94082 14.4293 9.32582 14.599 9.69834 14.7631C10.0381 14.9128 10.3892 15.0673 10.7331 15.2223C11.1607 15.4149 11.6267 15.5756 12.1357 15.448C12.384 15.3858 12.5935 15.411 12.8147 15.5302C12.9069 15.5798 13.0017 15.6041 13.0927 15.6041C13.2212 15.6041 13.3418 15.5554 13.436 15.4601C13.4538 15.442 13.4654 15.4356 13.4663 15.4351C13.467 15.4351 13.4833 15.4356 13.5301 15.4636C13.5613 15.4822 13.5905 15.4927 13.6117 15.5006C13.6171 15.5024 13.6222 15.5042 13.6273 15.5063C13.9805 15.6544 14.274 15.5857 14.5245 15.2969C14.6943 15.1013 14.823 14.857 14.9178 14.5501C14.9227 14.5342 14.9269 14.5241 14.93 14.5177C14.9318 14.5177 14.934 14.5177 14.9367 14.5179C15.0378 14.5246 15.1366 14.489 15.2153 14.4178C15.2439 14.3919 15.2749 14.3666 15.3075 14.34C15.4076 14.258 15.5198 14.166 15.6017 14.0259C15.723 14.0732 15.8522 14.0581 15.9862 13.9805C16.1921 13.8611 16.3233 13.6717 16.3759 13.4171C16.3844 13.376 16.394 13.3615 16.3964 13.3581C16.5372 13.2901 16.6315 13.1563 16.6489 12.9999C16.6579 12.9186 16.6927 12.8406 16.7326 12.7501C16.7458 12.7203 16.7591 12.6902 16.7716 12.6601C16.8354 12.5058 16.868 12.3504 16.8997 12.2003C16.9238 12.0857 16.9465 11.9773 16.9818 11.8758C17.0186 11.7696 16.9989 11.6486 16.9291 11.5521V11.5537ZM15.2782 8.04567C15.1462 7.8985 14.9963 7.7782 14.8283 7.68568C14.7333 7.63333 14.6369 7.59247 14.5408 7.56078C14.696 7.53415 14.8517 7.51739 15.0072 7.51096C15.1145 7.65767 15.2017 7.82687 15.2693 8.01972C15.2724 8.02822 15.2751 8.03694 15.278 8.04567H15.2782ZM7.49181 5.09227C7.52304 5.10421 7.55471 5.11638 7.58661 5.12878C7.35618 5.31773 7.01914 5.62377 6.66291 6.04804L6.5777 6.00947V5.3524C6.6493 5.20684 6.89846 5.00893 7.10546 4.87692C7.11372 4.8822 7.12175 4.88748 7.13 4.89276C7.24108 4.96508 7.35596 5.04016 7.49181 5.09182V5.09227ZM5.30045 8.5356C5.22438 8.78539 5.16349 9.03977 5.11687 9.2976L4.71759 9.18946L4.08409 9.48379L3.68302 8.32301C3.61477 8.12556 3.62681 7.90424 3.71604 7.71575L4.41422 6.24089C4.50701 6.0446 4.66851 5.89697 4.86882 5.82511L5.39346 5.63662C5.55764 5.57762 5.7372 5.57303 5.9132 5.62308C6.01558 5.65223 6.10258 5.66211 6.17641 5.65843V6.27946L6.39992 6.38048C6.36534 6.42686 6.33077 6.47392 6.29619 6.52237C5.85208 7.14684 5.51726 7.82412 5.30067 8.53537L5.30045 8.5356ZM4.79633 2.3827C4.98214 2.17217 5.16817 1.9435 5.34885 1.70267C5.41398 1.61611 5.47399 1.52658 5.53198 1.44002C5.62054 1.30824 5.70419 1.18357 5.80122 1.07268C5.98101 0.867434 6.11708 0.793737 6.28727 0.809808C6.29553 0.810497 6.30378 0.811186 6.31225 0.811874C6.32073 0.812563 6.33188 0.813252 6.33701 0.81417C6.63993 0.910826 6.88909 1.03274 7.09855 1.18702C7.17439 1.24281 7.22324 1.33166 7.26205 1.48364C7.34169 1.79588 7.23149 2.09388 7.11483 2.40956C7.10457 2.43734 7.09431 2.46489 7.08427 2.49267C6.89534 3.01062 6.68321 3.62683 6.54312 4.27013C6.49249 4.50247 6.58885 4.61657 6.68276 4.6719C6.54625 4.7743 6.39813 4.90401 6.29486 5.04567L3.19496 3.6002C3.82556 3.28658 4.35154 2.88687 4.79655 2.38293L4.79633 2.3827ZM1.789 5.39762C2.12784 4.81861 2.46265 4.31857 2.80929 3.87363L5.60493 5.17722C5.4876 5.18342 5.37205 5.20638 5.26096 5.24633L4.73632 5.43482C4.43541 5.54295 4.19272 5.76496 4.05331 6.05975L3.35512 7.53461C3.21905 7.82205 3.20054 8.16 3.30471 8.46122L3.60339 9.32584L0.953637 7.84731C0.953191 7.72723 0.96992 7.59981 1.00539 7.45862C1.22421 6.5855 1.46579 5.94978 1.789 5.39762ZM2.32993 12.3534C2.15237 12.6342 1.9998 12.8633 1.78967 13.0438C1.64558 13.1677 1.48207 13.201 1.27507 13.1484C1.09305 13.1023 0.905456 13.0252 0.7018 12.9127C0.451078 12.7742 0.364976 12.5591 0.413381 12.1931C0.445279 11.9518 0.522681 11.7195 0.604545 11.4732C0.646034 11.3485 0.688862 11.2195 0.725668 11.0886C0.829168 10.7201 0.897425 10.379 0.934677 10.0461L0.937799 10.0176C0.980627 9.63417 1.02479 9.23745 1.0297 8.83889L1.03015 8.80215C1.03193 8.65545 1.03394 8.50553 1.021 8.35469L3.75217 9.87868L3.68325 10.4639L3.58398 10.6811C3.06581 11.2277 2.65939 11.8322 2.32971 12.3532L2.32993 12.3534ZM4.63862 10.8266C4.57014 10.797 4.50411 10.7803 4.4421 10.7773C4.35556 10.7729 4.28574 10.7373 4.21592 10.662C4.17599 10.6189 4.13071 10.5755 4.07851 10.5433L4.15368 9.90485L4.75305 9.62637L5.05508 9.7081C5.00489 10.1289 4.99284 10.5585 5.01894 10.9945C4.99931 10.9857 4.97946 10.977 4.96005 10.9683C4.85298 10.9208 4.74591 10.8732 4.6384 10.8266H4.63862ZM9.85604 14.3838C9.48442 14.2202 9.10031 14.0509 8.72445 13.8808C8.41238 13.7396 8.09608 13.5918 7.79026 13.449C7.41061 13.2715 7.0178 13.0881 6.62766 12.9145C6.15968 12.7063 5.84762 12.3341 5.67385 11.7767L5.67229 11.7718C5.63549 11.6538 5.59734 11.5317 5.56567 11.4123C5.54225 11.3239 5.49897 11.253 5.43718 11.199C5.35621 10.3216 5.43741 9.47048 5.68032 8.6683C5.88197 8.00182 6.19492 7.36609 6.61049 6.77904C7.19826 5.9484 7.8293 5.44882 8.03586 5.29707C8.11906 5.30969 8.20226 5.29844 8.28791 5.26194C8.5451 5.15266 8.79717 5.08516 9.03696 5.06174C9.27496 5.03832 9.52747 5.08791 9.85626 5.22199C10.0135 5.28627 10.1737 5.34734 10.3285 5.40635C10.4915 5.46857 10.6604 5.53285 10.823 5.59989C11.0858 5.70825 11.3537 5.81409 11.6131 5.91626C11.8888 6.02508 12.1741 6.13758 12.4518 6.25283C12.7476 6.37566 13.0512 6.48862 13.3447 6.5979C13.475 6.64634 13.6097 6.69639 13.7413 6.74667C13.8009 6.7694 13.8609 6.79144 13.9209 6.81371C14.0494 6.86123 14.1823 6.91037 14.3081 6.96409C14.419 7.01138 14.5209 7.0674 14.6148 7.13123C14.1076 7.20056 13.6037 7.36586 13.127 7.61496C13.1221 7.6168 13.1183 7.61841 13.1165 7.6191L13.117 7.62024C12.5205 7.93363 11.9675 8.37788 11.5054 8.93003C10.7255 9.86192 10.287 11.1217 10.3026 12.3858C10.3144 13.3597 10.5908 14.2495 11.0771 14.9227C11.0153 14.8979 10.9542 14.8715 10.8937 14.8442C10.5484 14.6885 10.1964 14.5335 9.85582 14.3836L9.85604 14.3838ZM11.0985 14.1673C10.8505 13.6489 10.7124 13.0371 10.7043 12.3807C10.6932 11.4693 10.9374 10.5615 11.3876 9.79902L12.6024 10.1872C12.425 10.4044 12.2794 10.7527 12.1625 11.2374C12.0748 11.6008 12.0244 11.9574 11.9988 12.175L11.0987 12.0669V14.1671L11.0985 14.1673ZM12.0405 15.0471C11.9437 15.0715 11.8471 15.0813 11.751 15.0802C11.5 14.8423 11.2894 14.5517 11.1246 14.2211L12.016 14.5262L12.1667 15.0209C12.1253 15.0278 12.0831 15.0366 12.0405 15.0473V15.0471ZM14.2513 14.8841C14.2513 15.0106 14.1511 15.1137 14.0282 15.1137C13.9053 15.1137 13.8051 15.0106 13.8051 14.8841V12.4964C13.8051 12.3699 13.9053 12.2668 14.0282 12.2668C14.1511 12.2668 14.2513 12.3699 14.2513 12.4964V14.8841ZM16.5075 12.1142C16.4785 12.2517 16.4513 12.3814 16.4025 12.4999C16.3913 12.5267 16.3795 12.5534 16.3679 12.5798C16.3204 12.6867 16.2666 12.808 16.2503 12.9544C16.2492 12.9636 16.2443 12.9767 16.2262 12.9852C16.1004 13.0454 16.0188 13.1622 15.9836 13.3321C15.9548 13.4712 15.895 13.5603 15.7895 13.6214C15.7567 13.6404 15.744 13.6402 15.744 13.6402C15.744 13.6402 15.7424 13.6398 15.7391 13.6379C15.6258 13.5759 15.5307 13.5865 15.471 13.6062C15.411 13.626 15.3273 13.6742 15.27 13.792C15.2278 13.8788 15.1491 13.943 15.0578 14.0177C15.0242 14.0452 14.9891 14.0739 14.9535 14.106C14.8711 14.1024 14.7505 14.118 14.6532 14.2169V12.4964C14.6532 12.1419 14.373 11.8536 14.0286 11.8536C13.6842 11.8536 13.4041 12.1419 13.4041 12.4964V14.8841C13.4041 14.9328 13.4094 14.9801 13.4195 15.0255C13.3251 15.0366 13.2368 15.0834 13.1549 15.166C13.1094 15.2122 13.0391 15.1849 13.0012 15.1644C12.8636 15.0905 12.7271 15.0425 12.5874 15.0191L12.3378 14.2004L11.5005 13.9139V12.5313L12.3599 12.6344L12.3773 12.4218C12.3778 12.4163 12.423 11.8731 12.5538 11.3329C12.7489 10.5257 12.9709 10.3659 13.0679 10.3362L13.4041 10.4437V11.2684L15.3063 11.8899L15.4279 11.4959L13.8058 10.9658V10.139L11.6227 9.44109C11.6827 9.35821 11.7454 9.27763 11.8107 9.19957C12.2348 8.69287 12.74 8.2849 13.2838 7.99631C13.3947 7.95521 14.0619 7.73068 14.6398 8.04934C15.0514 8.2764 15.3327 8.73511 15.4763 9.41285C15.4462 9.63096 15.5066 9.88167 15.6612 10.1776C15.7449 10.3376 15.8238 10.5045 15.9004 10.6698L15.0342 10.4409L13.6075 8.5581L13.291 8.81225L14.802 10.8062L16.2666 11.1935C16.4109 11.2677 16.489 11.377 16.512 11.5358C16.5225 11.6095 16.5405 11.6947 16.5921 11.7764C16.5555 11.8903 16.5316 12.004 16.5084 12.1142H16.5075Z" fill="#204A8F"/>
<path d="M2.13883 11.2055C1.84684 11.0319 1.4208 11.2689 1.14732 11.7563C0.873847 12.2437 0.8879 12.7421 1.17967 12.9155C1.24413 12.9538 1.31506 12.9719 1.38957 12.9719C1.65233 12.9719 1.95815 12.7444 2.17118 12.3647C2.44465 11.8773 2.4306 11.3788 2.13883 11.2055ZM1.82342 12.1581C1.64341 12.4788 1.42124 12.5819 1.38042 12.5575C1.3396 12.5332 1.31506 12.2836 1.49508 11.9629C1.65836 11.6718 1.85666 11.56 1.92224 11.56C1.92893 11.56 1.93428 11.5611 1.93808 11.5634C1.9789 11.5878 2.00343 11.8373 1.82342 12.1581Z" fill="#204A8F"/>
<path d="M5.99803 3.04304C6.06249 3.08138 6.13342 3.09951 6.20793 3.09951C6.47069 3.09951 6.77651 2.87199 6.98954 2.49226C7.26301 2.00485 7.24896 1.50642 6.95719 1.33308C6.6652 1.15951 6.23915 1.39644 5.96568 1.88386C5.69221 2.37127 5.70626 2.8697 5.99803 3.04304ZM6.31343 2.09048C6.47672 1.79937 6.67502 1.68756 6.7406 1.68756C6.74729 1.68756 6.75264 1.68871 6.75644 1.691C6.79726 1.71534 6.82179 1.9649 6.64178 2.28563C6.46177 2.60636 6.2396 2.70945 6.19878 2.68511C6.15796 2.66077 6.13342 2.41121 6.31343 2.09048Z" fill="#204A8F"/>
<path d="M5.85543 5.6734C5.8358 5.68855 5.36938 6.05176 4.92927 6.62297C4.33214 7.39805 4.07562 8.18622 4.18782 8.90207L4.5842 8.83618C4.35489 7.37257 6.07916 6.01709 6.09678 6.00378L5.9761 5.8387L5.85565 5.6734H5.85543Z" fill="#204A8F"/>
</g>
<defs>
<clipPath id="clip0_850_12486">
<rect width="17" height="15.2105" fill="white" transform="translate(0 0.394531)"/>
</clipPath>
</defs>
</svg>
