<svg width="13" height="14" viewBox="0 0 13 14" fill="none" xmlns="http://www.w3.org/2000/svg">
<path d="M9.89455 13.5H9.88312C7.66229 13.4989 5.31862 13.4961 2.28338 13.4912H2.24351C2.09136 13.4912 1.93382 13.4912 1.77391 13.4649C1.2541 13.3799 0.820062 13.1292 0.483651 12.7197C0.222452 12.4019 0.0782762 12.082 0.0429326 11.7417C0.0252607 11.5712 0.0153473 11.3866 0.0131922 11.1773C0.00564932 10.4765 -0.000600477 9.84461 4.60534e-05 9.20619C0.00198564 7.20687 0.00651136 5.09221 0.0131922 2.74166C0.0136232 2.57176 0.0142697 2.37923 0.0534926 2.18949C0.170299 1.6246 0.475246 1.1755 0.959928 0.855104C1.26811 0.65114 1.5612 0.544415 1.85559 0.528676C2.05343 0.518111 2.25256 0.515955 2.44501 0.513799C2.53703 0.512721 2.62884 0.511858 2.72086 0.509918C2.79629 0.508409 2.87172 0.505821 2.94715 0.50345C2.98228 0.502372 3.0174 0.501078 3.05253 0.5H3.05943H10.3853L10.3973 0.501294C10.4075 0.502372 10.4178 0.503665 10.4279 0.504959C10.4417 0.506684 10.4549 0.508409 10.4628 0.508624C10.5133 0.510349 10.5637 0.512074 10.6141 0.513799C10.7551 0.518758 10.901 0.524148 11.043 0.525657C11.4484 0.530185 11.8307 0.674857 12.1792 0.955577C12.7026 1.37709 12.9733 1.92193 12.9837 2.57457C12.9856 2.70479 12.9899 2.83804 12.994 2.96676C12.996 3.02756 12.9979 3.08814 12.9996 3.14894V3.15541V10.7883L12.9988 10.7978C12.9977 10.8105 12.9964 10.8235 12.9951 10.8362C12.9929 10.8582 12.9908 10.8789 12.9903 10.8963C12.9882 10.9658 12.9867 11.0352 12.9852 11.1046C12.9822 11.2532 12.9789 11.4067 12.9686 11.5598C12.9591 11.7027 12.9447 11.8683 12.8944 12.0257C12.7651 12.4293 12.5358 12.7637 12.2128 13.0194C11.8333 13.3198 11.4449 13.4709 11.0255 13.481C10.6557 13.4901 10.2732 13.4996 9.89412 13.4996L9.89455 13.5ZM3.06288 0.952774C3.02926 0.953852 2.99564 0.95493 2.96202 0.956008C2.88486 0.958595 2.8075 0.961182 2.73013 0.962692C2.63681 0.964632 2.54328 0.96571 2.44997 0.966788C2.26204 0.968944 2.06787 0.9711 1.87951 0.981018C1.66486 0.992445 1.45194 1.07244 1.20927 1.23285C0.828036 1.48489 0.588173 1.83762 0.496581 2.28134C0.466625 2.42623 0.466194 2.58729 0.465763 2.74296C0.458867 5.09328 0.454557 7.20774 0.452617 9.20663C0.451971 9.84245 0.458221 10.4731 0.465763 11.1723C0.467919 11.3674 0.476754 11.5384 0.493133 11.6947C0.518994 11.944 0.630413 12.1852 0.833424 12.4323C1.09785 12.7542 1.43901 12.9513 1.84718 13.0181C1.97089 13.0384 2.10342 13.0384 2.24394 13.0384H2.28445C5.31927 13.0433 7.66294 13.0461 9.88356 13.0472C10.2601 13.0466 10.6443 13.038 11.015 13.0289C11.3326 13.0211 11.6329 12.9019 11.9326 12.6647C12.1839 12.4657 12.3628 12.2044 12.4641 11.8879C12.4988 11.7792 12.5095 11.6516 12.5177 11.5302C12.5272 11.3873 12.5302 11.2389 12.5333 11.0956C12.5348 11.0246 12.5363 10.9535 12.5384 10.8825C12.5395 10.8495 12.5425 10.8189 12.5451 10.7918C12.546 10.7842 12.5466 10.7767 12.5473 10.7691V3.15908C12.5455 3.1 12.5436 3.04071 12.5419 2.98163C12.5378 2.85097 12.5335 2.71579 12.5313 2.58211C12.5231 2.06315 12.3152 1.6466 11.8956 1.30874C11.6242 1.09033 11.3436 0.982312 11.038 0.978862C10.8904 0.977137 10.7419 0.971963 10.5982 0.966788C10.5482 0.965063 10.4982 0.963123 10.4482 0.961614C10.4187 0.960536 10.3919 0.957302 10.3704 0.954499C10.3669 0.954067 10.3635 0.953636 10.36 0.953205H3.06288V0.952774ZM2.61461 12.7404C2.25385 12.7404 1.92024 12.6287 1.59482 12.3989C1.19074 12.1136 0.9248 11.7133 0.804114 11.2087C0.791399 11.1559 0.791399 11.1081 0.791399 11.0731C0.791184 9.93904 0.790968 8.80517 0.790968 7.67129V6.87096C0.790968 6.54388 0.791184 6.21659 0.791615 5.88952C0.792477 5.00812 0.793554 4.09696 0.786658 3.20112C0.784072 2.87124 0.861224 2.57306 1.02199 2.28932C1.29612 1.80614 1.69266 1.4974 2.20062 1.37191C2.38833 1.32556 2.57604 1.32426 2.7575 1.32297C3.98957 1.31478 5.06949 1.31047 6.06127 1.30982C6.60759 1.3096 7.16296 1.31068 7.70001 1.31176C8.56916 1.31348 9.46805 1.31542 10.3514 1.3109C10.3547 1.3109 10.3579 1.3109 10.3611 1.3109C10.8137 1.3109 11.218 1.47497 11.5969 1.81218C11.891 2.07393 12.0863 2.41135 12.1936 2.84364C12.2085 2.90315 12.2078 2.95856 12.2076 2.9991V3.01613C12.2076 4.17156 12.2076 5.327 12.2076 6.48244V7.02965C12.2076 7.38238 12.2074 7.73511 12.207 8.08806C12.2063 9.01064 12.2055 9.9647 12.21 10.9026C12.2117 11.2788 12.0934 11.6251 11.8481 11.9614C11.5667 12.3476 11.1721 12.6044 10.6756 12.7245C10.6124 12.7398 10.5553 12.7387 10.5092 12.7378C10.5006 12.7378 10.4922 12.7376 10.4838 12.7376C9.48702 12.7378 8.48985 12.7378 7.49333 12.7378H6.99486C6.60565 12.7378 6.21644 12.7376 5.82722 12.7374C4.77618 12.7368 3.68936 12.7361 2.62065 12.7402C2.61849 12.7402 2.61612 12.7402 2.61397 12.7402L2.61461 12.7404ZM1.2444 11.1053C1.3403 11.5043 1.5403 11.8064 1.85559 12.0291C2.10364 12.2042 2.35363 12.2896 2.61957 12.2879C3.68936 12.2838 4.77661 12.2844 5.82809 12.2851C6.2173 12.2853 6.60629 12.2855 6.9955 12.2855H7.49398C8.49071 12.2855 9.48766 12.2855 10.4844 12.2853C10.4956 12.2853 10.5066 12.2853 10.5178 12.2857C10.5353 12.2861 10.5616 12.2866 10.5702 12.2848C10.9646 12.1893 11.2633 11.9966 11.4829 11.6954C11.6691 11.4399 11.7589 11.1816 11.7576 10.9054C11.7531 9.96621 11.7538 9.0115 11.7546 8.08827C11.7548 7.73554 11.7553 7.38303 11.7553 7.03029V6.48308C11.7553 5.32765 11.7553 4.17221 11.755 3.01678V2.99565C11.7553 2.9812 11.7555 2.95921 11.7542 2.95188C11.6697 2.61251 11.5197 2.35012 11.296 2.1509C10.9975 1.88527 10.6978 1.76302 10.3536 1.7641C9.46827 1.76863 8.56873 1.76669 7.69871 1.76496C7.16188 1.76389 6.60672 1.76259 6.06105 1.76302C5.07014 1.76367 3.99108 1.76798 2.76202 1.77618C2.6047 1.77725 2.44436 1.77833 2.30859 1.81175C1.92606 1.9064 1.62521 2.14228 1.41487 2.51312C1.29418 2.72571 1.23664 2.94972 1.23837 3.19789C1.24526 4.09567 1.24419 5.0079 1.24332 5.89016C1.24289 6.21702 1.24268 6.5441 1.24268 6.87096V7.67129C1.24268 8.80517 1.24268 9.93904 1.24311 11.0729C1.24311 11.0826 1.24311 11.0988 1.24375 11.1053H1.2444Z" fill="#204A8F"/>
<path d="M7.55815 11.7182C7.5297 11.7182 7.50104 11.7176 7.47237 11.7165C7.04739 11.6993 6.67757 11.5248 6.40301 11.2122C6.26034 11.0496 6.17673 10.8618 6.15453 10.6544C6.13578 10.4794 6.18039 10.3211 6.28685 10.1842C6.32198 10.1391 6.35969 10.0913 6.4028 10.0451C6.62262 9.80989 6.73835 9.52357 6.75623 9.16976C6.77132 8.87502 6.73662 8.62255 6.65063 8.39832C6.62132 8.32199 6.59309 8.242 6.56357 8.15253C6.40129 8.15856 6.24483 8.13743 6.09699 8.08935C5.9026 8.59215 5.68127 8.98132 5.40585 9.30581C5.10974 9.65466 4.78583 9.89355 4.41536 10.0358C3.8059 10.27 3.21454 10.1937 2.70529 9.81485C2.09454 9.36035 1.76825 8.731 1.76179 7.99492C1.75705 7.44835 1.99734 7.01412 2.45681 6.73922C2.62835 6.6366 2.82878 6.60188 3.03675 6.63854C3.11541 6.65233 3.19579 6.68748 3.27596 6.74267C3.34816 6.79248 3.40699 6.8522 3.45419 6.90007C3.63543 7.08419 3.86732 7.19286 4.16322 7.23232C4.51773 7.27953 4.88517 7.23426 5.28602 7.0939C5.29939 7.08915 5.31232 7.08527 5.32503 7.08182C5.32438 7.07104 5.32417 7.05983 5.32417 7.04819C5.32546 6.89489 5.34529 6.76359 5.38537 6.64608C5.38473 6.64587 5.38408 6.64565 5.38365 6.64544C5.2246 6.58399 5.05995 6.52038 4.90026 6.44255C4.49058 6.24268 4.16559 6.01069 3.90654 5.7332C3.46087 5.25564 3.26497 4.70584 3.32402 4.09934C3.3626 3.70391 3.54125 3.34019 3.85525 3.01807C4.24037 2.62308 4.69553 2.39065 5.20758 2.32727C5.69592 2.26668 6.11509 2.38289 6.45366 2.67202C6.69115 2.87491 6.82261 3.12242 6.84459 3.40724C6.85882 3.59352 6.79869 3.76364 6.67068 3.89947C6.23664 4.35979 6.12328 4.90139 6.32457 5.5549C6.35776 5.66248 6.39504 5.77072 6.43232 5.8755C6.56831 5.87292 6.72908 5.88456 6.89718 5.93889C7.0823 5.45572 7.30772 5.05922 7.58422 4.7302C7.89391 4.36151 8.23205 4.11615 8.61803 3.98011C9.27598 3.74811 9.89923 3.86238 10.4206 4.31042C10.9533 4.76815 11.2276 5.34964 11.236 6.03893C11.2421 6.52707 11.0369 6.93737 10.6425 7.2252C10.56 7.28536 10.4686 7.33193 10.3783 7.35974C10.0606 7.45741 9.80225 7.40071 9.61023 7.1907C9.35981 6.9171 9.03805 6.78644 8.59734 6.77997C8.34282 6.77609 8.13421 6.80347 7.94089 6.86557C7.84995 6.89489 7.76029 6.92184 7.67258 6.94621C7.67517 7.09411 7.65577 7.23469 7.61483 7.36535C7.61396 7.36836 7.61289 7.37138 7.61202 7.3744C8.10877 7.55206 8.53031 7.79483 8.89689 8.1135C9.30658 8.46968 9.55054 8.8705 9.64234 9.33858C9.77769 10.0274 9.57618 10.6214 9.04387 11.1044C8.5941 11.5125 8.09434 11.7191 7.5575 11.7191L7.55815 11.7182ZM6.6752 7.69048C6.81076 7.69048 6.91787 7.77047 6.96032 7.90652C6.99998 8.03394 7.03575 8.13851 7.07325 8.23575C7.18251 8.52057 7.22669 8.83341 7.20837 9.19283C7.18488 9.65121 7.02519 10.0419 6.73339 10.3541C6.70322 10.3864 6.67412 10.4235 6.64417 10.4617C6.61033 10.5054 6.59848 10.5486 6.60451 10.6061C6.6168 10.7204 6.66206 10.8209 6.74309 10.9132C6.93662 11.1337 7.18812 11.2517 7.49069 11.2639C7.94391 11.2823 8.35252 11.1201 8.74065 10.768C9.15314 10.3938 9.30313 9.95457 9.19904 9.42482C9.12728 9.05937 8.93159 8.74178 8.60078 8.45416C8.2467 8.14627 7.83184 7.91795 7.33229 7.75581C7.25988 7.73231 7.16075 7.70018 7.1142 7.58893C7.06786 7.47811 7.11376 7.38712 7.14717 7.32072L7.14889 7.31727C7.16118 7.29269 7.1726 7.26358 7.18381 7.22822C7.2185 7.11783 7.22885 6.99817 7.21549 6.86277C7.19954 6.70257 7.28596 6.57838 7.44112 6.53849C7.55707 6.50874 7.67883 6.47338 7.80297 6.43328C8.04132 6.35652 8.30381 6.32159 8.60466 6.32591C9.17081 6.33431 9.60916 6.51693 9.94471 6.8839C9.99341 6.93715 10.0566 6.98415 10.2458 6.92594C10.2882 6.91279 10.3346 6.88885 10.3764 6.85845C10.655 6.65514 10.7884 6.38865 10.7841 6.04368C10.7772 5.49021 10.5559 5.02235 10.1262 4.65301C9.72898 4.31171 9.27231 4.2287 8.76888 4.40614C8.46135 4.5146 8.18722 4.71554 7.93098 5.02062C7.66224 5.34058 7.45427 5.72091 7.27669 6.21724C7.26699 6.24419 7.25665 6.2692 7.2463 6.29335C7.24178 6.30391 7.23725 6.31491 7.23251 6.32655L7.13381 6.56868L6.90838 6.4363C6.75279 6.34488 6.57542 6.31319 6.3334 6.33345C6.20237 6.34423 6.0847 6.24398 6.04721 6.14027C5.99505 5.99668 5.94031 5.84338 5.89225 5.6875C5.64248 4.87574 5.79355 4.16919 6.34181 3.58792C6.38232 3.54501 6.39827 3.49973 6.39375 3.44087C6.38125 3.27809 6.30496 3.13902 6.16035 3.01527C5.91898 2.80915 5.62567 2.73067 5.26383 2.77551C4.8563 2.82596 4.49165 3.01354 4.17981 3.33329C3.93607 3.58317 3.80375 3.84794 3.77487 4.14224C3.72832 4.62046 3.87961 5.0396 4.23778 5.42338C4.45825 5.65968 4.73992 5.85955 5.09896 6.03484C5.2412 6.10426 5.38968 6.16161 5.54701 6.2222C5.59851 6.24204 5.65002 6.26209 5.70131 6.28235C5.73687 6.29637 5.84484 6.33927 5.88622 6.45764C5.91359 6.53655 5.9026 6.61999 5.85325 6.70559C5.80282 6.79313 5.77868 6.90287 5.77739 7.05142C5.77739 7.05832 5.77933 7.07643 5.78083 7.0898C5.78881 7.15987 5.80217 7.27738 5.72394 7.37742C5.65067 7.47121 5.54571 7.49471 5.4761 7.51023C5.46102 7.51368 5.44378 7.51756 5.43602 7.52015C4.96642 7.68466 4.53066 7.73684 4.10395 7.68013C3.7044 7.62688 3.38652 7.47531 3.13222 7.21679C3.09666 7.18079 3.05636 7.13982 3.01972 7.11438C2.98847 7.09282 2.9667 7.08463 2.95873 7.08333C2.85658 7.06544 2.76844 7.07945 2.68956 7.12667C2.37103 7.31727 2.21134 7.60769 2.21479 7.98996C2.21996 8.5874 2.47599 9.07877 2.97576 9.45069C3.36497 9.74025 3.78306 9.79308 4.2533 9.6124C4.55092 9.49791 4.81513 9.30149 5.06103 9.01193C5.32503 8.70081 5.53558 8.31466 5.72329 7.79634C5.73278 7.77004 5.74334 7.74632 5.7526 7.72562C5.75605 7.71786 5.75972 7.70989 5.76316 7.70191L5.85217 7.49406L6.05992 7.58268C6.08341 7.59281 6.10604 7.60294 6.12802 7.61286C6.16789 7.63076 6.20216 7.6465 6.23384 7.65685C6.35646 7.69738 6.49051 7.70924 6.63253 7.69242C6.64697 7.6907 6.66119 7.68983 6.6752 7.68983V7.69048ZM6.52542 7.51821C6.51551 7.51821 6.5056 7.51778 6.4959 7.51713C6.37823 7.52511 6.25668 7.48005 6.15798 7.39079C6.04074 7.28492 5.97544 7.13939 5.9832 7.00119C6.00022 6.69847 6.20884 6.48028 6.47995 6.48028C6.48167 6.48028 6.4834 6.48028 6.48512 6.48028C6.77606 6.4833 6.99933 6.69891 7.01592 6.99321C7.0239 7.13594 6.95881 7.28428 6.84179 7.39014C6.74977 7.47336 6.63749 7.51821 6.52542 7.51821ZM6.49611 7.06026L6.52391 7.06457C6.53921 7.05746 6.56077 7.03159 6.564 7.01606C6.55839 6.93392 6.50387 6.93327 6.4806 6.93305H6.48038C6.44698 6.93305 6.43771 6.99838 6.43555 7.01994C6.44094 7.03439 6.45948 7.05595 6.47305 7.06414L6.49611 7.06048V7.06026Z" fill="#204A8F"/>
</svg>
