<svg width="12" height="19" viewBox="0 0 12 19" fill="none" xmlns="http://www.w3.org/2000/svg">
<g clip-path="url(#clip0_850_12468)">
<path d="M5.29508 2.76528C5.40044 2.77004 5.50511 2.77256 5.6057 2.77256H5.60638C6.87644 2.77256 7.50722 2.38568 7.77009 2.15528C7.80555 2.12421 7.83453 2.08362 7.8584 2.03127C7.9866 1.74993 7.84135 1.43331 7.52085 1.29446L6.54162 0.870345C6.4257 0.662628 6.03326 0.587883 5.72196 0.587883C5.41067 0.587883 5.038 0.658429 4.91151 0.855228L4.01854 1.21495C3.6561 1.36108 3.48426 1.71185 3.61894 2.03071C3.85317 2.58472 4.65954 2.73616 5.29474 2.76556L5.29508 2.76528ZM5.32372 2.34592C4.63635 2.31401 4.21391 2.15752 4.10207 1.8927C4.05263 1.77568 4.11503 1.64355 4.24357 1.59176L5.05914 1.2631C5.21257 1.34905 5.45465 1.39944 5.72162 1.39944C5.98859 1.39944 6.21669 1.35185 6.37012 1.27066L7.2815 1.66566C7.37322 1.70541 7.41584 1.80032 7.37936 1.88262C6.81405 2.35992 5.75469 2.3658 5.32338 2.34564L5.32372 2.34592Z" fill="#204A8F"/>
<path d="M11.9999 2.54972C11.9958 2.48197 11.9457 2.42375 11.869 2.39827L10.9627 2.09509C10.8802 1.52541 10.3067 1.00164 9.34178 0.615874C8.34789 0.218635 7.03248 0 5.63728 0C4.24208 0 2.92701 0.218635 1.93312 0.615594C0.880923 1.03607 0.301296 1.61275 0.301296 2.23954C0.301296 2.44558 0.364373 2.64826 0.489163 2.8431L0.0793322 3.08833C0.0227332 3.1222 -0.0065891 3.17651 0.00125292 3.23362C0.00670824 3.27421 0.0298933 3.31004 0.0656939 3.3358L0.297204 12.5952C0.300273 12.7231 0.330959 12.8483 0.38824 12.9672L0.950479 14.1382L1.09061 17.4771L4.95775 18.9835C4.98537 18.9941 5.01503 18.9997 5.04436 18.9997C5.0822 18.9997 5.11971 18.9908 5.15312 18.9734C5.19847 18.9496 5.2295 18.9127 5.24109 18.8709L10.4533 15.6608L10.7271 12.2901C11.2736 11.8771 11.333 11.6963 11.3159 11.5866L11.931 2.68689C11.9774 2.65274 12.0033 2.60291 11.9999 2.54972ZM10.1857 12.6467L9.95892 15.4408L5.24006 18.3472C5.23222 17.661 5.22063 16.34 5.24484 16.041C5.26768 15.7583 5.32428 15.508 5.3536 15.3907C5.83913 15.1225 8.92991 13.4118 10.1857 12.647V12.6467ZM10.8761 2.67653C10.8969 2.63034 10.9143 2.58387 10.9286 2.53684L11.0803 2.58751L10.8764 2.67625L10.8761 2.67653ZM4.72931 18.43L1.59148 17.2075L1.45953 14.0638L1.45885 14.0517L0.811709 12.7041L0.582244 3.52924L5.75048 5.38302L8.82694 4.04377C9.01174 3.98667 9.18494 3.92592 9.34144 3.86349C9.61319 3.75487 9.85731 3.63394 10.067 3.50404L11.4022 2.92288L10.8028 11.5964C10.7786 11.635 10.68 11.7621 10.3084 12.0353C9.68104 12.4961 5.03003 15.0632 4.98332 15.0889L4.90115 15.1343L4.87763 15.2132C4.87319 15.2281 4.76954 15.5805 4.73443 16.0127C4.70783 16.3403 4.72079 17.7341 4.72931 18.4298V18.43ZM5.63728 0.419914C6.95644 0.419914 8.19242 0.623433 9.11777 0.993237C9.98449 1.33953 10.4618 1.78212 10.4618 2.23954C10.4618 2.55504 10.231 2.86885 9.79389 3.1474L8.61486 3.66053C7.75735 3.92116 6.72766 4.05889 5.63728 4.05889C4.31812 4.05889 3.08214 3.85537 2.15679 3.48557C1.29007 3.13928 0.812732 2.69669 0.812732 2.23926C0.812732 1.78184 1.29007 1.33925 2.15679 0.992957C3.08214 0.623153 4.31812 0.419634 5.63728 0.419634V0.419914ZM5.63728 4.47909C6.05495 4.47909 6.46751 4.45949 6.86984 4.4203L5.729 4.91692L4.32221 4.41218C4.74909 4.45641 5.18892 4.47881 5.63728 4.47881V4.47909Z" fill="#204A8F"/>
<path d="M2.1854 9.63367C2.57887 9.84811 3.01223 9.96148 3.43808 9.96148C3.64027 9.96148 3.84007 9.93629 4.03271 9.88646C4.62973 9.73193 5.10161 9.35429 5.36108 8.82296C5.61817 8.29666 5.63521 7.68247 5.4095 7.09403C5.18515 6.51007 4.74838 6.01737 4.17898 5.70719C3.59254 5.38778 2.93653 5.29792 2.33133 5.4544C1.73432 5.60893 1.26243 5.98658 1.00296 6.51791C0.745882 7.0442 0.728834 7.65839 0.954548 8.24683C1.1789 8.83079 1.61566 9.32349 2.18506 9.63367H2.1854ZM2.48511 5.85472C2.62694 5.81805 2.77492 5.79929 2.9246 5.79929C3.25124 5.79929 3.58708 5.88832 3.89599 6.05684C4.36821 6.31411 4.73236 6.7273 4.92159 7.22C5.30585 8.22108 4.83805 9.23755 3.87894 9.48586C3.4241 9.60344 2.92324 9.53177 2.46806 9.28374C1.99583 9.02647 1.63169 8.61328 1.44246 8.12058C1.0582 7.1195 1.52599 6.10303 2.48511 5.85472Z" fill="#204A8F"/>
<path d="M5.05143 12.4143C4.64876 11.3654 3.46018 10.7347 2.40185 11.0085C1.887 11.1417 1.48024 11.4667 1.25623 11.9236C1.03461 12.3757 1.01927 12.9028 1.21327 13.4079C1.54571 14.2734 2.42572 14.8778 3.35414 14.8778C3.52735 14.8778 3.69851 14.8563 3.86285 14.8137C4.38554 14.6785 4.79537 14.3487 5.01699 13.8852C5.23111 13.4373 5.24339 12.9149 5.05143 12.4146V12.4143ZM4.54102 13.7315C4.37702 14.0747 4.08141 14.3168 3.70908 14.4131C3.5935 14.4431 3.47314 14.4582 3.35073 14.4582C2.64529 14.4582 1.96713 13.9742 1.70118 13.2813C1.38307 12.453 1.76665 11.6131 2.55596 11.4088C2.67155 11.3788 2.7919 11.3637 2.91431 11.3637C3.61975 11.3637 4.29791 11.8477 4.56386 12.5406C4.72104 12.9496 4.71286 13.3726 4.54102 13.7315Z" fill="#204A8F"/>
<path d="M4.9575 10.2266C4.7935 10.1283 4.61143 10.0978 4.4447 10.1409C4.27798 10.184 4.15012 10.2946 4.08465 10.4525C4.02226 10.6028 4.02396 10.7795 4.08943 10.95C4.15489 11.1204 4.27695 11.266 4.43311 11.3595C4.54836 11.4287 4.67281 11.4642 4.79453 11.4642C4.84567 11.4642 4.89647 11.4578 4.94591 11.4452C5.28005 11.3587 5.43962 10.9959 5.30153 10.6361C5.23607 10.4657 5.11366 10.3201 4.9575 10.2266Z" fill="#204A8F"/>
<path d="M1.36344 10.7436C1.47868 10.8128 1.60313 10.8483 1.72485 10.8483C1.77599 10.8483 1.8268 10.8419 1.87624 10.8293C2.21037 10.7428 2.36994 10.38 2.23185 10.0203C2.16639 9.84979 2.04433 9.70422 1.88817 9.61072C1.72417 9.51246 1.5421 9.48195 1.37537 9.52506C1.20864 9.56817 1.08078 9.67875 1.01532 9.83663C0.952923 9.98696 0.954627 10.1636 1.02009 10.3341C1.08556 10.5046 1.20762 10.6501 1.36378 10.7436H1.36344Z" fill="#204A8F"/>
</g>
<defs>
<clipPath id="clip0_850_12468">
<rect width="12" height="19" fill="white"/>
</clipPath>
</defs>
</svg>
