<svg width="19" height="19" viewBox="0 0 19 19" fill="none" xmlns="http://www.w3.org/2000/svg">
<path d="M8.76188 11.3519C8.97994 11.797 9.24806 12.2391 9.42367 12.7203C10.404 15.4098 8.78437 18.4402 6.12271 18.93C3.68599 19.3782 1.4002 17.6275 1.04899 15.0232C0.872298 13.7134 1.17489 12.5214 1.93501 11.4732C2.62945 10.5154 2.63344 9.4867 1.93174 8.52737C-0.13127 5.7087 1.42887 1.54293 4.73817 1.0493C5.91699 0.873255 6.9953 1.16912 7.95278 1.92992C8.08485 2.03461 8.20386 2.0668 8.36531 2.0447C10.4686 1.75542 12.4569 3.1316 13.0613 5.29961C13.1488 5.61331 13.1905 5.94252 13.2387 6.26708C13.3951 7.31483 14.1338 8.06283 15.1334 8.17567C17.1373 8.40135 18.754 10.123 18.9728 12.2643C19.2297 14.7774 17.6412 17.0004 15.3014 17.4033C12.8966 17.8171 10.5854 15.919 10.3253 13.3268C10.2284 12.3624 9.74912 11.7047 8.88488 11.3821C8.83154 11.3623 8.77385 11.3546 8.76297 11.3519H8.76188ZM8.69911 2.63798C8.87617 2.93811 9.03581 3.21924 9.20779 3.49106C9.24153 3.54458 9.31917 3.58568 9.38231 3.59654C10.5604 3.80166 11.5103 4.78116 11.7436 6.04218C11.8031 6.3648 11.8219 6.70022 11.9152 7.01082C12.3999 8.62121 13.4514 9.50764 15.0111 9.72441C16.7284 9.96327 17.8586 11.6931 17.4776 13.4993C17.1681 14.9666 15.9099 15.9698 14.4709 15.8973C13.1078 15.8282 11.9268 14.6657 11.7798 13.1969C11.5832 11.2332 10.2012 9.92643 8.57394 9.72479C7.34832 9.57279 6.50476 8.83022 6.1394 7.57308C5.77403 6.3171 6.08933 5.21662 6.99493 4.31778C7.0548 4.25807 7.12047 4.20494 7.21335 4.12157C6.98042 3.90404 6.76563 3.70395 6.55011 3.5027C6.47029 3.57366 6.41623 3.61515 6.36906 3.6644C5.22218 4.85561 4.83215 6.28608 5.32958 7.90966C5.82011 9.51075 6.91257 10.427 8.47198 10.6527C9.82531 10.8485 10.7599 11.8319 10.9076 13.2919C11.0999 15.1942 12.6542 16.7488 14.4419 16.8275C16.4624 16.9163 18.1408 15.4056 18.3926 13.2701C18.6506 11.0843 17.1467 9.03573 15.1091 8.79803C13.7612 8.6406 12.7979 7.62194 12.6481 6.23024C12.4964 4.82071 11.8234 3.77064 10.6598 3.0905C10.0539 2.73608 9.39936 2.59339 8.69875 2.63759L8.69911 2.63798ZM6.90169 10.8214C6.91765 10.8986 6.92854 10.961 6.94377 11.0219C7.07258 11.5353 7.30623 11.9901 7.61572 12.4039C8.01737 12.9409 8.23905 13.5551 8.25574 14.2415C8.30363 16.2257 6.70685 17.7155 4.87024 17.4092C3.36525 17.1583 2.27134 15.5839 2.47597 13.9739C2.55362 13.3613 2.78329 12.8281 3.13776 12.343C3.80899 11.4251 4.03756 10.3867 3.83221 9.24241C3.7132 8.57894 3.40117 8.02095 3.02275 7.48816C2.24341 6.39156 2.26917 4.8432 3.06084 3.75436C3.85833 2.65775 5.23814 2.25719 6.43473 2.77486C8.21365 3.54458 8.82247 5.88203 7.67414 7.52267C7.51885 7.74447 7.37916 7.97907 7.24347 8.21522C7.21879 8.25826 7.22496 8.36606 7.25616 8.39475C7.451 8.57196 7.65745 8.73483 7.84575 8.89071C8.0522 8.57351 8.23288 8.29277 8.41611 8.01397C9.01005 7.11009 9.24988 6.1081 9.08116 5.01964C8.74483 2.84466 6.94269 1.40915 4.88875 1.6546C2.78401 1.90665 1.2558 4.10606 1.63604 6.32796C1.75722 7.03641 2.02861 7.66614 2.44804 8.22763C2.86891 8.79105 3.06266 9.43707 3.02928 10.1564C2.9988 10.8125 2.75426 11.3755 2.37438 11.8854C1.88965 12.5361 1.63277 13.2888 1.58924 14.1166C1.45644 16.6313 3.47047 18.6601 5.80814 18.3456C7.22206 18.1556 8.24703 17.3401 8.81159 15.9461C9.38267 14.5358 9.20452 13.1829 8.37511 11.9273C8.23252 11.7117 8.10299 11.486 7.96548 11.2666C7.94299 11.2309 7.91578 11.1859 7.88167 11.1735C7.56384 11.0552 7.24383 10.9428 6.90205 10.8206L6.90169 10.8214ZM8.42844 9.07994C8.53258 9.09739 8.57902 9.10747 8.62582 9.1129C9.50385 9.21333 10.2857 9.55495 10.9519 10.18C11.802 10.9773 12.2316 11.9948 12.3636 13.1864C12.5019 14.4358 13.5885 15.3443 14.8109 15.2761C15.9494 15.2125 16.9254 14.1566 16.9682 12.9421C17.0175 11.5523 16.1337 10.4786 14.8076 10.3165C12.9514 10.0897 11.4711 8.53319 11.2305 6.54084C11.1656 6.00418 11.0277 5.50628 10.6994 5.08362C10.392 4.68771 10.0122 4.4124 9.52199 4.27047C9.53977 4.3519 9.55537 4.40619 9.56299 4.46164C9.61234 4.80559 9.69071 5.14876 9.70268 5.49426C9.74223 6.63468 9.4175 7.6549 8.76152 8.55607C8.64868 8.71117 8.55362 8.8814 8.42808 9.07994H8.42844ZM5.91336 3.26383C5.85676 3.24328 5.82338 3.227 5.78855 3.21963C4.78389 3.00519 3.73787 3.53915 3.28688 4.52911C2.84025 5.50977 2.97123 6.43149 3.59927 7.28303C4.17652 8.06554 4.47295 8.95779 4.48347 9.95396C4.49508 11.0521 4.13299 12.0021 3.50385 12.8641C2.69004 13.979 2.95236 15.596 4.04772 16.399C5.13002 17.1928 6.62376 16.8601 7.32075 15.6704C7.85627 14.7564 7.79169 13.6544 7.13788 12.7598C6.65751 12.1026 6.35636 11.3678 6.26711 10.5387C6.25223 10.3991 6.20761 10.3076 6.10856 10.2145C4.73418 8.91979 4.25272 7.31638 4.69536 5.414C4.88947 4.57952 5.31397 3.87844 5.91227 3.26383H5.91336ZM7.49345 4.69159C6.47718 5.49039 6.40099 6.98251 6.81824 7.68708C7.54098 6.82779 7.93573 5.87427 7.49345 4.69159Z" fill="#204A8F"/>
</svg>
