<svg width="17" height="17" viewBox="0 0 17 17" fill="none" xmlns="http://www.w3.org/2000/svg">
<g clip-path="url(#clip0_850_12452)">
<path d="M8.5 17C3.81324 17 0 13.1868 0 8.5C0 3.81324 3.81324 0 8.5 0C13.1868 0 17 3.81324 17 8.5C17 13.1868 13.1868 17 8.5 17ZM8.5 0.806324C4.25739 0.806324 0.806324 4.25739 0.806324 8.5C0.806324 12.7426 4.25739 16.1937 8.5 16.1937C12.7426 16.1937 16.1937 12.7426 16.1937 8.5C16.1937 4.25739 12.7426 0.806324 8.5 0.806324Z" fill="#204A8F"/>
<path d="M8.50011 4.34071C6.20679 4.34071 4.34082 6.20668 4.34082 8.5C4.34082 10.7933 6.20679 12.6593 8.50011 12.6593C10.7934 12.6593 12.6594 10.7933 12.6594 8.5C12.6594 6.20668 10.7934 4.34071 8.50011 4.34071ZM12.0728 8.5C12.0728 10.4701 10.4702 12.0727 8.50011 12.0727C6.52999 12.0727 4.92742 10.4701 4.92742 8.5C4.92742 6.52988 6.52999 4.92731 8.50011 4.92731C10.4702 4.92731 12.0728 6.52988 12.0728 8.5Z" fill="#204A8F"/>
<path d="M2.14265 7.65068C1.66894 7.65001 1.28795 8.02495 1.28325 8.49732C1.27854 8.96163 1.66759 9.35404 2.13392 9.35538C2.6083 9.35673 2.98593 8.98044 2.98728 8.50539C2.98862 8.02697 2.61704 7.65135 2.14265 7.65068ZM2.13459 8.72511C2.01969 8.72242 1.91083 8.61155 1.91285 8.49732C1.91487 8.37704 2.01767 8.27894 2.14131 8.28096C2.26696 8.2823 2.36036 8.37839 2.35902 8.50471C2.35767 8.62701 2.25487 8.72712 2.13459 8.72511Z" fill="#204A8F"/>
<path d="M13.0016 11.9343C12.5252 11.9316 12.1455 12.3065 12.1455 12.7796C12.1455 13.254 12.5265 13.6396 12.9935 13.6396C13.4632 13.6396 13.8489 13.2553 13.8495 12.787C13.8502 12.3099 13.4793 11.937 13.0016 11.9336V11.9343ZM13.0029 13.008C12.8846 13.01 12.7771 12.9059 12.7751 12.7883C12.7731 12.6653 12.8705 12.5632 12.9921 12.5612C13.1158 12.5592 13.2179 12.6559 13.2199 12.7776C13.2213 12.8978 13.1198 13.006 13.0029 13.008Z" fill="#204A8F"/>
<path d="M4.00912 12.3576C3.54817 12.3495 3.15778 12.7339 3.1524 13.2029C3.14703 13.6806 3.51054 14.0569 3.9856 14.0657C4.45663 14.0744 4.84635 13.7021 4.85576 13.2345C4.86517 12.7608 4.48418 12.3663 4.00912 12.3576ZM3.9977 13.4334C3.87205 13.4313 3.77932 13.3353 3.78134 13.2103C3.78335 13.0887 3.8875 12.9872 4.00576 12.9906C4.12268 12.9939 4.22885 13.1041 4.22616 13.219C4.22347 13.3406 4.12268 13.4347 3.9977 13.4334Z" fill="#204A8F"/>
<path d="M8.49605 2.98878C8.97246 2.99012 9.35009 2.61585 9.35143 2.14147C9.35345 1.67313 8.96708 1.2834 8.50143 1.28206C8.03376 1.28139 7.64941 1.66574 7.64941 2.13609C7.64941 2.61384 8.02032 2.98744 8.49605 2.98878ZM8.5021 1.91368C8.62103 1.91704 8.72451 2.02455 8.72317 2.14147C8.72183 2.26376 8.62103 2.35917 8.49538 2.35716C8.36704 2.35514 8.27566 2.26174 8.27767 2.13408C8.27969 2.01178 8.38317 1.90965 8.5021 1.91368Z" fill="#204A8F"/>
<path d="M3.98065 4.63636C4.45504 4.64711 4.8461 4.2762 4.85551 3.80719C4.86492 3.33213 4.47788 2.93233 4.00551 2.92964C3.54523 2.92695 3.15887 3.30525 3.15148 3.76553C3.14409 4.24798 3.5029 4.62561 3.97998 4.63636H3.98065ZM4.00484 3.56126C4.11974 3.56261 4.22792 3.67415 4.22658 3.78905C4.22523 3.91 4.12377 4.00608 3.99946 4.00541C3.87381 4.00407 3.77974 3.90798 3.78176 3.783C3.78377 3.66138 3.88591 3.55925 4.00484 3.56126Z" fill="#204A8F"/>
<path d="M12.9922 5.06573C13.4712 5.06708 13.8482 4.69684 13.8489 4.22312C13.8495 3.75142 13.4686 3.36372 13.0022 3.36237C12.5332 3.36036 12.1469 3.74403 12.1455 4.21305C12.1442 4.69146 12.5151 5.06506 12.9922 5.06641V5.06573ZM12.9955 3.99131C13.1138 3.99131 13.2179 4.09546 13.2199 4.21573C13.222 4.34004 13.1259 4.43613 12.9989 4.43747C12.8732 4.43882 12.7765 4.3434 12.7751 4.21842C12.7738 4.09949 12.8786 3.99131 12.9955 3.99131Z" fill="#204A8F"/>
<path d="M8.4974 14.0065C8.021 14.0132 7.64874 14.3882 7.64941 14.8599C7.64941 15.3356 8.021 15.7132 8.49202 15.7179C8.96574 15.722 9.35479 15.3323 9.35143 14.8572C9.34807 14.3902 8.957 14.0005 8.4974 14.0072V14.0065ZM8.50546 15.0836C8.38183 15.0863 8.27969 14.9896 8.27768 14.8679C8.27566 14.743 8.3704 14.6435 8.49337 14.6408C8.61499 14.6381 8.71847 14.7349 8.72317 14.8565C8.72787 14.9755 8.62641 15.081 8.50546 15.0836Z" fill="#204A8F"/>
<path d="M14.8662 7.65068C14.3884 7.64799 14.0155 8.01554 14.0108 8.4953C14.0061 8.96835 14.3844 9.35404 14.8547 9.35538C15.3231 9.35673 15.7168 8.96902 15.7162 8.50673C15.7162 8.03301 15.3385 7.65337 14.8662 7.65068ZM14.8635 8.72511C14.7445 8.7278 14.6397 8.62499 14.6384 8.50471C14.637 8.38242 14.7351 8.28297 14.8581 8.28163C14.9804 8.27961 15.0825 8.37839 15.0839 8.49934C15.0852 8.61827 14.9824 8.72309 14.8628 8.72578L14.8635 8.72511Z" fill="#204A8F"/>
</g>
<defs>
<clipPath id="clip0_850_12452">
<rect width="17" height="17" fill="white"/>
</clipPath>
</defs>
</svg>
