<?xml version="1.0" encoding="UTF-8"?>
<svg id="_Слой_1" data-name="Слой 1" xmlns="http://www.w3.org/2000/svg" viewBox="0 0 249.55 250.85">
  <defs>
    <style>
      .cls-1 {
        fill: #1f4a8f;
      }
    </style>
  </defs>
  <path class="cls-1" d="M215.29,29.82l-5.19,5.13c-2.71,2.67-5.42,5.34-8.1,8.03-.19,.19-.32,.31-.41,.39-.06-.02-.15-.05-.25-.09-9.15-3.86-17.78-2.19-24.98,4.81-2.23,2.17-4.58,4.52-7.17,7.2-2.17,2.24-4.32,4.5-6.43,6.71l-1.06,1.12c-6.96-3.55-11.41-2.58-17.35,3.37-7.81,7.84-15.64,15.66-23.46,23.49l-8.49,8.49c-1.55,1.56-3.11,3.11-4.73,4.72l-.39,.39c-.33-.34-.66-.69-.99-1.03-2.28-2.35-4.43-4.58-6.68-6.78-5.63-5.54-12.89-5.53-18.5,0l-1.55,1.53c-3.77,3.72-7.67,7.58-11.4,11.5-1.41,1.48-2.6,3.48-3.35,5.61-1.4,3.97-.22,7.34,1.34,9.92-.02,.02-.05,.05-.07,.07-2.12,2.12-4.24,4.24-6.36,6.36-3.96,3.96-7.92,7.91-11.86,11.88-5.28,5.33-5.35,12.8-.16,18.18,.28,.29,.66,.77,1.07,1.28,0,0,.02,.02,.02,.03-5.87,5.81-12.09,11.99-18.18,18.18-5.03,5.12-5.03,12.8,0,17.86,9.2,9.24,18.24,18.27,26.86,26.83,2.69,2.67,5.85,4.01,9.03,4.01s6.38-1.35,9.12-4.04c2.42-2.38,4.97-4.94,7.81-7.83,2.78-2.83,5.55-5.67,8.47-8.67l2.19-2.25s0,0,.01,0c4.89,3.32,12.29,8.34,19.13,1.51l.9-.9c4.66-4.65,9.48-9.46,14.15-14.27,1.03-1.06,1.96-2.21,2.79-3.26,7.17,3.63,11.36,2.72,17.38-3.23,2.59-2.56,5.16-5.14,7.74-7.72l3.05-3.05c3.24-3.24,4.86-6.62,4.83-10.04-.03-3.44-1.74-6.82-5.07-10.04-2.08-2.01-4.16-4-6.27-6.01l-.71-.68,38.29-38.31c4.59-4.59,5.62-10.38,2.76-15.49-.12-.22-.25-.43-.38-.64l3.22-3.2c3.75-3.72,7.49-7.43,11.23-11.12,6.79-6.68,9.03-14.29,6.31-21.41-1.51-3.97-.36-5.46,3.07-8.44,1.84-1.6,3.57-3.27,5.25-4.9,.73-.71,1.45-1.4,2.17-2.09l2.23-2.11-10.93-11.01ZM61.72,220.75c-8.61-8.55-17.64-17.57-26.84-26.81-2.74-2.75-2.73-6.62,.02-9.42,1.22-1.24,2.45-2.48,3.67-3.72l36.39,36.39c-1.22,1.22-2.39,2.39-3.53,3.5-3.07,3.02-6.71,3.04-9.71,.05Zm25.91-16.47c-2.91,2.99-5.67,5.83-8.44,8.65l-36.38-36.38c3.52-3.53,7.03-7,10.4-10.34l35.94,35.2,.58,.72-2.1,2.15Zm22.29-1.69l-.9,.9c-2.47,2.47-4.48,2.52-11.31-2.08l-45.7-44.76c-2.91-3.03-2.87-6.77,.11-9.77,3.93-3.97,7.88-7.91,11.84-11.86,2.03-2.03,4.06-4.05,6.08-6.08l56.27,56.76c-.74,.93-1.5,1.87-2.31,2.7-4.65,4.78-9.45,9.57-14.09,14.21Zm44.95-43.06c2.13,2.06,3.22,4,3.24,5.78,.02,1.75-1.02,3.69-3.08,5.74l-3.05,3.06c-2.56,2.57-5.12,5.14-7.71,7.69-4.34,4.29-5.82,4.86-12.1,1.26l-59.88-60.4c-1.94-2.55-2.47-4.37-1.81-6.25,.47-1.33,1.21-2.6,2.04-3.47,3.66-3.85,7.53-7.67,11.26-11.36l1.55-1.53c3.28-3.24,6.76-3.24,10.07,0,2.19,2.15,4.32,4.35,6.57,6.68,1.02,1.06,2.06,2.13,3.13,3.22l2.12,2.17,.02-.02,36.39,36.58-.05,.05,2.08,1.99,.02,.02h0s2.94,2.81,2.94,2.81c2.1,2.01,4.18,3.99,6.25,5.99Zm-7.09-15.21l-36.29-36.47,.42-.42c1.62-1.62,3.18-3.17,4.74-4.73l8.48-8.49c1.02-1.02,2.05-2.05,3.07-3.07l36.37,36.37-16.79,16.8Zm38.33-38.35l-17.29,17.3-36.37-36.37c5.39-5.39,10.78-10.78,16.16-16.18,4.43-4.45,6.27-4.7,11.83-1.46l25.77,25.77,.16,.25c.22,.34,.42,.66,.62,.95,.33,.5,.63,.95,.89,1.42,2.05,3.65-.23,6.78-1.77,8.32Zm16.87-30.48c-3.75,3.69-7.49,7.4-11.25,11.13l-2.73,2.71-22.53-22.53,.65-.68c2.1-2.2,4.23-4.45,6.39-6.67,2.55-2.63,4.86-4.95,7.05-7.08,5.49-5.34,11.52-6.51,18.46-3.58,.33,.14,.65,.25,.95,.34l6.91,6.82c.07,1.37,.38,2.86,1.02,4.55,2.33,6.1-1.39,11.52-4.91,14.99Zm14.66-34.78c-1.62,1.57-3.29,3.19-5.01,4.68-1.42,1.23-2.78,2.53-3.84,4.03l-2.4-2.36c2.62-2.63,5.26-5.23,7.91-7.84l.94-.93,2.4,2.42s0,0,0,0Z"/>
</svg>