<?xml version="1.0" encoding="UTF-8"?>
<svg id="_Слой_1" data-name="Слой 1" xmlns="http://www.w3.org/2000/svg" viewBox="0 0 212.5 245.72">
  <defs>
    <style>
      .cls-1 {
        fill: #1f4a8f;
      }
    </style>
  </defs>
  <path class="cls-1" d="M123.96,226.3c-2.46,0-4.78,0-7.11,0-5.04,0-10.07-.11-15.11,.05-2.06,.06-2.46-.69-2.45-2.55,.05-18.39,.03-36.77,.03-55.16q0-3.13-3.12-3.14c-1.35,0-2.7,.04-4.04-.05-4.83-.33-8.45-4.09-8.5-8.93-.06-6.1-.02-12.21-.03-18.32,0-.83-.08-1.66-.13-2.66H32.17c0-2.06,0-3.95,0-5.83,0-3.27,.11-6.54-.04-9.79-.09-1.91,.57-2.41,2.41-2.4,13.41,.07,26.82,.04,40.22,.04,2.83,0,5.65,0,8.69,0,.07-.87,.17-1.55,.18-2.22,.02-2.7-.05-5.4,.03-8.09,.09-2.86,.13-5.32-3.12-7.04-2.79-1.48-3.44-4.73-3.19-7.86,.14-1.73-.37-2.75-1.93-3.73-6.04-3.77-5.94-11.85,.17-15.63,1.34-.83,1.82-1.66,1.77-3.19-.11-3.52-.04-7.06-.04-10.81,1.36,0,2.49-.11,3.59,.02,2.1,.26,2.8-.43,2.77-2.66-.12-10.72-.05-21.44-.05-32.16q0-2.86,2.92-2.87c16.74,0,33.49,0,50.23,0,.9,0,1.81,0,2.98,0,0,1.24,0,2.21,0,3.18,0,10.72,.06,21.44-.03,32.15-.02,1.91,.55,2.56,2.41,2.35,1.18-.14,2.4-.03,3.93-.03,0,3.66,.07,7.18-.03,10.7-.05,1.58,.39,2.48,1.83,3.36,6.09,3.71,5.99,12.15-.17,15.77-1.21,.71-1.76,1.38-1.65,2.78,.34,4.49-1.15,8.03-5.33,10.26-.56,.3-.9,1.52-.9,2.31-.06,11.92-.04,23.85-.04,35.77,0,5.47,.02,10.93-.01,16.4-.03,5.01-3.78,8.91-8.78,9.13-1.63,.07-3.27,.1-4.89,0-1.59-.1-2.04,.51-2.04,2.09,.05,14.48,.03,28.96,.03,43.44,0,4.33,.01,8.66,0,12.99,0,.69-.08,1.38-.14,2.31ZM89.8,27.28c-.11,.57-.21,.84-.21,1.1-.03,9.65-.03,19.31-.08,28.96,0,1.55,.85,1.67,2.04,1.67,13.48-.02,26.96-.05,40.44,0,1.52,0,1.94-.53,1.94-1.98-.05-9.23-.06-18.46,0-27.69,.01-1.77-.69-2.1-2.26-2.09-7.94,.06-15.89,.02-23.84,.02-5.95,0-11.91,0-18.03,0Zm22,107.13v-.02c6.6,0,13.19-.05,19.79,.03,1.71,.02,2.36-.41,2.34-2.24-.08-9.09-.08-18.17,0-27.26,.02-1.78-.55-2.27-2.3-2.27-13.26,.06-26.53,.05-39.79-.01-1.72,0-2.32,.43-2.3,2.24,.09,9.09,.08,18.17,0,27.26-.02,1.76,.5,2.32,2.27,2.29,6.67-.09,13.34-.04,20-.04Zm-6.5,58.49c0,8.44,.04,16.88-.04,25.32-.02,1.71,.54,2.23,2.18,2.17,2.9-.1,5.81-.07,8.72-.01,1.38,.03,2.05-.32,2.05-1.89-.04-17.02-.04-34.05,0-51.07,0-1.54-.59-1.96-2-1.93-2.98,.06-5.96,.08-8.93,0-1.59-.05-2.03,.54-2.02,2.11,.07,8.44,.03,16.88,.04,25.32Zm-9.53-45.91v6.04h-5.93c-.88,5.08,.26,6.49,5.06,6.49,9.78,0,19.57,.02,29.35,.02,2.06,0,4.11,.05,6.17-.04,2.44-.1,3.41-1.62,3.5-4.6,.08-2.82-1.91-1.9-3.23-1.91-8.58-.06-17.16-.03-25.73-.03-.75,0-1.5-.06-2.44-.1,0-1.19,.11-2.19-.02-3.16-.3-2.16,.52-2.78,2.69-2.75,8.22,.12,16.45,.06,24.68,.04,4.57,0,3.91,.49,4.07-4.14,.07-1.95-.55-2.56-2.51-2.55-13.12,.07-26.24,.04-39.35,.05-.76,0-1.52,.1-2.5,.16,0,1.72,.05,3.27-.01,4.82-.05,1.18,.42,1.69,1.6,1.66,1.48-.04,2.96,0,4.62,0Zm15.85-62.87c4.11,0,8.22,0,12.33,0,6.31,0,12.61,.02,18.92-.03,2.16-.02,3.43-1.29,3.46-3.22,.03-1.91-1.25-3.17-3.39-3.31-.49-.03-.99-.02-1.49-.02-13.18,0-26.36,0-39.54,0-7.02,0-14.03-.02-21.05,0-2.63,0-4.21,1.7-3.69,3.98,.46,2,1.92,2.6,3.83,2.6,10.2-.02,20.41-.01,30.61,0Zm28.1-19.07c-.77-.03-1.61-.1-2.44-.1-17.08,0-34.15,0-51.23,0-2.78,0-2.78,.01-2.79,2.82,0,.28,0,.57,0,.85,.02,2.96,.02,2.97,3.07,2.97,16.08,0,32.17,0,48.25,0q5.96,0,5.41-6.01c0-.06-.06-.12-.27-.53ZM36.95,130.56h2.89c12.62,0,25.23,0,37.85,0,6.2,0,6.16,0,5.98-6.2-.04-1.46-.53-2.01-2-1.98-3.69,.07-7.37,.02-11.06,.02-10.49,0-20.98,0-31.48,.01-.93,0-2.16-.33-2.17,1.26-.03,2.18,0,4.37,0,6.89Zm59.07-40.28v6.08c.26,.13,.39,.25,.51,.25,9.91,.04,19.82,.09,29.73,.05,.44,0,1.21-.76,1.25-1.21,.15-1.66,.06-3.35,.06-5.17h-31.55Zm43.96,.09c-.69-.08-1.23-.19-1.78-.21-4.92-.19-5.39,.32-4.69,5.23,.05,.39,.18,.89,.46,1.1,1.73,1.31,5.67-.31,5.98-2.48,.16-1.16,.03-2.36,.03-3.64Zm-50.13-.1c-1.1-.05-1.93-.1-2.76-.12-.92-.01-1.84-.02-2.75,.05-.31,.02-.89,.28-.88,.38,.2,1.68,.21,3.46,.82,5,.46,1.14,4.14,1.65,5.06,.97,.28-.21,.47-.7,.48-1.07,.05-1.68,.02-3.36,.02-5.21Z"/>
</svg>