<svg width="19" height="12" viewBox="0 0 19 12" fill="none" xmlns="http://www.w3.org/2000/svg">
<path d="M19 10.3432C18.9421 10.4652 18.8961 10.5958 18.8241 10.707C18.6378 10.9937 18.3695 11.1259 18.047 11.1315C17.8014 11.1359 17.5557 11.1323 17.293 11.1323C17.293 11.224 17.2941 11.2951 17.293 11.3662C17.287 11.6835 17.1353 11.853 16.838 11.8725C16.7827 11.8761 16.7267 11.8745 16.671 11.8745C11.8906 11.8745 7.10979 11.8745 2.32936 11.8745C2.26145 11.8745 2.19316 11.8761 2.12562 11.8689C1.86178 11.8419 1.71557 11.672 1.70777 11.386C1.70555 11.3086 1.70777 11.2308 1.70777 11.1323C1.52557 11.1323 1.35932 11.1212 1.19492 11.1343C0.61416 11.1815 0.199277 10.9508 0 10.3432V4.54513C0.100938 4.42321 0.20707 4.31163 0.378516 4.38549C0.548477 4.45856 0.55998 4.61462 0.557754 4.7814C0.554043 5.06255 0.556641 5.3437 0.556641 5.63994C0.644961 5.63994 0.70582 5.63994 0.76668 5.63994C0.828652 5.63994 0.890625 5.63796 0.952227 5.64073C1.14668 5.64987 1.25986 5.75828 1.26098 5.933C1.26209 6.10574 1.14928 6.2213 0.956309 6.23242C0.829023 6.23957 0.700625 6.23361 0.567402 6.23361V9.10706C0.699512 9.10706 0.821973 9.10467 0.944063 9.10745C1.13703 9.11182 1.25467 9.21864 1.26098 9.39019C1.26766 9.57048 1.14631 9.69398 0.947773 9.70152C0.820859 9.70629 0.693574 9.70232 0.556641 9.70232C0.556641 9.79683 0.556641 9.86235 0.556641 9.92747C0.556641 10.0001 0.553301 10.0732 0.558496 10.1459C0.572969 10.3548 0.700625 10.516 0.896563 10.5279C1.15967 10.5442 1.42426 10.5319 1.69775 10.5319V1.34089C1.41869 1.34089 1.14742 1.3262 0.87875 1.34605C0.701738 1.35916 0.585215 1.49298 0.564434 1.68399C0.547734 1.83846 0.561094 1.99651 0.561094 2.16687C0.640879 2.16687 0.701738 2.16687 0.762227 2.16687C0.824199 2.16687 0.886172 2.16488 0.947773 2.16766C1.14594 2.1768 1.26766 2.29831 1.26098 2.4786C1.25467 2.65054 1.1374 2.75736 0.944434 2.76173C0.817891 2.76451 0.691348 2.76213 0.557012 2.76213C0.557012 2.95393 0.552559 3.11277 0.558125 3.27122C0.564062 3.44276 0.536231 3.59684 0.367012 3.65879C0.196309 3.72153 0.0853516 3.61789 0 3.47255C0 2.82408 0 2.17521 0 1.52674C0.0541797 1.40999 0.0964844 1.2849 0.164395 1.17848C0.351797 0.883826 0.621953 0.743251 0.952969 0.738486C1.19863 0.734912 1.4443 0.737691 1.70814 0.737691C1.70814 0.626105 1.70406 0.535168 1.70889 0.444628C1.72225 0.195247 1.87514 0.0272721 2.10633 0.0046372C2.16162 -0.000922262 2.21729 0.00026905 2.27295 0.00026905C6.21248 0.00026905 10.152 0.00026905 14.0915 0.00026905C14.1595 0.00026905 14.2285 -0.00251068 14.2949 0.00979955C14.4355 0.0356113 14.5109 0.132505 14.5161 0.283801C14.5213 0.434701 14.4537 0.542316 14.3149 0.574879C14.2259 0.595925 14.1309 0.594337 14.0385 0.594337C10.2043 0.595131 6.36982 0.595131 2.53568 0.595131C2.45107 0.595131 2.36646 0.595131 2.27295 0.595131V11.2665H16.7278V0.595925C16.3634 0.595925 16.0071 0.596719 15.6505 0.595131C15.5644 0.594734 15.4757 0.597116 15.3922 0.578055C15.2453 0.544699 15.1707 0.434701 15.1796 0.275859C15.1881 0.126945 15.269 0.0133735 15.4097 0.0109909C15.9225 0.00265168 16.4357 0.000269051 16.9486 0.0161532C17.1382 0.0221098 17.274 0.20994 17.2896 0.424376C17.2967 0.52127 17.2907 0.619354 17.2907 0.736897C17.4752 0.736897 17.6414 0.748413 17.8058 0.734912C18.3866 0.687656 18.8007 0.918771 19 1.52634V10.3428V10.3432ZM17.3026 1.33772V10.5319C17.5757 10.5319 17.8403 10.543 18.1034 10.5279C18.2838 10.518 18.4204 10.3702 18.4363 10.1848C18.4497 10.0299 18.4389 9.87228 18.4389 9.70232C18.2968 9.70232 18.1739 9.70629 18.0515 9.70152C17.8529 9.69398 17.732 9.57087 17.7387 9.39019C17.745 9.21825 17.8622 9.11222 18.0559 9.10785C18.1825 9.10507 18.309 9.10745 18.4281 9.10745V6.23401C18.2897 6.23401 18.1662 6.23996 18.0433 6.23282C17.85 6.2213 17.7375 6.10614 17.7387 5.9334C17.7398 5.75828 17.8529 5.64868 18.0474 5.64153C18.1754 5.63676 18.3035 5.64073 18.4326 5.64073V2.76252C18.3005 2.76252 18.1784 2.76491 18.0563 2.76213C17.863 2.75776 17.7457 2.65134 17.739 2.47939C17.732 2.29871 17.8529 2.17561 18.0515 2.16806C18.1784 2.16329 18.3057 2.16727 18.443 2.16727C18.443 2.07315 18.443 2.00763 18.443 1.94251C18.443 1.86983 18.4463 1.79677 18.4411 1.7241C18.4263 1.51443 18.299 1.3536 18.1034 1.34169C17.8403 1.3258 17.5754 1.33772 17.3022 1.33772H17.3026Z" fill="#204A8F"/>
<path d="M15.6135 10.0875V9.60029H3.39003V10.0875C3.70769 10.0875 4.02757 10.0875 4.34746 10.0875C4.47103 10.0875 4.59498 10.0828 4.71855 10.0899C4.89185 10.0995 5.01357 10.2237 5.00429 10.3858C4.99427 10.5633 4.8963 10.6701 4.73154 10.6764C4.45359 10.6868 4.17527 10.6824 3.89695 10.6832C3.69285 10.6836 3.48875 10.6892 3.28464 10.6808C2.97515 10.6677 2.82115 10.4958 2.82115 10.165C2.82003 7.34553 2.82003 4.52649 2.82115 1.70705C2.82115 1.34728 2.98517 1.19201 3.35701 1.19201C5.59544 1.19161 7.83425 1.19201 10.0727 1.19201C11.9092 1.19201 13.7458 1.19201 15.5827 1.19201C16.0558 1.19201 16.1802 1.32305 16.1802 1.82102C16.1802 4.56739 16.1802 7.31377 16.1802 10.0605C16.1802 10.5402 16.0454 10.6836 15.5909 10.6836C12.431 10.6836 9.27076 10.6836 6.11089 10.6836C6.06154 10.6836 6.01181 10.6856 5.96246 10.6812C5.76949 10.6645 5.66261 10.5521 5.66707 10.3742C5.67152 10.1979 5.78136 10.0919 5.9799 10.0895C6.36955 10.0852 6.7592 10.0879 7.14847 10.0879C9.88789 10.0879 12.6273 10.0879 15.3671 10.0879H15.6139L15.6135 10.0875ZM3.38558 2.27134H15.6128V1.80037H3.38558V2.27134ZM15.6139 5.76705H3.3841V6.10498H15.6139V5.76705ZM3.38669 3.22796H15.6076V2.89241H3.38669V3.22796ZM15.6142 3.85181H3.38595V4.18895H15.6142V3.85181ZM3.38632 5.1432H15.6146V4.80764H3.38632V5.1432ZM3.38224 7.06041H15.6083V6.72963H3.38224V7.06041ZM3.38595 8.01783H15.6142V7.68069H3.38595V8.01783ZM3.38224 8.97406H15.6231C15.6231 8.90814 15.6246 8.85572 15.6228 8.8037C15.6209 8.74731 15.6157 8.69092 15.6128 8.64565H3.38224V8.97406Z" fill="#204A8F"/>
</svg>
