<svg width="19" height="16" viewBox="0 0 19 16" fill="none" xmlns="http://www.w3.org/2000/svg">
<path d="M0.164063 5.21107C0.203139 5.07175 0.234546 4.92985 0.282387 4.79347C0.572354 3.96526 1.29873 3.42341 2.17959 3.37305C2.20333 3.37158 2.22707 3.36717 2.27746 3.36092C2.27746 3.08301 2.27965 2.80436 2.27454 2.52572C2.27381 2.49374 2.23875 2.44852 2.20807 2.43308C2.01963 2.33824 1.95938 2.17392 1.95864 1.97946C1.95645 1.4843 1.95317 0.988765 1.95974 0.493969C1.96376 0.164963 2.13357 0.00174612 2.46152 0.00137852C3.93144 -0.000459506 5.40173 -0.000459506 6.87165 0.00137852C7.19923 0.00174612 7.36759 0.164963 7.37197 0.495807C7.37855 0.99097 7.37562 1.48613 7.37307 1.9813C7.37197 2.17576 7.31062 2.34008 7.12218 2.43419C7.09187 2.44926 7.05827 2.49558 7.05754 2.52793C7.05242 2.80142 7.05462 3.07529 7.05462 3.37011C7.14811 3.37011 7.22516 3.37011 7.30222 3.37011C10.4122 3.37011 13.5226 3.36937 16.6327 3.37048C17.6165 3.37084 18.3955 3.89321 18.7 4.77914C18.7797 5.01146 18.8231 5.26842 18.8238 5.51398C18.8322 8.29564 18.833 11.0777 18.8275 13.8597C18.8249 15.0621 17.9072 15.9948 16.7163 15.9962C11.9052 16.0017 7.09406 16.0006 2.28294 15.9966C1.22715 15.9959 0.386833 15.2724 0.19693 14.2303C0.190357 14.195 0.175384 14.1611 0.164062 14.127C0.164062 11.1549 0.164063 8.18279 0.164063 5.21107ZM9.50509 4.22222C7.13605 4.22222 4.76702 4.22185 2.39798 4.22222C1.53794 4.22222 1.01461 4.74826 1.01424 5.61654C1.01315 8.32505 1.01315 11.0336 1.0157 13.7421C1.0157 13.8935 1.02666 14.0498 1.06537 14.195C1.22752 14.8045 1.7052 15.1441 2.39031 15.1441C7.12839 15.1449 11.8668 15.1449 16.6049 15.1426C16.7492 15.1426 16.8982 15.1305 17.0369 15.093C17.6296 14.9335 17.9777 14.4585 17.9784 13.7957C17.9817 11.0505 17.9802 8.30557 17.978 5.5603C17.978 5.4331 17.9653 5.30224 17.9331 5.17983C17.775 4.57695 17.2926 4.22332 16.6308 4.22295C14.2556 4.22148 11.8803 4.22258 9.50546 4.22258L9.50509 4.22222ZM6.50791 0.867088H2.82818V1.60377H6.50828V0.867088H6.50791ZM6.18983 3.36386V2.49116H3.14152V3.36386H6.18983Z" fill="#204A8F"/>
<path d="M1.85887 7.9462C1.96039 7.97267 2.0495 7.99068 2.13569 8.01862C2.804 8.23624 3.47487 8.2469 4.13807 8.01421C4.85605 7.76203 5.58498 7.64624 6.33875 7.78152C6.60023 7.82857 6.86025 7.89768 7.11114 7.98443C7.86309 8.24433 8.60809 8.2436 9.35784 7.97524C10.2825 7.6444 11.2141 7.6297 12.1396 7.96385C12.9459 8.25462 13.7391 8.23477 14.5433 7.94878C15.4325 7.63227 16.3287 7.65065 17.2202 7.95907C17.4097 8.0245 17.535 8.14765 17.5503 8.35241C17.5631 8.52408 17.4926 8.68693 17.333 8.7406C17.2008 8.78508 17.0325 8.78728 16.8981 8.74721C16.5037 8.62958 16.1045 8.5476 15.6966 8.59208C15.3734 8.62737 15.0451 8.68178 14.7383 8.78618C13.7884 9.1093 12.8473 9.12144 11.9022 8.78324C11.1473 8.51305 10.3921 8.51379 9.63795 8.78324C8.69902 9.11886 7.75974 9.12107 6.82081 8.78581C6.05937 8.51415 5.30013 8.51452 4.53906 8.78655C3.62606 9.11298 2.70978 9.12107 1.79094 8.80713C1.60286 8.7428 1.46957 8.62921 1.44656 8.42446C1.4272 8.25279 1.49586 8.11089 1.64669 8.0234C1.71279 7.98517 1.79167 7.96973 1.8585 7.9462H1.85887Z" fill="#204A8F"/>
</svg>
