<svg width="19" height="16" viewBox="0 0 19 16" fill="none" xmlns="http://www.w3.org/2000/svg">
<path d="M16.8452 5.53386V1.8459C16.7817 1.8433 16.7218 1.83843 16.6619 1.83843C13.5585 1.8381 10.4551 1.83322 7.35208 1.8394C4.21658 1.8459 1.52097 3.88589 0.766286 6.80999C-0.178412 10.4697 2.29172 14.1914 6.11969 14.8734C6.31371 14.9078 6.51108 14.9267 6.70711 14.9517C6.90716 14.9774 7.01421 15.0902 6.99447 15.2556C6.97507 15.4169 6.84126 15.5095 6.64121 15.4897C5.43358 15.3717 4.31794 14.9976 3.30299 14.3478C3.18958 14.2753 3.07886 14.1992 2.931 14.1008C2.71724 14.3179 2.50883 14.5461 2.28202 14.756C1.8468 15.1591 1.20117 15.164 0.77097 14.7801C0.311667 14.3699 0.283901 13.6964 0.719118 13.2485C0.934887 13.0262 1.16939 12.8207 1.38783 12.6153C-0.460082 9.80724 -0.465769 7.0242 1.39753 4.19045C1.18076 3.9912 0.931207 3.78512 0.709417 3.55336C0.130689 2.9491 0.432096 1.97917 1.25536 1.78707C1.64977 1.69508 2.00436 1.79227 2.29607 2.07018C2.51585 2.27951 2.72694 2.49762 2.94371 2.7141C3.55522 2.27594 4.19349 1.94016 4.88562 1.70321C5.63128 1.44805 6.39935 1.3008 7.1905 1.2995C10.331 1.29495 13.4712 1.2969 16.6117 1.29657C16.6847 1.29657 16.7579 1.29657 16.8576 1.29657C16.8576 1.13503 16.8553 0.987457 16.8579 0.839886C16.8626 0.590901 16.9529 0.501839 17.2052 0.501189C17.6872 0.499889 18.1696 0.499889 18.6517 0.501189C18.9039 0.501839 18.9976 0.592526 18.9979 0.838261C18.9992 1.58879 18.9989 2.33964 18.9979 3.09017C18.9979 3.31478 18.8942 3.4357 18.7122 3.43147C18.5373 3.42757 18.4419 3.31121 18.4416 3.09375C18.4406 2.48104 18.4412 1.86865 18.4412 1.25594C18.4412 1.19126 18.4412 1.12658 18.4412 1.05182H17.4253V6.3286H18.4412C18.4412 6.26294 18.4412 6.19891 18.4412 6.13487C18.4412 5.51631 18.4406 4.89775 18.4416 4.27919C18.4419 4.06856 18.5459 3.94342 18.7159 3.94114C18.8868 3.93854 18.9972 4.06466 18.9979 4.27204C18.9992 5.0346 18.9996 5.79748 18.9979 6.56003C18.9972 6.77976 18.8952 6.8802 18.6691 6.88183C18.1746 6.88475 17.6799 6.88508 17.1854 6.88183C16.97 6.88053 16.8673 6.78139 16.8593 6.57336C16.8533 6.41864 16.8583 6.26359 16.8583 6.09717H14.265C15.013 8.45082 14.6695 10.6368 13.1892 12.6897C13.3956 12.8779 13.6201 13.0583 13.8141 13.2657C14.1356 13.6093 14.1968 14.0107 14.0058 14.4362C13.8278 14.8328 13.4113 15.0782 12.9664 15.0616C12.6764 15.0509 12.4262 14.9436 12.2211 14.7437C12.0294 14.5568 11.8411 14.3663 11.6427 14.169C11.5848 14.2031 11.538 14.2279 11.4942 14.2574C10.4508 14.9573 9.29567 15.361 8.03618 15.489C7.96861 15.4959 7.90036 15.4994 7.83245 15.4998C7.65081 15.5011 7.53673 15.41 7.52469 15.2569C7.51198 15.0973 7.61802 14.9833 7.80369 14.9605C8.01209 14.9351 8.22184 14.9192 8.42891 14.8877C11.2456 14.459 13.5354 12.2356 13.9954 9.49194C14.1948 8.30325 14.075 7.14902 13.6294 6.02566C13.498 5.69379 13.6013 5.54427 13.9623 5.54394C14.8648 5.54329 15.7674 5.54394 16.6699 5.54329C16.7241 5.54329 16.7783 5.53777 16.8446 5.53419L16.8452 5.53386ZM1.73741 13.0632C1.53101 13.2534 1.2955 13.4481 1.08843 13.6678C0.908125 13.8593 0.931541 14.1476 1.1075 14.3426C1.2751 14.5282 1.57383 14.5968 1.77755 14.4434C2.04149 14.2448 2.27031 14.0023 2.50347 13.7887C2.23017 13.53 1.98329 13.2959 1.73741 13.0632ZM2.52656 3.01866C2.46868 2.97673 2.41482 2.94553 2.37067 2.90425C2.20708 2.75018 2.0522 2.587 1.88393 2.43846C1.67452 2.25351 1.36308 2.25351 1.15801 2.42513C0.950275 2.59936 0.88705 2.91758 1.06736 3.11975C1.27811 3.35606 1.53168 3.55661 1.73574 3.74384C1.98228 3.51793 2.23652 3.28488 2.52656 3.01899V3.01866ZM12.8634 13.0977C12.6045 13.3574 12.3579 13.6047 12.091 13.8726C12.2485 14.0195 12.4255 14.1853 12.6034 14.3497C12.8416 14.5695 13.1654 14.5776 13.3839 14.3712C13.6017 14.1654 13.608 13.8436 13.3882 13.6132C13.221 13.4377 13.042 13.2725 12.8634 13.098V13.0977Z" fill="#204A8F"/>
<path d="M6.83454 7.17831C6.5047 6.37838 6.42274 5.56706 6.78068 4.69724C6.53179 4.7538 6.32104 4.80158 6.11029 4.84936C5.94336 4.88739 5.79751 4.81491 5.75536 4.67319C5.71154 4.52497 5.78681 4.39007 5.94738 4.33222C5.98786 4.31759 6.03001 4.30719 6.07149 4.29646C7.26407 3.98734 8.40212 4.12061 9.46792 4.72455C11.0874 5.64247 11.8812 7.34181 11.6025 9.0821C11.3182 10.8588 9.91183 12.2474 8.08968 12.6014C5.59479 13.086 3.14138 11.3314 2.89551 8.8679C2.72758 7.18546 3.39629 5.86253 4.79427 4.87504C4.82404 4.85391 4.85482 4.83246 4.88794 4.81686C5.0281 4.75153 5.15355 4.7694 5.25056 4.89227C5.34356 5.01026 5.32282 5.15718 5.19336 5.25957C5.05453 5.36944 4.91035 5.4728 4.76383 5.57291C4.67217 5.63565 4.6628 5.70261 4.69993 5.80305C4.99298 6.59778 5.59613 7.07462 6.3836 7.36326C6.41805 7.37594 6.46924 7.37302 6.50202 7.35741C6.61174 7.30476 6.71678 7.24267 6.83387 7.17831H6.83454ZM10.2922 10.6849C10.7786 10.068 11.0345 9.39252 11.086 8.64427C11.089 8.59974 11.0298 8.52953 10.9813 8.50612C10.1972 8.12712 9.41707 8.20416 8.64398 8.54253C8.60551 8.55943 8.56938 8.60526 8.555 8.64524C8.51686 8.75153 8.49111 8.86172 8.45598 8.98589C9.27791 9.32654 9.92454 9.85344 10.2922 10.6849ZM4.21621 6.13719C3.73951 6.74113 3.48795 7.4117 3.43376 8.15215C3.42974 8.20546 3.49665 8.29062 3.55285 8.3176C4.21621 8.63744 4.89195 8.60234 5.58475 8.39886C5.89753 8.3072 6.03034 8.12582 6.05041 7.83198C4.93979 7.2482 4.79929 7.11916 4.21588 6.13719H4.21621ZM7.67888 9.62948C8.01909 10.4437 8.09235 11.2589 7.74545 12.1047C8.54162 11.9978 9.21401 11.7003 9.7894 11.2004C9.82653 11.1682 9.83121 11.0678 9.81214 11.0119C9.58768 10.3615 9.12001 9.92202 8.50917 9.60575C8.26196 9.47768 8.0221 9.36847 7.76853 9.58722C7.7508 9.6025 7.72471 9.60835 7.67888 9.62948ZM6.66326 9.56902C6.31134 10.3712 5.77108 10.9927 4.92407 11.3516C4.97391 11.3919 5.00368 11.4192 5.0368 11.4423C5.60717 11.8375 6.24042 12.0624 6.93891 12.1242C7.06436 12.1353 7.12591 12.1073 7.17977 11.9948C7.54239 11.2375 7.4611 10.4931 7.12256 9.75462C7.10517 9.71692 7.05934 9.68084 7.01819 9.66686C6.9088 9.62948 6.79473 9.60413 6.66326 9.56902ZM3.47858 8.88968C3.46888 8.92121 3.46119 8.93291 3.46286 8.94331C3.57024 9.66166 3.87065 10.2952 4.3614 10.8409C4.39987 10.8838 4.50524 10.9098 4.56144 10.8916C5.39173 10.6212 5.88248 10.0264 6.18556 9.25893C6.19894 9.22545 6.19325 9.17507 6.17653 9.14191C6.12233 9.03562 6.05877 8.93388 5.99354 8.82142C5.1666 9.13964 4.33229 9.21602 3.47858 8.88935V8.88968ZM9.58433 5.46988C9.5656 5.4455 9.55757 5.42762 9.54352 5.41754C8.95007 4.98653 8.28169 4.75023 7.54507 4.68684C7.44137 4.67807 7.39186 4.71512 7.34837 4.80256C7.02388 5.4585 7.06335 6.11964 7.27778 6.79736C7.37178 7.09413 7.55778 7.21602 7.86019 7.2339C8.2081 6.44209 8.74769 5.81995 9.584 5.46988H9.58433ZM11.0549 7.93307C11.0549 7.89309 11.0582 7.86936 11.0546 7.84693C10.9372 7.13801 10.6414 6.5084 10.1534 5.96849C10.1172 5.92884 10.0212 5.90219 9.97004 5.91909C9.13373 6.1918 8.63963 6.79151 8.33254 7.56317C8.31949 7.596 8.32752 7.64605 8.34458 7.67921C8.39911 7.7855 8.46267 7.88756 8.5259 7.9971C9.35585 7.66946 10.1945 7.5973 11.0552 7.93307H11.0549ZM7.25136 7.67303C6.8342 7.67563 6.49968 8.00198 6.49901 8.40666C6.49834 8.81427 6.84959 9.15361 7.26708 9.14841C7.67921 9.14354 8.01809 8.81037 8.01876 8.40926C8.01943 7.99645 7.67955 7.67011 7.25169 7.67303H7.25136Z" fill="#204A8F"/>
<path d="M1.96775 13.8241C1.96373 13.9824 1.71117 14.2258 1.54959 14.2268C1.39939 14.2278 1.26625 14.0961 1.26959 13.9496C1.27327 13.7909 1.5245 13.5507 1.68741 13.5497C1.84163 13.5488 1.97176 13.6762 1.96775 13.8241Z" fill="#204A8F"/>
<path d="M1.96781 2.99003C1.97249 3.1363 1.84002 3.26827 1.68915 3.26794C1.52724 3.26794 1.27501 3.02709 1.26966 2.86781C1.26497 2.71959 1.39276 2.59348 1.54798 2.59348C1.71257 2.59348 1.96279 2.82978 1.96781 2.99036V2.99003Z" fill="#204A8F"/>
<path d="M12.9774 14.2269C12.8172 14.2311 12.5613 13.9941 12.5512 13.8323C12.5422 13.6853 12.669 13.5534 12.8229 13.5498C12.9844 13.5459 13.2394 13.7809 13.2481 13.9418C13.2561 14.089 13.129 14.223 12.9774 14.2269Z" fill="#204A8F"/>
</svg>
