<svg width="19" height="19" viewBox="0 0 19 19" fill="none" xmlns="http://www.w3.org/2000/svg">
<path d="M1.84392 10.5543C1.91609 10.4195 2.01795 10.3023 2.12573 10.1784L2.13261 10.1703C2.15135 10.1484 2.17041 10.1268 2.18916 10.1046C2.20041 10.0915 2.21134 10.0783 2.22259 10.0652C2.28914 9.98607 2.34694 9.91758 2.41817 9.88505C2.76435 9.72743 3.10677 9.56574 3.43576 9.40499C3.47388 9.38622 3.48107 9.38716 3.51356 9.40123C3.73882 9.49881 3.96065 9.46128 4.13811 9.29553C4.38931 9.06128 4.65175 8.82828 4.90763 8.60154L5.04292 8.48145C5.18445 8.35572 5.2385 8.18841 5.19101 8.02265C5.18726 8.00983 5.18445 7.99951 5.22569 7.94634C5.24037 7.92726 5.25506 7.90819 5.27006 7.88786C5.29849 7.85001 5.32504 7.81436 5.3516 7.78621C5.44533 7.68707 5.53937 7.58574 5.63092 7.48723L5.64372 7.47347C5.89711 7.20075 6.15924 6.91897 6.42824 6.65626C6.71318 6.37823 7.03155 6.09551 7.46114 5.73929C7.67985 5.5579 7.92011 5.38808 8.15256 5.22388L8.27784 5.13538C8.36907 5.07064 8.4125 5.06876 8.43031 5.07314L8.44968 5.07815L8.47936 5.08033C8.75462 5.09191 8.87678 5.04843 9.07486 4.86954C9.13735 4.81294 9.19952 4.75633 9.26169 4.69941L9.26825 4.69315C9.44415 4.53209 9.62599 4.36571 9.81095 4.21309C10.0268 4.03482 10.0946 3.8012 10.0075 3.53693C10.0087 3.53506 10.0103 3.53224 10.0122 3.52911C10.0743 3.42935 10.1356 3.32739 10.1952 3.22825C10.2799 3.08752 10.3677 2.94178 10.4571 2.8026C10.4855 2.75851 10.5111 2.7141 10.5339 2.67438C10.5983 2.56273 10.6542 2.46609 10.7404 2.41449C10.8079 2.37414 10.8679 2.33004 10.9257 2.28782C10.9682 2.25686 11.0082 2.22746 11.0482 2.20151C11.0654 2.19025 11.0829 2.17899 11.1004 2.1671C11.1653 2.12426 11.2266 2.0836 11.2809 2.06515C11.704 1.92066 11.9824 1.51941 11.958 1.08969C11.9349 0.682497 11.7215 0.373191 11.3566 0.218382C10.9932 0.0641977 10.6233 0.127998 10.3149 0.397898C10.3077 0.404153 10.3018 0.408844 10.2974 0.411971C10.294 0.409782 10.2896 0.406655 10.2846 0.402902C10.2696 0.391643 10.2518 0.37538 10.2327 0.358179C10.2093 0.336912 10.1827 0.312518 10.1521 0.289062C10.1409 0.280305 10.1281 0.269359 10.1137 0.257162C10.0575 0.208999 9.98029 0.14301 9.87375 0.117365C9.67535 0.0695144 9.46321 0.0216642 9.24263 0.0085289C8.73899 -0.0214947 8.21098 0.0269809 7.53082 0.166153C6.8794 0.299383 6.34857 0.524247 5.90836 0.853569C5.41034 1.22605 5.00386 1.54755 4.62894 1.86499C3.53231 2.79478 2.50347 3.75304 1.57117 4.71317L1.52524 4.76039C1.22968 5.06438 0.923806 5.37838 0.7226 5.78307C0.586067 6.05704 0.46828 6.35321 0.371738 6.66377C0.190527 7.24704 0.027125 7.87973 0.0568061 8.55338C0.0671164 8.78888 0.096485 9.05847 0.313938 9.28177L0.316438 9.28583C0.327373 9.30335 0.334246 9.31617 0.33862 9.32524C0.331747 9.33368 0.321124 9.34619 0.304253 9.36308C0.00962878 9.66144 -0.0731658 10.0214 0.0652418 10.4039C0.199275 10.7745 0.484839 11.0031 0.869756 11.0478C0.917245 11.0535 0.964735 11.0563 1.01035 11.0563C1.37465 11.0563 1.67083 10.878 1.84455 10.554L1.84392 10.5543ZM0.506396 10.2441C0.4311 10.0358 0.472966 9.86128 0.637931 9.69428C0.84726 9.48255 0.869756 9.28583 0.715101 9.03814L0.712914 9.03438C0.704479 9.02 0.687295 8.9906 0.657926 8.96183C0.559198 8.86581 0.534828 8.73196 0.52608 8.53305C0.499211 7.93133 0.651678 7.34649 0.820079 6.80388C0.909122 6.51772 1.01754 6.245 1.14282 5.99355C1.31154 5.65454 1.57867 5.37995 1.86173 5.08909L1.90766 5.04187C2.82996 4.09237 3.84755 3.14444 4.93232 2.22465C5.29974 1.91315 5.69903 1.59728 6.18923 1.23105C6.5729 0.944265 7.04217 0.746923 7.62455 0.627766C8.14693 0.520807 8.56966 0.471081 8.95488 0.471081C9.04174 0.471081 9.12922 0.473583 9.2142 0.478899C9.39417 0.489533 9.58037 0.531441 9.75565 0.573661C9.76752 0.581167 9.79658 0.605874 9.80783 0.615569C9.82626 0.631207 9.845 0.647469 9.86594 0.663419C9.88062 0.674678 9.89749 0.690003 9.91562 0.706578C9.94092 0.729722 9.96998 0.755992 10.004 0.781325C10.2087 0.933007 10.4286 0.922999 10.6236 0.752239C10.7985 0.598994 10.9729 0.567094 11.1725 0.651848C11.3747 0.737853 11.475 0.885469 11.4881 1.11659C11.5006 1.33645 11.3525 1.54349 11.1285 1.62011C11.0166 1.65827 10.9229 1.7205 10.8395 1.77586C10.8239 1.78618 10.8085 1.79619 10.7932 1.80619C10.7417 1.83935 10.6942 1.87406 10.6476 1.90815C10.5958 1.94599 10.547 1.98196 10.4983 2.01104C10.3077 2.12551 10.2115 2.2922 10.1265 2.43919C10.1043 2.47766 10.0834 2.51363 10.0618 2.5474C9.96935 2.69095 9.88062 2.83826 9.79502 2.98087L9.7922 2.98556C9.7369 3.07751 9.6741 3.18196 9.61287 3.28048C9.53101 3.41246 9.51383 3.54412 9.56038 3.68298C9.58756 3.76367 9.5785 3.79495 9.51164 3.8503C9.31793 4.01012 9.13172 4.18056 8.95082 4.34601C8.88709 4.40418 8.82335 4.46266 8.75961 4.52021C8.66057 4.60965 8.65401 4.61591 8.51998 4.6109C8.27347 4.56118 8.07226 4.7041 8.00571 4.75133C7.96447 4.78072 7.92292 4.81012 7.88137 4.83921C7.64173 5.0084 7.39397 5.18354 7.16121 5.37682C6.72162 5.74148 6.3945 6.03202 6.10019 6.31912C5.82369 6.58902 5.55781 6.87518 5.29974 7.15259L5.29568 7.15697C5.20195 7.25767 5.1054 7.36151 5.01011 7.46283C4.96481 7.51068 4.92857 7.55916 4.89357 7.60639L4.89108 7.60983C4.87952 7.62546 4.86764 7.6411 4.85577 7.65642C4.77766 7.75619 4.68206 7.91225 4.7333 8.12742C4.73267 8.12805 4.73205 8.12836 4.73142 8.12898L4.59489 8.25002C4.33869 8.47707 4.07375 8.71226 3.81818 8.95057C3.77757 8.98841 3.75445 8.99185 3.70071 8.96871C3.54012 8.89928 3.39046 8.90334 3.23018 8.98184C2.90494 9.14072 2.56658 9.30053 2.22415 9.45659C2.05637 9.5329 1.9539 9.65487 1.8636 9.76214C1.85329 9.77434 1.8433 9.78654 1.83267 9.79874C1.81236 9.8225 1.79174 9.84596 1.77112 9.87004C1.65146 10.008 1.52743 10.1509 1.43057 10.3317C1.32434 10.5296 1.16375 10.6087 0.924119 10.5809C0.713852 10.5565 0.58138 10.4496 0.507334 10.2441H0.506396Z" fill="#204A8F"/>
<path d="M7.28459 9.78787H7.2824C7.05464 9.7885 6.84125 9.877 6.68128 10.0368C6.52132 10.1966 6.43259 10.4102 6.43165 10.6382C6.43071 10.8625 6.51944 11.0748 6.68159 11.2362C6.84343 11.3973 7.05683 11.4861 7.2824 11.4861H7.29084C7.75574 11.4814 8.13222 11.0986 8.13003 10.6326C8.12784 10.1669 7.74855 9.78787 7.28459 9.78787ZM6.90155 10.6401C6.90248 10.4265 7.07026 10.2589 7.28459 10.2582C7.48704 10.2582 7.65888 10.4306 7.65982 10.6345C7.66076 10.839 7.48954 11.0132 7.28584 11.0154C7.18367 11.0163 7.08682 10.9763 7.01277 10.9025C6.9406 10.8309 6.90123 10.7377 6.90155 10.6401Z" fill="#204A8F"/>
<path d="M9.22259 11.7339H9.21978C8.9992 11.7339 8.7905 11.8208 8.63272 11.9785C8.47088 12.1398 8.38184 12.3544 8.38184 12.5833C8.38184 13.0505 8.75894 13.4312 9.22384 13.4318C9.44942 13.4318 9.66031 13.3452 9.81778 13.1878C9.97993 13.0258 10.0693 12.806 10.0693 12.5686C10.0693 12.1101 9.68968 11.7361 9.2229 11.7345L9.22259 11.7339ZM9.59907 12.568C9.59907 12.6796 9.55877 12.7813 9.48566 12.8545C9.41693 12.9229 9.32413 12.9608 9.22353 12.9608C9.01857 12.9608 8.85205 12.791 8.85205 12.583C8.85205 12.4801 8.89204 12.3838 8.96452 12.3115C9.03388 12.2424 9.12449 12.2043 9.22134 12.2043C9.4263 12.2049 9.59939 12.3716 9.59939 12.568H9.59907Z" fill="#204A8F"/>
<path d="M11.8801 11.0226C11.8801 11.0226 11.8773 11.0226 11.8758 11.0226C11.409 11.0248 11.03 11.4054 11.0313 11.8708C11.0325 12.338 11.4118 12.718 11.8773 12.718C12.3482 12.7177 12.7318 12.3418 12.7331 11.8802C12.7337 11.6487 12.645 11.4323 12.4834 11.2709C12.3232 11.1108 12.1088 11.0226 11.8801 11.0226ZM11.877 12.2473C11.6739 12.2473 11.5021 12.0744 11.5015 11.8695C11.5008 11.6628 11.6699 11.4939 11.8801 11.493C11.9839 11.493 12.0801 11.5324 12.1516 11.6037C12.2238 11.6759 12.2635 11.7735 12.2632 11.8786C12.2625 12.0781 12.086 12.247 11.8773 12.2473H11.877Z" fill="#204A8F"/>
<path d="M7.99279 8.83217H8.00091C8.46581 8.82748 8.84291 8.44499 8.84167 7.979C8.84042 7.50831 8.46425 7.12426 8.00341 7.12332H8.00153C7.77252 7.12332 7.55694 7.21245 7.3951 7.37477C7.23326 7.53677 7.14422 7.75194 7.14453 7.98056C7.14484 8.20355 7.23826 8.42372 7.40104 8.58447C7.56257 8.74429 7.77252 8.83217 7.99279 8.83217ZM7.72753 7.70753C7.80064 7.63435 7.89812 7.594 8.00247 7.594C8.20212 7.59432 8.37146 7.77133 8.37177 7.98025C8.37239 8.18509 8.20024 8.35961 7.99654 8.3618C7.89968 8.36274 7.80564 8.32302 7.73191 8.25015C7.65786 8.17696 7.61537 8.07845 7.61506 7.97993C7.61506 7.87735 7.65473 7.78071 7.72784 7.70784L7.72753 7.70753Z" fill="#204A8F"/>
<path d="M12.596 10.0631H12.6023C13.0675 10.0596 13.4455 9.67871 13.4443 9.21397C13.4434 8.7436 13.0631 8.35986 12.5945 8.35861C12.1265 8.35861 11.7437 8.73954 11.7412 9.20772C11.74 9.4354 11.8284 9.64994 11.9909 9.81194C12.1527 9.97395 12.3677 10.0631 12.596 10.0631ZM12.5957 8.8293C12.8041 8.82992 12.9741 9.00287 12.9744 9.21491C12.9747 9.42164 12.8063 9.59083 12.5989 9.5924C12.4951 9.59333 12.397 9.55299 12.323 9.47887C12.2505 9.40631 12.2108 9.31092 12.2114 9.21022C12.2127 9.0035 12.3883 8.82898 12.5948 8.82898V8.78207L12.5957 8.82898V8.8293Z" fill="#204A8F"/>
<path d="M9.92935 5.62807C8.83709 5.61244 7.7392 6.06936 6.91907 6.88219C6.51415 7.28344 6.19547 7.74756 5.97177 8.26171C5.73745 8.79995 5.62028 9.36508 5.6231 9.94116C5.62872 11.0674 6.08362 12.136 6.90407 12.9501C7.29961 13.3426 7.75701 13.6522 8.26346 13.8702C8.78835 14.096 9.34073 14.2123 9.90498 14.2151H9.9281C11.0529 14.2151 12.117 13.782 12.9246 12.9957C13.7498 12.192 14.2097 11.1086 14.2191 9.94522C14.2237 9.36508 14.1103 8.79776 13.8819 8.2589C13.6614 7.73817 13.3452 7.27062 12.9421 6.86905C12.1376 6.06748 11.0869 5.62776 9.97934 5.62776C9.96278 5.62776 9.94591 5.62776 9.92904 5.62776L9.92935 5.62807ZM9.97841 6.09844C10.9616 6.09844 11.8949 6.48938 12.6107 7.20275C13.3424 7.93176 13.7573 8.93005 13.7492 9.94147C13.7407 10.9782 13.3314 11.9434 12.5969 12.6586C11.8777 13.3592 10.9298 13.7448 9.9281 13.7448H9.90748C8.91207 13.7395 7.96322 13.3385 7.23494 12.6161C6.50384 11.8902 6.09831 10.9394 6.09331 9.93897C6.09081 9.42857 6.19485 8.92755 6.40262 8.44998C6.60257 7.99056 6.88751 7.57586 7.24993 7.21682C7.96696 6.50595 8.92395 6.09844 9.87499 6.09844C9.89155 6.09844 9.90842 6.09844 9.92779 6.09876H9.93154C9.94716 6.09876 9.96278 6.09844 9.97841 6.09844Z" fill="#204A8F"/>
<path d="M10.6438 8.11851H10.6519C10.8747 8.11851 11.0849 8.03219 11.244 7.87519C11.4083 7.71287 11.4995 7.49489 11.5008 7.26096C11.5033 6.79747 11.1246 6.41748 10.6566 6.41373H10.65C10.4235 6.41373 10.211 6.50036 10.052 6.65798C9.89143 6.81717 9.80239 7.03046 9.80176 7.25908C9.8002 7.72851 10.1779 8.11413 10.6441 8.11851H10.6438ZM10.2713 7.26096C10.2717 7.15838 10.311 7.0633 10.3823 6.99293C10.4529 6.92288 10.5479 6.88441 10.65 6.88441C10.651 6.88441 10.6519 6.88441 10.6528 6.88441C10.8622 6.88597 11.0315 7.05392 11.0306 7.25845C11.0299 7.36635 10.9884 7.46643 10.9137 7.54024C10.8431 7.60998 10.75 7.64814 10.6516 7.64814C10.6503 7.64814 10.6491 7.64814 10.6478 7.64814C10.4357 7.64626 10.2704 7.47613 10.271 7.26096H10.2713Z" fill="#204A8F"/>
<path d="M9.94975 8.17587C9.94631 8.17587 9.94287 8.17587 9.93944 8.17587C9.48297 8.17587 9.05025 8.3532 8.72001 8.67595C8.38665 9.00184 8.20044 9.43311 8.19637 9.89097C8.187 10.8761 8.94996 11.6555 9.93319 11.6652H9.95037C10.4003 11.6652 10.8289 11.4885 11.1576 11.167C11.491 10.8411 11.6772 10.4108 11.6819 9.95509C11.6866 9.48002 11.5069 9.0328 11.1754 8.69566C10.8486 8.36321 10.4131 8.17869 9.94975 8.17587ZM9.93944 8.64624H9.94693C10.2844 8.64812 10.6018 8.78291 10.8402 9.0256C11.0833 9.27299 11.2154 9.60137 11.2117 9.95008C11.2048 10.6247 10.6271 11.1945 9.94975 11.1945H9.93787C9.58639 11.1911 9.26302 11.0563 9.02713 10.8155C8.79125 10.5743 8.66315 10.2475 8.66627 9.89535C8.6694 9.56384 8.80499 9.25047 9.04838 9.01278C9.2902 8.77666 9.6067 8.64656 9.93944 8.64656V8.64624Z" fill="#204A8F"/>
<path d="M11.5553 15.0502L11.5563 15.0483C11.5922 14.9836 11.6294 14.917 11.6662 14.8488L11.9174 14.3841L11.4044 14.5082C11.3444 14.5226 11.2854 14.5376 11.2273 14.552C11.1054 14.5826 10.9904 14.6114 10.8748 14.6352C10.2362 14.7665 9.62292 14.7681 9.05149 14.6399C8.6775 14.5561 8.29883 14.4441 7.93235 14.3353L7.92204 14.3321C7.85706 14.3127 7.79238 14.2937 7.7274 14.2746L7.67803 14.2602C7.34248 14.1614 6.99568 14.0594 6.62482 14.0344C6.18429 14.0047 5.75813 14.0432 5.36291 14.0894C4.53715 14.1858 3.73451 14.3812 2.97686 14.6699C2.90063 14.699 2.82814 14.729 2.75097 14.7606L2.74472 14.7631C2.71067 14.7772 2.67599 14.7916 2.64006 14.8059L2.3623 14.9189L2.53789 15.1619C2.57913 15.2188 2.61912 15.276 2.65787 15.3314C2.74597 15.4571 2.82939 15.5756 2.92406 15.6926C3.27648 16.1282 3.67671 16.5323 4.11349 16.8942C4.89769 17.5437 5.76063 18.0473 6.67856 18.3906C7.75864 18.7947 8.87777 18.9999 10.0047 18.9999H10.0353C10.2253 18.9993 10.3518 18.886 10.3734 18.6971C10.3887 18.5658 10.4084 18.4335 10.4309 18.2868C10.5752 17.3473 10.8727 16.4203 11.3407 15.4527C11.4054 15.3192 11.4778 15.1884 11.555 15.0499L11.5553 15.0502ZM6.59327 14.5041C6.91257 14.5257 7.22001 14.6161 7.54587 14.7121L7.59524 14.7265C7.66335 14.7465 7.73114 14.7665 7.79925 14.7869C8.17292 14.8976 8.55909 15.012 8.94901 15.0993C9.58574 15.2419 10.2656 15.241 10.9695 15.0962C10.9789 15.0943 10.9883 15.0924 10.9976 15.0902C10.9676 15.1475 10.9417 15.1988 10.918 15.2479C10.4293 16.258 10.1181 17.2291 9.9666 18.2155C9.95035 18.3222 9.93442 18.4266 9.92067 18.5292C8.8784 18.5192 7.84331 18.3247 6.84321 17.9503C5.97465 17.6254 5.15701 17.1481 4.41342 16.532C4.0007 16.1902 3.62266 15.8083 3.2896 15.3967C3.22274 15.3142 3.15932 15.2266 3.09152 15.1303C3.10902 15.1234 3.12683 15.1165 3.14432 15.1099C3.86573 14.835 4.63056 14.649 5.41758 14.557C5.79031 14.5135 6.19085 14.4769 6.59327 14.5041Z" fill="#204A8F"/>
<path d="M17.769 13.9393C17.6831 13.8667 17.5953 13.7942 17.5106 13.7238C17.266 13.5208 17.0129 13.3107 16.7807 13.0911C16.2618 12.6004 15.7878 12.024 15.3317 11.3294C15.2717 11.2378 15.2151 11.1427 15.1552 11.042L15.1533 11.0389C15.1242 10.9901 15.0945 10.9401 15.063 10.8885L14.7815 10.4243L14.6359 10.9473C14.6315 10.9629 14.6275 10.977 14.6237 10.9901L14.6212 10.9985C14.6122 11.0304 14.6043 11.058 14.5972 11.0867C14.4419 11.7163 14.1991 12.2305 13.8551 12.6589C13.5668 13.018 13.2556 13.3495 12.9075 13.7144L12.8719 13.752C12.3786 14.2699 11.8681 14.805 11.5231 15.4758L11.4953 15.5299C11.3869 15.7407 11.2744 15.9584 11.1782 16.1842C10.9086 16.8169 10.7099 17.5087 10.5874 18.2399C10.5705 18.3412 10.5555 18.4428 10.5408 18.541L10.5393 18.5514C10.5327 18.5955 10.5262 18.6402 10.5193 18.6855L10.4746 18.9792L10.7705 18.9554C10.7958 18.9536 10.8198 18.9517 10.8442 18.9501C10.8942 18.9467 10.9417 18.9432 10.9907 18.9373C11.8918 18.8256 12.7647 18.5867 13.5852 18.2267C14.3435 17.894 15.083 17.4364 15.7828 16.8663C16.274 16.466 16.703 16.0197 17.0579 15.5396C17.3697 15.1177 17.6231 14.7553 17.8461 14.3581C17.9321 14.2054 17.9039 14.0528 17.7693 13.9393H17.769ZM17.3794 14.2264C17.1803 14.567 16.9548 14.8869 16.6795 15.2597C16.348 15.7082 15.9466 16.126 15.4857 16.5013C14.8187 17.0446 14.1157 17.4802 13.3962 17.7958C12.647 18.1245 11.8506 18.3471 11.0286 18.4579C11.0357 18.4106 11.0432 18.364 11.051 18.3174C11.1673 17.6228 11.3557 16.9673 11.6106 16.3687C11.7 16.1589 11.8084 15.9487 11.913 15.7454L11.9409 15.6913C12.2552 15.0808 12.7197 14.5929 13.2118 14.0766L13.2478 14.0391C13.603 13.6663 13.9211 13.3276 14.2213 12.9535C14.535 12.5629 14.7712 12.1166 14.9418 11.5918C15.4173 12.3155 15.9131 12.9176 16.4577 13.4327C16.7005 13.6622 16.9595 13.8774 17.2103 14.0857C17.2666 14.1326 17.3231 14.1792 17.3791 14.2261L17.3794 14.2264Z" fill="#204A8F"/>
<path d="M18.8536 8.31825C18.654 7.23396 18.2825 6.2241 17.7495 5.31651C17.6451 5.13887 17.483 5.08539 17.2927 5.1664C16.6313 5.44724 16.0021 5.64177 15.3691 5.76155C14.7804 5.87289 14.2949 5.92887 13.841 5.93763C13.7379 5.9395 13.6329 5.93919 13.522 5.93857H13.5098C13.4592 5.93857 13.407 5.93794 13.3529 5.93794H12.834L13.1764 6.32856C13.2298 6.38955 13.2817 6.44678 13.3323 6.50307C13.4357 6.61785 13.5332 6.72606 13.6191 6.83677C13.7922 7.06039 13.9225 7.24647 14.0294 7.42255C14.2971 7.86446 14.4571 8.37361 14.5977 8.85711C14.6333 8.9794 14.6683 9.10512 14.7026 9.22803C14.8651 9.81099 15.0329 10.4137 15.3513 10.9672C15.3881 11.0316 15.425 11.0983 15.4609 11.1633C15.5403 11.3072 15.6221 11.4557 15.7168 11.5986C16.1942 12.3192 16.7919 12.9672 17.5439 13.5799C17.6058 13.6302 17.6689 13.6781 17.7295 13.7244L17.7336 13.7275C17.7598 13.7475 17.7864 13.7675 17.8126 13.7879L17.9988 13.9317L18.1422 13.7453C18.1457 13.741 18.1485 13.7375 18.1522 13.7328C18.165 13.7175 18.1863 13.6922 18.2025 13.655C18.6352 12.6776 18.8946 11.6534 18.9736 10.6104C19.032 9.83726 18.992 9.06634 18.8542 8.31857L18.8536 8.31825ZM18.5043 10.5747C18.4356 11.4832 18.2219 12.3789 17.8688 13.2381C17.8591 13.2302 17.8495 13.2227 17.8401 13.2149C17.1252 12.6329 16.5588 12.0193 16.1083 11.3388C16.0242 11.2121 15.9505 11.0782 15.8721 10.9359C15.8352 10.8693 15.7974 10.8005 15.7584 10.7327C15.4697 10.2304 15.3169 9.68214 15.1547 9.09918C15.1207 8.97658 15.0854 8.84992 15.0491 8.72545C14.8995 8.21161 14.7286 7.66899 14.4315 7.17861C14.3152 6.98689 14.1753 6.78642 13.9909 6.54842C13.9566 6.50401 13.9191 6.45804 13.8759 6.40737C14.3493 6.39643 14.8526 6.33826 15.4569 6.22379C16.0964 6.10276 16.7297 5.91011 17.3914 5.6352C17.8716 6.4743 18.2081 7.40535 18.3918 8.40363C18.5221 9.11169 18.5602 9.84195 18.5046 10.5747H18.5043Z" fill="#204A8F"/>
<path d="M11.5858 2.02972C11.4136 2.13855 11.2593 2.24207 11.114 2.3459C11.0878 2.36467 11.0603 2.38281 11.0309 2.4022C10.9063 2.48476 10.7647 2.57796 10.6669 2.74903C10.5501 2.95326 10.4261 3.15029 10.3095 3.33293C10.2339 3.45146 10.1986 3.57562 10.1986 3.72324C10.1986 4.00377 10.1352 4.1639 9.97959 4.27523C9.8743 4.35061 9.784 4.43661 9.69465 4.52136C9.65997 4.55452 9.62685 4.58579 9.59311 4.61644C9.57155 4.63583 9.55405 4.65522 9.53593 4.67555C9.52874 4.68337 9.52093 4.69244 9.51125 4.70244L9.14258 5.09807H9.68309C9.70558 5.09807 9.72526 5.09807 9.74307 5.09744C9.77119 5.09713 9.79306 5.09682 9.81087 5.09776C9.89554 5.10276 9.98146 5.10651 10.0646 5.10995C10.2605 5.1184 10.4454 5.12653 10.6288 5.14967C11.1062 5.21003 11.5752 5.36078 12.0535 5.52309C12.6028 5.70949 13.127 5.80018 13.6563 5.80018C13.7972 5.80018 13.9409 5.79362 14.0828 5.78048C15.2135 5.67571 16.1901 5.44866 17.0687 5.0865C17.1015 5.07305 17.1343 5.05898 17.1699 5.04428L17.4823 4.91292L17.3292 4.6768C17.3214 4.6646 17.3143 4.65334 17.3077 4.64271C17.2918 4.61738 17.2768 4.5933 17.2574 4.56765C16.7153 3.84489 16.1589 3.27069 15.5559 2.81221C14.9969 2.38718 14.468 2.05317 13.939 1.79109C13.4666 1.55716 12.9561 1.3595 12.4216 1.20375C12.3788 1.19124 12.265 1.15809 12.1538 1.22314C12.0413 1.28882 12.0138 1.40516 12.0045 1.44363C11.9445 1.69695 11.8076 1.88835 11.5855 2.02878L11.5858 2.02972ZM11.2896 2.79501C11.3196 2.7753 11.3537 2.75278 11.3871 2.7287C11.5249 2.63019 11.6717 2.53167 11.8367 2.42753C12.1201 2.24833 12.3166 2.00219 12.4209 1.6957C12.8815 1.83706 13.3217 2.01126 13.7306 2.21392C14.2324 2.46256 14.7367 2.78124 15.2716 3.18813C15.798 3.58844 16.2879 4.08415 16.7672 4.70182C15.9639 5.01738 15.0707 5.21754 14.039 5.31324C13.4342 5.36922 12.834 5.2926 12.2041 5.07899C11.702 4.90854 11.2081 4.74998 10.6872 4.68431C10.5463 4.66648 10.4036 4.65678 10.2651 4.64959C10.442 4.5198 10.6685 4.28149 10.6682 3.72386C10.6682 3.66632 10.6782 3.6291 10.7051 3.58688C10.8247 3.39923 10.9525 3.19626 11.0743 2.98359C11.1165 2.90978 11.1968 2.85693 11.2896 2.79563V2.79501Z" fill="#204A8F"/>
<path d="M2.56167 14.6777C2.65133 14.637 2.74288 14.6007 2.83661 14.5641C3.99886 14.1103 5.20891 13.8842 6.43052 13.893C6.45489 13.893 6.47582 13.8917 6.49894 13.8902H6.50331C6.51113 13.8892 6.51956 13.8886 6.52893 13.8883L7.06257 13.8586L6.68015 13.4848C6.06716 12.8859 5.62944 12.2198 5.37949 11.5045C5.12861 10.7862 5.05738 9.99116 5.16798 9.14143L5.2389 8.59756L4.7965 8.92094C4.78806 8.9272 4.78025 8.93252 4.77338 8.93752L4.76931 8.94033C4.74963 8.9541 4.72901 8.96848 4.70745 8.98787C4.65684 9.03291 4.60654 9.07826 4.55623 9.1236L4.55124 9.12798C4.45407 9.21555 4.35378 9.30593 4.25411 9.39194C4.23474 9.40852 4.21568 9.42572 4.19475 9.44448C4.13695 9.4964 4.08259 9.5455 4.03697 9.56364C3.91731 9.61211 3.77672 9.62243 3.60644 9.59491C3.51146 9.57959 3.41023 9.59147 3.329 9.62744L3.29776 9.6412C3.07905 9.73815 2.85317 9.83823 2.63415 9.95238C2.51261 10.0156 2.39483 10.1056 2.29297 10.2126C2.1555 10.3574 2.03022 10.5122 1.90837 10.6629L1.88462 10.6923C1.67404 10.9525 1.49377 11.0801 1.28194 11.1189C1.24195 11.1261 1.12041 11.1486 1.04637 11.2618C0.972946 11.3741 1.00075 11.492 1.00981 11.5308C1.03168 11.6243 1.05262 11.7206 1.07292 11.8138L1.07417 11.8198C1.10948 11.9824 1.14603 12.1507 1.19071 12.3167C1.39504 13.0773 1.70966 13.8239 2.12613 14.5357C2.19331 14.6505 2.29266 14.7136 2.40639 14.7136C2.45638 14.7136 2.50855 14.7014 2.56104 14.6777H2.56167ZM4.93553 11.66C5.15517 12.2889 5.50697 12.8838 5.98124 13.4295C4.85398 13.4727 3.73922 13.7066 2.66571 14.126C2.60791 14.1485 2.54261 14.1741 2.47668 14.2017C2.10926 13.5555 1.82964 12.8806 1.6453 12.1948C1.60343 12.039 1.56844 11.8767 1.53408 11.7194C1.5222 11.664 1.51002 11.6077 1.49721 11.5515C1.67623 11.4989 1.9368 11.376 2.24986 10.9888L2.2736 10.9594C2.3892 10.8168 2.50855 10.6692 2.63353 10.5372C2.69976 10.4675 2.77506 10.4096 2.85098 10.3699C3.05656 10.2626 3.27557 10.1657 3.48772 10.0715L3.5149 10.0593C3.51833 10.0587 3.52521 10.0584 3.53146 10.0593C3.78484 10.1 4.01416 10.08 4.21287 9.99961C4.33441 9.95019 4.42658 9.86731 4.50999 9.79257C4.52655 9.77787 4.54311 9.76286 4.55936 9.74878C4.58842 9.72376 4.61841 9.69749 4.6509 9.66903C4.62372 10.3733 4.71901 11.0426 4.93459 11.66H4.93553Z" fill="#204A8F"/>
</svg>
