<svg width="19" height="19" viewBox="0 0 19 19" fill="none" xmlns="http://www.w3.org/2000/svg">
<path fill-rule="evenodd" clip-rule="evenodd" d="M13.583 2.06645C13.489 2.10561 13.3809 2.18577 13.323 2.25931C13.2273 2.38075 13.2234 2.40304 13.2121 2.89301C13.1998 3.42415 13.2182 3.50587 13.3862 3.66688C13.4803 3.75705 13.7089 3.84327 13.8538 3.84327H13.9853V4.60895V5.37464H13.8733C13.7895 5.37464 13.7216 5.34001 13.604 5.23725C13.4008 5.05974 13.2691 5.03123 12.6505 5.03105C12.2177 5.03089 12.1299 5.03964 11.9888 5.09715C11.7872 5.17925 11.6359 5.3631 11.6092 5.55837L11.5894 5.70279L11.218 5.71841C10.9214 5.73088 10.82 5.74791 10.7151 5.80282C10.5095 5.91039 10.408 6.09344 10.3896 6.38959C10.3533 6.97638 10.6122 7.21643 11.283 7.21784L11.608 7.21852V7.46854V7.71856H10.6979H9.78788V7.43848C9.78788 6.96244 9.58677 6.65254 9.16472 6.47819L8.9521 6.39034H4.88465C0.827457 6.39034 0.816796 6.39049 0.648154 6.45615C0.401024 6.55235 0.221054 6.69914 0.103636 6.90031L0 7.07789V9.99998C0 12.9051 0.000445742 12.9229 0.0782287 13.0643C0.192563 13.2722 0.367036 13.4236 0.606143 13.5224L0.817204 13.6096H4.88465H8.9521L9.16472 13.5218C9.58677 13.3474 9.78788 13.0375 9.78788 12.5615V12.2814H10.6979H11.608V12.5314V12.7814L11.283 12.7821C10.6122 12.7835 10.3533 13.0236 10.3896 13.6104C10.408 13.9065 10.5095 14.0896 10.7151 14.1971C10.82 14.2521 10.9214 14.2691 11.218 14.2816L11.5894 14.2972L11.6092 14.4416C11.6359 14.6369 11.7872 14.8207 11.9888 14.9028C12.1299 14.9603 12.2177 14.9691 12.6505 14.9689C13.2691 14.9687 13.4008 14.9402 13.604 14.7627C13.7216 14.66 13.7895 14.6253 13.8733 14.6253H13.9853V15.391V16.1567H13.8535C13.6185 16.1567 13.3931 16.2822 13.2731 16.4798C13.208 16.5872 13.2016 16.6531 13.2121 17.1073C13.2234 17.5977 13.2272 17.6191 13.3236 17.7414C13.3835 17.8175 13.4881 17.8944 13.586 17.9343C13.7466 17.9997 13.7793 18.0006 16.0865 17.9999C18.2799 17.9992 18.4334 17.9956 18.5728 17.9415C18.9218 17.806 19 17.6443 19 17.0583C19 16.6694 18.9902 16.5969 18.9212 16.477C18.8243 16.3087 18.6227 16.191 18.3814 16.162L18.2014 16.1403V15.391V14.6417L18.381 14.6201C18.5924 14.5947 18.7677 14.5017 18.8919 14.3492L18.9814 14.2393V9.99998V5.7607L18.8919 5.65081C18.7677 5.49824 18.5924 5.40529 18.381 5.37985L18.2014 5.35823V4.60895V3.85968L18.3814 3.83799C18.6227 3.80896 18.8243 3.69129 18.9212 3.52293C18.9902 3.40308 19 3.33058 19 2.9417C19 2.35566 18.9218 2.19396 18.5728 2.05845C18.4334 2.00432 18.2799 2.00073 16.0841 2.0001C13.7654 1.99944 13.7424 2.00004 13.583 2.06645ZM18.3611 2.53692C18.4079 2.5763 18.426 3.19972 18.3831 3.29379C18.3633 3.33729 18.2315 3.34323 17.2845 3.34323H16.2084L16.0998 3.43458C16.0401 3.48484 15.9912 3.54881 15.9912 3.57678C15.9912 3.65401 16.0923 3.80199 16.16 3.82386C16.1931 3.83452 16.528 3.84327 16.9043 3.84327H17.5885V4.6093V5.37535L16.0934 5.36717L14.5982 5.35901V4.60895V3.8589L14.9267 3.84327C15.215 3.82955 15.2637 3.81864 15.326 3.75386C15.365 3.71329 15.3969 3.65416 15.3969 3.6225C15.3969 3.53765 15.3212 3.41277 15.2526 3.38433C15.2196 3.37064 14.8833 3.3523 14.5054 3.34355L13.8182 3.32761L13.8077 2.93942C13.7999 2.64987 13.8093 2.54477 13.8449 2.5258C13.9264 2.48229 18.309 2.49308 18.3611 2.53692ZM13.1607 5.5684C13.1933 5.59581 13.2053 5.84355 13.2053 6.48778C13.2053 6.97282 13.2157 7.39244 13.2283 7.42026C13.2543 7.47723 13.4302 7.5623 13.522 7.5623C13.5553 7.5623 13.6313 7.5212 13.691 7.47095L13.7996 7.3796V6.62714V5.87467H16.0581C17.7651 5.87467 18.3274 5.88383 18.3611 5.91218C18.4258 5.96665 18.4258 14.0333 18.3611 14.0878C18.3274 14.1161 17.7651 14.1253 16.0581 14.1253H13.7996V11.2047C13.7996 9.13076 13.7876 8.26198 13.7584 8.20788C13.6757 8.05527 13.4381 8.01987 13.2965 8.13906L13.2053 8.21576V11.3049C13.2053 13.6659 13.1948 14.4029 13.1607 14.4316C13.1139 14.4709 12.3729 14.4862 12.2611 14.4501C12.2079 14.4329 12.2023 14.0117 12.2023 9.99923C12.2023 6.48297 12.2119 5.56409 12.2488 5.55159C12.3505 5.51705 13.1165 5.53118 13.1607 5.5684ZM11.608 6.46847V6.71849H11.3307C11.011 6.71849 10.9765 6.69311 10.9765 6.45747C10.9765 6.22404 10.9845 6.21845 11.3148 6.21845H11.608V6.46847ZM1.58579 7.48698C1.59704 8.08725 1.59897 8.1004 1.68496 8.15891C1.76995 8.21676 1.88648 8.2186 5.48311 8.2186H9.19355V8.64051V9.06241H5.68328H2.17302V8.97847C2.17302 8.78352 1.87474 8.68032 1.68496 8.80961L1.59726 8.86937L1.5872 11.0011L1.57717 13.1328L1.24345 13.1194C0.867425 13.1042 0.752497 13.0572 0.640837 12.873C0.580438 12.7733 0.575869 12.5717 0.575832 10.0068C0.575758 7.06829 0.572452 7.12492 0.752385 6.99013C0.860182 6.90938 1.00234 6.8805 1.30719 6.87744L1.57427 6.87475L1.58579 7.48698ZM8.89375 6.9295C9.11577 7.02473 9.1733 7.12449 9.18794 7.43954L9.20094 7.71856H5.68696H2.17302V7.29666V6.87475L5.4697 6.87481C8.53488 6.87484 8.77533 6.87869 8.89375 6.9295ZM11.5894 9.99998V11.7657L10.6887 11.7741L9.78788 11.7825V9.99998V8.21747L10.6887 8.22585L11.5894 8.23423V9.99998ZM9.19355 9.99998V10.4063H5.68328H2.17302V9.99998V9.5937H5.68328H9.19355V9.99998ZM9.19355 11.3596V11.7817L5.69257 11.7737L2.19159 11.7657L2.18123 11.3516L2.17087 10.9376H5.68221H9.19355V11.3596ZM9.18794 12.5604C9.1733 12.8755 9.11577 12.9752 8.89375 13.0705C8.77533 13.1213 8.53488 13.1251 5.4697 13.1252L2.17302 13.1252V12.7033V12.2814H5.68696H9.20094L9.18794 12.5604ZM11.608 13.5315V13.7815H11.3148C10.9845 13.7815 10.9765 13.7759 10.9765 13.5425C10.9765 13.3069 11.011 13.2815 11.3307 13.2815H11.608V13.5315ZM17.5885 15.391V16.1567H16.9043C16.528 16.1567 16.1931 16.1654 16.16 16.1761C16.0923 16.198 15.9912 16.346 15.9912 16.4232C15.9912 16.4512 16.0401 16.5151 16.0998 16.5654L16.2084 16.6567H17.2845C18.2315 16.6567 18.3633 16.6627 18.3831 16.7062C18.426 16.8002 18.4079 17.4237 18.3611 17.463C18.309 17.5069 13.9264 17.5177 13.8449 17.4742C13.8093 17.4552 13.7999 17.3501 13.8077 17.0605L13.8182 16.6724L14.5054 16.6564C14.8833 16.6477 15.2196 16.6293 15.2526 16.6156C15.3212 16.5872 15.3969 16.4623 15.3969 16.3775C15.3969 16.3458 15.365 16.2867 15.326 16.2461C15.2637 16.1813 15.215 16.1704 14.9267 16.1567L14.5982 16.1411L14.5882 15.423C14.5827 15.028 14.5864 14.6869 14.5963 14.6651C14.6106 14.6338 14.9327 14.6253 16.1015 14.6253H17.5885V15.391Z" fill="#204A8F"/>
</svg>
