<svg width="19" height="14" viewBox="0 0 19 14" fill="none" xmlns="http://www.w3.org/2000/svg">
<g clip-path="url(#clip0_850_12375)">
<path d="M0 11.2213C0.101135 11.0573 0.254697 11.0125 0.451389 11.0132C1.69438 11.0188 2.93775 11.016 4.18074 11.016H4.41648V9.53087C4.14059 9.53087 3.87065 9.52562 3.6007 9.53262C3.42744 9.53716 3.29135 9.48752 3.17348 9.36585C3.02773 9.21552 2.87491 9.07042 2.71466 8.93407C2.57448 8.81485 2.51573 8.67676 2.528 8.5009C2.53804 8.35686 2.52986 8.21177 2.52986 8.05479H1.27237V9.21726H0.645108V6.26161H2.53024C2.53024 6.07352 2.51202 5.90466 2.53656 5.74139C2.5544 5.62357 2.60423 5.49386 2.6838 5.40366C2.84108 5.22535 3.01806 5.05894 3.20769 4.91105C3.30325 4.83623 3.44119 4.78064 3.56427 4.77155C3.84573 4.75127 4.1298 4.76526 4.41908 4.76526V3.27415H3.8093V2.69169H6.95452V3.2703H6.35143V5.94206H7.60297C7.60297 5.7718 7.58959 5.60364 7.60781 5.43897C7.62008 5.32954 7.65317 5.20822 7.71936 5.12082C7.99116 4.76071 8.28341 4.4139 8.55892 4.05624C8.66489 3.91884 8.79503 3.86745 8.96979 3.8685C9.60076 3.87234 10.2314 3.86989 10.8623 3.86989C10.9293 3.86989 10.9958 3.86989 11.0747 3.86989V3.2738C10.8824 3.2738 10.6932 3.2738 10.5043 3.2738C10.2816 3.2738 10.0588 3.2773 9.8365 3.27205C9.62121 3.26681 9.50446 3.15808 9.50186 2.95565C9.4974 2.57177 9.50074 2.18789 9.50037 1.80437C9.50037 1.65997 9.5818 1.57152 9.71194 1.50335C10.099 1.30127 10.4913 1.12331 10.9549 1.19359C10.9891 1.19883 11.0263 1.18764 11.0869 1.18135C11.0869 0.915993 11.0862 0.656228 11.0869 0.396814C11.088 0.0926481 11.1836 0.00174808 11.5082 0.00104885C12.0711 -0.000349615 12.6337 -0.000349615 13.1966 0.00104885C13.5149 0.00209769 13.6168 0.10034 13.6179 0.40031C13.6187 0.644691 13.619 0.888723 13.6201 1.1331C13.6201 1.14429 13.6257 1.15548 13.6361 1.19534C13.8042 1.19534 13.9812 1.18729 14.157 1.19708C14.5237 1.21736 14.8141 1.41524 15.1074 1.5918C15.1703 1.62956 15.1959 1.75647 15.1981 1.84317C15.2078 2.20363 15.2059 2.56408 15.2011 2.92488C15.1978 3.16996 15.0847 3.27135 14.8222 3.2738C14.4389 3.2773 14.0555 3.27695 13.6722 3.27904C13.6614 3.27904 13.6503 3.28778 13.6287 3.29652V3.87059H13.8417C14.7758 3.87059 15.7094 3.87059 16.6434 3.87059C17.0082 3.87059 17.1022 3.96079 17.1026 4.30691C17.1026 4.5506 17.1026 4.79428 17.1026 5.06488C17.3781 5.06488 17.6414 5.06453 17.905 5.06488C18.2779 5.06558 18.3675 5.14844 18.3679 5.49351C18.3679 6.60424 18.3679 7.71496 18.3679 8.82569C18.3679 9.13615 18.2657 9.23125 17.9366 9.2323C17.6767 9.233 17.4172 9.23404 17.1573 9.23544C17.1461 9.23544 17.1353 9.24313 17.103 9.25467C17.103 9.50674 17.1037 9.76651 17.103 10.0263C17.1019 10.3252 16.9989 10.421 16.6784 10.4213C16.1968 10.422 15.7153 10.4213 15.2186 10.4213V11.0164H15.4194C16.4646 11.0164 17.5097 11.0164 18.5549 11.0164C18.9 11.0164 19 11.1094 19.0004 11.4282C19.0004 12.1376 19.0004 12.8473 19.0004 13.5567C19.0004 13.915 18.9134 13.9972 18.5308 13.9972C13.583 13.9972 8.63515 13.9972 3.68734 13.9972C2.61129 13.9972 1.53487 13.9944 0.458826 14C0.265479 14.0011 0.108571 13.9608 0.00037182 13.8032V11.2209L0 11.2213ZM18.359 11.6254H0.641389V13.3885H18.359V11.6254ZM16.4605 4.47718C16.3924 4.47298 16.3437 4.46774 16.295 4.46774C13.9206 4.46739 11.5458 4.46634 9.17131 4.47193C9.09435 4.47193 8.99358 4.52018 8.94525 4.57717C8.72476 4.83518 8.51542 5.10229 8.31018 5.37149C8.26742 5.42778 8.23916 5.50749 8.23879 5.57637C8.23433 6.62312 8.23395 7.66951 8.23879 8.71626C8.23879 8.79038 8.27188 8.87534 8.31799 8.93652C8.51133 9.19209 8.72067 9.43717 8.91327 9.69344C8.98949 9.79483 9.07166 9.83014 9.20329 9.82979C11.5532 9.82594 13.9031 9.82699 16.253 9.82699H16.4601V4.47718H16.4605ZM5.6948 5.3603C5.13409 5.3603 4.59049 5.37953 4.04949 5.35296C3.73047 5.33758 3.49697 5.41694 3.29842 5.65049C3.21252 5.75117 3.15935 5.83788 3.16047 5.97038C3.16679 6.6787 3.18241 7.38772 3.15489 8.09535C3.14299 8.40371 3.23112 8.62711 3.48135 8.8166C3.57802 8.88967 3.66206 8.93722 3.79033 8.93582C4.35847 8.92988 4.92661 8.93372 5.49476 8.93268C5.55945 8.93268 5.62415 8.92498 5.69442 8.92044V5.3603H5.6948ZM7.60297 8.34952H6.34994V11.0045H9.48513V10.4213C9.29141 10.4213 9.11256 10.4161 8.93409 10.4231C8.77644 10.4294 8.66378 10.3713 8.57157 10.2539C8.28489 9.88922 7.9893 9.53122 7.70857 9.16272C7.64871 9.08406 7.61673 8.97428 7.60744 8.87569C7.59145 8.70438 7.60297 8.53062 7.60297 8.34917V8.34952ZM10.1325 2.66477H14.5672C14.5672 2.44871 14.5698 2.24628 14.5646 2.04385C14.5638 2.01029 14.5352 1.9582 14.5066 1.94806C14.3426 1.89002 14.1749 1.80017 14.0076 1.79807C12.9085 1.78479 11.809 1.78444 10.7099 1.79807C10.5363 1.80017 10.3623 1.88967 10.1927 1.94946C10.1622 1.96029 10.1366 2.02253 10.1354 2.06168C10.1299 2.25817 10.1328 2.455 10.1328 2.66477H10.1325ZM17.1175 5.66727V8.62816H17.7209V5.66727H17.1175ZM7.59256 6.56053H6.34994V7.72545H7.59256V6.56053ZM13.2874 10.4311H11.41V11.0034H13.2874V10.4311ZM5.08278 3.28464V4.75652H5.69033V3.28464H5.08278ZM5.08129 9.54171V11.0073H5.6881V9.54171H5.08129ZM12.9758 0.610778H11.7294V1.1831H12.9758V0.610778ZM12.975 3.28708H11.7358V3.8608H12.975V3.28708ZM2.51759 7.43842V6.8661H1.28055V7.43842H2.51722H2.51759ZM13.9485 10.4262V11.0052H14.5523V10.4262H13.9485ZM10.1418 10.4287V11.0059H10.7519V10.4287H10.1418Z" fill="#204A8F"/>
<path d="M3.14906 12.7935H1.91016V12.2225H3.14906V12.7935Z" fill="#204A8F"/>
<path d="M4.125 12.7945V12.2184H4.73887V12.7945H4.125Z" fill="#204A8F"/>
<path d="M17.0923 12.7924H16.4795V12.2191H17.0923V12.7924Z" fill="#204A8F"/>
<path d="M15.1873 8.03556H9.51074V7.46289H15.1873V8.03556Z" fill="#204A8F"/>
<path d="M15.1858 9.22568H9.51074V8.64636H15.1862V9.22568H15.1858Z" fill="#204A8F"/>
<path d="M9.51014 5.66166V5.07605H15.2016C15.2016 5.24841 15.2072 5.40993 15.1968 5.57041C15.1945 5.60222 15.1369 5.64313 15.0956 5.65746C15.0521 5.67284 14.9982 5.66131 14.9487 5.66131C13.2131 5.66131 11.4771 5.66131 9.74141 5.66131C9.66853 5.66131 9.59566 5.66131 9.50977 5.66131L9.51014 5.66166Z" fill="#204A8F"/>
<path d="M10 6.57267V6H15.6822V6.57267H10Z" fill="#204A8F"/>
<path d="M5.05314 6.54199H4.44336V5.96338H5.05314V6.54199Z" fill="#204A8F"/>
</g>
<defs>
<clipPath id="clip0_850_12375">
<rect width="19" height="14" fill="white"/>
</clipPath>
</defs>
</svg>
