<svg width="18" height="18" viewBox="0 0 18 18" fill="none" xmlns="http://www.w3.org/2000/svg">
<path d="M3.75892 0.0002181L5.83352 0.000218281C6.45167 0.23696 6.60136 0.458198 6.60136 1.1346C6.60136 1.69122 6.60136 2.24819 6.60136 2.80482C6.60136 2.86647 6.60136 2.92847 6.60136 2.9866L8.70871 2.9866C8.7221 2.91473 8.73302 2.85731 8.74323 2.79953C8.97816 1.49957 9.71854 0.623071 10.9587 0.17566C11.1873 0.0932249 11.4328 0.0572905 11.6702 -0.00013216L12.3384 -0.000132102C12.3644 0.0104365 12.3901 0.0266414 12.4173 0.0308699C13.9438 0.258098 15.0346 1.34245 15.2586 2.86189C15.2752 2.97533 15.3224 3.00562 15.4298 3.0028C15.6817 2.99646 15.9335 2.99717 16.1853 3.00175C17.0268 3.01654 17.6038 3.49531 17.739 4.31016C17.807 4.71952 17.8507 5.13382 17.8929 5.54706C17.9366 5.97122 17.9651 6.39714 18 6.82236C18 7.27963 18 7.73655 18 8.19383C17.9912 8.2509 17.9792 8.30727 17.9736 8.36469C17.8986 9.12212 17.833 9.88025 17.7478 10.6366C17.6714 11.3165 17.2691 11.7745 16.6094 11.9528C16.4995 11.9824 16.4935 12.0416 16.4939 12.13C16.4957 12.8684 16.4967 13.6068 16.4939 14.3452C16.4925 14.763 16.2586 14.998 15.8416 15.0068C15.6609 15.0107 15.4798 15.0075 15.3002 15.0075C15.0258 16.6164 14.1407 17.6814 12.5243 17.947C10.9411 18.207 9.77419 17.4965 8.99824 16.1109C8.22159 17.4968 7.05467 18.207 5.47108 17.9467C3.85508 17.6811 2.96994 16.6157 2.69591 15.0075C2.53283 15.0075 2.36975 15.0082 2.20632 15.0075C1.73082 15.005 1.50258 14.7803 1.50188 14.3093C1.50047 13.5825 1.50082 12.8557 1.50258 12.1293C1.50258 12.0402 1.49554 11.9817 1.38564 11.9531C0.762913 11.7914 0.3804 11.3863 0.27262 10.756C0.182099 10.2258 0.119403 9.68931 0.0714996 9.15312C-0.0722075 7.54596 0.0077487 5.94585 0.248317 4.35208C0.333907 3.78419 0.61322 3.34735 1.15705 3.1335C1.3793 3.04614 1.63361 3.02042 1.87523 3.00703C2.24155 2.9866 2.60962 3.00175 2.99566 3.00175C2.99566 2.91755 2.99566 2.85449 2.99566 2.79143C2.99566 2.20521 2.99319 1.61935 2.99777 1.03314C2.99883 0.90561 3.00904 0.773852 3.04215 0.651606C3.14148 0.28628 3.4148 0.102383 3.75892 0.000923819L3.75892 0.0002181ZM15.2974 3.60839C15.047 5.68727 13.2901 6.61803 12.0333 6.60851C11.3025 6.60288 10.6347 6.40031 10.0468 5.96382C9.25818 5.37796 8.82565 4.58142 8.71047 3.6172L6.61228 3.6172C6.60207 3.74191 6.60312 3.85394 6.58199 3.9621C6.55099 4.12274 6.4411 4.19989 6.27908 4.19461C6.12974 4.18968 6.02301 4.08328 6.00611 3.92616C5.99977 3.86803 6.00117 3.8092 6.00117 3.75072C6.00117 3.16486 6.00117 2.579 6.00047 1.99314C6.00047 1.93184 5.99448 1.87054 5.99131 1.81065L3.59655 1.81065C3.59655 1.88886 3.59655 1.95755 3.59655 2.02625C3.59655 2.63572 3.59866 3.24483 3.59479 3.85429C3.59338 4.07201 3.48031 4.19461 3.30139 4.19672C3.12281 4.19848 3.00974 4.07624 2.99706 3.86134C2.99249 3.78137 2.99636 3.70105 2.99636 3.61051C2.54728 3.61051 2.11968 3.5936 1.69455 3.61509C1.2363 3.63834 0.919301 3.93532 0.852027 4.39013C0.778411 4.88792 0.71466 5.38782 0.67028 5.88913C0.546296 7.28914 0.591029 8.68598 0.773833 10.0793C0.796727 10.2533 0.819623 10.4277 0.847096 10.601C0.928458 11.1161 1.28596 11.4014 1.85164 11.4018C6.61475 11.4022 11.3779 11.4018 16.141 11.4018C16.1762 11.4018 16.2114 11.4022 16.2463 11.4011C16.7292 11.3852 17.0793 11.0844 17.1476 10.6049C17.2167 10.1184 17.2815 9.63012 17.3251 9.14079C17.4664 7.55759 17.3896 5.98108 17.1504 4.41162C17.0789 3.94343 16.7644 3.64116 16.2889 3.61297C15.9627 3.5936 15.6341 3.6091 15.2977 3.6091L15.2974 3.60839ZM6.02407 12.0039C4.6039 11.9665 3.3433 13.1604 3.30314 14.5809C3.25947 16.1204 4.41511 17.3594 5.93601 17.4031C7.42345 17.4457 8.65341 16.2581 8.69392 14.7391C8.73337 13.2668 7.53968 12.0437 6.02442 12.0039L6.02407 12.0039ZM9.3015 3.30754C9.30538 4.79491 10.5072 5.9994 11.9932 6.00504C13.4789 6.01067 14.6961 4.79245 14.6958 3.30049C14.6951 1.81135 13.4701 0.591013 11.9869 0.602287C10.5012 0.613559 9.29763 1.82615 9.30186 3.30754L9.3015 3.30754ZM11.9911 12.0035C10.5005 12.0144 9.30256 13.2165 9.3015 14.7028C9.3008 16.1958 10.5163 17.4105 12.0052 17.4049C13.4947 17.3992 14.7025 16.1796 14.6954 14.688C14.6888 13.2055 13.4669 11.9933 11.9907 12.0039L11.9911 12.0035ZM15.8835 14.4065L15.8835 12.019L13.9184 12.019C14.0385 12.1205 14.1351 12.1952 14.2238 12.2783C14.8039 12.8208 15.1558 13.4824 15.2657 14.2723C15.2724 14.3212 15.3386 14.3959 15.383 14.4002C15.5443 14.4157 15.7077 14.4061 15.8835 14.4061L15.8835 14.4065ZM2.11334 12.0088L2.11334 14.3899C2.14116 14.397 2.15772 14.4047 2.17427 14.4051C2.30318 14.4065 2.43245 14.3998 2.56101 14.409C2.67901 14.4174 2.72339 14.3748 2.73994 14.2561C2.86005 13.387 3.26828 12.6792 3.94983 12.1275C3.98681 12.0976 4.01886 12.0623 4.07522 12.0084L2.11369 12.0084L2.11334 12.0088ZM3.59901 1.18709L6.00047 1.18709C6.00047 1.09268 6.00575 1.0113 5.99941 0.930623C5.98286 0.718543 5.87543 0.605809 5.66339 0.603696C5.08434 0.598059 4.50493 0.598058 3.92588 0.604399C3.72159 0.606513 3.61733 0.717133 3.60042 0.921462C3.59338 1.00707 3.59937 1.09408 3.59937 1.18744L3.59901 1.18709ZM7.95178 12.0099C8.39241 12.3738 8.73266 12.8078 9.00493 13.3391C9.26064 12.7895 9.6178 12.3755 10.0979 12.0099L7.95178 12.0099Z" fill="#204A8F"/>
<path d="M7.95213 9.90714C9.52833 9.90714 11.1042 9.90714 12.6804 9.90714C12.7272 9.90714 12.7741 9.90644 12.8209 9.90714C13.0639 9.91172 13.1929 10.0171 13.1904 10.2087C13.1879 10.3915 13.0587 10.4986 12.8294 10.5071C12.8001 10.5082 12.7709 10.5071 12.7413 10.5071C9.54242 10.5071 6.34318 10.5071 3.14429 10.506C3.06328 10.506 2.97839 10.5022 2.90196 10.4782C2.76283 10.4345 2.69415 10.3271 2.70507 10.1823C2.71634 10.0382 2.79841 9.94308 2.94317 9.91771C3.01749 9.90468 3.09498 9.9075 3.17106 9.9075C4.76487 9.90714 6.35832 9.90714 7.95213 9.90714Z" fill="#204A8F"/>
<path d="M14.557 9.90947C14.7035 9.90947 14.85 9.90383 14.9962 9.91088C15.1684 9.91934 15.2783 10.0247 15.2917 10.1779C15.3055 10.3375 15.2051 10.4834 15.0304 10.4925C14.7095 10.5091 14.3869 10.5094 14.066 10.4925C13.8885 10.483 13.7941 10.3431 13.8075 10.1779C13.8198 10.0229 13.9276 9.91934 14.1005 9.91088C14.2523 9.90348 14.4048 9.90947 14.5573 9.90947L14.557 9.90947Z" fill="#204A8F"/>
<path d="M6.04515 13.8091C6.38117 13.8201 6.66471 13.9952 6.81722 14.3418C6.96621 14.68 6.92042 15.009 6.67351 15.2909C6.42766 15.572 6.11137 15.664 5.75421 15.5586C5.63798 15.5245 5.57317 15.5442 5.49709 15.6266C5.36219 15.7728 5.21813 15.9102 5.07654 16.0501C4.89162 16.2329 4.72783 16.2558 4.58871 16.1198C4.44746 15.9817 4.47142 15.807 4.6588 15.6185C4.79898 15.4776 4.93741 15.3342 5.08217 15.1982C5.1586 15.1264 5.17833 15.064 5.14522 14.9548C4.96946 14.377 5.39847 13.8084 6.0448 13.8088L6.04515 13.8091ZM5.70032 14.71C5.70384 14.8657 5.84016 14.9999 5.99584 15.0009C6.16244 15.0024 6.29734 14.865 6.29382 14.6983C6.28994 14.5271 6.15786 14.4042 5.98457 14.4112C5.8243 14.4175 5.6968 14.5518 5.70032 14.71Z" fill="#204A8F"/>
<path d="M8.08811 14.8119C8.03986 16.0301 6.92014 16.9563 5.7099 16.7791C5.50103 16.7484 5.38903 16.6233 5.40945 16.443C5.42918 16.2703 5.58275 16.1661 5.78352 16.1851C6.45485 16.2489 6.98248 16.0086 7.30441 15.4083C7.40867 15.2142 7.44812 14.9796 7.48687 14.758C7.52948 14.5145 7.63938 14.3891 7.8405 14.4152C8.01767 14.4381 8.09762 14.5667 8.08811 14.8119Z" fill="#204A8F"/>
<path d="M3.90344 14.8083C3.89112 14.5638 3.99608 14.4226 4.17818 14.4124C4.36627 14.4018 4.47792 14.5177 4.49905 14.7449C4.50645 14.8259 4.51983 14.907 4.5223 14.9884C4.52723 15.1578 4.41804 15.2874 4.2613 15.3051C4.09083 15.3241 3.95874 15.2212 3.93092 15.044C3.91718 14.9577 3.91049 14.8707 3.90344 14.8083Z" fill="#204A8F"/>
<path d="M10.5049 3.30149C10.5066 2.47853 11.1843 1.80002 12.0011 1.80284C12.8186 1.80566 13.4995 2.4884 13.498 3.30466C13.497 4.12268 12.8133 4.80472 11.9983 4.80119C11.1741 4.79767 10.5031 4.12339 10.5049 3.30114L10.5049 3.30149ZM11.1043 3.30572C11.1054 3.80174 11.502 4.19842 11.9972 4.19948C12.4886 4.20089 12.8947 3.80033 12.8989 3.30959C12.9031 2.81603 12.484 2.39715 11.9923 2.40385C11.4978 2.41054 11.1029 2.81145 11.104 3.30536L11.1043 3.30572Z" fill="#204A8F"/>
<path d="M12.969 15.4495C13.0937 15.526 13.2201 15.6084 13.3512 15.6828C13.5502 15.7959 13.6185 15.9491 13.5343 16.1097C13.4498 16.2714 13.2871 16.3158 13.0817 16.2144C12.9412 16.145 12.8038 16.0632 12.6784 15.9695C12.4555 15.8032 12.4597 15.7976 12.1582 15.9093C12.1955 16.0678 12.2315 16.2306 12.2723 16.3923C12.3192 16.5776 12.2579 16.7189 12.1001 16.778C11.9381 16.8386 11.7774 16.7661 11.7116 16.5793C11.6556 16.4205 11.5978 16.2535 11.5918 16.0886C11.5841 15.8719 11.4999 15.7423 11.2565 15.6757C11.185 15.7899 11.0973 15.9167 11.0226 16.0509C10.912 16.2503 10.7627 16.3232 10.5996 16.245C10.433 16.1651 10.383 15.9995 10.4823 15.7944C10.551 15.6532 10.6186 15.4975 10.7299 15.3949C10.9057 15.2329 10.8927 15.0744 10.7905 14.8602C10.6468 14.8957 10.495 14.9289 10.3457 14.9715C10.1393 15.0303 9.9804 14.9736 9.91947 14.8115C9.85466 14.6386 9.93567 14.4811 10.1477 14.4064C10.3013 14.3525 10.4644 14.2852 10.6207 14.2905C10.8514 14.2983 10.9575 14.1901 11.0304 13.9636C10.906 13.8864 10.7718 13.7987 10.6334 13.7191C10.446 13.6113 10.3816 13.4616 10.4619 13.3006C10.5408 13.1424 10.7046 13.0931 10.899 13.1864C11.0353 13.252 11.1783 13.3196 11.2875 13.42C11.4435 13.5634 11.5922 13.6416 11.8271 13.4848C11.8003 13.3598 11.7605 13.2058 11.7359 13.049C11.7218 12.9606 11.7007 12.8486 11.7408 12.7834C11.7884 12.7063 11.9014 12.6206 11.9817 12.6249C12.0793 12.6302 12.2138 12.7034 12.2575 12.7866C12.3368 12.9381 12.391 13.117 12.4002 13.2872C12.4118 13.5091 12.4639 13.6719 12.7404 13.7282C12.8077 13.6208 12.894 13.4936 12.9701 13.3605C13.0845 13.1597 13.2304 13.0902 13.3959 13.1681C13.5576 13.2438 13.6083 13.4179 13.5097 13.6176C13.4403 13.7582 13.372 13.9125 13.2617 14.0171C13.0944 14.176 13.0969 14.3296 13.2075 14.5417C13.3473 14.51 13.4995 14.48 13.6492 14.4399C13.8707 14.3803 14.0211 14.4385 14.0796 14.6146C14.1342 14.7781 14.0486 14.9334 13.8471 15.0032C13.7041 15.0529 13.553 15.1128 13.4068 15.1096C13.1726 15.1047 13.0331 15.1892 12.969 15.4488L12.969 15.4495ZM12.5911 14.6978C12.5883 14.3701 12.3244 14.1056 11.9993 14.1038C11.6718 14.102 11.3918 14.3832 11.3963 14.7097C11.4006 15.0409 11.6767 15.3055 12.0113 15.2995C12.3392 15.2935 12.5939 15.0293 12.5911 14.6981L12.5911 14.6978Z" fill="#204A8F"/>
</svg>
