<svg width="18" height="18" viewBox="0 0 18 18" fill="none" xmlns="http://www.w3.org/2000/svg">
<path d="M17.9197 1.38115C17.8136 1.08971 17.5401 0.769032 17.3098 0.534261C16.9643 0.182105 16.4876 -0.0211829 15.995 0.00175446C15.5025 0.0246918 15.0455 0.259912 14.6304 0.690326C14.1288 1.21069 13.6107 1.71531 13.1051 2.22173C12.3647 1.8255 12.1088 1.86688 11.5128 2.4628C10.3177 3.65779 9.12305 4.85324 7.92794 6.04778C7.85283 6.12244 7.77501 6.1944 7.70484 6.26186C7.66931 6.24837 7.64907 6.24657 7.63782 6.23577C7.33871 5.94074 7.04095 5.6439 6.74183 5.34931C6.2628 4.87752 5.73249 4.87527 5.2602 5.34391C4.87922 5.72171 4.50095 6.1022 4.12177 6.48179C3.63104 6.97292 3.58696 7.35746 4.00932 8.01769C3.93195 8.07121 3.84019 8.11664 3.77138 8.18455C3.18664 8.76338 2.60415 9.34401 2.02527 9.92869C1.57097 10.3874 1.56962 10.9181 2.02437 11.3679C2.11747 11.4597 2.24387 11.5177 2.36531 11.5982C2.21868 11.752 2.15301 11.8235 2.08464 11.8923C1.49721 12.4806 0.905724 13.0657 0.322338 13.658C-0.106318 14.0934 -0.107218 14.63 0.31829 15.0581C1.18775 15.9338 2.06035 16.8063 2.93565 17.6761C3.37645 18.1142 3.90586 18.1061 4.35161 17.6626C4.94085 17.0757 5.52783 16.4865 6.11616 15.8992C6.18408 15.8312 6.2565 15.7674 6.37974 15.6522C6.46656 15.7669 6.53177 15.8771 6.61994 15.9653C7.08413 16.4299 7.61039 16.4303 8.08087 15.9666C8.52662 15.5272 8.97012 15.0856 9.40777 14.6381C9.61288 14.4285 9.80179 14.2036 9.98531 13.9994C10.7383 14.4546 11.0666 14.3704 11.6716 13.7197C11.9631 13.4062 12.2712 13.1084 12.5811 12.8139C13.1339 12.2885 13.1492 11.7592 12.6243 11.2325C12.3225 10.9298 12.017 10.6303 11.664 10.2804C11.7764 10.1958 11.8713 10.1401 11.9469 10.065C13.2005 8.81466 14.4486 7.5594 15.7063 6.31268C15.9725 6.04868 16.0805 5.74509 16.0049 5.38979C15.9694 5.22248 15.8668 5.06912 15.7841 4.88607C16.331 4.33962 16.8901 3.78777 17.442 3.22828C17.9409 2.72231 18.1176 2.03688 17.922 1.3816L17.9197 1.38115ZM4.169 16.5562C3.99627 16.7218 3.84739 16.9116 3.7084 17.0685C2.76698 16.1281 1.87234 15.2344 0.984438 14.3475C1.18055 14.1483 1.39735 13.9288 1.6245 13.6985C1.67218 13.739 1.7284 13.7813 1.77788 13.8303C2.57447 14.6259 3.36746 15.4251 4.16945 16.2153C4.30438 16.3485 4.30348 16.4276 4.16945 16.5562H4.169ZM5.00472 15.6513C4.13031 14.7766 3.23702 13.8834 2.36396 13.0099C2.54838 12.8287 2.77328 12.6088 2.97794 12.4077C3.83795 13.2677 4.73259 14.1622 5.62769 15.0568C5.42753 15.2479 5.20263 15.4624 5.00517 15.6509L5.00472 15.6513ZM7.38099 15.3275C5.82245 13.766 4.25896 12.199 2.72875 10.6663C3.35576 10.0398 4.02686 9.3683 4.67816 8.71751C6.19488 10.2354 7.75927 11.8015 9.32951 13.3724C8.68135 14.0228 8.01925 14.6871 7.38099 15.328V15.3275ZM12.0004 12.0349C11.5915 12.4424 11.1498 12.8822 10.7302 13.3C8.72588 11.2955 6.7063 9.27565 4.70695 7.27605C5.12166 6.85778 5.56021 6.41568 5.96908 6.00325C7.96438 7.9988 9.98261 10.0173 11.9999 12.0349H12.0004ZM11.0662 9.55945C10.2044 8.69727 9.30702 7.79911 8.41777 6.9095C8.59859 6.72915 8.81674 6.51147 9.0133 6.31538C9.8967 7.19869 10.7904 8.09235 11.6954 8.99726C11.4975 9.17401 11.2672 9.37999 11.0662 9.559V9.55945ZM12.3985 8.24257C11.525 7.3696 10.6308 6.47594 9.74782 5.59353C9.94798 5.39339 10.1657 5.17571 10.3586 4.98276C11.233 5.85753 12.1263 6.75119 13.0093 7.6345C12.824 7.8189 12.6004 8.04108 12.3985 8.24212V8.24257ZM13.7411 6.89916C12.8663 6.02529 11.9757 5.13613 11.1053 4.26766C11.5376 3.84039 11.9847 3.39874 12.4084 2.97957C13.2625 3.8341 14.1563 4.7282 15.0437 5.61602C14.6241 6.02934 14.1752 6.47144 13.7407 6.89916H13.7411ZM16.7395 2.62696C16.201 3.17071 15.6586 3.71086 15.1269 4.24382C14.651 3.76888 14.2714 3.38434 13.7542 2.86848C13.7542 2.86848 13.9309 2.67643 14.0321 2.57839C14.486 2.13628 14.9254 1.68023 15.3797 1.23857C15.8178 0.812658 16.4147 0.80996 16.8092 1.21834C17.1933 1.61592 17.1668 2.19475 16.7395 2.62696Z" fill="#204A8F"/>
</svg>
