<svg width="19" height="19" viewBox="0 0 19 19" fill="none" xmlns="http://www.w3.org/2000/svg">
<path fill-rule="evenodd" clip-rule="evenodd" d="M12.1532 1.07476C12.0691 1.11881 11.9724 1.20899 11.9205 1.29172C11.835 1.42835 11.8315 1.45342 11.8214 2.00464C11.8104 2.60216 11.8268 2.6941 11.9771 2.87524C12.0613 2.97668 12.2658 3.07368 12.3955 3.07368H12.5132V3.93507V4.79647H12.4129C12.3379 4.79647 12.2772 4.75751 12.172 4.64191C11.9902 4.4422 11.8723 4.41014 11.3189 4.40993C10.9316 4.40975 10.8531 4.4196 10.7268 4.48429C10.5464 4.57665 10.4111 4.78349 10.3872 5.00316L10.3695 5.16563L10.0371 5.18321C9.77179 5.19724 9.68109 5.2164 9.5872 5.27818C9.40324 5.39919 9.31238 5.60512 9.29599 5.93829C9.26345 6.59843 9.49514 6.86848 10.0953 6.87007L10.3861 6.87084V7.15211V7.43338H9.57185H8.75758V7.11829C8.75758 6.58275 8.57764 6.23411 8.20002 6.03796L8.00978 5.93913H4.37048C0.740356 5.93913 0.730817 5.9393 0.579928 6.01317C0.358811 6.12139 0.197785 6.28653 0.0927273 6.51285L0 6.71262V9.99998C0 13.2682 0.00039882 13.2883 0.0699941 13.4473C0.172293 13.6813 0.328401 13.8516 0.542338 13.9627L0.731183 14.0608H4.37048H8.00978L8.20002 13.962C8.57764 13.7659 8.75758 13.4172 8.75758 12.8817V12.5666H9.57185H10.3861V12.8479V13.1291L10.0953 13.1299C9.49514 13.1315 9.26345 13.4015 9.29599 14.0617C9.31238 14.3948 9.40324 14.6008 9.5872 14.7218C9.68109 14.7836 9.77179 14.8027 10.0371 14.8168L10.3695 14.8343L10.3872 14.9968C10.4111 15.2165 10.5464 15.4233 10.7268 15.5157C10.8531 15.5804 10.9316 15.5902 11.3189 15.59C11.8723 15.5898 11.9902 15.5578 12.172 15.3581C12.2772 15.2425 12.3379 15.2035 12.4129 15.2035H12.5132V16.0649V16.9263H12.3952C12.185 16.9263 11.9833 17.0675 11.876 17.2898C11.8177 17.4106 11.812 17.4848 11.8214 17.9957C11.8315 18.5474 11.8349 18.5714 11.9211 18.709C11.9747 18.7947 12.0683 18.8812 12.1559 18.9261C12.2996 18.9997 12.3289 19.0007 14.3932 18.9999C16.3557 18.9991 16.4931 18.9951 16.6178 18.9342C16.93 18.7818 17 18.5998 17 17.9405C17 17.5031 16.9912 17.4215 16.9295 17.2867C16.8428 17.0973 16.6625 16.9649 16.4465 16.9322L16.2854 16.9078V16.0649V15.222L16.4461 15.1976C16.6353 15.169 16.7921 15.0644 16.9033 14.8928L16.9834 14.7692V9.99998V5.23078L16.9033 5.10716C16.7921 4.93552 16.6353 4.83096 16.4461 4.80234L16.2854 4.77801V3.93507V3.09214L16.4465 3.06774C16.6625 3.03507 16.8428 2.9027 16.9295 2.7133C16.9912 2.57847 17 2.4969 17 2.05942C17 1.40012 16.93 1.2182 16.6178 1.06575C16.4931 1.00486 16.3557 1.00082 14.391 1.00011C12.3164 0.999375 12.2958 1.00004 12.1532 1.07476ZM16.4283 1.60404C16.4702 1.64834 16.4864 2.34969 16.4481 2.45552C16.4303 2.50446 16.3124 2.51114 15.465 2.51114H14.5022L14.4051 2.61391C14.3516 2.67044 14.3079 2.74241 14.3079 2.77388C14.3079 2.86076 14.3984 3.02723 14.459 3.05185C14.4886 3.06383 14.7882 3.07368 15.1249 3.07368H15.737V3.93546V4.79727L14.3993 4.78806L13.0616 4.77889V3.93507V3.09126L13.3555 3.07368C13.6134 3.05824 13.657 3.04597 13.7127 2.97309C13.7476 2.92745 13.7761 2.86093 13.7761 2.82532C13.7761 2.72986 13.7084 2.58937 13.647 2.55737C13.6175 2.54197 13.3167 2.52133 12.9785 2.51149L12.3636 2.49356L12.3543 2.05685C12.3472 1.7311 12.3557 1.61286 12.3875 1.59152C12.4604 1.54258 16.3817 1.55471 16.4283 1.60404ZM11.7754 5.01445C11.8045 5.04528 11.8152 5.32399 11.8152 6.04875C11.8152 6.59442 11.8246 7.0665 11.8359 7.09779C11.8592 7.16189 12.0165 7.25759 12.0986 7.25759C12.1284 7.25759 12.1964 7.21135 12.2499 7.15482L12.347 7.05205V6.20553V5.35901H14.3677C15.8951 5.35901 16.3982 5.36931 16.4283 5.4012C16.4863 5.46248 16.4863 14.5375 16.4283 14.5988C16.3982 14.6307 15.8951 14.641 14.3677 14.641H12.347V11.3553C12.347 9.02211 12.3363 8.04472 12.3101 7.98386C12.2362 7.81218 12.0236 7.77235 11.8968 7.90645L11.8152 7.99272V11.468C11.8152 14.1242 11.8058 14.9533 11.7754 14.9855C11.7335 15.0298 11.0705 15.047 10.9705 15.0064C10.9229 14.987 10.9179 14.5132 10.9179 9.99914C10.9179 6.04334 10.9265 5.0096 10.9594 4.99553C11.0504 4.95668 11.7358 4.97258 11.7754 5.01445ZM10.3861 6.02703V6.3083H10.138C9.85192 6.3083 9.82111 6.27975 9.82111 6.01465C9.82111 5.75205 9.82819 5.74576 10.1238 5.74576H10.3861V6.02703ZM1.41886 7.17285C1.42893 7.84815 1.43066 7.86295 1.5076 7.92877C1.58364 7.99385 1.6879 7.99592 4.90594 7.99592H8.22581V8.47057V8.94521H5.08504H1.94428V8.85078C1.94428 8.63146 1.6774 8.51536 1.5076 8.66081L1.42913 8.72804L1.42012 11.1262L1.41115 13.5244L1.11256 13.5093C0.776117 13.4923 0.673286 13.4394 0.57338 13.2321C0.519339 13.12 0.515251 12.8932 0.515218 10.0076C0.515152 6.70183 0.512194 6.76554 0.673187 6.6139C0.769636 6.52305 0.896829 6.49056 1.16959 6.48712L1.40856 6.48409L1.41886 7.17285ZM7.95756 6.54569C8.15621 6.65282 8.20769 6.76505 8.22079 7.11948L8.23242 7.43338H5.08833H1.94428V6.95874V6.48409L4.89394 6.48416C7.63647 6.4842 7.85161 6.48852 7.95756 6.54569ZM10.3695 9.99998V11.9865L9.56354 11.9959L8.75758 12.0053V9.99998V7.99466L9.56354 8.00408L10.3695 8.0135V9.99998ZM8.22581 9.99998V10.457H5.08504H1.94428V9.99998V9.54292H5.08504H8.22581V9.99998ZM8.22581 11.5296V12.0044L5.09335 11.9954L1.9609 11.9865L1.95163 11.5206L1.94235 11.0547H5.08408H8.22581V11.5296ZM8.22079 12.8805C8.20769 13.2349 8.15621 13.3471 7.95756 13.4543C7.85161 13.5114 7.63647 13.5158 4.89394 13.5158L1.94428 13.5159V13.0412V12.5666H5.08833H8.23242L8.22079 12.8805ZM10.3861 13.9729V14.2542H10.1238C9.82819 14.2542 9.82111 14.2479 9.82111 13.9853C9.82111 13.7202 9.85192 13.6917 10.138 13.6917H10.3861V13.9729ZM15.737 16.0649V16.9263H15.1249C14.7882 16.9263 14.4886 16.9361 14.459 16.9481C14.3984 16.9727 14.3079 17.1392 14.3079 17.2261C14.3079 17.2576 14.3516 17.3295 14.4051 17.3861L14.5022 17.4888H15.465C16.3124 17.4888 16.4303 17.4955 16.4481 17.5444C16.4864 17.6503 16.4702 18.3516 16.4283 18.3959C16.3817 18.4453 12.4604 18.4574 12.3875 18.4084C12.3557 18.3871 12.3472 18.2689 12.3543 17.9431L12.3636 17.5064L12.9785 17.4885C13.3167 17.4786 13.6175 17.458 13.647 17.4426C13.7084 17.4106 13.7761 17.2701 13.7761 17.1746C13.7761 17.139 13.7476 17.0725 13.7127 17.0269C13.657 16.954 13.6134 16.9417 13.3555 16.9263L13.0616 16.9087L13.0526 16.1008C13.0477 15.6565 13.051 15.2728 13.0599 15.2482C13.0727 15.2131 13.3608 15.2035 14.4066 15.2035H15.737V16.0649Z" fill="#204A8F"/>
</svg>
