<svg width="18" height="18" viewBox="0 0 18 18" fill="none" xmlns="http://www.w3.org/2000/svg">
<path d="M9.52601 0C9.86695 0.0460547 10.2114 0.0759375 10.5488 0.141328C13.576 0.728086 15.7748 2.41418 17.136 5.17359C17.7873 6.49371 18.0729 7.91086 17.9849 9.37934C17.7929 12.5835 16.3172 15.0437 13.5897 16.7337C12.3915 17.4762 11.0704 17.8734 9.66196 17.9712C9.61618 17.9743 9.57145 17.9902 9.52637 18H8.47187C8.42679 17.9902 8.38171 17.9743 8.33628 17.9712C7.23177 17.8984 6.1727 17.6351 5.18195 17.1464C2.42174 15.7859 0.732581 13.5925 0.141938 10.5662C0.0750191 10.2238 0.0464907 9.87363 0 9.52734C0 9.17578 0 8.82422 0 8.47266C0.0102139 8.42203 0.0264152 8.37211 0.0299372 8.32113C0.117636 7.0657 0.449762 5.87637 1.05696 4.77633C2.45696 2.24156 4.58286 0.689414 7.43112 0.142031C7.77451 0.0759375 8.1246 0.0464063 8.47152 0C8.82302 0 9.17452 0 9.52601 0ZM8.99207 17.4009C13.6218 17.4041 17.4002 13.6259 17.3984 8.99473C17.3967 4.36641 13.6341 0.603633 9.00335 0.599414C4.36977 0.595195 0.595926 4.36887 0.599096 9.00352C0.602266 13.6343 4.36379 17.3981 8.99207 17.4009Z" fill="#204A8F"/>
<path d="M5.89363 11.8343C7.17459 13.1077 8.65595 13.4754 10.3782 12.9808C10.4395 13.1569 10.5018 13.3358 10.5702 13.5324C9.62874 13.8565 8.68941 13.8846 7.74586 13.6301C6.80654 13.3766 6.01655 12.87 5.37061 12.1338C5.10294 12.2889 4.84689 12.4369 4.58097 12.5912C5.48437 13.6747 6.60719 14.349 7.97057 14.6015C9.33289 14.8535 10.6237 14.6215 11.8462 13.9381C11.9469 14.1121 12.0399 14.2724 12.1452 14.4538C10.7808 15.2255 9.3357 15.4751 7.80961 15.1812C6.28599 14.8876 5.03954 14.1124 4.0576 12.8932C3.80402 13.0395 3.55712 13.1825 3.30952 13.3242C3.03481 13.4814 2.88125 13.435 2.74847 13.1506C2.5213 12.664 2.53433 12.1613 2.67133 11.6575C2.72945 11.4441 2.80799 11.2338 2.90132 11.0334C2.95697 10.9139 2.97 10.8127 2.93725 10.6854C2.37231 8.49411 2.8344 6.53204 4.29639 4.81571C4.95607 4.04157 5.78656 3.48962 6.7604 3.11661C6.83084 3.29907 6.89882 3.47555 6.96257 3.64079C4.19355 4.95423 3.01262 7.11352 3.38313 10.1183C3.40004 10.1303 3.41695 10.1422 3.4342 10.1538C3.46625 10.1261 3.50007 10.0997 3.53 10.0698C3.72547 9.87645 3.92588 9.68766 4.11184 9.48552C4.16678 9.42575 4.21222 9.32731 4.20905 9.24891C4.14882 7.69852 4.70425 6.4097 5.85595 5.38032C6.10742 5.15567 6.39869 4.97532 6.69489 4.75735C6.80126 4.95071 6.89248 5.11665 6.9925 5.2977C5.60905 6.12493 4.86555 7.33466 4.79511 8.97997C4.86802 8.95255 4.91275 8.9413 4.95149 8.9202C5.55094 8.5943 6.19124 8.40305 6.86958 8.34153C6.97947 8.33169 7.02808 8.28844 7.06928 8.18895C7.24468 7.76427 7.53208 7.42852 7.93218 7.20352C8.06566 7.12829 8.09983 7.04427 8.09912 6.89977C8.09419 5.26501 8.09595 3.63024 8.09595 1.99548C8.09595 1.93114 8.09278 1.8661 8.10018 1.80247C8.12342 1.60067 8.23648 1.50223 8.44146 1.5068C8.92785 1.5177 9.33641 1.72372 9.69284 2.0352C10.4198 2.67083 10.8086 3.49876 10.9963 4.42688C11.208 5.47384 11.084 6.4888 10.6427 7.46157C10.5895 7.57899 10.5955 7.65739 10.6755 7.75864C10.9657 8.12567 11.09 8.55563 11.0957 9.01653C11.0971 9.1452 11.1453 9.2004 11.2453 9.25805C12.6756 10.0814 14.1038 10.9083 15.5327 11.7345C15.5732 11.758 15.6148 11.7798 15.6539 11.8051C15.8448 11.9299 15.8786 12.0899 15.7532 12.2843C15.4274 12.7891 14.935 13.05 14.3725 13.1745C13.1567 13.4438 12.0262 13.1917 10.9717 12.5557C10.3874 12.2034 9.89676 11.7475 9.50652 11.1867C9.44277 11.0953 9.37797 11.0563 9.26069 11.0732C8.77887 11.1421 8.33263 11.0338 7.91422 10.7888C7.86561 10.7603 7.7758 10.7508 7.73001 10.7768C7.12387 11.1192 6.52231 11.4697 5.89293 11.8336L5.89363 11.8343ZM10.1172 7.187C10.4807 6.35696 10.5874 5.48263 10.4191 4.57805C10.2757 3.80813 9.96932 3.11591 9.39488 2.56466C9.20187 2.37938 8.98491 2.22786 8.70949 2.15544V6.88923C8.95955 6.91208 9.20116 6.91208 9.43186 6.96095C9.66255 7.00981 9.88303 7.10755 10.1172 7.187ZM10.0077 10.8376C10.0197 10.8721 10.0207 10.8851 10.0274 10.8935C11.0259 12.1743 12.3227 12.7934 13.9555 12.6485C14.3687 12.612 14.7378 12.4474 15.0734 12.1641C13.691 11.3657 12.3266 10.5775 10.9484 9.78153C10.7442 10.2431 10.4384 10.5957 10.0077 10.8376ZM8.99865 7.50657C8.17414 7.50481 7.49721 8.17876 7.49827 9.00106C7.49897 9.82337 8.17203 10.4949 8.999 10.4991C9.81752 10.5029 10.5022 9.8195 10.498 9.00247C10.4934 8.17489 9.82562 7.50833 8.999 7.50657H8.99865ZM5.5284 11.3509C6.14123 10.9965 6.74209 10.6488 7.35281 10.2955C7.03582 9.88911 6.91044 9.43384 6.89353 8.93638C6.17786 9.01372 5.53509 9.23942 4.94903 9.62192C4.91028 9.64723 4.87823 9.72598 4.88598 9.77274C4.98072 10.3395 5.19698 10.858 5.5284 11.3509ZM4.96206 11.6775C4.73594 11.1547 4.51582 10.6464 4.28266 10.1074C4.08366 10.3584 3.88361 10.6074 3.68955 10.8608C3.66595 10.8918 3.65327 10.9547 3.66842 10.9881C3.83888 11.3625 4.01604 11.7345 4.19743 12.1198C4.4894 11.951 4.74052 11.8058 4.96206 11.6779V11.6775ZM3.29473 11.6768C3.17393 12.0161 3.15737 12.3314 3.22006 12.6805C3.39229 12.5821 3.54198 12.4966 3.69976 12.4063C3.56417 12.1623 3.43596 11.931 3.29473 11.6765V11.6768Z" fill="#204A8F"/>
<path d="M11.8594 4.0444C11.9499 3.88725 12.0429 3.72588 12.1362 3.56451C14.2783 4.68776 15.7706 7.49217 15.1567 10.2649C14.9704 10.2266 14.7841 10.1887 14.5992 10.1507C14.9816 7.53401 14.067 5.51323 11.8594 4.0444Z" fill="#204A8F"/>
<path d="M13.7951 8.99121H13.2002C13.1703 7.76742 12.7135 6.72574 11.7988 5.87039C11.9288 5.72449 12.0549 5.58316 12.1965 5.42426C13.2369 6.39316 13.7641 7.57265 13.7951 8.99121Z" fill="#204A8F"/>
<path d="M9.89495 9.02602C9.87311 9.52489 9.46174 9.91512 8.97676 9.89684C8.4717 9.87786 8.07512 9.45493 8.10294 8.9652C8.13147 8.46422 8.54496 8.07961 9.02853 8.10387C9.52901 8.12918 9.91573 8.54121 9.89459 9.02602H9.89495ZM9.00669 9.2925C9.1673 9.28864 9.29092 9.16172 9.29127 9.00071C9.29162 8.83266 9.1592 8.70328 8.99084 8.7075C8.83024 8.71137 8.70662 8.83828 8.70626 8.9993C8.70591 9.16735 8.83834 9.29672 9.00705 9.2925H9.00669Z" fill="#204A8F"/>
</svg>
