<svg width="19" height="19" viewBox="0 0 19 19" fill="none" xmlns="http://www.w3.org/2000/svg">
<path d="M2.1148 19.0001C1.97751 18.9468 1.83006 18.9112 1.70675 18.835C1.4182 18.6571 1.27583 18.3826 1.26566 18.0447C1.25931 17.8414 1.26566 17.6381 1.26566 17.4068C1.19702 17.4068 1.13727 17.4068 1.0788 17.4068C0.365682 17.4018 -0.000411603 17.0308 -0.000411603 16.3142C-0.000411603 13.341 -0.000411603 10.3667 -0.000411603 7.39353C-0.000411603 7.15213 -0.00168276 6.91072 -0.000411603 6.67058C0.00467303 6.10772 0.405088 5.70241 0.969482 5.69225C1.27075 5.68717 1.57201 5.69225 1.88472 5.69225V3.16002C1.79955 3.16002 1.72074 3.16002 1.6432 3.16002C1.35591 3.1651 1.13473 3.04821 1.01524 2.7852C0.893213 2.51838 0.942788 2.26808 1.13346 2.04446C1.5504 1.5553 1.96607 1.06359 2.38174 0.574421C2.48216 0.456259 2.57877 0.335555 2.68427 0.222475C2.95122 -0.0634018 3.3796 -0.0811897 3.63764 0.21231C4.18424 0.834886 4.71686 1.4689 5.24566 2.10672C5.41854 2.31509 5.43125 2.56031 5.30922 2.80299C5.18973 3.03931 4.98888 3.15493 4.72448 3.15875C4.63804 3.16002 4.55161 3.15875 4.44991 3.15875V5.67446H14.5556V3.16002C14.4616 3.16002 14.3764 3.16002 14.2912 3.16002C14.0116 3.16002 13.8018 3.03931 13.6811 2.7852C13.5578 2.52346 13.6035 2.27825 13.7866 2.05971C14.2289 1.53497 14.6738 1.01277 15.1175 0.489293C15.1937 0.400354 15.2662 0.307603 15.3463 0.222475C15.6158 -0.0634018 16.0429 -0.0811897 16.2996 0.21231C16.845 0.834886 17.3789 1.4689 17.9077 2.10672C18.0805 2.31509 18.0907 2.56285 17.9712 2.80426C17.8543 3.04312 17.6509 3.15493 17.3878 3.16002C17.3013 3.16129 17.2162 3.16002 17.1145 3.16002V5.69098C17.4043 5.69098 17.7005 5.66938 17.9903 5.6986C18.1924 5.71893 18.4009 5.77992 18.5826 5.87013C18.8153 5.98575 18.9068 6.22843 18.9958 6.46094V16.6254C18.8089 17.2468 18.364 17.4666 17.731 17.4005C17.731 17.6254 17.7348 17.8274 17.731 18.0294C17.7221 18.3814 17.5772 18.6634 17.2734 18.8451C17.1539 18.9163 17.0128 18.9493 16.8818 19.0001H16.6594C15.9857 18.7511 15.8344 18.53 15.8331 17.8045C15.8331 17.6762 15.8331 17.5491 15.8331 17.4208H3.16096C3.16096 17.6508 3.16731 17.8668 3.15969 18.0828C3.14698 18.4398 2.97028 18.7041 2.66139 18.8743C2.56097 18.9302 2.44657 18.9582 2.33725 19.0001H2.1148ZM17.1132 6.32626C17.0496 6.68329 16.8793 6.93359 16.5132 6.94884C16.0569 6.96789 15.598 6.96281 15.1416 6.94884C14.8683 6.94121 14.6395 6.74555 14.5912 6.48C14.5645 6.33515 14.4971 6.32372 14.3789 6.32372C13.2107 6.32626 12.0413 6.32499 10.8731 6.32499C8.79473 6.32499 6.71766 6.32499 4.63932 6.32499C4.52491 6.32499 4.43466 6.31228 4.40669 6.47873C4.3622 6.74555 4.13212 6.94121 3.85882 6.94884C3.39612 6.96154 2.93215 6.95773 2.46818 6.94884C2.25462 6.94502 2.09191 6.82686 1.99022 6.6439C1.93683 6.54988 1.91141 6.43934 1.86946 6.32499C1.61269 6.32499 1.35337 6.32499 1.09406 6.32499C0.724148 6.32499 0.632625 6.41647 0.632625 6.78366C0.632625 9.95499 0.632625 13.1263 0.632625 16.2976C0.632625 16.6877 0.719064 16.7741 1.11312 16.7741C6.70368 16.7741 12.293 16.7741 17.8835 16.7741C18.2788 16.7741 18.3666 16.689 18.3666 16.3002C18.3666 13.1352 18.3666 9.97024 18.3666 6.80399C18.3666 6.76079 18.3678 6.71759 18.3666 6.67439C18.3577 6.4584 18.2483 6.33515 18.0361 6.3288C17.7335 6.31991 17.431 6.32626 17.1132 6.32626ZM15.8369 0.632867C15.2992 1.26434 14.7768 1.87675 14.2213 2.52855C14.4247 2.52855 14.576 2.52855 14.7285 2.52855C15.12 2.52855 15.2026 2.6124 15.2026 3.01136C15.2026 4.03671 15.2026 5.06332 15.2026 6.08867V6.30974H16.47V6.09502C16.47 5.06332 16.47 4.03035 16.47 2.99866C16.47 2.60986 16.5501 2.52855 16.9327 2.52855C17.0903 2.52855 17.2479 2.52855 17.4462 2.52855C16.8971 1.88056 16.3759 1.26688 15.8382 0.632867H15.8369ZM3.17113 0.632867C2.63851 1.25798 2.11352 1.87421 1.55549 2.52855C1.77158 2.52855 1.93556 2.52855 2.09954 2.52855C2.43513 2.52855 2.52919 2.62257 2.53046 2.95546C2.53046 3.99986 2.53046 5.04299 2.53046 6.08739C2.53046 6.15982 2.53046 6.23224 2.53046 6.31101H3.79781C3.79781 6.22334 3.79781 6.15092 3.79781 6.07723C3.79781 5.07094 3.79781 4.06339 3.79781 3.0571C3.79781 2.59335 3.86137 2.52855 4.31771 2.52855C4.46135 2.52855 4.60499 2.52855 4.78041 2.52855C4.22873 1.87802 3.70629 1.2618 3.17113 0.632867ZM1.8987 17.4132C1.8987 17.6368 1.89107 17.8401 1.90124 18.0421C1.91014 18.2251 2.04107 18.3483 2.20632 18.3547C2.35759 18.3598 2.51013 18.2492 2.52029 18.098C2.53428 17.8731 2.52411 17.647 2.52411 17.4145H1.8987V17.4132ZM17.1005 17.4195H16.47C16.47 17.6317 16.4662 17.8287 16.47 18.0256C16.4751 18.2187 16.6022 18.3496 16.7751 18.3534C16.9467 18.3572 17.0878 18.2289 17.0967 18.0396C17.1068 17.8376 17.0992 17.6343 17.0992 17.4208L17.1005 17.4195Z" fill="#204A8F"/>
<path d="M9.498 0.575806C9.61114 0.660933 9.71537 0.709215 9.77385 0.790531C9.85901 0.907423 9.82596 1.03956 9.73952 1.15137C9.48275 1.48045 9.44207 1.85399 9.54504 2.24024C9.58826 2.4016 9.68614 2.55534 9.78656 2.69256C10.2518 3.32403 10.2658 4.2706 9.79164 4.87285C9.72427 4.95925 9.59588 5.03548 9.49165 5.04311C9.40521 5.04946 9.28699 4.96433 9.22852 4.88428C9.14589 4.7712 9.18403 4.63907 9.27047 4.52472C9.51834 4.19945 9.56029 3.83099 9.45733 3.45109C9.41157 3.28465 9.30987 3.12583 9.20691 2.98352C8.74929 2.35713 8.74039 1.41819 9.20691 0.817213C9.27682 0.727003 9.38614 0.668557 9.50055 0.575806H9.498Z" fill="#204A8F"/>
<path d="M6.98291 0.577076C7.08969 0.664745 7.21299 0.718109 7.24095 0.801966C7.274 0.903611 7.26002 1.05227 7.20282 1.14248C7.07189 1.35212 6.98037 1.56303 6.96765 1.81333C6.95113 2.15003 7.04901 2.43845 7.25494 2.70654C7.73162 3.3253 7.72399 4.27569 7.25367 4.88556C7.11765 5.06216 6.94096 5.10663 6.78969 5.00118C6.62953 4.88937 6.61173 4.70768 6.7452 4.51455C7.07189 4.03936 7.05155 3.47269 6.69181 3.00004C6.2075 2.36349 6.20369 1.39024 6.69181 0.791801C6.75918 0.709215 6.8685 0.658392 6.98291 0.575806V0.577076Z" fill="#204A8F"/>
<path d="M12.0422 0.574524C12.1515 0.664734 12.2786 0.720639 12.3091 0.809578C12.3435 0.907411 12.3257 1.06242 12.2659 1.14628C12.0409 1.46773 11.9723 1.81713 12.0664 2.1856C12.1121 2.36475 12.21 2.54009 12.3206 2.69128C12.7871 3.32529 12.796 4.29473 12.3117 4.88682C12.243 4.97067 12.1096 5.04309 12.0053 5.04564C11.7473 5.05199 11.6367 4.75722 11.8058 4.52598C12.0562 4.18292 12.0892 3.8043 11.9799 3.4155C11.9342 3.25541 11.8287 3.10676 11.7282 2.96826C11.2757 2.34442 11.2782 1.40039 11.7511 0.801955C11.8185 0.716827 11.9253 0.664734 12.0422 0.574524Z" fill="#204A8F"/>
<path d="M9.18268 11.8775C9.18268 10.6107 9.18268 9.34271 9.18268 8.07596C9.18268 8.00862 9.18141 7.93874 9.19031 7.87267C9.21573 7.70114 9.34285 7.5906 9.5081 7.5995C9.6797 7.60839 9.78267 7.70114 9.80809 7.8714C9.81826 7.93747 9.81699 8.00735 9.81699 8.07469C9.81699 10.6031 9.81699 13.1303 9.81699 15.6587C9.81699 15.7387 9.81699 15.8213 9.80046 15.8975C9.76487 16.0576 9.65047 16.1402 9.49157 16.1364C9.34157 16.1326 9.23226 16.0513 9.19921 15.9001C9.18268 15.8226 9.18268 15.74 9.18268 15.6612C9.18268 14.4008 9.18268 13.1392 9.18268 11.8788V11.8775Z" fill="#204A8F"/>
<path d="M10.4528 11.8572C10.4528 10.5968 10.4528 9.3351 10.4528 8.0747C10.4528 8.00101 10.449 7.92477 10.4617 7.85235C10.4884 7.69988 10.5863 7.61348 10.7401 7.60078C10.8926 7.58807 11.0083 7.65414 11.0566 7.80153C11.0807 7.87522 11.0845 7.95908 11.0845 8.03912C11.0858 10.5917 11.0845 13.1442 11.0845 15.6981C11.0845 15.7654 11.0833 15.8353 11.0667 15.9001C11.0273 16.0589 10.9155 16.1377 10.7553 16.139C10.6015 16.1402 10.4769 16.0221 10.4579 15.8633C10.449 15.7959 10.4515 15.7273 10.4515 15.66C10.4515 14.3932 10.4515 13.1252 10.4515 11.8584L10.4528 11.8572Z" fill="#204A8F"/>
<path d="M1.58687 11.8597C1.58687 10.5993 1.58687 9.3376 1.58687 8.07721C1.58687 8.00987 1.58305 7.93999 1.59195 7.87392C1.61229 7.71128 1.7089 7.61599 1.87034 7.60075C2.0305 7.5855 2.14872 7.65792 2.19575 7.81547C2.21609 7.88535 2.2199 7.96159 2.2199 8.03528C2.2199 10.5878 2.2199 13.1404 2.2199 15.6942C2.2199 15.7374 2.22245 15.7806 2.21736 15.8238C2.19829 16.0144 2.06482 16.144 1.89322 16.1402C1.71907 16.1364 1.58941 16.0068 1.58814 15.8111C1.58305 15.2737 1.5856 14.7362 1.5856 14.1975C1.5856 13.4187 1.5856 12.6398 1.5856 11.8609L1.58687 11.8597Z" fill="#204A8F"/>
<path d="M2.85381 11.8558C2.85381 10.57 2.85127 9.28422 2.85762 7.99841C2.85762 7.89041 2.89322 7.757 2.96186 7.68077C3.12584 7.49908 3.42456 7.6058 3.47541 7.85229C3.48939 7.91836 3.4843 7.98824 3.4843 8.05558C3.4843 10.5967 3.4843 13.1366 3.4843 15.6777C3.4843 15.7082 3.4843 15.74 3.4843 15.7704C3.47795 15.9966 3.34575 16.1453 3.15635 16.1389C2.97203 16.1326 2.85381 15.9928 2.85254 15.7692C2.85254 14.4643 2.85254 13.1607 2.85254 11.8558H2.85381Z" fill="#204A8F"/>
<path d="M5.38184 11.8393C5.38184 10.5662 5.38184 9.29185 5.38311 8.01874C5.38311 7.93997 5.38819 7.85611 5.41616 7.78369C5.47209 7.63884 5.59285 7.58294 5.74412 7.60073C5.8903 7.61852 5.97801 7.70873 6.00725 7.84976C6.02123 7.91583 6.01487 7.98571 6.01487 8.05305C6.01487 10.5942 6.01487 13.134 6.01487 15.6752C6.01487 15.9877 5.90555 16.1453 5.692 16.1389C5.48607 16.1326 5.38311 15.9801 5.38311 15.679C5.38311 14.3995 5.38311 13.1201 5.38311 11.8406L5.38184 11.8393Z" fill="#204A8F"/>
<path d="M7.2805 11.8737C7.2805 13.1341 7.2805 14.3957 7.2805 15.6561C7.2805 15.7184 7.28304 15.7806 7.27796 15.8416C7.2627 16.0106 7.1394 16.1326 6.97796 16.1389C6.82797 16.1453 6.69195 16.0386 6.6589 15.8823C6.64746 15.8289 6.64746 15.7717 6.64746 15.7158C6.64746 13.1506 6.64746 10.5853 6.64746 8.02004C6.64746 7.94761 6.65127 7.87011 6.67416 7.8015C6.72754 7.64649 6.8483 7.58169 7.00847 7.60202C7.16228 7.62108 7.25253 7.7151 7.27287 7.86757C7.28177 7.93491 7.27796 8.00352 7.27796 8.07086C7.27796 9.33761 7.27796 10.6056 7.27796 11.8724L7.2805 11.8737Z" fill="#204A8F"/>
<path d="M8.5471 11.8584C8.5471 13.1315 8.5471 14.4046 8.5471 15.679C8.5471 15.9865 8.44922 16.1339 8.24075 16.1402C8.02592 16.1466 7.91406 15.9877 7.91406 15.6777C7.91406 13.1379 7.91406 10.5967 7.91406 8.05689C7.91406 7.98319 7.91406 7.90696 7.93186 7.83581C7.96872 7.67699 8.10219 7.58424 8.26236 7.60202C8.42507 7.61854 8.5204 7.71129 8.54201 7.87392C8.55091 7.94126 8.54837 8.00987 8.54837 8.07721C8.54837 9.33761 8.54837 10.5993 8.54837 11.8597L8.5471 11.8584Z" fill="#204A8F"/>
<path d="M12.9849 11.8584C12.9849 10.5726 12.9823 9.28676 12.9887 8.00095C12.9887 7.89804 13.0141 7.76209 13.0828 7.69983C13.1552 7.63376 13.3027 7.59819 13.3967 7.6236C13.4819 7.64774 13.5531 7.76336 13.6052 7.85357C13.6357 7.90566 13.6166 7.98698 13.6166 8.05432C13.6166 10.5954 13.6166 13.1353 13.6166 15.6764C13.6166 15.7069 13.6166 15.7387 13.6166 15.7692C13.6116 15.9953 13.4806 16.144 13.2912 16.1389C13.1069 16.1338 12.9861 15.9928 12.9861 15.7704C12.9861 14.4656 12.9861 13.162 12.9861 11.8571L12.9849 11.8584Z" fill="#204A8F"/>
<path d="M16.148 11.8584C16.148 13.1315 16.148 14.4046 16.148 15.679C16.148 15.7412 16.1518 15.8035 16.1429 15.8645C16.12 16.0271 16.017 16.1211 15.8607 16.1364C15.7107 16.1516 15.5925 16.0779 15.5442 15.9331C15.5175 15.853 15.5162 15.7628 15.5162 15.6777C15.5149 13.1366 15.5162 10.5967 15.5162 8.0556C15.5162 7.98826 15.5124 7.91838 15.5251 7.85231C15.5581 7.68714 15.698 7.58676 15.8619 7.59947C16.0196 7.61217 16.134 7.72398 16.1441 7.89043C16.153 8.03273 16.148 8.17503 16.148 8.31734C16.148 9.49769 16.148 10.6793 16.148 11.8597V11.8584Z" fill="#204A8F"/>
<path d="M17.414 11.8736C17.414 13.134 17.414 14.3957 17.414 15.6561C17.414 15.7184 17.4165 15.7806 17.4102 15.8416C17.3949 16.0119 17.2716 16.1326 17.1115 16.1389C16.9615 16.1453 16.8267 16.0398 16.7937 15.8823C16.7822 15.8289 16.7822 15.7717 16.7822 15.7171C16.7822 13.1518 16.7822 10.5866 16.7822 8.0213C16.7822 7.95396 16.7848 7.88408 16.8038 7.82055C16.8509 7.66427 16.9653 7.58931 17.1267 7.60075C17.2881 7.61345 17.3873 7.70747 17.4089 7.86883C17.4178 7.93617 17.4153 8.00478 17.4153 8.07212C17.4153 9.33888 17.4153 10.6069 17.4153 11.8736H17.414Z" fill="#204A8F"/>
<path d="M11.72 11.8775C11.72 10.5917 11.7187 9.30587 11.7226 8.02006C11.7226 7.91968 11.7327 7.7939 11.7912 7.72656C11.8535 7.65541 11.9857 7.60077 12.0759 7.61348C12.1662 7.62618 12.2628 7.7202 12.3175 7.80279C12.3594 7.86632 12.3505 7.96923 12.3505 8.05436C12.3518 10.5955 12.3505 13.1353 12.3505 15.6765C12.3505 15.7006 12.3505 15.726 12.3505 15.7502C12.3467 15.9928 12.2183 16.144 12.0238 16.139C11.8332 16.1339 11.7188 15.9928 11.7188 15.7527C11.7188 14.4605 11.7188 13.1684 11.7188 11.8775H11.72Z" fill="#204A8F"/>
<path d="M4.11912 11.8584C4.11912 10.5917 4.11912 9.32363 4.11912 8.05688C4.11912 7.99462 4.1153 7.93236 4.12293 7.87138C4.14327 7.71256 4.26657 7.60202 4.4242 7.5982C4.58182 7.59312 4.71402 7.69477 4.74326 7.85105C4.7547 7.91076 4.75088 7.97429 4.75088 8.03655C4.75088 10.5891 4.75088 13.1429 4.75088 15.6955C4.75088 15.7578 4.7547 15.82 4.74326 15.8797C4.71529 16.0322 4.57546 16.144 4.42547 16.1389C4.2742 16.1351 4.14327 16.0182 4.12293 15.8632C4.1153 15.8022 4.11912 15.74 4.11912 15.6777C4.11912 14.4046 4.11912 13.1302 4.11912 11.8571V11.8584Z" fill="#204A8F"/>
<path d="M14.8819 11.8774C14.8819 13.1442 14.8819 14.4122 14.8819 15.679C14.8819 15.7412 14.8857 15.8035 14.8768 15.8645C14.8552 16.0195 14.7243 16.1351 14.573 16.1389C14.4243 16.1427 14.2845 16.0309 14.2565 15.8784C14.2451 15.8187 14.2501 15.7552 14.2501 15.6929C14.2501 13.1404 14.2501 10.5865 14.2501 8.03398C14.2501 7.97808 14.2463 7.92217 14.2552 7.86754C14.2794 7.7011 14.4129 7.59183 14.5781 7.59691C14.7357 7.60199 14.8578 7.70999 14.8781 7.87135C14.8857 7.93234 14.8819 7.9946 14.8819 8.05685C14.8819 9.32996 14.8819 10.6043 14.8819 11.8774Z" fill="#204A8F"/>
</svg>
