<svg width="18" height="14" viewBox="0 0 18 14" fill="none" xmlns="http://www.w3.org/2000/svg">
<path d="M4.14624 1.68272H4.72343C4.72343 1.68272 4.725 1.68272 4.72578 1.68117C5.12888 0.29842 5.55785 -0.0544555 6.73734 0.0154979C7.62352 0.0683516 8.10034 0.57357 8.28855 1.67883C8.28855 1.67961 8.28934 1.68117 8.2909 1.68117H8.87437C8.87437 1.68117 8.87673 1.68039 8.87673 1.67883C8.91986 1.15962 9.05945 0.689382 9.49078 0.34972C9.83819 0.0761242 10.2358 0.00461627 10.6656 0.00772531C11.6968 0.0154979 12.1454 0.435218 12.4113 1.67806C12.4113 1.67883 12.4128 1.67961 12.4136 1.67961H12.9736C12.9736 1.67961 12.9759 1.67961 12.9759 1.67806C13.3665 0.300752 13.8127 -0.0614508 15.0196 0.0147206C15.8721 0.0683516 16.3763 0.617874 16.5269 1.67883C16.5269 1.67961 16.5269 1.68039 16.5285 1.68117C16.7771 1.75034 17.2186 1.65318 17.1433 2.097C17.1206 2.23147 16.9128 2.33562 16.7379 2.44443C16.6634 2.49107 16.5677 2.48952 16.4948 2.44055C16.4948 2.58978 16.4948 2.73902 16.4948 2.88825C16.4948 5.78898 16.4948 8.68972 16.4948 11.5904C16.4948 12.4827 16.1662 12.9437 15.327 13.267C15.2392 13.3004 15.1192 13.4162 15.1224 13.4893C15.1404 13.9308 14.8855 13.9961 14.5201 13.9953C11.8811 13.9891 9.24139 13.9922 6.60245 13.9922C4.59011 13.9922 2.57856 13.993 0.566216 13.9922C0.475245 13.9922 0.359178 14.0194 0.298008 13.9751C0.174884 13.8865 0 13.7567 0 13.644C0 13.5305 0.173315 13.3393 0.293303 13.3199C0.612485 13.2686 0.943431 13.2926 1.26967 13.2849C1.37868 13.2825 1.4869 13.274 1.70806 13.2616C1.71041 13.2616 1.71119 13.2584 1.70884 13.2569C0.829718 12.8255 0.64307 12.1641 0.649344 11.3534C0.671303 8.10289 0.656402 4.85316 0.660324 1.60266C0.661108 0.763222 1.23438 0.114987 2.03273 0.0209387C3.09066 -0.103423 3.83803 0.317852 4.06389 1.17284C4.1031 1.32129 4.11251 1.47675 4.14388 1.68039C4.14388 1.68117 4.14545 1.68272 4.14624 1.68272ZM3.38475 1.70681C3.38475 1.70681 3.3871 1.70604 3.3871 1.70448C3.43572 1.3073 3.32436 0.959091 3.00126 0.865043C2.63816 0.758558 2.20369 0.739904 1.83902 0.832398C1.44848 0.931887 1.363 1.32596 1.363 1.71925C1.36849 4.96664 1.36613 8.21403 1.36613 11.4614C1.36613 11.5904 1.3528 11.7226 1.37319 11.8493C1.43122 12.1998 1.60375 12.4579 2.03665 12.5644C2.03822 12.5644 2.03979 12.5636 2.03979 12.562C2.03979 12.3731 2.03979 12.2231 2.03979 12.0731C2.03979 8.81252 2.03979 5.5527 2.04057 2.29209C2.04057 1.78532 2.11743 1.71148 2.63345 1.70681C2.87735 1.70448 3.12203 1.70681 3.38396 1.70681H3.38475ZM4.78617 2.44832H4.11644C4.11644 2.44832 4.11408 2.4491 4.11408 2.45065C4.11408 2.70093 4.11408 2.91856 4.11408 3.13619C4.11408 5.84261 4.09683 8.54981 4.12428 11.2562C4.1329 12.0972 4.00272 12.817 3.04988 13.2592C3.04753 13.26 3.04831 13.2639 3.05066 13.2639H5.7045C5.7045 13.2639 5.70764 13.2608 5.70529 13.26C4.9289 12.8232 4.77441 12.1423 4.78068 11.3371C4.80185 8.51406 4.78852 5.69105 4.78852 2.86726C4.78852 2.74057 4.78852 2.61388 4.78852 2.45143C4.78852 2.44988 4.78774 2.4491 4.78617 2.4491V2.44832ZM13.9586 13.2631C13.9586 13.2631 13.9617 13.26 13.9593 13.2592C13.2167 12.8372 13.0214 12.1959 13.0285 11.3938C13.0528 8.58712 13.0379 5.77965 13.0379 2.97219C13.0379 2.79809 13.0379 2.6232 13.0379 2.41412C13.0379 2.41257 13.0363 2.41179 13.0355 2.41179C12.7791 2.42423 12.5807 2.43355 12.3619 2.44366C12.3603 2.44366 12.3595 2.44443 12.3595 2.44599C12.3595 2.72347 12.3595 2.95509 12.3595 3.18594C12.3595 5.87681 12.3446 8.56769 12.3689 11.2586C12.376 12.0793 12.2677 12.7999 11.4623 13.26C11.46 13.2616 11.4608 13.2639 11.4631 13.2639H13.9578L13.9586 13.2631ZM8.25169 2.43355C8.25169 2.43355 8.24934 2.43433 8.24934 2.43588C8.24934 2.61854 8.24934 2.77088 8.24934 2.924C8.24934 5.69416 8.23444 8.46353 8.25797 11.2337C8.26502 12.0692 8.13955 12.7968 7.32865 13.2608C7.3263 13.2623 7.32708 13.2647 7.32943 13.2647H9.97308C9.97308 13.2647 9.97622 13.2616 9.97387 13.26C9.06886 12.8302 8.88614 12.1532 8.89241 11.3316C8.91437 8.51017 8.90104 5.68872 8.90025 2.86649C8.90025 2.72969 8.90025 2.59211 8.90025 2.43511C8.90025 2.43355 8.89947 2.43278 8.8979 2.43278H8.25091L8.25169 2.43355ZM15.7725 2.45065C15.7725 2.45065 15.7717 2.44832 15.7701 2.44832C15.3315 2.39599 15.1119 2.56724 15.1114 2.96209C15.1114 6.01905 15.1114 9.07601 15.1114 12.133C15.1114 12.2674 15.1239 12.4019 15.131 12.548C15.131 12.5496 15.1325 12.5504 15.1341 12.5504C15.6172 12.3941 15.785 12.1493 15.785 11.6309C15.7866 8.65163 15.785 5.67239 15.785 2.69316C15.785 2.61776 15.7772 2.54237 15.7717 2.45065H15.7725ZM6.88085 12.5309C6.88085 12.5309 6.88242 12.5333 6.88399 12.5333C7.3757 12.4276 7.53804 12.1851 7.53882 11.5493C7.54039 8.63842 7.53882 5.7268 7.53804 2.81596C7.53804 2.69316 7.52392 2.56957 7.51451 2.41179C7.51451 2.41023 7.51295 2.40946 7.51216 2.40946C7.27611 2.42189 7.07926 2.43278 6.88399 2.44288C6.88242 2.44288 6.88164 2.44366 6.88164 2.44521V12.5309H6.88085ZM10.2727 12.5426V2.45532C10.2727 2.45532 10.2719 2.45298 10.2703 2.45298H9.61312C9.61312 2.45298 9.61077 2.45376 9.61077 2.45532C9.61077 2.64885 9.61077 2.80275 9.61077 2.95665C9.61077 5.46642 9.61077 7.97619 9.61077 10.4867C9.61077 10.901 9.60292 11.3153 9.61782 11.7288C9.63429 12.1913 9.81859 12.4182 10.2695 12.5449C10.2711 12.5449 10.2727 12.5449 10.2727 12.5426ZM6.12721 12.5667V2.44599C6.12721 2.44599 6.12642 2.44366 6.12485 2.44366H5.50217C5.50217 2.44366 5.49982 2.44443 5.49982 2.44599C5.49982 2.61465 5.49982 2.75378 5.49982 2.89291C5.49982 5.0024 5.49982 7.11188 5.49982 9.22214C5.49982 10.0631 5.49982 10.9049 5.50217 11.7459C5.50374 12.1493 5.68725 12.4229 6.12329 12.5682C6.12485 12.5682 6.12642 12.5682 6.12642 12.5659L6.12721 12.5667ZM2.7801 2.42967V12.5379C2.7801 12.5379 2.78167 12.5403 2.78324 12.5403C3.25849 12.3902 3.40435 12.1757 3.40435 11.6316C3.40592 8.65474 3.40592 5.67783 3.40435 2.70093C3.40435 2.61465 3.38867 2.52838 3.37926 2.43044C3.37926 2.42889 3.37847 2.42811 3.3769 2.42811H2.78167C2.78167 2.42811 2.77932 2.42889 2.77932 2.43044L2.7801 2.42967ZM11.6341 2.45376H11.0287C11.0287 2.45376 11.0263 2.45454 11.0263 2.45609V12.534C11.0263 12.534 11.0279 12.5364 11.0294 12.5364C11.5015 12.4004 11.6498 12.1819 11.6498 11.6309C11.6513 8.67883 11.6513 5.7268 11.6506 2.77477C11.6506 2.67295 11.6419 2.57113 11.6364 2.45532C11.6364 2.45376 11.6357 2.45298 11.6341 2.45298V2.45376ZM14.3773 12.5721V2.43666C14.3773 2.43666 14.3765 2.43433 14.375 2.43433H13.7946C13.7743 2.4763 13.7531 2.49884 13.7531 2.52138C13.7507 5.61488 13.7468 8.70837 13.7523 11.8019C13.7523 12.1718 13.9585 12.4229 14.3734 12.5745C14.375 12.5745 14.3765 12.5745 14.3765 12.5721H14.3773ZM7.51843 1.67961C7.51843 1.67961 7.52079 1.67883 7.52079 1.67728C7.55373 1.28321 7.42746 0.983186 7.08868 0.829289C6.68323 0.645078 6.25112 0.632642 5.85978 0.873592C5.57589 1.04848 5.45904 1.32363 5.52805 1.67728C5.52805 1.67806 5.52962 1.67961 5.53041 1.67961H7.51765H7.51843ZM11.6255 1.67883C11.6255 1.67883 11.6278 1.67806 11.6278 1.6765C11.6498 1.01661 11.3157 0.709591 10.6287 0.715809C9.94485 0.722027 9.61626 1.03293 9.64214 1.6765C9.64214 1.67806 9.64292 1.67883 9.64449 1.67883H11.6255ZM15.7701 1.68117C15.7701 1.68117 15.7725 1.68039 15.7725 1.67883C15.7639 0.971527 15.4141 0.68705 14.6369 0.718918C14.0448 0.743013 13.7335 1.08034 13.7766 1.67961C13.7766 1.68117 13.7774 1.68194 13.779 1.68194H15.7701V1.68117Z" fill="#828E9B"/>
</svg>
