<svg width="24" height="20" viewBox="0 0 24 20" fill="none" xmlns="http://www.w3.org/2000/svg">
<path d="M23.3441 17.4385C23.3264 17.4793 23.3051 17.5187 23.291 17.5609C23.1026 18.1276 22.6619 18.4693 22.0805 18.4735C21.0388 18.4805 19.9967 18.4759 18.9551 18.4763C18.8734 18.4763 18.7917 18.4763 18.6773 18.4763C18.6773 18.7243 18.6787 18.9549 18.6773 19.1851C18.6741 19.6875 18.3954 19.9814 17.9066 19.9946C17.7028 20.0002 17.499 20.0007 17.2952 19.9946C16.815 19.98 16.5431 19.6936 16.5372 19.1991C16.5345 18.9676 16.5368 18.7355 16.5368 18.4904H6.95809C6.95809 18.7337 6.96036 18.9652 6.95764 19.1968C6.95129 19.6932 6.68213 19.9796 6.20193 19.9941C5.98316 20.0007 5.76348 20.003 5.54516 19.9927C5.09673 19.9711 4.82258 19.6725 4.81759 19.2108C4.81532 18.9774 4.81759 18.7444 4.81759 18.4763C4.72455 18.4763 4.64466 18.4763 4.56478 18.4763C3.84765 18.4763 3.13052 18.4787 2.41293 18.4759C1.57734 18.4721 1.064 17.9359 1.06264 17.0682C1.06127 15.9067 1.06173 14.7447 1.06354 13.5832C1.06354 13.4913 1.06763 13.3938 1.09668 13.3081C1.15341 13.1388 1.29502 13.0413 1.45025 13.0995C1.56372 13.1421 1.65631 13.2738 1.7312 13.3854C1.76706 13.4388 1.74164 13.5368 1.74164 13.6151C1.74164 14.7457 1.74164 15.8763 1.74164 17.0068C1.74164 17.575 1.93772 17.7742 2.49418 17.7751C2.77195 17.7751 3.05018 17.7751 3.34248 17.7751V2.22621C3.12008 2.22621 2.90403 2.22621 2.68798 2.22621C2.2804 2.22621 1.87236 2.22293 1.46477 2.22762C1.05764 2.2323 0.831156 2.46292 0.830702 2.87869C0.828433 4.46911 0.824802 6.06 0.836149 7.65042C0.83751 7.86979 0.919209 8.08915 0.970044 8.30711C0.98366 8.36618 1.02088 8.41961 1.04766 8.47539C1.87917 10.2041 1.72621 9.68707 1.74028 11.7378C1.7421 11.9895 1.60185 12.1493 1.40168 12.147C1.20198 12.1447 1.06627 11.9843 1.06354 11.7317C1.059 11.3262 1.08533 10.9189 1.05401 10.5163C1.03223 10.2355 0.982298 9.93738 0.864289 9.68754C0.0414034 7.94197 0.158958 8.41821 0.151242 6.45092C0.147158 5.3358 0.181653 4.21974 0.140349 3.1065C0.109485 2.2848 0.502092 1.55029 1.51969 1.5053V0.706102C1.33587 0.706102 1.16657 0.709383 0.997276 0.705165C0.76262 0.69954 0.616017 0.570638 0.608754 0.371894C0.601038 0.167056 0.753996 0.00956133 0.995007 0.00768639C1.87826 0.00206156 2.76151 0.00159283 3.64476 0.00768639C3.90892 0.00956133 4.03011 0.14362 4.0351 0.41783C4.04146 0.775475 4.03646 1.13312 4.03646 1.50764H4.81714C4.81714 1.26483 4.81487 1.02625 4.81759 0.787193C4.82258 0.325958 5.09854 0.027842 5.54698 0.00768639C5.77301 -0.00215706 6.00041 -0.00215706 6.22644 0.00721765C6.67987 0.0259671 6.94947 0.314239 6.95719 0.782037C6.96127 1.02109 6.95809 1.26015 6.95809 1.51186H16.5363C16.5363 1.29905 16.5359 1.08484 16.5363 0.870628C16.5382 0.283303 16.7991 0.00956133 17.3633 0.00534271C17.5594 0.0039365 17.7564 -0.00168832 17.952 0.00815512C18.3991 0.0311232 18.6714 0.32877 18.6764 0.792818C18.6787 1.02578 18.6764 1.25874 18.6764 1.52451C18.7717 1.52451 18.852 1.52451 18.9319 1.52451C19.8755 1.52451 20.8205 1.5517 21.7628 1.51608C22.5475 1.48655 23.0904 1.77154 23.3432 2.56229V5.08831C23.2374 5.25705 23.1035 5.38174 22.8952 5.30721C22.6892 5.23362 22.6601 5.05269 22.6619 4.85066C22.6669 4.18834 22.6669 3.52601 22.6624 2.86369C22.6596 2.47183 22.435 2.23277 22.0596 2.22855C21.4637 2.22199 20.8677 2.22621 20.2713 2.22762C20.23 2.22762 20.1883 2.24496 20.152 2.25293V17.7746C20.7552 17.7746 21.3425 17.7751 21.9303 17.7746C22.4681 17.7742 22.6637 17.5712 22.6637 17.0134C22.6637 13.5926 22.6642 10.1722 22.6624 6.75138C22.6624 6.55358 22.6787 6.37358 22.8884 6.29108C23.1022 6.20671 23.2252 6.34311 23.3432 6.4917V17.4385H23.3441ZM4.0528 2.23559V17.761H19.4375V2.23559H4.0528ZM2.21322 0.720633V1.5067H3.34339V0.720633H2.21322ZM6.26456 1.5142V0.72157H5.51384V1.5142H6.26456ZM17.9856 0.724851H17.2299V1.51139H17.9856V0.724851ZM5.50749 18.4871V19.2788H6.26139V18.4871H5.50749ZM17.2271 19.2736H17.9829V18.4918H17.2271V19.2736Z" fill="#828E9B"/>
<path d="M1.59375 3.94873C1.59375 3.6553 1.81279 3.43453 2.09895 3.43828C2.36923 3.44203 2.58737 3.66515 2.59236 3.94264C2.59735 4.22341 2.36561 4.46903 2.09351 4.47137C1.81869 4.47372 1.5933 4.23841 1.59375 3.94873Z" fill="#828E9B"/>
<path d="M21.4052 3.43727C21.6904 3.43539 21.9072 3.65851 21.9058 3.95288C21.9045 4.24068 21.675 4.47692 21.4011 4.47083C21.1385 4.4652 20.9118 4.23177 20.9054 3.96038C20.8991 3.67773 21.1272 3.43867 21.4047 3.43727H21.4052Z" fill="#828E9B"/>
<path d="M7.75009 9.9757C7.75009 8.0506 7.74873 6.12598 7.751 4.20088C7.75191 3.61496 8.06145 3.19404 8.57298 3.06607C9.21022 2.90623 9.84203 3.38528 9.88651 4.0626C9.89014 4.11698 9.88923 4.17182 9.88923 4.22619C9.88923 8.07591 9.88923 11.9256 9.88923 15.7754C9.88923 16.3641 9.58695 16.7949 9.08541 16.9285C8.42546 17.1042 7.77415 16.6172 7.75644 15.9136C7.73965 15.2518 7.75054 14.589 7.75054 13.9267C7.75054 12.6095 7.75054 11.2928 7.75054 9.9757H7.75009ZM8.42955 9.99211C8.42955 11.9242 8.42864 13.8568 8.43046 15.789C8.43046 16.0824 8.58342 16.2638 8.81626 16.2647C9.04774 16.2657 9.20478 16.0777 9.20977 15.7932C9.21068 15.7463 9.20977 15.6999 9.20977 15.653C9.20977 11.8816 9.20977 8.1106 9.20977 4.33916C9.20977 4.27681 9.21249 4.21447 9.20886 4.15213C9.19525 3.90511 9.02595 3.72933 8.80854 3.73543C8.59567 3.74105 8.44407 3.90558 8.43091 4.14791C8.42683 4.22572 8.4291 4.30353 8.4291 4.38181C8.4291 6.25207 8.4291 8.12185 8.4291 9.99211H8.42955Z" fill="#828E9B"/>
<path d="M16.5364 9.99815C16.5364 8.07352 16.5355 6.14842 16.5373 4.22379C16.5377 3.65662 16.8101 3.24179 17.273 3.08711C17.9334 2.8668 18.6233 3.34726 18.6746 4.06395C18.6787 4.11833 18.6773 4.17317 18.6773 4.22754C18.6773 8.07727 18.6778 11.927 18.6773 15.7767C18.6773 16.3908 18.3487 16.8276 17.8054 16.9457C17.2054 17.076 16.5972 16.6139 16.5463 15.983C16.5318 15.8048 16.5373 15.6248 16.5373 15.4458C16.5368 13.6299 16.5373 11.8145 16.5373 9.99861L16.5364 9.99815ZM17.2158 9.97565C17.2158 11.9082 17.2149 13.8404 17.2167 15.773C17.2167 16.0833 17.3701 16.2689 17.6098 16.2651C17.8404 16.2614 17.9969 16.0739 17.9969 15.7861C17.9979 11.9293 17.9979 8.07211 17.9969 4.21536C17.9969 3.92708 17.8417 3.73959 17.6116 3.7349C17.3779 3.73022 17.2235 3.91162 17.2163 4.20176C17.2145 4.27207 17.2158 4.34191 17.2158 4.41222C17.2158 6.26654 17.2158 8.12133 17.2158 9.97565Z" fill="#828E9B"/>
<path d="M15.7433 10.0245C15.7433 11.9416 15.7442 13.8587 15.7424 15.7754C15.742 16.38 15.437 16.8038 14.9195 16.9336C14.2837 17.093 13.6491 16.6121 13.606 15.9366C13.6037 15.8977 13.6037 15.8588 13.6037 15.8199C13.6037 11.9392 13.6028 8.05812 13.6047 4.17746C13.6047 3.57185 14.0032 3.10452 14.5632 3.0375C15.077 2.97609 15.5736 3.32577 15.7057 3.85684C15.7406 3.99747 15.742 4.1498 15.742 4.29652C15.7442 6.20568 15.7433 8.11484 15.7433 10.0245ZM15.0639 10.0245C15.0639 8.09234 15.0643 6.15974 15.0634 4.22761C15.0634 3.91731 14.9109 3.73169 14.6708 3.73497C14.4398 3.73779 14.2841 3.92528 14.2841 4.21308C14.2832 8.06984 14.2832 11.9271 14.2841 15.7838C14.2841 16.073 14.4375 16.2601 14.6676 16.2652C14.9009 16.2704 15.0562 16.0876 15.0634 15.7988C15.0648 15.7365 15.0634 15.6741 15.0634 15.6118C15.0634 13.7495 15.0634 11.8872 15.0634 10.0249L15.0639 10.0245Z" fill="#828E9B"/>
<path d="M6.95801 10.0145C6.95801 11.9391 6.95937 13.8642 6.9571 15.7889C6.95619 16.3687 6.65708 16.7915 6.16598 16.9265C5.51194 17.106 4.86108 16.6213 4.81977 15.9234C4.8166 15.869 4.8175 15.8142 4.8175 15.7598C4.8175 11.918 4.8175 8.07583 4.8175 4.23407C4.8175 3.61393 5.1384 3.17895 5.67942 3.05708C6.28944 2.91974 6.90944 3.38566 6.94802 4.0297C6.97026 4.40235 6.95801 4.77734 6.95801 5.15139C6.95891 6.77227 6.95801 8.39316 6.95801 10.014V10.0145ZM5.49651 9.97702C5.49651 11.8782 5.49651 13.7794 5.49651 15.6806C5.49651 15.7659 5.49152 15.8536 5.50695 15.937C5.5419 16.1292 5.71256 16.2679 5.89456 16.2651C6.09064 16.2618 6.24904 16.1128 6.27174 15.9023C6.28082 15.8175 6.27809 15.7312 6.27809 15.6454C6.27809 11.882 6.27809 8.11848 6.27809 4.35501C6.27809 4.26923 6.28082 4.18298 6.27174 4.09814C6.24814 3.88111 6.11787 3.7644 5.9168 3.73862C5.72844 3.71424 5.54417 3.86283 5.50695 4.06392C5.49152 4.14689 5.49696 4.23454 5.49696 4.32032C5.49651 6.20604 5.49696 8.09176 5.49696 9.97702H5.49651Z" fill="#828E9B"/>
<path d="M12.8222 10.0108C12.8222 11.9279 12.8236 13.8455 12.8213 15.7626C12.8209 16.3373 12.5385 16.7639 12.0697 16.9157C11.4048 17.1309 10.7117 16.6645 10.6844 15.9262C10.6486 14.9536 10.6699 13.9782 10.6749 13.0041C10.6763 12.7758 10.8406 12.6221 11.0308 12.6334C11.2164 12.6441 11.3467 12.7904 11.348 13.0158C11.3521 13.8418 11.3503 14.6681 11.3503 15.4945C11.3503 15.5569 11.3503 15.6192 11.3503 15.6815C11.3512 16.0692 11.4901 16.2703 11.7524 16.2651C12.0084 16.26 12.1419 16.065 12.1419 15.6914C12.1419 14.0625 12.1419 12.4337 12.1419 10.8043C12.1419 8.64535 12.1419 6.48636 12.1419 4.32736C12.1419 3.93456 12.0093 3.73723 11.7474 3.73535C11.4851 3.73394 11.3498 3.93269 11.3498 4.32361C11.3498 6.59182 11.3498 8.85956 11.3498 11.1278C11.3498 11.2211 11.3544 11.3162 11.3403 11.4076C11.3144 11.5726 11.2128 11.6701 11.0516 11.687C10.881 11.7048 10.7557 11.6289 10.7008 11.4592C10.6776 11.3875 10.6722 11.3064 10.6722 11.2295C10.6708 8.89144 10.6681 6.55292 10.6726 4.21487C10.6745 3.30693 11.5137 2.75382 12.2535 3.16865C12.6674 3.40067 12.8236 3.78504 12.8231 4.25846C12.8204 6.17559 12.8218 8.09318 12.8218 10.0103L12.8222 10.0108Z" fill="#828E9B"/>
</svg>
