<svg width="22" height="19" viewBox="0 0 22 19" fill="none" xmlns="http://www.w3.org/2000/svg">
<g clip-path="url(#clip0_461_11493)">
<path d="M0.535156 2.17807H1.59918C1.59918 1.93226 1.58965 1.6916 1.60084 1.45222C1.64063 0.612687 2.24871 -0.00892065 3.01429 -0.000340838C3.79356 0.00866797 4.39459 0.645719 4.42028 1.49083C4.42319 1.59079 4.41821 1.69074 4.42194 1.79027C4.43106 2.03436 4.5637 2.18279 4.76971 2.18408C4.97365 2.18537 5.10629 2.03608 5.12618 1.79413C5.14774 1.53287 5.1411 1.26175 5.20908 1.01336C5.38442 0.36902 6.03228 -0.0664054 6.64865 0.00909696C7.3732 0.097898 7.8963 0.646148 7.93816 1.36428C7.94563 1.49212 7.94148 1.62124 7.94521 1.74951C7.9535 2.02535 8.08448 2.18408 8.30044 2.18408C8.52054 2.18408 8.65235 2.03007 8.64904 1.75037C8.64406 1.29821 8.69836 0.87051 9.00053 0.510158C9.37027 0.0691557 9.9485 -0.102012 10.5014 0.0785935C11.0324 0.251906 11.4129 0.742671 11.4606 1.32224C11.4747 1.49255 11.471 1.66457 11.4863 1.83445C11.5058 2.05452 11.6393 2.18408 11.8312 2.18365C12.016 2.18365 12.1483 2.06482 12.174 1.85547C12.1905 1.72163 12.1823 1.58521 12.1897 1.45008C12.2341 0.6114 12.843 -0.0114946 13.6073 -0.000340838C14.3799 0.0108129 14.9772 0.636711 15.0104 1.47153C15.0145 1.57835 15.0087 1.68559 15.0129 1.79241C15.0224 2.03565 15.1567 2.18408 15.3627 2.18408C15.5662 2.18408 15.6972 2.03393 15.7171 1.79155C15.7387 1.5303 15.7325 1.25918 15.8004 1.01079C15.9762 0.367304 16.6253 -0.0672634 17.2421 0.00909696C17.9575 0.097898 18.4831 0.641429 18.5279 1.34497C18.5374 1.49383 18.5291 1.64355 18.5291 1.81729H19.5956V2.90736H19.933C19.945 2.8044 19.9542 2.70659 19.9683 2.61007C20.0367 2.14204 20.4039 1.82244 20.8603 1.83231C21.3038 1.84217 21.6826 2.19652 21.7071 2.66326C21.7287 3.07595 21.7274 3.49121 21.7079 3.9039C21.686 4.36979 21.31 4.72971 20.8673 4.74515C20.4097 4.76146 20.0329 4.42942 19.9662 3.95109C19.9533 3.86015 19.9455 3.76834 19.9343 3.66496H19.6105V4.734H18.5536V14.2456H19.5898C19.5977 14.3708 19.6043 14.4747 19.6122 14.6055H21.7038V16.439H19.6126C19.6056 16.5664 19.5994 16.6715 19.5923 16.8015H18.5337C18.5337 17.0726 18.5411 17.3202 18.5324 17.5673C18.5067 18.3017 18.0126 18.8735 17.3237 18.9756C16.5208 19.0945 15.7971 18.4982 15.7254 17.6552C15.7134 17.5136 15.7213 17.3699 15.7159 17.2275C15.7068 16.9688 15.5729 16.8135 15.3627 16.8135C15.1497 16.8135 15.0137 16.9662 15.0137 17.2266C15.0137 17.5711 15.0029 17.9105 14.8376 18.224C14.5354 18.7976 13.9223 19.0936 13.2998 18.9619C12.6954 18.8341 12.2411 18.2875 12.198 17.6338C12.1893 17.4986 12.1934 17.3626 12.1864 17.2275C12.1723 16.9637 12.0426 16.8148 11.8324 16.8148C11.6198 16.8148 11.4967 16.962 11.4805 17.2279C11.4672 17.448 11.4784 17.6754 11.4274 17.8856C11.2538 18.5973 10.6071 19.07 9.95347 18.9889C9.17255 18.892 8.67764 18.3197 8.65277 17.4836C8.64945 17.3768 8.65608 17.2691 8.64779 17.1627C8.63204 16.9555 8.50645 16.8255 8.32199 16.8157C8.13588 16.8054 7.99163 16.9169 7.96096 17.1224C7.93899 17.2691 7.94894 17.421 7.94272 17.5703C7.91744 18.1966 7.53983 18.7303 6.99227 18.9156C6.40285 19.1151 5.80514 18.9289 5.42048 18.4205C5.21737 18.1524 5.12991 17.8427 5.12618 17.5042C5.12452 17.3691 5.13364 17.2305 5.10794 17.0997C5.07064 16.9092 4.94339 16.8084 4.74981 16.8165C4.57489 16.8242 4.4435 16.9529 4.42733 17.1443C4.40992 17.3498 4.41904 17.5587 4.3921 17.7625C4.29676 18.4767 3.6576 19.0284 2.97409 18.9979C2.24208 18.9653 1.65473 18.3918 1.6112 17.6531C1.59545 17.3841 1.60872 17.1134 1.60872 16.8208H0.535156V14.252H1.58136V4.74687H0.535156V2.17807ZM2.30342 9.48636C2.30342 10.0359 2.30342 10.585 2.30342 11.1345C2.30342 13.2465 2.30218 15.3584 2.30467 17.4703C2.30508 17.9439 2.60767 18.276 3.01471 18.2691C3.41595 18.2622 3.70568 17.9345 3.71563 17.475C3.71812 17.3609 3.71439 17.2468 3.71936 17.1327C3.74174 16.5896 4.13925 16.1417 4.64039 16.092C5.20204 16.0362 5.6783 16.3725 5.79353 16.9285C5.83208 17.1138 5.8242 17.3107 5.82959 17.5025C5.84203 17.9396 6.14088 18.2678 6.53383 18.2695C6.92678 18.2712 7.22854 17.9431 7.24056 17.5076C7.24553 17.3227 7.24014 17.1344 7.2733 16.9542C7.37444 16.4047 7.83868 16.0512 8.38666 16.0885C8.9081 16.1241 9.31721 16.5553 9.3512 17.1065C9.36239 17.2914 9.35327 17.4789 9.38022 17.6608C9.43369 18.0259 9.75285 18.288 10.0956 18.2687C10.4509 18.2485 10.7294 17.9739 10.7622 17.6029C10.7775 17.4257 10.7713 17.2464 10.7883 17.0692C10.8426 16.4986 11.2791 16.0868 11.825 16.083C12.3638 16.0795 12.8069 16.4768 12.8724 17.0332C12.894 17.2163 12.8873 17.4034 12.8998 17.5879C12.9242 17.9568 13.1957 18.2365 13.5538 18.2669C13.8871 18.2953 14.2108 18.0507 14.2767 17.6968C14.3091 17.5239 14.3016 17.3425 14.3074 17.1649C14.3285 16.5523 14.7675 16.0937 15.3441 16.0834C15.9269 16.0727 16.3907 16.5317 16.4185 17.1494C16.4251 17.2991 16.4143 17.4497 16.4263 17.5986C16.4562 17.9641 16.7401 18.2446 17.0933 18.2682C17.417 18.2897 17.7324 18.0477 17.8091 17.7088C17.8307 17.6132 17.8294 17.5106 17.8294 17.4111C17.8303 12.1384 17.8303 6.86609 17.8303 1.59336C17.8303 1.5436 17.8307 1.4934 17.8286 1.44364C17.8112 1.04854 17.5127 0.740097 17.1393 0.73023C16.7646 0.720364 16.4442 1.03567 16.4234 1.43892C16.416 1.58135 16.4251 1.72463 16.4172 1.86663C16.3841 2.47279 15.9231 2.92409 15.3486 2.91637C14.7721 2.90865 14.329 2.45005 14.3074 1.8396C14.3016 1.66886 14.3107 1.49512 14.2825 1.32824C14.2204 0.960598 13.8995 0.705778 13.558 0.731946C13.1936 0.759831 12.9201 1.04683 12.8977 1.4282C12.8869 1.61309 12.8923 1.7997 12.8699 1.98288C12.8028 2.53199 12.3468 2.92795 11.8084 2.91637C11.2786 2.90478 10.8438 2.49853 10.7899 1.95671C10.7709 1.76539 10.7775 1.57191 10.7593 1.38058C10.7244 1.01551 10.4302 0.73881 10.0791 0.73023C9.74083 0.721651 9.43369 0.978187 9.38063 1.33425C9.35369 1.51614 9.36239 1.70361 9.3512 1.88851C9.31804 2.44147 8.911 2.8739 8.3908 2.91122C7.83412 2.95112 7.36574 2.59076 7.26916 2.03007C7.23683 1.84217 7.24595 1.64698 7.23848 1.4548C7.2219 1.04854 6.91766 0.732804 6.53798 0.730659C6.16119 0.728514 5.84949 1.04382 5.83166 1.44965C5.82545 1.59207 5.83415 1.73536 5.82545 1.87735C5.78856 2.4818 5.32224 2.92924 4.74733 2.91594C4.17822 2.90307 3.7405 2.4492 3.71646 1.85033C3.709 1.66543 3.71646 1.4771 3.6833 1.29736C3.62278 0.96832 3.33885 0.739239 3.01844 0.73023C2.71419 0.72208 2.41824 0.938291 2.33617 1.24974C2.30425 1.37114 2.30384 1.50327 2.30342 1.63068C2.30176 4.24924 2.30218 6.86737 2.30218 9.48593L2.30342 9.48636ZM18.5511 2.57017V4.00944H18.8823V2.57017H18.5511ZM21.0107 3.29989C21.0107 3.12228 21.0273 2.94168 21.0029 2.76794C20.9925 2.69372 20.8967 2.63195 20.84 2.56459C20.7794 2.62809 20.6692 2.689 20.6659 2.7555C20.6485 3.11027 20.6485 3.46633 20.6659 3.82111C20.6692 3.88846 20.7786 3.95066 20.8391 4.01501C20.8963 3.94723 20.9913 3.88546 21.0024 3.81038C21.0273 3.64351 21.0103 3.47019 21.0103 3.29946L21.0107 3.29989ZM19.6122 15.6939H20.9995V15.3601H19.6122V15.6939ZM1.5967 4.01158C1.5967 3.73317 1.5967 3.47792 1.5967 3.22267C1.5967 2.88291 1.58924 2.8769 1.25224 2.9494V4.01115H1.5967V4.01158ZM1.25349 14.9907V16.0559C1.54696 16.101 1.59089 16.0911 1.59421 15.9573C1.60126 15.6385 1.59628 15.3198 1.59628 14.9907H1.25349ZM18.8885 14.9946H18.5457V16.0568H18.8885V14.9946Z" fill="#828E9B"/>
<path d="M12.8939 9.51466C12.8939 11.0552 12.8955 12.5957 12.893 14.1362C12.8922 14.7359 12.6008 15.1628 12.1088 15.303C11.4854 15.4806 10.8574 15.0392 10.7886 14.3734C10.7782 14.2743 10.772 14.1744 10.772 14.0748C10.7712 11.0221 10.7733 7.96987 10.7695 4.91717C10.7691 4.4234 10.9105 4.01844 11.3536 3.77863C11.9919 3.43329 12.7753 3.85628 12.8711 4.59543C12.8864 4.71512 12.8926 4.83695 12.8926 4.9575C12.8939 6.47655 12.8934 7.99561 12.8934 9.51509L12.8939 9.51466ZM11.48 9.47777C11.48 11.0187 11.4796 12.5601 11.48 14.101C11.48 14.4378 11.5948 14.6016 11.8257 14.6051C12.0649 14.6085 12.1846 14.4386 12.1867 14.0916C12.1867 14.0843 12.1867 14.0774 12.1867 14.0701C12.1867 11.0234 12.1867 7.97716 12.1859 4.93047C12.1859 4.85239 12.1822 4.77346 12.1697 4.69667C12.1374 4.49933 12.0172 4.39895 11.8269 4.39552C11.6499 4.39209 11.519 4.51392 11.492 4.70568C11.48 4.78976 11.48 4.87642 11.48 4.96179C11.4792 6.46711 11.4796 7.97244 11.4796 9.4782L11.48 9.47777Z" fill="#828E9B"/>
<path d="M5.82994 9.49489C5.82994 11.0568 5.83202 12.6188 5.82911 14.1808C5.82787 14.8367 5.41917 15.3004 4.82229 15.3373C4.25483 15.3725 3.75536 14.916 3.72013 14.33C3.71888 14.3086 3.71723 14.2871 3.71723 14.2661C3.71723 11.0852 3.71515 7.90419 3.72013 4.72366C3.72096 4.25692 4.01525 3.86096 4.42685 3.71939C5.11949 3.4813 5.80714 3.9785 5.82663 4.74554C5.84031 5.28006 5.82994 5.81544 5.82994 6.34996C5.82994 7.39841 5.82994 8.44687 5.82994 9.49532V9.49489ZM4.42064 9.48889C4.42064 11.0157 4.42064 12.5429 4.42064 14.0696C4.42064 14.1409 4.41608 14.2134 4.42602 14.2833C4.45172 14.4669 4.55203 14.5806 4.73483 14.602C4.91389 14.623 5.05897 14.5214 5.10415 14.3352C5.12405 14.2537 5.12446 14.1657 5.12446 14.0808C5.12529 11.0268 5.12529 7.97326 5.12446 4.91928C5.12446 4.82747 5.12239 4.73138 5.09752 4.64472C5.0457 4.46412 4.91638 4.38089 4.73566 4.39762C4.56239 4.4135 4.46084 4.5216 4.42975 4.69449C4.41608 4.77042 4.42105 4.85064 4.42105 4.92914C4.42105 6.44906 4.42105 7.96854 4.42105 9.48846L4.42064 9.48889Z" fill="#828E9B"/>
<path d="M9.35767 9.52307C9.35767 11.0636 9.35436 12.6041 9.35933 14.1446C9.36099 14.6598 9.167 15.0476 8.70608 15.2561C8.10795 15.5272 7.41656 15.1514 7.27521 14.4904C7.25034 14.3732 7.24122 14.2501 7.24081 14.1296C7.23915 11.0413 7.23874 7.95339 7.23998 4.86509C7.23998 4.26407 7.52723 3.83937 8.02256 3.69737C8.66048 3.51419 9.32576 3.98308 9.34482 4.66646C9.36969 5.56434 9.35601 6.4635 9.35726 7.36181C9.3585 8.08209 9.35726 8.80236 9.35726 9.52264L9.35767 9.52307ZM8.65136 9.51106C8.65136 7.98385 8.65136 6.45707 8.65095 4.92986C8.65095 4.84449 8.65551 4.75655 8.6381 4.67418C8.60369 4.5116 8.50214 4.41293 8.33758 4.39749C8.16598 4.38118 8.03873 4.45583 7.98153 4.62356C7.95251 4.7085 7.94629 4.80503 7.94629 4.8964C7.94463 7.96454 7.94463 11.0331 7.94629 14.1013C7.94629 14.1858 7.9521 14.2737 7.97531 14.3539C8.02795 14.535 8.15562 14.6178 8.33634 14.601C8.5096 14.5852 8.61281 14.4796 8.641 14.305C8.65468 14.2214 8.65095 14.1343 8.65095 14.0489C8.65136 12.5363 8.65095 11.0237 8.65095 9.51063L8.65136 9.51106Z" fill="#828E9B"/>
<path d="M14.3068 9.50162C14.3068 7.93967 14.3051 6.37771 14.3076 4.81576C14.3084 4.28981 14.5671 3.88485 14.9911 3.72569C15.6502 3.47816 16.3424 3.92817 16.4141 4.65145C16.4203 4.71494 16.4212 4.77972 16.4212 4.84364C16.4212 7.9461 16.422 11.0486 16.4212 14.151C16.4212 14.7036 16.1625 15.1163 15.724 15.2763C15.0131 15.5358 14.3126 15.0146 14.3093 14.2085C14.3026 12.6397 14.3072 11.0704 14.3072 9.50119L14.3068 9.50162ZM15.0118 9.49433C15.0118 11.0211 15.0118 12.5483 15.0118 14.0751C15.0118 14.1463 15.0069 14.2188 15.0176 14.2887C15.0463 14.4719 15.1486 14.5839 15.3314 14.6023C15.5101 14.6203 15.6523 14.5161 15.6974 14.3295C15.714 14.2617 15.7157 14.1883 15.7157 14.1176C15.7165 11.0421 15.7165 7.96712 15.7157 4.89169C15.7157 4.8209 15.7169 4.74712 15.7003 4.67934C15.6543 4.48972 15.5341 4.38805 15.3414 4.39534C15.166 4.40221 15.0375 4.53091 15.0164 4.72095C15.0085 4.7913 15.0118 4.86337 15.0118 4.93459C15.0118 6.4545 15.0118 7.97399 15.0118 9.4939V9.49433Z" fill="#828E9B"/>
</g>
<defs>
<clipPath id="clip0_461_11493">
<rect width="21.1877" height="19" fill="white" transform="translate(0.535156)"/>
</clipPath>
</defs>
</svg>
