<svg width="20" height="18" viewBox="0 0 20 18" fill="none" xmlns="http://www.w3.org/2000/svg">
<path d="M19.9994 5.45025C19.7903 5.54417 19.5838 5.7117 19.3715 5.71904C18.4903 5.7495 17.6076 5.73201 16.7477 5.73201C16.7115 5.78165 16.6871 5.79998 16.685 5.82029C16.6173 6.51159 16.5842 6.54261 15.8613 6.54346C14.17 6.54543 12.4785 6.54966 10.7873 6.54459C10.0695 6.54233 10.0359 6.50144 9.98248 5.76106C9.8808 5.75204 9.77222 5.73398 9.66365 5.7337C8.77955 5.73145 7.89516 5.7227 7.01163 5.74188C6.86859 5.74498 6.69855 5.84793 6.59313 5.95455C6.37311 6.17736 6.13701 6.1768 5.9009 5.94919C5.81703 5.86824 5.64699 5.80478 5.53756 5.82847C4.26224 6.10629 3.31495 7.31627 3.33218 8.61904C3.34942 9.91562 4.30418 11.0985 5.55824 11.3555C5.66078 11.3766 5.81933 11.3199 5.89602 11.2446C6.16861 10.9775 6.38346 10.9877 6.62387 11.2793C6.69625 11.3673 6.84217 11.4452 6.95476 11.4457C8.97918 11.4562 11.0036 11.457 13.028 11.4457C13.1486 11.4452 13.3017 11.3535 13.3825 11.2579C13.6134 10.9846 13.8883 10.9854 14.114 11.2649C14.1956 11.3659 14.3318 11.4708 14.4544 11.4863C17.2813 11.8459 19.4344 13.8609 19.9187 16.6123C19.9334 16.6955 19.9716 16.7747 19.9989 16.8559V17.7624C19.8193 17.84 19.6421 17.9779 19.46 17.9841C18.7054 18.0106 17.9494 17.9949 17.194 17.9994C16.8706 18.0013 16.6876 17.8634 16.6655 17.5365C16.6563 17.3986 16.6391 17.261 16.6173 17.1245C16.4415 16.0245 15.5772 15.0892 14.4935 14.828C14.3366 14.7902 14.2036 14.7428 14.0732 14.9442C13.9 15.2119 13.6157 15.1741 13.3991 14.9423C13.3046 14.841 13.1458 14.7383 13.0154 14.7375C11.0053 14.7248 8.99497 14.7248 6.98492 14.7375C6.85423 14.7383 6.69309 14.8379 6.6006 14.9394C6.37685 15.1845 6.10599 15.1783 5.88855 14.9273C5.78888 14.8122 5.62574 14.7059 5.47724 14.6831C2.99641 14.3003 1.29858 12.9581 0.381445 10.6729C0.20652 10.2346 0.124946 9.76021 0 9.30244C0 8.82409 0 8.34574 0 7.86739C0.028436 7.77319 0.0672124 7.68096 0.0835847 7.58478C0.551774 4.8791 2.75485 2.8227 5.52779 2.48791C5.66078 2.47183 5.80181 2.35252 5.89775 2.24563C6.08847 2.03296 6.40213 1.95512 6.51731 2.17173C6.69252 2.50088 6.95648 2.44955 7.22763 2.44983C8.0089 2.45124 8.78989 2.45124 9.57116 2.44927C9.70731 2.44898 9.84346 2.4377 9.97329 2.43178C10.0488 1.65446 10.0781 1.63189 10.841 1.63697C11.5172 1.6412 12.1933 1.63782 12.8907 1.63782V0.819598C12.4961 0.819598 12.127 0.824957 11.7584 0.817906C11.4867 0.812829 11.2612 0.708471 11.2635 0.408938C11.2658 0.115609 11.4758 0.00109757 11.757 0.00137961C12.0899 0.00194371 12.4228 0.00448213 12.7557 0.00420008C13.4729 0.00391804 14.1901 -0.00510747 14.9071 0.00420008C15.3012 0.00927693 15.5404 0.317272 15.3486 0.584089C15.2572 0.71101 15.0363 0.794214 14.866 0.810008C14.5044 0.843854 14.1373 0.820162 13.7797 0.820162V1.63359C14.4906 1.63359 15.1794 1.63302 15.8682 1.63359C16.5822 1.63443 16.627 1.67533 16.6868 2.36099C16.6885 2.38129 16.7138 2.39934 16.7511 2.44983C17.5964 2.44983 18.4662 2.43093 19.3336 2.4628C19.5588 2.47098 19.778 2.63711 20 2.73075V5.44996L19.9994 5.45025ZM5.83168 3.29315C3.9506 3.49228 2.52506 4.3339 1.60649 5.89193C0.492604 7.7808 0.549763 9.70098 1.76102 11.5292C2.69855 12.9445 4.07037 13.7111 5.81646 13.8804V12.2716C5.69295 12.2419 5.58323 12.2129 5.47235 12.1892C3.39538 11.7422 2.09392 9.73905 2.61583 7.72298C2.9967 6.25098 3.98219 5.34561 5.48643 4.98007C5.61166 4.94961 5.811 4.84695 5.81617 4.76769C5.84748 4.29442 5.83168 3.81804 5.83168 3.29287V3.29315ZM13.3175 5.6914C14.0224 5.6914 14.7273 5.68152 15.4316 5.69619C15.7102 5.70211 15.8193 5.62004 15.8139 5.33348C15.7978 4.50341 15.7949 3.6725 15.8107 2.84244C15.8165 2.54657 15.6927 2.48537 15.4229 2.48706C14.0264 2.49637 12.6296 2.4975 11.2331 2.48621C10.9516 2.48396 10.8525 2.56378 10.8583 2.85034C10.8755 3.6804 10.8766 4.51131 10.8568 5.34138C10.8496 5.64204 10.9757 5.69986 11.2417 5.69534C11.9334 5.6835 12.6256 5.6914 13.3175 5.69111V5.6914ZM6.69453 13.8798H13.2885V12.2967H6.69453V13.8798ZM19.113 17.1484C18.9591 14.2628 16.2553 12.3144 14.1907 12.3449V13.9114C16.0483 14.2637 17.1392 15.3524 17.4982 17.1487H19.113V17.1484ZM9.98593 3.29879H6.70889V4.87572H9.98593V3.29879ZM16.6963 4.88643H19.13V3.30133H16.6963V4.88643Z" fill="#204A8F"/>
</svg>
