<svg width="17" height="20" viewBox="0 0 17 20" fill="none" xmlns="http://www.w3.org/2000/svg">
<g clip-path="url(#clip0_850_12604)">
<path d="M8.42427 13.4395C9.20378 13.4395 9.83779 12.8082 9.83779 12.0321C9.83779 11.256 9.20378 10.6247 8.42427 10.6247C7.64476 10.6247 7.01074 11.256 7.01074 12.0321C7.01074 12.8082 7.64476 13.4395 8.42427 13.4395ZM8.34209 12.7973C7.9546 12.7564 7.65154 12.4288 7.65154 12.0321C7.65154 11.9919 7.65456 11.9518 7.66096 11.9124C7.87054 12.1072 8.20376 12.4528 8.34209 12.7973ZM8.02207 11.3757C8.0379 11.3659 8.05374 11.3569 8.07032 11.3487C8.28932 11.5082 8.79367 11.9244 8.87132 12.4168C8.65533 11.9837 8.28292 11.6065 8.02207 11.3757Z" fill="#204A8F"/>
<path d="M13.476 12.3511C14.2555 12.3511 14.8896 11.7198 14.8896 10.9437C14.8896 10.1676 14.2555 9.53632 13.476 9.53632C12.6965 9.53632 12.0625 10.1676 12.0625 10.9437C12.0625 11.7198 12.6965 12.3511 13.476 12.3511ZM13.476 10.1743C13.902 10.1743 14.2488 10.5196 14.2488 10.9437C14.2488 11.3678 13.902 11.7131 13.476 11.7131C13.0501 11.7131 12.7033 11.3678 12.7033 10.9437C12.7033 10.5196 13.0501 10.1743 13.476 10.1743Z" fill="#204A8F"/>
<path d="M13.476 13.402C12.6965 13.402 12.0625 14.0332 12.0625 14.8094C12.0625 15.5855 12.6965 16.2168 13.476 16.2168C14.2555 16.2168 14.8896 15.5855 14.8896 14.8094C14.8896 14.0332 14.2555 13.402 13.476 13.402ZM12.7595 15.0976C12.7225 15.0068 12.7033 14.9096 12.7033 14.8094C12.7033 14.7092 12.721 14.6195 12.7553 14.532C12.7587 14.5801 12.7613 14.627 12.7636 14.6724C12.7715 14.8529 12.7681 14.9918 12.7598 15.0976H12.7595ZM13.476 15.5787C13.4236 15.5787 13.372 15.5735 13.3211 15.5634C13.3927 15.3457 13.4199 15.0511 13.4044 14.6668C13.395 14.4356 13.3716 14.2134 13.3505 14.0501C13.392 14.0434 13.4338 14.04 13.476 14.04C13.902 14.04 14.2488 14.3853 14.2488 14.8094C14.2488 15.2335 13.902 15.5787 13.476 15.5787Z" fill="#204A8F"/>
<path d="M8.19868 17.6429C8.97819 17.6429 9.61221 17.0117 9.61221 16.2355C9.61221 15.4594 8.97819 14.8281 8.19868 14.8281C7.41917 14.8281 6.78516 15.4594 6.78516 16.2355C6.78516 17.0117 7.41917 17.6429 8.19868 17.6429ZM8.43615 16.9677C8.38451 16.9843 8.33174 16.9955 8.27784 17.0011C8.39205 16.7594 8.46329 16.3102 8.31817 15.4759C8.3389 15.4793 8.36001 15.483 8.38037 15.4883C8.5025 16.1181 8.52549 16.7351 8.43615 16.9681V16.9677ZM7.69697 15.6508C7.775 16.1466 7.77839 16.5849 7.70263 16.7242L7.65438 16.7257L7.65589 16.7831C7.50964 16.6397 7.42558 16.4438 7.42558 16.2355C7.42558 16.0073 7.52509 15.796 7.6966 15.6508H7.69697Z" fill="#204A8F"/>
<path d="M10.9499 14.7906C11.6668 14.7906 12.2503 14.1593 12.2503 13.3832C12.2503 12.607 11.6668 11.9758 10.9499 11.9758C10.2329 11.9758 9.64941 12.607 9.64941 13.3832C9.64941 14.1593 10.2329 14.7906 10.9499 14.7906ZM10.7565 14.1188C10.4825 14.0208 10.2902 13.7232 10.2902 13.3832C10.2902 13.179 10.3584 12.9876 10.4798 12.8442C10.6144 13.1197 10.8601 13.7052 10.7565 14.1188ZM11.0859 12.6307C11.3841 12.7046 11.6095 13.015 11.6095 13.3832C11.6095 13.5858 11.539 13.7799 11.4191 13.9225C11.4225 13.4473 11.2371 12.9531 11.0859 12.6307Z" fill="#204A8F"/>
<path d="M16.9917 6.25577C16.9868 6.23513 16.8715 5.74197 16.6423 5.09532C16.3592 4.29667 15.4847 4.21448 15.3886 4.2081L13.5322 4.01369V2.84237L12.5431 2.29367C12.3486 2.13717 12.1714 1.99005 12.1141 1.93675C12.044 1.84143 11.9384 1.81816 11.868 1.80239C11.4281 1.70519 11.1224 1.62262 10.9595 1.55732L8.82982 0.703125L7.14867 1.0683C6.91798 0.964713 6.29302 0.747036 5.06721 0.717011C4.15162 0.694493 3.63295 1.09569 3.35929 1.4361C3.06302 1.80502 2.98687 2.18708 2.98386 2.20322L2.9782 2.23287V5.29123L2.42184 5.49352L0 5.95064V9.11484L0.0614412 9.19891C0.0799113 9.22406 0.508869 9.80053 1.29592 9.97917L1.58353 15.3847C1.59333 15.6399 1.64987 16.5012 1.96424 16.8585L2.25373 17.188L4.37288 18.6574C4.5312 18.8139 5.06494 19.2965 5.61679 19.2965C5.70386 19.2965 5.78867 19.2841 5.8682 19.2597C5.91683 19.2447 5.96545 19.2248 6.01257 19.1997C7.57989 18.8067 12.7323 17.5213 13.9121 17.2991C13.9392 17.2939 13.966 17.2886 13.9928 17.283C15.1021 17.0492 15.9069 16.0505 15.9069 14.9081V8.05198L17 7.83055V6.29142L16.9917 6.25614V6.25577ZM15.2661 8.20173V14.9088C15.2661 15.7514 14.6747 16.4877 13.8597 16.6596C13.8378 16.6641 13.8156 16.6686 13.793 16.6731C12.7142 16.8762 8.46494 17.9296 6.54783 18.4085C6.56479 18.3444 6.57949 18.2772 6.59155 18.2081L6.59645 18.1803V10.4036L15.2661 8.2021V8.20173ZM5.95565 10.4423V14.3196L4.66727 13.8354L4.55532 10.2926L5.95565 10.4419V10.4423ZM9.27273 6.9407V3.54644L12.3312 2.90654L12.8914 3.2173V6.11878L9.27273 6.9407ZM9.90335 8.90505C9.90486 8.89116 9.90599 8.8769 9.90749 8.86301C9.95235 8.37024 9.89505 8.11315 9.70922 7.97504C9.59086 7.88759 9.35377 7.75661 9.15399 7.6519L9.17095 7.61812L13.5322 6.62732V4.65471L15.3286 4.84312L15.3422 4.84424C15.3645 4.84574 15.8873 4.88177 16.038 5.30737C16.2201 5.82116 16.3275 6.23663 16.3592 6.36498V7.30887L15.9069 7.40045V7.38018L9.90335 8.90467V8.90505ZM2.92016 10.4434C2.81876 10.3564 2.75242 10.2423 2.71925 10.097L3.91188 10.2242L3.92583 10.6649C3.69741 10.6799 3.19721 10.6814 2.92053 10.4434H2.92016ZM2.06111 10.0268C2.09616 10.4029 2.24392 10.7054 2.50175 10.9264C2.86889 11.2417 3.38153 11.3081 3.74679 11.3081C3.812 11.3081 3.87871 11.3059 3.94581 11.3017L3.98124 12.4262C2.94126 13.7108 3.15951 15.1828 3.38379 15.9484C3.3902 15.9698 3.39661 15.9916 3.40302 16.0126L2.36794 16.2772C2.28803 16.0396 2.2345 15.6388 2.22319 15.3554L1.90694 9.41246L1.63064 9.38731C1.12215 9.34115 0.780266 9.04166 0.640421 8.89341V8.16682L4.58585 8.81572C4.70195 8.84688 5.26133 8.98874 5.86443 8.98874C6.11284 8.98874 6.33863 8.96434 6.53727 8.91593C6.55348 8.96772 6.56705 9.02327 6.57723 9.08107C6.60286 9.22706 6.69031 9.35579 6.81659 9.43423C6.94211 9.51192 7.09891 9.53331 7.24102 9.4924C7.5094 9.41471 7.99188 9.2751 8.20825 9.21542C8.43064 9.15387 8.57652 8.93732 8.54787 8.71101C8.5147 8.44943 8.34885 7.96866 7.61758 7.6474L7.65151 5.6564C7.7612 4.74479 7.70353 3.44886 6.81093 2.44417C6.31789 1.88947 5.66466 1.55995 5.25455 1.48301C5.20366 1.43685 5.14976 1.39406 5.09284 1.35541C6.42834 1.39406 6.93193 1.67254 6.93457 1.67366L7.04539 1.7431L7.07856 1.73597C8.30135 2.24413 8.58368 3.14336 8.63193 3.34152V7.26496L8.29494 7.93338L8.58217 8.07637C8.72013 8.14505 9.09934 8.33909 9.27574 8.45205C9.29007 8.55113 9.27989 8.79095 9.2373 9.07393L6.25306 9.83168L2.01361 9.37943L1.94539 10.0137L2.06149 10.0261L2.06111 10.0268ZM4.81315 3.41583C4.91907 4.10414 5.0559 4.77143 5.05741 4.77781L5.08945 4.93394L6.88594 5.78026C6.68277 6.08463 6.30922 6.51585 5.83654 6.49671C5.22854 6.47269 4.75284 6.01369 4.57605 5.81779C4.51348 5.74835 4.43922 5.66616 4.36157 5.58585C4.13805 5.35466 3.61863 4.74704 3.61863 4.10339V2.2993C3.64237 2.2081 3.72982 1.93863 3.97672 1.70932C4.12599 1.69843 4.43998 1.70069 4.70384 1.86507C4.65634 2.13416 4.69064 2.61831 4.81353 3.41583H4.81315ZM7.04991 5.15199L5.65335 4.49408C5.4302 3.3798 5.32956 2.54325 5.32315 2.16531C5.52557 2.24188 5.96282 2.44567 6.34692 2.8859C6.84976 3.46237 7.08572 4.22424 7.04991 5.15199ZM6.92401 8.27679L7.27532 8.19797C7.40951 8.24939 7.74461 8.39839 7.86863 8.64909C7.66018 8.70801 7.37747 8.78983 7.18222 8.84612C7.12869 8.6262 7.04237 8.43516 6.92401 8.27716V8.27679ZM5.81091 7.13473C5.83013 7.13548 5.84898 7.13586 5.86783 7.13586C6.26211 7.13586 6.64847 6.96584 6.99412 6.64271L6.97754 7.61062L6.24175 7.77613C6.08344 7.81178 5.96809 7.94351 5.95452 8.10415C5.94698 8.19347 5.97186 8.27941 6.02124 8.34884C5.85162 8.35785 5.66353 8.35147 5.45922 8.32933C5.0608 8.28654 4.74568 8.19872 4.74228 8.19797L4.72494 8.19309L0.640798 7.5213V6.47982L2.58581 6.1124L3.61863 5.73822V5.70407C3.72568 5.84143 3.82594 5.95177 3.89982 6.02833C3.97031 6.10114 4.04004 6.17808 4.09885 6.24338C4.32953 6.50009 4.95865 7.10058 5.81091 7.13436V7.13473ZM9.17095 2.91593C8.93009 2.26327 8.4461 1.81365 8.02996 1.52992L8.77328 1.36854L10.7202 2.14918C10.9573 2.24413 11.3335 2.33608 11.6256 2.40213L9.17095 2.91593ZM5.53047 16.4862C5.50823 16.5335 5.48599 16.5789 5.46412 16.6228C5.06118 16.2952 4.81805 15.3656 4.71665 14.5361L4.97184 14.6322C4.94282 15.0826 4.95789 16.0317 5.53047 16.4862ZM4.98843 17.2665C4.96468 17.2796 4.94659 17.2845 4.93565 17.2811C4.77621 17.2334 4.28016 16.7309 3.99896 15.7698C3.86665 15.3175 3.71098 14.4795 4.01969 13.6354L4.04004 14.2817L4.04758 14.2847C4.06945 14.5493 4.12146 15.0229 4.23982 15.5187C4.43244 16.326 4.72721 16.878 5.11659 17.1614C5.07135 17.2094 5.02838 17.2447 4.9888 17.2665H4.98843ZM3.6322 16.6131C3.94468 17.2909 4.37024 17.7784 4.75133 17.8925C4.93 17.9458 5.12073 17.9225 5.29752 17.8253C5.51953 17.7033 5.74004 17.4466 5.95528 17.0597V18.1233C5.91042 18.359 5.83843 18.5298 5.75135 18.6074L5.56213 18.6551C5.32353 18.6206 4.98013 18.3646 4.80938 18.1901L4.78789 18.168L2.83798 16.8157L3.6322 16.6127V16.6131ZM5.60397 14.8698L5.95528 15.0019V15.3472C5.9108 15.5014 5.85727 15.6665 5.79772 15.8324C5.6884 15.6557 5.64129 15.4196 5.62093 15.2379C5.60812 15.1224 5.60246 14.9993 5.60397 14.8701V14.8698Z" fill="#204A8F"/>
</g>
<defs>
<clipPath id="clip0_850_12604">
<rect width="17" height="18.5938" fill="white" transform="translate(0 0.703125)"/>
</clipPath>
</defs>
</svg>
