<svg width="22" height="14" viewBox="0 0 22 14" fill="none" xmlns="http://www.w3.org/2000/svg">
<path d="M22 7.51982C21.9171 7.94569 21.8745 8.38463 21.7448 8.79481C20.9163 11.4075 19.1641 12.9558 16.4905 13.4092C16.1674 13.4641 15.8348 13.478 15.5066 13.4785C11.8259 13.4833 8.14473 13.4837 4.46402 13.4806C2.38305 13.4789 0.682344 12.1904 0.15168 10.2219C0.089375 9.99264 0.0498437 9.75725 0 9.52536C0 9.23462 0 8.94388 0 8.65358C0.0855078 8.30399 0.141367 7.94307 0.26168 7.60613C0.716719 6.33376 1.57309 5.43583 2.82004 4.95765C6.34176 3.60683 9.8682 2.26733 13.3964 0.933939C17.2502 -0.522374 21.3933 2.00144 21.9476 6.13325C21.963 6.24702 21.9824 6.36035 22 6.47368V7.51982ZM10.0293 12.7527C11.9264 12.7527 13.8239 12.7688 15.721 12.7492C19.1825 12.713 21.8002 9.50749 21.2171 6.04084C20.613 2.44953 16.9864 0.335896 13.6198 1.61524C10.1196 2.94558 6.61934 4.27636 3.11953 5.60844C1.35137 6.28146 0.383711 8.10653 0.814258 9.94992C1.18809 11.5505 2.63055 12.7388 4.25176 12.7501C6.17762 12.7632 8.10348 12.7531 10.0293 12.7531V12.7527Z" fill="#204A8F"/>
<path d="M10.187 12.0389C8.26805 12.0389 6.34949 12.0402 4.43051 12.038C3.45555 12.0372 2.64258 11.671 2.03629 10.8886C0.843478 9.34815 1.4416 7.05798 3.24844 6.3405C5.1382 5.5899 7.04602 4.88506 8.94695 4.16192C10.6468 3.51549 12.3372 2.8416 14.0499 2.23266C17.0259 1.17432 20.2116 3.2448 20.5472 6.42332C20.8398 9.19472 18.9926 11.6008 16.2641 11.9945C16.017 12.0302 15.7644 12.0367 15.5143 12.0372C13.7388 12.0407 11.9629 12.0389 10.1875 12.0389H10.187ZM19.8688 7.00262C19.8735 4.61786 17.9953 2.6873 15.6621 2.67945C13.2765 2.67117 11.3618 4.59171 11.3519 7.00262C11.3425 9.36298 13.2636 11.3092 15.6067 11.314C17.9764 11.3188 19.8636 9.40962 19.8683 7.00262H19.8688ZM5.09524 6.3963C6.13809 6.7947 6.80195 7.49169 7.02797 8.55527C7.25356 9.61536 6.93 10.5264 6.16473 11.2966H9.9275C9.93652 11.2813 9.94598 11.2656 9.955 11.2504C9.87336 11.1806 9.79516 11.1057 9.70879 11.042C9.57473 10.9426 9.5627 10.8389 9.64863 10.6929C9.75434 10.5129 9.84629 10.3219 9.92235 10.1271C9.95371 10.0465 9.955 9.93269 9.92449 9.85161C9.79258 9.49985 9.64949 9.152 9.49695 8.80896C9.46172 8.72962 9.38395 8.64768 9.30574 8.61368C9.1025 8.52563 8.89067 8.45501 8.67797 8.39442C8.54219 8.35563 8.50395 8.28502 8.50953 8.14684C8.5207 7.86394 8.51297 7.58018 8.51297 7.29685C8.51297 6.75286 8.51297 6.20886 8.51297 5.66269C8.7927 5.56636 9.05781 5.47962 9.31949 5.38241C9.38051 5.35975 9.45613 5.31398 9.47805 5.25949C9.55281 5.07555 9.60653 4.88288 9.68172 4.6523C8.14172 5.23813 6.63953 5.80959 5.09524 6.39673V6.3963ZM3.96 7.00132C3.50625 6.89452 3.12426 7.15126 2.78352 7.49605C2.35899 7.92541 2.13813 8.44847 2.13383 9.05829C2.12524 10.2862 3.10278 11.3071 4.28742 11.3127C5.42223 11.3179 6.3886 10.3368 6.38688 9.16464C6.38516 7.96202 5.4218 6.90586 3.96 7.00132ZM13.0307 11.3145C10.4968 9.70602 9.89485 6.28602 11.666 3.92174C11.6596 3.91869 11.6518 3.91215 11.6467 3.91346C10.7267 4.15276 10.5531 4.31143 10.242 5.21329C10.1647 5.43821 10.16 5.72633 10.0139 5.87846C9.86692 6.03146 9.58719 6.05674 9.3616 6.12605C9.24817 6.16092 9.22625 6.22761 9.2284 6.3344C9.23399 6.5955 9.22797 6.85703 9.23098 7.11857C9.23356 7.35003 9.16352 7.63554 9.27137 7.79682C9.37149 7.94676 9.6611 7.97553 9.87336 8.03656C10.0087 8.07579 10.0547 8.15599 10.1011 8.2824C10.2747 8.75621 10.4466 9.23308 10.664 9.68641C10.7624 9.89215 10.7813 10.036 10.6734 10.2391C10.4088 10.7382 10.4173 10.7469 10.829 11.1541C10.8999 11.2242 11.0009 11.3057 11.0894 11.3075C11.7184 11.3206 12.3475 11.3145 13.0307 11.3145Z" fill="#204A8F"/>
<path d="M18.4477 6.99612C18.4477 8.5893 17.178 9.87606 15.607 9.87475C14.0442 9.87344 12.7642 8.56838 12.7715 6.98479C12.7788 5.40599 14.0516 4.11924 15.6075 4.11749C17.1797 4.11619 18.4477 5.40119 18.4477 6.99568V6.99612ZM15.6109 4.83759C14.4353 4.83889 13.4852 5.80875 13.4882 7.00397C13.4912 8.18872 14.4344 9.14724 15.6049 9.15465C16.7736 9.16207 17.7413 8.18654 17.7426 6.99874C17.7443 5.81006 16.7831 4.83584 15.6105 4.83715L15.6109 4.83759Z" fill="#204A8F"/>
<path d="M15.9659 3.39737C15.9651 3.59047 15.8001 3.75741 15.611 3.75611C15.422 3.75524 15.257 3.58611 15.2578 3.39475C15.2587 3.20383 15.4258 3.03514 15.6136 3.03601C15.8035 3.03689 15.9672 3.20427 15.9664 3.39737H15.9659Z" fill="#204A8F"/>
<path d="M15.966 10.5913C15.9686 10.7835 15.8061 10.954 15.6171 10.957C15.4302 10.9601 15.2609 10.7927 15.2579 10.6013C15.2548 10.4095 15.4173 10.24 15.6072 10.2369C15.7967 10.2334 15.9634 10.3982 15.966 10.5913Z" fill="#204A8F"/>
<path d="M13.1029 4.81097C12.9104 4.81009 12.7545 4.64881 12.7549 4.45005C12.7549 4.25215 12.913 4.09087 13.1051 4.09131C13.2967 4.09218 13.4544 4.2552 13.4536 4.45179C13.4527 4.64925 13.2946 4.8114 13.1029 4.81053V4.81097Z" fill="#204A8F"/>
<path d="M13.4528 9.53127C13.458 9.72873 13.3059 9.89481 13.1138 9.90135C12.9221 9.90745 12.7597 9.74922 12.755 9.55176C12.7503 9.35256 12.9011 9.18779 13.0936 9.18169C13.2844 9.17559 13.4481 9.33469 13.4532 9.53127H13.4528Z" fill="#204A8F"/>
<path d="M18.1187 4.09089C18.3078 4.08958 18.4736 4.25566 18.4753 4.44788C18.4771 4.63924 18.3129 4.80924 18.1251 4.81142C17.9339 4.8136 17.7732 4.65145 17.7715 4.45442C17.7694 4.2574 17.9271 4.0922 18.1187 4.09089Z" fill="#204A8F"/>
<path d="M12.0751 6.6426C12.274 6.64783 12.4257 6.81172 12.4171 7.01136C12.4085 7.21056 12.2448 7.35964 12.045 7.34961C11.8551 7.34002 11.7137 7.18659 11.7158 6.99131C11.718 6.78775 11.8735 6.63693 12.0751 6.64216V6.6426Z" fill="#204A8F"/>
<path d="M18.4757 9.54038C18.4766 9.73304 18.3138 9.90043 18.1238 9.90173C17.9322 9.90304 17.7723 9.74002 17.7715 9.543C17.7711 9.34684 17.9305 9.18208 18.1213 9.18164C18.309 9.18121 18.4749 9.34902 18.4757 9.54038Z" fill="#204A8F"/>
<path d="M19.171 6.64257C19.3708 6.64736 19.5182 6.80734 19.5109 7.0109C19.5036 7.21272 19.3433 7.35961 19.1418 7.34958C18.9501 7.33999 18.8114 7.18874 18.8135 6.99215C18.8156 6.78685 18.9682 6.63777 19.1714 6.64257H19.171Z" fill="#204A8F"/>
<path d="M5.67383 9.14767C5.67684 9.94666 5.04648 10.5927 4.26102 10.5961C3.48242 10.5992 2.83703 9.94535 2.83789 9.15378C2.83875 8.36917 3.46738 7.72841 4.24426 7.71969C5.03102 7.71097 5.67125 8.35043 5.67426 9.14767H5.67383ZM4.26531 9.8743C4.65332 9.87038 4.97344 9.53998 4.96785 9.14854C4.96227 8.75406 4.63828 8.43281 4.25027 8.43673C3.85926 8.44066 3.54945 8.76409 3.55289 9.1638C3.55676 9.56308 3.87258 9.87823 4.26531 9.8743Z" fill="#204A8F"/>
<path d="M17.0275 6.99132C17.0301 7.78857 16.4006 8.43325 15.6181 8.435C14.8374 8.43674 14.1963 7.79206 14.1924 7.00135C14.1885 6.21326 14.8288 5.56029 15.6082 5.55811C16.3928 5.5555 17.0249 6.19408 17.0275 6.99132ZM14.9074 7.00048C14.9091 7.39845 15.2258 7.71665 15.6177 7.71403C16.0061 7.71142 16.3267 7.38363 16.3241 6.99176C16.3215 6.59859 15.9979 6.27559 15.6091 6.27864C15.2163 6.28169 14.9057 6.6012 14.9074 7.00048Z" fill="#204A8F"/>
</svg>
