<svg width="19" height="20" viewBox="0 0 19 20" fill="none" xmlns="http://www.w3.org/2000/svg">
<path d="M0.000848214 13.9267C0.000848214 13.5323 0.000848214 13.1388 0.000848214 12.7444C0.0245982 12.6642 0.0610714 12.5865 0.07125 12.5046C0.244286 11.1121 0.863482 9.94089 1.84911 8.95373C4.07143 6.73031 6.29545 4.50858 8.52286 2.28938C9.30746 1.50742 10.2405 0.975422 11.3152 0.696756C11.6121 0.619911 11.9149 0.565022 12.2151 0.5C12.6392 0.5 13.0633 0.5 13.4875 0.5C13.5367 0.521956 13.5842 0.556578 13.6359 0.565022C16.3137 0.993156 18.0118 2.53004 18.793 5.09378C18.8897 5.41213 18.9321 5.74653 19 6.07333V7.25556C18.9796 7.30622 18.9457 7.3552 18.9398 7.40671C18.7625 8.8904 18.0831 10.1098 17.0254 11.156C14.8633 13.2959 12.7198 15.4543 10.5704 17.6059C9.87321 18.3034 9.07589 18.8523 8.12929 19.1445C7.60933 19.3049 7.06478 19.3843 6.53125 19.5H5.76786C5.68728 19.4772 5.60839 19.4434 5.52696 19.4341C3.28513 19.1825 1.65147 18.0298 0.651429 16.0445C0.32317 15.3935 0.211205 14.6352 0 13.9258L0.000848214 13.9267ZM12.2236 14.3565C12.3466 14.2433 12.4102 14.1901 12.4679 14.1319C13.764 12.8365 15.055 11.5369 16.3561 10.2466C17.1628 9.44689 17.6513 8.49858 17.8329 7.37716C18.1679 5.3032 17.0856 3.17604 15.1627 2.17538C13.255 1.18231 10.8741 1.52347 9.36513 3.01813C8.03344 4.33716 6.71192 5.66631 5.38786 6.99209C5.31745 7.06302 5.26062 7.14831 5.16987 7.26231C9.15478 6.67373 12.7453 9.95947 12.2236 14.3565ZM1.10946 13.3237C1.10353 16.0876 3.37335 18.3769 6.12241 18.3794C8.91134 18.3828 11.1922 16.0842 11.1888 13.2756C11.1854 10.5979 8.92152 8.33982 6.21147 8.31111C3.42679 8.28156 1.11455 10.5523 1.10946 13.3229V13.3237Z" fill="#204A8F"/>
<path d="M3.29689 13.3516V13.3516C3.29113 11.7881 4.54826 10.5174 6.11985 10.5052V10.5052C7.71376 10.4925 8.99856 11.7603 9.00288 13.3311C9.00637 14.8881 7.75321 16.1615 6.1736 16.189C4.62212 16.2155 3.30267 14.9199 3.29689 13.3516Z" stroke="#204A8F"/>
</svg>
