<svg width="22" height="20" viewBox="0 0 22 20" fill="none" xmlns="http://www.w3.org/2000/svg">
<g clip-path="url(#clip0_850_12570)">
<path d="M13.5115 2.75319C12.2991 2.00527 10.6959 1.59326 8.99709 1.59326C7.29825 1.59326 5.69505 2.00527 4.48266 2.75319C3.20678 3.54039 2.50391 4.60826 2.50391 5.76001C2.50391 6.91175 3.20678 7.97963 4.48266 8.76682C5.69505 9.51474 7.29825 9.92675 8.99709 9.92675C10.6959 9.92675 12.2991 9.51474 13.5115 8.76682C14.7874 7.97963 15.4903 6.91175 15.4903 5.76001C15.4903 4.60826 14.7874 3.54039 13.5115 2.75319ZM7.71008 8.01277C8.43439 7.80574 9.16735 7.7546 9.88877 7.86179C10.5719 7.96285 11.2512 8.20793 11.9141 8.59171C11.0373 8.91002 10.0376 9.07696 8.99668 9.07696C8.02998 9.07696 7.09172 8.9313 6.25859 8.6539C6.6061 8.44237 7.10656 8.18584 7.71008 8.01318V8.01277ZM7.45326 7.20102C6.42307 7.49929 5.67073 7.99395 5.31662 8.25989C5.18346 8.19156 5.05567 8.11914 4.93488 8.04468C3.91995 7.41828 3.36095 6.60735 3.36095 5.76001C3.36095 4.91267 3.91995 4.10174 4.93488 3.47574C6.0133 2.81047 7.45614 2.44388 8.99709 2.44388C10.538 2.44388 11.9809 2.81047 13.0593 3.47574C14.0742 4.10215 14.6332 4.91307 14.6332 5.76001C14.6332 6.60694 14.0742 7.41828 13.0593 8.04427C12.9905 8.08682 12.9187 8.12896 12.8449 8.16988C11.9302 7.54716 10.9746 7.16011 10.003 7.01813C9.15663 6.89457 8.29876 6.95594 7.45367 7.20061L7.45326 7.20102Z" fill="#204A8F"/>
<path d="M19.9203 14.92L19.8893 14.5407L18.2837 13.5142L17.7737 13.711L17.6933 13.6128L16.9686 12.2053C17.0622 12.0912 17.1488 11.9758 17.2279 11.8604C17.7148 11.1501 17.9617 10.3912 17.9617 9.60518L17.7609 5.74775C17.7585 4.97364 17.5091 4.22695 17.0206 3.52772C16.5605 2.86981 15.9079 2.28269 15.0801 1.78189C13.4172 0.776213 11.2154 0.222229 8.88047 0.222229C6.54554 0.222229 4.34336 0.776213 2.6808 1.78189C1.85343 2.28269 1.20044 2.86981 0.740383 3.52772C0.248993 4.23064 0 4.98183 0 5.76043C0 6.02024 0.0288568 6.28209 0.0861581 6.53904L0.359473 10.1665L0.364008 10.2034C0.59445 11.6022 1.63082 12.8829 3.28308 13.8092C4.8937 14.7121 6.97304 15.2097 9.13812 15.2097C10.5072 15.2097 11.8585 15.01 13.0688 14.6307L13.1818 14.6962V15.4093L13.5017 15.4924C14.0594 15.6372 15.3576 15.9723 15.5736 16.01L15.4318 17.6506L17.0605 18.6526L17.4979 18.3634L19.4825 19.7778L19.9738 19.3592L20.3613 19.4075L22 17.865V16.1552L19.9203 14.9196V14.92ZM14.6337 9.01233C13.1035 9.93782 11.0604 10.4476 8.88047 10.4476C7.0258 10.4476 5.28162 10.0831 3.8363 9.39365C2.47344 8.74352 1.49561 7.84258 1.08295 6.85695C0.933311 6.49935 0.857459 6.13071 0.857459 5.76043C0.857459 4.54895 1.6638 3.39393 3.12725 2.50854C4.65749 1.58305 6.70055 1.07325 8.88047 1.07325C11.0604 1.07325 13.1035 1.58305 14.6337 2.50854C16.0976 3.39393 16.9035 4.54895 16.9035 5.76043C16.9035 6.97192 16.0971 8.12694 14.6337 9.01233ZM3.9204 10.3625C5.3888 10.9746 7.10372 11.2982 8.88006 11.2982C11.215 11.2982 13.4168 10.7442 15.0793 9.73856C15.9067 9.23818 16.5593 8.65105 17.0193 7.99314L17.1042 9.61541C17.0997 10.8424 16.2983 12.0106 14.8476 12.9058C13.3289 13.8427 11.3016 14.3586 9.13812 14.3586C7.11814 14.3586 5.18845 13.9004 3.70439 13.0682C2.29082 12.2757 1.40615 11.216 1.2124 10.0835L1.08831 8.43584C1.76521 9.2079 2.73109 9.86662 3.9204 10.3625ZM14.0388 14.2752C14.4886 14.0849 14.9124 13.8677 15.3003 13.6283C15.6841 13.3914 16.0332 13.1328 16.3416 12.8571L16.9711 14.0792L17.0597 14.1876L15.9693 15.2539C15.8787 15.2097 15.7917 15.1814 15.7096 15.1696C15.6301 15.1569 14.9247 14.9805 14.0392 14.7518V14.2752H14.0388ZM21.143 17.1339V17.4988L20.4339 18.1662C20.4384 18.0872 20.4446 18.0005 20.4533 17.9047C20.4698 17.7181 20.7006 17.4489 21.0704 17.1842C21.0943 17.167 21.1186 17.1502 21.1434 17.1335L21.143 17.1339ZM19.567 18.5843L19.4355 18.6964L18.6728 18.1527L18.9762 17.944L17.7486 17.1744L17.521 17.325C17.54 17.0668 17.5635 16.8671 17.589 16.7464C17.6105 16.6458 17.7259 16.494 17.8949 16.3397L19.6276 17.6629C19.614 17.7186 19.6049 17.7742 19.5999 17.8298C19.5748 18.1146 19.5641 18.3675 19.5678 18.5839L19.567 18.5843ZM16.7497 16.5717C16.7052 16.782 16.6755 17.1012 16.6561 17.4027L16.3309 17.2026L16.4352 15.9924L17.8751 14.5841L18.1864 14.4638L19.0686 15.028L19.1011 15.4249L20.7233 16.3888C20.6722 16.4224 20.6227 16.4563 20.5745 16.4907C20.3745 16.6331 20.2035 16.7787 20.0641 16.9248L17.9052 15.2759L17.6492 15.447C17.5206 15.5329 16.8726 15.9911 16.7493 16.5721L16.7497 16.5717Z" fill="#204A8F"/>
</g>
<defs>
<clipPath id="clip0_850_12570">
<rect width="22" height="19.5556" fill="white" transform="translate(0 0.222229)"/>
</clipPath>
</defs>
</svg>
