<svg width="38" height="38" viewBox="0 0 38 38" fill="none" xmlns="http://www.w3.org/2000/svg">
<rect opacity="0.2" x="0.5" y="0.499756" width="37" height="37" rx="18.5" fill="#828E9B" stroke="#828E9B"/>
<g clip-path="url(#clip0_614_10047)">
<path d="M9.01478 28.9883V28.1414C9.01478 22.0742 9.02657 16.0069 9.00004 9.93969C8.99709 9.2323 9.1489 8.96939 9.92412 9.0028C11.6809 9.07978 13.4509 8.95341 15.1989 9.10012C18.1863 9.3485 19.7367 10.9085 19.8281 13.8586C19.9342 17.2982 19.943 20.7466 19.8237 24.1847C19.7161 27.267 17.8591 28.9287 14.739 28.9839C12.8644 29.0173 10.9882 28.9897 9.01625 28.9897L9.01478 28.9883ZM12.8481 25.4862C14.9866 25.9016 15.9402 25.2582 16.0507 23.1897C16.1495 21.3436 16.1097 19.4887 16.1052 17.6367C16.1023 16.5081 16.0831 15.3765 16.0065 14.2508C15.9534 13.4694 15.6528 12.7358 14.7729 12.5775C14.1495 12.4657 13.4892 12.5557 12.8481 12.5557V25.4877V25.4862Z" fill="white"/>
</g>
<g clip-path="url(#clip1_614_10047)">
<path d="M25.3767 11.8773C24.9315 11.8963 24.5734 12.1052 24.3025 12.5041C24.0315 12.903 23.896 13.6152 23.896 14.6408L20.8184 14.299C20.8184 12.6086 21.2345 11.3043 22.0668 10.3832C22.8991 9.46199 24.0121 8.99982 25.4058 8.99982C27.0123 8.99982 28.164 9.424 28.8608 10.2692C29.5576 11.1144 29.906 12.2508 29.906 13.6785C29.9254 14.5522 29.8351 15.3341 29.6318 16.0179C29.4286 16.7016 29.1221 17.436 28.7189 18.2148L24.6251 26.1192H29.706V28.9967H20.9926V26.3154C21.8636 24.6978 22.7217 23.0866 23.5605 21.4784C24.4025 19.8703 25.2477 18.2591 26.1026 16.6415C26.3736 16.1476 26.5413 15.657 26.6123 15.1727C26.68 14.6883 26.7155 14.1787 26.7155 13.6469C26.7155 13.4759 26.7026 13.286 26.6736 13.0771C26.6445 12.8681 26.58 12.6782 26.4865 12.5073C26.3897 12.3363 26.2542 12.1875 26.08 12.0641C25.9058 11.9406 25.6735 11.8773 25.3832 11.8773H25.3767Z" fill="white"/>
</g>
<defs>
<clipPath id="clip0_614_10047">
<rect width="10.9091" height="20" fill="white" transform="translate(9 8.99982)"/>
</clipPath>
<clipPath id="clip1_614_10047">
<rect width="9.09091" height="20" fill="white" transform="translate(20.8184 8.99982)"/>
</clipPath>
</defs>
</svg>
