<svg width="38" height="38" viewBox="0 0 38 38" fill="none" xmlns="http://www.w3.org/2000/svg">
<rect opacity="0.2" x="0.5" y="0.499756" width="37" height="37" rx="18.5" fill="#828E9B" stroke="#828E9B"/>
<path d="M8 11.8648C8.34002 11.8648 8.62136 11.8648 8.9027 11.8648C13.3023 11.8648 17.7036 11.8648 22.1032 11.8648C22.3051 11.8648 22.5053 11.8648 22.7073 11.8734C25.8193 12.0134 27.1241 13.3335 27.2052 16.4402C27.2208 17.045 27.2225 17.6497 27.2052 18.2545C27.1207 21.2679 26.1972 22.1578 23.893 22.7936C25.1392 24.4921 26.3664 26.1664 27.7092 27.9997C26.1506 27.9997 24.7802 28.0239 23.4132 27.9755C23.2061 27.9686 22.9679 27.6559 22.816 27.4364C21.8857 26.0869 20.9588 24.7323 20.0665 23.3569C19.7886 22.9267 19.4917 22.7383 18.9601 22.7452C16.6663 22.7763 14.3707 22.7591 11.9922 22.7591V27.9513H8V11.8648ZM11.9905 19.1875C12.384 19.1875 12.6947 19.1875 13.0054 19.1875C15.6773 19.1875 18.3491 19.1875 21.021 19.1875C23.1336 19.1875 23.1854 19.134 23.1733 17.0156C23.1647 15.7059 22.9282 15.4605 21.6113 15.4588C18.6512 15.4519 15.6928 15.4553 12.7327 15.4588C12.4876 15.4588 12.2442 15.4951 11.9905 15.5141V19.1893V19.1875Z" fill="white"/>
<path d="M27.7623 12.04C28.6018 12.04 29.2824 11.3595 29.2824 10.5199C29.2824 9.6804 28.6018 8.99982 27.7623 8.99982C26.9228 8.99982 26.2422 9.6804 26.2422 10.5199C26.2422 11.3595 26.9228 12.04 27.7623 12.04Z" fill="white"/>
</svg>
