<svg width="38" height="38" viewBox="0 0 38 38" fill="none" xmlns="http://www.w3.org/2000/svg">
<path opacity="0.2" d="M0.5 18.9998C0.5 8.78249 8.78273 0.499756 19 0.499756C29.2173 0.499756 37.5 8.78249 37.5 18.9998C37.5 29.217 29.2173 37.4998 19 37.4998C8.78273 37.4998 0.5 29.217 0.5 18.9998Z" fill="#828E9B" stroke="#828E9B"/>
<g clip-path="url(#clip0_614_10057)">
<path d="M18.675 25.7434C18.0121 26.3802 17.3584 27.0064 16.7078 27.6342C15.8141 28.4963 14.889 28.2954 14.4914 27.0861C14.0292 25.6816 13.617 24.256 13.2432 22.8222C13.0809 22.2001 12.8194 21.8488 12.2027 21.6764C11.2398 21.408 10.3016 21.0355 9.36486 20.6712C9.04801 20.5484 8.73039 20.363 8.48044 20.1263C7.79983 19.4838 7.84598 18.4778 8.5958 17.9281C8.97879 17.6467 9.43023 17.4613 9.86474 17.2677C15.0774 14.9434 20.2916 12.6249 25.5065 10.3063C25.6719 10.2331 25.8364 10.1566 26.0072 10.0989C27.2023 9.69553 28.1705 10.5657 27.9752 11.8816C27.8783 12.5362 27.7414 13.1844 27.6206 13.835C26.7801 18.3778 25.9426 22.9214 25.0966 27.4635C24.8367 28.8598 23.284 29.4649 22.2034 28.5971C21.1221 27.7294 20.0478 26.8511 18.9703 25.9768C18.8804 25.9036 18.7881 25.8329 18.675 25.7434ZM15.8457 26.2615C16.8124 25.3303 17.6906 24.4853 18.5866 23.6233C18.7219 23.7306 18.845 23.8258 18.9649 23.9226C20.2962 25.0017 21.6266 26.0834 22.9594 27.1609C23.3801 27.5009 23.5362 27.4374 23.6385 26.8885C24.4283 22.6262 25.2158 18.364 26.0041 14.1009C26.1502 13.3096 26.294 12.5183 26.4555 11.64C20.8584 14.1326 15.3389 16.5903 9.74938 19.0796C9.92934 19.1561 10.0309 19.2065 10.137 19.2439C11.3859 19.6888 12.6379 20.123 13.8823 20.5817C14.1376 20.6761 14.326 20.6533 14.556 20.502C17.4461 18.5974 20.3416 16.7025 23.2378 14.8084C23.4108 14.6954 23.5931 14.5929 23.7823 14.514C23.8438 14.488 23.9723 14.5279 24.0107 14.5832C24.0499 14.6409 24.0492 14.7792 24.0084 14.8377C23.9038 14.989 23.7731 15.1224 23.6423 15.2509C21.3198 17.5426 18.9949 19.8311 16.6747 22.1261C16.5594 22.2399 16.4286 22.3904 16.404 22.5425C16.2102 23.742 16.0402 24.9456 15.8457 26.2615Z" fill="white"/>
</g>
<defs>
<clipPath id="clip0_614_10057">
<rect width="20" height="19" fill="white" transform="translate(8 9.99976)"/>
</clipPath>
</defs>
</svg>
