<svg width="38" height="38" viewBox="0 0 38 38" fill="none" xmlns="http://www.w3.org/2000/svg">
<path opacity="0.2" d="M19 37.4998C8.78273 37.4998 0.5 29.217 0.5 18.9998C0.5 8.78249 8.78273 0.499756 19 0.499756C29.2173 0.499756 37.5 8.78249 37.5 18.9998C37.5 29.217 29.2173 37.4998 19 37.4998Z" fill="#828E9B" stroke="#828E9B"/>
<path d="M30.5469 14.9714C30.7351 15.4952 30.1213 16.6983 28.7054 18.5808C28.5089 18.8427 28.2429 19.1905 27.9074 19.6243C27.58 20.0417 27.3549 20.3363 27.2321 20.5082C27.1094 20.6801 26.9825 20.8847 26.8516 21.122C26.7288 21.3512 26.6797 21.5231 26.7042 21.6377C26.737 21.7441 26.7902 21.8832 26.8638 22.0551C26.9457 22.227 27.0807 22.4029 27.269 22.583C27.4572 22.763 27.6905 22.9799 27.9688 23.2337C28.0015 23.25 28.0219 23.2664 28.0301 23.2828C29.1842 24.3549 29.9658 25.2593 30.375 25.9959C30.3996 26.0369 30.4241 26.0901 30.4487 26.1555C30.4814 26.2128 30.51 26.3192 30.5346 26.4747C30.5673 26.6302 30.5673 26.7694 30.5346 26.8921C30.5019 27.0149 30.3996 27.1295 30.2277 27.2359C30.0558 27.3341 29.8144 27.3832 29.5033 27.3832L26.3605 27.4323C26.1641 27.4732 25.9349 27.4528 25.673 27.3709C25.4111 27.2891 25.1983 27.1991 25.0346 27.1008L24.7891 26.9535C24.5435 26.7816 24.2571 26.5197 23.9297 26.1678C23.6023 25.8159 23.3199 25.5008 23.0826 25.2225C22.8534 24.936 22.6038 24.6987 22.3337 24.5104C22.0718 24.314 21.8426 24.2485 21.6462 24.314C21.6217 24.3222 21.5889 24.3386 21.548 24.3631C21.5071 24.3795 21.4375 24.4368 21.3393 24.535C21.2411 24.6332 21.151 24.756 21.0692 24.9033C20.9955 25.0424 20.926 25.2552 20.8605 25.5417C20.8032 25.82 20.7786 26.1351 20.7868 26.487C20.7868 26.6098 20.7705 26.7244 20.7377 26.8308C20.7132 26.929 20.6845 27.0026 20.6518 27.0517L20.6027 27.1131C20.4554 27.2686 20.2385 27.3587 19.952 27.3832H18.5402C17.9591 27.4159 17.3616 27.3505 16.7478 27.1868C16.1339 27.0149 15.5938 26.798 15.1272 26.5361C14.6689 26.266 14.2474 25.9959 13.8627 25.7258C13.4862 25.4476 13.1998 25.2102 13.0033 25.0138L12.6964 24.7191C12.6146 24.6373 12.5 24.5145 12.3527 24.3508C12.2135 24.1872 11.923 23.8148 11.481 23.2337C11.0391 22.6526 10.6053 22.0346 10.1797 21.3799C9.75409 20.7251 9.25074 19.8616 8.66964 18.7895C8.09673 17.7173 7.56473 16.6042 7.07366 15.4502C7.02455 15.3192 7 15.2087 7 15.1187C7 15.0287 7.01228 14.9632 7.03683 14.9223L7.08594 14.8486C7.20871 14.6931 7.44196 14.6153 7.78571 14.6153L11.1496 14.5908C11.2478 14.6072 11.3419 14.6358 11.4319 14.6767C11.5219 14.7095 11.5874 14.7422 11.6283 14.7749L11.6897 14.8118C11.8207 14.9018 11.9189 15.0328 11.9844 15.2046C12.1481 15.6139 12.3363 16.0395 12.5491 16.4814C12.7619 16.9152 12.9297 17.2467 13.0525 17.4758L13.2489 17.8319C13.4862 18.3229 13.7154 18.7485 13.9364 19.1087C14.1574 19.4688 14.3538 19.7511 14.5257 19.9558C14.7057 20.1522 14.8776 20.3077 15.0413 20.4223C15.205 20.5369 15.3441 20.5941 15.4587 20.5941C15.5733 20.5941 15.6838 20.5737 15.7902 20.5328C15.8065 20.5246 15.827 20.5041 15.8516 20.4714C15.8761 20.4386 15.9252 20.3486 15.9989 20.2013C16.0725 20.054 16.1257 19.8616 16.1585 19.6243C16.1994 19.3869 16.2403 19.0555 16.2812 18.6299C16.3222 18.2043 16.3222 17.6927 16.2812 17.0953C16.2649 16.7679 16.2281 16.4691 16.1708 16.1991C16.1135 15.929 16.0562 15.7407 15.9989 15.6343L15.9252 15.487C15.7206 15.2087 15.3728 15.0328 14.8817 14.9591C14.7753 14.9427 14.7958 14.8445 14.9431 14.6645C15.074 14.509 15.2295 14.3862 15.4096 14.2962C15.8434 14.0834 16.8214 13.9851 18.3438 14.0015C19.0149 14.0097 19.5673 14.0629 20.0011 14.1611C20.1648 14.202 20.2999 14.2593 20.4062 14.333C20.5208 14.3985 20.6068 14.4967 20.6641 14.6276C20.7214 14.7504 20.7623 14.8813 20.7868 15.0205C20.8196 15.1514 20.8359 15.3356 20.8359 15.5729C20.8359 15.8103 20.8318 16.0354 20.8237 16.2482C20.8155 16.461 20.8032 16.7515 20.7868 17.1198C20.7786 17.4799 20.7746 17.8155 20.7746 18.1265C20.7746 18.2165 20.7705 18.3884 20.7623 18.6421C20.7541 18.8959 20.75 19.0923 20.75 19.2314C20.7582 19.3706 20.7746 19.5383 20.7991 19.7348C20.8237 19.923 20.8687 20.0826 20.9342 20.2136C21.0078 20.3363 21.1019 20.4345 21.2165 20.5082C21.282 20.5246 21.3516 20.5409 21.4252 20.5573C21.4989 20.5737 21.6053 20.5287 21.7444 20.4223C21.8836 20.3159 22.0391 20.1767 22.2109 20.0049C22.3828 19.8248 22.5956 19.5506 22.8493 19.1823C23.1031 18.8058 23.3813 18.3639 23.6842 17.8564C24.1752 17.0052 24.6131 16.0845 24.9978 15.0941C25.0305 15.0123 25.0714 14.9427 25.1205 14.8854C25.1696 14.82 25.2147 14.7749 25.2556 14.7504L25.3047 14.7136C25.3211 14.7054 25.3415 14.6972 25.3661 14.689C25.3906 14.6726 25.4438 14.6604 25.5257 14.6522C25.6075 14.6358 25.6894 14.6317 25.7712 14.6399L29.3069 14.6153C29.6261 14.5744 29.888 14.5867 30.0926 14.6522C30.2972 14.7095 30.4241 14.7749 30.4732 14.8486L30.5469 14.9714Z" fill="white"/>
</svg>
