<svg width="38" height="38" viewBox="0 0 38 38" fill="none" xmlns="http://www.w3.org/2000/svg">
<rect opacity="0.2" x="0.5" y="0.499756" width="37" height="37" rx="18.5" fill="#828E9B" stroke="#828E9B"/>
<path d="M21.5893 23.2721V25.8625C21.5893 26.4108 21.4297 26.685 21.1105 26.685C20.9222 26.685 20.7381 26.595 20.558 26.4149V22.7196C20.7381 22.5396 20.9222 22.4495 21.1105 22.4495C21.4297 22.4495 21.5893 22.7237 21.5893 23.2721ZM25.7388 23.2844V23.8491H24.6339V23.2844C24.6339 22.7278 24.8181 22.4495 25.1864 22.4495C25.5547 22.4495 25.7388 22.7278 25.7388 23.2844ZM13.8795 20.608H15.1931V19.454H11.3627V20.608H12.6518V27.5935H13.8795V20.608ZM17.4152 27.5935H18.5078V21.5288H17.4152V26.1694C17.1696 26.5131 16.9364 26.685 16.7154 26.685C16.5681 26.685 16.4821 26.5991 16.4576 26.4272C16.4494 26.4027 16.4453 26.2594 16.4453 25.9975V21.5288H15.3527V26.329C15.3527 26.73 15.3854 27.0288 15.4509 27.2252C15.5491 27.528 15.7865 27.6794 16.1629 27.6794C16.5558 27.6794 16.9732 27.4298 17.4152 26.9306V27.5935ZM22.6819 25.7765V23.358C22.6819 22.7605 22.6451 22.3554 22.5714 22.1426C22.4323 21.6843 22.1417 21.4551 21.6998 21.4551C21.2906 21.4551 20.91 21.6761 20.558 22.1181V19.454H19.4654V27.5935H20.558V27.0042C20.9263 27.4544 21.3069 27.6794 21.6998 27.6794C22.1417 27.6794 22.4323 27.4544 22.5714 27.0042C22.6451 26.7832 22.6819 26.374 22.6819 25.7765ZM26.8315 25.6538V25.4942H25.7143C25.7143 25.9116 25.7061 26.1612 25.6897 26.2431C25.6324 26.5377 25.4688 26.685 25.1987 26.685C24.8222 26.685 24.6339 26.4027 24.6339 25.8379V24.7698H26.8315V23.5053C26.8315 22.8588 26.721 22.3841 26.5 22.0812C26.1808 21.6638 25.747 21.4551 25.1987 21.4551C24.6421 21.4551 24.2042 21.6638 23.885 22.0812C23.6559 22.3841 23.5413 22.8588 23.5413 23.5053V25.6292C23.5413 26.2758 23.66 26.7505 23.8973 27.0533C24.2165 27.4707 24.6585 27.6794 25.2232 27.6794C25.8125 27.6794 26.2545 27.4626 26.5491 27.0288C26.6964 26.8078 26.7824 26.5868 26.8069 26.3658C26.8233 26.2922 26.8315 26.0548 26.8315 25.6538ZM19.3672 14.4451V11.8669C19.3672 11.3022 19.1912 11.0198 18.8393 11.0198C18.4874 11.0198 18.3114 11.3022 18.3114 11.8669V14.4451C18.3114 15.018 18.4874 15.3044 18.8393 15.3044C19.1912 15.3044 19.3672 15.018 19.3672 14.4451ZM28.1942 23.6649C28.1942 25.5801 28.0878 27.0124 27.875 27.9618C27.7604 28.4447 27.5231 28.8498 27.1629 29.1772C26.8028 29.5046 26.3854 29.6928 25.9107 29.7419C24.4048 29.9138 22.1336 29.9998 19.0971 29.9998C16.0606 29.9998 13.7894 29.9138 12.2835 29.7419C11.8088 29.6928 11.3873 29.5046 11.019 29.1772C10.6589 28.8498 10.4256 28.4447 10.3192 27.9618C10.1064 27.0451 10 25.6129 10 23.6649C10 21.7498 10.1064 20.3175 10.3192 19.3681C10.4338 18.8852 10.6711 18.48 11.0312 18.1527C11.3914 17.8253 11.8129 17.6329 12.2958 17.5756C13.7935 17.412 16.0606 17.3301 19.0971 17.3301C22.1336 17.3301 24.4048 17.412 25.9107 17.5756C26.3854 17.6329 26.8028 17.8253 27.1629 18.1527C27.5312 18.48 27.7686 18.8852 27.875 19.3681C28.0878 20.2847 28.1942 21.717 28.1942 23.6649ZM15.942 7.99976H17.1942L15.7087 12.8982V16.2252H14.481V12.8982C14.3664 12.2925 14.1168 11.425 13.7321 10.2955C13.4293 9.45251 13.1633 8.68726 12.9342 7.99976H14.2355L15.1071 11.2286L15.942 7.99976ZM20.4844 12.0879V14.2364C20.4844 14.8993 20.3698 15.3822 20.1406 15.685C19.8296 16.1024 19.3958 16.3111 18.8393 16.3111C18.2909 16.3111 17.8612 16.1024 17.5502 15.685C17.3211 15.374 17.2065 14.8911 17.2065 14.2364V12.0879C17.2065 11.4332 17.3211 10.9544 17.5502 10.6515C17.8612 10.2341 18.2909 10.0254 18.8393 10.0254C19.3958 10.0254 19.8296 10.2341 20.1406 10.6515C20.3698 10.9544 20.4844 11.4332 20.4844 12.0879ZM24.5971 10.0991V16.2252H23.4799V15.55C23.0461 16.0574 22.6246 16.3111 22.2154 16.3111C21.8389 16.3111 21.5975 16.1597 21.4911 15.8569C21.4256 15.6605 21.3929 15.3536 21.3929 14.9361V10.0991H22.51V14.6047C22.51 14.8748 22.5141 15.018 22.5223 15.0344C22.5469 15.2144 22.6328 15.3044 22.7801 15.3044C23.0011 15.3044 23.2344 15.1285 23.4799 14.7765V10.0991H24.5971Z" fill="white"/>
</svg>
