<svg width="16" height="12" viewBox="0 0 16 12" fill="#204A8F" xmlns="http://www.w3.org/2000/svg">
    <path fill-rule="evenodd" clip-rule="evenodd"
        d="M0.924072 1.77458V9.9697C0.924072 10.4238 1.10505 10.8575 1.42261 11.1785C1.74358 11.4995 2.17724 11.677 2.63139 11.677H2.97285C3.427 11.677 3.86066 11.496 4.18163 11.1785C4.49919 10.8575 4.68017 10.4238 4.68017 9.9697V1.77458C4.68017 1.32043 4.49919 0.886772 4.18163 0.565797C3.86066 0.244821 3.427 0.0672607 2.97285 0.0672607H2.63139C2.17724 0.0672607 1.74358 0.248236 1.42261 0.565797C1.10505 0.886772 0.924072 1.32043 0.924072 1.77458ZM15.2655 5.87214C15.2655 5.31897 14.9855 4.80677 14.5211 4.5097L8.06749 0.36092C7.77041 0.1697 7.42554 0.0672607 7.07041 0.0672607C6.71529 0.0672607 6.36017 0.210675 6.10407 0.466773C5.84797 0.722871 5.70456 1.07116 5.70456 1.43312V10.3112C5.70456 11.0658 6.31578 11.677 7.07041 11.677C7.42554 11.677 7.77041 11.5746 8.06749 11.3834L14.5211 7.23458C14.9855 6.93751 15.2655 6.4219 15.2655 5.87214ZM2.28993 9.9697V1.77458C2.28993 1.6858 2.32749 1.59702 2.38895 1.53214C2.45383 1.46726 2.54261 1.43312 2.63139 1.43312H2.97285C3.06163 1.43312 3.15041 1.46726 3.21529 1.53214C3.27675 1.59702 3.31432 1.68238 3.31432 1.77458V9.9697C3.31432 10.0585 3.27675 10.1473 3.21529 10.2121C3.15041 10.277 3.06163 10.3112 2.97285 10.3112H2.63139C2.54261 10.3112 2.45383 10.277 2.38895 10.2121C2.32749 10.1473 2.28993 10.0619 2.28993 9.9697ZM13.8997 5.87214C13.8997 5.9575 13.8553 6.03946 13.7836 6.08726L7.32993 10.236C7.25139 10.2873 7.16261 10.3112 7.07041 10.3112V1.43312C7.16261 1.43312 7.25139 1.46043 7.32993 1.50824L13.7836 5.65702C13.8553 5.70482 13.8997 5.78336 13.8997 5.87214Z" />
</svg>