<svg xmlns="http://www.w3.org/2000/svg" width="15" height="13" viewBox="0 0 15 13" fill="#204A8F">
    <path
        d="M10.4991 3.46161H7.02209C6.71557 3.46161 6.46729 3.70881 6.46729 4.014C6.46729 4.31918 6.71557 4.56638 7.02209 4.56638H10.4991C10.8056 4.56638 11.0539 4.31918 11.0539 4.014C11.0539 3.70881 10.8056 3.46161 10.4991 3.46161Z" />
    <path
        d="M11.8308 6.13177H7.02236C6.71584 6.13177 6.46756 6.37897 6.46756 6.68416C6.46756 6.98935 6.71584 7.23655 7.02236 7.23655H11.8308C12.1373 7.23655 12.3856 6.98935 12.3856 6.68416C12.3856 6.37897 12.1373 6.13177 11.8308 6.13177Z" />
    <path
        d="M14.3458 0H4.5256C4.21907 0 3.97079 0.247199 3.97079 0.552386V5.76344H2.99052C1.83825 5.76344 0.900635 6.69697 0.900635 7.84421V10.9192C0.900635 12.0665 1.83798 13 2.99052 13C3.08485 13 3.17782 12.9937 3.2686 12.9815H12.4225C13.7888 12.9815 14.9006 11.8745 14.9006 10.5141V0.552386C14.9006 0.247199 14.6524 0 14.3458 0ZM3.97079 10.9192C3.97079 11.3927 3.63036 11.7885 3.18028 11.8767H2.99052V11.8952C2.44993 11.8952 2.01024 11.4575 2.01024 10.9192V7.84421C2.01024 7.30626 2.44993 6.86821 2.99052 6.86821H3.97079V10.9192ZM13.791 10.5141C13.791 11.2527 13.1643 11.8767 12.4225 11.8767H4.84552C4.99563 11.59 5.08013 11.2642 5.08013 10.9192V1.10477H13.7908V10.5141H13.791Z" />
    <path
        d="M10.4991 8.63617H7.02209C6.71557 8.63617 6.46729 8.88337 6.46729 9.18856C6.46729 9.49374 6.71557 9.74094 7.02209 9.74094H10.4991C10.8056 9.74094 11.0539 9.49374 11.0539 9.18856C11.0539 8.88337 10.8056 8.63617 10.4991 8.63617Z" />
</svg>