<svg width="17" height="16" viewBox="0 0 17 16" fill="none" xmlns="http://www.w3.org/2000/svg">
<g clip-path="url(#clip0_774_41309)">
<path d="M14.4659 12.6124H16.2139C15.3261 13.7434 14.4651 14.8408 13.5897 15.9557C12.7172 14.8447 11.8569 13.7497 10.9704 12.6206H12.7508C12.6823 12.3937 12.6585 12.1868 12.5612 12.0191C12.3568 11.666 12.1229 11.3277 11.8844 10.9938C11.5832 10.5718 11.2881 10.1477 11.1235 9.65705C10.8038 8.70472 10.9704 7.81157 11.5097 6.97368C11.7244 6.64016 11.9673 6.32351 12.1968 5.99901C12.2657 5.90182 12.3322 5.80266 12.3999 5.70469C12.812 5.10625 12.8152 4.50585 12.4011 3.90819C12.111 3.48886 11.806 3.07892 11.5229 2.65527C11.2097 2.18655 11.0119 1.67512 10.9733 1.11469C10.9688 1.05121 10.9729 0.987325 10.9729 0.912471H12.7061C12.7323 1.34827 12.949 1.70726 13.1994 2.05292C13.3824 2.3053 13.5704 2.55455 13.7485 2.80968C14.7093 4.18645 14.7089 5.42761 13.7465 6.8032C13.5224 7.12338 13.2901 7.43887 13.0619 7.75631C12.6076 8.38767 12.6047 9.0202 13.057 9.65352C13.1686 9.80989 13.2745 9.97018 13.3915 10.123C13.9574 10.8633 14.4647 11.6268 14.4659 12.6132V12.6124Z" fill="#204A8F"/>
<path d="M9.2291 12.6128H10.959C10.0717 13.7434 9.21022 14.8408 8.33481 15.9557C7.46186 14.8443 6.60205 13.7493 5.71556 12.6202H7.49634C7.4278 12.3933 7.40399 12.1864 7.30632 12.0183C7.10193 11.6652 6.868 11.327 6.62955 10.9931C6.3283 10.571 6.03322 10.1469 5.86864 9.65627C5.54893 8.70394 5.71597 7.81079 6.25566 6.97289C6.47031 6.63938 6.71327 6.32272 6.94269 5.99823C7.01164 5.90103 7.07813 5.80188 7.14543 5.7039C7.55749 5.10507 7.55995 4.50507 7.14584 3.90741C6.85527 3.48807 6.55075 3.07814 6.26756 2.6541C5.95442 2.18538 5.7566 1.67394 5.71843 1.11352C5.71392 1.05003 5.71802 0.986151 5.71802 0.911689H7.45119C7.47746 1.34827 7.69457 1.70726 7.94492 2.05292C8.12796 2.3053 8.31593 2.55455 8.49405 2.80969C9.45441 4.18645 9.45359 5.428 8.49118 6.8032C8.26709 7.12338 8.0348 7.43848 7.80661 7.75631C7.35228 8.38767 7.35023 9.02021 7.8025 9.65352C8.06845 10.0258 8.34014 10.3942 8.59747 10.7716C8.95412 11.2948 9.17903 11.8635 9.2094 12.4941C9.21104 12.5258 9.21966 12.5575 9.22869 12.6132L9.2291 12.6128Z" fill="#204A8F"/>
<path d="M3.95672 12.612H5.70508C4.81736 13.7434 3.95631 14.8408 3.0809 15.9557C2.20919 14.8455 1.34896 13.7505 0.462473 12.6218H2.24161C2.17348 12.3949 2.15009 12.188 2.05323 12.0202C1.84885 11.6671 1.61491 11.3285 1.37687 10.995C1.07563 10.5729 0.780543 10.1493 0.615557 9.65823C0.295025 8.70629 0.461653 7.81275 1.00052 6.97485C1.21517 6.64134 1.45813 6.32468 1.68755 6.00019C1.7524 5.90809 1.8156 5.81481 1.88004 5.72272C2.30563 5.1133 2.31056 4.50272 1.8825 3.89252C1.59357 3.48024 1.29438 3.07422 1.0153 2.65606C0.702564 2.18734 0.503925 1.6759 0.465346 1.11548C0.460832 1.05199 0.464935 0.98772 0.464935 0.912082H2.1977C2.22478 1.36042 2.45625 1.72685 2.71317 2.08349C2.94547 2.40641 3.18802 2.72347 3.40184 3.05698C4.14592 4.21898 4.14715 5.3896 3.40184 6.55159C3.18802 6.88511 2.94341 7.20137 2.71358 7.52548C2.65982 7.60112 2.60893 7.67871 2.55475 7.75396C2.10043 8.38532 2.09591 9.01746 2.54819 9.65156C2.66351 9.81342 2.77433 9.97881 2.89499 10.1371C3.45602 10.8731 3.95672 11.6326 3.95795 12.612H3.95672Z" fill="#204A8F"/>
</g>
<defs>
<clipPath id="clip0_774_41309">
<rect width="15.7606" height="15.0441" fill="white" transform="matrix(-1 0 0 -1 16.2139 15.9557)"/>
</clipPath>
</defs>
</svg>
