<svg width="19" height="19" viewBox="0 0 19 19" fill="none" xmlns="http://www.w3.org/2000/svg">
<path d="M9.45076 0.38324H9.68979C9.93873 0.513429 10.0316 0.724624 10.0121 1.0161C9.99541 1.26816 10.0087 1.52203 10.0087 1.77518V2.14622C10.0296 2.15923 10.05 2.17189 10.0709 2.18491C10.1064 2.13103 10.1351 2.07027 10.1781 2.02434C10.3263 1.86595 10.4748 1.70755 10.6323 1.55964C10.7685 1.43126 10.9341 1.42439 11.0967 1.49165C11.2541 1.55639 11.334 1.69417 11.3473 1.86956C11.3603 2.03628 11.2941 2.17008 11.1817 2.28581C10.8232 2.65612 10.4667 3.02861 10.1119 3.40326C10.0699 3.44774 10.0159 3.50741 10.0142 3.56202C10.0043 3.84265 10.0098 4.12364 10.0098 4.44514C10.0794 4.38076 10.1214 4.34496 10.16 4.30554C10.5261 3.93487 10.8894 3.5613 11.2582 3.19315C11.4245 3.02716 11.6687 3.00836 11.8384 3.13529C12.0033 3.25825 12.0668 3.49512 11.9736 3.6998C11.9354 3.7837 11.8698 3.85712 11.8053 3.92293C11.2442 4.49613 10.678 5.06426 10.1207 5.64143C10.0606 5.70363 10.0142 5.81393 10.0132 5.90253C10.005 6.73429 10.008 7.56605 10.0087 8.39782C10.0087 8.44736 10.0159 8.49727 10.0207 8.56128C10.0548 8.53777 10.0705 8.53018 10.0821 8.51824C11.1824 7.35667 12.283 6.19545 13.3795 5.02954C13.4239 4.98253 13.4454 4.89284 13.4464 4.82232C13.4536 4.38257 13.4505 3.94246 13.4539 3.50235C13.4549 3.36421 13.4515 3.22353 13.4744 3.08864C13.512 2.86732 13.7186 2.69663 13.9112 2.70639C14.1065 2.71615 14.3011 2.90493 14.3278 3.11865C14.338 3.20183 14.3332 3.28718 14.3336 3.37144C14.3342 3.57757 14.3336 3.78407 14.3336 3.9902C14.6395 3.71969 14.9014 3.43545 15.1681 3.15627C15.373 2.94145 15.6424 2.93024 15.8217 3.12082C15.9976 3.30779 15.9843 3.59999 15.7848 3.81444C15.5373 4.08061 15.2859 4.34315 15.0373 4.60787C15.0093 4.63789 14.9875 4.67405 14.9458 4.7301C15.2217 4.7301 15.4662 4.7254 15.7107 4.73264C15.7995 4.73517 15.8951 4.74963 15.9737 4.78941C16.1659 4.88669 16.2564 5.10621 16.21 5.31813C16.1666 5.51522 15.9935 5.67108 15.7876 5.67217C15.2528 5.67506 14.7177 5.66385 14.183 5.66964C14.1034 5.67036 14.0037 5.70942 13.948 5.768C12.8976 6.87135 11.852 7.98049 10.8061 9.0889C10.7774 9.11928 10.7549 9.15617 10.7159 9.20788C11.5334 9.20788 12.3243 9.20354 13.1148 9.2115C13.2688 9.21295 13.3767 9.17027 13.4846 9.04985C14.0177 8.45568 14.5606 7.87128 15.0988 7.28253C15.2409 7.12703 15.4109 7.08761 15.5974 7.15668C15.7558 7.21563 15.8408 7.35088 15.863 7.52483C15.8842 7.69227 15.8221 7.8286 15.7121 7.94758C15.3659 8.3226 15.022 8.69978 14.6781 9.07661C14.6467 9.11096 14.6197 9.15038 14.575 9.20788C14.8246 9.20788 15.0411 9.19848 15.2566 9.21114C15.4061 9.22018 15.5096 9.16666 15.6121 9.05346C15.947 8.68423 16.2889 8.32151 16.6351 7.96385C16.813 7.78014 17.0862 7.78593 17.2522 7.95879C17.4168 8.13021 17.4202 8.41626 17.2563 8.61335C17.1924 8.69002 17.1207 8.75945 17.0531 8.8325C16.9455 8.94895 16.8383 9.0654 16.7068 9.20788C17.0797 9.20788 17.4103 9.22199 17.7391 9.20354C18.0154 9.18835 18.2271 9.27008 18.3627 9.53336V9.7865C18.2472 10.0556 18.0485 10.1633 17.7733 10.142C17.6203 10.1304 17.4663 10.1398 17.3126 10.1398C17.1057 10.1398 16.8991 10.1398 16.6922 10.1398C16.6805 10.1608 16.6689 10.1818 16.6573 10.2027C16.8441 10.3857 17.0357 10.5633 17.215 10.7539C17.2802 10.8233 17.3369 10.917 17.3621 11.0103C17.4181 11.2171 17.3273 11.424 17.1613 11.5209C16.9913 11.6204 16.7772 11.5932 16.628 11.4366C16.2523 11.0421 15.8822 10.6414 15.5082 10.2451C15.4697 10.2042 15.4201 10.1481 15.3744 10.1463C15.1169 10.1369 14.8588 10.1416 14.5647 10.1416C14.6317 10.2161 14.6686 10.2595 14.7078 10.3C15.0414 10.6454 15.3751 10.9911 15.7097 11.335C15.8228 11.4511 15.8832 11.5882 15.8634 11.7556C15.8429 11.9306 15.7579 12.0648 15.6001 12.1252C15.414 12.1964 15.2457 12.1545 15.1005 12.0037C14.5357 11.4175 13.9709 10.8309 13.3993 10.2519C13.3382 10.1897 13.234 10.1449 13.1493 10.1438C12.4155 10.1355 11.6813 10.1387 10.9471 10.1395C10.8986 10.1395 10.8498 10.1449 10.7723 10.1496C10.816 10.2002 10.8402 10.2302 10.8662 10.2577C11.9282 11.3828 12.9895 12.5085 14.0556 13.6292C14.1078 13.6842 14.2014 13.72 14.2765 13.7211C14.7601 13.7298 15.2439 13.724 15.7275 13.728C16.0287 13.7305 16.2213 13.9113 16.2206 14.1804C16.2202 14.431 16.0341 14.6281 15.7828 14.6335C15.5369 14.6389 15.2911 14.6346 14.9981 14.6346C15.2976 14.9517 15.5602 15.2266 15.8193 15.5043C16.0259 15.7256 16.0413 16.0211 15.86 16.2106C15.6841 16.3943 15.4082 16.378 15.205 16.1665C14.9697 15.9217 14.7379 15.6725 14.5043 15.4259C14.4589 15.3778 14.4107 15.3329 14.3332 15.2562C14.3332 15.5984 14.3373 15.892 14.3319 16.1853C14.3278 16.3867 14.2198 16.5274 14.0515 16.6023C13.8927 16.6728 13.7367 16.637 13.6066 16.5151C13.4884 16.4041 13.4484 16.2591 13.4495 16.0934C13.4532 15.5633 13.4488 15.0328 13.4556 14.5026C13.4573 14.3789 13.4256 14.2903 13.3412 14.2021C12.2751 13.0814 11.2124 11.9567 10.1487 10.8338C10.1142 10.7973 10.0763 10.7647 10.0224 10.7141C10.0159 10.773 10.0087 10.8067 10.0087 10.8407C10.008 11.6963 10.0053 12.5519 10.0132 13.4076C10.0139 13.4839 10.0675 13.5757 10.1224 13.6325C10.6995 14.2314 11.2835 14.823 11.8619 15.4204C12.0528 15.6175 12.0658 15.9018 11.9046 16.0858C11.74 16.2739 11.4563 16.2782 11.2606 16.0898C11.126 15.96 10.998 15.8226 10.8669 15.6891C10.5927 15.4107 10.3185 15.1326 10.0084 14.8183C10.0084 15.1087 10.0142 15.3532 10.006 15.5969C10.0019 15.7213 10.0374 15.8103 10.1224 15.8974C10.4789 16.2612 10.8279 16.633 11.1821 16.9993C11.2941 17.1151 11.3613 17.2489 11.3484 17.4156C11.3347 17.591 11.2544 17.7288 11.0963 17.792C10.927 17.86 10.7579 17.847 10.6186 17.7103C10.424 17.519 10.2351 17.3212 10.018 17.0999C10.0135 17.1935 10.0084 17.251 10.0084 17.3085C10.0077 17.6279 9.99473 17.9483 10.0118 18.2665C10.0275 18.558 9.9377 18.7688 9.68877 18.899H9.44973C9.20284 18.7656 9.11713 18.5526 9.13181 18.2625C9.14889 17.9201 9.13625 17.5758 9.13523 17.2322C9.13523 17.1961 9.12464 17.1603 9.11542 17.1006C8.92829 17.2984 8.76302 17.4803 8.58955 17.6532C8.52501 17.7172 8.44749 17.7797 8.36519 17.8079C8.16884 17.8752 7.97762 17.792 7.87551 17.6181C7.76726 17.4337 7.78707 17.2018 7.94039 17.0369C8.30339 16.646 8.67252 16.2612 9.03757 15.8721C9.07615 15.8312 9.1284 15.7784 9.13011 15.7296C9.13899 15.457 9.13455 15.1836 9.13455 14.9105C9.11884 14.9029 9.10347 14.8953 9.08776 14.8877C9.04883 14.9384 9.01298 14.9926 8.96995 15.0396C8.64999 15.3911 8.33173 15.7445 8.00664 16.0905C7.85093 16.2562 7.63136 16.2764 7.45959 16.16C7.28885 16.0443 7.21065 15.8088 7.29124 15.6049C7.32505 15.5192 7.38617 15.441 7.44798 15.3731C7.97693 14.7915 8.51066 14.2147 9.03722 13.6307C9.08947 13.5728 9.13079 13.477 9.13147 13.3985C9.1383 12.6029 9.13591 11.8077 9.13489 11.0121C9.13489 10.9694 9.12601 10.9271 9.11918 10.866C9.08196 10.8978 9.06318 10.9108 9.04747 10.9275C8.01893 12.0203 6.98972 13.1121 5.96596 14.2097C5.91508 14.2643 5.88947 14.3681 5.88913 14.4491C5.88674 14.9973 5.89767 15.5459 5.89767 16.0942C5.89767 16.4261 5.64907 16.6297 5.35062 16.5531C5.14061 16.4988 5.02451 16.326 5.02075 16.0504C5.01734 15.7893 5.02007 15.5278 5.02007 15.2244C4.94119 15.3036 4.89611 15.3467 4.85308 15.3922C4.59493 15.6645 4.34087 15.9408 4.07861 16.2081C3.92665 16.3632 3.69001 16.3798 3.52712 16.2648C3.35741 16.1451 3.2857 15.9119 3.37141 15.7061C3.40692 15.6211 3.47078 15.5456 3.53327 15.4783C3.7986 15.193 4.06837 14.912 4.36955 14.5948C4.07076 14.5948 3.82216 14.5992 3.5739 14.5934C3.37824 14.589 3.24199 14.4798 3.16515 14.2925C3.0931 14.1182 3.13818 13.9594 3.25052 13.8234C3.35502 13.6976 3.49605 13.6614 3.65142 13.6629C4.13495 13.6672 4.61883 13.6712 5.10236 13.6643C5.17749 13.6632 5.27174 13.626 5.32433 13.5707C6.37437 12.4666 7.41964 11.3578 8.46525 10.2494C8.49018 10.223 8.50793 10.1894 8.54276 10.1395C7.72663 10.1395 6.93611 10.1358 6.14592 10.1445C6.05646 10.1456 5.94718 10.1941 5.8823 10.2595C5.32296 10.8262 4.77113 11.4005 4.2193 11.9751C4.10422 12.0948 3.97856 12.1758 3.81123 12.1552C3.63844 12.1342 3.50698 12.0417 3.45097 11.867C3.39019 11.6775 3.42229 11.4988 3.56366 11.3527C3.90138 11.003 4.23911 10.6533 4.57615 10.3029C4.61815 10.2595 4.65639 10.2121 4.72025 10.1391C4.46687 10.1391 4.25174 10.146 4.03729 10.1362C3.91812 10.1308 3.83719 10.1745 3.75591 10.2635C3.39565 10.6573 3.02925 11.045 2.66421 11.4341C2.52522 11.582 2.35551 11.612 2.17726 11.5437C2.01983 11.4833 1.93515 11.3477 1.915 11.173C1.89554 11.0059 1.95598 10.8696 2.06798 10.7524C2.25102 10.5608 2.43029 10.3655 2.64201 10.1391C2.21653 10.1391 1.84124 10.1282 1.46732 10.1427C1.19209 10.1532 0.99335 10.0548 0.87793 9.78578V9.53263C1.0135 9.26936 1.22521 9.18835 1.50147 9.20282C1.84978 9.2209 2.19979 9.20716 2.54913 9.20716C2.55664 9.19125 2.56415 9.17534 2.57201 9.15979C2.4081 8.99488 2.24145 8.83359 2.08164 8.66471C1.8689 8.43977 1.85319 8.15335 2.03554 7.9606C2.21653 7.76929 2.49108 7.78846 2.70211 8.01087C3.04461 8.3725 3.38473 8.73667 3.72757 9.09831C3.7665 9.13953 3.81396 9.19993 3.85904 9.20137C4.13393 9.21114 4.4095 9.20607 4.72196 9.20607C4.61542 9.08818 4.5379 9.00211 4.46004 8.9164C4.15613 8.58189 3.85187 8.2481 3.54864 7.91323C3.41717 7.76785 3.3919 7.59282 3.45336 7.41091C3.5121 7.23697 3.64254 7.14475 3.81601 7.12667C3.98231 7.10967 4.109 7.18815 4.22101 7.31219C4.76054 7.90816 5.30008 8.50414 5.84679 9.09288C5.90518 9.15581 6.01002 9.20137 6.09368 9.20246C6.87908 9.21078 7.66448 9.20752 8.44954 9.20716C8.49735 9.20716 8.54481 9.20246 8.60491 9.1992C8.58408 9.16666 8.57725 9.15074 8.56598 9.13881C7.49989 8.00906 6.43447 6.87895 5.36462 5.75317C5.31954 5.7058 5.23554 5.6794 5.16895 5.67795C4.79913 5.67108 4.42931 5.67651 4.05915 5.67506C3.87167 5.67434 3.68318 5.67759 3.49673 5.66059C3.32121 5.64468 3.17984 5.49533 3.14125 5.31849C3.10505 5.15213 3.16925 4.95504 3.32053 4.86644C3.4199 4.80858 3.54249 4.77567 3.65654 4.7688C3.90138 4.75433 4.14759 4.76446 4.39311 4.76446C4.39755 4.74891 4.40233 4.733 4.40677 4.71745C4.10729 4.40499 3.80338 4.09724 3.50971 3.779C3.3277 3.58191 3.33385 3.29188 3.50629 3.11432C3.67498 2.94073 3.93724 2.94109 4.12369 3.12227C4.24081 3.23619 4.35282 3.35697 4.46243 3.47921C4.63249 3.66834 4.79845 3.86146 4.97875 4.06723C5.00777 4.00394 5.01631 3.99381 5.01631 3.98369C5.01802 3.76671 5.01392 3.54973 5.02246 3.33311C5.02621 3.23293 5.03646 3.12553 5.0747 3.03584C5.15905 2.83658 5.36838 2.73351 5.55414 2.77872C5.74503 2.82501 5.89391 3.01595 5.89494 3.24233C5.89767 3.77249 5.88708 4.30301 5.89494 4.83317C5.8963 4.92828 5.93967 5.04581 6.00216 5.11272C6.99757 6.18099 7.99879 7.24275 8.99932 8.30524C9.03279 8.34068 9.07103 8.37106 9.13489 8.42928C9.13489 8.33381 9.13489 8.27559 9.13489 8.21736C9.13489 7.45178 9.13216 6.68656 9.13762 5.92097C9.13864 5.79512 9.09972 5.70905 9.01844 5.6219C8.49154 5.05485 7.96737 4.48492 7.44696 3.911C7.37456 3.83108 7.30627 3.73163 7.27519 3.6282C7.21578 3.4293 7.30968 3.21377 7.47086 3.11359C7.64092 3.00799 7.86322 3.03873 8.01825 3.20472C8.34641 3.55623 8.66843 3.91389 8.99386 4.26793C9.03005 4.30735 9.07069 4.34243 9.13489 4.40427C9.13489 4.12762 9.14342 3.89328 9.13045 3.66039C9.12567 3.57504 9.08845 3.4727 9.03313 3.4123C8.68857 3.03584 8.33378 2.66986 7.98513 2.29774C7.93015 2.23879 7.87551 2.17189 7.84376 2.09776C7.75839 1.89741 7.826 1.65801 7.99127 1.53433C8.15416 1.41246 8.3891 1.42403 8.54037 1.57845C8.73024 1.77228 8.91019 1.97733 9.09425 2.17768C9.13489 1.77445 9.14786 1.39654 9.13079 1.02008C9.11781 0.730049 9.20216 0.517045 9.44905 0.383963L9.45076 0.38324Z" fill="#204A8F"/>
</svg>
