<svg width="34" height="31" viewBox="0 0 34 31" fill="none" xmlns="http://www.w3.org/2000/svg">
<g clip-path="url(#clip0_774_41302)">
<path d="M3.54526 8.89974C4.1992 8.33407 4.86154 7.98731 5.59375 7.82427C5.66878 7.80743 5.76709 7.64821 5.77486 7.5464C5.79879 7.21725 5.77486 6.88351 5.78909 6.55206C5.80849 6.07594 6.04975 5.77818 6.39904 5.77129C6.75932 5.7644 7.02387 6.07901 7.03357 6.56584C7.04586 7.1652 7.04327 7.76533 7.03551 8.36468C7.0284 8.93878 6.80071 9.19215 6.28326 9.2266C4.68625 9.33223 3.41266 10.596 3.06015 12.4232C2.60026 14.8076 4.14681 17.2196 6.20823 17.3321C6.83888 17.3665 7.03551 17.6054 7.0368 18.3425C7.0381 18.8783 7.04263 19.4142 7.03551 19.95C7.0284 20.4736 6.78584 20.7905 6.41003 20.7912C6.03294 20.7912 5.80073 20.4843 5.7865 19.9515C5.77809 19.6453 5.79943 19.3376 5.77615 19.0337C5.76839 18.9281 5.67783 18.7597 5.60668 18.7444C4.86219 18.5867 4.19402 18.2254 3.5569 17.6758C3.3137 17.9759 3.08796 18.2667 2.85122 18.5438C2.50905 18.9442 2.1229 18.9817 1.85706 18.6548C1.58863 18.3249 1.61838 17.9093 1.95602 17.5066C2.19017 17.2272 2.44049 16.9654 2.62419 16.7618C2.29301 15.8295 1.9916 14.9821 1.65395 14.0329C1.46379 14.0329 1.15332 14.0567 0.847369 14.0245C0.652675 14.0039 0.404943 13.9641 0.287868 13.8148C0.156564 13.6472 0.0608342 13.3218 0.106112 13.1121C0.150742 12.9039 0.368721 12.6536 0.548537 12.6008C0.864833 12.5074 1.21088 12.5602 1.5427 12.5296C1.62938 12.5219 1.77426 12.4446 1.78461 12.3765C1.91851 11.4832 2.22639 10.6802 2.70698 9.88337C2.47671 9.63459 2.24774 9.40342 2.03429 9.15388C1.67918 8.73823 1.64102 8.31187 1.91333 7.97812C2.18047 7.65127 2.56468 7.68954 2.90685 8.09294C3.11965 8.34402 3.31887 8.61269 3.54526 8.90051V8.89974Z" fill="#204A8F"/>
<path d="M11.8171 16.9363C11.7861 18.0631 11.4614 19.0391 10.8786 19.9048C10.6386 20.2623 10.2751 20.3427 9.9957 20.1084C9.70916 19.8681 9.62119 19.4203 9.86181 19.0628C10.7551 17.7355 10.6011 16.3178 10.1716 14.8635C9.81718 13.6632 9.42132 12.4775 9.11667 11.2596C8.70594 9.6162 8.87217 8.05695 9.80553 6.67834C9.97824 6.42344 10.1904 6.26346 10.4776 6.34537C10.7279 6.41655 10.9148 6.60486 10.9414 6.91028C10.9575 7.09782 10.9342 7.3443 10.8411 7.48208C9.94784 8.80404 10.0895 10.2247 10.5183 11.6822C10.8754 12.8947 11.2538 14.1003 11.5785 15.325C11.7156 15.841 11.7402 16.3982 11.8159 16.9363H11.8171Z" fill="#204A8F"/>
<path d="M13.5074 6.32013C14.0605 6.33238 14.3535 6.85289 14.1976 7.33054C14.1711 7.41245 14.1329 7.49359 14.0863 7.56248C13.3794 8.60351 13.3043 9.77773 13.629 10.9948C13.9363 12.1461 14.3205 13.2683 14.6445 14.4142C14.9822 15.6067 15.2532 16.8338 14.9207 18.08C14.7532 18.7099 14.4557 19.3009 14.1646 19.8719C13.9518 20.2891 13.5598 20.3503 13.2713 20.1054C12.9635 19.8444 12.9085 19.4119 13.175 18.9978C13.6258 18.2974 13.8709 17.5196 13.772 16.647C13.6995 16.0086 13.5754 15.371 13.4098 14.7578C13.0896 13.5714 12.6769 12.4178 12.3878 11.2214C12.0016 9.62234 12.1394 8.08529 13.054 6.74267C13.1918 6.54058 13.4072 6.41275 13.5074 6.32166V6.32013Z" fill="#204A8F"/>
</g>
<defs>
<clipPath id="clip0_774_41302">
<rect width="33.1173" height="30.0881" fill="white" transform="translate(0.0292969 0.7453)"/>
</clipPath>
</defs>
</svg>
