<svg width="16" height="16" viewBox="0 0 16 16" fill="none" xmlns="http://www.w3.org/2000/svg">
<g clip-path="url(#clip0_774_41294)">
<path d="M2.15699 4.21755H0.475586C1.32951 3.08651 2.15778 1.98918 2.99987 0.874207C3.83919 1.98526 4.66667 3.08024 5.51941 4.20932H3.80682C3.87275 4.43623 3.89564 4.64316 3.98921 4.81089C4.18581 5.164 4.41084 5.50221 4.64022 5.83612C4.92999 6.2582 5.21385 6.68224 5.37216 7.17291C5.6797 8.12524 5.51941 9.01839 5.00066 9.85628C4.79419 10.1898 4.56047 10.5065 4.33978 10.8309C4.27346 10.9281 4.2095 11.0273 4.14436 11.1253C3.74799 11.7237 3.74484 12.3241 4.14318 12.9218C4.42229 13.3411 4.71562 13.751 4.98803 14.1747C5.28925 14.6434 5.47954 15.1548 5.51665 15.7153C5.52099 15.7788 5.51704 15.8426 5.51704 15.9175H3.84985C3.82458 15.4817 3.61613 15.1227 3.37531 14.777C3.19924 14.5247 3.01842 14.2754 2.84708 14.0203C1.92288 12.6435 1.92328 11.4023 2.84906 10.0268C3.06461 9.70657 3.28806 9.39109 3.50757 9.07365C3.9446 8.44229 3.94736 7.80975 3.5123 7.17643C3.40492 7.02006 3.30307 6.85977 3.19055 6.70693C2.64614 5.96662 2.15818 5.20319 2.15699 4.21677V4.21755Z" fill="#204A8F"/>
<path d="M7.19431 4.21716H5.53027C6.38381 3.08651 7.21247 1.98918 8.05456 0.874207C8.89427 1.98565 9.72135 3.08063 10.5741 4.20971H8.86111C8.92704 4.43662 8.94994 4.64355 9.0439 4.81168C9.2405 5.16478 9.46553 5.503 9.6949 5.8369C9.98468 6.25898 10.2685 6.68302 10.4268 7.17369C10.7344 8.12602 10.5737 9.01917 10.0546 9.85706C9.84808 10.1906 9.61437 10.5072 9.39368 10.8317C9.32736 10.9289 9.2634 11.0281 9.19865 11.1261C8.80229 11.7249 8.79992 12.3249 9.19826 12.9225C9.47777 13.3419 9.7707 13.7518 10.0431 14.1759C10.3443 14.6446 10.5346 15.156 10.5713 15.7164C10.5757 15.7799 10.5717 15.8438 10.5717 15.9183H8.90454C8.87927 15.4817 8.67043 15.1227 8.42961 14.777C8.25353 14.5247 8.07272 14.2754 7.90138 14.0203C6.97757 12.6435 6.97836 11.402 7.90414 10.0268C8.1197 9.70657 8.34315 9.39148 8.56265 9.07364C8.99968 8.44229 9.00165 7.80975 8.5666 7.17643C8.31077 6.80412 8.04942 6.43573 7.80189 6.05833C7.45882 5.53513 7.24247 4.96648 7.21326 4.3359C7.21168 4.30416 7.20339 4.27242 7.1947 4.21676L7.19431 4.21716Z" fill="#204A8F"/>
<path d="M12.2658 4.21794H10.584C11.4379 3.08651 12.2662 1.98918 13.1083 0.874207C13.9468 1.98447 14.7743 3.07946 15.627 4.20814H13.9156C13.9811 4.43506 14.0036 4.64198 14.0968 4.80972C14.2934 5.16282 14.5185 5.50143 14.7474 5.83494C15.0372 6.25702 15.3211 6.68067 15.4798 7.17173C15.7881 8.12367 15.6278 9.01721 15.1095 9.8551C14.903 10.1886 14.6693 10.5053 14.4486 10.8298C14.3862 10.9219 14.3254 11.0151 14.2634 11.1072C13.854 11.7167 13.8493 12.3272 14.2611 12.9374C14.539 13.3497 14.8268 13.7557 15.0952 14.1739C15.3961 14.6426 15.5871 15.1541 15.6243 15.7145C15.6286 15.778 15.6247 15.8422 15.6247 15.9179H13.9579C13.9318 15.4695 13.7091 15.1031 13.462 14.7465C13.2385 14.4235 13.0052 14.1065 12.7995 13.773C12.0838 12.611 12.0826 11.4404 12.7995 10.2784C13.0052 9.94485 13.2405 9.62858 13.4616 9.30448C13.5133 9.22884 13.5623 9.15124 13.6144 9.076C14.0514 8.44464 14.0558 7.81249 13.6207 7.17839C13.5098 7.01653 13.4032 6.85115 13.2871 6.69282C12.7474 5.95682 12.2658 5.19731 12.2646 4.21794H12.2658Z" fill="#204A8F"/>
</g>
<defs>
<clipPath id="clip0_774_41294">
<rect width="15.1607" height="15.0441" fill="white" transform="translate(0.475586 0.874207)"/>
</clipPath>
</defs>
</svg>
