<svg width="319" height="41" viewBox="0 0 319 41" fill="none" xmlns="http://www.w3.org/2000/svg">
<path d="M261.416 20.5L252.427 4.68627C250.861 1.9285 247.976 0 245.29 0C242.603 0 9.15527e-05 0 9.15527e-05 0V41H247.71C247.71 41 254.525 41 256.803 41C259.489 41 262.374 39.0715 263.94 36.3137L272.929 20.5H261.416Z" fill="#3A8DDE"/>
<path d="M268.325 0C266.047 0 259.232 0 259.232 0L260.077 1.40781C260.077 1.40781 262.459 2.05386 264.035 4.84055L272.938 20.5H284.451L275.463 4.68627C273.897 1.9285 271.011 0 268.325 0Z" fill="#3A8DDE"/>
<path d="M291.361 0C289.083 0 282.268 0 282.268 0L283.113 1.40781C283.113 1.40781 285.496 2.05386 287.071 4.84055L295.974 20.5H307.487L298.499 4.68627C296.933 1.9285 294.047 0 291.361 0Z" fill="#3A8DDE"/>
<path d="M275.548 36.1595C273.972 38.9365 271.59 39.5922 271.59 39.5922L270.745 41C270.745 41 277.56 41 279.848 41C282.534 41 285.419 39.0715 286.985 36.3137L295.974 20.5H284.46L275.557 36.1595H275.548Z" fill="#3A8DDE"/>
<path d="M298.584 36.1595C297.008 38.9365 294.626 39.5922 294.626 39.5922L293.781 41C293.781 41 300.596 41 302.883 41C305.57 41 308.455 39.0715 310.021 36.3137L319 20.5H307.487L298.584 36.1595Z" fill="#3A8DDE"/>
</svg>
