<svg width="527" height="70" viewBox="0 0 527 70" fill="none" xmlns="http://www.w3.org/2000/svg">
<path d="M424.532 34.5239L408.586 7.89197C405.807 3.24762 400.688 -0.000183105 395.923 -0.000183105C391.157 -0.000183105 -39.2437 -0.000183105 -39.2437 -0.000183105V69.0481H400.217C400.217 69.0481 412.307 69.0481 416.348 69.0481C421.114 69.0481 426.233 65.8003 429.011 61.1559L444.957 34.5239H424.532Z" fill="#3A8DDE"/>
<path d="M436.791 -0.000183105C432.749 -0.000183105 420.659 -0.000183105 420.659 -0.000183105L422.158 2.37071C422.158 2.37071 426.384 3.45872 429.179 8.1518L444.974 34.5239H465.4L449.453 7.89197C446.675 3.24762 441.556 -0.000183105 436.791 -0.000183105Z" fill="#3A8DDE"/>
<path d="M477.658 -0.000183105C473.617 -0.000183105 461.527 -0.000183105 461.527 -0.000183105L463.025 2.37071C463.025 2.37071 467.252 3.45872 470.047 8.1518L485.842 34.5239H506.267L490.321 7.89197C487.542 3.24762 482.423 -0.000183105 477.658 -0.000183105Z" fill="#3A8DDE"/>
<path d="M449.605 60.8958C446.81 65.5726 442.583 66.6768 442.583 66.6768L441.084 69.0477C441.084 69.0477 453.175 69.0477 457.233 69.0477C461.998 69.0477 467.117 65.7999 469.896 61.1556L485.842 34.5236H465.416L449.622 60.8958H449.605Z" fill="#3A8DDE"/>
<path d="M490.472 60.8958C487.677 65.5726 483.451 66.6768 483.451 66.6768L481.952 69.0477C481.952 69.0477 494.042 69.0477 498.1 69.0477C502.866 69.0477 507.985 65.7999 510.763 61.1556L526.693 34.5236H506.267L490.472 60.8958Z" fill="#3A8DDE"/>
</svg>
