<svg width="205" height="55" viewBox="0 0 205 55" fill="none" xmlns="http://www.w3.org/2000/svg">
<path d="M103.846 17.8389H99.0957V35.8161H103.846V17.8389Z" fill="#003E7B"/>
<path d="M156.602 17.8389H151.852V35.8161H156.602V17.8389Z" fill="#003E7B"/>
<path d="M125.991 28.1639C126.786 27.1406 127.167 25.8423 127.167 24.2691C127.167 22.3599 126.602 20.8173 125.441 19.6259C124.296 18.4345 122.814 17.8389 120.997 17.8389H109.221V35.8161H113.971V30.4245H117.27L121.776 35.8161H127.549L122.937 30.3023C124.189 29.9051 125.197 29.1873 125.991 28.1639ZM121.928 25.6438C121.608 26.0103 121.211 26.1936 120.752 26.1936H113.986V22.3294H120.752C121.211 22.3294 121.608 22.5126 121.928 22.8639C122.249 23.2305 122.417 23.6887 122.417 24.2539C122.417 24.819 122.249 25.2772 121.928 25.6438Z" fill="#003E7B"/>
<path d="M136.623 17.8389H131.857V35.8161H147.651V31.2034H136.623V17.8389Z" fill="#003E7B"/>
<path d="M178.183 29.2789H177.969L168.301 18.4345V18.4193L167.934 18.0222L167.812 17.8847V17.9L167.766 17.8389H162.359V35.8161H167.125V24.4677H167.323L177.419 35.7855V35.8161H182.948V17.8389H178.183V29.2789Z" fill="#003E7B"/>
<path d="M204.24 22.2072V17.8389H187.516V35.8161H204.24V31.4631H192.281V28.8818H201.201V24.7579H192.281V22.2072H204.24Z" fill="#003E7B"/>
<path d="M86.0973 17.8389H77.7578L71.7246 35.8161H76.8566L78.109 31.8449H88.9382L90.1906 35.8161H95.3226L89.2894 17.8389H86.0973ZM79.4074 27.721L81.118 22.2835H85.9139L87.6247 27.721H79.4074Z" fill="#003E7B"/>
<path d="M20.0225 53.8246L31.0807 45.7295L42.2306 47.4402L44.3841 54.0079H51.6392L47.4389 41.2391L29.3854 38.444L19.4574 46.203L30.6225 12.1883L37.3735 32.7163L45.0257 33.8924L33.8759 -0.00012207H27.3845L9.62109 54.0079L20.0225 53.8246Z" fill="#003E7B"/>
<path d="M61.5086 23.7345L59.6452 17.8389H47.2734L51.5959 30.9896L61.5086 23.7345Z" fill="#003E7B"/>
<path d="M0 23.5971L1.80239 17.8389H14.2657L9.91276 30.8521L0 23.5971Z" fill="#003E7B"/>
<path d="M74.6582 52.2201H73.0087L72.7032 53.8849H71.7715L73.3446 46.355H74.368L75.9259 53.8849H74.9636L74.6582 52.2201ZM74.5207 51.4259L73.8334 47.6991L73.1614 51.4259H74.5207Z" fill="#003E7B"/>
<path d="M81.3474 51.212V52.1896C81.3474 53.3656 80.7823 53.8849 79.6521 53.8849H77.7734V46.355H79.6215C80.6907 46.355 81.21 46.8437 81.21 47.974V48.8293C81.21 49.4861 80.9045 49.8069 80.5074 49.9596C80.9962 50.1276 81.3474 50.4942 81.3474 51.2273V51.212ZM79.5604 47.2256H78.7051V49.593H79.5299C80.0186 49.593 80.2783 49.3945 80.2783 48.8599V47.9435C80.2783 47.4089 80.0339 47.2256 79.5604 47.2256ZM80.3852 51.1662C80.3852 50.6316 80.095 50.4178 79.5757 50.4178H78.7204V53.0143H79.6063C80.1256 53.0143 80.3852 52.8158 80.3852 52.2201V51.1662Z" fill="#003E7B"/>
<path d="M86.3281 47.2552H85.0756V53.8993H84.1134V47.2552H82.8457V46.3693H86.3128V47.2552H86.3281Z" fill="#003E7B"/>
<path d="M87.9766 48.3393C87.9766 46.8272 88.7249 46.2468 89.8552 46.2468C90.9855 46.2468 91.7339 46.8272 91.7339 48.3393V51.9134C91.7339 53.4255 90.9855 54.0059 89.8552 54.0059C88.7249 54.0059 87.9766 53.4255 87.9766 51.9134V48.3393ZM89.8552 53.1506C90.4509 53.1506 90.7717 52.784 90.7717 51.9745V48.2782C90.7717 47.4687 90.4509 47.1022 89.8552 47.1022C89.2595 47.1022 88.9388 47.4687 88.9388 48.2782V51.9745C88.9388 52.784 89.2595 53.1506 89.8552 53.1506Z" fill="#003E7B"/>
<path d="M98.7296 46.355V53.8849H97.8437V47.974L96.6065 53.8849H96.0262L94.7737 48.0351V53.8849H93.9336V46.355H95.2319L96.3316 51.8535L97.3855 46.355H98.7296Z" fill="#003E7B"/>
<path d="M100.93 48.3393C100.93 46.8272 101.678 46.2468 102.808 46.2468C103.939 46.2468 104.687 46.8272 104.687 48.3393V51.9134C104.687 53.4255 103.939 54.0059 102.808 54.0059C101.678 54.0059 100.93 53.4255 100.93 51.9134V48.3393ZM102.808 53.1506C103.404 53.1506 103.725 52.784 103.725 51.9745V48.2782C103.725 47.4687 103.404 47.1022 102.808 47.1022C102.213 47.1022 101.892 47.4687 101.892 48.2782V51.9745C101.892 52.784 102.213 53.1506 102.808 53.1506Z" fill="#003E7B"/>
<path d="M110.4 51.1204V52.0674C110.4 53.5184 109.651 53.8849 108.628 53.8849H106.887V46.355H110.109V47.2409H107.834V49.3334H108.628C109.667 49.3334 110.4 49.6847 110.4 51.1051V51.1204ZM109.437 51.0593C109.437 50.3414 109.132 50.204 108.552 50.204H107.834V52.9991H108.552C109.132 52.9991 109.437 52.8311 109.437 52.1437V51.0746V51.0593Z" fill="#003E7B"/>
<path d="M116.141 46.355V53.8849H115.225V48.4628L113.361 53.8849H112.43V46.355H113.346V51.7772L115.21 46.355H116.141Z" fill="#003E7B"/>
<path d="M122.007 46.3549V53.8849H121.06V47.2408H119.655C119.624 48.8446 119.578 50.4483 119.517 52.0521C119.471 53.274 119.044 53.8849 117.883 53.8849V52.9227C118.387 52.9227 118.616 52.6477 118.647 51.991C118.708 50.1428 118.769 48.2336 118.784 46.3397H121.991L122.007 46.3549Z" fill="#003E7B"/>
<path d="M127.809 51.0584V52.097C127.809 53.5327 127.076 53.8993 126.068 53.8993H124.281V46.3693H125.228V49.3019H126.068C127.046 49.3019 127.809 49.6532 127.809 51.0736V51.0584ZM126.847 50.9667C126.847 50.2947 126.542 50.1419 126.007 50.1419H125.243V52.9981H126.007C126.542 52.9981 126.847 52.8301 126.847 52.1734V50.9667Z" fill="#003E7B"/>
<path d="M133.493 46.355V53.8849H132.546V50.4636H130.804V53.8849H129.857V46.355H130.804V49.5777H132.546V46.355H133.493Z" fill="#003E7B"/>
<path d="M139.25 51.0584V52.097C139.25 53.5327 138.532 53.8993 137.509 53.8993H135.783V46.3693H136.73V49.3019H137.509C138.487 49.3019 139.25 49.6532 139.25 51.0736V51.0584ZM138.303 50.9667C138.303 50.2947 137.998 50.1419 137.448 50.1419H136.745V52.9981H137.448C137.998 52.9981 138.303 52.8301 138.303 52.1734V50.9667ZM141.098 46.3693V53.8993H140.151V46.3693H141.098Z" fill="#003E7B"/>
<path d="M146.247 52.9991V53.8849H143.391V46.355H146.216V47.2409H144.338V49.593H146.125V50.4484H144.338V52.9838H146.247V52.9991Z" fill="#003E7B"/>
<path d="M153.365 52.2201H151.716L151.41 53.8849H150.479L152.052 46.355H153.075L154.633 53.8849H153.671L153.365 52.2201ZM153.228 51.4259L152.541 47.6991L151.868 51.4259H153.228Z" fill="#003E7B"/>
<path d="M159.168 53.8849L157.412 50.1123V53.8849H156.465V46.355H157.412V49.9443L159.138 46.355H160.131L158.328 49.9749L160.207 53.8849H159.168Z" fill="#003E7B"/>
<path d="M161.642 48.4157C161.642 46.8272 162.421 46.2468 163.506 46.2468C164.59 46.2468 165.232 46.812 165.232 48.3393V48.9045H164.315V48.263C164.315 47.4382 164.04 47.0869 163.49 47.0869C162.941 47.0869 162.604 47.4535 162.604 48.3393V51.8829C162.604 52.7687 162.941 53.1353 163.506 53.1353C164.071 53.1353 164.33 52.784 164.33 51.9592V51.1039H165.247V51.8829C165.247 53.4102 164.59 53.9754 163.506 53.9754C162.421 53.9754 161.627 53.395 161.627 51.8065V48.4004L161.642 48.4157Z" fill="#003E7B"/>
<path d="M170.21 52.9991V53.8849H167.354V46.355H170.179V47.2409H168.3V49.593H170.088V50.4484H168.3V52.9838H170.21V52.9991Z" fill="#003E7B"/>
<path d="M172.104 48.4157C172.104 46.8272 172.882 46.2468 173.967 46.2468C175.051 46.2468 175.693 46.812 175.693 48.3393V48.9045H174.776V48.263C174.776 47.4382 174.517 47.0869 173.967 47.0869C173.417 47.0869 173.081 47.4535 173.081 48.3393V51.8829C173.081 52.7687 173.432 53.1353 173.982 53.1353C174.532 53.1353 174.807 52.784 174.807 51.9592V51.1039H175.723V51.8829C175.723 53.4102 175.067 53.9754 173.982 53.9754C172.898 53.9754 172.104 53.395 172.104 51.8065V48.4004V48.4157Z" fill="#003E7B"/>
<path d="M177.711 48.4157C177.711 46.8272 178.49 46.2468 179.574 46.2468C180.659 46.2468 181.316 46.812 181.316 48.3393V48.9045H180.399V48.263C180.399 47.4382 180.124 47.0869 179.574 47.0869C179.024 47.0869 178.688 47.4535 178.688 48.3393V51.8829C178.688 52.7687 179.024 53.1353 179.59 53.1353C180.155 53.1353 180.414 52.784 180.414 51.9592V51.1039H181.331V51.8829C181.331 53.4102 180.674 53.9754 179.59 53.9754C178.505 53.9754 177.711 53.395 177.711 51.8065V48.4004V48.4157Z" fill="#003E7B"/>
<path d="M186.676 46.3549L185.011 52.6019C184.782 53.442 184.431 53.9307 183.606 53.9307C183.438 53.9307 183.301 53.9155 183.178 53.8696V53.0448C183.27 53.0601 183.346 53.0754 183.438 53.0754C183.759 53.0754 184.003 52.9532 184.156 52.4186L184.339 51.7466L182.781 46.3397H183.744L184.782 50.5705L185.775 46.3397H186.676V46.3549Z" fill="#003E7B"/>
<path d="M190.234 52.2201H188.569L188.264 53.8849H187.332L188.905 46.355H189.929L191.487 53.8849H190.524L190.219 52.2201H190.234ZM190.097 51.4259L189.409 47.6991L188.737 51.4259H190.097Z" fill="#003E7B"/>
<path d="M196.863 48.1869V49.3019C196.863 50.7682 196.114 51.1347 195.076 51.1347H194.297V53.8993H193.35V46.3693H195.076C196.114 46.3693 196.863 46.7359 196.863 48.2022V48.1869ZM195.9 48.1105C195.9 47.4079 195.595 47.2552 195.014 47.2552H194.312V50.2794H195.014C195.61 50.2794 195.9 50.1114 195.9 49.4088V48.1105Z" fill="#003E7B"/>
<path d="M202.391 51.0584V52.097C202.391 53.5327 201.673 53.8993 200.665 53.8993H198.939V46.3693H199.887V49.3019H200.665C201.643 49.3019 202.391 49.6532 202.391 51.0736V51.0584ZM201.444 50.9667C201.444 50.2947 201.139 50.1419 200.589 50.1419H199.887V52.9981H200.589C201.139 52.9981 201.444 52.8301 201.444 52.1734V50.9667ZM204.24 46.3693V53.8993H203.293V46.3693H204.24Z" fill="#003E7B"/>
</svg>
