<svg width="159" height="53" viewBox="0 0 159 53" fill="none" xmlns="http://www.w3.org/2000/svg">
<path d="M65.8689 35.5571C65.823 35.6641 65.7467 35.7252 65.7009 35.7557C65.6398 35.8015 65.5481 35.8168 65.4565 35.8168C65.3648 35.8168 65.2732 35.8015 65.1816 35.7557C65.0594 35.6946 64.9677 35.6182 64.8302 35.5724C64.7081 35.4808 64.5553 35.435 64.3873 35.3891C64.2346 35.3433 64.0513 35.2822 63.8375 35.2822C63.4862 35.2822 63.2112 35.3739 63.0279 35.5113C62.8599 35.6793 62.7683 35.8779 62.7683 36.1375C62.7683 36.3056 62.8141 36.443 62.921 36.5652C63.0279 36.6874 63.1654 36.7638 63.3487 36.8554C63.5167 36.9471 63.7153 37.0081 63.9444 37.0692C64.1735 37.1303 64.4026 37.2067 64.6317 37.2831C64.8455 37.3747 65.0899 37.4511 65.3037 37.5733C65.5176 37.6955 65.7314 37.8329 65.8994 38.0009C66.0674 38.169 66.2202 38.3675 66.3271 38.6272C66.434 38.8868 66.4798 39.1618 66.4798 39.4978C66.4798 39.8796 66.4187 40.2309 66.2813 40.5669C66.1591 40.903 65.9605 41.1932 65.7161 41.4375C65.4718 41.6972 65.1663 41.8958 64.7844 42.0332C64.4179 42.186 63.9902 42.2318 63.5167 42.2318C63.257 42.2318 62.9974 42.2165 62.7225 42.1707C62.4628 42.1249 62.2032 42.0332 61.9435 41.9569C61.6839 41.8499 61.4547 41.743 61.2409 41.6056C61.0271 41.4681 60.8438 41.3306 60.6758 41.1626L61.2409 40.2615C61.2409 40.2615 61.3478 40.1545 61.4242 40.1087C61.4853 40.0629 61.5769 40.0476 61.6533 40.0476C61.7755 40.0476 61.8671 40.0782 61.9893 40.1698C62.1115 40.2156 62.249 40.3073 62.3864 40.3989C62.5239 40.4906 62.6919 40.5669 62.8752 40.628C63.0738 40.6891 63.3029 40.735 63.5473 40.735C63.8986 40.735 64.1735 40.6739 64.372 40.5211C64.5553 40.3531 64.6622 40.124 64.6622 39.788C64.6622 39.5894 64.6164 39.4367 64.5095 39.3145C64.3873 39.1923 64.2498 39.1007 64.0818 39.009C63.8986 38.9174 63.7153 38.8563 63.4862 38.8105C63.2723 38.7494 63.0279 38.673 62.7988 38.6119C62.585 38.5203 62.3406 38.4439 62.1268 38.3217C61.913 38.2148 61.7297 38.062 61.5311 37.894C61.3631 37.726 61.2256 37.4969 61.1034 37.2373C60.9965 36.9623 60.9507 36.6416 60.9507 36.2597C60.9507 35.939 61.0118 35.6335 61.134 35.3586C61.2715 35.0531 61.4547 34.8087 61.6839 34.5643C61.913 34.3352 62.2184 34.1367 62.5697 34.0145C62.921 33.877 63.3334 33.8007 63.7764 33.8007C64.036 33.8007 64.2804 33.8312 64.5095 33.8618C64.7386 33.9076 64.983 33.9687 65.1968 34.045C65.4106 34.1061 65.6245 34.2131 65.8078 34.32C65.9911 34.4422 66.1591 34.5491 66.3118 34.6865L65.823 35.5724" fill="#003E7B"/>
<path d="M74.8049 42.1575H72.8957V38.6598H69.5049V42.1575H67.5957V33.8792H69.5049V37.3463H72.8957V33.8792H74.8049V42.1575Z" fill="#003E7B"/>
<path d="M84.5343 38.0162C84.5343 38.6272 84.4274 39.1618 84.2136 39.6811C84.015 40.2004 83.7248 40.6586 83.3582 41.0252C82.9764 41.407 82.5182 41.7125 81.9989 41.9263C81.4796 42.1249 80.8839 42.2318 80.2271 42.2318C79.5704 42.2318 79.0052 42.1249 78.4554 41.9263C77.9361 41.7125 77.4778 41.407 77.096 41.0252C76.7294 40.6586 76.4392 40.2004 76.2407 39.6811C76.0268 39.1618 75.9199 38.6272 75.9199 38.0162C75.9199 37.4053 76.0268 36.8554 76.2407 36.3361C76.4392 35.8321 76.7294 35.3891 77.096 35.0073C77.4778 34.6407 77.9361 34.3353 78.4554 34.1214C78.9899 33.9076 79.5856 33.7854 80.2271 33.7854C80.8686 33.7854 81.4643 33.9076 81.9989 34.1214C82.5182 34.3353 82.9764 34.6407 83.3582 35.0073C83.7248 35.3891 84.015 35.8321 84.2136 36.3514C84.4274 36.8707 84.5343 37.4206 84.5343 38.0162ZM82.564 38.0162C82.564 37.6191 82.5182 37.2373 82.396 36.9165C82.2891 36.5805 82.1516 36.2903 81.9378 36.0765C81.7392 35.8474 81.4948 35.6793 81.2199 35.5572C80.9297 35.4197 80.5937 35.3739 80.2271 35.3739C79.8606 35.3739 79.5245 35.4197 79.2496 35.5572C78.9441 35.6793 78.6997 35.8474 78.5165 36.0765C78.3179 36.2903 78.1652 36.5805 78.043 36.9165C77.9361 37.2373 77.8902 37.6038 77.8902 38.0162C77.8902 38.4286 77.9361 38.8105 78.043 39.1312C78.1652 39.4672 78.3179 39.7422 78.5165 39.9713C78.6997 40.1851 78.9594 40.3531 79.2496 40.4906C79.5245 40.5975 79.8606 40.6586 80.2271 40.6586C80.5937 40.6586 80.9297 40.5975 81.2199 40.4906C81.5101 40.3531 81.7392 40.1851 81.9378 39.9713C82.1363 39.7422 82.2891 39.4672 82.396 39.1312C82.5182 38.8105 82.564 38.4439 82.564 38.0162Z" fill="#003E7B"/>
<path d="M87.5733 39.393V42.1423H85.6641V33.8792H88.5814C89.1465 33.8792 89.6505 33.9402 90.0782 34.0777C90.5058 34.2304 90.8419 34.4137 91.1015 34.6734C91.3764 34.9025 91.575 35.1927 91.7125 35.5134C91.8499 35.8495 91.8958 36.2008 91.8958 36.5826C91.8958 36.9645 91.8499 37.3768 91.6972 37.7281C91.5597 38.0642 91.3612 38.3544 91.0863 38.5987C90.8113 38.8431 90.46 39.0417 90.0476 39.1639C89.6505 39.3166 89.1465 39.3777 88.5814 39.3777H87.5733M87.5733 37.9267H88.5814C89.0701 37.9267 89.4367 37.8045 89.6505 37.5754C89.8644 37.3158 89.9713 36.9797 89.9713 36.5673C89.9713 36.3841 89.9407 36.2008 89.8796 36.048C89.8338 35.8953 89.7422 35.7578 89.6047 35.6662C89.4978 35.544 89.345 35.4524 89.177 35.3913C88.9937 35.3454 88.7952 35.2996 88.5508 35.2996H87.5427V37.9267H87.5733Z" fill="#003E7B"/>
<path d="M134.036 23.6141H129.332V12.3573C129.332 11.2576 128.798 10.7078 127.835 10.7078H126.277V26.3634H135.625V25.0804C135.625 24.2861 135.274 23.6141 134.052 23.6141" fill="#003E7B"/>
<path d="M122.154 23.3544V12.2045C122.154 11.0895 121.666 10.6771 120.658 10.6771H119.1V24.5152C119.1 25.7065 119.741 26.348 120.932 26.348H122.154V25.8134C122.154 25.8134 122.17 25.0345 122.154 23.3544Z" fill="#003E7B"/>
<path d="M112.942 12.2198L109.444 21.8423L106.13 12.2198C105.702 11.059 105.167 10.6924 103.946 10.6924H102.51V11.2423C102.51 11.2423 107.321 24.4541 107.581 25.1414C107.84 25.8287 108.39 26.348 109.261 26.348H110.895L116.394 11.1964V10.6771H115.126C113.889 10.6771 113.354 11.0437 112.926 12.2045" fill="#003E7B"/>
<path d="M98.6929 19.4728C99.8078 18.9077 100.969 17.5941 100.969 15.4253C100.969 12.5385 98.9983 10.614 96.0963 10.614H90.5214V11.1486C90.5214 11.1486 90.4908 11.8817 90.5214 13.516V26.2696H93.5914V20.4198H95.0271C95.6992 20.4198 95.7908 20.4656 96.0199 20.9391L98.0055 24.895C98.5554 26.0711 99.2122 26.2696 100.48 26.2696H101.809V25.6281L98.7081 19.4575M93.5914 17.6552V13.3633H95.8367C97.1349 13.3633 97.8375 14.127 97.8375 15.4711C97.8375 16.8152 97.1044 17.6552 95.8061 17.6552H93.5914Z" fill="#003E7B"/>
<path d="M70.9101 21.8255C70.9101 21.8255 69.291 23.6431 66.6334 23.6431C63.9758 23.6431 61.8222 21.3367 61.8222 18.3889C61.8222 15.4411 63.823 13.3638 66.5723 13.3638C68.9245 13.3638 69.9326 15.3036 69.9326 15.3036C70.2991 14.937 72.0861 13.1805 72.0861 13.1805C72.0861 13.1805 70.4824 10.4465 66.5265 10.4465C62.0513 10.4465 58.6758 13.8526 58.6758 18.4042C58.6758 22.9557 62.0818 26.6062 66.6029 26.6062C70.4824 26.6062 72.6666 24.086 72.7582 23.9791L73.0331 23.6736L71.3072 21.3673L70.9101 21.8408" fill="#003E7B"/>
<path d="M157.312 23.614H151.799V19.8261H156.946V17.0463H151.799V13.4111H158.137V10.6771H148.729V26.348H158.901V25.065C158.901 24.2708 158.55 23.5987 157.328 23.5987" fill="#003E7B"/>
<path d="M88.1364 25.9358C87.9073 25.386 87.4796 24.3168 87.1589 23.4309C87.1589 23.4309 83.1724 12.6018 82.9128 11.9145C82.6837 11.2425 82.1185 10.7231 81.2479 10.7231H79.6136L74.8788 23.5531C74.6955 24.0419 74.2525 25.2485 74.0234 25.9053V26.3329H75.5508C76.7727 26.3329 77.292 25.9664 77.735 24.8208L78.7125 22.1327H83.4015L84.3791 24.8208C84.8067 25.9664 85.3413 26.3329 86.5479 26.3329H88.1517V25.9511M79.5831 19.4139L80.9425 15.6108C80.973 15.4733 81.0341 15.3358 81.0646 15.1831C81.1105 15.3358 81.1563 15.4886 81.2021 15.6108L82.5615 19.4139H79.5831Z" fill="#003E7B"/>
<path d="M145.185 23.6141H140.48V12.3573C140.48 11.2576 139.93 10.7078 138.983 10.7078H137.41V26.3634H146.758V25.0804C146.758 24.2861 146.406 23.6141 145.2 23.6141" fill="#003E7B"/>
<path d="M39.3687 36.5353L46.6848 43.8667L52.3666 38.1696L44.8978 30.7007H44.8825C40.9113 27.0045 34.6949 27.035 30.8306 30.884H30.8154L30.8001 30.8993C29.6698 32.0142 28.1424 32.6863 26.4471 32.6863C22.9952 32.6863 20.2153 29.8759 20.2153 26.4546C20.2153 23.0333 23.0105 20.2076 26.4471 20.2076C28.1883 20.2076 29.792 20.8338 30.9223 21.9794L30.9681 22.0099C34.924 25.6451 41.064 25.5382 44.8978 21.7045C48.7315 17.8707 48.9453 11.6543 45.3254 7.6984C45.3254 7.6984 45.2949 7.63731 45.2796 7.63731C35.0156 -2.62666 18.2603 -2.53502 7.85886 7.85114C-2.5273 18.2526 -2.63421 34.9926 7.62977 45.2719C17.4661 55.1082 33.2439 55.4289 43.7064 46.2952L38.1162 40.705C34.9393 43.2863 30.8917 44.8595 26.4623 44.8595C16.3053 44.8595 8.07271 36.6269 8.07271 26.4699C8.07271 16.3128 16.3053 8.06497 26.4623 8.06497C31.579 8.06497 36.1306 9.95892 39.4756 13.3955L39.5367 13.4566C40.0407 14.2661 39.9338 15.3353 39.2465 16.0379C38.4217 16.8474 37.1081 16.8627 36.2986 16.0379C36.2681 16.0226 36.2375 15.9921 36.2375 15.9921C30.6473 10.7684 21.8191 10.9059 16.3664 16.3586C10.7914 21.9336 10.7914 30.9604 16.3664 36.5506C21.8955 42.0797 30.8612 42.1102 36.4361 36.6575H36.4514C36.4514 36.6575 36.4819 36.6117 36.4819 36.5964C37.2914 35.8021 38.5439 35.8174 39.3687 36.5658" fill="#003E7B"/>
</svg>
