<svg width="83" height="55" viewBox="0 0 83 55" fill="none" xmlns="http://www.w3.org/2000/svg">
<path d="M0 28.0579C0 32.3498 3.20747 35.3435 7.80487 35.3435H36.7487V29.2493L34.8548 26.8818H10.6611C9.34752 26.8818 8.33942 25.889 8.33942 24.5602V10.7986C8.33942 9.46974 9.33224 8.47694 10.6611 8.47694H34.9464L36.7487 6.4608V0H7.80487C3.20747 0 0 2.99366 0 7.28559V28.0426V28.0579Z" fill="#003E7B"/>
<path d="M72.9163 35.3434H81.5155V32.4109L74.291 24.1478L75.2838 24.0714C79.3924 23.7354 82.2792 20.757 82.2792 16.8163V7.30079C82.2792 3.6809 79.6063 0.0151978 74.4743 0.0151978H43.7129V35.3434H52.0524V24.1172H63.691L72.9163 35.3434ZM52.0524 8.50741H71.6181C72.9316 8.50741 73.9396 9.50021 73.9396 10.829V13.2881C73.9396 14.6169 72.9469 15.6097 71.6181 15.6097H52.0524V8.50741Z" fill="#003E7B"/>
<path d="M5.17896 51.9142H6.40084C6.37029 52.0822 6.30914 52.2655 6.24805 52.4335C6.17168 52.6168 6.06481 52.8154 5.91207 53.0445C5.75933 53.2736 5.57599 53.4722 5.37743 53.6402C5.17887 53.8082 4.91929 53.9609 4.59855 54.0831C4.2778 54.2053 3.9265 54.2664 3.54465 54.2664C2.67405 54.2664 1.94092 53.9609 1.36051 53.35C0.764837 52.739 0.474609 51.9601 0.474609 51.0131C0.474609 50.0661 0.764837 49.2871 1.36051 48.6762C1.95619 48.0652 2.68932 47.7598 3.54465 47.7598C3.89595 47.7598 4.23192 47.8209 4.53739 47.9278C4.84287 48.0347 5.10252 48.1722 5.30108 48.3249C5.49964 48.4929 5.68299 48.6762 5.85101 48.89C6.00374 49.1039 6.12592 49.3024 6.21756 49.501C6.29393 49.6995 6.35502 49.8828 6.40084 50.0661H5.17896C5.05677 49.7454 4.8582 49.4704 4.59855 49.2413C4.33889 49.0122 3.98761 48.89 3.55994 48.89C3.01008 48.89 2.55185 49.0886 2.20055 49.4704C1.84926 49.8675 1.66591 50.3716 1.66591 51.0131C1.66591 51.6546 1.84926 52.1586 2.20055 52.5557C2.55185 52.9528 3.01008 53.1361 3.55994 53.1361C3.98761 53.1361 4.33881 53.0139 4.61374 52.7696C4.87339 52.5252 5.07196 52.235 5.19415 51.9142H5.17896Z" fill="#003E7B"/>
<path d="M6.67383 54.1758L8.93432 47.8525H10.645L12.9056 54.1758H11.5919L11.1185 52.8165H8.46083L7.98735 54.1758H6.67383ZM8.84268 51.732H10.7366L9.88128 49.1966H9.698L8.84268 51.732Z" fill="#003E7B"/>
<path d="M13.7165 54.1758V47.8525H16.6032C17.1684 47.8525 17.6418 48.051 18.0237 48.4482C18.4055 48.8453 18.5888 49.3493 18.5888 49.9755C18.5888 50.5712 18.4055 51.0447 18.0543 51.4113C17.703 51.7931 17.2599 51.9764 16.7406 52.0069L18.7721 54.1758H17.2753L15.2438 52.0069H14.8773V54.1758H13.7012H13.7165ZM14.8926 50.9225H16.5726C16.8018 50.9225 17.0003 50.8309 17.1683 50.6476C17.3364 50.4643 17.428 50.2352 17.428 49.9755C17.428 49.6853 17.3516 49.4409 17.1836 49.2577C17.0156 49.0744 16.817 48.9827 16.5726 48.9827H14.8926V50.9225Z" fill="#003E7B"/>
<path d="M21.2313 54.1758L19.0625 47.8525H20.376L21.995 52.7401H22.1783L23.8126 47.8525H25.1262L22.9573 54.1758H21.2313Z" fill="#003E7B"/>
<path d="M25.9824 54.1758V47.8525H27.1584V54.1758H25.9824Z" fill="#003E7B"/>
<path d="M28.6406 54.1758V47.8525H29.8166V53.0608H32.795V54.1911H28.6406V54.1758Z" fill="#003E7B"/>
<path d="M33.8027 54.1758V47.8525H34.9788V53.0608H37.9724V54.1911H33.818L33.8027 54.1758Z" fill="#003E7B"/>
<path d="M38.9492 54.1758V47.8525H43.1953V48.9369H40.1252V50.4796H43.012V51.564H40.1252V53.1067H43.1953V54.1911H38.9492V54.1758Z" fill="#003E7B"/>
<path d="M46.9082 54.1758V47.8525H49.795C50.3601 47.8525 50.8336 48.051 51.2154 48.4482C51.5973 48.8453 51.7958 49.3493 51.7958 49.9755C51.7958 50.5712 51.6126 51.0447 51.2613 51.4113C50.91 51.7931 50.4671 51.9764 49.9478 52.0069L51.9791 54.1758H50.4823L48.4509 52.0069H48.0843V54.1758H46.9082ZM48.0843 50.9225H49.7645C49.9936 50.9225 50.1921 50.8309 50.3601 50.6476C50.5281 50.4643 50.6198 50.2352 50.6198 49.9755C50.6198 49.6853 50.5434 49.4409 50.3601 49.2577C50.1921 49.0744 49.9936 48.9827 49.7492 48.9827H48.069V50.9225H48.0843Z" fill="#003E7B"/>
<path d="M52.3926 54.1758L54.6531 47.8525H56.3637L58.6243 54.1758H57.3107L56.8372 52.8165H54.1796L53.7061 54.1758H52.3926ZM54.5614 51.732H56.4706L55.6153 49.1966H55.432L54.5767 51.732H54.5614Z" fill="#003E7B"/>
<path d="M63.6926 51.9142H64.9145C64.884 52.0822 64.8228 52.2655 64.7617 52.4335C64.6853 52.6168 64.5785 52.8153 64.4257 53.0444C64.273 53.2735 64.0898 53.4721 63.8912 53.6401C63.6926 53.8081 63.433 53.9609 63.1122 54.083C62.7915 54.2052 62.4402 54.2663 62.0583 54.2663C61.1877 54.2663 60.4546 53.9609 59.8742 53.3499C59.2785 52.739 58.9883 51.96 58.9883 51.013C58.9883 50.066 59.2785 49.2871 59.8742 48.6761C60.4699 48.0652 61.203 47.7597 62.0583 47.7597C62.4096 47.7597 62.7456 47.8208 63.0511 47.9277C63.3565 48.0346 63.6162 48.1721 63.8148 48.3248C64.0286 48.4928 64.1967 48.6761 64.3647 48.89C64.5174 49.1038 64.6396 49.3024 64.7159 49.5009C64.8076 49.6995 64.8687 49.8828 64.8992 50.066H63.6773C63.5551 49.7453 63.3566 49.4704 63.0969 49.2413C62.822 49.0122 62.486 48.89 62.0583 48.89C61.4932 48.89 61.0502 49.0885 60.6836 49.4704C60.3324 49.8675 60.1491 50.3715 60.1491 51.013C60.1491 51.6545 60.3324 52.1585 60.6836 52.5557C61.0349 52.9528 61.4932 53.1361 62.0583 53.1361C62.486 53.1361 62.8373 53.0139 63.1122 52.7695C63.3871 52.5251 63.5704 52.2349 63.6773 51.9142H63.6926Z" fill="#003E7B"/>
<path d="M66.0449 54.1758V47.8525H67.221V54.1758H66.0449Z" fill="#003E7B"/>
<path d="M68.7012 54.1758V47.8525H70.2896L72.596 52.236H72.7792V47.8525H73.9554V54.1758H72.3669L70.0606 49.7922H69.8773V54.1758H68.7012Z" fill="#003E7B"/>
<path d="M80.2506 54.1747L80.159 53.4569H80.1132C80.0063 53.6096 79.8535 53.7471 79.6549 53.8693C79.2425 54.1442 78.7843 54.2817 78.2497 54.2817C77.3791 54.2817 76.6613 53.9762 76.0656 53.3652C75.4699 52.7543 75.1797 51.9753 75.1797 51.0283C75.1797 50.0814 75.4699 49.3024 76.0656 48.6915C76.6613 48.0805 77.3791 47.775 78.2497 47.775C78.6621 47.775 79.044 47.8514 79.38 47.9889C79.7313 48.1263 80.0062 48.3096 80.2353 48.5387C80.4644 48.7678 80.6478 49.0122 80.7852 49.2566C80.9227 49.5162 81.0295 49.7759 81.0906 50.0355H79.8687C79.5174 49.2871 78.9676 48.9053 78.2344 48.9053C77.6846 48.9053 77.2264 49.1038 76.8599 49.4857C76.5086 49.8828 76.3252 50.3868 76.3252 51.0283C76.3252 51.6698 76.5086 52.1739 76.8599 52.571C77.2112 52.9681 77.6693 53.1514 78.2344 53.1514C78.5094 53.1514 78.769 53.1056 78.9981 52.9987C79.2272 52.8917 79.4106 52.7696 79.5481 52.6168C79.6855 52.4641 79.7771 52.3266 79.8535 52.1739C79.9298 52.0211 79.9604 51.8989 79.9604 51.792V51.7462H78.3719V50.8451H81.1365V54.19H80.2353L80.2506 54.1747Z" fill="#003E7B"/>
</svg>
