<svg width="94" height="21" viewBox="0 0 94 21" fill="none" xmlns="http://www.w3.org/2000/svg">
<path d="M92.546 11.9507C92.376 12.3701 92.1185 12.9484 91.8135 13.4443C91.4035 14.1241 90.3538 14.7521 89.9858 14.0685C89.8386 13.7909 89.6809 13.4481 89.532 13.025C88.98 11.4586 87.9846 10.3633 86.6423 10.5184C86.3724 10.551 85.5296 10.708 85.1213 10.775C85.6294 9.82718 86.7457 8.51935 88.8135 8.43701C90.1558 8.38339 89.8982 9.12827 89.8772 9.23741C89.8053 9.51123 89.7755 10.1872 90.5956 10.4476C91.7487 10.731 92.928 9.28911 91.8521 7.86447C90.7376 6.33643 87.2591 6.43792 85.2737 8.98848C85.265 8.99997 85.2597 9.00955 85.2527 9.02103L85.8187 7.21151H81.2678L79.5592 12.6707C79.3788 12.8718 78.9967 12.979 78.7724 13.0135C79.158 11.8531 78.853 10.6391 78.6305 10.1106C78.4079 9.58208 77.6036 8.24744 75.881 7.57342C74.027 6.79599 71.5387 7.18088 70.7431 7.44129C69.9493 7.70171 69.2343 8.05596 68.5982 8.50786C67.8675 9.02869 67.2804 9.66251 66.8371 10.4093C66.3902 11.1561 66.1694 11.9354 66.1694 12.7531C66.1694 13.1915 66.2465 13.6262 66.3955 14.0609C66.017 14.3577 65.465 14.5224 65.1969 14.0666C65.0497 13.789 64.8902 13.4462 64.7412 13.023C64.1893 11.4567 63.1554 10.4284 61.8516 10.5165C61.3382 10.551 60.6828 10.6142 60.0204 10.7808C60.462 9.98228 61.799 8.49063 63.6758 8.41403C64.8464 8.36425 64.6974 9.16848 64.6974 9.16848C64.6974 9.16848 64.4574 10.1967 65.493 10.3997C66.7109 10.664 67.8429 9.28145 66.7127 7.76873C65.7103 6.42452 62.7085 6.44175 60.6197 8.54998L62.6139 2.20996H58.063L56.1196 8.38722C54.7913 6.61026 50.9869 6.41303 49.8532 7.6232C48.3619 9.21443 49.359 10.5625 50.4122 10.3767C51.376 10.2408 51.439 9.37336 51.4478 9.01912C51.4583 8.5519 52.0804 8.28382 53.4227 8.40254C55.1786 8.55956 55.5256 9.94973 55.4064 10.6582L55.3941 10.6946C55.14 10.6601 54.6564 10.5931 54.4286 10.5625C51.3725 10.1565 50.6838 11.3533 49.8146 13.0594C49.2854 14.0973 48.5967 15.2691 47.7451 16.351C45.495 19.2118 43.1959 18.9724 43.1959 18.9724L42.6982 19.8762C42.6982 19.8762 43.7321 20.5081 46.4834 20.1252C49.4045 19.7173 51.6458 17.3716 53.3071 13.8656C53.9922 12.4218 54.6266 11.9565 55.0384 11.8186L53.5594 16.5253H58.1085L59.577 11.8588C59.917 12.1001 60.4865 12.6937 60.681 14.0168C60.865 15.5583 61.8253 16.8393 64.0263 16.7321C65.3914 16.6651 66.42 16.1251 67.184 15.4319C67.3593 15.6464 68.2179 16.531 69.4779 16.9542C70.2402 17.2242 71.1146 17.3506 72.2887 17.3582C74.7858 17.2682 76.0983 16.2878 77.0306 15.5085C77.2198 15.6311 77.4231 15.7306 77.6387 15.8072C77.8524 15.8857 78.2345 15.9527 78.5394 15.9125L78.3484 16.5234H82.8975L84.3607 11.8531C84.6972 12.0924 85.2737 12.6841 85.47 14.0149C85.654 15.5564 86.6125 16.8374 88.8152 16.7302C92.9631 16.5272 94.0005 11.9699 94.0005 11.9699C94.0005 11.9699 93.4835 11.7114 93.2189 11.5927C92.9596 11.4759 92.6845 11.6099 92.546 11.9507ZM73.7589 10.7616C73.4487 11.2212 73.27 11.7133 73.2227 12.2341C73.1947 12.7358 73.291 13.0537 73.4242 13.3409C73.5591 13.6281 73.7554 13.8656 74.0095 14.0571C73.7572 14.6966 73.3051 15.2768 72.9966 15.5794C72.6882 15.8838 72.3342 16.0351 71.9382 16.0351C71.1426 16.0178 70.9657 14.1202 71.1286 12.8316C71.2232 12.2073 71.3827 11.5946 71.6053 10.9952C72.1555 9.31209 73.2718 8.36233 74.034 8.35467C74.2899 8.35467 74.5002 8.47148 74.6666 8.70509C74.8349 8.94061 74.9242 9.32741 74.94 9.86548C74.4634 10.0033 74.0708 10.304 73.7589 10.7616Z" fill="#204A8F"/>
<path d="M45.3774 16.6597C45.9224 16.6616 46.4095 16.5888 46.8494 16.4644C47.2051 16.1848 47.7343 15.6793 48.2881 14.8406C48.9347 13.8621 49.0539 13.4868 49.0539 13.4868L48.6543 13.1632C48.6456 13.1728 48.6385 13.1824 48.6315 13.1919C47.8237 14.1072 46.9037 14.2202 47.0088 13.4734C47.1122 12.7266 48.954 7.23487 48.954 7.23487H44.4504C44.4504 7.23487 43.8458 9.31055 43.2167 10.9535C42.5894 12.5964 41.5222 14.0345 40.646 13.8525C40.2132 13.7242 40.4795 13.1 40.5707 12.8664C40.6583 12.6328 42.3528 7.23295 42.3528 7.23295H37.8265C37.8265 7.23295 37.2096 9.19758 36.6594 10.9171L35.9129 11.2924C35.9672 9.52118 34.9754 7.97017 33.6471 7.41869C31.3304 6.45361 29.6815 7.93378 29.6815 7.93378C29.6815 7.93378 29.4887 7.9874 29.5781 7.68485C29.5781 7.68485 30.1231 5.05387 31.2814 3.74221C32.4397 2.43054 33.7434 2.97244 33.2458 4.0122C32.7499 5.05195 30.4315 5.73747 30.4315 5.73747L30.2983 6.36553C30.2983 6.36553 32.1295 6.97445 35.1488 5.98065C38.1682 4.98685 38.2102 1.82162 36.4298 1.25675C31.8912 -0.106615 27.335 3.60242 25.3268 7.8323C24.887 8.75716 24.5681 9.59395 24.3543 10.3503L23.7006 10.6548C24.1738 9.19758 24.4629 6.98785 23.5604 4.86047C23.1294 3.95858 22.4232 3.22137 21.4401 2.64692C20.6603 2.19502 19.7823 1.86567 18.8063 1.65886C15.6766 1.01548 12.3926 1.06718 9.57657 1.60525C8.01872 1.91928 6.54147 2.45735 5.14484 3.21946C3.74645 3.98348 2.73884 5.11897 2.12026 6.62978C1.95378 7.097 1.83287 7.84379 1.83287 8.08697C1.83287 8.73036 2.01511 9.29332 2.38136 9.77969C2.7476 10.2661 3.28733 10.5246 4.00054 10.5609C4.57181 10.5954 5.04495 10.492 5.41996 10.2488C6.25584 9.68969 6.3382 8.90652 6.02803 8.65951C5.83702 8.52164 5.69508 8.37803 5.5987 8.23058C5.00114 7.27891 5.7459 6.01703 6.81835 5.02515C8.09407 3.75752 10.3231 2.50905 13.7174 2.26012C16.3074 2.08396 19.3968 1.91545 18.7975 5.97682C18.6083 7.22721 18.405 8.38569 17.7023 10.1703C17.2099 11.3154 16.5492 12.3705 15.7134 13.3336C14.881 14.2949 13.8979 14.7793 12.7711 14.7793C12.2261 14.7966 11.7057 14.6127 11.4849 14.5438C11.739 14.2853 11.9615 14.0038 12.1525 13.6974C12.3418 13.3949 12.4943 13.0598 12.6047 12.6941C12.694 12.4164 13.7051 9.20715 14.1485 7.794L14.1537 7.79209C14.8705 5.24535 16.2426 4.23623 16.7175 4.03326C17.1941 3.83029 17.5043 3.85327 17.5043 3.85327V3.28647C17.5043 3.28647 15.2087 2.7216 12.5608 3.39945C9.91478 4.07539 8.64782 5.57853 7.91708 7.92995C7.45971 9.41778 6.84639 11.3479 6.4118 12.6941C6.09462 12.5217 5.75641 12.3819 5.39893 12.2785C5.04145 12.1751 3.94447 11.8018 2.19561 12.1751C1.54373 12.3302 1.04781 12.6002 0.704344 12.9813C-0.0281447 13.8181 0.136578 14.7966 0.59745 15.4304C0.82 15.7425 1.13017 16.0201 1.5262 16.2633C1.96955 16.5065 2.45846 16.6846 2.99118 16.7976C4.78035 17.1173 6.56425 16.832 7.25644 16.6674C8.46382 16.4108 9.92704 15.7004 10.0059 15.664C10.0865 15.6812 11.7162 16.2442 12.9849 16.4069C13.4931 16.4682 14.5971 16.5008 15.2472 16.472C16.9803 16.3859 18.6275 15.9167 20.1906 15.0665C20.2292 15.0455 20.2625 15.0225 20.301 14.9995C22.2795 13.9368 23.6043 12.6136 24.0318 12.1579C23.9477 13.4792 24.2702 14.4921 24.8747 15.2791C26.224 17.1173 31.1342 17.5999 33.7697 15.3002C33.973 15.1297 34.157 14.9574 34.3287 14.7793C35.0069 14.1168 35.5974 13.4236 36.046 12.8587C35.615 14.5151 36.3194 16.7191 38.3241 16.6539C40.9912 16.631 42.6665 14.4404 42.6665 14.4404C42.6665 14.4404 42.7751 16.6463 45.3774 16.6597ZM4.75056 14.8119C4.36153 15.0551 3.96024 15.2102 3.54843 15.2791C2.5969 15.4151 2.07995 15.2063 1.86266 15.0934C1.70319 15.0053 1.59279 14.8291 1.59279 14.6568C1.59279 13.9579 2.77739 13.6764 2.99819 13.64C3.21548 13.6055 4.03559 13.4428 5.76167 13.9521C5.47779 14.2815 5.13958 14.5687 4.75056 14.8119ZM29.869 14.6223C28.9875 15.708 28.2042 15.5912 28.2042 15.5912C27.2772 15.5567 27.0284 13.7702 28.6966 10.626C30.1879 7.81698 31.4058 9.09034 31.4969 9.59203C31.588 10.111 31.6056 12.1522 29.869 14.6223Z" fill="#204A8F"/>
</svg>
