<svg width="108" height="58" viewBox="0 0 108 58" fill="none" xmlns="http://www.w3.org/2000/svg">
<path d="M0 33.1135H11.2568L9.97363 57.185L29.0658 24.0562L17.7938 24.0715L19.1075 0L0 33.1135Z" fill="#003E7B"/>
<path d="M37.757 23.9041C35.6645 23.9041 33.8928 23.3236 32.4723 22.1628C31.0519 21.002 30.334 19.4136 30.334 17.3974H32.4571C32.4571 18.8026 32.9458 19.9023 33.9233 20.6813C34.9008 21.4602 36.1838 21.8421 37.757 21.8421C39.0858 21.8421 40.2007 21.5061 41.1019 20.8493C42.003 20.1773 42.446 19.2914 42.446 18.1917C42.446 17.1683 42.049 16.3435 41.2395 15.7479C40.43 15.1369 39.2538 14.5412 37.6959 13.9608C35.5728 13.1666 34.1676 12.5556 33.4956 12.0822C31.8002 10.9977 30.9601 9.48561 30.9601 7.54584C30.9601 5.86573 31.5865 4.53691 32.8542 3.51357C34.1219 2.5055 35.6187 2.00146 37.3446 2.00146C39.208 2.00146 40.7659 2.55132 42.0488 3.63576C43.3318 4.7202 43.9734 6.20175 43.9734 8.04988H41.8503C41.8503 6.78215 41.438 5.78936 40.5979 5.10204C39.7579 4.39945 38.6734 4.06342 37.3446 4.06342C36.138 4.06342 35.1146 4.3689 34.3051 4.97985C33.4956 5.5908 33.0832 6.44613 33.0832 7.53057C33.0832 8.61501 33.465 9.45507 34.2287 10.0507C34.9924 10.6464 36.1685 11.2421 37.7417 11.853C39.8953 12.6931 41.3463 13.3499 42.0641 13.8234C43.7443 14.9078 44.5691 16.3588 44.5691 18.1764C44.5691 19.8871 43.8971 21.277 42.553 22.3156C41.2089 23.3695 39.6051 23.8888 37.757 23.8888V23.9041Z" fill="#003E7B"/>
<path d="M58.9417 2.3526V4.35346H53.0461V23.5373H50.923V4.35346H45.0273V2.3526H58.9417Z" fill="#003E7B"/>
<path d="M73.8044 23.5373L71.834 18.329H61.7839L59.8136 23.5373H57.5684L65.7092 2.3526H67.8934L76.0343 23.5373H73.7891H73.8044ZM62.5476 16.3281H71.0856L66.8244 4.97969L62.5629 16.3281H62.5476Z" fill="#003E7B"/>
<path d="M92.2985 23.5373L84.8602 15.0604H80.1407V23.5373H78.0176V2.3526H85.578C87.3345 2.3526 88.8314 2.97882 90.0686 4.216C91.3058 5.45317 91.932 6.95001 91.932 8.70649C91.932 10.1422 91.489 11.4252 90.6184 12.5708C89.7478 13.7163 88.6329 14.4647 87.2736 14.8313L94.9561 23.5526H92.2985V23.5373ZM80.1407 4.35346V13.0748H85.5933C86.7694 13.0748 87.7623 12.6471 88.5871 11.7918C89.4119 10.9365 89.8242 9.91312 89.8242 8.72176C89.8242 7.53041 89.4119 6.47652 88.5871 5.63646C87.7623 4.7964 86.7541 4.36874 85.5933 4.36874H80.1407V4.35346Z" fill="#003E7B"/>
<path d="M107.207 2.3526V4.35346H101.312V23.5373H99.1886V4.35346H93.293V2.3526H107.207Z" fill="#003E7B"/>
<path d="M36.5181 54.5445L29.4922 32.0004H35.1283L39.802 48.5877L44.4758 32.0004H50.1118L43.0859 54.5445H36.5181Z" fill="#003E7B"/>
<path d="M70.9301 51.6109C68.6544 53.8714 65.8899 54.9864 62.6213 54.9864C59.3527 54.9864 56.5881 53.8562 54.3123 51.6109C52.0365 49.3504 50.9062 46.5706 50.9062 43.2714C50.9062 39.9723 52.0365 37.1925 54.3123 34.932C56.5881 32.6714 59.3527 31.5565 62.6213 31.5565C65.8899 31.5565 68.6544 32.6867 70.9301 34.932C73.2059 37.1925 74.3362 39.9723 74.3362 43.2714C74.3362 46.5706 73.1907 49.3504 70.9301 51.6109ZM57.9321 48.098C59.1846 49.3504 60.7426 49.9614 62.6213 49.9614C64.5 49.9614 66.0578 49.3351 67.3103 48.098C68.5627 46.8608 69.1889 45.2418 69.1889 43.2714C69.1889 41.3011 68.5627 39.6821 67.3103 38.4449C66.0578 37.2078 64.5 36.5815 62.6213 36.5815C60.7426 36.5815 59.1846 37.2078 57.9321 38.4449C56.6797 39.6974 56.0535 41.3011 56.0535 43.2714C56.0535 45.2418 56.6797 46.8608 57.9321 48.098Z" fill="#003E7B"/>
<path d="M83.1961 49.5949H90.9245V54.5589H78.0488V32.0148H83.1961V49.5949Z" fill="#003E7B"/>
<path d="M107.19 32.0148V36.9787H102.043V54.5589H96.8953V36.9787H91.748V32.0148H107.205H107.19Z" fill="#003E7B"/>
</svg>
