<svg width="96" height="55" viewBox="0 0 96 55" fill="none" xmlns="http://www.w3.org/2000/svg">
<path d="M84.5391 9.04292V45.3029C85.9901 45.0432 87.4105 44.7683 88.8004 44.4628V9.85243C87.4105 9.56223 85.9901 9.2873 84.5391 9.02765V9.04292Z" fill="#003E7B"/>
<path d="M36.3965 6.24669V48.2037C37.8017 48.2648 39.2221 48.3259 40.6578 48.3717V6.07867C39.2221 6.1245 37.8017 6.18559 36.3965 6.24669Z" fill="#003E7B"/>
<path d="M66.2107 43.8495V6.68847C64.8055 6.58155 63.385 6.47464 61.9492 6.383V48.004C63.385 47.9124 64.8055 47.8055 66.2107 47.6833C67.7839 47.5458 69.357 47.4083 70.8996 47.2403V43.4066C69.357 43.5746 67.7991 43.7121 66.2107 43.8495Z" fill="#003E7B"/>
<path d="M77.5153 42.5975V7.92606C76.1101 7.7275 74.6896 7.55949 73.2539 7.39148V46.9811C74.6896 46.8131 76.1101 46.6298 77.5153 46.4312C79.1037 46.2021 80.6617 45.973 82.2043 45.7134V41.8796C80.6769 42.1393 79.1037 42.3837 77.5153 42.5975Z" fill="#003E7B"/>
<path d="M12.9682 8.73723C11.5172 8.98161 10.0967 9.24127 8.70678 9.51619C7.40851 9.77585 6.1255 10.0355 4.87305 10.3104V14.1441C6.1255 13.8692 7.40851 13.5943 8.70678 13.3499V45.0277C10.0967 45.2874 11.5172 45.547 12.9682 45.7914V12.5709C14.2359 12.3571 15.5036 12.1586 16.8019 11.96V8.12628C15.5036 8.30957 14.2206 8.5234 12.9682 8.73723Z" fill="#003E7B"/>
<path d="M51.304 5.11569C47.5466 5.06987 44.4766 8.09407 44.4766 11.8361V48.4474C45.4235 48.4474 46.3553 48.4627 47.3176 48.4627C47.791 48.4627 48.2645 48.4627 48.738 48.4627V31.9059H53.8547V48.3863C55.2904 48.3405 56.7108 48.2946 58.116 48.2335V11.8361C58.116 8.15517 55.1682 5.16151 51.4873 5.11569C51.4262 5.11569 51.3651 5.11569 51.304 5.11569ZM48.738 27.2168V12.3555C48.738 10.9503 49.8988 9.80474 51.304 9.82001C51.3193 9.82001 51.3345 9.82001 51.3498 9.82001C52.7397 9.83528 53.8394 10.9655 53.8394 12.3555V27.2168H48.7227H48.738Z" fill="#003E7B"/>
<path d="M32.5634 22.9566V11.0737C32.5634 8.58403 30.4251 6.61371 27.9355 6.82755C27.7216 6.84282 27.5078 6.8581 27.3245 6.87337C25.736 7.01083 25.1556 7.0872 23.613 7.25521C22.1772 7.40795 20.7567 7.59124 19.3516 7.77452V46.7226C20.7567 46.9059 22.1772 47.0739 23.613 47.2267V29.5549H25.3236C26.9732 29.5549 28.302 30.8837 28.302 32.5333V47.6696C29.7072 47.7918 31.1276 47.8987 32.5634 47.9904V31.4641C32.5634 29.4327 31.1429 27.7373 29.249 27.3097V27.0958C31.1429 26.6682 32.5634 24.9728 32.5634 22.9414V22.9566ZM28.302 21.8875C28.302 23.5371 26.9732 24.8659 25.3236 24.8659H23.613V11.0889C24.3919 10.9973 25.1861 10.9209 25.9651 10.8446C27.2175 10.7224 28.2867 11.7152 28.2867 12.9676V21.8875H28.302Z" fill="#003E7B"/>
<path d="M93.4908 4.9487C80.5692 1.83285 64.8524 0 47.9138 0C30.9752 0 15.2585 1.83285 2.33688 4.9487C1.54265 5.13199 0.763689 5.33054 0 5.5291V48.9066C0.763689 49.1052 1.55792 49.3037 2.33688 49.487C15.2585 52.6029 30.9752 54.4357 47.9138 54.4357C64.8524 54.4357 80.5692 52.6029 93.4908 49.487C94.285 49.3037 95.0639 49.1052 95.8276 48.9066V5.5291C95.0639 5.33054 94.2697 5.13199 93.4908 4.9487ZM93.4908 47.364C80.5692 50.4798 64.8524 52.3127 47.9138 52.3127C30.9752 52.3127 15.2585 50.4798 2.33688 47.364V7.07175C15.2585 3.95591 30.9752 2.12305 47.9138 2.12305C64.8524 2.12305 80.5692 3.95591 93.4908 7.07175V47.364Z" fill="#003E7B"/>
</svg>
