<svg width="177" height="96" viewBox="0 0 177 96" fill="none" xmlns="http://www.w3.org/2000/svg">
<g clip-path="url(#clip0_4334_7689)">
<path d="M136.96 84.5753C140.857 91.2998 148.032 96 154.716 96C160.389 96 177.351 96 177.351 96L175.249 92.5644C175.249 92.5644 169.321 90.9796 165.391 84.2008L143.252 46.0027H114.603L136.96 84.5753Z" fill="#CCD7E5"/>
<path d="M79.6608 84.5753C83.5583 91.2998 90.7329 96 97.4176 96C103.09 96 120.052 96 120.052 96L117.956 92.5644C117.956 92.5644 112.028 90.9796 108.098 84.2008L85.9589 46.0027H57.3096L79.6662 84.5753H79.6608Z" fill="#CCD7E5"/>
<path d="M22.3566 84.5753C26.2542 91.2998 33.4288 96 40.1135 96C45.7856 96 62.7477 96 62.7477 96L60.6465 92.5644C60.6465 92.5644 54.7185 90.9796 50.7883 84.2008L28.6494 46.0027H0L22.3566 84.5753Z" fill="#4389C8"/>
<path d="M165.609 7.42469C169.507 0.705563 176.681 -4 183.366 -4C189.038 -4 206 -4 206 -4L203.899 -0.564451C203.899 -0.564451 197.971 1.02035 194.041 7.79919L171.902 45.9973H143.252L165.609 7.42469Z" fill="#CCD7E5"/>
<path d="M108.31 7.42469C112.202 0.705563 119.382 -4 126.067 -4C131.739 -4 148.701 -4 148.701 -4L146.606 -0.564451C146.606 -0.564451 140.678 1.02578 136.747 7.79919L114.603 45.9973H85.9536L108.31 7.42469Z" fill="#CCD7E5"/>
<path d="M51.006 7.42469C54.9036 0.705563 62.0837 -4 68.7629 -4C74.4351 -4 91.3917 -4 91.3917 -4L89.2959 -0.564451C89.2959 -0.564451 83.3679 1.02578 79.4377 7.79919L57.2988 45.9973H28.6494L51.006 7.42469Z" fill="#CCD7E5"/>
</g>
<defs>
<clipPath id="clip0_4334_7689">
<rect width="206" height="100" fill="white" transform="translate(0 -4)"/>
</clipPath>
</defs>
</svg>
