<svg width="77" height="77" viewBox="0 0 77 77" fill="none" xmlns="http://www.w3.org/2000/svg">
    <g clip-path="url(#clip0_5801_5516)">
        <g clip-path="url(#clip1_5801_5516)">
            <path
                d="M60.9963 65.8059C59.245 65.8059 58.4212 65.3809 57.4675 64.8884C56.425 64.3509 55.2425 63.7422 52.9912 63.7422C50.74 63.7422 49.56 64.3509 48.5187 64.8884C47.565 65.3809 46.7412 65.8059 44.9925 65.8059C43.2438 65.8059 42.4188 65.3809 41.465 64.8884C40.4225 64.3509 39.24 63.7422 36.99 63.7422C34.74 63.7422 33.5588 64.3509 32.5175 64.8884C31.5637 65.3809 30.74 65.8059 28.9912 65.8059C27.2425 65.8059 26.42 65.3809 25.4662 64.8884C24.425 64.3509 23.2437 63.7422 20.995 63.7422C18.7463 63.7422 17.565 64.3509 16.5225 64.8884C15.57 65.3809 14.7463 65.8059 12.9988 65.8059C11.2513 65.8059 10.4275 65.3809 9.47375 64.8884C8.43 64.3509 7.25 63.7422 5 63.7422V65.8072C6.74875 65.8072 7.57125 66.2322 8.525 66.7247C9.56625 67.2622 10.7463 67.8709 12.9963 67.8709C15.2463 67.8709 16.4262 67.2622 17.4675 66.7247C18.42 66.2322 19.2438 65.8072 20.9925 65.8072C22.7413 65.8072 23.5637 66.2322 24.5175 66.7247C25.5575 67.2622 26.7388 67.8709 28.9888 67.8709C31.2388 67.8709 32.42 67.2622 33.4613 66.7247C34.415 66.2322 35.2375 65.8072 36.9875 65.8072C38.7375 65.8072 39.5612 66.2322 40.515 66.7247C41.5575 67.2622 42.7388 67.8709 44.99 67.8709C47.2413 67.8709 48.4213 67.2622 49.4625 66.7247C50.4163 66.2322 51.2388 65.8072 52.9888 65.8072C54.7388 65.8072 55.5638 66.2322 56.5175 66.7247C57.5588 67.2622 58.7413 67.8709 60.9938 67.8709C63.2463 67.8709 64.4275 67.2622 65.4688 66.7247C66.4225 66.2322 67.2475 65.8072 68.9975 65.8072V63.7422C66.745 63.7422 65.5638 64.3509 64.5213 64.8884C63.5675 65.3809 62.7425 65.8059 60.9925 65.8059H60.9963Z"
                fill="#204A8F" />
            <path
                d="M60.9963 69.9341C58.2438 69.9341 56.7013 69.1379 55.575 68.5579C54.65 68.0804 54.1912 67.8691 52.9912 67.8691C51.7912 67.8691 51.335 68.0791 50.4113 68.5566C49.285 69.1379 47.7425 69.9341 44.9925 69.9341C42.2425 69.9341 40.6975 69.1379 39.5725 68.5566C38.6487 68.0791 38.1887 67.8691 36.9912 67.8691C35.7937 67.8691 35.335 68.0791 34.4112 68.5566C33.285 69.1379 31.7425 69.9341 28.9925 69.9341C26.2425 69.9341 24.6987 69.1379 23.5737 68.5566C22.6512 68.0791 22.1925 67.8691 20.9963 67.8691C19.8 67.8691 19.3412 68.0791 18.4175 68.5566C17.2925 69.1379 15.7513 69.9341 12.9988 69.9341C10.2463 69.9341 8.705 69.1379 7.58 68.5566C6.655 68.0804 6.19625 67.8704 5 67.8704V69.9354C5.745 69.9354 5.88 70.0041 6.63125 70.3929C7.79625 70.9941 9.74375 72.0004 12.9975 72.0004C16.2513 72.0004 18.1988 70.9941 19.3638 70.3929C20.1138 70.0041 20.2487 69.9354 20.995 69.9354C21.7412 69.9354 21.875 70.0041 22.6262 70.3929C23.79 70.9941 25.7388 72.0004 28.9925 72.0004C32.2463 72.0004 34.195 70.9941 35.36 70.3929C36.11 70.0041 36.2463 69.9354 36.9925 69.9354C37.7388 69.9354 37.875 70.0054 38.6263 70.3929C39.7913 70.9941 41.74 72.0004 44.9938 72.0004C48.2475 72.0004 50.1963 70.9941 51.3613 70.3929C52.1113 70.0041 52.2475 69.9354 52.9938 69.9354C53.74 69.9354 53.8787 70.0054 54.63 70.3941C55.795 70.9954 57.7437 72.0004 60.9987 72.0004C64.2537 72.0004 66.2025 70.9954 67.3662 70.3941C68.1175 70.0054 68.2525 69.9354 69.0025 69.9354V67.8704C67.8025 67.8704 67.3438 68.0816 66.42 68.5591C65.2925 69.1391 63.75 69.9354 60.9987 69.9354L60.9963 69.9341Z"
                fill="#204A8F" />
            <path
                d="M65.9038 53.4187V45.9075L61.775 39.025L58.6787 44.1862L55.5825 39.025L53.5175 42.465V39.755L49.3887 31.4975L47.3237 35.6262V28.6437H42.77C44.3037 27.3312 45.26 25.5037 45.26 23.4825C45.26 20.4575 43.1213 17.8625 40.0988 16.7887V12.1275H38.0337V8H35.9688V12.1287H33.9037V16.79C30.8812 17.865 28.7425 20.4575 28.7425 23.4837C28.7425 25.505 29.6987 27.3325 31.2325 28.645H26.6787V35.6275L24.6138 31.4987L20.485 39.7562V42.4662L18.42 39.0262L15.3237 44.1875L12.2275 39.0262L8.09875 45.9087V53.42H5V61.6425L5.9575 61.7125C8.12875 61.8713 9.4525 62.5562 10.42 63.055C11.3425 63.5325 11.8012 63.7425 12.9975 63.7425C14.1938 63.7425 14.6525 63.5325 15.575 63.055C16.7 62.4737 18.2425 61.6775 20.9937 61.6775C23.745 61.6775 25.2875 62.4737 26.4125 63.055C27.335 63.5325 27.7938 63.7425 28.99 63.7425C30.1862 63.7425 30.6462 63.5325 31.57 63.055C32.695 62.4737 34.2375 61.6775 36.9888 61.6775C39.74 61.6775 41.2837 62.4737 42.4087 63.055C43.3325 63.5325 43.7913 63.7425 44.99 63.7425C46.1888 63.7425 46.6462 63.5325 47.57 63.055C48.695 62.4737 50.2375 61.6775 52.9888 61.6775C55.74 61.6775 57.2837 62.4737 58.41 63.0537C59.3338 63.5312 59.7938 63.7425 60.9938 63.7425C62.1938 63.7425 62.6512 63.5325 63.575 63.055C64.5438 62.555 65.8675 61.8725 68.04 61.7125L68.9975 61.6425V53.42H65.9012L65.9038 53.4187ZM61.7738 53.4187V49.29H55.58V53.4187H53.515V47.225H63.8375V53.4187H61.7725H61.7738ZM59.71 53.4187H57.645V51.3537H59.71V53.4187ZM63.0475 45.1612H60.5L61.7738 43.0387L63.0475 45.1612ZM56.855 45.1612H54.3075L55.5812 43.0387L56.855 45.1612ZM51.4512 40.2437V53.42H47.3225V40.2437L49.3875 36.115L51.4525 40.2437H51.4512ZM28.7425 47.2262H32.8713V53.42H28.7425V47.2262ZM29 45.1612L30.7113 42.88L32.08 45.1612H29ZM34.935 47.2262H39.0638V53.42H34.935V47.2262ZM35.7262 45.1612L37 43.0387L38.2738 45.1612H35.7262ZM41.1287 47.2262H45.2575V53.42H41.1287V47.2262ZM41.92 45.1612L43.2887 42.88L45 45.1612H41.92ZM45.2575 34.8387H41.1287V30.71H45.2575V34.8387ZM34.935 23.4837C34.935 20.3337 36.1588 18.3225 37 18.3225C37.8413 18.3225 39.065 20.3337 39.065 23.4837C39.065 26.6337 37.8413 28.645 37 28.645C36.1588 28.645 34.935 26.6337 34.935 23.4837ZM39.065 30.71V34.8387H34.9363V30.71H39.065ZM43.1937 23.4837C43.1937 25.3037 42.0537 26.9037 40.34 27.8237C40.8375 26.63 41.1287 25.1425 41.1287 23.4837C41.1287 21.825 40.8375 20.3375 40.34 19.1437C42.0537 20.0637 43.1937 21.6637 43.1937 23.4837ZM35.9675 14.1937H38.0325V16.3212C37.6938 16.2837 37.35 16.2587 37 16.2587C36.65 16.2587 36.3063 16.285 35.9675 16.3212V14.1937ZM33.66 19.1437C33.1625 20.3375 32.8713 21.825 32.8713 23.4837C32.8713 25.1425 33.1625 26.63 33.66 27.8237C31.9462 26.9037 30.8062 25.3037 30.8062 23.4837C30.8062 21.6637 31.9462 20.0637 33.66 19.1437ZM32.8713 30.71V34.8387H28.7425V30.71H32.8713ZM28.7425 36.9037H32.8713V38.9687H34.9363V36.9037H39.065V38.9687H41.13V36.9037H45.2588V42.065L43.0988 39.185L40.0975 44.1875L37.0013 39.0262L33.905 44.1875L30.9037 39.185L28.7437 42.065V36.9037H28.7425ZM24.6125 36.115L26.6775 40.2437V53.42H22.5487V40.2437L24.6138 36.115H24.6125ZM19.6938 45.1612H17.1462L18.42 43.0387L19.6938 45.1612ZM13.5 45.1612H10.9525L12.2263 43.0387L13.5 45.1612ZM10.1613 47.2262H20.4838V53.42H18.4187V49.2912H12.225V53.42H10.16V47.2262H10.1613ZM16.355 53.4187H14.29V51.3537H16.355V53.4187ZM66.935 59.7562C64.8925 60.0525 63.555 60.7425 62.63 61.2187C61.8787 61.6075 61.7437 61.6775 60.995 61.6775C60.2463 61.6775 60.11 61.6075 59.3587 61.2187C58.1937 60.6175 56.2438 59.6125 52.99 59.6125C49.7363 59.6125 47.7875 60.6187 46.6225 61.22C45.8725 61.6087 45.7363 61.6775 44.99 61.6775C44.2438 61.6775 44.1075 61.6075 43.3563 61.22C42.1912 60.6187 40.2425 59.6125 36.9888 59.6125C33.735 59.6125 31.7863 60.6187 30.6213 61.22C29.8713 61.6087 29.735 61.6775 28.9888 61.6775C28.2425 61.6775 28.1087 61.6087 27.3575 61.22C26.1925 60.6187 24.245 59.6125 20.9913 59.6125C17.7375 59.6125 15.79 60.6187 14.6237 61.2212C13.8562 61.6162 13.7388 61.6775 12.9938 61.6775C12.2488 61.6775 12.1138 61.6087 11.3625 61.22C10.4375 60.7425 9.10125 60.0525 7.06125 59.7575V55.4837H66.9325V59.7562H66.935Z"
                fill="#204A8F" />
        </g>
    </g>
    <defs>
        <clipPath id="clip0_5801_5516">
            <rect width="65" height="65" fill="white" transform="translate(5 7)" />
        </clipPath>
        <clipPath id="clip1_5801_5516">
            <rect width="64" height="64" fill="white" transform="translate(5 8)" />
        </clipPath>
    </defs>
</svg>