<svg width="77" height="77" viewBox="0 0 77 77" fill="#204A8F" xmlns="http://www.w3.org/2000/svg">

    <path
        d="M71 57.9677H68.871V51.5806H66.7419V45.1936H68.871V38.8065H66.7419V26.7748L62.4839 20.3877V13.2581H64.6129V11.129H62.4839V9H60.3548V11.129H58.2258V13.2581H60.3548V20.3877L56.0968 26.7748V29.2258H44.3871V24.6457L42.2581 21.4522V18.5806H44.3871V16.4516H42.2581V14.3226H40.129V16.4516H38V18.5806H40.129V21.4522L38 24.6457V29.2258H35.871V24.6457L33.7419 21.4522V18.5806H35.871V16.4516H33.7419V14.3226H31.6129V16.4516H29.4839V18.5806H31.6129V21.4522L29.4839 24.6457V29.2258H27.2564L25.617 26.4155C25.0954 25.5226 24.1294 24.9677 23.0968 24.9677C22.0642 24.9677 21.0981 25.5226 20.5765 26.4155L13.5161 38.5177V42H11.3871V48.0651L9.25806 51.2586V60.0968H5V75H68.871V64.3548H71V57.9677ZM56.0968 57.9677V53.7097H66.7419V57.9677H56.0968ZM51.8387 57.9677V60.0968H47.5806V55.8387C47.5806 54.0783 49.0138 52.6452 50.7742 52.6452C52.5346 52.6452 53.9677 54.0783 53.9677 55.8387V57.9677H51.8387ZM56.0968 51.5806H53.9677V51.6086C53.0762 50.9326 51.9771 50.5161 50.7742 50.5161C49.5713 50.5161 48.4722 50.9326 47.5806 51.6086V51.26L45.6672 48.3884H56.0968V51.582V51.5806ZM41.2667 51.1482C40.6214 50.7556 39.8736 50.5161 39.0645 50.5161C38.2555 50.5161 37.5077 50.7556 36.8623 51.1482L35.022 48.3871H43.1084L41.2681 51.1482H41.2667ZM30.6216 51.1482C29.9762 50.7556 29.2284 50.5161 28.4194 50.5161C27.6103 50.5161 26.8625 50.7556 26.2171 51.1482L24.3769 48.3871H32.4632L30.6229 51.1482H30.6216ZM19.9764 51.1482C19.331 50.7556 18.5832 50.5161 17.7742 50.5161C16.9652 50.5161 16.2173 50.7556 15.572 51.1482L13.7317 48.3871H21.818L19.9777 51.1482H19.9764ZM15.6452 54.7742C15.6452 53.6006 16.6006 52.6452 17.7742 52.6452C18.9478 52.6452 19.9032 53.6006 19.9032 54.7742V60.0968H15.6452V54.7742ZM22.0323 55.8387V51.9027L23.0968 50.3059L24.1613 51.9027V60.0968H22.0323V55.8387ZM26.2903 55.8387V54.7742C26.2903 53.6006 27.2457 52.6452 28.4194 52.6452C29.593 52.6452 30.5484 53.6006 30.5484 54.7742V60.0968H26.2903V55.8387ZM32.6774 55.8387V51.9027L33.7419 50.3059L34.8065 51.9027V60.0968H32.6774V55.8387ZM36.9355 55.8387V54.7742C36.9355 53.6006 37.8909 52.6452 39.0645 52.6452C40.2381 52.6452 41.1936 53.6006 41.1936 54.7742V60.0968H36.9355V55.8387ZM43.3226 55.8387V51.9027L44.3871 50.3059L45.4516 51.9027V60.0968H43.3226V55.8387ZM64.6129 51.5806H58.2258V45.1936H64.6129V51.5806ZM66.7419 43.0645H56.0968V40.9355H66.7419V43.0645ZM58.2258 38.8065V28.1613H64.6129V38.8065H58.2258ZM59.1493 26.0323L61.4194 22.6285L63.6894 26.0323H59.1506H59.1493ZM40.129 25.2898L41.1936 23.693L42.2581 25.2898V29.2258H40.129V25.2898ZM31.6129 25.2898L32.6774 23.693L33.7419 25.2898V29.2258H31.6129V25.2898ZM56.0968 31.3548V38.8065H53.9677V42H32.6774V38.5177L28.4979 31.3548H56.0968ZM22.4155 27.488C22.6976 27.0036 23.4973 27.0036 23.7781 27.488L29.7593 37.7419H16.4342L22.4155 27.488ZM15.6452 39.871H30.5484V42H15.6452V39.871ZM13.5161 44.129H53.9677V45.1936H56.0968V46.2581H13.5161V44.129ZM11.3871 51.9027L12.4516 50.3059L13.5161 51.9027V60.0968H11.3871V51.9027ZM7.12903 62.2258H51.8387V64.3548H53.9677V72.871H34.8065V64.3548H26.2903V72.871H7.12903V62.2258ZM32.6774 72.871H28.4194V66.4839H32.6774V72.871ZM62.4839 72.871H60.3548V68.6129H62.4839V72.871ZM66.7419 72.871H64.6129V66.4839H58.2258V72.871H56.0968V64.3548H66.7419V72.871ZM68.871 62.2258H53.9677V60.0968H68.871V62.2258Z" />
    <path d="M60.3555 30.291H62.4845V36.6781H60.3555V30.291Z" />
    <path d="M9.25781 70.7426H15.6449V64.3555H9.25781V70.7426ZM11.3868 66.4845H13.5159V68.6135H11.3868V66.4845Z" />
    <path d="M17.7734 64.3555V70.7426H24.1605V64.3555H17.7734ZM22.0315 68.6135H19.9025V66.4845H22.0315V68.6135Z" />
    <path d="M43.3207 64.3555H36.9336V70.7426H43.3207V64.3555ZM41.1917 68.6135H39.0626V66.4845H41.1917V68.6135Z" />
    <path d="M45.4531 70.7426H51.8402V64.3555H45.4531V70.7426ZM47.5822 66.4845H49.7112V68.6135H47.5822V66.4845Z" />
    <path d="M32.8633 34.0644L34.6344 32.8828L38.8951 39.2699L37.124 40.4515L32.8633 34.0644Z" />
    <path d="M39.25 34.0605L41.0211 32.8789L45.2818 39.266L43.5107 40.4476L39.25 34.0605Z" />
    <path d="M45.6367 34.0605L47.4078 32.8789L51.6685 39.266L49.8974 40.4476L45.6367 34.0605Z" />

</svg>