<svg width="77" height="77" viewBox="0 0 77 77" fill="#204A8F" xmlns="http://www.w3.org/2000/svg">

    <path
        d="M68.9677 54.3555H64.8387V47.1297H65.871V45.0652H64.8387V39.9039C64.8387 39.3336 64.3768 38.8716 63.8064 38.8716H57.6129V33.7103C57.6129 33.14 57.151 32.6781 56.5806 32.6781H55.1961L53.5871 28.9232C52.831 27.162 51.2413 25.8961 49.3548 25.5555V22.3555H51.4194V20.291H49.3548V18.2265H47.2903V20.291H45.2258V22.3555H47.2903V25.5555C45.4039 25.8974 43.8142 27.162 43.0581 28.9232L41.449 32.6781H40.0645C39.4942 32.6781 39.0323 33.14 39.0323 33.7103V38.8716H32.8387C32.2684 38.8716 31.8064 39.3336 31.8064 39.9039V45.0652H30.7742V47.1297H31.8064V54.3555H27.6774C27.1071 54.3555 26.6452 54.8174 26.6452 55.3878V58.4845H25.6129V51.2587C25.6129 50.6884 25.151 50.2265 24.5806 50.2265V24.42C24.5806 23.8497 24.1187 23.3878 23.5484 23.3878V21.1491C23.5368 17.0561 21.3897 13.2652 17.8865 11.149C17.5587 10.9529 17.151 10.9529 16.8232 11.149C13.3187 13.2652 11.1729 17.0561 11.1613 21.1491V23.3878C10.591 23.3878 10.129 23.8497 10.129 24.42V50.2265C9.55871 50.2265 9.09677 50.6884 9.09677 51.2587V58.4845H7.03226C6.46194 58.4845 6 58.9465 6 59.5168V73.9684C6 74.5387 6.46194 75.0007 7.03226 75.0007H68.9677C69.5381 75.0007 70 74.5387 70 73.9684V55.3878C70 54.8174 69.5381 54.3555 68.9677 54.3555ZM44.9548 29.7374C45.7523 27.8768 47.9058 27.0149 49.7664 27.8123C50.631 28.1826 51.32 28.8716 51.6916 29.7374L52.9523 32.6781H43.6955L44.9561 29.7374H44.9548ZM33.871 40.9361H40.0645C40.6348 40.9361 41.0968 40.4742 41.0968 39.9039V34.7426H55.5484V39.9039C55.5484 40.4742 56.0103 40.9361 56.5806 40.9361H62.7742V45.0652H33.871V40.9361ZM33.871 47.1297H34.9032V49.1942H36.9677V47.1297H39.0323V49.1942H41.0968V47.1297H43.1613V49.1942H45.2258V47.1297H47.2903V49.1942H49.3548V47.1297H51.4194V49.1942H53.4839V47.1297H55.5484V49.1942H57.6129V47.1297H59.6774V49.1942H61.7419V47.1297H62.7742V54.3555H33.871V47.1297ZM67.9355 56.42V57.4523H28.7097V56.42H67.9355ZM13.2258 21.1491C13.2348 18.0045 14.7755 15.0613 17.3548 13.2613C19.9329 15.0613 21.4735 18.0045 21.4839 21.1491V23.3878H20.2619C19.7032 21.7826 17.9484 20.9349 16.3419 21.4936C15.4542 21.8032 14.7574 22.5 14.4477 23.3878H13.2258V21.1491ZM18.3871 24.42C18.3871 24.9903 17.9252 25.4523 17.3548 25.4523C16.7845 25.4523 16.3226 24.9903 16.3226 24.42C16.3226 23.8497 16.7845 23.3878 17.3548 23.3878C17.9252 23.3878 18.3871 23.8497 18.3871 24.42ZM12.1935 25.4523H14.4477C15.0065 27.0574 16.7613 27.9052 18.3677 27.3465C19.2555 27.0368 19.9523 26.34 20.2619 25.4523H22.5161V50.2265H12.1935V25.4523ZM11.1613 52.291H23.5484V58.4845H11.1613V52.291ZM8.06452 60.5491H26.6452V72.9361H22.5161V69.8394C22.5161 66.9891 20.2052 64.6781 17.3548 64.6781C14.5045 64.6781 12.1935 66.9891 12.1935 69.8394V72.9361H8.06452V60.5491ZM20.4516 72.9361H14.2581V69.8394C14.2581 68.1297 15.6452 66.7426 17.3548 66.7426C19.0645 66.7426 20.4516 68.1297 20.4516 69.8394V72.9361ZM36.9677 72.9361H32.8387V67.7749C32.8387 66.6342 33.7626 65.7103 34.9032 65.7103C36.0439 65.7103 36.9677 66.6342 36.9677 67.7749V72.9361ZM52.4516 72.9361H44.1935V67.7749C44.1935 65.4949 46.0426 63.6458 48.3226 63.6458C50.6026 63.6458 52.4516 65.4949 52.4516 67.7749V72.9361ZM63.8064 72.9361H59.6774V67.7749C59.6774 66.6342 60.6026 65.7103 61.7419 65.7103C62.289 65.7103 62.8142 65.9284 63.2013 66.3142C63.5897 66.7 63.8077 67.2265 63.8064 67.7736V72.9349V72.9361ZM65.871 72.9361V67.7749C65.871 65.4949 64.0219 63.6458 61.7419 63.6458C59.4619 63.6458 57.6129 65.4949 57.6129 67.7749V72.9361H54.5161V67.7749C54.5161 64.3542 51.7432 61.5813 48.3226 61.5813C44.9019 61.5813 42.129 64.3542 42.129 67.7749V72.9361H39.0323V67.7749C39.0323 65.4949 37.1832 63.6458 34.9032 63.6458C32.6232 63.6458 30.7742 65.4949 30.7742 67.7749V72.9361H28.7097V59.5168H67.9355V72.9361H65.871Z" />
    <path d="M16.3242 34.7422H18.3887V37.839H16.3242V34.7422Z" />
    <path d="M16.3242 39.9023H18.3887V42.9991H16.3242V39.9023Z" />
    <path d="M16.3242 45.0645H18.3887V48.1612H16.3242V45.0645Z" />
    <path
        d="M48.3243 35.7734C46.0443 35.7734 44.1953 37.6225 44.1953 39.9025C44.1953 42.1825 46.0443 44.0315 48.3243 44.0315C50.6043 44.0315 52.4534 42.1825 52.4534 39.9025C52.4534 37.6225 50.6043 35.7734 48.3243 35.7734ZM48.3243 41.967C47.1837 41.967 46.2598 41.0431 46.2598 39.9025C46.2598 38.7618 47.1837 37.838 48.3243 37.838C49.465 37.838 50.3889 38.7618 50.3889 39.9025C50.3889 41.0431 49.465 41.967 48.3243 41.967Z" />
    <path d="M16.3242 29.5801H18.3887V32.6769H16.3242V29.5801Z" />

</svg>