<svg width="28" height="29" viewBox="0 0 28 29" fill="none" xmlns="http://www.w3.org/2000/svg">
<g filter="url(#filter0_d_972_13673)">
<circle cx="14" cy="14" r="14" fill="#204A8F"/>
<circle cx="14" cy="14" r="13" stroke="#204A8F" stroke-width="2"/>
</g>
<path d="M13.7095 12.1142C13.7157 12.182 13.7692 12.2373 13.8277 12.2373C13.8861 12.2373 13.9296 12.1831 13.9234 12.1142C13.9222 12.1007 13.9184 12.0871 13.9147 12.0747C13.8911 12.0769 13.8538 12.0792 13.7978 12.0713C13.7655 12.0668 13.7394 12.0589 13.7195 12.0498C13.712 12.069 13.7083 12.0905 13.7095 12.1131M15.3633 14.6651C15.4653 14.7927 15.8396 15.1958 15.9018 15.4228C15.9639 15.6498 15.9726 15.7412 15.9092 15.9332C15.8471 16.1252 15.7613 16.386 15.9639 16.4436C16.1666 16.5001 16.2524 16.281 16.2922 16.1105C16.3308 15.94 16.5334 15.6995 16.659 15.6216C16.7834 15.5436 16.7523 15.2252 16.5422 15.1473C16.332 15.0694 16.0274 14.9564 15.8632 14.7362C15.6991 14.5172 15.6294 14.3467 15.4504 14.3681C15.2713 14.3896 15.2626 14.5386 15.3646 14.6651M13.6896 14.6143C13.9545 14.6787 14.3997 14.8695 14.6794 15.3302C14.9605 15.7898 14.9841 15.8756 15.1321 15.8327C15.28 15.7898 15.2017 15.5357 15.0612 15.2444C14.9207 14.9542 14.8125 14.6922 14.6869 14.5014C14.5625 14.3094 14.3822 14.2394 14.141 14.2676C13.8998 14.2959 13.7904 14.2959 13.6262 14.2891C13.4621 14.2823 13.4235 14.5511 13.6884 14.6143M9.40214 14.5409C9.25292 14.5251 9.2293 14.559 9.21313 14.7385C9.23054 14.8266 9.24795 14.926 9.2753 14.9994C9.33002 15.1484 9.43944 15.2896 9.32256 15.276C9.20567 15.2625 8.90102 15.0558 8.64486 14.7442C8.38747 14.4325 8.48943 14.0079 8.49689 13.9018C8.50435 13.7956 8.59761 13.7595 8.48073 13.5336C8.36384 13.3067 8.34021 13.0526 8.35514 12.8403C8.3713 12.628 8.61999 12.4789 8.65979 12.3378C8.69833 12.1966 8.73812 12.0476 8.92465 11.9629C9.11117 11.8782 9.32256 11.6591 9.52524 11.553C9.72793 11.4457 10.1184 11.2549 10.2353 11.1487C10.3522 11.0426 10.5474 10.9432 10.5076 10.8156C10.469 10.688 10.3832 10.539 10.5474 10.539C10.7115 10.539 10.8122 10.5254 10.9677 10.3978C11.1231 10.2702 11.2176 10.0647 11.6155 9.95854C12.0134 9.8524 12.2074 9.59042 12.7458 9.56896C13.2843 9.54751 13.6113 9.57574 13.9619 9.57574C14.3126 9.57574 14.5775 9.53283 14.897 9.47637C15.2166 9.41878 15.3024 9.29231 15.5834 9.15002C15.8645 9.00774 16.2611 9.00774 16.4414 8.99419C16.6205 8.97951 16.7063 9.05065 16.6354 9.16357C16.5658 9.2765 16.4414 9.44701 16.4016 9.58929C16.3631 9.73044 16.5658 9.78013 16.5658 9.83659C16.5658 9.89305 16.3942 9.85127 16.2698 9.80158C16.1455 9.7519 16.0671 9.61074 16.1057 9.5396C16.1455 9.46846 16.48 9.2844 16.4638 9.17825C16.4489 9.07211 16.2848 9.13534 16.0746 9.19971C15.8645 9.26295 15.77 9.44701 15.7861 9.64575C15.801 9.84336 15.9813 9.88627 15.9503 9.95741C15.9192 10.0286 15.6692 9.90773 15.4205 9.83659C15.1706 9.76545 14.1957 9.73722 13.8998 9.73722C13.6038 9.73722 12.9647 9.73044 12.4723 9.83659C11.9811 9.94273 11.5048 10.1765 11.3333 10.4317C11.1617 10.6869 10.9901 10.6587 10.7874 10.6587C10.6953 10.6587 10.6866 10.6925 10.7041 10.74C10.8582 10.8687 10.9876 10.915 11.1368 10.915C11.286 10.915 11.3357 10.9568 11.3096 11.0358C11.2835 11.1137 11.2201 11.1442 10.9179 11.1747L10.8185 11.186C10.6294 11.2267 10.7662 11.2967 10.7662 11.3396C10.7662 11.3825 10.6257 11.4141 10.5548 11.4073C10.4964 11.4017 10.387 11.4073 10.3198 11.4423C10.3061 11.4491 10.295 11.457 10.2862 11.4672C10.2315 11.5236 10.2514 11.5733 10.1768 11.6117C10.1022 11.6512 9.93186 11.6478 9.80627 11.6546C9.68814 11.6874 9.5899 11.7167 9.52897 11.7506C9.35737 11.8432 9.32629 11.9844 9.56006 12.0544C9.79383 12.1255 9.96543 12.1323 10.1992 11.9979C10.239 11.9753 10.28 11.9539 10.3211 11.9335C10.4081 11.8342 10.3994 11.8105 10.3472 11.7359C10.2925 11.658 10.3633 11.5948 10.5349 11.6151C10.7065 11.6366 10.862 11.7495 10.9565 11.7145C11.0497 11.6795 10.949 11.6298 10.9876 11.5586C11.0261 11.4875 11.2064 11.5236 11.3855 11.5519C11.5334 11.5744 11.6329 11.6456 11.8941 11.6908C12.0395 11.6953 12.1626 11.6987 12.2273 11.693C12.3989 11.6795 12.5543 11.6716 12.563 11.5936C12.5705 11.5157 12.3678 11.466 12.4387 11.3746C12.5096 11.2831 12.7869 11.2752 12.9224 11.3181C13.2581 11.4243 13.1263 11.6704 13.5715 11.7201C14.0154 11.7698 14.3027 11.6795 14.6533 11.7292C15.004 11.7788 15.2614 11.8285 15.4094 11.9064C15.5573 11.9844 15.5262 12.112 15.4094 12.147C15.2925 12.1831 15.1445 12.0905 14.9493 12.069C14.754 12.0476 14.723 12.0623 14.723 12.0623C14.723 12.0623 14.5625 12.4428 14.136 12.4485C13.6672 12.4541 13.579 12.2091 13.5839 11.9606C13.5305 11.8963 13.4235 11.9064 13.3912 11.9934C13.3589 12.0769 13.431 12.2226 13.5504 12.3491C13.6138 12.3943 13.6697 12.4428 13.7095 12.488C13.8102 12.6009 13.7095 12.7782 13.5616 12.6291C13.4136 12.4801 13.089 12.2373 12.762 12.1639C12.1875 12.0363 11.5459 11.964 11.3668 12.0058C11.3668 12.0058 11.2101 12.0329 11.0522 12.1526C10.9241 12.2644 10.8819 12.4168 10.6991 12.6077C10.4268 12.8911 9.98906 12.8414 9.62348 12.8979C9.25665 12.9543 9.11863 13.1994 9.2181 13.5494C9.27904 13.764 9.43944 13.9164 9.43944 13.9164C9.83735 14.2044 10.331 14.3647 10.4367 14.2371C10.4566 14.2123 10.4653 14.1852 10.4653 14.1558C10.4268 14.0034 10.1607 13.4218 10.6755 13.2242C11.1903 13.0255 11.3768 13.0255 11.8294 12.9408C12.282 12.8561 12.8752 12.7421 13.1549 12.7567C13.436 12.7703 13.6536 12.8697 13.7941 12.8132C13.9346 12.7567 14.1684 12.8132 14.2616 12.7567C14.3549 12.7003 14.4805 12.6145 14.9319 12.6145C15.3832 12.6145 15.898 12.7138 16.0385 12.5862C16.1791 12.4586 15.9913 12.4733 15.8048 12.4451C15.6183 12.4168 15.6021 12.1763 15.9615 12.0916C16.3196 12.0058 16.2114 11.7088 15.8682 11.7088C15.525 11.7088 15.2601 11.5948 14.7764 11.5101C14.2927 11.4254 14.4021 11.3407 14.0117 11.326C13.6212 11.3113 13.7618 11.0573 14.3076 11.0573C14.8535 11.0573 15.3994 11.0573 15.898 10.8021C16.3967 10.5469 16.3196 10.2646 16.429 10.0805C16.5384 9.89644 16.8493 9.81174 17.1154 9.83997C17.3803 9.8682 18.0206 9.91111 18.7369 9.76883C19.4544 9.62768 19.5787 9.58477 19.8286 9.47185C20.0786 9.35893 20.2651 9.28779 20.2191 9.55654C20.1756 9.80723 20.0512 9.99581 19.6956 10.2826L19.6098 10.3504L19.5576 10.3922L18.8525 10.95C18.6548 11.107 18.7381 11.8443 20.1258 12.3333C20.6245 12.5083 20.811 12.2723 20.9366 13.3812C20.9391 13.406 20.9453 13.4297 20.9565 13.4546C20.9851 13.6962 21 13.9413 21 14.1886C21 17.9511 17.6414 21 13.4981 21C9.35489 21 6 17.9489 6 14.1863C6 10.4238 9.35862 7.3749 13.5006 7.3749C13.5006 7.3749 14.003 7.37264 14.2044 7.3749C14.8299 7.37942 14.9306 7 14.9306 7L15.2054 7.03388C15.2054 7.03388 15.2427 7.22697 15.193 7.64704C15.0873 8.53573 14.2616 9.03372 13.3812 9.01904H13.2333C9.82243 9.01904 7.05819 11.5293 7.05819 14.6267C7.05819 17.7241 9.78886 20.2039 13.1699 20.2344C13.579 20.1949 14.0241 20.0718 14.3711 19.768C14.6421 19.4869 14.7142 19.1537 14.4991 18.8884C14.3723 18.7337 14.1472 18.6343 13.8712 18.6772C13.6287 18.8669 13.3477 19.1955 13.0418 19.5399C12.854 19.7522 12.6041 19.8956 12.2609 19.8392C11.9177 19.7827 11.4203 19.5682 11.2487 19.3988C11.0771 19.2294 11.0149 19.1583 10.7339 18.8601C10.4529 18.562 10.2191 17.9534 10.2974 17.8269C10.3758 17.6993 10.469 17.6993 10.8272 17.9398C11.1853 18.1804 11.2176 18.1521 11.3109 17.9545C11.4041 17.7558 11.1927 17.8269 11.3333 17.5152C11.4738 17.2036 11.286 16.6514 11.286 16.3544C11.286 16.2268 11.2711 16.0778 11.2487 15.9535C11.2437 15.6611 11.613 15.5267 11.7884 15.5041C11.8356 15.4985 11.863 15.5256 11.8766 15.5482C11.9276 15.9456 11.8655 16.8558 11.7535 17.1618C11.613 17.5446 11.6926 17.758 11.6839 17.898C11.6677 18.1578 11.5285 18.2097 11.4191 18.3091C11.3096 18.4085 11.388 18.6061 11.5434 18.6637C11.7001 18.7201 12.2136 18.9335 12.1365 18.7913C12.0582 18.6501 11.9575 18.4164 11.9575 18.2323C11.9575 18.0482 12.1142 18.0911 12.379 18.3034C12.6302 18.5044 12.9174 18.3102 13.1661 18.2684C13.232 18.2571 13.3589 18.1905 13.3601 17.9974C13.3601 17.9172 13.5379 17.7671 13.6374 17.7863C13.7369 17.8066 13.8699 17.6225 13.9993 17.4881C14.478 16.9969 14.3735 16.8106 13.9993 16.0303C13.8065 15.7198 13.6337 15.4646 12.9871 15.2647C12.5332 15.1236 12.0607 15.1247 11.7225 15.197C11.6789 15.1947 11.6317 15.1992 11.5832 15.215C11.3954 15.2783 11.1691 15.4646 11.1007 15.8553C11.0609 16.0721 11.046 16.2618 11.0385 16.368C11.0224 16.5803 10.8669 16.552 10.7264 16.2833C10.5859 16.0145 10.4927 15.4906 10.5076 15.2207C10.5238 14.9519 10.336 14.9519 10.1184 14.8526C9.89953 14.7532 9.79135 14.8379 9.74409 14.682C9.69684 14.5273 9.51281 14.6233 9.40338 14.542M8.95698 13.4885C8.92962 13.3676 8.91345 13.0424 8.73688 12.9171C8.56031 12.7929 8.43347 12.8075 8.44964 13.0323C8.4658 13.257 8.50435 13.4083 8.66973 13.5088C8.83512 13.6093 8.98433 13.6093 8.95698 13.4896M8.83139 12.1684C8.83139 12.1684 8.76175 12.261 8.81522 12.3739C8.86993 12.488 8.94081 12.4236 9.00298 12.523C9.06516 12.6224 9.00298 12.7138 9.06516 12.7703C9.12733 12.8267 9.20567 12.7421 9.23676 12.6574C9.26784 12.5727 9.47799 12.6291 9.64213 12.6856C9.80502 12.7421 9.89953 12.6506 9.89082 12.4733C9.88336 12.296 9.71922 12.1763 9.4469 12.0916C9.17458 12.0058 8.94827 11.999 8.83139 12.1695M16.1641 13.2626C16.2425 13.2276 16.3196 13.2028 16.3867 13.196C16.6827 13.1678 17.1204 13.196 17.1042 12.899V12.8663C17.0308 12.7872 16.8493 12.7477 16.5434 12.8132C16.0137 12.9261 15.6232 12.9973 15.0152 12.9826C14.4071 12.9679 14.1261 12.9408 13.7829 13.1384C13.4397 13.3372 12.333 13.4218 11.8642 13.6059C11.3967 13.79 11.6454 14.0169 12.0196 14.0169C12.3939 14.0169 13.8911 13.7335 14.9045 13.5212C15.4616 13.4049 15.8781 13.3134 16.1629 13.2615" fill="white"/>
<defs>
<filter id="filter0_d_972_13673" x="0" y="0" width="28" height="29" filterUnits="userSpaceOnUse" color-interpolation-filters="sRGB">
<feFlood flood-opacity="0" result="BackgroundImageFix"/>
<feColorMatrix in="SourceAlpha" type="matrix" values="0 0 0 0 0 0 0 0 0 0 0 0 0 0 0 0 0 0 127 0" result="hardAlpha"/>
<feOffset dy="1"/>
<feColorMatrix type="matrix" values="0 0 0 0 0.905882 0 0 0 0 0.905882 0 0 0 0 0.905882 0 0 0 1 0"/>
<feBlend mode="normal" in2="BackgroundImageFix" result="effect1_dropShadow_972_13673"/>
<feBlend mode="normal" in="SourceGraphic" in2="effect1_dropShadow_972_13673" result="shape"/>
</filter>
</defs>
</svg>
