<svg width="108" height="103" viewBox="0 0 108 103" fill="none" xmlns="http://www.w3.org/2000/svg">
<path d="M80.437 50.413C80.437 50.1593 80.3646 49.8695 80.2196 49.7004C80.0385 49.5071 79.6761 49.3864 78.7461 49.326C77.9611 49.2777 76.5238 49.2173 75.7146 49.1931C74.2532 49.1448 72.6106 49.1207 71.584 49.1086V45.4973H81.7294V47.007H72.9609V47.9249C73.7942 47.937 75.8716 47.9732 76.8378 47.9974C79.0239 48.0699 80.3887 48.0699 81.1496 48.6013C81.5603 48.8912 81.8139 49.3139 81.8139 49.9057C81.8139 50.1231 81.7898 50.2801 81.7294 50.413H80.4491H80.437Z" fill="white"/>
<path d="M81.7177 43.1782H71.5723V39.7239H72.8646V41.6564H75.7633V40.2553H77.0435V41.6564H80.4253V39.5911H81.7056V43.1782H81.7177Z" fill="white"/>
<path d="M81.7177 35.3157V36.8254H73.0941V38.0574H71.5723V34.0717H73.0941V35.3278H81.7177V35.3157Z" fill="white"/>
<path d="M60.7997 100.862L60.4615 98.1927H59.29L58.988 100.862H57.6836L59.1813 91.1755H60.6064L62.1403 100.862H60.7876H60.7997ZM60.1113 95.282C59.8576 93.2529 59.9301 93.3254 59.8093 92.6369C59.6523 94.1708 59.8214 93.1925 59.5798 95.282L59.3866 97.0091H60.3166L60.1113 95.282Z" fill="white"/>
<path d="M63.6133 91.1755H64.9298C65.4129 91.1755 66.0168 91.1876 66.4999 91.5741C67.1642 92.0934 67.2366 93.0113 67.2366 93.5548C67.2366 94.0621 67.1642 94.7868 66.8985 95.1732C66.7777 95.3665 66.512 95.596 66.1496 95.6926C66.6448 95.8255 66.9347 96.1274 67.0917 96.3569C67.4057 96.84 67.4903 97.6251 67.4903 98.1686C67.4903 99.473 67.0555 100.077 66.7535 100.343C66.1617 100.874 65.3404 100.862 64.9298 100.862H63.6133V91.1755ZM65.1955 95.1974C65.5578 95.2216 65.7269 94.9438 65.7994 94.7868C65.8839 94.6056 65.896 94.364 65.896 93.7481C65.896 92.9751 65.7873 92.7215 65.7269 92.6007C65.5578 92.2867 65.3646 92.2867 65.1955 92.2867H65.0022V95.1853H65.1955V95.1974ZM65.2438 99.7266C65.5457 99.7266 65.7511 99.7025 65.9081 99.3401C65.9926 99.1589 66.0289 98.8691 66.0289 98.072C66.0289 97.2748 65.9685 96.9245 65.8598 96.683C65.6786 96.2844 65.4974 96.3207 65.2438 96.3207H65.0022V99.7266H65.2438Z" fill="white"/>
<path d="M71.1518 100.862H69.7145V92.6372H68.543V91.1879H72.3596V92.6372H71.1639V100.862H71.1518Z" fill="white"/>
<path d="M77.575 92.4439C77.8407 93.1323 77.9374 94.0623 77.9374 96.0189C77.9374 97.9755 77.8407 98.8934 77.575 99.5939C77.1281 100.766 76.2948 100.995 75.7392 100.995C75.1836 100.995 74.3502 100.766 73.9034 99.5939C73.6376 98.9055 73.541 97.9755 73.541 96.0189C73.541 94.0623 73.6376 93.1444 73.9034 92.4439C74.3502 91.2723 75.1836 91.0428 75.7392 91.0428C76.2948 91.0428 77.1281 91.2723 77.575 92.4439ZM75.3044 99.4853C75.401 99.6785 75.5218 99.7872 75.7392 99.7872C75.9566 99.7872 76.0774 99.6906 76.174 99.4853C76.2706 99.2799 76.3914 98.9176 76.3914 96.0068C76.3914 93.0961 76.2827 92.7338 76.174 92.5284C76.0774 92.3352 75.9687 92.2265 75.7392 92.2265C75.5097 92.2265 75.401 92.3231 75.3044 92.5284C75.2077 92.7217 75.0991 93.0961 75.0991 96.0068C75.0991 98.9176 75.2077 99.2799 75.3044 99.4853Z" fill="white"/>
<path d="M83.6867 91.1755V100.862H82.2494V92.492H81.0779V100.862H79.6406V91.1755H83.6867Z" fill="white"/>
<path d="M89.4246 92.4439C89.6903 93.1323 89.787 94.0623 89.787 96.0189C89.787 97.9755 89.6903 98.8934 89.4246 99.5939C88.9777 100.766 88.1444 100.995 87.5888 100.995C87.0332 100.995 86.1998 100.766 85.753 99.5939C85.4873 98.9055 85.3906 97.9755 85.3906 96.0189C85.3906 94.0623 85.4873 93.1444 85.753 92.4439C86.1998 91.2723 87.0332 91.0428 87.5888 91.0428C88.1444 91.0428 88.9777 91.2723 89.4246 92.4439ZM87.154 99.4853C87.2506 99.6785 87.3714 99.7872 87.5888 99.7872C87.8062 99.7872 87.927 99.6906 88.0236 99.4853C88.1202 99.2799 88.241 98.9176 88.241 96.0068C88.241 93.0961 88.1323 92.7338 88.0236 92.5284C87.927 92.3352 87.8183 92.2265 87.5888 92.2265C87.3593 92.2265 87.2506 92.3231 87.154 92.5284C87.0574 92.7217 86.9487 93.0961 86.9487 96.0068C86.9487 98.9176 87.0574 99.2799 87.154 99.4853Z" fill="white"/>
<path d="M91.4766 91.1755H95.1362V92.492H92.8655V95.0645H93.3607C93.8318 95.0645 94.5323 95.1491 94.9792 95.7651C95.0879 95.91 95.4502 96.4414 95.4502 97.8425C95.4502 98.543 95.3415 99.6541 94.8946 100.198C94.4115 100.802 93.711 100.862 93.1675 100.862H91.4766V91.1755ZM93.1675 99.6904C93.3366 99.6904 93.6144 99.6662 93.8076 99.3401C93.8921 99.1952 93.9767 98.9416 93.9767 97.8425C93.9767 97.4197 93.9284 96.8158 93.7834 96.538C93.6264 96.2723 93.4211 96.224 93.2037 96.224H92.8655V99.6783H93.1795L93.1675 99.6904Z" fill="white"/>
<path d="M96.9961 100.862V91.1755H100.293V92.4074H98.4454V95.1732H99.7861V96.4052H98.4454V99.6421H100.426V100.874H96.9961V100.862Z" fill="white"/>
<path d="M101.502 99.582H101.985C102.287 98.7969 102.432 98.1326 102.589 97.2993C102.758 96.3451 102.819 95.705 102.855 94.8716C102.915 93.9778 102.976 92.1783 103.012 91.1879H106.358V99.582H107.022V102.988H105.79V100.874H102.722V103H101.49V99.582H101.502ZM104.92 99.582V92.4923H104.135C104.123 94.0141 104.051 95.3185 103.918 96.5746C103.809 97.7099 103.676 98.5071 103.338 99.582H104.92Z" fill="white"/>
<path d="M76.3803 0.0362321C67.3823 0.0362321 59.266 3.91322 53.6257 10.0729C47.9732 3.91322 39.869 0.0362321 30.871 0.0362321C13.8533 0.0362321 0 13.8895 0 30.9072V33.8542H3.07985V30.9072C3.07985 15.5804 15.5442 3.11607 30.871 3.11607C46.1978 3.11607 58.6259 15.5563 58.6621 30.8589V53.5653C58.6621 63.3363 66.6214 71.2956 76.3924 71.2956C86.1634 71.2956 94.1227 63.3363 94.1227 53.5653V30.5207C94.1227 20.7497 86.1634 12.7904 76.3924 12.7904C69.496 12.7904 63.5174 16.7641 60.5825 22.5373C60.1839 21.1242 59.6887 19.7594 59.109 18.4429C60.6067 16.3413 62.4666 14.5176 64.6044 13.0803C64.6165 13.0803 64.6407 13.0561 64.6648 13.0441C65.0151 12.8146 65.3774 12.5851 65.7397 12.3677C65.788 12.3436 65.8364 12.3194 65.8726 12.2952C66.2108 12.102 66.561 11.9088 66.9234 11.7276C66.9958 11.6913 67.0804 11.6551 67.1528 11.6189C67.4789 11.4619 67.8171 11.3049 68.1553 11.1599C68.264 11.1116 68.3727 11.0754 68.4814 11.0271C68.7954 10.8942 69.1095 10.7734 69.4356 10.6647C69.5805 10.6164 69.7254 10.5681 69.8704 10.5319C70.1602 10.4353 70.4622 10.3386 70.7521 10.2541C70.9332 10.2058 71.1144 10.1696 71.2956 10.1212C71.5613 10.0488 71.8391 9.98838 72.1048 9.928C72.3343 9.87968 72.5516 9.84344 72.7811 9.80721C73.0227 9.77098 73.2522 9.72266 73.5058 9.68642C73.7957 9.65019 74.0855 9.62606 74.3633 9.60191C74.5566 9.58983 74.7377 9.55357 74.931 9.5415C75.4141 9.50526 75.8972 9.49321 76.3924 9.49321C88.1079 9.49321 97.6373 19.0226 97.6373 30.7381V53.3599C97.6373 65.0755 88.1079 74.6049 76.3924 74.6049C64.6769 74.6049 55.1475 65.0755 55.1475 53.3599V50.0748L55.1112 29.9651C54.7006 16.909 43.9755 6.41334 30.8227 6.41334C17.6699 6.41334 6.49788 17.3317 6.49788 30.7381V33.8542H9.57774V30.7381C9.57774 19.0226 19.1072 9.49321 30.8227 9.49321C42.5382 9.49321 52.0676 19.0226 52.0676 30.7381V53.3599C52.0676 66.7784 62.986 77.6847 76.3924 77.6847C89.7988 77.6847 100.717 66.7663 100.717 53.3599V30.7381C100.717 17.3197 89.7988 6.41334 76.3924 6.41334C75.8851 6.41334 75.3658 6.42542 74.8706 6.46166C74.6773 6.46166 74.4962 6.4979 74.3029 6.50998C73.9889 6.53414 73.6749 6.55826 73.3729 6.5945C73.1435 6.61865 72.914 6.66696 72.6845 6.70319C72.4309 6.73943 72.1652 6.77567 71.9115 6.82398C71.6579 6.87229 71.4043 6.9327 71.1385 6.99309C70.9211 7.0414 70.7037 7.0897 70.4863 7.13801C70.2085 7.21048 69.9308 7.29503 69.653 7.3675C69.4718 7.41581 69.2906 7.4762 69.1095 7.52451C68.8075 7.62114 68.5056 7.72984 68.2157 7.82646C68.0708 7.87477 67.9258 7.93517 67.7809 7.98348C67.4548 8.10426 67.1408 8.23709 66.8147 8.36994C66.706 8.41825 66.5973 8.46656 66.4886 8.51487C66.1383 8.67188 65.8001 8.82892 65.474 8.99801C65.4016 9.03425 65.3291 9.07048 65.2687 9.10671C64.9064 9.29996 64.544 9.49319 64.1817 9.69851C64.1575 9.71059 64.1213 9.73476 64.0971 9.74683C61.597 11.2203 59.3868 13.1286 57.563 15.363C56.9712 14.3485 56.3311 13.3823 55.6427 12.4523C60.7395 6.71528 68.1553 3.09193 76.4045 3.09193C91.7313 3.09193 104.196 15.5563 104.196 30.8831V53.1667C104.196 68.4935 91.7313 80.9578 76.4045 80.9578C61.0777 80.9578 48.6133 68.4935 48.6133 53.1667V50.0506V30.4966C48.6133 20.7256 40.654 12.7663 30.8831 12.7663C21.1121 12.7663 13.1528 20.7256 13.1528 30.4966V33.8301H16.2326V30.4966C16.2326 22.4165 22.803 15.8461 30.8831 15.8461C38.9631 15.8461 45.5335 22.4165 45.5335 30.4966V34.6393C45.5335 40.8111 37.7795 45.4127 30.0376 50.1472C16.5346 58.3964 1.20778 68.6143 0.157009 90.0887C0.120775 90.753 0.108696 93.2289 0.108696 93.2289V100.826H2.50011H54.1933V97.6615H3.18855C3.18855 97.6615 3.18855 92.0332 3.18855 91.9245C3.35764 70.9091 18.4308 60.8603 31.644 52.7802C37.2481 49.3501 42.3812 46.2098 45.5335 42.6348V47.2727C42.1638 50.1835 37.8158 52.8406 33.1537 55.6789C20.9068 63.1309 8.49073 71.5251 6.77568 88.6031C6.71529 89.2312 6.59451 90.8013 6.59451 91.5622V94.328H9.72266H54.1692V91.1636H9.72266V90.9583C9.72266 90.9583 9.72267 90.3303 9.73475 90.2216C9.73475 90.0283 9.7589 89.8472 9.77098 89.6539C11.015 73.6024 22.3923 65.8364 34.748 58.3119C38.5767 55.9808 42.2966 53.6861 45.5214 51.198V53.1546C45.5214 53.8552 45.5577 54.5556 45.5939 55.2441C42.8039 57.1886 39.7844 59.0486 36.7046 60.9207C25.593 67.6601 15.52 74.617 13.4306 87.818H15.0973H54.1571V84.6537H17.4283C20.6773 75.1484 28.5641 69.4718 38.3109 63.5536C40.9198 61.9715 43.5286 60.3772 46.0287 58.6863C48.6496 73.071 61.2589 84.0256 76.3924 84.0256C93.4101 84.0256 107.263 70.1723 107.263 53.1546V30.871C107.263 13.8533 93.4101 0 76.3924 0L76.3803 0.0362321ZM61.7299 50.0748V30.9072C61.7299 30.9072 61.7299 30.871 61.7299 30.8589V30.5328C61.7299 22.4527 68.3002 15.8824 76.3803 15.8824C84.4604 15.8824 91.0308 22.4527 91.0308 30.5328V53.5774C91.0308 61.6575 84.4604 68.2278 76.3803 68.2278C68.3002 68.2278 61.7299 61.6575 61.7299 53.5774V50.0868V50.0748Z" fill="white"/>
</svg>
