<svg width="225" height="64" viewBox="0 0 225 64" fill="none" xmlns="http://www.w3.org/2000/svg">
<path fill-rule="evenodd" clip-rule="evenodd" d="M142.614 27.1409C142.888 28.0269 143.841 28.3154 143.841 28.3154V29.088H139.232C138.01 29.0829 136.868 28.0012 136.868 26.6928V23.5713H162.709C162.709 23.5713 162.709 23.7619 162.709 24.6479C162.709 25.5338 162.176 26.5228 160.685 27.45C159.925 27.9187 148.833 34.6048 145.602 36.4437C145.263 36.6188 145.333 36.9124 145.333 36.9124H156.285C156.285 36.9124 156.264 36.0573 156.264 35.841C156.21 34.5635 155.004 34.4193 155.004 34.4193V33.6467H159.613C160.83 33.6518 161.977 34.7335 161.977 36.0419V39.1634H136.351C136.351 39.1634 136.346 38.9728 136.346 38.0868C136.346 37.2009 136.879 36.2119 138.371 35.2847C138.371 35.2847 152.559 26.7701 153.108 26.4456C153.658 26.121 153.48 25.8223 153.48 25.8223H142.554C142.554 25.8223 142.576 26.9864 142.608 27.1409M220.745 23.5713C222.63 23.5713 223.685 24.7097 223.685 26.5846V30.4118C223.685 32.0911 222.323 32.8328 220.481 32.8328L219.641 32.8483C220.083 32.9719 220.503 33.1882 220.804 33.5849C221.413 34.3884 222.786 36.5106 223.529 37.4378C224.127 38.1796 224.999 38.128 224.999 38.128L224.988 39.1634H219.415C217.234 39.1634 216.136 38.0096 215.484 36.9948C214.833 35.9801 213.772 34.3936 213.25 33.5746C212.937 33.0852 212.323 32.9152 211.882 32.8534H205.016V39.694H200.789C198.996 39.694 198.205 38.2311 198.205 36.9176L198.194 26.0129C198.194 24.7406 196.896 24.3439 196.896 24.3439V23.5764H220.745V23.5713ZM216.868 30.5509V26.6155C216.868 26.1519 216.604 25.8789 216.055 25.8789H205.027V30.5509H216.868ZM167.701 26.0129C167.701 24.7406 166.403 24.3439 166.403 24.3439V23.5764H190.709C192.594 23.5764 193.649 24.7148 193.649 26.5898V39.1686H186.832V32.8586H174.539L174.529 39.6991H170.302C168.509 39.6991 167.712 38.2362 167.712 36.9227L167.701 26.018V26.0129ZM174.539 30.5561H186.832V26.6207C186.832 26.1571 186.569 25.8841 186.019 25.8841H175.358C174.809 25.8841 174.545 26.1571 174.545 26.6207V30.5561H174.539ZM109.88 23.5919C111.48 23.5919 112.546 24.6582 112.546 26.2086V35.9749C112.546 36.5982 112.88 37.0051 113.542 37.0051H124.354V26.0129C124.354 24.7406 123.057 24.3439 123.057 24.3439V23.5713H131.279V39.2561H108.114C106.327 39.2561 105.433 38.0199 105.433 36.5261V26.3013C105.433 24.7303 104.205 24.4109 104.205 24.4109V23.5764C104.205 23.5764 108.523 23.5919 109.88 23.5919ZM80.2325 23.5919C81.8318 23.5919 82.8979 24.6582 82.8979 26.2086V35.908C82.8979 36.7373 83.1026 37.0051 83.8133 37.0051H95.9396V35.6195C95.9396 34.3472 94.6419 33.9506 94.6419 33.9506V33.1779H99.1434C100.673 33.1779 101.637 34.239 101.637 35.8925V39.2561H78.4718C76.684 39.2561 75.7902 38.0199 75.7902 36.5261V26.3013C75.7902 24.7303 74.5625 24.4109 74.5625 24.4109V23.5764C74.5625 23.5764 78.881 23.5919 80.2379 23.5919" fill="white"/>
<path d="M33.6172 23.1128C33.6443 23.419 33.8775 23.6691 34.1323 23.6691C34.3871 23.6691 34.5769 23.4241 34.5498 23.1128C34.5444 23.0516 34.5281 22.9904 34.5118 22.9342C34.4088 22.9444 34.2462 22.9546 34.0022 22.9189C33.8612 22.8985 33.7473 22.8628 33.6606 22.8219C33.628 22.9087 33.6118 23.0057 33.6172 23.1077M40.8286 34.6412C41.2732 35.2179 42.9053 37.0397 43.1764 38.0655C43.4475 39.0913 43.4855 39.5046 43.2089 40.3722C42.9378 41.2397 42.5637 42.4186 43.4475 42.6789C44.3313 42.934 44.7054 41.944 44.8789 41.1734C45.047 40.4028 45.9308 39.3158 46.4785 38.9637C47.0207 38.6115 46.8851 37.1724 45.9688 36.8203C45.0525 36.4682 43.724 35.9578 43.0083 34.9627C42.2926 33.9726 41.989 33.2021 41.2082 33.299C40.4274 33.396 40.3894 34.0696 40.834 34.6412M33.5304 34.4115C34.6853 34.7024 36.6265 35.5649 37.8464 37.647C39.0718 39.7241 39.1749 40.1119 39.8201 39.918C40.4653 39.7241 40.1237 38.5758 39.511 37.2592C38.8983 35.9476 38.4266 34.7637 37.879 33.9012C37.3368 33.0336 36.5506 32.7172 35.4987 32.8448C34.4468 32.9724 33.9696 32.9724 33.2539 32.9418C32.5382 32.9112 32.3701 34.1257 33.525 34.4115M14.8349 34.0798C14.1843 34.0084 14.0813 34.1615 14.0108 34.9729C14.0867 35.371 14.1626 35.82 14.2819 36.1518C14.5205 36.8254 14.9976 37.4633 14.4879 37.4021C13.9782 37.3408 12.6498 36.4069 11.5329 34.9984C10.4105 33.5899 10.8551 31.6711 10.8876 31.1914C10.9202 30.7116 11.3268 30.5483 10.8171 29.5277C10.3075 28.5019 10.2044 27.3537 10.2695 26.3943C10.34 25.4348 11.4244 24.7612 11.5979 24.1233C11.766 23.4854 11.9395 22.8117 12.7528 22.429C13.5662 22.0462 14.4879 21.0562 15.3717 20.5765C16.2555 20.0917 17.9581 19.2292 18.4678 18.7495C18.9774 18.2698 19.8287 17.8207 19.6552 17.244C19.4871 16.6674 19.113 15.9937 19.8287 15.9937C20.5444 15.9937 20.9836 15.9325 21.6614 15.3558C22.3392 14.7791 22.7512 13.8503 24.4863 13.3706C26.2214 12.8909 27.0673 11.707 29.415 11.61C31.7628 11.513 33.1888 11.6406 34.7179 11.6406C36.2469 11.6406 37.4018 11.4467 38.7953 11.1915C40.1888 10.9313 40.5629 10.3597 41.7883 9.71668C43.0137 9.07366 44.7434 9.07366 45.5296 9.01242C46.3104 8.94608 46.6845 9.26759 46.3755 9.77792C46.0718 10.2882 45.5296 11.0588 45.3561 11.7019C45.188 12.3398 46.0718 12.5643 46.0718 12.8195C46.0718 13.0746 45.3236 12.8858 44.7813 12.6613C44.2391 12.4367 43.8975 11.7988 44.0656 11.4773C44.2391 11.1558 45.6977 10.324 45.6272 9.84426C45.5621 9.36455 44.8464 9.65034 43.9301 9.94122C43.0137 10.227 42.6017 11.0588 42.6721 11.957C42.7372 12.8501 43.5234 13.044 43.3879 13.3655C43.2523 13.687 42.1625 13.141 41.078 12.8195C39.9882 12.498 35.7372 12.3704 34.4468 12.3704C33.1563 12.3704 30.3693 12.3398 28.2222 12.8195C26.0804 13.2992 24.0038 14.3556 23.2555 15.5089C22.5072 16.6623 21.759 16.5347 20.8752 16.5347C20.474 16.5347 20.436 16.6878 20.5119 16.9021C21.1842 17.4839 21.7482 17.6931 22.3988 17.6931C23.0495 17.6931 23.2663 17.882 23.1525 18.2392C23.0386 18.5913 22.7621 18.7291 21.4445 18.8669L21.0107 18.9179C20.1866 19.1016 20.783 19.418 20.783 19.612C20.783 19.8059 20.1703 19.9488 19.8613 19.9182C19.6064 19.8927 19.1293 19.9182 18.8365 20.0764C18.7768 20.107 18.728 20.1427 18.6901 20.1886C18.4515 20.4438 18.5383 20.6684 18.2129 20.8419C17.8876 21.0205 17.1448 21.0052 16.5971 21.0358C16.082 21.1838 15.6537 21.3165 15.388 21.4696C14.6397 21.888 14.5042 22.526 15.5235 22.8424C16.5429 23.1639 17.2912 23.1945 18.3105 22.5872C18.484 22.4851 18.663 22.3882 18.8419 22.2963C19.2214 21.8472 19.1835 21.74 18.9558 21.4032C18.7172 21.0511 19.0262 20.7653 19.7745 20.8572C20.5228 20.9541 21.2005 21.4645 21.6126 21.3063C22.0193 21.1481 21.5801 20.9235 21.7482 20.602C21.9162 20.2805 22.7024 20.4438 23.4832 20.5714C24.1285 20.6735 24.5622 20.995 25.7009 21.1991C26.3353 21.2195 26.8721 21.2348 27.154 21.2093C27.9023 21.1481 28.58 21.1123 28.618 20.7602C28.6505 20.4081 27.7667 20.1835 28.0758 19.7702C28.3848 19.3568 29.594 19.3211 30.185 19.515C31.649 19.9947 31.0742 21.1072 33.0153 21.3318C34.951 21.5563 36.2035 21.1481 37.7326 21.3726C39.2616 21.5972 40.384 21.8217 41.0292 22.1738C41.6745 22.526 41.5389 23.1026 41.0292 23.2608C40.5196 23.4241 39.8743 23.0057 39.023 22.9087C38.1718 22.8117 38.0362 22.8781 38.0362 22.8781C38.0362 22.8781 37.3368 24.5979 35.477 24.6234C33.4328 24.6489 33.0479 23.5415 33.0696 22.4188C32.8364 22.1279 32.3701 22.1738 32.2291 22.5668C32.0881 22.9444 32.4026 23.6028 32.9232 24.1743C33.1997 24.3785 33.4437 24.5979 33.6172 24.802C34.0564 25.3124 33.6172 26.1136 32.972 25.4399C32.3267 24.7663 30.9115 23.6691 29.4855 23.3374C26.9805 22.7607 24.1827 22.4341 23.4019 22.6229C23.4019 22.6229 22.7187 22.7454 22.0301 23.2863C21.4716 23.7916 21.2873 24.4805 20.4902 25.343C19.3028 26.6239 17.3942 26.3994 15.8001 26.6545C14.2006 26.9097 13.5987 28.0171 14.0325 29.5991C14.2981 30.5688 14.9976 31.2577 14.9976 31.2577C16.7327 32.559 18.8853 33.2837 19.3461 32.707C19.4329 32.5948 19.4709 32.4723 19.4709 32.3396C19.3028 31.6507 18.1424 29.0225 20.3872 28.1294C22.632 27.2312 23.4453 27.2312 25.4189 26.8484C27.3926 26.4657 29.9789 25.9503 31.1989 26.0166C32.4243 26.0779 33.3732 26.5269 33.9859 26.2718C34.5986 26.0166 35.618 26.2718 36.0246 26.0166C36.4313 25.7614 36.9789 25.3736 38.9471 25.3736C40.9154 25.3736 43.1601 25.8227 43.7728 25.246C44.3855 24.6693 43.5668 24.7357 42.7535 24.6081C41.9402 24.4805 41.8697 23.3935 43.4367 23.0108C44.9982 22.6229 44.5265 21.2808 43.03 21.2808C41.5335 21.2808 40.3786 20.7653 38.2694 20.3826C36.1602 19.9998 36.6373 19.6171 34.9348 19.5507C33.2322 19.4844 33.8449 18.3361 36.2252 18.3361C38.6055 18.3361 40.9859 18.3361 43.1601 17.1828C45.3344 16.0295 44.9982 14.7536 45.4754 13.9218C45.9525 13.09 47.3081 12.7072 48.4684 12.8348C49.6233 12.9624 52.4157 13.1563 55.5388 12.5133C58.6674 11.8754 59.2096 11.6814 60.2995 11.1711C61.3893 10.6608 62.2026 10.3393 62.002 11.5539C61.8122 12.6868 61.27 13.539 59.7193 14.8353L59.3452 15.1415L59.1175 15.3303L56.0431 17.8513C55.181 18.5607 55.5443 21.8931 61.5954 24.1029C63.7696 24.8939 64.583 23.8273 65.1306 28.8387C65.1414 28.951 65.1685 29.0582 65.2173 29.1704C65.3421 30.2626 65.4071 31.37 65.4071 32.4876C65.4071 49.4918 50.762 63.2707 32.6954 63.2707C14.6289 63.2707 0 49.4816 0 32.4774C0 15.4732 14.6452 1.69429 32.7063 1.69429C32.7063 1.69429 34.8968 1.68409 35.7752 1.69429C38.5025 1.71471 38.9417 0 38.9417 0L40.14 0.153099C40.14 0.153099 40.3027 1.02576 40.0858 2.92419C39.6249 6.94048 36.0246 9.19104 32.1857 9.12469H31.5405C16.6676 9.12469 4.61423 20.4693 4.61423 34.4677C4.61423 48.466 16.5212 59.6729 31.264 59.8106C33.0479 59.632 34.989 59.0758 36.5018 57.703C37.6838 56.4323 37.9983 54.9268 37.0602 53.7275C36.5072 53.0284 35.5258 52.5793 34.3221 52.7732C33.2647 53.6306 32.0393 55.1156 30.7055 56.6721C29.8868 57.6315 28.7969 58.2797 27.3004 58.0245C25.8039 57.7693 23.6351 56.7997 22.8868 56.0342C22.1385 55.2687 21.8674 54.9472 20.642 53.5999C19.4166 52.2527 18.3973 49.502 18.7389 48.9304C19.0805 48.3537 19.4871 48.3537 21.0487 49.4407C22.6103 50.5277 22.7512 50.4002 23.1579 49.5071C23.5646 48.6089 22.6428 48.9304 23.2555 47.5219C23.8682 46.1134 23.0495 43.6179 23.0495 42.2757C23.0495 41.699 22.9844 41.0254 22.8868 40.464C22.8651 39.1423 24.4755 38.535 25.24 38.4329C25.446 38.4074 25.5653 38.5299 25.625 38.632C25.8473 40.4283 25.5762 44.5416 25.0882 45.9246C24.4755 47.6546 24.8225 48.6191 24.7845 49.2519C24.7141 50.4257 24.1068 50.6604 23.6296 51.1095C23.1525 51.5586 23.4941 52.4517 24.1718 52.712C24.855 52.9671 27.0944 53.9316 26.7582 53.2886C26.4166 52.6507 25.9774 51.5943 25.9774 50.7625C25.9774 49.9307 26.6606 50.1246 27.8155 51.084C28.9108 51.9924 30.1633 51.1146 31.2477 50.9258C31.5351 50.8748 32.0881 50.5737 32.0936 49.701C32.0936 49.3387 32.8689 48.6599 33.3027 48.7467C33.7365 48.8386 34.3166 48.0067 34.8805 47.3994C36.9681 45.1795 36.5126 44.3374 34.8805 40.8111C34.0401 39.4077 33.2864 38.2543 30.4669 37.351C28.4879 36.7131 26.4274 36.7182 24.9526 37.0448C24.7629 37.0346 24.5568 37.055 24.3454 37.1265C23.5266 37.4123 22.5398 38.2543 22.2416 40.0201C22.0681 40.9999 22.003 41.8572 21.9705 42.337C21.9 43.2964 21.2222 43.1688 20.6095 41.9542C19.9968 40.7396 19.5901 38.3717 19.6552 37.152C19.7257 35.9374 18.907 35.9374 17.9581 35.4883C17.0038 35.0392 16.5321 35.422 16.326 34.7177C16.12 34.0186 15.3175 34.4524 14.8404 34.0849M12.8938 29.3235C12.7745 28.7775 12.704 27.3077 11.9341 26.7413C11.1642 26.1799 10.6111 26.2463 10.6816 27.2618C10.7521 28.2774 10.9202 28.9612 11.6413 29.4154C12.3624 29.8696 13.0131 29.8696 12.8938 29.3286M12.3462 23.3578C12.3462 23.3578 12.0425 23.7763 12.2757 24.2866C12.5143 24.802 12.8233 24.5111 13.0944 24.9602C13.3655 25.4093 13.0944 25.8227 13.3655 26.0779C13.6367 26.333 13.9782 25.9503 14.1138 25.5675C14.2493 25.1848 15.1657 25.4399 15.8814 25.6951C16.5917 25.9503 17.0038 25.5369 16.9658 24.7357C16.9333 23.9345 16.2176 23.3935 15.0301 23.0108C13.8427 22.6229 12.8559 22.5923 12.3462 23.3629M44.3205 28.3029C44.6621 28.1447 44.9982 28.0324 45.291 28.0018C46.5815 27.8742 48.4901 28.0018 48.4196 26.6596V26.5116C48.0997 26.1544 47.3081 25.9758 45.9742 26.2718C43.6644 26.7821 41.9618 27.1036 39.3104 27.0373C36.659 26.9709 35.4336 26.8484 33.9371 27.7415C32.4406 28.6397 27.6149 29.0225 25.5708 29.8543C23.532 30.6861 24.6165 31.7119 26.2485 31.7119C27.8806 31.7119 34.4088 30.431 38.8279 29.4715C41.257 28.9459 43.0734 28.5325 44.315 28.2978" fill="white"/>
<path d="M78.7609 54.3878V53.3373H76.1679V54.3878H75.498V52.7275H75.9896L76.7135 50.0424H76.2759V49.4224H79.3767V50.0424H78.9229V52.7275H79.4577V54.3878H78.7609ZM78.2153 50.0424H77.3888L76.6919 52.7275H78.2153V50.0424Z" fill="white"/>
<path d="M82.2618 53.3368H80.6465C80.1658 53.3368 79.9551 53.0704 79.9551 52.727V50.2213C79.9551 49.6986 80.2252 49.4219 80.814 49.4219H82.1915C82.7641 49.4219 82.991 49.6115 82.991 50.1393V51.7073H80.6682V52.4657C80.6682 52.6194 80.6844 52.7322 80.9112 52.7322H82.0295C82.2293 52.7322 82.2726 52.6194 82.2726 52.4657V52.2607H82.991V52.6297C82.991 53.0755 82.802 53.3471 82.2564 53.3471L82.2618 53.3368ZM82.278 50.2828C82.278 50.0983 82.2239 50.0419 82.0619 50.0419H80.9112C80.7384 50.0419 80.6736 50.1341 80.6736 50.2571V51.1334H82.278V50.2828Z" fill="white"/>
<path d="M86.717 50.7542H86.0741V50.0419H85.4367V52.727H85.9013V53.3368H84.2429V52.727H84.7236V50.0419H84.0862V50.7542H83.4434V49.4219H86.717V50.7542Z" fill="white"/>
<path d="M87.805 53.3366C87.2054 53.3366 87.0703 53.1367 87.0703 52.6192V51.8198C87.0703 51.3637 87.2864 51.1024 87.8698 51.1024H89.4202V50.2415C89.4202 50.1185 89.3122 50.0263 89.1825 50.0263H88.1129C87.9508 50.0263 87.8482 50.1544 87.8482 50.3337V50.7027H87.1676V50.1288C87.1676 49.6727 87.4052 49.4114 87.9725 49.4114H89.2689C89.9334 49.4114 90.1225 49.7547 90.1225 50.2108V52.7165H90.5654V53.3263H87.7996L87.805 53.3366ZM89.4202 51.7122H88.0481C87.8104 51.7122 87.7834 51.8403 87.7834 52.0196V52.4245C87.7834 52.5782 87.8104 52.7268 88.0481 52.7268H89.4202V51.7122Z" fill="white"/>
<path d="M94.5834 50.0419H94.1459V52.727H94.5834V53.3368H92.9844V52.727H93.4382V50.0419H92.4767L92.0769 52.3991C91.9959 52.9013 91.6771 53.3368 91.1586 53.3368H90.5859V52.727H91.0127C91.2288 52.727 91.3584 52.5272 91.3962 52.312L91.8068 50.0419H91.353V49.4219H94.5834V50.0419Z" fill="white"/>
<path d="M97.6672 50.6363L96.1871 53.3368H94.9824V52.727H95.42V50.0419H94.9824V49.4219H96.5706V50.0419H96.1331V52.1224H96.1493L97.6294 49.4219H98.8341V50.0419H98.3965V52.727H98.8341V53.3368H97.2459V52.727H97.6834V50.6363H97.6672Z" fill="white"/>
<path d="M102.72 53.3368C102.12 53.3368 101.975 53.0089 101.975 52.6194V50.1341C101.975 49.6781 102.239 49.4167 102.78 49.4167H104.746V50.6466H104.103V50.006H102.952C102.774 50.006 102.688 50.1341 102.688 50.3237V52.4145C102.688 52.5682 102.79 52.7168 102.952 52.7168H104.141V52.189H104.784V53.3266H102.715L102.72 53.3368Z" fill="white"/>
<path d="M107.942 50.6363L106.462 53.3368H105.252V52.727H105.69V50.0419H105.252V49.4219H106.84V50.0419H106.403V52.1224H106.419L107.899 49.4219H109.104V50.0419H108.666V52.727H109.104V53.3368H107.515V52.727H107.953V50.6363H107.937H107.942Z" fill="white"/>
<path d="M110.449 53.3368C109.849 53.3368 109.703 53.0089 109.703 52.6194V50.1341C109.703 49.6781 109.968 49.4167 110.508 49.4167H112.48V50.6466H111.837V50.006H110.686C110.503 50.006 110.422 50.1341 110.422 50.3237V52.4145C110.422 52.5682 110.524 52.7168 110.686 52.7168H111.875V52.189H112.518V53.3266H110.449V53.3368Z" fill="white"/>
<path d="M116.16 50.7542H115.517V50.0419H114.88V52.727H115.344V53.3368H113.68V52.727H114.161V50.0419H113.524V50.7542H112.881V49.4219H116.154V50.7542H116.16Z" fill="white"/>
<path d="M118.973 53.3368H117.357C116.877 53.3368 116.666 53.0704 116.666 52.727V50.2213C116.666 49.6986 116.936 49.4219 117.53 49.4219H118.908C119.48 49.4219 119.707 49.6115 119.707 50.1393V51.7073H117.384V52.4657C117.384 52.6194 117.401 52.7322 117.628 52.7322H118.746C118.946 52.7322 118.989 52.6194 118.989 52.4657V52.2607H119.707V52.6297C119.707 53.0755 119.518 53.3471 118.973 53.3471V53.3368ZM118.989 50.2828C118.989 50.0983 118.935 50.0419 118.773 50.0419H117.622C117.449 50.0419 117.384 50.1341 117.384 50.2571V51.1334H118.989V50.2828Z" fill="white"/>
<path d="M123.386 53.3368V52.727H123.856V50.334H123.84L122.894 52.4196H122.424L121.425 50.334H121.409V52.727H121.879V53.3368H120.264V52.727H120.701V50.0419H120.264V49.4219H121.701L122.678 51.5075L123.575 49.4219H125.001V50.0419H124.564V52.727H125.001V53.3368H123.386Z" fill="white"/>
<path d="M127.909 50.9643C128.552 50.9643 128.671 51.2051 128.671 51.6766V52.6246C128.671 53.0396 128.6 53.342 127.925 53.342H125.413V52.7322H125.84V50.047H125.402V49.427H127.001V50.047H126.558V50.9694H127.909V50.9643ZM127.958 51.8764C127.958 51.6971 127.958 51.569 127.693 51.569H126.558V52.7322H127.693C127.958 52.7322 127.958 52.5784 127.958 52.4298V51.8764ZM128.946 50.047V49.427H130.496V50.047H130.053V52.7322H130.496V53.342H128.946V52.7322H129.373V50.047H128.946Z" fill="white"/>
<path d="M135.996 53.3368H134.462C133.846 53.3368 133.662 53.0499 133.662 52.6143V50.1341C133.662 49.6935 133.889 49.4167 134.462 49.4167H135.985C136.655 49.4167 136.79 49.6935 136.79 50.1341V52.6143C136.79 53.0499 136.671 53.3368 135.99 53.3368H135.996ZM136.088 50.2981C136.088 50.17 136.05 50.0419 135.861 50.0419H134.597C134.413 50.0419 134.37 50.17 134.37 50.2981V52.4708C134.37 52.5989 134.381 52.727 134.597 52.727H135.861C136.05 52.727 136.088 52.5887 136.088 52.4606V50.2981Z" fill="white"/>
<path d="M139.56 53.3368V52.9064L138.988 51.9686L138.426 52.9064V53.3368H137.227V52.727H137.756L138.599 51.323L137.821 50.0419H137.297V49.4219H138.512V49.8523L139.004 50.662L139.485 49.8523V49.4219H140.673V50.0419H140.149L139.398 51.2974L140.257 52.727H140.781V53.3368H139.566H139.56Z" fill="white"/>
<path d="M144.708 50.0419H144.276V52.727H144.708V53.3368H143.109V52.727H143.563V50.0419H142.602L142.202 52.3991C142.121 52.9013 141.802 53.3368 141.284 53.3368H140.711V52.727H141.138C141.354 52.727 141.483 52.5272 141.521 52.312L141.926 50.0419H141.473V49.4219H144.703V50.0419H144.708Z" fill="white"/>
<path d="M145.989 53.3366C145.389 53.3366 145.254 53.1367 145.254 52.6192V51.8198C145.254 51.3637 145.47 51.1024 146.053 51.1024H147.604V50.2415C147.604 50.1185 147.496 50.0263 147.366 50.0263H146.296C146.134 50.0263 146.032 50.1544 146.032 50.3337V50.7027H145.351V50.1288C145.351 49.6727 145.589 49.4114 146.156 49.4114H147.453C148.117 49.4114 148.306 49.7547 148.306 50.2108V52.7165H148.749V53.3263H145.983L145.989 53.3366ZM147.604 51.7122H146.232C145.994 51.7122 145.967 51.8403 145.967 52.0196V52.4245C145.967 52.5782 145.994 52.7268 146.232 52.7268H147.604V51.7122Z" fill="white"/>
<path d="M153.099 53.3368V52.727H153.418V51.9174C153.418 51.7124 153.391 51.5792 153.153 51.5792H152.062V52.727H152.532V53.3368H150.916V52.727H151.386V51.5792H150.29C150.047 51.5792 150.014 51.7124 150.014 51.9174V52.727H150.349V53.3368H148.891V52.727H149.317V51.8303C149.317 51.3845 149.393 51.0463 150.214 51.0463H150.349L149.404 50.0419H148.993V49.4219H150.452V50.0419H150.225L151.349 51.2205H151.376V50.0419H150.949V49.4219H152.483V50.0419H152.045V51.2205H152.072L153.196 50.0419H152.969V49.4219H154.428V50.0419H154.017L153.072 51.0463H153.196C154.012 51.0463 154.087 51.364 154.087 51.8303V52.727H154.53V53.3368H153.072H153.099Z" fill="white"/>
<path d="M157.89 54.3873V53.3368H155.297V54.3873H154.627V52.727H155.119L155.842 50.0419H155.405V49.4219H158.511V50.0419H158.057V52.727H158.592V54.3873H157.895H157.89ZM157.344 50.0419H156.518L155.821 52.727H157.344V50.0419Z" fill="white"/>
<path d="M161.395 53.3368H159.78C159.299 53.3368 159.094 53.0704 159.094 52.727V50.2213C159.094 49.6986 159.364 49.4219 159.953 49.4219H161.33C161.903 49.4219 162.13 49.6115 162.13 50.1393V51.7073H159.807V52.4657C159.807 52.6194 159.823 52.7322 160.05 52.7322H161.168C161.368 52.7322 161.411 52.6194 161.411 52.4657V52.2607H162.13V52.6297C162.13 53.0755 161.941 53.3471 161.395 53.3471V53.3368ZM161.411 50.2828C161.411 50.0983 161.357 50.0419 161.195 50.0419H160.044C159.872 50.0419 159.807 50.1341 159.807 50.2571V51.1334H161.411V50.2828Z" fill="white"/>
<path d="M163.838 51.6253V52.727H164.276V53.3368H162.688V52.727H163.125V50.0419H162.688V49.4219H164.276V50.0419H163.838V51.0053H165.389V50.0419H164.951V49.4219H166.539V50.0419H166.102V52.727H166.539V53.3368H164.951V52.727H165.389V51.6253H163.838Z" fill="white"/>
<path d="M169.618 50.6363L168.138 53.3368H166.928V52.727H167.365V50.0419H166.928V49.4219H168.516V50.0419H168.078V52.1224H168.095L169.575 49.4219H170.779V50.0419H170.342V52.727H170.779V53.3368H169.191V52.727H169.623V50.6363H169.607H169.618Z" fill="white"/>
<path d="M174.35 50.0419V52.727H174.777V53.3368H173.21V52.727H173.637V51.5894H172.433C172.249 51.5894 172.195 51.7176 172.195 51.8969V52.7219H172.578V53.3317H170.99V52.7219H171.487V51.8252C171.487 51.487 171.66 51.3025 171.876 51.2666V51.2359C171.66 51.2154 171.503 51.0104 171.503 50.7593V50.0368C171.503 49.5807 171.849 49.4167 172.276 49.4167H174.777V50.0368H174.35V50.0419ZM173.632 50.0419H172.433C172.217 50.0419 172.216 50.17 172.216 50.3237V50.7644C172.216 50.9028 172.217 51.0463 172.481 51.0463H173.632V50.0419Z" fill="white"/>
</svg>
