<svg width="38" height="35" viewBox="0 0 38 35" fill="none" xmlns="http://www.w3.org/2000/svg">
<path d="M19.5308 12.7855C19.5465 12.9549 19.682 13.0932 19.8301 13.0932C19.9781 13.0932 20.0884 12.9577 20.0726 12.7855C20.0695 12.7517 20.06 12.7178 20.0506 12.6867C19.9907 12.6924 19.8962 12.698 19.7545 12.6783C19.6726 12.667 19.6064 12.6472 19.556 12.6246C19.5371 12.6726 19.5276 12.7262 19.5308 12.7827M23.7205 19.1628C23.9788 19.4818 24.927 20.4896 25.0845 21.057C25.242 21.6245 25.264 21.8531 25.1034 22.333C24.9459 22.813 24.7285 23.4651 25.242 23.609C25.7554 23.7502 25.9728 23.2025 26.0736 22.7763C26.1713 22.35 26.6847 21.7487 27.0029 21.5539C27.3179 21.3591 27.2392 20.563 26.7068 20.3682C26.1744 20.1734 25.4026 19.8911 24.9868 19.3406C24.571 18.7929 24.3946 18.3667 23.941 18.4203C23.4874 18.4739 23.4653 18.8466 23.7236 19.1628M19.4804 19.0357C20.1514 19.1966 21.2791 19.6737 21.9879 20.8255C22.6998 21.9745 22.7597 22.1891 23.1345 22.0818C23.5094 21.9745 23.311 21.3393 22.955 20.611C22.599 19.8855 22.325 19.2305 22.0068 18.7534C21.6918 18.2735 21.235 18.0985 20.6239 18.1691C20.0128 18.2396 19.7356 18.2396 19.3197 18.2227C18.9039 18.2058 18.8063 18.8776 19.4772 19.0357M8.61875 18.8522C8.24074 18.8127 8.18088 18.8974 8.13993 19.3463C8.18403 19.5665 8.22814 19.8149 8.29744 19.9984C8.43604 20.371 8.71326 20.7239 8.41714 20.69C8.12103 20.6562 7.34925 20.1395 6.70032 19.3604C6.04825 18.5812 6.30656 17.5198 6.32546 17.2544C6.34436 16.989 6.58062 16.8987 6.28451 16.3341C5.98839 15.7667 5.92854 15.1315 5.96634 14.6007C6.0073 14.07 6.63732 13.6974 6.73812 13.3445C6.83578 12.9916 6.93658 12.619 7.4091 12.4072C7.88162 12.1955 8.41714 11.6478 8.93061 11.3825C9.44409 11.1143 10.4332 10.6372 10.7293 10.3718C11.0255 10.1065 11.52 9.85804 11.4192 9.53904C11.3216 9.22004 11.1042 8.84739 11.52 8.84739C11.9358 8.84739 12.191 8.81352 12.5848 8.49452C12.9785 8.17551 13.2179 7.66172 14.226 7.39635C15.234 7.13099 15.7254 6.47604 17.0894 6.42241C18.4535 6.36877 19.2819 6.43934 20.1703 6.43934C21.0586 6.43934 21.7296 6.33207 22.5392 6.19092C23.3488 6.04694 23.5661 5.73076 24.278 5.37506C24.99 5.01936 25.9949 5.01936 26.4516 4.98548C26.9052 4.94878 27.1226 5.12663 26.943 5.40894C26.7666 5.69124 26.4516 6.11752 26.3508 6.47322C26.2532 6.8261 26.7666 6.95031 26.7666 7.09147C26.7666 7.23262 26.3319 7.12817 26.0169 7.00395C25.7019 6.87974 25.5034 6.52686 25.6011 6.34901C25.7019 6.17116 26.5493 5.711 26.5083 5.44564C26.4705 5.18027 26.0547 5.33836 25.5223 5.49927C24.99 5.65736 24.7506 6.11752 24.7915 6.61437C24.8293 7.1084 25.2861 7.21568 25.2073 7.39353C25.1286 7.57138 24.4954 7.26932 23.8654 7.09147C23.2322 6.91361 20.7625 6.84304 20.0128 6.84304C19.263 6.84304 17.6439 6.8261 16.3964 7.09147C15.1521 7.35683 13.9456 7.9412 13.5109 8.57921C13.0762 9.21721 12.6415 9.14664 12.128 9.14664C11.8949 9.14664 11.8728 9.23133 11.9169 9.3499C12.3076 9.67172 12.6352 9.78747 13.0132 9.78747C13.3912 9.78747 13.5172 9.89192 13.451 10.0895C13.3849 10.2843 13.2242 10.3605 12.4588 10.4368L12.2067 10.465C11.7279 10.5666 12.0744 10.7417 12.0744 10.8489C12.0744 10.9562 11.7185 11.0352 11.5389 11.0183C11.3909 11.0042 11.1137 11.0183 10.9435 11.1058C10.9089 11.1228 10.8805 11.1425 10.8585 11.1679C10.7199 11.3091 10.7703 11.4333 10.5813 11.5293C10.3923 11.6281 9.96071 11.6196 9.64254 11.6366C9.34328 11.7184 9.09442 11.7918 8.94006 11.8765C8.50535 12.108 8.42659 12.4609 9.01882 12.6359C9.61104 12.8138 10.0458 12.8307 10.638 12.4948C10.7388 12.4383 10.8427 12.3847 10.9467 12.3338C11.1672 12.0854 11.1452 12.0261 11.0128 11.8398C10.8742 11.645 11.0538 11.4869 11.4885 11.5377C11.9232 11.5914 12.317 11.8737 12.5564 11.7862C12.7927 11.6987 12.5375 11.5744 12.6352 11.3966C12.7328 11.2187 13.1896 11.3091 13.6432 11.3797C14.0181 11.4361 14.2701 11.614 14.9316 11.7269C15.3002 11.7382 15.612 11.7467 15.7758 11.7325C16.2106 11.6987 16.6043 11.6789 16.6264 11.4841C16.6453 11.2893 16.1318 11.1651 16.3114 10.9364C16.4909 10.7078 17.1934 10.688 17.5368 10.7953C18.3873 11.0607 18.0534 11.6761 19.1811 11.8003C20.3057 11.9245 21.0334 11.6987 21.9217 11.8229C22.8101 11.9471 23.4622 12.0713 23.837 12.2661C24.2119 12.4609 24.1331 12.7799 23.837 12.8674C23.5409 12.9577 23.166 12.7262 22.6715 12.6726C22.1769 12.619 22.0982 12.6557 22.0982 12.6557C22.0982 12.6557 21.6918 13.607 20.6113 13.6211C19.4237 13.6353 19.2 13.0227 19.2126 12.4016C19.0772 12.2407 18.8063 12.2661 18.7244 12.4835C18.6425 12.6924 18.8252 13.0565 19.1276 13.3727C19.2882 13.4856 19.43 13.607 19.5308 13.72C19.786 14.0023 19.5308 14.4455 19.1559 14.0728C18.7811 13.7002 17.9589 13.0932 17.1304 12.9097C15.675 12.5907 14.0496 12.4101 13.596 12.5145C13.596 12.5145 13.199 12.5823 12.799 12.8815C12.4745 13.161 12.3674 13.5421 11.9043 14.0192C11.2145 14.7278 10.1056 14.6036 9.17947 14.7447C8.25019 14.8859 7.90052 15.4985 8.15253 16.3736C8.30689 16.91 8.71325 17.2911 8.71325 17.2911C9.7213 18.011 10.9719 18.4118 11.2397 18.0928C11.2901 18.0307 11.3121 17.963 11.3121 17.8896C11.2145 17.5085 10.5403 16.0546 11.8445 15.5606C13.1486 15.0637 13.6212 15.0637 14.7678 14.852C15.9144 14.6403 17.4171 14.3551 18.1258 14.3918C18.8378 14.4257 19.389 14.6741 19.745 14.533C20.101 14.3918 20.6932 14.533 20.9295 14.3918C21.1657 14.2507 21.4839 14.0361 22.6274 14.0361C23.7709 14.0361 25.075 14.2846 25.431 13.9656C25.787 13.6466 25.3113 13.6833 24.8388 13.6127C24.3662 13.5421 24.3253 12.9408 25.2357 12.7291C26.1429 12.5145 25.8689 11.7721 24.9994 11.7721C24.13 11.7721 23.459 11.4869 22.2336 11.2752C21.0082 11.0635 21.2854 10.8518 20.2963 10.8151C19.3071 10.7784 19.6631 10.1432 21.046 10.1432C22.4289 10.1432 23.8118 10.1432 25.075 9.50516C26.3382 8.86716 26.1429 8.1614 26.4201 7.70124C26.6973 7.24109 27.4849 7.02936 28.159 7.09994C28.83 7.17051 30.4523 7.27779 32.2668 6.92208C34.0844 6.5692 34.3994 6.46193 35.0326 6.17963C35.6658 5.89732 36.1383 5.71947 36.0217 6.39135C35.9115 7.01807 35.5965 7.48951 34.6955 8.20656L34.4782 8.37595L34.3459 8.4804L32.5597 9.87498C32.0589 10.2674 32.2699 12.1108 35.7855 13.3332C37.0487 13.7708 37.5212 13.1808 37.8393 15.953C37.8456 16.0151 37.8614 16.0744 37.8897 16.1365C37.9622 16.7406 38 17.3532 38 17.9714C38 27.3778 29.4915 35 18.9953 35C8.49905 35 0 27.3722 0 17.9658C0 8.55945 8.5085 0.937248 19.0016 0.937248C19.0016 0.937248 20.2742 0.931602 20.7845 0.937248C22.3691 0.94854 22.6242 0 22.6242 0L23.3204 0.0846911C23.3204 0.0846911 23.4149 0.56743 23.2889 1.6176C23.0211 3.83933 20.9295 5.08429 18.6992 5.04759H18.3243C9.68349 5.04759 2.68076 11.3232 2.68076 19.0668C2.68076 26.8104 9.59844 33.0098 18.1636 33.086C19.2 32.9872 20.3278 32.6795 21.2067 31.9201C21.8934 31.2171 22.0761 30.3843 21.5311 29.7209C21.2098 29.3342 20.6396 29.0857 19.9403 29.193C19.326 29.6673 18.6141 30.4888 17.8392 31.3498C17.3635 31.8805 16.7303 32.2391 15.8609 32.0979C14.9915 31.9568 13.7314 31.4204 13.2967 30.9969C12.862 30.5735 12.7045 30.3956 11.9925 29.6503C11.2806 28.9051 10.6884 27.3834 10.8868 27.0673C11.0853 26.7483 11.3216 26.7483 12.2288 27.3496C13.136 27.9509 13.2179 27.8803 13.4542 27.3863C13.6905 26.8894 13.1549 27.0673 13.5109 26.2881C13.8669 25.509 13.3912 24.1285 13.3912 23.386C13.3912 23.067 13.3534 22.6944 13.2967 22.3839C13.2841 21.6527 14.2197 21.3167 14.6638 21.2603C14.7836 21.2462 14.8529 21.3139 14.8875 21.3704C15.0167 22.3641 14.8592 24.6395 14.5756 25.4045C14.2197 26.3615 14.4213 26.8951 14.3992 27.2451C14.3583 27.8944 14.0055 28.0243 13.7283 28.2727C13.451 28.5211 13.6495 29.0152 14.0433 29.1591C14.4402 29.3003 15.7412 29.8338 15.5459 29.4781C15.3474 29.1253 15.0923 28.5409 15.0923 28.0807C15.0923 27.6206 15.4892 27.7279 16.1602 28.2586C16.7965 28.7611 17.5242 28.2755 18.1542 28.1711C18.3211 28.1428 18.6425 27.9763 18.6456 27.4935C18.6456 27.2931 19.0961 26.9176 19.3481 26.9656C19.6001 27.0165 19.9372 26.5563 20.2648 26.2204C21.4776 24.9923 21.213 24.5265 20.2648 22.5758C19.7765 21.7995 19.3386 21.1615 17.7006 20.6618C16.5508 20.3089 15.3537 20.3117 14.4969 20.4924C14.3866 20.4868 14.2669 20.4981 14.1441 20.5376C13.6684 20.6957 13.0951 21.1615 12.9218 22.1382C12.821 22.6803 12.7832 23.1545 12.7643 23.4199C12.7234 23.9506 12.3296 23.8801 11.9736 23.2082C11.6177 22.5363 11.3814 21.2264 11.4192 20.5517C11.4602 19.8798 10.9845 19.8798 10.4332 19.6314C9.8788 19.383 9.60474 19.5947 9.48504 19.2051C9.36533 18.8184 8.89911 19.0583 8.6219 18.8551M7.49101 16.2212C7.4217 15.9191 7.38075 15.1061 6.93343 14.7927C6.48611 14.4822 6.1648 14.5189 6.20575 15.0807C6.24671 15.6424 6.34436 16.0207 6.76333 16.272C7.18229 16.5232 7.56031 16.5232 7.49101 16.224M7.17284 12.921C7.17284 12.921 6.99644 13.1525 7.13189 13.4348C7.2705 13.72 7.45005 13.559 7.60756 13.8075C7.76507 14.0559 7.60756 14.2846 7.76507 14.4257C7.92257 14.5669 8.12103 14.3551 8.19978 14.1434C8.27854 13.9317 8.81091 14.0728 9.22673 14.214C9.63939 14.3551 9.8788 14.1265 9.85675 13.6833C9.83785 13.24 9.42203 12.9408 8.73216 12.7291C8.04228 12.5145 7.46895 12.4976 7.17284 12.9239M25.7491 15.6566C25.9476 15.569 26.1429 15.5069 26.313 15.49C27.0628 15.4194 28.1716 15.49 28.1306 14.7475V14.6657C27.9448 14.4681 27.4849 14.3693 26.7099 14.533C25.368 14.8153 24.3788 14.9931 22.8384 14.9564C21.298 14.9197 20.5861 14.852 19.7167 15.346C18.8472 15.8429 16.0436 16.0546 14.856 16.5148C13.6716 16.9749 14.3016 17.5423 15.2498 17.5423C16.198 17.5423 19.9907 16.8338 22.5581 16.303C23.9693 16.0123 25.0246 15.7836 25.746 15.6537" fill="#214076"/>
</svg>
