<svg width="199" height="55" viewBox="0 0 199 55" fill="none" xmlns="http://www.w3.org/2000/svg">
<path fill-rule="evenodd" clip-rule="evenodd" d="M126.135 23.2804C126.378 24.0404 127.221 24.2878 127.221 24.2878V24.9505H123.144C122.063 24.9461 121.053 24.0183 121.053 22.896V20.2185H143.908C143.908 20.2185 143.908 20.382 143.908 21.1419C143.908 21.9019 143.437 22.7502 142.117 23.5455C141.446 23.9476 131.635 29.6826 128.778 31.2599C128.478 31.4101 128.54 31.662 128.54 31.662H138.226C138.226 31.662 138.207 30.9285 138.207 30.743C138.16 29.6472 137.093 29.5235 137.093 29.5235V28.8608H141.17C142.246 28.8652 143.26 29.793 143.26 30.9153V33.5928H120.596C120.596 33.5928 120.591 33.4293 120.591 32.6694C120.591 31.9094 121.063 31.0611 122.382 30.2658C122.382 30.2658 134.931 22.9623 135.417 22.6839C135.902 22.4056 135.745 22.1493 135.745 22.1493H126.082C126.082 22.1493 126.101 23.1479 126.13 23.2804M195.237 20.2185C196.904 20.2185 197.838 21.195 197.838 22.8032V26.086C197.838 27.5264 196.633 28.1627 195.004 28.1627L194.261 28.1759C194.652 28.282 195.023 28.4675 195.29 28.8077C195.828 29.497 197.042 31.3173 197.7 32.1126C198.228 32.7489 199 32.7047 199 32.7047L198.99 33.5928H194.061C192.132 33.5928 191.161 32.6031 190.584 31.7327C190.008 30.8623 189.07 29.5014 188.608 28.7989C188.332 28.3792 187.789 28.2334 187.398 28.1803H181.326V34.0479H177.588C176.002 34.0479 175.302 32.7931 175.302 31.6664L175.292 22.3128C175.292 21.2215 174.145 20.8813 174.145 20.8813V20.2229H195.237V20.2185ZM191.808 26.2053V22.8297C191.808 22.4321 191.575 22.1979 191.089 22.1979H181.336V26.2053H191.808ZM148.323 22.3128C148.323 21.2215 147.175 20.8813 147.175 20.8813V20.2229H168.673C170.339 20.2229 171.273 21.1994 171.273 22.8076V33.5972H165.244V28.1848H154.371L154.362 34.0523H150.623C149.037 34.0523 148.332 32.7975 148.332 31.6708L148.323 22.3172V22.3128ZM154.371 26.2098H165.244V22.8342C165.244 22.4365 165.01 22.2023 164.525 22.2023H155.095C154.609 22.2023 154.376 22.4365 154.376 22.8342V26.2098H154.371ZM97.184 20.2362C98.5984 20.2362 99.5414 21.1508 99.5414 22.4807V30.8578C99.5414 31.3925 99.8366 31.7415 100.422 31.7415H109.985V22.3128C109.985 21.2215 108.838 20.8813 108.838 20.8813V20.2185H116.11V33.6723H95.6219C94.0408 33.6723 93.2502 32.6119 93.2502 31.3306V22.5602C93.2502 21.2126 92.1644 20.9387 92.1644 20.9387V20.2229C92.1644 20.2229 95.9838 20.2362 97.184 20.2362ZM70.9621 20.2362C72.3765 20.2362 73.3195 21.1508 73.3195 22.4807V30.8004C73.3195 31.5118 73.5005 31.7415 74.1291 31.7415H84.8541V30.553C84.8541 29.4616 83.7063 29.1214 83.7063 29.1214V28.4587H87.6877C89.0402 28.4587 89.8927 29.3689 89.8927 30.7871V33.6723H69.4048C67.8237 33.6723 67.0331 32.6119 67.0331 31.3306V22.5602C67.0331 21.2126 65.9473 20.9387 65.9473 20.9387V20.2229C65.9473 20.2229 69.7667 20.2362 70.9668 20.2362" fill="#214076"/>
<path d="M29.7325 19.8252C29.7565 20.0879 29.9627 20.3024 30.1881 20.3024C30.4135 20.3024 30.5813 20.0923 30.5573 19.8252C30.5525 19.7727 30.5381 19.7202 30.5238 19.672C30.4326 19.6808 30.2888 19.6895 30.073 19.6589C29.9483 19.6414 29.8476 19.6108 29.7709 19.5757C29.7421 19.6502 29.7277 19.7333 29.7325 19.8209M36.1106 29.7138C36.5038 30.2084 37.9473 31.7712 38.1871 32.651C38.4268 33.5309 38.4604 33.8855 38.2158 34.6296C37.9761 35.3738 37.6452 36.385 38.4268 36.6082C39.2085 36.8271 39.5394 35.9779 39.6929 35.3169C39.8415 34.6559 40.6232 33.7235 41.1076 33.4215C41.5871 33.1194 41.4672 31.885 40.6568 31.5829C39.8463 31.2809 38.6714 30.8432 38.0384 29.9896C37.4054 29.1404 37.1368 28.4794 36.4463 28.5625C35.7557 28.6457 35.7221 29.2235 36.1154 29.7138M29.6558 29.5168C30.6772 29.7663 32.394 30.5061 33.473 32.2921C34.5568 34.0737 34.6479 34.4064 35.2186 34.24C35.7893 34.0737 35.4872 33.0888 34.9453 31.9594C34.4034 30.8344 33.9861 29.8189 33.5018 29.0791C33.0222 28.3349 32.3269 28.0635 31.3965 28.173C30.4662 28.2824 30.0442 28.2824 29.4112 28.2561C28.7782 28.2299 28.6295 29.2717 29.651 29.5168M13.1207 29.2323C12.5452 29.171 12.4541 29.3023 12.3917 29.9983C12.4589 30.3398 12.526 30.725 12.6315 31.0095C12.8425 31.5873 13.2645 32.1345 12.8137 32.082C12.363 32.0294 11.188 31.2284 10.2002 30.0202C9.20748 28.812 9.60072 27.1661 9.62949 26.7547C9.65826 26.3432 10.0179 26.2031 9.56715 25.3276C9.11636 24.4478 9.02525 23.4629 9.0828 22.6399C9.14514 21.817 10.1042 21.2391 10.2577 20.692C10.4064 20.1448 10.5598 19.567 11.2792 19.2387C11.9985 18.9104 12.8137 18.0612 13.5954 17.6497C14.3771 17.2338 15.8829 16.494 16.3337 16.0826C16.7845 15.6711 17.5374 15.2859 17.3839 14.7912C17.2353 14.2966 16.9044 13.7188 17.5374 13.7188C18.1704 13.7188 18.5588 13.6662 19.1583 13.1716C19.7577 12.677 20.1222 11.8803 21.6568 11.4688C23.1913 11.0573 23.9394 10.0418 26.0159 9.95859C28.0924 9.87542 29.3536 9.98485 30.706 9.98485C32.0583 9.98485 33.0798 9.81851 34.3122 9.59964C35.5447 9.37639 35.8756 8.88612 36.9594 8.33457C38.0432 7.78302 39.573 7.78302 40.2683 7.73049C40.9589 7.67358 41.2898 7.94936 41.0164 8.3871C40.7479 8.82484 40.2683 9.48583 40.1149 10.0374C39.9662 10.5846 40.7479 10.7772 40.7479 10.996C40.7479 11.2149 40.0861 11.0529 39.6065 10.8603C39.127 10.6677 38.8249 10.1206 38.9735 9.84477C39.127 9.569 40.417 8.85548 40.3547 8.44401C40.2971 8.03253 39.6641 8.27766 38.8536 8.52718C38.0432 8.77231 37.6787 9.48583 37.7411 10.2562C37.7986 11.0223 38.494 11.1886 38.3741 11.4644C38.2542 11.7402 37.2903 11.2718 36.3312 10.996C35.3673 10.7203 31.6075 10.6108 30.4662 10.6108C29.3249 10.6108 26.8599 10.5846 24.9609 10.996C23.0667 11.4075 21.23 12.3136 20.5682 13.3029C19.9064 14.2922 19.2446 14.1828 18.4629 14.1828C18.108 14.1828 18.0745 14.3141 18.1416 14.498C18.7363 14.997 19.235 15.1764 19.8105 15.1764C20.3859 15.1764 20.5778 15.3384 20.4771 15.6448C20.3763 15.9469 20.1318 16.0651 18.9664 16.1833L18.5828 16.227C17.8539 16.3846 18.3814 16.656 18.3814 16.8224C18.3814 16.9887 17.8395 17.1113 17.5661 17.085C17.3408 17.0631 16.9187 17.085 16.6598 17.2207C16.607 17.247 16.5639 17.2776 16.5303 17.317C16.3193 17.5359 16.396 17.7285 16.1083 17.8773C15.8206 18.0305 15.1636 18.0174 14.6792 18.0436C14.2236 18.1706 13.8448 18.2844 13.6098 18.4157C12.948 18.7747 12.8281 19.3218 13.7297 19.5932C14.6313 19.869 15.293 19.8953 16.1946 19.3744C16.3481 19.2868 16.5063 19.2037 16.6646 19.1249C17.0003 18.7397 16.9667 18.6477 16.7653 18.3588C16.5543 18.0568 16.8276 17.8116 17.4894 17.8904C18.1512 17.9736 18.7506 18.4113 19.1151 18.2756C19.4748 18.1399 19.0863 17.9473 19.235 17.6716C19.3837 17.3958 20.079 17.5359 20.7696 17.6453C21.3403 17.7329 21.7239 18.0086 22.731 18.1837C23.292 18.2012 23.7668 18.2144 24.0162 18.1925C24.678 18.1399 25.2774 18.1093 25.311 17.8073C25.3398 17.5052 24.5581 17.3126 24.8314 16.958C25.1048 16.6035 26.1742 16.5728 26.6969 16.7392C27.9917 17.1507 27.4834 18.1049 29.2002 18.2975C30.9122 18.4901 32.02 18.1399 33.3723 18.3326C34.7247 18.5252 35.7173 18.7178 36.288 19.0198C36.8587 19.3218 36.7388 19.8165 36.288 19.9522C35.8372 20.0923 35.2666 19.7333 34.5137 19.6502C33.7608 19.567 33.6409 19.6239 33.6409 19.6239C33.6409 19.6239 33.0222 21.0991 31.3774 21.121C29.5694 21.1428 29.229 20.1929 29.2481 19.2299C29.0419 18.9804 28.6295 19.0198 28.5048 19.3569C28.3801 19.6808 28.6583 20.2455 29.1187 20.7357C29.3632 20.9108 29.579 21.0991 29.7325 21.2742C30.1209 21.7119 29.7325 22.3992 29.1618 21.8213C28.5911 21.2435 27.3395 20.3024 26.0783 20.0179C23.8627 19.5232 21.3882 19.2431 20.6976 19.405C20.6976 19.405 20.0934 19.5101 19.4844 19.9741C18.9904 20.4074 18.8274 20.9984 18.1224 21.7382C17.0722 22.8369 15.3842 22.6443 13.9743 22.8632C12.5596 23.082 12.0273 24.0319 12.4109 25.3889C12.6459 26.2206 13.2645 26.8116 13.2645 26.8116C14.7991 27.9278 16.7029 28.5494 17.1106 28.0548C17.1873 27.9585 17.2209 27.8534 17.2209 27.7396C17.0722 27.1486 16.0459 24.8943 18.0313 24.1282C20.0167 23.3578 20.736 23.3578 22.4816 23.0295C24.2272 22.7012 26.5147 22.2591 27.5937 22.316C28.6775 22.3685 29.5167 22.7537 30.0586 22.5349C30.6005 22.316 31.502 22.5349 31.8617 22.316C32.2214 22.0971 32.7057 21.7644 34.4465 21.7644C36.1873 21.7644 38.1727 22.1496 38.7146 21.655C39.2565 21.1604 38.5323 21.2173 37.813 21.1078C37.0937 20.9984 37.0313 20.066 38.4172 19.7377C39.7984 19.405 39.3812 18.2538 38.0576 18.2538C36.734 18.2538 35.7126 17.8116 33.8471 17.4833C31.9816 17.155 32.4036 16.8267 30.8978 16.7698C29.392 16.7129 29.9339 15.728 32.0392 15.728C34.1444 15.728 36.2497 15.728 38.1727 14.7387C40.0957 13.7494 39.7984 12.6551 40.2204 11.9415C40.6424 11.228 41.8413 10.8997 42.8675 11.0092C43.889 11.1186 46.3587 11.2849 49.1209 10.7334C51.888 10.1862 52.3675 10.0199 53.3314 9.58213C54.2954 9.14439 55.0147 8.86861 54.8372 9.91043C54.6694 10.8822 54.1899 11.6132 52.8183 12.7251L52.4874 12.9877L52.286 13.1497L49.5669 15.3121C48.8044 15.9206 49.1257 18.7791 54.4776 20.6745C56.4006 21.353 57.1199 20.4381 57.6043 24.7367C57.6139 24.833 57.6379 24.9249 57.681 25.0212C57.7913 25.958 57.8489 26.9079 57.8489 27.8665C57.8489 42.452 44.8961 54.271 28.9172 54.271C12.9384 54.271 0 42.4433 0 27.8578C0 13.2723 12.9528 1.4533 28.9268 1.4533C28.9268 1.4533 30.8642 1.44454 31.6411 1.4533C34.0533 1.47081 34.4417 0 34.4417 0L35.5015 0.131322C35.5015 0.131322 35.6454 0.879857 35.4536 2.50825C35.046 5.95326 31.8617 7.8837 28.4665 7.82679H27.8958C14.7416 7.82679 4.08102 17.5578 4.08102 29.565C4.08102 41.5722 14.6121 51.1849 27.6512 51.3031C29.229 51.1499 30.9458 50.6728 32.2837 49.4953C33.3292 48.4053 33.6073 47.114 32.7777 46.0853C32.2885 45.4856 31.4205 45.1004 30.3559 45.2667C29.4208 46.0021 28.337 47.2759 27.1573 48.611C26.4331 49.434 25.4692 49.9899 24.1457 49.771C22.8221 49.5522 20.9039 48.7205 20.2421 48.0639C19.5803 47.4072 19.3405 47.1315 18.2567 45.9758C17.1729 44.8202 16.2713 42.4608 16.5735 41.9705C16.8756 41.4759 17.2353 41.4759 18.6164 42.4083C19.9975 43.3406 20.1222 43.2312 20.4818 42.4652C20.8415 41.6947 20.0263 41.9705 20.5682 40.7624C21.1101 39.5542 20.3859 37.4136 20.3859 36.2624C20.3859 35.7677 20.3284 35.1899 20.2421 34.7084C20.2229 33.5747 21.6472 33.0538 22.3233 32.9662C22.5056 32.9443 22.6111 33.0494 22.6638 33.1369C22.8604 34.6778 22.6207 38.206 22.1891 39.3922C21.6472 40.8762 21.9541 41.7035 21.9205 42.2463C21.8582 43.2531 21.3211 43.4545 20.8991 43.8397C20.4771 44.2249 20.7792 44.9909 21.3786 45.2142C21.9829 45.433 23.9634 46.2604 23.6661 45.7088C23.364 45.1616 22.9755 44.2555 22.9755 43.542C22.9755 42.8285 23.5798 42.9948 24.6012 43.8178C25.5699 44.597 26.6777 43.844 27.6368 43.6821C27.891 43.6383 28.3801 43.38 28.3849 42.6315C28.3849 42.3207 29.0707 41.7385 29.4543 41.8129C29.838 41.8917 30.3511 41.1782 30.8499 40.6573C32.6961 38.7531 32.2933 38.0309 30.8499 35.0061C30.1065 33.8023 29.44 32.813 26.9463 32.0382C25.1959 31.491 23.3736 31.4954 22.0692 31.7755C21.9013 31.7668 21.7191 31.7843 21.5321 31.8456C20.8079 32.0907 19.9352 32.813 19.6714 34.3276C19.5179 35.168 19.4604 35.9034 19.4316 36.3149C19.3693 37.1379 18.7698 37.0284 18.2279 35.9866C17.686 34.9448 17.3264 32.9137 17.3839 31.8675C17.4463 30.8257 16.7221 30.8257 15.8829 30.4404C15.0389 30.0552 14.6217 30.3835 14.4394 29.7795C14.2572 29.1798 13.5475 29.5518 13.1255 29.2367M11.4038 25.1525C11.2983 24.6842 11.236 23.4235 10.555 22.9376C9.87406 22.4561 9.38492 22.513 9.44726 23.3841C9.5096 24.2552 9.65826 24.8417 10.2961 25.2313C10.9339 25.6209 11.5093 25.6209 11.4038 25.1569M10.9195 20.0354C10.9195 20.0354 10.6509 20.3943 10.8572 20.8321C11.0682 21.2742 11.3415 21.0247 11.5813 21.4099C11.8211 21.7951 11.5813 22.1496 11.8211 22.3685C12.0608 22.5874 12.363 22.2591 12.4828 21.9308C12.6027 21.6025 13.4132 21.8213 14.0462 22.0402C14.6744 22.2591 15.0389 21.9045 15.0053 21.2173C14.9765 20.53 14.3435 20.066 13.2933 19.7377C12.2431 19.405 11.3703 19.3788 10.9195 20.0397M39.1989 24.2771C39.501 24.1414 39.7984 24.0451 40.0573 24.0188C41.1987 23.9094 42.8867 24.0188 42.8244 22.8675V22.7406C42.5414 22.4342 41.8413 22.281 40.6616 22.5349C38.6187 22.9726 37.1129 23.2484 34.7678 23.1915C32.4228 23.1346 31.339 23.0295 30.0154 23.7955C28.6918 24.566 24.4238 24.8943 22.6159 25.6078C20.8127 26.3213 21.7719 27.2012 23.2153 27.2012C24.6588 27.2012 30.4326 26.1024 34.341 25.2795C36.4894 24.8286 38.0959 24.474 39.1941 24.2727" fill="#214076"/>
<path d="M69.6612 46.6515V45.7504H67.3678V46.6515H66.7754V45.2274H67.2102L67.8504 42.9242H67.4634V42.3923H70.2058V42.9242H69.8045V45.2274H70.2775V46.6515H69.6612ZM69.1786 42.9242H68.4476L67.8313 45.2274H69.1786V42.9242Z" fill="#214076"/>
<path d="M72.7589 45.7502H71.3303C70.9051 45.7502 70.7188 45.5216 70.7188 45.2271V43.0778C70.7188 42.6294 70.9576 42.3921 71.4784 42.3921H72.6968C73.2032 42.3921 73.4039 42.5547 73.4039 43.0074V44.3524H71.3494V45.003C71.3494 45.1348 71.3638 45.2315 71.5644 45.2315H72.5534C72.7302 45.2315 72.7684 45.1348 72.7684 45.003V44.8271H73.4039V45.1436C73.4039 45.526 73.2367 45.759 72.7541 45.759L72.7589 45.7502ZM72.7732 43.1305C72.7732 42.9723 72.7254 42.9239 72.5821 42.9239H71.5644C71.4115 42.9239 71.3542 43.003 71.3542 43.1085V43.8602H72.7732V43.1305Z" fill="#214076"/>
<path d="M76.7 43.5349H76.1315V42.9239H75.5677V45.2271H75.9786V45.7502H74.5118V45.2271H74.937V42.9239H74.3732V43.5349H73.8047V42.3921H76.7V43.5349Z" fill="#214076"/>
<path d="M77.6595 45.7499C77.1292 45.7499 77.0098 45.5785 77.0098 45.1346V44.4489C77.0098 44.0577 77.2009 43.8335 77.7169 43.8335H79.0881V43.0951C79.0881 42.9896 78.9926 42.9105 78.8779 42.9105H77.9319C77.7885 42.9105 77.6978 43.0204 77.6978 43.1742V43.4907H77.0958V42.9984C77.0958 42.6072 77.306 42.3831 77.8077 42.3831H78.9543C79.542 42.3831 79.7092 42.6775 79.7092 43.0687V45.2181H80.101V45.7411H77.6548L77.6595 45.7499ZM79.0881 44.3566H77.8746C77.6643 44.3566 77.6404 44.4665 77.6404 44.6203V44.9676C77.6404 45.0994 77.6643 45.2269 77.8746 45.2269H79.0881V44.3566Z" fill="#214076"/>
<path d="M83.6547 42.9239H83.2677V45.2271H83.6547V45.7502H82.2405V45.2271H82.6418V42.9239H81.7914L81.4378 44.9458C81.3661 45.3766 81.0843 45.7502 80.6256 45.7502H80.1191V45.2271H80.4966C80.6877 45.2271 80.8024 45.0557 80.8358 44.8711L81.1989 42.9239H80.7976V42.3921H83.6547V42.9239Z" fill="#214076"/>
<path d="M86.3824 43.4338L85.0733 45.7502H84.0078V45.2271H84.3948V42.9239H84.0078V42.3921H85.4125V42.9239H85.0255V44.7085H85.0398L86.3489 42.3921H87.4144V42.9239H87.0274V45.2271H87.4144V45.7502H86.0097V45.2271H86.3967V43.4338H86.3824Z" fill="#214076"/>
<path d="M90.8507 45.7502C90.3204 45.7502 90.1914 45.4689 90.1914 45.1348V43.0031C90.1914 42.6119 90.4255 42.3877 90.9033 42.3877H92.6424V43.4426H92.0739V42.8932H91.0562C90.8985 42.8932 90.8221 43.0031 90.8221 43.1657V44.959C90.8221 45.0909 90.9129 45.2183 91.0562 45.2183H92.1073V44.7656H92.6759V45.7414H90.846L90.8507 45.7502Z" fill="#214076"/>
<path d="M95.4711 43.4338L94.162 45.7502H93.0918V45.2271H93.4788V42.9239H93.0918V42.3921H94.4965V42.9239H94.1095V44.7085H94.1238L95.4329 42.3921H96.4984V42.9239H96.1114V45.2271H96.4984V45.7502H95.0937V45.2271H95.4807V43.4338H95.4664H95.4711Z" fill="#214076"/>
<path d="M97.6886 45.7502C97.1583 45.7502 97.0293 45.4689 97.0293 45.1348V43.0031C97.0293 42.6119 97.2634 42.3877 97.7412 42.3877H99.4851V43.4426H98.9165V42.8932H97.8989C97.7364 42.8932 97.6647 43.0031 97.6647 43.1657V44.959C97.6647 45.0909 97.7555 45.2183 97.8989 45.2183H98.95V44.7656H99.5185V45.7414H97.6886V45.7502Z" fill="#214076"/>
<path d="M102.738 43.5349H102.169V42.9239H101.606V45.2271H102.017V45.7502H100.545V45.2271H100.97V42.9239H100.406V43.5349H99.8379V42.3921H102.733V43.5349H102.738Z" fill="#214076"/>
<path d="M105.228 45.7502H103.799C103.374 45.7502 103.188 45.5216 103.188 45.2271V43.0778C103.188 42.6294 103.426 42.3921 103.952 42.3921H105.17C105.677 42.3921 105.877 42.5547 105.877 43.0074V44.3524H103.823V45.003C103.823 45.1348 103.837 45.2315 104.038 45.2315H105.027C105.204 45.2315 105.242 45.1348 105.242 45.003V44.8271H105.877V45.1436C105.877 45.526 105.71 45.759 105.228 45.759V45.7502ZM105.242 43.1305C105.242 42.9723 105.194 42.9239 105.051 42.9239H104.033C103.88 42.9239 103.823 43.003 103.823 43.1085V43.8602H105.242V43.1305Z" fill="#214076"/>
<path d="M109.131 45.7502V45.2271H109.546V43.1745H109.532L108.696 44.9634H108.28L107.396 43.1745H107.382V45.2271H107.798V45.7502H106.369V45.2271H106.756V42.9239H106.369V42.3921H107.64L108.505 44.181L109.298 42.3921H110.559V42.9239H110.172V45.2271H110.559V45.7502H109.131Z" fill="#214076"/>
<path d="M113.131 43.7151C113.7 43.7151 113.805 43.9217 113.805 44.3261V45.1392C113.805 45.4952 113.743 45.7546 113.145 45.7546H110.924V45.2315H111.301V42.9283H110.914V42.3965H112.328V42.9283H111.937V43.7195H113.131V43.7151ZM113.174 44.4975C113.174 44.3436 113.174 44.2338 112.94 44.2338H111.937V45.2315H112.94C113.174 45.2315 113.174 45.0997 113.174 44.9722V44.4975ZM114.048 42.9283V42.3965H115.42V42.9283H115.028V45.2315H115.42V45.7546H114.048V45.2315H114.426V42.9283H114.048Z" fill="#214076"/>
<path d="M120.283 45.7502H118.926C118.381 45.7502 118.219 45.504 118.219 45.1304V43.0031C118.219 42.625 118.419 42.3877 118.926 42.3877H120.273C120.866 42.3877 120.985 42.625 120.985 43.0031V45.1304C120.985 45.504 120.88 45.7502 120.278 45.7502H120.283ZM120.364 43.1437C120.364 43.0338 120.331 42.9239 120.163 42.9239H119.045C118.883 42.9239 118.845 43.0338 118.845 43.1437V45.0074C118.845 45.1172 118.854 45.2271 119.045 45.2271H120.163C120.331 45.2271 120.364 45.1085 120.364 44.9986V43.1437Z" fill="#214076"/>
<path d="M123.435 45.7502V45.381L122.929 44.5766L122.432 45.381V45.7502H121.371V45.2271H121.839L122.585 44.0228L121.897 42.9239H121.433V42.3921H122.508V42.7613L122.943 43.4558L123.368 42.7613V42.3921H124.419V42.9239H123.956L123.292 44.0008L124.051 45.2271H124.515V45.7502H123.44H123.435Z" fill="#214076"/>
<path d="M127.989 42.9239H127.606V45.2271H127.989V45.7502H126.574V45.2271H126.976V42.9239H126.125L125.772 44.9458C125.7 45.3766 125.418 45.7502 124.96 45.7502H124.453V45.2271H124.831C125.022 45.2271 125.136 45.0557 125.17 44.8711L125.528 42.9239H125.127V42.3921H127.984V42.9239H127.989Z" fill="#214076"/>
<path d="M129.12 45.7499C128.59 45.7499 128.471 45.5785 128.471 45.1346V44.4489C128.471 44.0577 128.662 43.8335 129.178 43.8335H130.549V43.0951C130.549 42.9896 130.453 42.9105 130.339 42.9105H129.393C129.249 42.9105 129.159 43.0204 129.159 43.1742V43.4907H128.557V42.9984C128.557 42.6072 128.767 42.3831 129.269 42.3831H130.415C131.003 42.3831 131.17 42.6775 131.17 43.0687V45.2181H131.562V45.7411H129.116L129.12 45.7499ZM130.549 44.3566H129.335C129.125 44.3566 129.101 44.4665 129.101 44.6203V44.9676C129.101 45.0994 129.125 45.2269 129.335 45.2269H130.549V44.3566Z" fill="#214076"/>
<path d="M135.409 45.7502V45.2271H135.691V44.5327C135.691 44.3568 135.667 44.2426 135.457 44.2426H134.492V45.2271H134.908V45.7502H133.479V45.2271H133.895V44.2426H132.925C132.71 44.2426 132.681 44.3568 132.681 44.5327V45.2271H132.978V45.7502H131.688V45.2271H132.065V44.4579C132.065 44.0755 132.132 43.7854 132.858 43.7854H132.978L132.141 42.9239H131.778V42.3921H133.068V42.9239H132.868L133.861 43.9349H133.885V42.9239H133.508V42.3921H134.865V42.9239H134.478V43.9349H134.502L135.495 42.9239H135.295V42.3921H136.585V42.9239H136.222L135.386 43.7854H135.495C136.217 43.7854 136.284 44.0579 136.284 44.4579V45.2271H136.676V45.7502H135.386H135.409Z" fill="#214076"/>
<path d="M139.648 46.6512V45.7502H137.354V46.6512H136.762V45.2271H137.196L137.837 42.9239H137.45V42.3921H140.197V42.9239H139.796V45.2271H140.269V46.6512H139.652H139.648ZM139.165 42.9239H138.434L137.818 45.2271H139.165V42.9239Z" fill="#214076"/>
<path d="M142.746 45.7502H141.318C140.892 45.7502 140.711 45.5216 140.711 45.2271V43.0778C140.711 42.6294 140.95 42.3921 141.471 42.3921H142.689C143.195 42.3921 143.396 42.5547 143.396 43.0074V44.3524H141.342V45.003C141.342 45.1348 141.356 45.2315 141.557 45.2315H142.546C142.722 45.2315 142.761 45.1348 142.761 45.003V44.8271H143.396V45.1436C143.396 45.526 143.229 45.759 142.746 45.759V45.7502ZM142.761 43.1305C142.761 42.9723 142.713 42.9239 142.569 42.9239H141.552C141.399 42.9239 141.342 43.003 141.342 43.1085V43.8602H142.761V43.1305Z" fill="#214076"/>
<path d="M144.908 44.2821V45.2271H145.295V45.7502H143.891V45.2271H144.278V42.9239H143.891V42.3921H145.295V42.9239H144.908V43.7503H146.28V42.9239H145.893V42.3921H147.297V42.9239H146.91V45.2271H147.297V45.7502H145.893V45.2271H146.28V44.2821H144.908Z" fill="#214076"/>
<path d="M150.02 43.4338L148.711 45.7502H147.641V45.2271H148.028V42.9239H147.641V42.3921H149.045V42.9239H148.658V44.7085H148.673L149.982 42.3921H151.047V42.9239H150.66V45.2271H151.047V45.7502H149.643V45.2271H150.025V43.4338H150.01H150.02Z" fill="#214076"/>
<path d="M154.204 42.9239V45.2271H154.582V45.7502H153.196V45.2271H153.574V44.2513H152.508C152.346 44.2513 152.298 44.3612 152.298 44.5151V45.2227H152.637V45.7458H151.232V45.2227H151.672V44.4535C151.672 44.1634 151.825 44.0052 152.016 43.9744V43.9481C151.825 43.9305 151.686 43.7547 151.686 43.5393V42.9195C151.686 42.5284 151.992 42.3877 152.37 42.3877H154.582V42.9195H154.204V42.9239ZM153.569 42.9239H152.508C152.317 42.9239 152.317 43.0338 152.317 43.1657V43.5437C152.317 43.6624 152.317 43.7854 152.551 43.7854H153.569V42.9239Z" fill="#214076"/>
</svg>
