<svg width="68" height="35" viewBox="0 0 68 35" fill="none" xmlns="http://www.w3.org/2000/svg">
<path d="M0.353516 20.3524H7.39637L6.58159 34.9026L18.5303 14.8628L11.4874 14.8806L12.3008 0.312622L0.353516 20.3524Z" fill="#AA0917"/>
<path d="M23.9833 14.7726C22.6768 14.7726 21.5604 14.4247 20.6698 13.711C19.7793 13.0151 19.3262 12.0449 19.3262 10.8195H20.6513C20.6513 11.6792 20.9543 12.3383 21.579 12.8145C22.1851 13.2907 22.9984 13.5282 23.9833 13.5282C24.8167 13.5282 25.5171 13.3262 26.0846 12.9237C26.6521 12.5211 26.9365 11.9903 26.9365 11.3135C26.9365 10.6913 26.6907 10.1973 26.1789 9.83161C25.6672 9.46591 24.9296 9.10021 23.9633 8.75224C22.6382 8.27602 21.7662 7.89258 21.3317 7.61694C20.271 6.95786 19.7407 6.04361 19.7407 4.87146C19.7407 3.86442 20.1381 3.0416 20.9143 2.4371C21.7091 1.8326 22.6368 1.52148 23.736 1.52148C24.891 1.52148 25.8759 1.85034 26.6892 2.50942C27.484 3.1685 27.9014 4.06501 27.9014 5.18121H26.5763C26.5763 4.41297 26.3119 3.82621 25.7815 3.38819C25.2512 2.96791 24.5694 2.74822 23.736 2.74822C22.9784 2.74822 22.3351 2.93107 21.8234 3.31587C21.3117 3.68157 21.0472 4.21238 21.0472 4.87146C21.0472 5.53054 21.2931 6.04224 21.7662 6.40931C22.2394 6.77501 22.9784 7.14207 23.9633 7.50777C25.307 8.02084 26.2161 8.42339 26.6706 8.69766C27.7127 9.35674 28.2416 10.2355 28.2416 11.3326C28.2416 12.4297 27.8256 13.1993 26.9737 13.8393C26.1403 14.4615 25.1369 14.7726 23.9819 14.7726H23.9833Z" fill="black"/>
<path d="M37.236 1.74158V2.94921H33.5437V14.5534H32.2186V2.95057H28.5264V1.74158H37.236Z" fill="black"/>
<path d="M46.5338 14.5534L45.3031 11.4053H39.0164L37.7856 14.5534H36.3848L41.4793 1.74158H42.843L47.9361 14.552H46.5352L46.5338 14.5534ZM39.4909 10.1977H44.8299L42.1597 3.33401L39.4895 10.1977H39.4909Z" fill="black"/>
<path d="M58.1009 14.5534L53.4424 9.42946H50.4892V14.5534H49.1641V1.74158H53.8969C54.9948 1.74158 55.941 2.12638 56.6986 2.87688C57.4748 3.62739 57.8722 4.54164 57.8722 5.60326C57.8722 6.46293 57.5878 7.25027 57.0574 7.94619C56.5085 8.64212 55.8081 9.0815 54.9562 9.31893L59.7648 14.5902H58.0995V14.5534H58.1009ZM50.4892 2.95057V8.22047H53.8969C54.636 8.22047 55.2606 7.96393 55.7709 7.45223C56.2827 6.93916 56.5471 6.31692 56.5471 5.58552C56.5471 4.85412 56.2827 4.23188 55.7709 3.71881C55.2592 3.20574 54.6345 2.95057 53.8969 2.95057H50.4892Z" fill="black"/>
<path d="M67.4361 1.74158V2.94921H63.7439V14.5534H62.4188V2.95057H58.7266V1.74158H67.4361Z" fill="black"/>
<path d="M23.1876 33.312L18.7949 19.6774H22.3171L25.2331 29.7068L28.1492 19.6774H31.6713L27.2787 33.312H23.189H23.1876Z" fill="black"/>
<path d="M44.7325 31.5362C43.3131 32.8912 41.5706 33.5858 39.5251 33.5858C37.4795 33.5858 35.7571 32.909 34.3176 31.5362C32.8982 30.1826 32.1777 28.4988 32.1777 26.4847C32.1777 24.4706 32.8967 22.8058 34.3176 21.4331C35.737 20.0795 37.4795 19.3835 39.5251 19.3835C41.5706 19.3835 43.2931 20.0604 44.7325 21.4331C46.152 22.7881 46.8724 24.4706 46.8724 26.4847C46.8724 28.4988 46.1534 30.1812 44.7325 31.5362ZM36.6104 29.413C37.3866 30.1635 38.3715 30.5483 39.5451 30.5483C40.7186 30.5483 41.6849 30.1635 42.4797 29.413C43.2559 28.6625 43.6533 27.6923 43.6533 26.4847C43.6533 25.277 43.2559 24.3246 42.4797 23.5563C41.6849 22.8058 40.7186 22.421 39.5451 22.421C38.3715 22.421 37.4052 22.8058 36.6104 23.5563C35.8342 24.3068 35.4369 25.277 35.4369 26.4847C35.4183 27.6923 35.8157 28.6625 36.6104 29.413Z" fill="black"/>
<path d="M52.4032 30.3109H57.2319V33.3129H49.1855V19.6783H52.4047V30.3109H52.4032Z" fill="black"/>
<path d="M67.4171 19.6774V22.6794H64.198V33.312H60.9789V22.6794H57.7598V19.6774H67.4156H67.4171Z" fill="black"/>
</svg>
