<svg width="0" height="0" class="hidden">
  <symbol fill="none" xmlns="http://www.w3.org/2000/svg" viewBox="0 0 38 38" id="d2">
    <g clip-path="url(#clip0_614_10047)">
      <path d="M9.01478 28.9883V28.1414C9.01478 22.0742 9.02657 16.0069 9.00004 9.93969C8.99709 9.2323 9.1489 8.96939 9.92412 9.0028C11.6809 9.07978 13.4509 8.95341 15.1989 9.10012C18.1863 9.3485 19.7367 10.9085 19.8281 13.8586C19.9342 17.2982 19.943 20.7466 19.8237 24.1847C19.7161 27.267 17.8591 28.9287 14.739 28.9839C12.8644 29.0173 10.9882 28.9897 9.01625 28.9897L9.01478 28.9883ZM12.8481 25.4862C14.9866 25.9016 15.9402 25.2582 16.0507 23.1897C16.1495 21.3436 16.1097 19.4887 16.1052 17.6367C16.1023 16.5081 16.0831 15.3765 16.0065 14.2508C15.9534 13.4694 15.6528 12.7358 14.7729 12.5775C14.1495 12.4657 13.4892 12.5557 12.8481 12.5557V25.4877V25.4862Z" fill="white"></path>
    </g>
    <g clip-path="url(#clip1_614_10047)">
      <path d="M25.3767 11.8773C24.9315 11.8963 24.5734 12.1052 24.3025 12.5041C24.0315 12.903 23.896 13.6152 23.896 14.6408L20.8184 14.299C20.8184 12.6086 21.2345 11.3043 22.0668 10.3832C22.8991 9.46199 24.0121 8.99982 25.4058 8.99982C27.0123 8.99982 28.164 9.424 28.8608 10.2692C29.5576 11.1144 29.906 12.2508 29.906 13.6785C29.9254 14.5522 29.8351 15.3341 29.6318 16.0179C29.4286 16.7016 29.1221 17.436 28.7189 18.2148L24.6251 26.1192H29.706V28.9967H20.9926V26.3154C21.8636 24.6978 22.7217 23.0866 23.5605 21.4784C24.4025 19.8703 25.2477 18.2591 26.1026 16.6415C26.3736 16.1476 26.5413 15.657 26.6123 15.1727C26.68 14.6883 26.7155 14.1787 26.7155 13.6469C26.7155 13.4759 26.7026 13.286 26.6736 13.0771C26.6445 12.8681 26.58 12.6782 26.4865 12.5073C26.3897 12.3363 26.2542 12.1875 26.08 12.0641C25.9058 11.9406 25.6735 11.8773 25.3832 11.8773H25.3767Z" fill="white"></path>
    </g>
    <defs>
      <clipPath id="clip0_614_10047">
        <rect width="10.9091" height="20" fill="white" transform="translate(9 8.99982)"></rect>
      </clipPath>
      <clipPath id="clip1_614_10047">
        <rect width="9.09091" height="20" fill="white" transform="translate(20.8184 8.99982)"></rect>
      </clipPath>
    </defs>
  </symbol>
  <symbol fill="none" xmlns="http://www.w3.org/2000/svg" viewBox="0 0 38 38" id="r">
    <path d="M8 11.8648C8.34002 11.8648 8.62136 11.8648 8.9027 11.8648C13.3023 11.8648 17.7036 11.8648 22.1032 11.8648C22.3051 11.8648 22.5053 11.8648 22.7073 11.8734C25.8193 12.0134 27.1241 13.3335 27.2052 16.4402C27.2208 17.045 27.2225 17.6497 27.2052 18.2545C27.1207 21.2679 26.1972 22.1578 23.893 22.7936C25.1392 24.4921 26.3664 26.1664 27.7092 27.9997C26.1506 27.9997 24.7802 28.0239 23.4132 27.9755C23.2061 27.9686 22.9679 27.6559 22.816 27.4364C21.8857 26.0869 20.9588 24.7323 20.0665 23.3569C19.7886 22.9267 19.4917 22.7383 18.9601 22.7452C16.6663 22.7763 14.3707 22.7591 11.9922 22.7591V27.9513H8V11.8648ZM11.9905 19.1875C12.384 19.1875 12.6947 19.1875 13.0054 19.1875C15.6773 19.1875 18.3491 19.1875 21.021 19.1875C23.1336 19.1875 23.1854 19.134 23.1733 17.0156C23.1647 15.7059 22.9282 15.4605 21.6113 15.4588C18.6512 15.4519 15.6928 15.4553 12.7327 15.4588C12.4876 15.4588 12.2442 15.4951 11.9905 15.5141V19.1893V19.1875Z" fill="white"></path>
    <path d="M27.7623 12.04C28.6018 12.04 29.2824 11.3595 29.2824 10.5199C29.2824 9.6804 28.6018 8.99982 27.7623 8.99982C26.9228 8.99982 26.2422 9.6804 26.2422 10.5199C26.2422 11.3595 26.9228 12.04 27.7623 12.04Z" fill="white"></path>
  </symbol>
  <symbol fill="none" xmlns="http://www.w3.org/2000/svg" viewBox="0 0 38 38" id="telegram">
    <g clip-path="url(#clip0_614_10057)">
      <path d="M18.675 25.7434C18.0121 26.3802 17.3584 27.0064 16.7078 27.6342C15.8141 28.4963 14.889 28.2954 14.4914 27.0861C14.0292 25.6816 13.617 24.256 13.2432 22.8222C13.0809 22.2001 12.8194 21.8488 12.2027 21.6764C11.2398 21.408 10.3016 21.0355 9.36486 20.6712C9.04801 20.5484 8.73039 20.363 8.48044 20.1263C7.79983 19.4838 7.84598 18.4778 8.5958 17.9281C8.97879 17.6467 9.43023 17.4613 9.86474 17.2677C15.0774 14.9434 20.2916 12.6249 25.5065 10.3063C25.6719 10.2331 25.8364 10.1566 26.0072 10.0989C27.2023 9.69553 28.1705 10.5657 27.9752 11.8816C27.8783 12.5362 27.7414 13.1844 27.6206 13.835C26.7801 18.3778 25.9426 22.9214 25.0966 27.4635C24.8367 28.8598 23.284 29.4649 22.2034 28.5971C21.1221 27.7294 20.0478 26.8511 18.9703 25.9768C18.8804 25.9036 18.7881 25.8329 18.675 25.7434ZM15.8457 26.2615C16.8124 25.3303 17.6906 24.4853 18.5866 23.6233C18.7219 23.7306 18.845 23.8258 18.9649 23.9226C20.2962 25.0017 21.6266 26.0834 22.9594 27.1609C23.3801 27.5009 23.5362 27.4374 23.6385 26.8885C24.4283 22.6262 25.2158 18.364 26.0041 14.1009C26.1502 13.3096 26.294 12.5183 26.4555 11.64C20.8584 14.1326 15.3389 16.5903 9.74938 19.0796C9.92934 19.1561 10.0309 19.2065 10.137 19.2439C11.3859 19.6888 12.6379 20.123 13.8823 20.5817C14.1376 20.6761 14.326 20.6533 14.556 20.502C17.4461 18.5974 20.3416 16.7025 23.2378 14.8084C23.4108 14.6954 23.5931 14.5929 23.7823 14.514C23.8438 14.488 23.9723 14.5279 24.0107 14.5832C24.0499 14.6409 24.0492 14.7792 24.0084 14.8377C23.9038 14.989 23.7731 15.1224 23.6423 15.2509C21.3198 17.5426 18.9949 19.8311 16.6747 22.1261C16.5594 22.2399 16.4286 22.3904 16.404 22.5425C16.2102 23.742 16.0402 24.9456 15.8457 26.2615Z" fill="white"></path>
    </g>
    <defs>
      <clipPath id="clip0_614_10057">
        <rect width="20" height="19" fill="white" transform="translate(8 9.99976)"></rect>
      </clipPath>
    </defs>
  </symbol>
  <symbol fill="none" xmlns="http://www.w3.org/2000/svg" viewBox="0 0 38 38" id="vk">
    <path d="M30.5469 14.9714C30.7351 15.4952 30.1213 16.6983 28.7054 18.5808C28.5089 18.8427 28.2429 19.1905 27.9074 19.6243C27.58 20.0417 27.3549 20.3363 27.2321 20.5082C27.1094 20.6801 26.9825 20.8847 26.8516 21.122C26.7288 21.3512 26.6797 21.5231 26.7042 21.6377C26.737 21.7441 26.7902 21.8832 26.8638 22.0551C26.9457 22.227 27.0807 22.4029 27.269 22.583C27.4572 22.763 27.6905 22.9799 27.9688 23.2337C28.0015 23.25 28.0219 23.2664 28.0301 23.2828C29.1842 24.3549 29.9658 25.2593 30.375 25.9959C30.3996 26.0369 30.4241 26.0901 30.4487 26.1555C30.4814 26.2128 30.51 26.3192 30.5346 26.4747C30.5673 26.6302 30.5673 26.7694 30.5346 26.8921C30.5019 27.0149 30.3996 27.1295 30.2277 27.2359C30.0558 27.3341 29.8144 27.3832 29.5033 27.3832L26.3605 27.4323C26.1641 27.4732 25.9349 27.4528 25.673 27.3709C25.4111 27.2891 25.1983 27.1991 25.0346 27.1008L24.7891 26.9535C24.5435 26.7816 24.2571 26.5197 23.9297 26.1678C23.6023 25.8159 23.3199 25.5008 23.0826 25.2225C22.8534 24.936 22.6038 24.6987 22.3337 24.5104C22.0718 24.314 21.8426 24.2485 21.6462 24.314C21.6217 24.3222 21.5889 24.3386 21.548 24.3631C21.5071 24.3795 21.4375 24.4368 21.3393 24.535C21.2411 24.6332 21.151 24.756 21.0692 24.9033C20.9955 25.0424 20.926 25.2552 20.8605 25.5417C20.8032 25.82 20.7786 26.1351 20.7868 26.487C20.7868 26.6098 20.7705 26.7244 20.7377 26.8308C20.7132 26.929 20.6845 27.0026 20.6518 27.0517L20.6027 27.1131C20.4554 27.2686 20.2385 27.3587 19.952 27.3832H18.5402C17.9591 27.4159 17.3616 27.3505 16.7478 27.1868C16.1339 27.0149 15.5938 26.798 15.1272 26.5361C14.6689 26.266 14.2474 25.9959 13.8627 25.7258C13.4862 25.4476 13.1998 25.2102 13.0033 25.0138L12.6964 24.7191C12.6146 24.6373 12.5 24.5145 12.3527 24.3508C12.2135 24.1872 11.923 23.8148 11.481 23.2337C11.0391 22.6526 10.6053 22.0346 10.1797 21.3799C9.75409 20.7251 9.25074 19.8616 8.66964 18.7895C8.09673 17.7173 7.56473 16.6042 7.07366 15.4502C7.02455 15.3192 7 15.2087 7 15.1187C7 15.0287 7.01228 14.9632 7.03683 14.9223L7.08594 14.8486C7.20871 14.6931 7.44196 14.6153 7.78571 14.6153L11.1496 14.5908C11.2478 14.6072 11.3419 14.6358 11.4319 14.6767C11.5219 14.7095 11.5874 14.7422 11.6283 14.7749L11.6897 14.8118C11.8207 14.9018 11.9189 15.0328 11.9844 15.2046C12.1481 15.6139 12.3363 16.0395 12.5491 16.4814C12.7619 16.9152 12.9297 17.2467 13.0525 17.4758L13.2489 17.8319C13.4862 18.3229 13.7154 18.7485 13.9364 19.1087C14.1574 19.4688 14.3538 19.7511 14.5257 19.9558C14.7057 20.1522 14.8776 20.3077 15.0413 20.4223C15.205 20.5369 15.3441 20.5941 15.4587 20.5941C15.5733 20.5941 15.6838 20.5737 15.7902 20.5328C15.8065 20.5246 15.827 20.5041 15.8516 20.4714C15.8761 20.4386 15.9252 20.3486 15.9989 20.2013C16.0725 20.054 16.1257 19.8616 16.1585 19.6243C16.1994 19.3869 16.2403 19.0555 16.2812 18.6299C16.3222 18.2043 16.3222 17.6927 16.2812 17.0953C16.2649 16.7679 16.2281 16.4691 16.1708 16.1991C16.1135 15.929 16.0562 15.7407 15.9989 15.6343L15.9252 15.487C15.7206 15.2087 15.3728 15.0328 14.8817 14.9591C14.7753 14.9427 14.7958 14.8445 14.9431 14.6645C15.074 14.509 15.2295 14.3862 15.4096 14.2962C15.8434 14.0834 16.8214 13.9851 18.3438 14.0015C19.0149 14.0097 19.5673 14.0629 20.0011 14.1611C20.1648 14.202 20.2999 14.2593 20.4062 14.333C20.5208 14.3985 20.6068 14.4967 20.6641 14.6276C20.7214 14.7504 20.7623 14.8813 20.7868 15.0205C20.8196 15.1514 20.8359 15.3356 20.8359 15.5729C20.8359 15.8103 20.8318 16.0354 20.8237 16.2482C20.8155 16.461 20.8032 16.7515 20.7868 17.1198C20.7786 17.4799 20.7746 17.8155 20.7746 18.1265C20.7746 18.2165 20.7705 18.3884 20.7623 18.6421C20.7541 18.8959 20.75 19.0923 20.75 19.2314C20.7582 19.3706 20.7746 19.5383 20.7991 19.7348C20.8237 19.923 20.8687 20.0826 20.9342 20.2136C21.0078 20.3363 21.1019 20.4345 21.2165 20.5082C21.282 20.5246 21.3516 20.5409 21.4252 20.5573C21.4989 20.5737 21.6053 20.5287 21.7444 20.4223C21.8836 20.3159 22.0391 20.1767 22.2109 20.0049C22.3828 19.8248 22.5956 19.5506 22.8493 19.1823C23.1031 18.8058 23.3813 18.3639 23.6842 17.8564C24.1752 17.0052 24.6131 16.0845 24.9978 15.0941C25.0305 15.0123 25.0714 14.9427 25.1205 14.8854C25.1696 14.82 25.2147 14.7749 25.2556 14.7504L25.3047 14.7136C25.3211 14.7054 25.3415 14.6972 25.3661 14.689C25.3906 14.6726 25.4438 14.6604 25.5257 14.6522C25.6075 14.6358 25.6894 14.6317 25.7712 14.6399L29.3069 14.6153C29.6261 14.5744 29.888 14.5867 30.0926 14.6522C30.2972 14.7095 30.4241 14.7749 30.4732 14.8486L30.5469 14.9714Z" fill="white"></path>
  </symbol>
  <symbol fill="none" xmlns="http://www.w3.org/2000/svg" viewBox="0 0 38 38" id="youtube">
    <path d="M21.5893 23.2721V25.8625C21.5893 26.4108 21.4297 26.685 21.1105 26.685C20.9222 26.685 20.7381 26.595 20.558 26.4149V22.7196C20.7381 22.5396 20.9222 22.4495 21.1105 22.4495C21.4297 22.4495 21.5893 22.7237 21.5893 23.2721ZM25.7388 23.2844V23.8491H24.6339V23.2844C24.6339 22.7278 24.8181 22.4495 25.1864 22.4495C25.5547 22.4495 25.7388 22.7278 25.7388 23.2844ZM13.8795 20.608H15.1931V19.454H11.3627V20.608H12.6518V27.5935H13.8795V20.608ZM17.4152 27.5935H18.5078V21.5288H17.4152V26.1694C17.1696 26.5131 16.9364 26.685 16.7154 26.685C16.5681 26.685 16.4821 26.5991 16.4576 26.4272C16.4494 26.4027 16.4453 26.2594 16.4453 25.9975V21.5288H15.3527V26.329C15.3527 26.73 15.3854 27.0288 15.4509 27.2252C15.5491 27.528 15.7865 27.6794 16.1629 27.6794C16.5558 27.6794 16.9732 27.4298 17.4152 26.9306V27.5935ZM22.6819 25.7765V23.358C22.6819 22.7605 22.6451 22.3554 22.5714 22.1426C22.4323 21.6843 22.1417 21.4551 21.6998 21.4551C21.2906 21.4551 20.91 21.6761 20.558 22.1181V19.454H19.4654V27.5935H20.558V27.0042C20.9263 27.4544 21.3069 27.6794 21.6998 27.6794C22.1417 27.6794 22.4323 27.4544 22.5714 27.0042C22.6451 26.7832 22.6819 26.374 22.6819 25.7765ZM26.8315 25.6538V25.4942H25.7143C25.7143 25.9116 25.7061 26.1612 25.6897 26.2431C25.6324 26.5377 25.4688 26.685 25.1987 26.685C24.8222 26.685 24.6339 26.4027 24.6339 25.8379V24.7698H26.8315V23.5053C26.8315 22.8588 26.721 22.3841 26.5 22.0812C26.1808 21.6638 25.747 21.4551 25.1987 21.4551C24.6421 21.4551 24.2042 21.6638 23.885 22.0812C23.6559 22.3841 23.5413 22.8588 23.5413 23.5053V25.6292C23.5413 26.2758 23.66 26.7505 23.8973 27.0533C24.2165 27.4707 24.6585 27.6794 25.2232 27.6794C25.8125 27.6794 26.2545 27.4626 26.5491 27.0288C26.6964 26.8078 26.7824 26.5868 26.8069 26.3658C26.8233 26.2922 26.8315 26.0548 26.8315 25.6538ZM19.3672 14.4451V11.8669C19.3672 11.3022 19.1912 11.0198 18.8393 11.0198C18.4874 11.0198 18.3114 11.3022 18.3114 11.8669V14.4451C18.3114 15.018 18.4874 15.3044 18.8393 15.3044C19.1912 15.3044 19.3672 15.018 19.3672 14.4451ZM28.1942 23.6649C28.1942 25.5801 28.0878 27.0124 27.875 27.9618C27.7604 28.4447 27.5231 28.8498 27.1629 29.1772C26.8028 29.5046 26.3854 29.6928 25.9107 29.7419C24.4048 29.9138 22.1336 29.9998 19.0971 29.9998C16.0606 29.9998 13.7894 29.9138 12.2835 29.7419C11.8088 29.6928 11.3873 29.5046 11.019 29.1772C10.6589 28.8498 10.4256 28.4447 10.3192 27.9618C10.1064 27.0451 10 25.6129 10 23.6649C10 21.7498 10.1064 20.3175 10.3192 19.3681C10.4338 18.8852 10.6711 18.48 11.0312 18.1527C11.3914 17.8253 11.8129 17.6329 12.2958 17.5756C13.7935 17.412 16.0606 17.3301 19.0971 17.3301C22.1336 17.3301 24.4048 17.412 25.9107 17.5756C26.3854 17.6329 26.8028 17.8253 27.1629 18.1527C27.5312 18.48 27.7686 18.8852 27.875 19.3681C28.0878 20.2847 28.1942 21.717 28.1942 23.6649ZM15.942 7.99976H17.1942L15.7087 12.8982V16.2252H14.481V12.8982C14.3664 12.2925 14.1168 11.425 13.7321 10.2955C13.4293 9.45251 13.1633 8.68726 12.9342 7.99976H14.2355L15.1071 11.2286L15.942 7.99976ZM20.4844 12.0879V14.2364C20.4844 14.8993 20.3698 15.3822 20.1406 15.685C19.8296 16.1024 19.3958 16.3111 18.8393 16.3111C18.2909 16.3111 17.8612 16.1024 17.5502 15.685C17.3211 15.374 17.2065 14.8911 17.2065 14.2364V12.0879C17.2065 11.4332 17.3211 10.9544 17.5502 10.6515C17.8612 10.2341 18.2909 10.0254 18.8393 10.0254C19.3958 10.0254 19.8296 10.2341 20.1406 10.6515C20.3698 10.9544 20.4844 11.4332 20.4844 12.0879ZM24.5971 10.0991V16.2252H23.4799V15.55C23.0461 16.0574 22.6246 16.3111 22.2154 16.3111C21.8389 16.3111 21.5975 16.1597 21.4911 15.8569C21.4256 15.6605 21.3929 15.3536 21.3929 14.9361V10.0991H22.51V14.6047C22.51 14.8748 22.5141 15.018 22.5223 15.0344C22.5469 15.2144 22.6328 15.3044 22.7801 15.3044C23.0011 15.3044 23.2344 15.1285 23.4799 14.7765V10.0991H24.5971Z" fill="white"></path>
  </symbol>
</svg>