<svg width="0" height="0" class="hidden">
  <symbol fill="none" xmlns="http://www.w3.org/2000/svg" viewBox="0 0 26 16" id="arrow-down">
    <path d="M24 2L12.7027 13L2 2"  stroke-width="3" stroke-linecap="round"></path>
  </symbol>
  <symbol fill="none" xmlns="http://www.w3.org/2000/svg" viewBox="0 0 11 19" id="arrow-left">
    <path d="M9.76562 1.87598L2.19321 9.65305L9.76562 17.0208"  stroke-width="2" stroke-linecap="round"></path>
  </symbol>
  <symbol fill="none" xmlns="http://www.w3.org/2000/svg" viewBox="0 0 9 9" id="arrow-line-right">
    <path d="M4.36747 0.0729545L3.99119 0.460699C3.96844 0.48333 3.95036 0.510343 3.93802 0.540155C3.92568 0.569967 3.91932 0.601979 3.91932 0.634316C3.91932 0.666653 3.92568 0.698665 3.93802 0.728477C3.95036 0.758289 3.96844 0.785301 3.99119 0.807932L7.09838 3.96197H0.239754C0.176703 3.96344 0.116636 3.98952 0.0720398 4.03479C0.0274441 4.08006 0.00175052 4.14103 0.000300499 4.20504V4.78376C-0.00133754 4.81612 0.00373459 4.84846 0.0151888 4.87871C0.0266429 4.90895 0.044224 4.93641 0.0667946 4.95933C0.0893652 4.98224 0.116423 5.00008 0.146216 5.01171C0.17601 5.02334 0.207876 5.02848 0.239754 5.02682H7.08128L3.99119 8.19244C3.96844 8.21507 3.95036 8.24208 3.93802 8.27189C3.92568 8.3017 3.91932 8.33372 3.91932 8.36605C3.91932 8.39839 3.92568 8.4304 3.93802 8.46021C3.95036 8.49003 3.96844 8.51704 3.99119 8.53967L4.39028 8.92163C4.41168 8.94626 4.438 8.96599 4.46749 8.9795C4.49698 8.99301 4.52896 9 4.56132 9C4.59367 9 4.62566 8.99301 4.65515 8.9795C4.68464 8.96599 4.71096 8.94626 4.73236 8.92163L8.92279 4.6738C8.94706 4.65208 8.96649 4.62536 8.9798 4.59543C8.99312 4.56549 9 4.53303 9 4.50018C9 4.46734 8.99312 4.43487 8.9798 4.40494C8.96649 4.37501 8.94706 4.34829 8.92279 4.32657L4.70955 0.0729545C4.68726 0.0498566 4.66064 0.0315068 4.63127 0.0189796C4.60191 0.00645252 4.57037 0 4.53851 0C4.50666 0 4.47512 0.00645252 4.44575 0.0189796C4.41638 0.0315068 4.38977 0.0498566 4.36747 0.0729545Z" fill="black"></path>
  </symbol>
  <symbol  xmlns="http://www.w3.org/2000/svg" viewBox="0 0 17 18" id="arrow-line-up">
    <path d="M8.85418 0.572803C8.71335 0.572803 8.58132 0.594633 8.4581 0.63829C8.33487 0.681948 8.22045 0.756939 8.11483 0.863266L1.14377 7.83432C0.932526 8.04556 0.826904 8.29624 0.826904 8.58635C0.826904 8.87646 0.932526 9.12749 1.14377 9.33943C1.35501 9.55068 1.60147 9.6563 1.88312 9.6563C2.16478 9.6563 2.41123 9.55068 2.62248 9.33943L7.79796 4.16395V15.9936C7.79796 16.2929 7.89936 16.5393 8.10215 16.733C8.30495 16.9266 8.55562 17.0234 8.85418 17.0234C9.15344 17.0234 9.40447 16.922 9.60727 16.7192C9.81006 16.5165 9.91111 16.2658 9.9104 15.9672V4.16395L15.0859 9.33943C15.2971 9.55068 15.5436 9.6563 15.8252 9.6563C16.1069 9.6563 16.3533 9.55068 16.5646 9.33943C16.7758 9.12819 16.8815 8.87716 16.8815 8.58635C16.8815 8.29554 16.7758 8.04486 16.5646 7.83432L9.59353 0.863266C9.48791 0.757645 9.37349 0.682652 9.25026 0.63829C9.12704 0.593929 8.99501 0.5721 8.85418 0.572803Z"></path>
  </symbol>
  <symbol fill="none" xmlns="http://www.w3.org/2000/svg" viewBox="0 0 11 19" id="arrow-right">
    <path d="M1.7168 1.87598L9.28921 9.65305L1.7168 17.0208"  stroke-width="2" stroke-linecap="round"></path>
  </symbol>
  <symbol fill="none" xmlns="http://www.w3.org/2000/svg" viewBox="0 0 6 9" id="arrow-rounded-right">
    <path d="M1 1L4 4.59459L1 8" stroke="#204A8F" stroke-width="2" stroke-linecap="round"></path>
  </symbol>
  <symbol fill="none" xmlns="http://www.w3.org/2000/svg" viewBox="0 0 18 33" id="arrow-scroll-down">
    <path d="M8.80554 1.55294V30.7765M8.80554 30.7765L16.5763 21.6935M8.80554 30.7765L1.42334 21.6935" stroke="white" stroke-width="2" stroke-linecap="round"></path>
  </symbol>
  <symbol fill="none" xmlns="http://www.w3.org/2000/svg" viewBox="0 0 60 58" id="attention">
    <path d="M26.3969 5.68378C27.952 3.10361 31.6933 3.10362 33.2485 5.68379L51.9944 36.785C53.6012 39.451 51.6813 42.8499 48.5685 42.8499H11.0768C7.96406 42.8499 6.04414 39.451 7.651 36.785L26.3969 5.68378Z" fill="#204A8F"></path>
    <path d="M28.5274 31.49L28.0024 23.265V13.29H31.6774V23.265L31.1524 31.49H28.5274ZM27.8274 37.79V33.765H31.8524V37.79H27.8274Z" fill="white"></path>
  </symbol>
  <symbol xmlns="http://www.w3.org/2000/svg" viewBox="0 0 13 14" id="close">
    <path d="M7.82268 7.11908L12.5628 2.34868C12.8994 2.00995 12.8994 1.47363 12.5628 1.1349C12.2262 0.796178 11.6933 0.796178 11.3568 1.1349L6.61661 5.90531L1.87647 1.1349C1.53989 0.796178 1.00698 0.796178 0.670402 1.1349C0.333824 1.47363 0.333824 2.00995 0.670402 2.34868L5.41054 7.11908L0.670402 11.8895C0.333824 12.2282 0.333824 12.7645 0.670402 13.1033C0.838691 13.2726 1.06307 13.3573 1.27343 13.3573C1.48379 13.3573 1.70818 13.2726 1.87647 13.1033L6.61661 8.34696L11.3568 13.1033C11.525 13.2726 11.7354 13.3573 11.9598 13.3573C12.1842 13.3573 12.3945 13.2726 12.5628 13.1033C12.8994 12.7645 12.8994 12.2282 12.5628 11.8895L7.82268 7.11908Z" ></path>
  </symbol>
   <symbol xmlns="http://www.w3.org/2000/svg" viewBox="0 0 10 10" id="copy">
    <path d="M8.12981 0.542236H4.23966C3.7171 0.542236 3.29199 0.977505 3.29199 1.51255V5.49566C3.29199 6.0307 3.7171 6.46597 4.23966 6.46597H8.12981C8.65237 6.46597 9.07748 6.0307 9.07748 5.49566V1.51255C9.07748 0.977505 8.65237 0.542236 8.12981 0.542236ZM8.42784 5.49566C8.42784 5.66403 8.29426 5.8008 8.12981 5.8008H4.23966C4.07522 5.8008 3.94164 5.66403 3.94164 5.49566V1.51255C3.94164 1.34418 4.07522 1.2074 4.23966 1.2074H8.12981C8.29426 1.2074 8.42784 1.34418 8.42784 1.51255V5.49566Z"></path>
    <path d="M5.30772 8.65603C5.30772 8.8244 5.17414 8.96117 5.0097 8.96117H1.11954C0.955103 8.96117 0.82152 8.8244 0.82152 8.65603V4.67292C0.82152 4.50455 0.955103 4.36777 1.11954 4.36777H2.92596V3.70261H1.11954C0.596986 3.70261 0.171875 4.13788 0.171875 4.67292V8.65603C0.171875 9.19107 0.596986 9.62634 1.11954 9.62634H5.0097C5.53225 9.62634 5.95737 9.19107 5.95737 8.65603V6.84012H5.30772V8.65603V8.65603Z"></path>
  </symbol>
  <symbol fill="none" xmlns="http://www.w3.org/2000/svg" viewBox="0 0 13 13" id="copy-black">
    <path d="M13.4643 4.64286H6.03575C5.66634 4.64286 5.31206 4.7896 5.05085 5.05082C4.78964 5.31203 4.64289 5.66631 4.64289 6.03571V13.4643C4.64165 13.6475 4.67684 13.8292 4.7464 13.9988C4.81596 14.1683 4.91851 14.3224 5.0481 14.4519C5.17768 14.5815 5.33172 14.6841 5.50127 14.7536C5.67081 14.8232 5.85249 14.8584 6.03575 14.8571H13.4643C13.8337 14.8571 14.188 14.7104 14.4492 14.4492C14.7104 14.188 14.8572 13.8337 14.8572 13.4643V6.03571C14.8524 5.6678 14.7041 5.31631 14.4439 5.05613C14.1837 4.79596 13.8322 4.64767 13.4643 4.64286ZM13 13H6.50003V6.5H13V13ZM10.2143 3.71429V1.39286C10.2095 1.02494 10.0612 0.673453 9.80104 0.413277C9.54086 0.153101 9.18937 0.00480993 8.82146 0L1.39289 0C1.02348 0 0.669201 0.146747 0.40799 0.407958C0.146778 0.66917 3.13741e-05 1.02345 3.13741e-05 1.39286V8.82143C-0.00120272 9.00469 0.033982 9.18636 0.103543 9.35591C0.173103 9.52546 0.275653 9.67949 0.405239 9.80908C0.534824 9.93866 0.688862 10.0412 0.858409 10.1108C1.02796 10.1803 1.20963 10.2155 1.39289 10.2143H3.71432V6.03571C3.71676 5.42079 3.96213 4.83174 4.39695 4.39692C4.83177 3.96209 5.42082 3.71673 6.03575 3.71429H10.2143Z" fill="black"></path>
  </symbol>
  <symbol xmlns="http://www.w3.org/2000/svg" viewBox="0 0 16 17" id="download">
    <path d="M13.4844 7.44141C13.6602 7.26562 13.6602 6.98438 13.4844 6.84375L12.7812 6.14062C12.6406 5.96484 12.3594 5.96484 12.1836 6.14062L8.87891 9.55078V0.796875C8.87891 0.585938 8.70312 0.375 8.45703 0.375H7.47266C7.26172 0.375 7.05078 0.585938 7.05078 0.796875V9.55078L3.78125 6.14062C3.60547 5.96484 3.32422 5.96484 3.18359 6.14062L2.48047 6.84375C2.30469 6.98438 2.30469 7.26562 2.48047 7.44141L7.68359 12.6445C7.85938 12.8203 8.10547 12.8203 8.28125 12.6445L13.4844 7.44141ZM14.3281 14.2969H1.67188C1.42578 14.2969 1.25 14.5078 1.25 14.7188V15.7031C1.25 15.9492 1.42578 16.125 1.67188 16.125H14.3281C14.5391 16.125 14.75 15.9492 14.75 15.7031V14.7188C14.75 14.5078 14.5391 14.2969 14.3281 14.2969Z" ></path>
  </symbol>
  <symbol fill="none" xmlns="http://www.w3.org/2000/svg" viewBox="0 0 17 16" id="download-rounded">
    <g clip-path="url(#clip0_774_41416)">
      <path d="M13.0883 1.29686C14.215 1.29686 15.1309 2.21277 15.1309 3.33941V12.6606C15.1309 13.7872 14.215 14.7031 13.0883 14.7031H3.76715C2.6405 14.7031 1.72459 13.7872 1.72459 12.6606V3.33941C1.72459 2.21277 2.6405 1.29686 3.76715 1.29686H13.0883ZM13.0883 0H3.76715C1.92236 0 0.427734 1.49625 0.427734 3.33941V12.6606C0.427734 14.5054 1.92236 16 3.76715 16H13.0883C14.9331 16 16.4277 14.5037 16.4277 12.6606V3.33941C16.4277 1.49463 14.9331 0 13.0883 0Z" fill="white"></path>
      <path d="M8.10353 10.3587C8.1862 10.4511 8.30454 10.5029 8.42774 10.5029C8.55095 10.5029 8.66928 10.4511 8.75196 10.3587L10.694 8.20749C10.8091 8.07942 10.8383 7.89624 10.7686 7.73737C10.6989 7.58013 10.5416 7.478 10.3698 7.478H9.45226V6.32218C9.45226 6.08064 9.25773 5.88611 9.01619 5.88611H7.83767C7.59613 5.88611 7.4016 6.08064 7.4016 6.32218V7.478H6.48408C6.31224 7.478 6.155 7.58013 6.08529 7.73737C6.01559 7.89462 6.04477 8.07942 6.15986 8.20749L8.10191 10.3587H8.10353Z" fill="white"></path>
      <path d="M7.83939 4.08997H9.01791C9.25783 4.08997 9.45398 4.28612 9.45398 4.52603V4.9232C9.45398 5.16474 9.25783 5.35927 9.01791 5.35927H7.83939C7.59947 5.35927 7.40332 5.16312 7.40332 4.9232V4.52603C7.40332 4.28449 7.59947 4.08997 7.83939 4.08997Z" fill="white"></path>
      <path d="M12.0123 11.0282H4.8439C4.5975 11.0282 4.39648 11.2276 4.39648 11.4756C4.39648 11.7236 4.59588 11.923 4.8439 11.923H12.0123C12.2587 11.923 12.4597 11.7236 12.4597 11.4756C12.4597 11.2276 12.2603 11.0282 12.0123 11.0282Z" fill="white"></path>
    </g>
    <defs>
      <clipPath id="clip0_774_41416">
        <rect width="16" height="16" fill="white" transform="translate(0.427734)"></rect>
      </clipPath>
    </defs>
  </symbol>
  <symbol  xmlns="http://www.w3.org/2000/svg" viewBox="0 0 34 22" id="eye">
    <g clip-path="url(#clip0_558_13663)">
      <path d="M33.8268 11.0523C33.7314 10.9501 33.6276 10.8545 33.5411 10.7452C30.896 7.40052 27.7669 4.64412 23.955 2.73462C21.6585 1.58392 19.2332 0.924025 16.6514 0.975836C14.2228 1.02482 11.944 1.69461 9.78906 2.79114C5.92922 4.75575 2.7666 7.57291 0.117823 11.0043C0.0917589 11.0382 0.0726761 11.0778 0.00146484 11.195C0.874618 12.1696 1.7245 13.1903 2.64978 14.1356C4.94995 16.4855 7.53171 18.4506 10.5352 19.8024C12.9968 20.9103 15.5604 21.4712 18.2665 21.2004C20.6206 20.9649 22.8063 20.1849 24.8644 19.0328C28.2789 17.1209 31.1413 14.5534 33.5615 11.4673C33.6411 11.366 33.7384 11.2794 33.8273 11.1856V11.0519L33.8268 11.0523ZM3.24879 11.1851C3.34281 11.0603 3.37725 11.0047 3.42054 10.9576C5.44424 8.74763 7.68949 6.81646 10.3201 5.37703C12.1958 4.35021 14.1776 3.65263 16.3242 3.53111C18.5155 3.40723 20.5773 3.94184 22.5457 4.87586C25.631 6.34026 28.1928 8.50364 30.4878 11.0175C30.5157 11.0481 30.5316 11.0895 30.5562 11.1305C30.5157 11.1828 30.485 11.2285 30.4487 11.2685C28.4339 13.471 26.1984 15.397 23.5817 16.8383C21.7083 17.8698 19.7298 18.5712 17.5827 18.7035C15.5306 18.8298 13.5889 18.3658 11.7187 17.5458C9.258 16.4667 7.12725 14.8902 5.17103 13.0579C4.51943 12.4475 3.89156 11.8121 3.24926 11.1847L3.24879 11.1851Z" ></path>
      <path d="M16.9239 4.171C13.1423 4.17194 10.0639 7.28725 10.0625 11.1138C10.0611 14.9564 13.1483 18.0736 16.9477 18.066C20.7274 18.0585 23.797 14.938 23.7932 11.1067C23.7895 7.2816 20.7079 4.17006 16.9244 4.171H16.9239ZM12.5712 11.127C12.5684 8.6923 14.5237 6.70978 16.9281 6.70978C19.3172 6.70978 21.2762 8.68194 21.2846 11.0945C21.2929 13.532 19.3451 15.5211 16.9435 15.5272C14.5353 15.5334 12.574 13.5589 12.5717 11.1265L12.5712 11.127Z" ></path>
    </g>
    <defs>
      <clipPath id="clip0_558_13663">
        <rect width="33.8254" height="20.2952" fill="white" transform="matrix(1 0 0 -1 0.00146484 21.2676)"></rect>
      </clipPath>
    </defs>
  </symbol>
  <symbol fill="none" xmlns="http://www.w3.org/2000/svg" viewBox="0 0 17 16" id="link">
    <path d="M13.6289 1H2.62891C1.78516 1 1.12891 1.6875 1.12891 2.5V13.5C1.12891 14.3438 1.78516 15 2.62891 15H13.6289C14.4414 15 15.1289 14.3438 15.1289 13.5V2.5C15.1289 1.6875 14.4414 1 13.6289 1ZM13.4414 13.5H2.81641C2.69141 13.5 2.62891 13.4375 2.62891 13.3125V2.6875C2.62891 2.59375 2.69141 2.5 2.81641 2.5H13.4414C13.5352 2.5 13.6289 2.59375 13.6289 2.6875V13.3125C13.6289 13.4375 13.5352 13.5 13.4414 13.5ZM11.7539 4H7.50391C7.16016 4 6.97266 4.40625 7.22266 4.65625L8.72266 6.15625L4.22266 10.6562C4.06641 10.8125 4.06641 11.0625 4.22266 11.1875L4.94141 11.9062C5.06641 12.0625 5.31641 12.0625 5.47266 11.9062L9.97266 7.40625L11.4727 8.90625C11.7227 9.125 12.1289 8.96875 12.1289 8.625V4.375C12.1289 4.1875 11.9414 4 11.7539 4Z" fill="#9A9A9A"></path>
  </symbol>
  <symbol  xmlns="http://www.w3.org/2000/svg" viewBox="0 0 21 18" id="link-share">
    <path d="M20.5844 7.2771C17.3365 9.70622 14.1144 12.1159 10.8611 14.5482V10.3535C10.8305 10.3329 10.8198 10.3194 10.8096 10.3194C9.70601 10.3308 8.59976 10.2422 7.50425 10.4664C4.32027 11.1185 1.87309 13.6476 1.32318 16.8763C1.25015 17.3059 1.22437 17.7435 1.17497 18.1909H0.021454C0.0160838 18.1741 0.00104732 18.1498 0.00104732 18.126C0.0107136 17.0611 -0.0247295 15.993 0.0413236 14.9319C0.195447 12.4611 1.08797 10.2681 2.6711 8.37604C4.51199 6.176 6.86036 4.85176 9.68024 4.38117C10.0626 4.31742 10.4503 4.28986 10.8531 4.24394V0C14.1079 2.43398 17.33 4.84365 20.5838 7.2771H20.5844ZM18.562 7.2771C16.3887 5.65192 14.2417 4.04619 12.0544 2.41075V5.4639C10.8687 5.4223 9.7275 5.53522 8.61104 5.86263C7.48867 6.19166 6.45169 6.69683 5.50225 7.38137C4.55764 8.06267 3.75533 8.88606 3.07601 9.83643C2.3505 10.8511 1.67171 12.4249 1.62982 12.9609C1.63573 12.9582 1.64378 12.9571 1.647 12.9522C1.70769 12.8717 1.76676 12.7902 1.82905 12.7107C3.64041 10.3891 6.00973 9.1735 8.94453 9.10434C9.92243 9.08111 10.9009 9.10056 11.8793 9.1011C11.9368 9.1011 11.9942 9.10866 12.0737 9.1146V12.1305C14.246 10.5058 16.3897 8.90281 18.5625 7.27872L18.562 7.2771Z" ></path>
  </symbol>
  <symbol fill="none" xmlns="http://www.w3.org/2000/svg" viewBox="0 0 26 20" id="mute">
    <path d="M24.705 13.4842L17.8762 6.8881M24.705 6.8881L17.8762 13.4842M1.94238 13.4391V6.93208C1.94238 6.30105 2.45227 5.78876 3.08051 5.78876H7.16185C7.31247 5.78824 7.46141 5.75826 7.5997 5.70064C7.738 5.64301 7.86278 5.55893 7.96651 5.45346L11.3809 1.72887C12.0979 1.0077 13.3237 1.5189 13.3237 2.53799V17.8343C13.3237 18.8611 12.0831 19.3679 11.3707 18.6324L7.96765 14.9287C7.86362 14.8202 7.73758 14.7336 7.59738 14.6742C7.45719 14.6148 7.30583 14.584 7.15275 14.5835H3.08051C2.45227 14.5835 1.94238 14.0712 1.94238 13.4391Z" stroke="#CCCCCC" stroke-width="2" stroke-linecap="round" stroke-linejoin="round"></path>
  </symbol>
  <symbol fill="none" xmlns="http://www.w3.org/2000/svg" viewBox="0 0 18 19" id="phone">
    <path d="M17.0156 11.8513L13.4297 10.3396C13.2539 10.2693 12.9727 10.199 12.7969 10.199C12.375 10.199 11.8125 10.4802 11.5664 10.7966L10.4062 12.2029C8.85938 11.3591 6.89062 9.39038 6.04688 7.84351L7.45312 6.68335C7.76953 6.43726 8.05078 5.87476 8.05078 5.45288C8.05078 5.2771 7.98047 4.99585 7.91016 4.82007L6.39844 1.23413C6.15234 0.706787 5.48438 0.249756 4.92188 0.249756C4.81641 0.249756 4.64062 0.284912 4.53516 0.320068L1.23047 1.05835C0.527344 1.23413 0 1.93726 0 2.64038C0 11.2888 6.99609 18.2849 15.6094 18.2498C16.3125 18.2498 17.0156 17.7224 17.1914 17.0193L17.9297 13.7146C17.9648 13.6091 18 13.4333 18 13.363C18 12.7654 17.543 12.0974 17.0156 11.8513ZM15.5391 16.5974C7.91016 16.5623 1.72266 10.3396 1.6875 2.71069L4.85156 1.97241L6.32812 5.41772L3.9375 7.38647C5.58984 10.8669 7.38281 12.6599 10.8633 14.3123L12.832 11.9216L16.2773 13.3982L15.5391 16.5974Z" fill="#828E9B"></path>
  </symbol>
  <symbol fill="none" xmlns="http://www.w3.org/2000/svg" viewBox="0 0 63 62" id="play">
    <path d="M23.9508 44.6847L45.6276 31.0593L23.9508 17.4338V44.6847ZM31.6925 61.338C27.4087 61.338 23.383 60.5427 19.6154 58.952C15.8478 57.3634 12.5704 55.2066 9.7834 52.4815C6.99638 49.7564 4.79051 46.5519 3.16578 42.868C1.53898 39.1841 0.725586 35.2478 0.725586 31.0593C0.725586 26.8707 1.53898 22.9345 3.16578 19.2506C4.79051 15.5666 6.99638 12.3621 9.7834 9.63705C12.5704 6.91196 15.8478 4.7541 19.6154 3.16346C23.383 1.57483 27.4087 0.780518 31.6925 0.780518C35.9762 0.780518 40.0019 1.57483 43.7696 3.16346C47.5372 4.7541 50.8145 6.91196 53.6016 9.63705C56.3886 12.3621 58.5945 15.5666 60.2192 19.2506C61.846 22.9345 62.6594 26.8707 62.6594 31.0593C62.6594 35.2478 61.846 39.1841 60.2192 42.868C58.5945 46.5519 56.3886 49.7564 53.6016 52.4815C50.8145 55.2066 47.5372 57.3634 43.7696 58.952C40.0019 60.5427 35.9762 61.338 31.6925 61.338ZM31.6925 55.2823C38.6084 55.2823 44.4663 52.9357 49.2662 48.2425C54.0661 43.5492 56.466 37.8215 56.466 31.0593C56.466 24.297 54.0661 18.5693 49.2662 13.8761C44.4663 9.18287 38.6084 6.83627 31.6925 6.83627C24.7765 6.83627 18.9186 9.18287 14.1188 13.8761C9.3189 18.5693 6.91897 24.297 6.91897 31.0593C6.91897 37.8215 9.3189 43.5492 14.1188 48.2425C18.9186 52.9357 24.7765 55.2823 31.6925 55.2823Z" fill="white"></path>
  </symbol>
  <symbol fill="none" xmlns="http://www.w3.org/2000/svg" viewBox="0 0 29 34" id="play-blue">
    <path d="M26.5 14.4375L4.5 1.4375C2.6875 0.375 0 1.4375 0 4V30C0 32.375 2.5 33.8125 4.5 32.625L26.5 19.625C28.4375 18.4375 28.4375 15.625 26.5 14.4375Z" fill="#204A8F"></path>
  </symbol>
  <symbol  xmlns="http://www.w3.org/2000/svg" viewBox="0 0 17 18" id="search">
    <path d="M11.9298 10.7911H11.1758L10.9086 10.5262C11.8762 9.37259 12.408 7.89977 12.4069 6.37657C12.4069 5.1154 12.0431 3.88256 11.3615 2.83394C10.6798 1.78532 9.71097 0.968017 8.57744 0.48539C7.4439 0.00276288 6.19659 -0.123514 4.99324 0.122527C3.78988 0.368568 2.68453 0.975876 1.81696 1.86765C0.949386 2.75943 0.358563 3.89563 0.119201 5.13256C-0.120162 6.36949 0.00268788 7.65161 0.472214 8.81677C0.94174 9.98193 1.73685 10.9778 2.75701 11.6785C3.77716 12.3791 4.97654 12.7531 6.20347 12.7531C7.74002 12.7531 9.15251 12.1743 10.2405 11.2129L10.4982 11.4876V12.2626L15.2701 17.1579L16.6921 15.6962L11.9298 10.7911ZM6.20347 10.7911C3.82707 10.7911 1.90876 8.81928 1.90876 6.37657C1.90876 3.93385 3.82707 1.96202 6.20347 1.96202C8.57988 1.96202 10.4982 3.93385 10.4982 6.37657C10.4982 8.81928 8.57988 10.7911 6.20347 10.7911Z" ></path>
  </symbol>
  <symbol  xmlns="http://www.w3.org/2000/svg" viewBox="0 0 18 17" id="star">
    <path d="M9.00033 14.0044L4.85033 16.56C4.667 16.6793 4.47533 16.7304 4.27533 16.7133C4.07533 16.6963 3.90033 16.6282 3.75033 16.5089C3.60033 16.3896 3.48366 16.2404 3.40033 16.0612C3.317 15.8819 3.30033 15.6819 3.35033 15.4611L4.45033 10.6311L0.775329 7.38556C0.608662 7.23222 0.504662 7.05742 0.463329 6.86116C0.421996 6.66489 0.434329 6.47339 0.500329 6.28667C0.566996 6.09926 0.666995 5.94593 0.800329 5.82667C0.933662 5.70741 1.117 5.63074 1.35033 5.59667L6.20033 5.16222L8.07533 0.613334C8.15866 0.408889 8.288 0.255556 8.46333 0.153333C8.63866 0.0511112 8.81766 0 9.00033 0C9.18366 0 9.36266 0.0511112 9.53733 0.153333C9.712 0.255556 9.84133 0.408889 9.92533 0.613334L11.8003 5.16222L16.6503 5.59667C16.8837 5.63074 17.067 5.70741 17.2003 5.82667C17.3337 5.94593 17.4337 6.09926 17.5003 6.28667C17.567 6.47407 17.5797 6.66591 17.5383 6.86218C17.497 7.05844 17.3927 7.2329 17.2253 7.38556L13.5503 10.6311L14.6503 15.4611C14.7003 15.6826 14.6837 15.8829 14.6003 16.0622C14.517 16.2414 14.4003 16.3903 14.2503 16.5089C14.1003 16.6282 13.9253 16.6963 13.7253 16.7133C13.5253 16.7304 13.3337 16.6793 13.1503 16.56L9.00033 14.0044Z" ></path>
  </symbol>
  <symbol fill="none" xmlns="http://www.w3.org/2000/svg" viewBox="0 0 23 20" id="volume">
    <path d="M15.8 6.04716C15.8 6.04716 17.352 7.59918 17.352 10.1859C17.352 12.7726 15.8 14.3246 15.8 14.3246M18.904 2.94313C18.904 2.94313 21.4907 5.52982 21.4907 10.1859C21.4907 14.8419 18.904 17.4286 18.904 17.4286M1.3147 13.2475V7.12324C1.3147 6.52934 1.77823 6.04718 2.34936 6.04718H6.05967C6.19659 6.04669 6.33199 6.01848 6.45772 5.96424C6.58344 5.91 6.69687 5.83087 6.79118 5.7316L9.89517 2.22611C10.547 1.54736 11.6613 2.02848 11.6613 2.98763V17.3842C11.6613 18.3505 10.5336 18.8275 9.88586 18.1353L6.79221 14.6495C6.69764 14.5474 6.58306 14.4659 6.45561 14.41C6.32815 14.3541 6.19056 14.325 6.05139 14.3246H2.34936C1.77823 14.3246 1.3147 13.8424 1.3147 13.2475Z" stroke="#CCCCCC" stroke-width="2" stroke-linecap="round" stroke-linejoin="round"></path>
  </symbol>
  <symbol xmlns="http://www.w3.org/2000/svg" viewBox="0 0 35 35" id="download-wide">
    <path d="M17.5203 34.9939C13.5842 34.9939 9.65024 35.0001 5.71417 34.9939C2.28598 34.9855 0.0109277 32.7066 0.00468332 29.2716C-0.00156111 24.9888 -0.00156111 20.7039 0.00468332 16.4211C0.00884627 12.9673 2.24851 10.7301 5.70168 10.7197C7.46261 10.7155 9.22354 10.7092 10.9824 10.7238C11.9857 10.7322 12.5789 11.2321 12.6267 12.0591C12.6767 12.9319 12.0793 13.5672 11.0511 13.5902C9.25684 13.6318 7.46053 13.5902 5.6663 13.6089C3.78464 13.6277 2.89793 14.5317 2.89377 16.4357C2.88544 20.7185 2.88544 25.0034 2.89377 29.2862C2.89793 31.1235 3.86582 32.0963 5.70584 32.0984C13.5759 32.1067 21.446 32.1067 29.316 32.0984C31.0936 32.0984 32.0781 31.1152 32.0823 29.3445C32.0948 25.0263 32.0927 20.7081 32.0823 16.3898C32.0781 14.5255 31.1602 13.6256 29.264 13.6089C27.503 13.5943 25.7421 13.6297 23.9833 13.5922C22.8614 13.5693 22.1745 12.834 22.3701 11.9091C22.5304 11.1488 23.0175 10.7176 23.8313 10.7197C25.9024 10.7259 27.9755 10.6738 30.0445 10.7447C32.6963 10.8342 34.9277 13.1756 34.9589 15.9482C35.0088 20.5414 35.0151 25.1388 34.9589 29.732C34.9214 32.7129 32.5506 34.9668 29.5304 34.9876C25.5256 35.0126 21.523 34.9939 17.5182 34.9939H17.5203Z" ></path>
    <path d="M16.0792 21.9599V20.8476C16.0792 14.6295 16.0792 8.41361 16.0792 2.1956C16.0792 1.84981 16.0542 1.49777 16.1125 1.16239C16.2415 0.408317 16.7536 0.00419872 17.4821 3.25544e-05C18.2106 -0.00413362 18.7289 0.391653 18.8642 1.14365C18.9245 1.47902 18.8996 1.83106 18.8996 2.17686C18.8996 8.39487 18.8996 14.6108 18.8996 20.8288V22.1349C19.2201 21.8891 19.4345 21.7579 19.6093 21.587C20.521 20.6913 21.4077 19.7727 22.3298 18.8894C22.948 18.2979 23.664 18.2854 24.2864 18.8415C24.9129 19.4019 25.0045 20.1935 24.4363 20.7892C22.4547 22.8577 20.4294 24.8867 18.3646 26.8718C17.813 27.4009 17.0554 27.3322 16.4871 26.7739C14.518 24.8367 12.5594 22.889 10.6299 20.9142C10.0325 20.3039 10.0783 19.3665 10.6673 18.8686C11.35 18.2895 12.0744 18.3083 12.703 18.9436C13.7417 19.9956 14.7428 21.085 15.7607 22.1578C15.8668 22.0912 15.973 22.0266 16.0792 21.9599Z" ></path>
  </symbol>
  <symbol fill="none" xmlns="http://www.w3.org/2000/svg" viewBox="0 0 149 135" id="404">
    <g clip-path="url(#clip0_916_18350)">
      <path d="M125.983 135H22.3957C14.3123 135 7.07293 130.803 3.03126 123.772C-1.01042 116.742 -1.01042 108.348 3.03126 101.317L54.8247 11.2269C58.8664 4.19747 66.1058 0 74.1904 0C82.275 0 89.5132 4.19747 93.5548 11.2269L145.348 101.317C149.389 108.346 149.389 116.741 145.348 123.772C141.307 130.803 134.068 135 125.984 135H125.983ZM74.1904 4.03696C67.5588 4.03696 61.6222 7.47933 58.3082 13.2454L6.51354 103.337C3.19835 109.103 3.19835 115.987 6.51354 121.753C9.82752 127.519 15.7665 130.963 22.3957 130.963H125.983C132.613 130.963 138.55 127.521 141.865 121.753C145.18 115.987 145.18 109.103 141.865 103.337L90.0714 13.2454C86.7574 7.47933 80.8196 4.03696 74.1892 4.03696H74.1904Z" fill="#204A8F"></path>
      <path d="M106.715 93.6225V62.5537H98.8667L85.7852 93.6225V100.191H99.6513V108.533H106.715V100.191H110.116V93.6225H106.715ZM99.6513 93.6225H92.3913L99.6513 76.3475V93.6225Z" fill="#204A8F"></path>
      <path d="M60.9973 97.567C60.9973 97.567 60.9973 97.5682 60.9985 97.5694C61.0106 101.212 61.9454 104.036 63.8088 106.036C65.6613 108.028 68.3275 109.03 71.7977 109.053C71.7977 109.053 71.8001 109.055 71.8013 109.057C71.8413 109.057 71.88 109.057 71.9188 109.057C75.4507 109.057 78.1532 108.05 80.0288 106.035C81.9031 104.021 82.8415 101.175 82.8415 97.4965V73.5872C82.8415 69.9089 81.9031 67.0624 80.0288 65.0487C78.1532 63.0351 75.4507 62.0271 71.9188 62.0271C68.3869 62.0271 65.6831 63.0351 63.8088 65.0487C61.9333 67.0636 60.9961 69.9089 60.9961 73.5872V97.4965C60.9961 97.5196 60.9961 97.5427 60.9961 97.5658L60.9973 97.567ZM68.1919 73.1288C68.1919 70.1071 69.4342 68.5969 71.92 68.5969C74.4058 68.5969 75.6481 70.1071 75.6481 73.1288V97.9573C75.6481 100.979 74.4058 102.489 71.92 102.489C69.4342 102.489 68.1919 100.979 68.1919 97.9573V73.1288Z" fill="#204A8F"></path>
      <path d="M52.9842 108.533V100.191H56.3854V93.6225H52.9842V62.5537H45.1358L42.001 70.0002L32.0542 93.6225V100.191H45.9204V108.533H52.9842ZM38.6604 93.6225L45.8586 76.4958L45.9204 76.5943V93.6225H38.6604Z" fill="#204A8F"></path>
    </g>
    <defs>
      <clipPath id="clip0_916_18350">
        <rect width="148.378" height="135" fill="white" transform="translate(0.000488281)"></rect>
      </clipPath>
    </defs>
  </symbol>
  <symbol xmlns="http://www.w3.org/2000/svg" viewBox="0 0 24 24" id="clock">
    <path d="M12 4.25C7.71875 4.25 4.25 7.71875 4.25 12C4.25 16.2812 7.71875 19.75 12 19.75C16.2812 19.75 19.75 16.2812 19.75 12C19.75 7.71875 16.2812 4.25 12 4.25ZM12 18.25C8.53125 18.25 5.75 15.4688 5.75 12C5.75 8.5625 8.53125 5.75 12 5.75C15.4375 5.75 18.25 8.5625 18.25 12C18.25 15.4688 15.4375 18.25 12 18.25ZM13.9062 15C14.0938 15.125 14.3125 15.0938 14.4375 14.9062L15.0312 14.125C15.1562 13.9375 15.125 13.7188 14.9375 13.5938L12.875 12.0625V7.625C12.875 7.4375 12.6875 7.25 12.5 7.25H11.5C11.2812 7.25 11.125 7.4375 11.125 7.625V12.7812C11.125 12.875 11.1562 13 11.25 13.0625L13.9062 15Z" ></path>
  </symbol>
  <symbol xmlns="http://www.w3.org/2000/svg" viewBox="0 0 24 24" id="location">
    <path d="M12 4C8.65625 4 6 6.71875 6 10C6 12.25 6.71875 12.9375 10.7188 19.3125C11.3125 20.25 12.6562 20.25 13.25 19.3125C17.25 12.9375 18 12.25 18 10C18 6.6875 15.2812 4 12 4ZM12 18.5C8 12.125 7.5 11.7188 7.5 10C7.5 7.53125 9.5 5.5 12 5.5C14.4688 5.5 16.5 7.53125 16.5 10C16.5 11.7188 16 12.0625 12 18.5ZM9.5 10C9.5 11.4062 10.5938 12.5 12 12.5C13.375 12.5 14.5 11.4062 14.5 10C14.5 8.625 13.375 7.5 12 7.5C10.5938 7.5 9.5 8.625 9.5 10Z" ></path>
  </symbol>
  <symbol xmlns="http://www.w3.org/2000/svg" viewBox="0 0 24 24" id="phone2">
    <path d="M19.125 14.3125L15.9375 12.9688C15.7812 12.9062 15.5312 12.8438 15.375 12.8438C15 12.8438 14.5 13.0938 14.2812 13.375L13.25 14.625C11.875 13.875 10.125 12.125 9.375 10.75L10.625 9.71875C10.9062 9.5 11.1562 9 11.1562 8.625C11.1562 8.46875 11.0938 8.21875 11.0312 8.0625L9.6875 4.875C9.46875 4.40625 8.875 4 8.375 4C8.28125 4 8.125 4.03125 8.03125 4.0625L5.09375 4.71875C4.46875 4.875 4 5.5 4 6.125C4 13.8125 10.2188 20.0312 17.875 20C18.5 20 19.125 19.5312 19.2812 18.9062L19.9375 15.9688C19.9688 15.875 20 15.7188 20 15.6562C20 15.125 19.5938 14.5312 19.125 14.3125ZM17.8125 18.5312C11.0312 18.5 5.53125 12.9688 5.5 6.1875L8.3125 5.53125L9.625 8.59375L7.5 10.3438C8.96875 13.4375 10.5625 15.0312 13.6562 16.5L15.4062 14.375L18.4688 15.6875L17.8125 18.5312Z" ></path>
  </symbol>
</svg>