<svg width="92" height="92" viewBox="0 0 92 92" fill="none" xmlns="http://www.w3.org/2000/svg">
<circle opacity="0.8" cx="45.6465" cy="45.6979" r="26.3205" transform="rotate(33.8543 45.6465 45.6979)" stroke="#205AA4"/>
<circle cx="45.6485" cy="45.6491" r="28.675" transform="rotate(33.8543 45.6485 45.6491)" stroke="#205AA4" stroke-width="2"/>
<path d="M32.2871 60.9456L32.2871 53.9456L36.8871 53.9456L36.8871 55.1956L33.5871 55.1956L33.5871 60.9456L32.2871 60.9456ZM39.2287 59.1556C39.622 59.5822 40.1253 59.7956 40.7387 59.7956C41.352 59.7956 41.8553 59.5822 42.2487 59.1556C42.642 58.7222 42.8387 58.1522 42.8387 57.4456C42.8387 56.7389 42.642 56.1722 42.2487 55.7456C41.8553 55.3122 41.352 55.0956 40.7387 55.0956C40.1253 55.0956 39.622 55.3122 39.2287 55.7456C38.8353 56.1722 38.6387 56.7389 38.6387 57.4456C38.6387 58.1522 38.8353 58.7222 39.2287 59.1556ZM38.3187 54.8656C38.972 54.1856 39.7787 53.8456 40.7387 53.8456C41.6987 53.8456 42.5053 54.1856 43.1587 54.8656C43.812 55.5456 44.1387 56.4056 44.1387 57.4456C44.1387 58.4856 43.812 59.3456 43.1587 60.0256C42.5053 60.7056 41.6987 61.0456 40.7387 61.0456C39.7787 61.0456 38.972 60.7056 38.3187 60.0256C37.6653 59.3456 37.3387 58.4856 37.3387 57.4456C37.3387 56.4056 37.6653 55.5456 38.3187 54.8656ZM44.584 62.3456L44.584 59.6956L44.634 59.6956C44.9407 59.6956 45.1573 59.6189 45.284 59.4656C45.4107 59.3122 45.494 59.0056 45.534 58.5456L45.934 53.9456L50.634 53.9456L50.634 59.6956L51.384 59.6956L51.384 62.3456L50.084 62.3456L50.084 60.9456L45.884 60.9456L45.884 62.3456L44.584 62.3456ZM46.484 59.6956L49.334 59.6956L49.334 55.1956L47.144 55.1956L46.834 58.8456C46.8073 59.0722 46.744 59.2822 46.644 59.4756C46.5907 59.5556 46.5373 59.6289 46.484 59.6956ZM51.5859 60.9456L54.0859 53.9456L55.9859 53.9456L58.4859 60.9456L57.0359 60.9456L56.5059 59.4456L53.5659 59.4456L53.0359 60.9456L51.5859 60.9456ZM53.9859 58.2456L56.0859 58.2456L55.1359 55.4456L54.9359 55.4456L53.9859 58.2456Z" fill="#325FA8"/>
<path d="M39.0771 48.4934L39.0771 45.2734L47.0571 37.5734C47.3558 37.2747 47.5704 37.0414 47.7011 36.8734C47.8504 36.6867 47.9904 36.4254 48.1211 36.0894C48.2518 35.7534 48.3171 35.3614 48.3171 34.9134C48.3171 34.1294 48.0558 33.4667 47.5331 32.9254C47.0104 32.3841 46.3384 32.1134 45.5171 32.1134C44.6584 32.1134 43.9304 32.4401 43.3331 33.0934C42.7358 33.7281 42.4371 34.5214 42.4371 35.4734L38.7971 35.4734C38.7971 33.4574 39.4224 31.8147 40.6731 30.5454C41.9424 29.2574 43.5571 28.6134 45.5171 28.6134C47.5144 28.6134 49.1104 29.2014 50.3051 30.3774C51.4998 31.5534 52.0971 33.0654 52.0971 34.9134C52.0971 35.2494 52.0691 35.5761 52.0131 35.8934C51.9571 36.1921 51.8918 36.4534 51.8171 36.6774C51.7611 36.9014 51.6491 37.1627 51.4811 37.4614C51.3318 37.7414 51.2104 37.9561 51.1171 38.1054C51.0238 38.2361 50.8558 38.4414 50.6131 38.7214C50.3704 39.0014 50.2024 39.1881 50.1091 39.2814C50.0344 39.3561 49.8478 39.5427 49.5491 39.8414C49.2504 40.1401 49.0731 40.3174 49.0171 40.3734L44.3971 44.8534L44.3971 44.9934L52.3771 44.9934L52.3771 48.4934L39.0771 48.4934Z" fill="#325FA8"/>
</svg>
